%TF.GenerationSoftware,KiCad,Pcbnew,7.0.7*%
%TF.CreationDate,2023-09-23T12:37:50-04:00*%
%TF.ProjectId,gateway_r0,67617465-7761-4795-9f72-302e6b696361,rev?*%
%TF.SameCoordinates,Original*%
%TF.FileFunction,Copper,L2,Bot*%
%TF.FilePolarity,Positive*%
%FSLAX46Y46*%
G04 Gerber Fmt 4.6, Leading zero omitted, Abs format (unit mm)*
G04 Created by KiCad (PCBNEW 7.0.7) date 2023-09-23 12:37:50*
%MOMM*%
%LPD*%
G01*
G04 APERTURE LIST*
%TA.AperFunction,ComponentPad*%
%ADD10O,2.743200X1.371600*%
%TD*%
%TA.AperFunction,ComponentPad*%
%ADD11R,1.651000X1.651000*%
%TD*%
%TA.AperFunction,ComponentPad*%
%ADD12C,1.651000*%
%TD*%
%TA.AperFunction,ComponentPad*%
%ADD13R,2.100000X2.100000*%
%TD*%
%TA.AperFunction,ComponentPad*%
%ADD14C,2.100000*%
%TD*%
%TA.AperFunction,ComponentPad*%
%ADD15O,1.371600X2.743200*%
%TD*%
%TA.AperFunction,ViaPad*%
%ADD16C,0.685800*%
%TD*%
%TA.AperFunction,ViaPad*%
%ADD17C,0.904800*%
%TD*%
%TA.AperFunction,ViaPad*%
%ADD18C,0.609600*%
%TD*%
%TA.AperFunction,Conductor*%
%ADD19C,0.254000*%
%TD*%
%TA.AperFunction,Conductor*%
%ADD20C,0.609600*%
%TD*%
%TA.AperFunction,Conductor*%
%ADD21C,0.406400*%
%TD*%
G04 APERTURE END LIST*
D10*
%TO.P,JP7,1*%
%TO.N,CANH_0*%
X167620750Y-121443950D03*
%TO.P,JP7,2*%
%TO.N,N$15*%
X167620750Y-118903950D03*
%TD*%
D11*
%TO.P,JP3,33*%
%TO.N,MISO_A*%
X177780750Y-101123950D03*
D12*
%TO.P,JP3,34*%
%TO.N,SCK_A*%
X177780750Y-103663950D03*
%TO.P,JP3,35*%
%TO.N,N/C*%
X177780750Y-106203950D03*
%TO.P,JP3,36*%
%TO.N,GND*%
X180320750Y-106203950D03*
%TO.P,JP3,37*%
%TO.N,MOSI_A*%
X180320750Y-103663950D03*
%TO.P,JP3,38*%
%TO.N,N/C*%
X180320750Y-101123950D03*
%TD*%
D11*
%TO.P,JP2,1*%
%TO.N,IO0*%
X177780750Y-80803950D03*
D12*
%TO.P,JP2,2*%
%TO.N,IO1*%
X175240750Y-80803950D03*
%TO.P,JP2,3*%
%TO.N,IO2*%
X172700750Y-80803950D03*
%TO.P,JP2,4*%
%TO.N,IO3*%
X170160750Y-80803950D03*
%TO.P,JP2,5*%
%TO.N,164_CS*%
X167620750Y-80803950D03*
%TO.P,JP2,6*%
%TO.N,165_~{CS}*%
X165080750Y-80803950D03*
%TO.P,JP2,7*%
%TO.N,INT_1*%
X162540750Y-80803950D03*
%TO.P,JP2,8*%
%TO.N,INT_0*%
X160000750Y-80803950D03*
%TD*%
%TO.P,JP5,19*%
%TO.N,ADC6*%
X142220750Y-129063950D03*
%TO.P,JP5,20*%
%TO.N,ADC7*%
X144760750Y-129063950D03*
%TO.P,JP5,21*%
%TO.N,RST*%
X147300750Y-129063950D03*
%TO.P,JP5,22*%
%TO.N,+3V3*%
X149840750Y-129063950D03*
%TO.P,JP5,23*%
%TO.N,+5V*%
X152380750Y-129063950D03*
%TO.P,JP5,24*%
%TO.N,GND*%
X154920750Y-129063950D03*
%TO.P,JP5,25*%
X157460750Y-129063950D03*
D11*
%TO.P,JP5,26*%
%TO.N,VIN*%
X160000750Y-129063950D03*
%TD*%
D13*
%TO.P,CON2,P$1*%
%TO.N,CANH_1*%
X118725750Y-116363950D03*
D14*
%TO.P,CON2,P$2*%
%TO.N,CANL_1*%
X118725750Y-119863950D03*
%TD*%
D15*
%TO.P,JP6,1*%
%TO.N,CANH_1*%
X117455750Y-110648950D03*
%TO.P,JP6,2*%
%TO.N,N$2*%
X119995750Y-110648950D03*
%TD*%
D13*
%TO.P,CON3,P$1*%
%TO.N,CANH_0*%
X178542750Y-119919950D03*
D14*
%TO.P,CON3,P$2*%
%TO.N,CANL_0*%
X178542750Y-116419950D03*
%TD*%
D13*
%TO.P,CON1,P$1*%
%TO.N,V+*%
X118725750Y-101758950D03*
D14*
%TO.P,CON1,P$2*%
%TO.N,GND*%
X118725750Y-105258950D03*
%TD*%
D11*
%TO.P,JP1,9*%
%TO.N,LCD_~{CS}*%
X155936750Y-80803950D03*
D12*
%TO.P,JP1,10*%
%TO.N,CS_0*%
X153396750Y-80803950D03*
%TO.P,JP1,11*%
%TO.N,CS_1*%
X150856750Y-80803950D03*
%TO.P,JP1,12*%
%TO.N,MOSI_B*%
X148316750Y-80803950D03*
%TO.P,JP1,13*%
%TO.N,MISO_B*%
X145776750Y-80803950D03*
%TO.P,JP1,14*%
%TO.N,SCK_B*%
X143236750Y-80803950D03*
%TO.P,JP1,15*%
%TO.N,GND*%
X140696750Y-80803950D03*
%TO.P,JP1,16*%
%TO.N,REF*%
X138156750Y-80803950D03*
%TO.P,JP1,17*%
%TO.N,N/C*%
X135616750Y-80803950D03*
%TO.P,JP1,18*%
X133076750Y-80803950D03*
%TD*%
D16*
%TO.N,GND*%
X133965750Y-110648950D03*
D17*
X150094750Y-100615950D03*
D18*
X127996750Y-94011950D03*
D17*
X150094750Y-104425950D03*
X139934750Y-98710950D03*
D18*
X138156750Y-90709950D03*
D16*
X121900750Y-111918950D03*
X121900750Y-123348950D03*
D17*
X139934750Y-103790950D03*
D18*
X164318750Y-115093950D03*
D17*
X150094750Y-103155950D03*
X139934750Y-101250950D03*
D18*
X127234750Y-94011950D03*
D16*
X144760750Y-122078950D03*
D17*
X139934750Y-102520950D03*
X150094750Y-99345950D03*
D18*
X160254750Y-119411950D03*
D17*
X150094750Y-105695950D03*
D18*
X159238750Y-96551950D03*
X136124750Y-85883950D03*
D17*
X139934750Y-106330950D03*
D18*
X127996750Y-94773950D03*
X168382750Y-85121950D03*
D16*
X140188750Y-120173950D03*
D18*
X178542750Y-90709950D03*
D17*
X139934750Y-99980950D03*
D18*
X130790750Y-95535950D03*
D17*
X139934750Y-107600950D03*
X139934750Y-105060950D03*
X150094750Y-106965950D03*
D18*
X127234750Y-94773950D03*
D17*
X150094750Y-101885950D03*
X150094750Y-108235950D03*
D18*
%TO.N,MISO_A*%
X127742750Y-87915950D03*
X136378750Y-88169950D03*
%TO.N,MISO_B*%
X160254750Y-104425950D03*
X145776750Y-85706150D03*
X160254750Y-101885950D03*
%TO.N,MOSI_B*%
X161270750Y-101885950D03*
X148316750Y-85629950D03*
X161270750Y-104425950D03*
%TO.N,SCK_B*%
X162286750Y-101885950D03*
X143236750Y-85121950D03*
X162286750Y-104425950D03*
%TO.N,+5V*%
X157206750Y-99599950D03*
X154666750Y-102139950D03*
X163302750Y-113315950D03*
D16*
X135235750Y-109378950D03*
X135235750Y-107473950D03*
D18*
X159238750Y-111791950D03*
X152380750Y-123221950D03*
%TO.N,CANL_0*%
X165588750Y-117887950D03*
X163048750Y-121189950D03*
%TO.N,TX_CAN_0*%
X163810750Y-112045950D03*
X163302750Y-101885950D03*
X163302750Y-104425950D03*
X162286750Y-112045950D03*
%TO.N,RX_CAN_0*%
X164318750Y-96043950D03*
X164318750Y-101885950D03*
X164318750Y-104425950D03*
X164318750Y-94519950D03*
D16*
%TO.N,RX_CAN_1*%
X132695750Y-113188950D03*
X132695750Y-107727950D03*
D18*
%TO.N,INT_0*%
X165334750Y-104425950D03*
X165334750Y-101885950D03*
X162032750Y-87661950D03*
X165334750Y-96043950D03*
X165334750Y-93757950D03*
%TO.N,INT_1*%
X156444750Y-98837950D03*
D16*
X144506750Y-113696950D03*
D18*
X150348750Y-111029950D03*
X153904750Y-101377950D03*
X155428750Y-83597950D03*
D16*
X148316750Y-113696950D03*
D18*
X154412750Y-91471950D03*
%TO.N,165_~{CS}*%
X138410750Y-87915950D03*
X132568750Y-89693950D03*
%TO.N,164_CS*%
X154158750Y-83597950D03*
X133076750Y-88931950D03*
X137394750Y-87661950D03*
X154158750Y-85121950D03*
%TO.N,N$22*%
X132314750Y-85883950D03*
X132314750Y-87407950D03*
%TO.N,CS_0*%
X153396750Y-89439950D03*
%TO.N,CS_1*%
X159238750Y-101885950D03*
X150856750Y-87153950D03*
X159238750Y-104425950D03*
%TD*%
D19*
%TO.N,MISO_A*%
X133584750Y-88169950D02*
X132568750Y-88169950D01*
X134092750Y-88677950D02*
X133584750Y-88169950D01*
X132568750Y-88169950D02*
X132314750Y-88423950D01*
X128250750Y-88423950D02*
X127742750Y-87915950D01*
X132314750Y-88423950D02*
X128250750Y-88423950D01*
X135870750Y-88677950D02*
X134092750Y-88677950D01*
X136378750Y-88169950D02*
X135870750Y-88677950D01*
%TO.N,MISO_B*%
X160254750Y-104425950D02*
X160254750Y-101885950D01*
X145776750Y-80803950D02*
X145776750Y-85706150D01*
%TO.N,MOSI_B*%
X161270750Y-104425950D02*
X161270750Y-101885950D01*
X148316750Y-80803950D02*
X148316750Y-85629950D01*
%TO.N,SCK_B*%
X143236750Y-80803950D02*
X143236750Y-85121950D01*
X162286750Y-104425950D02*
X162286750Y-101885950D01*
D20*
%TO.N,+5V*%
X148824750Y-119157950D02*
X141458750Y-119157950D01*
X152380750Y-122713950D02*
X148824750Y-119157950D01*
X152380750Y-123221950D02*
X152380750Y-122713950D01*
D21*
X154666750Y-102139950D02*
X157206750Y-99599950D01*
D19*
X159238750Y-111791950D02*
X159238750Y-112299950D01*
D20*
X152380750Y-129063950D02*
X152380750Y-123221950D01*
X135362750Y-113061950D02*
X135362750Y-109505950D01*
X141458750Y-119157950D02*
X135362750Y-113061950D01*
D19*
X159238750Y-112299950D02*
X160000750Y-113061950D01*
D20*
X135235750Y-109378950D02*
X135235750Y-107473950D01*
D19*
X163048750Y-113061950D02*
X163302750Y-113315950D01*
D20*
X135362750Y-109505950D02*
X135235750Y-109378950D01*
D19*
X160000750Y-113061950D02*
X163048750Y-113061950D01*
%TO.N,CANL_0*%
X163048750Y-120427950D02*
X165588750Y-117887950D01*
X163048750Y-121189950D02*
X163048750Y-120427950D01*
%TO.N,TX_CAN_0*%
X163810750Y-112045950D02*
X162286750Y-112045950D01*
X163302750Y-104425950D02*
X163302750Y-101885950D01*
%TO.N,RX_CAN_0*%
X164318750Y-96043950D02*
X164318750Y-94519950D01*
X164318750Y-104425950D02*
X164318750Y-101885950D01*
%TO.N,RX_CAN_1*%
X132695750Y-113188950D02*
X132695750Y-107727950D01*
%TO.N,INT_0*%
X165334750Y-104425950D02*
X165334750Y-101885950D01*
X160000750Y-85629950D02*
X162032750Y-87661950D01*
X165334750Y-96043950D02*
X165334750Y-93757950D01*
X160000750Y-80803950D02*
X160000750Y-85629950D01*
%TO.N,INT_1*%
X155428750Y-83597950D02*
X155428750Y-85121950D01*
X148316750Y-113061950D02*
X150348750Y-111029950D01*
X144506750Y-113696950D02*
X148316750Y-113696950D01*
X153904750Y-101377950D02*
X156444750Y-98837950D01*
X148316750Y-113696950D02*
X148316750Y-113061950D01*
X154412750Y-91471950D02*
X154412750Y-86137950D01*
X155428750Y-85121950D02*
X154412750Y-86137950D01*
%TO.N,165_~{CS}*%
X132568750Y-89693950D02*
X136632750Y-89693950D01*
X136632750Y-89693950D02*
X138410750Y-87915950D01*
%TO.N,164_CS*%
X137140750Y-88423950D02*
X137140750Y-87915950D01*
X133330750Y-89185950D02*
X136378750Y-89185950D01*
X154158750Y-83597950D02*
X154158750Y-85121950D01*
X133076750Y-88931950D02*
X133330750Y-89185950D01*
X137140750Y-87915950D02*
X137394750Y-87661950D01*
X136378750Y-89185950D02*
X137140750Y-88423950D01*
%TO.N,N$22*%
X132314750Y-85883950D02*
X132314750Y-87407950D01*
%TO.N,CS_0*%
X153396750Y-80803950D02*
X153396750Y-89439950D01*
%TO.N,CS_1*%
X150856750Y-80803950D02*
X150856750Y-87153950D01*
X159238750Y-104425950D02*
X159238750Y-101885950D01*
%TD*%
%TA.AperFunction,Conductor*%
%TO.N,GND*%
G36*
X177781690Y-78289507D02*
G01*
X177804520Y-78290888D01*
X178081961Y-78307675D01*
X178085680Y-78308126D01*
X178380646Y-78362185D01*
X178384305Y-78363087D01*
X178560855Y-78418104D01*
X178670590Y-78452301D01*
X178674121Y-78453640D01*
X178947564Y-78576710D01*
X178950902Y-78578461D01*
X179075759Y-78653941D01*
X179207516Y-78733592D01*
X179210625Y-78735738D01*
X179446670Y-78920669D01*
X179449488Y-78923165D01*
X179661533Y-79135210D01*
X179664030Y-79138029D01*
X179848961Y-79374074D01*
X179851107Y-79377183D01*
X180006234Y-79633790D01*
X180007989Y-79637135D01*
X180131059Y-79910578D01*
X180132398Y-79914109D01*
X180221611Y-80200391D01*
X180222515Y-80204059D01*
X180276570Y-80499001D01*
X180277025Y-80502750D01*
X180295193Y-80803007D01*
X180295250Y-80804895D01*
X180295250Y-91200447D01*
X180293149Y-91211012D01*
X180293149Y-91217949D01*
X180293149Y-91217950D01*
X180295250Y-91223022D01*
X180301233Y-91237466D01*
X180301233Y-91237467D01*
X180306144Y-91242379D01*
X180315096Y-91248359D01*
X182816944Y-93750206D01*
X182835250Y-93794400D01*
X182835250Y-126487498D01*
X182816944Y-126531692D01*
X180315092Y-129033543D01*
X180306140Y-129039525D01*
X180301232Y-129044433D01*
X180296783Y-129055172D01*
X180296778Y-129055188D01*
X180293149Y-129063950D01*
X180293149Y-129070894D01*
X180295250Y-129081454D01*
X180295250Y-130325671D01*
X180295249Y-130332725D01*
X180295153Y-130335171D01*
X180280320Y-130523737D01*
X180278785Y-130533425D01*
X180235499Y-130713743D01*
X180232469Y-130723070D01*
X180161504Y-130894405D01*
X180157051Y-130903145D01*
X180060157Y-131061265D01*
X180054393Y-131069199D01*
X179933954Y-131210218D01*
X179927018Y-131217154D01*
X179785999Y-131337593D01*
X179778065Y-131343357D01*
X179619945Y-131440251D01*
X179611205Y-131444704D01*
X179439870Y-131515669D01*
X179430543Y-131518699D01*
X179250225Y-131561985D01*
X179240538Y-131563519D01*
X179051970Y-131578354D01*
X179049518Y-131578450D01*
X115551982Y-131578450D01*
X115549530Y-131578354D01*
X115360961Y-131563520D01*
X115351274Y-131561985D01*
X115170956Y-131518699D01*
X115161629Y-131515669D01*
X114990294Y-131444704D01*
X114981554Y-131440251D01*
X114823434Y-131343357D01*
X114815500Y-131337593D01*
X114752367Y-131283674D01*
X114674475Y-131217148D01*
X114667551Y-131210224D01*
X114547106Y-131069199D01*
X114541342Y-131061265D01*
X114444448Y-130903145D01*
X114439995Y-130894405D01*
X114369030Y-130723070D01*
X114366000Y-130713743D01*
X114336116Y-130589254D01*
X114322712Y-130533417D01*
X114321180Y-130523744D01*
X114306346Y-130335168D01*
X114306250Y-130332717D01*
X114306250Y-129063950D01*
X141237616Y-129063950D01*
X141256506Y-129255748D01*
X141312455Y-129440184D01*
X141403300Y-129610144D01*
X141403304Y-129610150D01*
X141525569Y-129759131D01*
X141674550Y-129881396D01*
X141674552Y-129881397D01*
X141674555Y-129881399D01*
X141844515Y-129972244D01*
X141844521Y-129972247D01*
X142028950Y-130028193D01*
X142082609Y-130033478D01*
X142220749Y-130047084D01*
X142220749Y-130047083D01*
X142220750Y-130047084D01*
X142412550Y-130028193D01*
X142596979Y-129972247D01*
X142766950Y-129881396D01*
X142915931Y-129759131D01*
X143038196Y-129610150D01*
X143129047Y-129440179D01*
X143184993Y-129255750D01*
X143203884Y-129063950D01*
X143777616Y-129063950D01*
X143796506Y-129255748D01*
X143852455Y-129440184D01*
X143943300Y-129610144D01*
X143943304Y-129610150D01*
X144065569Y-129759131D01*
X144214550Y-129881396D01*
X144214552Y-129881397D01*
X144214555Y-129881399D01*
X144384515Y-129972244D01*
X144384521Y-129972247D01*
X144568950Y-130028193D01*
X144622609Y-130033478D01*
X144760749Y-130047084D01*
X144760749Y-130047083D01*
X144760750Y-130047084D01*
X144952550Y-130028193D01*
X145136979Y-129972247D01*
X145306950Y-129881396D01*
X145455931Y-129759131D01*
X145578196Y-129610150D01*
X145669047Y-129440179D01*
X145724993Y-129255750D01*
X145743884Y-129063950D01*
X146317616Y-129063950D01*
X146336506Y-129255748D01*
X146392455Y-129440184D01*
X146483300Y-129610144D01*
X146483304Y-129610150D01*
X146605569Y-129759131D01*
X146754550Y-129881396D01*
X146754552Y-129881397D01*
X146754555Y-129881399D01*
X146924515Y-129972244D01*
X146924521Y-129972247D01*
X147108950Y-130028193D01*
X147300750Y-130047084D01*
X147492550Y-130028193D01*
X147676979Y-129972247D01*
X147846950Y-129881396D01*
X147995931Y-129759131D01*
X148118196Y-129610150D01*
X148209047Y-129440179D01*
X148264993Y-129255750D01*
X148283884Y-129063950D01*
X148857616Y-129063950D01*
X148876506Y-129255748D01*
X148932455Y-129440184D01*
X149023300Y-129610144D01*
X149023304Y-129610150D01*
X149145569Y-129759131D01*
X149294550Y-129881396D01*
X149294552Y-129881397D01*
X149294555Y-129881399D01*
X149464515Y-129972244D01*
X149464521Y-129972247D01*
X149648950Y-130028193D01*
X149840750Y-130047084D01*
X150032550Y-130028193D01*
X150216979Y-129972247D01*
X150386950Y-129881396D01*
X150535931Y-129759131D01*
X150658196Y-129610150D01*
X150749047Y-129440179D01*
X150804993Y-129255750D01*
X150823884Y-129063950D01*
X150823019Y-129055172D01*
X150804993Y-128872151D01*
X150804993Y-128872150D01*
X150749047Y-128687721D01*
X150658196Y-128517750D01*
X150535931Y-128368769D01*
X150386950Y-128246504D01*
X150386944Y-128246500D01*
X150216984Y-128155655D01*
X150216981Y-128155654D01*
X150216979Y-128155653D01*
X150115302Y-128124809D01*
X150032548Y-128099706D01*
X149840750Y-128080816D01*
X149648951Y-128099706D01*
X149502370Y-128144171D01*
X149464521Y-128155653D01*
X149464520Y-128155653D01*
X149464515Y-128155655D01*
X149294555Y-128246500D01*
X149294549Y-128246504D01*
X149145569Y-128368769D01*
X149023304Y-128517749D01*
X149023300Y-128517755D01*
X148932455Y-128687715D01*
X148876506Y-128872151D01*
X148857616Y-129063949D01*
X148857616Y-129063950D01*
X148283884Y-129063950D01*
X148283019Y-129055172D01*
X148264993Y-128872151D01*
X148264993Y-128872150D01*
X148209047Y-128687721D01*
X148118196Y-128517750D01*
X147995931Y-128368769D01*
X147846950Y-128246504D01*
X147846944Y-128246500D01*
X147676984Y-128155655D01*
X147676981Y-128155654D01*
X147676979Y-128155653D01*
X147575302Y-128124809D01*
X147492548Y-128099706D01*
X147300750Y-128080816D01*
X147108951Y-128099706D01*
X146962370Y-128144171D01*
X146924521Y-128155653D01*
X146924520Y-128155653D01*
X146924515Y-128155655D01*
X146754555Y-128246500D01*
X146754549Y-128246504D01*
X146605569Y-128368769D01*
X146483304Y-128517749D01*
X146483300Y-128517755D01*
X146392455Y-128687715D01*
X146336506Y-128872151D01*
X146317616Y-129063949D01*
X146317616Y-129063950D01*
X145743884Y-129063950D01*
X145743019Y-129055172D01*
X145724993Y-128872151D01*
X145724993Y-128872150D01*
X145669047Y-128687721D01*
X145578196Y-128517750D01*
X145455931Y-128368769D01*
X145306950Y-128246504D01*
X145306944Y-128246500D01*
X145136984Y-128155655D01*
X145136981Y-128155654D01*
X145136979Y-128155653D01*
X145035302Y-128124809D01*
X144952548Y-128099706D01*
X144760750Y-128080816D01*
X144568951Y-128099706D01*
X144422370Y-128144171D01*
X144384521Y-128155653D01*
X144384520Y-128155653D01*
X144384515Y-128155655D01*
X144214555Y-128246500D01*
X144214549Y-128246504D01*
X144065569Y-128368769D01*
X143943304Y-128517749D01*
X143943300Y-128517755D01*
X143852455Y-128687715D01*
X143796506Y-128872151D01*
X143777616Y-129063949D01*
X143777616Y-129063950D01*
X143203884Y-129063950D01*
X143203019Y-129055172D01*
X143184993Y-128872151D01*
X143184993Y-128872150D01*
X143129047Y-128687721D01*
X143038196Y-128517750D01*
X142915931Y-128368769D01*
X142766950Y-128246504D01*
X142766944Y-128246500D01*
X142596984Y-128155655D01*
X142596981Y-128155654D01*
X142596979Y-128155653D01*
X142495302Y-128124809D01*
X142412548Y-128099706D01*
X142220750Y-128080816D01*
X142028951Y-128099706D01*
X141882370Y-128144171D01*
X141844521Y-128155653D01*
X141844520Y-128155653D01*
X141844515Y-128155655D01*
X141674555Y-128246500D01*
X141674549Y-128246504D01*
X141525569Y-128368769D01*
X141403304Y-128517749D01*
X141403300Y-128517755D01*
X141312455Y-128687715D01*
X141256506Y-128872151D01*
X141237616Y-129063949D01*
X141237616Y-129063950D01*
X114306250Y-129063950D01*
X114306250Y-119863953D01*
X117517697Y-119863953D01*
X117538264Y-120085921D01*
X117538266Y-120085932D01*
X117584486Y-120248375D01*
X117599274Y-120300349D01*
X117698643Y-120499908D01*
X117698644Y-120499909D01*
X117698646Y-120499913D01*
X117832979Y-120677800D01*
X117832984Y-120677805D01*
X117832988Y-120677810D01*
X117997734Y-120827996D01*
X117997733Y-120827996D01*
X118187270Y-120945353D01*
X118187271Y-120945354D01*
X118187274Y-120945355D01*
X118395151Y-121025886D01*
X118614285Y-121066850D01*
X118614288Y-121066850D01*
X118837212Y-121066850D01*
X118837215Y-121066850D01*
X119056349Y-121025886D01*
X119264226Y-120945355D01*
X119453765Y-120827997D01*
X119618512Y-120677810D01*
X119643692Y-120644467D01*
X119752853Y-120499913D01*
X119752852Y-120499913D01*
X119752857Y-120499908D01*
X119852226Y-120300349D01*
X119913234Y-120085929D01*
X119933803Y-119863950D01*
X119921193Y-119727869D01*
X119913235Y-119641978D01*
X119913233Y-119641967D01*
X119894174Y-119574982D01*
X119852226Y-119427551D01*
X119752857Y-119227992D01*
X119752854Y-119227988D01*
X119752853Y-119227986D01*
X119618520Y-119050099D01*
X119618515Y-119050094D01*
X119618512Y-119050090D01*
X119453765Y-118899903D01*
X119453766Y-118899903D01*
X119264229Y-118782546D01*
X119264228Y-118782545D01*
X119059281Y-118703150D01*
X119056349Y-118702014D01*
X119056348Y-118702013D01*
X119056346Y-118702013D01*
X118837217Y-118661050D01*
X118837215Y-118661050D01*
X118614285Y-118661050D01*
X118614282Y-118661050D01*
X118395153Y-118702013D01*
X118187271Y-118782545D01*
X118187270Y-118782546D01*
X117997733Y-118899903D01*
X117847545Y-119036818D01*
X117843585Y-119040430D01*
X117832986Y-119050092D01*
X117832979Y-119050099D01*
X117698646Y-119227986D01*
X117698643Y-119227992D01*
X117599274Y-119427550D01*
X117538266Y-119641967D01*
X117538264Y-119641978D01*
X117517697Y-119863946D01*
X117517697Y-119863953D01*
X114306250Y-119863953D01*
X114306250Y-117429004D01*
X117522850Y-117429004D01*
X117522851Y-117429008D01*
X117531721Y-117473606D01*
X117531722Y-117473608D01*
X117565516Y-117524184D01*
X117616092Y-117557978D01*
X117660693Y-117566850D01*
X119790806Y-117566849D01*
X119835408Y-117557978D01*
X119885984Y-117524184D01*
X119919778Y-117473608D01*
X119928650Y-117429007D01*
X119928649Y-115298894D01*
X119919778Y-115254292D01*
X119885984Y-115203716D01*
X119835408Y-115169922D01*
X119835407Y-115169921D01*
X119799678Y-115162814D01*
X119790807Y-115161050D01*
X119790806Y-115161050D01*
X117660695Y-115161050D01*
X117660691Y-115161051D01*
X117616093Y-115169921D01*
X117616092Y-115169922D01*
X117565516Y-115203716D01*
X117531721Y-115254292D01*
X117522850Y-115298893D01*
X117522850Y-117429004D01*
X114306250Y-117429004D01*
X114306250Y-113188949D01*
X132194852Y-113188949D01*
X132215141Y-113330067D01*
X132215142Y-113330070D01*
X132274367Y-113459754D01*
X132274370Y-113459759D01*
X132357616Y-113555829D01*
X132367732Y-113567503D01*
X132487669Y-113644583D01*
X132624462Y-113684749D01*
X132624464Y-113684750D01*
X132624465Y-113684750D01*
X132767036Y-113684750D01*
X132767036Y-113684749D01*
X132903831Y-113644583D01*
X133023768Y-113567503D01*
X133117132Y-113459756D01*
X133176358Y-113330069D01*
X133196648Y-113188950D01*
X133176358Y-113047831D01*
X133117132Y-112918144D01*
X133097365Y-112895332D01*
X133023769Y-112810398D01*
X133023768Y-112810397D01*
X133013875Y-112804039D01*
X133004356Y-112797921D01*
X132977077Y-112758626D01*
X132975649Y-112745344D01*
X132975649Y-109378949D01*
X134734852Y-109378949D01*
X134755141Y-109520067D01*
X134755142Y-109520070D01*
X134795716Y-109608914D01*
X134814368Y-109649756D01*
X134852503Y-109693766D01*
X134889784Y-109736789D01*
X134905050Y-109777718D01*
X134905050Y-113034485D01*
X134904853Y-113037986D01*
X134900203Y-113079255D01*
X134911438Y-113138636D01*
X134920443Y-113198383D01*
X134920662Y-113198836D01*
X134925760Y-113214326D01*
X134925855Y-113214826D01*
X134925855Y-113214827D01*
X134925856Y-113214828D01*
X134925856Y-113214830D01*
X134954089Y-113268249D01*
X134980307Y-113322690D01*
X134980310Y-113322696D01*
X134980653Y-113323065D01*
X134990086Y-113336360D01*
X134990322Y-113336806D01*
X134990328Y-113336815D01*
X135033057Y-113379544D01*
X135074152Y-113423833D01*
X135074155Y-113423836D01*
X135074589Y-113424086D01*
X135087532Y-113434018D01*
X141115680Y-119462165D01*
X141118016Y-119464778D01*
X141143918Y-119497258D01*
X141193854Y-119531304D01*
X141193855Y-119531304D01*
X141242462Y-119567178D01*
X141242463Y-119567179D01*
X141242464Y-119567179D01*
X141242465Y-119567180D01*
X141242934Y-119567344D01*
X141257506Y-119574700D01*
X141257919Y-119574982D01*
X141315649Y-119592788D01*
X141315650Y-119592789D01*
X141372697Y-119612751D01*
X141373194Y-119612769D01*
X141389287Y-119615503D01*
X141389763Y-119615650D01*
X141389765Y-119615650D01*
X141450175Y-119615650D01*
X141510575Y-119617910D01*
X141510579Y-119617909D01*
X141510581Y-119617909D01*
X141511059Y-119617781D01*
X141527239Y-119615650D01*
X148609276Y-119615650D01*
X148653470Y-119633956D01*
X151904744Y-122885229D01*
X151923050Y-122929423D01*
X151923050Y-123184740D01*
X151922414Y-123193634D01*
X151918343Y-123221949D01*
X151922414Y-123250263D01*
X151923050Y-123259158D01*
X151923050Y-128161737D01*
X151904744Y-128205931D01*
X151890013Y-128216856D01*
X151834559Y-128246497D01*
X151834549Y-128246504D01*
X151685569Y-128368769D01*
X151563304Y-128517749D01*
X151563300Y-128517755D01*
X151472455Y-128687715D01*
X151416506Y-128872151D01*
X151397616Y-129063949D01*
X151397616Y-129063950D01*
X151416506Y-129255748D01*
X151472455Y-129440184D01*
X151563300Y-129610144D01*
X151563304Y-129610150D01*
X151685569Y-129759131D01*
X151834550Y-129881396D01*
X151834552Y-129881397D01*
X151834555Y-129881399D01*
X152004515Y-129972244D01*
X152004521Y-129972247D01*
X152188950Y-130028193D01*
X152242609Y-130033478D01*
X152380749Y-130047084D01*
X152380749Y-130047083D01*
X152380750Y-130047084D01*
X152572550Y-130028193D01*
X152756979Y-129972247D01*
X152883718Y-129904504D01*
X159022350Y-129904504D01*
X159022351Y-129904508D01*
X159031221Y-129949106D01*
X159031222Y-129949108D01*
X159065016Y-129999684D01*
X159115592Y-130033478D01*
X159160193Y-130042350D01*
X160841306Y-130042349D01*
X160885908Y-130033478D01*
X160936484Y-129999684D01*
X160970278Y-129949108D01*
X160979150Y-129904507D01*
X160979149Y-128223394D01*
X160970278Y-128178792D01*
X160936484Y-128128216D01*
X160885908Y-128094422D01*
X160885907Y-128094421D01*
X160850177Y-128087314D01*
X160841307Y-128085550D01*
X160841306Y-128085550D01*
X159160195Y-128085550D01*
X159160191Y-128085551D01*
X159115593Y-128094421D01*
X159115592Y-128094422D01*
X159065016Y-128128216D01*
X159031221Y-128178792D01*
X159022350Y-128223393D01*
X159022350Y-129904504D01*
X152883718Y-129904504D01*
X152926950Y-129881396D01*
X153075931Y-129759131D01*
X153198196Y-129610150D01*
X153289047Y-129440179D01*
X153344993Y-129255750D01*
X153363884Y-129063950D01*
X153363019Y-129055172D01*
X153344993Y-128872151D01*
X153344993Y-128872150D01*
X153289047Y-128687721D01*
X153198196Y-128517750D01*
X153075931Y-128368769D01*
X152926950Y-128246504D01*
X152926940Y-128246497D01*
X152871487Y-128216856D01*
X152841141Y-128179879D01*
X152838450Y-128161737D01*
X152838450Y-124051718D01*
X178466337Y-124051718D01*
X178481212Y-124186905D01*
X178495967Y-124321004D01*
X178564489Y-124583103D01*
X178670442Y-124832432D01*
X178789968Y-125028282D01*
X178811570Y-125063678D01*
X178984859Y-125271907D01*
X178984873Y-125271921D01*
X179186615Y-125452682D01*
X179186620Y-125452686D01*
X179186625Y-125452690D01*
X179305835Y-125531558D01*
X179412565Y-125602170D01*
X179544770Y-125664145D01*
X179657854Y-125717157D01*
X179917276Y-125795205D01*
X180185296Y-125834650D01*
X180185297Y-125834650D01*
X180388388Y-125834650D01*
X180590926Y-125819826D01*
X180590928Y-125819825D01*
X180590935Y-125819825D01*
X180855361Y-125760922D01*
X181108393Y-125664145D01*
X181344638Y-125531558D01*
X181559060Y-125365987D01*
X181747090Y-125170959D01*
X181904720Y-124950633D01*
X182028590Y-124709703D01*
X182116061Y-124453306D01*
X182165268Y-124186905D01*
X182175162Y-123916178D01*
X182145533Y-123646896D01*
X182077011Y-123384797D01*
X181971058Y-123135468D01*
X181829931Y-122904224D01*
X181814123Y-122885229D01*
X181656640Y-122695992D01*
X181656626Y-122695978D01*
X181454884Y-122515217D01*
X181454877Y-122515212D01*
X181454875Y-122515210D01*
X181361156Y-122453206D01*
X181228934Y-122365729D01*
X180983649Y-122250744D01*
X180983644Y-122250742D01*
X180724233Y-122172697D01*
X180724219Y-122172694D01*
X180456210Y-122133250D01*
X180456204Y-122133250D01*
X180253118Y-122133250D01*
X180253112Y-122133250D01*
X180050573Y-122148073D01*
X179786136Y-122206978D01*
X179533105Y-122303755D01*
X179296859Y-122436343D01*
X179082441Y-122601912D01*
X179082432Y-122601919D01*
X178894412Y-122796937D01*
X178894405Y-122796946D01*
X178736778Y-123017268D01*
X178612909Y-123258198D01*
X178612906Y-123258204D01*
X178525442Y-123514581D01*
X178525437Y-123514602D01*
X178476233Y-123780986D01*
X178476231Y-123781007D01*
X178466337Y-124051718D01*
X152838450Y-124051718D01*
X152838450Y-123259158D01*
X152839086Y-123250263D01*
X152843157Y-123221950D01*
X152839086Y-123193634D01*
X152838450Y-123184740D01*
X152838450Y-122741414D01*
X152838647Y-122737913D01*
X152839726Y-122728329D01*
X152843297Y-122696643D01*
X152832061Y-122637263D01*
X152823056Y-122577517D01*
X152822839Y-122577067D01*
X152817735Y-122561552D01*
X152817645Y-122561074D01*
X152789410Y-122507650D01*
X152763191Y-122453206D01*
X152763188Y-122453203D01*
X152763188Y-122453202D01*
X152762846Y-122452834D01*
X152753408Y-122439530D01*
X152753176Y-122439091D01*
X152753175Y-122439090D01*
X152753174Y-122439088D01*
X152710441Y-122396355D01*
X152669345Y-122352064D01*
X152668904Y-122351809D01*
X152655966Y-122341880D01*
X151504035Y-121189949D01*
X162586343Y-121189949D01*
X162605073Y-121320223D01*
X162605074Y-121320226D01*
X162659747Y-121439945D01*
X162659751Y-121439951D01*
X162745937Y-121539413D01*
X162745939Y-121539415D01*
X162809760Y-121580430D01*
X162856659Y-121610570D01*
X162982940Y-121647649D01*
X162982942Y-121647650D01*
X162982943Y-121647650D01*
X163114558Y-121647650D01*
X163114558Y-121647649D01*
X163240841Y-121610570D01*
X163351562Y-121539414D01*
X163437752Y-121439946D01*
X163456782Y-121398276D01*
X166092541Y-121398276D01*
X166102418Y-121580430D01*
X166102418Y-121580434D01*
X166102419Y-121580437D01*
X166127188Y-121669649D01*
X166151223Y-121756216D01*
X166151225Y-121756220D01*
X166195175Y-121839118D01*
X166236674Y-121917393D01*
X166354776Y-122056432D01*
X166500006Y-122166833D01*
X166500009Y-122166835D01*
X166665566Y-122243430D01*
X166665569Y-122243431D01*
X166665573Y-122243433D01*
X166843736Y-122282650D01*
X166843739Y-122282650D01*
X168352014Y-122282650D01*
X168352018Y-122282650D01*
X168487909Y-122267871D01*
X168660787Y-122209621D01*
X168817102Y-122115570D01*
X168949544Y-121990114D01*
X169051921Y-121839120D01*
X169119444Y-121669649D01*
X169148958Y-121489624D01*
X169146264Y-121439946D01*
X169139081Y-121307469D01*
X169139081Y-121307463D01*
X169090277Y-121131685D01*
X169085592Y-121122849D01*
X169046324Y-121048781D01*
X169012512Y-120985004D01*
X177339850Y-120985004D01*
X177339851Y-120985008D01*
X177348721Y-121029606D01*
X177348722Y-121029608D01*
X177382516Y-121080184D01*
X177433092Y-121113978D01*
X177477693Y-121122850D01*
X179607806Y-121122849D01*
X179652408Y-121113978D01*
X179702984Y-121080184D01*
X179736778Y-121029608D01*
X179745650Y-120985007D01*
X179745649Y-118854894D01*
X179736778Y-118810292D01*
X179702984Y-118759716D01*
X179652408Y-118725922D01*
X179652407Y-118725921D01*
X179616678Y-118718814D01*
X179607807Y-118717050D01*
X179607806Y-118717050D01*
X177477695Y-118717050D01*
X177477691Y-118717051D01*
X177433093Y-118725921D01*
X177433092Y-118725922D01*
X177382516Y-118759716D01*
X177348721Y-118810292D01*
X177339850Y-118854892D01*
X177339850Y-120985004D01*
X169012512Y-120985004D01*
X169004826Y-120970507D01*
X168886724Y-120831468D01*
X168741494Y-120721067D01*
X168741493Y-120721066D01*
X168741490Y-120721064D01*
X168575933Y-120644469D01*
X168575928Y-120644467D01*
X168531386Y-120634662D01*
X168397764Y-120605250D01*
X166889482Y-120605250D01*
X166889481Y-120605250D01*
X166753590Y-120620029D01*
X166753585Y-120620030D01*
X166580714Y-120678278D01*
X166424399Y-120772328D01*
X166291952Y-120897790D01*
X166189579Y-121048777D01*
X166189577Y-121048781D01*
X166122058Y-121218243D01*
X166122057Y-121218248D01*
X166122056Y-121218251D01*
X166092542Y-121398276D01*
X166092541Y-121398276D01*
X163456782Y-121398276D01*
X163492426Y-121320225D01*
X163511157Y-121189950D01*
X163492426Y-121059675D01*
X163437752Y-120939954D01*
X163437748Y-120939948D01*
X163351565Y-120840490D01*
X163351562Y-120840486D01*
X163351555Y-120840481D01*
X163350221Y-120839325D01*
X163349762Y-120838409D01*
X163348635Y-120837108D01*
X163348967Y-120836820D01*
X163328809Y-120796549D01*
X163328650Y-120792090D01*
X163328650Y-120569776D01*
X163346956Y-120525582D01*
X165014263Y-118858276D01*
X166092541Y-118858276D01*
X166102418Y-119040430D01*
X166102418Y-119040434D01*
X166102419Y-119040437D01*
X166105100Y-119050092D01*
X166151223Y-119216216D01*
X166151225Y-119216220D01*
X166195175Y-119299118D01*
X166236674Y-119377393D01*
X166354776Y-119516432D01*
X166488267Y-119617909D01*
X166500009Y-119626835D01*
X166665566Y-119703430D01*
X166665569Y-119703431D01*
X166665573Y-119703433D01*
X166843736Y-119742650D01*
X166843739Y-119742650D01*
X168352014Y-119742650D01*
X168352018Y-119742650D01*
X168487909Y-119727871D01*
X168660787Y-119669621D01*
X168817102Y-119575570D01*
X168949544Y-119450114D01*
X169051921Y-119299120D01*
X169119444Y-119129649D01*
X169148958Y-118949624D01*
X169139081Y-118767463D01*
X169090277Y-118591685D01*
X169004826Y-118430507D01*
X168886724Y-118291468D01*
X168741494Y-118181067D01*
X168741493Y-118181066D01*
X168741490Y-118181064D01*
X168575933Y-118104469D01*
X168575928Y-118104467D01*
X168531386Y-118094662D01*
X168397764Y-118065250D01*
X166889482Y-118065250D01*
X166889481Y-118065250D01*
X166753590Y-118080029D01*
X166753585Y-118080030D01*
X166580714Y-118138278D01*
X166424399Y-118232328D01*
X166291952Y-118357790D01*
X166189579Y-118508777D01*
X166189577Y-118508781D01*
X166122058Y-118678243D01*
X166122057Y-118678248D01*
X166122056Y-118678251D01*
X166092542Y-118858276D01*
X166092541Y-118858276D01*
X165014263Y-118858276D01*
X165508583Y-118363956D01*
X165552777Y-118345650D01*
X165654558Y-118345650D01*
X165654558Y-118345649D01*
X165780841Y-118308570D01*
X165891562Y-118237414D01*
X165953845Y-118165535D01*
X165977748Y-118137951D01*
X165977749Y-118137949D01*
X165977752Y-118137946D01*
X166032426Y-118018225D01*
X166051157Y-117887950D01*
X166032426Y-117757675D01*
X165977752Y-117637954D01*
X165977748Y-117637948D01*
X165891562Y-117538486D01*
X165891560Y-117538484D01*
X165780845Y-117467332D01*
X165780836Y-117467328D01*
X165654559Y-117430250D01*
X165654557Y-117430250D01*
X165522943Y-117430250D01*
X165522941Y-117430250D01*
X165396663Y-117467328D01*
X165396654Y-117467332D01*
X165285939Y-117538484D01*
X165285937Y-117538486D01*
X165199751Y-117637948D01*
X165199747Y-117637954D01*
X165145074Y-117757673D01*
X165145073Y-117757676D01*
X165126343Y-117887951D01*
X165130258Y-117915185D01*
X165118427Y-117961534D01*
X165112588Y-117968272D01*
X162890324Y-120190536D01*
X162881512Y-120196879D01*
X162881773Y-120197225D01*
X162877150Y-120200716D01*
X162846748Y-120234065D01*
X162845753Y-120235108D01*
X162832492Y-120248369D01*
X162832487Y-120248375D01*
X162830038Y-120251950D01*
X162827351Y-120255341D01*
X162806653Y-120278046D01*
X162806652Y-120278049D01*
X162802101Y-120289796D01*
X162795387Y-120302535D01*
X162788264Y-120312934D01*
X162788263Y-120312935D01*
X162781230Y-120342839D01*
X162779948Y-120346978D01*
X162768850Y-120375627D01*
X162768850Y-120388227D01*
X162767190Y-120402536D01*
X162764306Y-120414798D01*
X162768550Y-120445225D01*
X162768850Y-120449548D01*
X162768850Y-120792090D01*
X162750544Y-120836284D01*
X162747279Y-120839325D01*
X162745940Y-120840484D01*
X162745938Y-120840486D01*
X162745936Y-120840488D01*
X162745934Y-120840490D01*
X162659751Y-120939948D01*
X162659747Y-120939954D01*
X162605074Y-121059673D01*
X162605073Y-121059676D01*
X162586343Y-121189949D01*
X151504035Y-121189949D01*
X149167818Y-118853733D01*
X149165481Y-118851118D01*
X149139584Y-118818644D01*
X149139578Y-118818639D01*
X149089644Y-118784595D01*
X149041034Y-118748719D01*
X149040550Y-118748550D01*
X149026003Y-118741206D01*
X149025581Y-118740918D01*
X148967835Y-118723106D01*
X148950530Y-118717051D01*
X148910803Y-118703150D01*
X148910800Y-118703149D01*
X148910799Y-118703149D01*
X148910290Y-118703130D01*
X148894227Y-118700401D01*
X148893739Y-118700250D01*
X148893737Y-118700250D01*
X148833313Y-118700250D01*
X148772925Y-118697990D01*
X148772919Y-118697990D01*
X148772441Y-118698119D01*
X148756261Y-118700250D01*
X141674224Y-118700250D01*
X141630030Y-118681944D01*
X139368039Y-116419953D01*
X177334697Y-116419953D01*
X177355264Y-116641921D01*
X177355266Y-116641932D01*
X177416274Y-116856348D01*
X177416274Y-116856349D01*
X177515643Y-117055908D01*
X177515644Y-117055909D01*
X177515646Y-117055913D01*
X177649979Y-117233800D01*
X177649984Y-117233805D01*
X177649988Y-117233810D01*
X177814734Y-117383996D01*
X177814733Y-117383996D01*
X178004270Y-117501353D01*
X178004271Y-117501354D01*
X178004274Y-117501355D01*
X178212151Y-117581886D01*
X178431285Y-117622850D01*
X178431288Y-117622850D01*
X178654212Y-117622850D01*
X178654215Y-117622850D01*
X178873349Y-117581886D01*
X179081226Y-117501355D01*
X179270765Y-117383997D01*
X179435512Y-117233810D01*
X179569857Y-117055908D01*
X179669226Y-116856349D01*
X179730234Y-116641929D01*
X179750803Y-116419950D01*
X179730234Y-116197971D01*
X179669226Y-115983551D01*
X179569857Y-115783992D01*
X179569854Y-115783988D01*
X179569853Y-115783986D01*
X179435520Y-115606099D01*
X179435515Y-115606094D01*
X179435512Y-115606090D01*
X179270765Y-115455903D01*
X179270766Y-115455903D01*
X179081229Y-115338546D01*
X179081228Y-115338545D01*
X178873346Y-115258013D01*
X178654217Y-115217050D01*
X178654215Y-115217050D01*
X178431285Y-115217050D01*
X178431282Y-115217050D01*
X178212153Y-115258013D01*
X178004271Y-115338545D01*
X178004270Y-115338546D01*
X177814733Y-115455903D01*
X177649986Y-115606092D01*
X177649979Y-115606099D01*
X177515646Y-115783986D01*
X177515643Y-115783992D01*
X177416274Y-115983550D01*
X177355266Y-116197967D01*
X177355264Y-116197978D01*
X177334697Y-116419946D01*
X177334697Y-116419953D01*
X139368039Y-116419953D01*
X136645035Y-113696949D01*
X144005852Y-113696949D01*
X144026141Y-113838067D01*
X144026142Y-113838070D01*
X144085367Y-113967754D01*
X144085370Y-113967759D01*
X144178730Y-114075501D01*
X144178732Y-114075503D01*
X144298669Y-114152583D01*
X144435462Y-114192749D01*
X144435464Y-114192750D01*
X144435465Y-114192750D01*
X144578036Y-114192750D01*
X144578036Y-114192749D01*
X144714831Y-114152583D01*
X144834768Y-114075503D01*
X144901560Y-113998420D01*
X144944335Y-113977009D01*
X144948794Y-113976850D01*
X147874706Y-113976850D01*
X147918900Y-113995156D01*
X147921933Y-113998413D01*
X147988732Y-114075503D01*
X148108669Y-114152583D01*
X148245462Y-114192749D01*
X148245464Y-114192750D01*
X148245465Y-114192750D01*
X148388036Y-114192750D01*
X148388036Y-114192749D01*
X148524831Y-114152583D01*
X148644768Y-114075503D01*
X148738132Y-113967756D01*
X148797358Y-113838069D01*
X148817648Y-113696950D01*
X148797358Y-113555831D01*
X148738132Y-113426144D01*
X148736132Y-113423836D01*
X148644768Y-113318397D01*
X148644767Y-113318396D01*
X148625358Y-113305922D01*
X148598078Y-113266628D01*
X148596650Y-113253345D01*
X148596650Y-113203776D01*
X148614956Y-113159582D01*
X149982588Y-111791950D01*
X158776343Y-111791950D01*
X158795073Y-111922223D01*
X158795074Y-111922226D01*
X158849747Y-112041945D01*
X158849751Y-112041951D01*
X158916060Y-112118474D01*
X158935938Y-112141414D01*
X158935944Y-112141418D01*
X158937279Y-112142575D01*
X158937737Y-112143490D01*
X158938865Y-112144792D01*
X158938532Y-112145079D01*
X158958691Y-112185351D01*
X158958850Y-112189810D01*
X158958850Y-112244095D01*
X158957101Y-112254814D01*
X158957532Y-112254875D01*
X158956731Y-112260612D01*
X158958032Y-112288735D01*
X158958817Y-112305720D01*
X158958850Y-112307136D01*
X158958850Y-112325885D01*
X158959593Y-112329864D01*
X158959647Y-112330151D01*
X158960145Y-112334450D01*
X158961564Y-112365141D01*
X158966655Y-112376672D01*
X158970914Y-112390428D01*
X158973229Y-112402812D01*
X158989402Y-112428931D01*
X158991423Y-112432764D01*
X159003834Y-112460872D01*
X159012742Y-112469780D01*
X159021686Y-112481071D01*
X159028318Y-112491782D01*
X159052835Y-112510297D01*
X159056103Y-112513141D01*
X159763336Y-113220374D01*
X159769683Y-113229193D01*
X159770030Y-113228932D01*
X159773518Y-113233551D01*
X159806876Y-113263961D01*
X159807899Y-113264937D01*
X159821168Y-113278206D01*
X159821174Y-113278211D01*
X159824742Y-113280655D01*
X159828141Y-113283347D01*
X159838128Y-113292451D01*
X159850849Y-113304048D01*
X159862593Y-113308597D01*
X159875341Y-113315316D01*
X159885732Y-113322435D01*
X159885734Y-113322436D01*
X159915650Y-113329471D01*
X159919763Y-113330744D01*
X159948428Y-113341850D01*
X159961028Y-113341850D01*
X159975335Y-113343509D01*
X159987599Y-113346394D01*
X160012182Y-113342964D01*
X160018026Y-113342150D01*
X160022349Y-113341850D01*
X162789910Y-113341850D01*
X162834104Y-113360156D01*
X162851774Y-113395455D01*
X162859073Y-113446223D01*
X162859074Y-113446226D01*
X162913747Y-113565945D01*
X162913751Y-113565951D01*
X162999937Y-113665413D01*
X162999939Y-113665415D01*
X163030025Y-113684750D01*
X163110659Y-113736570D01*
X163236940Y-113773649D01*
X163236942Y-113773650D01*
X163236943Y-113773650D01*
X163368558Y-113773650D01*
X163368558Y-113773649D01*
X163494841Y-113736570D01*
X163605562Y-113665414D01*
X163691752Y-113565946D01*
X163746426Y-113446225D01*
X163765157Y-113315950D01*
X163746426Y-113185675D01*
X163691752Y-113065954D01*
X163691748Y-113065948D01*
X163605562Y-112966486D01*
X163605560Y-112966484D01*
X163494845Y-112895332D01*
X163494836Y-112895328D01*
X163368559Y-112858250D01*
X163368557Y-112858250D01*
X163266016Y-112858250D01*
X163230689Y-112847308D01*
X163224748Y-112843238D01*
X163221355Y-112840550D01*
X163198651Y-112819852D01*
X163198649Y-112819851D01*
X163198647Y-112819849D01*
X163186901Y-112815299D01*
X163174158Y-112808582D01*
X163163769Y-112801466D01*
X163163765Y-112801463D01*
X163133860Y-112794430D01*
X163129722Y-112793148D01*
X163101073Y-112782050D01*
X163101072Y-112782050D01*
X163088472Y-112782050D01*
X163074164Y-112780390D01*
X163061901Y-112777506D01*
X163061900Y-112777506D01*
X163031474Y-112781750D01*
X163027151Y-112782050D01*
X160142577Y-112782050D01*
X160098383Y-112763744D01*
X159552296Y-112217657D01*
X159533990Y-112173463D01*
X159549255Y-112132535D01*
X159599975Y-112074001D01*
X159624284Y-112045949D01*
X161824343Y-112045949D01*
X161843073Y-112176223D01*
X161843074Y-112176226D01*
X161897747Y-112295945D01*
X161897751Y-112295951D01*
X161983937Y-112395413D01*
X161983939Y-112395415D01*
X162094654Y-112466567D01*
X162094659Y-112466570D01*
X162220940Y-112503649D01*
X162220942Y-112503650D01*
X162220943Y-112503650D01*
X162352558Y-112503650D01*
X162352558Y-112503649D01*
X162478841Y-112466570D01*
X162589562Y-112395414D01*
X162615794Y-112365141D01*
X162631149Y-112347421D01*
X162673925Y-112326009D01*
X162678383Y-112325850D01*
X163419117Y-112325850D01*
X163463311Y-112344156D01*
X163466351Y-112347421D01*
X163507937Y-112395413D01*
X163507939Y-112395415D01*
X163618654Y-112466567D01*
X163618659Y-112466570D01*
X163744940Y-112503649D01*
X163744942Y-112503650D01*
X163744943Y-112503650D01*
X163876558Y-112503650D01*
X163876558Y-112503649D01*
X164002841Y-112466570D01*
X164113562Y-112395414D01*
X164199752Y-112295946D01*
X164254426Y-112176225D01*
X164273157Y-112045950D01*
X164254426Y-111915675D01*
X164199752Y-111795954D01*
X164199748Y-111795948D01*
X164113562Y-111696486D01*
X164113560Y-111696484D01*
X164002845Y-111625332D01*
X164002836Y-111625328D01*
X163876559Y-111588250D01*
X163876557Y-111588250D01*
X163744943Y-111588250D01*
X163744941Y-111588250D01*
X163618663Y-111625328D01*
X163618654Y-111625332D01*
X163507939Y-111696484D01*
X163507937Y-111696486D01*
X163466351Y-111744479D01*
X163423575Y-111765891D01*
X163419117Y-111766050D01*
X162678383Y-111766050D01*
X162634189Y-111747744D01*
X162631149Y-111744479D01*
X162589562Y-111696486D01*
X162589560Y-111696484D01*
X162478845Y-111625332D01*
X162478836Y-111625328D01*
X162352559Y-111588250D01*
X162352557Y-111588250D01*
X162220943Y-111588250D01*
X162220941Y-111588250D01*
X162094663Y-111625328D01*
X162094654Y-111625332D01*
X161983939Y-111696484D01*
X161983937Y-111696486D01*
X161897751Y-111795948D01*
X161897747Y-111795954D01*
X161843074Y-111915673D01*
X161843073Y-111915676D01*
X161824343Y-112045949D01*
X159624284Y-112045949D01*
X159627748Y-112041951D01*
X159627749Y-112041949D01*
X159627752Y-112041946D01*
X159682426Y-111922225D01*
X159701157Y-111791950D01*
X159682426Y-111661675D01*
X159627752Y-111541954D01*
X159627748Y-111541948D01*
X159541562Y-111442486D01*
X159541560Y-111442484D01*
X159430845Y-111371332D01*
X159430836Y-111371328D01*
X159304559Y-111334250D01*
X159304557Y-111334250D01*
X159172943Y-111334250D01*
X159172941Y-111334250D01*
X159046663Y-111371328D01*
X159046654Y-111371332D01*
X158935939Y-111442484D01*
X158935937Y-111442486D01*
X158849751Y-111541948D01*
X158849747Y-111541954D01*
X158795074Y-111661673D01*
X158795073Y-111661676D01*
X158776343Y-111791950D01*
X149982588Y-111791950D01*
X150268582Y-111505956D01*
X150312776Y-111487650D01*
X150414558Y-111487650D01*
X150414558Y-111487649D01*
X150540841Y-111450570D01*
X150651562Y-111379414D01*
X150737752Y-111279946D01*
X150792426Y-111160225D01*
X150811157Y-111029950D01*
X150792426Y-110899675D01*
X150737752Y-110779954D01*
X150737748Y-110779948D01*
X150651562Y-110680486D01*
X150651560Y-110680484D01*
X150540845Y-110609332D01*
X150540836Y-110609328D01*
X150414559Y-110572250D01*
X150414557Y-110572250D01*
X150282943Y-110572250D01*
X150282941Y-110572250D01*
X150156663Y-110609328D01*
X150156654Y-110609332D01*
X150045939Y-110680484D01*
X150045937Y-110680486D01*
X149959751Y-110779948D01*
X149959747Y-110779954D01*
X149905074Y-110899673D01*
X149905073Y-110899676D01*
X149886343Y-111029951D01*
X149890258Y-111057185D01*
X149878427Y-111103534D01*
X149872588Y-111110272D01*
X148158324Y-112824536D01*
X148149512Y-112830879D01*
X148149773Y-112831225D01*
X148145150Y-112834716D01*
X148114748Y-112868065D01*
X148113753Y-112869108D01*
X148100492Y-112882369D01*
X148100487Y-112882375D01*
X148098038Y-112885950D01*
X148095351Y-112889341D01*
X148074653Y-112912046D01*
X148074652Y-112912049D01*
X148070101Y-112923796D01*
X148063387Y-112936535D01*
X148056264Y-112946934D01*
X148056263Y-112946935D01*
X148049230Y-112976839D01*
X148047948Y-112980978D01*
X148036850Y-113009627D01*
X148036850Y-113022227D01*
X148035190Y-113036536D01*
X148032306Y-113048798D01*
X148036550Y-113079225D01*
X148036850Y-113083548D01*
X148036850Y-113253345D01*
X148018544Y-113297539D01*
X148008142Y-113305922D01*
X147988732Y-113318396D01*
X147988731Y-113318397D01*
X147966971Y-113343510D01*
X147921961Y-113395455D01*
X147921940Y-113395479D01*
X147879165Y-113416891D01*
X147874706Y-113417050D01*
X144948794Y-113417050D01*
X144904600Y-113398744D01*
X144901560Y-113395479D01*
X144901539Y-113395455D01*
X144838493Y-113322696D01*
X144834769Y-113318398D01*
X144834768Y-113318397D01*
X144791912Y-113290854D01*
X144714832Y-113241317D01*
X144714826Y-113241315D01*
X144578037Y-113201150D01*
X144578035Y-113201150D01*
X144435465Y-113201150D01*
X144435463Y-113201150D01*
X144298673Y-113241315D01*
X144298667Y-113241317D01*
X144178730Y-113318398D01*
X144085370Y-113426140D01*
X144085367Y-113426145D01*
X144026142Y-113555829D01*
X144026141Y-113555832D01*
X144005852Y-113696949D01*
X136645035Y-113696949D01*
X135838756Y-112890670D01*
X135820450Y-112846476D01*
X135820450Y-109533414D01*
X135820647Y-109529913D01*
X135821756Y-109520067D01*
X135825297Y-109488643D01*
X135814061Y-109429263D01*
X135805056Y-109369517D01*
X135804839Y-109369067D01*
X135799735Y-109353552D01*
X135799645Y-109353074D01*
X135771410Y-109299650D01*
X135745191Y-109245206D01*
X135745188Y-109245203D01*
X135745188Y-109245202D01*
X135744846Y-109244834D01*
X135735408Y-109231530D01*
X135735176Y-109231091D01*
X135735172Y-109231086D01*
X135711756Y-109207670D01*
X135693450Y-109163476D01*
X135693450Y-107678826D01*
X135699098Y-107652862D01*
X135716358Y-107615069D01*
X135736648Y-107473950D01*
X135716358Y-107332831D01*
X135657132Y-107203144D01*
X135576605Y-107110212D01*
X135563769Y-107095398D01*
X135563768Y-107095397D01*
X135520911Y-107067854D01*
X135443832Y-107018317D01*
X135443826Y-107018315D01*
X135307037Y-106978150D01*
X135307035Y-106978150D01*
X135164465Y-106978150D01*
X135164463Y-106978150D01*
X135027673Y-107018315D01*
X135027667Y-107018317D01*
X134907730Y-107095398D01*
X134814370Y-107203140D01*
X134814367Y-107203145D01*
X134755142Y-107332829D01*
X134755141Y-107332832D01*
X134734852Y-107473950D01*
X134755141Y-107615067D01*
X134772402Y-107652862D01*
X134778050Y-107678826D01*
X134778050Y-109174073D01*
X134772402Y-109200036D01*
X134755142Y-109237829D01*
X134755141Y-109237832D01*
X134734852Y-109378949D01*
X132975649Y-109378949D01*
X132975649Y-108171554D01*
X132993955Y-108127360D01*
X133004355Y-108118978D01*
X133023768Y-108106503D01*
X133117132Y-107998756D01*
X133176358Y-107869069D01*
X133196648Y-107727950D01*
X133176358Y-107586831D01*
X133117132Y-107457144D01*
X133023768Y-107349397D01*
X132980911Y-107321854D01*
X132903832Y-107272317D01*
X132903826Y-107272315D01*
X132767037Y-107232150D01*
X132767035Y-107232150D01*
X132624465Y-107232150D01*
X132624463Y-107232150D01*
X132487673Y-107272315D01*
X132487667Y-107272317D01*
X132367730Y-107349398D01*
X132274370Y-107457140D01*
X132274367Y-107457145D01*
X132215142Y-107586829D01*
X132215141Y-107586832D01*
X132194852Y-107727950D01*
X132215141Y-107869067D01*
X132215142Y-107869070D01*
X132274367Y-107998754D01*
X132274370Y-107998759D01*
X132367730Y-108106501D01*
X132367732Y-108106503D01*
X132387140Y-108118976D01*
X132414421Y-108158266D01*
X132415850Y-108171553D01*
X132415850Y-112745345D01*
X132397544Y-112789539D01*
X132387142Y-112797922D01*
X132367732Y-112810396D01*
X132367731Y-112810397D01*
X132274370Y-112918140D01*
X132274367Y-112918145D01*
X132215142Y-113047829D01*
X132215141Y-113047832D01*
X132194852Y-113188949D01*
X114306250Y-113188949D01*
X114306250Y-111380218D01*
X116617050Y-111380218D01*
X116631829Y-111516109D01*
X116631830Y-111516114D01*
X116690078Y-111688985D01*
X116784128Y-111845300D01*
X116784130Y-111845302D01*
X116909586Y-111977744D01*
X116909589Y-111977746D01*
X116909590Y-111977747D01*
X117060577Y-112080120D01*
X117060581Y-112080122D01*
X117223613Y-112145079D01*
X117230051Y-112147644D01*
X117410076Y-112177158D01*
X117592237Y-112167281D01*
X117768015Y-112118477D01*
X117929193Y-112033026D01*
X118068232Y-111914924D01*
X118178633Y-111769694D01*
X118180393Y-111765891D01*
X118255230Y-111604133D01*
X118255233Y-111604127D01*
X118294450Y-111425964D01*
X118294450Y-111380218D01*
X119157050Y-111380218D01*
X119171829Y-111516109D01*
X119171830Y-111516114D01*
X119230078Y-111688985D01*
X119324128Y-111845300D01*
X119324130Y-111845302D01*
X119449586Y-111977744D01*
X119449589Y-111977746D01*
X119449590Y-111977747D01*
X119600577Y-112080120D01*
X119600581Y-112080122D01*
X119763613Y-112145079D01*
X119770051Y-112147644D01*
X119950076Y-112177158D01*
X120132237Y-112167281D01*
X120308015Y-112118477D01*
X120469193Y-112033026D01*
X120608232Y-111914924D01*
X120718633Y-111769694D01*
X120720393Y-111765891D01*
X120795230Y-111604133D01*
X120795233Y-111604127D01*
X120834450Y-111425964D01*
X120834450Y-109917682D01*
X120819671Y-109781791D01*
X120761421Y-109608913D01*
X120704833Y-109514862D01*
X120667371Y-109452599D01*
X120601420Y-109382976D01*
X120541914Y-109320156D01*
X120541910Y-109320153D01*
X120541909Y-109320152D01*
X120390922Y-109217779D01*
X120390918Y-109217777D01*
X120221456Y-109150258D01*
X120221452Y-109150257D01*
X120221449Y-109150256D01*
X120041424Y-109120742D01*
X120041423Y-109120742D01*
X120041417Y-109120741D01*
X119859269Y-109130618D01*
X119859264Y-109130618D01*
X119859263Y-109130619D01*
X119800670Y-109146886D01*
X119683483Y-109179423D01*
X119683479Y-109179425D01*
X119522306Y-109264874D01*
X119383270Y-109382974D01*
X119272864Y-109528209D01*
X119196269Y-109693766D01*
X119196267Y-109693771D01*
X119157050Y-109871938D01*
X119157050Y-111380218D01*
X118294450Y-111380218D01*
X118294450Y-109917682D01*
X118279671Y-109781791D01*
X118221421Y-109608913D01*
X118164833Y-109514862D01*
X118127371Y-109452599D01*
X118061420Y-109382976D01*
X118001914Y-109320156D01*
X118001910Y-109320153D01*
X118001909Y-109320152D01*
X117850922Y-109217779D01*
X117850918Y-109217777D01*
X117681456Y-109150258D01*
X117681452Y-109150257D01*
X117681449Y-109150256D01*
X117501424Y-109120742D01*
X117501423Y-109120742D01*
X117501417Y-109120741D01*
X117319269Y-109130618D01*
X117319264Y-109130618D01*
X117319263Y-109130619D01*
X117260670Y-109146886D01*
X117143483Y-109179423D01*
X117143479Y-109179425D01*
X116982306Y-109264874D01*
X116843270Y-109382974D01*
X116732864Y-109528209D01*
X116656269Y-109693766D01*
X116656267Y-109693771D01*
X116617050Y-109871938D01*
X116617050Y-111380218D01*
X114306250Y-111380218D01*
X114306250Y-106203953D01*
X176645106Y-106203953D01*
X176664440Y-106412616D01*
X176664442Y-106412627D01*
X176721793Y-106614191D01*
X176721794Y-106614192D01*
X176815206Y-106801790D01*
X176941499Y-106969028D01*
X177096371Y-107110212D01*
X177096370Y-107110212D01*
X177246461Y-107203145D01*
X177274550Y-107220537D01*
X177469966Y-107296242D01*
X177675966Y-107334750D01*
X177675969Y-107334750D01*
X177885531Y-107334750D01*
X177885534Y-107334750D01*
X178091534Y-107296242D01*
X178286950Y-107220537D01*
X178465128Y-107110213D01*
X178620001Y-106969028D01*
X178746294Y-106801790D01*
X178839706Y-106614192D01*
X178897058Y-106412624D01*
X178916394Y-106203950D01*
X178897058Y-105995276D01*
X178839706Y-105793708D01*
X178746294Y-105606110D01*
X178620001Y-105438872D01*
X178465128Y-105297687D01*
X178465129Y-105297687D01*
X178286954Y-105187365D01*
X178286951Y-105187364D01*
X178286950Y-105187363D01*
X178091534Y-105111658D01*
X178091532Y-105111657D01*
X178091528Y-105111656D01*
X177885538Y-105073150D01*
X177885534Y-105073150D01*
X177675966Y-105073150D01*
X177675961Y-105073150D01*
X177469971Y-105111656D01*
X177274545Y-105187365D01*
X177096370Y-105297687D01*
X176941497Y-105438874D01*
X176941495Y-105438876D01*
X176815206Y-105606110D01*
X176721794Y-105793707D01*
X176664442Y-105995272D01*
X176664440Y-105995283D01*
X176645106Y-106203946D01*
X176645106Y-106203953D01*
X114306250Y-106203953D01*
X114306250Y-104425949D01*
X158776343Y-104425949D01*
X158795073Y-104556223D01*
X158795074Y-104556226D01*
X158849747Y-104675945D01*
X158849751Y-104675951D01*
X158935937Y-104775413D01*
X158935939Y-104775415D01*
X159046654Y-104846567D01*
X159046659Y-104846570D01*
X159172940Y-104883649D01*
X159172942Y-104883650D01*
X159172943Y-104883650D01*
X159304558Y-104883650D01*
X159304558Y-104883649D01*
X159430841Y-104846570D01*
X159541562Y-104775414D01*
X159627752Y-104675946D01*
X159682426Y-104556225D01*
X159684885Y-104539116D01*
X159709295Y-104497976D01*
X159755644Y-104486146D01*
X159796784Y-104510555D01*
X159808614Y-104539116D01*
X159811073Y-104556223D01*
X159811074Y-104556226D01*
X159865747Y-104675945D01*
X159865751Y-104675951D01*
X159951937Y-104775413D01*
X159951939Y-104775415D01*
X160062654Y-104846567D01*
X160062659Y-104846570D01*
X160188940Y-104883649D01*
X160188942Y-104883650D01*
X160188943Y-104883650D01*
X160320558Y-104883650D01*
X160320558Y-104883649D01*
X160446841Y-104846570D01*
X160557562Y-104775414D01*
X160643752Y-104675946D01*
X160698426Y-104556225D01*
X160700885Y-104539116D01*
X160725295Y-104497976D01*
X160771644Y-104486146D01*
X160812784Y-104510555D01*
X160824614Y-104539116D01*
X160827073Y-104556223D01*
X160827074Y-104556226D01*
X160881747Y-104675945D01*
X160881751Y-104675951D01*
X160967937Y-104775413D01*
X160967939Y-104775415D01*
X161078654Y-104846567D01*
X161078659Y-104846570D01*
X161204940Y-104883649D01*
X161204942Y-104883650D01*
X161204943Y-104883650D01*
X161336558Y-104883650D01*
X161336558Y-104883649D01*
X161462841Y-104846570D01*
X161573562Y-104775414D01*
X161659752Y-104675946D01*
X161714426Y-104556225D01*
X161716885Y-104539116D01*
X161741295Y-104497976D01*
X161787644Y-104486146D01*
X161828784Y-104510555D01*
X161840614Y-104539116D01*
X161843073Y-104556223D01*
X161843074Y-104556226D01*
X161897747Y-104675945D01*
X161897751Y-104675951D01*
X161983937Y-104775413D01*
X161983939Y-104775415D01*
X162094654Y-104846567D01*
X162094659Y-104846570D01*
X162220940Y-104883649D01*
X162220942Y-104883650D01*
X162220943Y-104883650D01*
X162352558Y-104883650D01*
X162352558Y-104883649D01*
X162478841Y-104846570D01*
X162589562Y-104775414D01*
X162675752Y-104675946D01*
X162730426Y-104556225D01*
X162732885Y-104539116D01*
X162757295Y-104497976D01*
X162803644Y-104486146D01*
X162844784Y-104510555D01*
X162856614Y-104539116D01*
X162859073Y-104556223D01*
X162859074Y-104556226D01*
X162913747Y-104675945D01*
X162913751Y-104675951D01*
X162999937Y-104775413D01*
X162999939Y-104775415D01*
X163110654Y-104846567D01*
X163110659Y-104846570D01*
X163236940Y-104883649D01*
X163236942Y-104883650D01*
X163236943Y-104883650D01*
X163368558Y-104883650D01*
X163368558Y-104883649D01*
X163494841Y-104846570D01*
X163605562Y-104775414D01*
X163691752Y-104675946D01*
X163746426Y-104556225D01*
X163748885Y-104539116D01*
X163773295Y-104497976D01*
X163819644Y-104486146D01*
X163860784Y-104510555D01*
X163872614Y-104539116D01*
X163875073Y-104556223D01*
X163875074Y-104556226D01*
X163929747Y-104675945D01*
X163929751Y-104675951D01*
X164015937Y-104775413D01*
X164015939Y-104775415D01*
X164126654Y-104846567D01*
X164126659Y-104846570D01*
X164252940Y-104883649D01*
X164252942Y-104883650D01*
X164252943Y-104883650D01*
X164384558Y-104883650D01*
X164384558Y-104883649D01*
X164510841Y-104846570D01*
X164621562Y-104775414D01*
X164707752Y-104675946D01*
X164762426Y-104556225D01*
X164764885Y-104539116D01*
X164789295Y-104497976D01*
X164835644Y-104486146D01*
X164876784Y-104510555D01*
X164888614Y-104539116D01*
X164891073Y-104556223D01*
X164891074Y-104556226D01*
X164945747Y-104675945D01*
X164945751Y-104675951D01*
X165031937Y-104775413D01*
X165031939Y-104775415D01*
X165142654Y-104846567D01*
X165142659Y-104846570D01*
X165268940Y-104883649D01*
X165268942Y-104883650D01*
X165268943Y-104883650D01*
X165400558Y-104883650D01*
X165400558Y-104883649D01*
X165526841Y-104846570D01*
X165637562Y-104775414D01*
X165723752Y-104675946D01*
X165778426Y-104556225D01*
X165797157Y-104425950D01*
X165778426Y-104295675D01*
X165723752Y-104175954D01*
X165723748Y-104175948D01*
X165637565Y-104076490D01*
X165637562Y-104076486D01*
X165637555Y-104076481D01*
X165636221Y-104075325D01*
X165635762Y-104074409D01*
X165634635Y-104073108D01*
X165634967Y-104072820D01*
X165614809Y-104032549D01*
X165614650Y-104028090D01*
X165614650Y-103663950D01*
X176797616Y-103663950D01*
X176816506Y-103855748D01*
X176816507Y-103855750D01*
X176870138Y-104032549D01*
X176872455Y-104040184D01*
X176963300Y-104210144D01*
X176963304Y-104210150D01*
X177085569Y-104359131D01*
X177234550Y-104481396D01*
X177234552Y-104481397D01*
X177234555Y-104481399D01*
X177404515Y-104572244D01*
X177404521Y-104572247D01*
X177588950Y-104628193D01*
X177780750Y-104647084D01*
X177972550Y-104628193D01*
X178156979Y-104572247D01*
X178326950Y-104481396D01*
X178475931Y-104359131D01*
X178598196Y-104210150D01*
X178689047Y-104040179D01*
X178744993Y-103855750D01*
X178763884Y-103663950D01*
X179337616Y-103663950D01*
X179356506Y-103855748D01*
X179356507Y-103855750D01*
X179410138Y-104032549D01*
X179412455Y-104040184D01*
X179503300Y-104210144D01*
X179503304Y-104210150D01*
X179625569Y-104359131D01*
X179774550Y-104481396D01*
X179774552Y-104481397D01*
X179774555Y-104481399D01*
X179944515Y-104572244D01*
X179944521Y-104572247D01*
X180128950Y-104628193D01*
X180320750Y-104647084D01*
X180512550Y-104628193D01*
X180696979Y-104572247D01*
X180866950Y-104481396D01*
X181015931Y-104359131D01*
X181138196Y-104210150D01*
X181229047Y-104040179D01*
X181284993Y-103855750D01*
X181303884Y-103663950D01*
X181284993Y-103472150D01*
X181229047Y-103287721D01*
X181138196Y-103117750D01*
X181015931Y-102968769D01*
X180866950Y-102846504D01*
X180866944Y-102846500D01*
X180696984Y-102755655D01*
X180696981Y-102755654D01*
X180696979Y-102755653D01*
X180595302Y-102724809D01*
X180512548Y-102699706D01*
X180320750Y-102680816D01*
X180128951Y-102699706D01*
X179982370Y-102744171D01*
X179944521Y-102755653D01*
X179944520Y-102755653D01*
X179944515Y-102755655D01*
X179774555Y-102846500D01*
X179774549Y-102846504D01*
X179625569Y-102968769D01*
X179503304Y-103117749D01*
X179503300Y-103117755D01*
X179412455Y-103287715D01*
X179356506Y-103472151D01*
X179337616Y-103663949D01*
X179337616Y-103663950D01*
X178763884Y-103663950D01*
X178744993Y-103472150D01*
X178689047Y-103287721D01*
X178598196Y-103117750D01*
X178475931Y-102968769D01*
X178326950Y-102846504D01*
X178326944Y-102846500D01*
X178156984Y-102755655D01*
X178156981Y-102755654D01*
X178156979Y-102755653D01*
X178055302Y-102724809D01*
X177972548Y-102699706D01*
X177780750Y-102680816D01*
X177588951Y-102699706D01*
X177442370Y-102744171D01*
X177404521Y-102755653D01*
X177404520Y-102755653D01*
X177404515Y-102755655D01*
X177234555Y-102846500D01*
X177234549Y-102846504D01*
X177085569Y-102968769D01*
X176963304Y-103117749D01*
X176963300Y-103117755D01*
X176872455Y-103287715D01*
X176816506Y-103472151D01*
X176797616Y-103663949D01*
X176797616Y-103663950D01*
X165614650Y-103663950D01*
X165614650Y-102283810D01*
X165632956Y-102239616D01*
X165636221Y-102236575D01*
X165637551Y-102235420D01*
X165637562Y-102235414D01*
X165719774Y-102140537D01*
X165723748Y-102135951D01*
X165723749Y-102135949D01*
X165723752Y-102135946D01*
X165778426Y-102016225D01*
X165785862Y-101964504D01*
X176802350Y-101964504D01*
X176802351Y-101964508D01*
X176811221Y-102009106D01*
X176811222Y-102009108D01*
X176845016Y-102059684D01*
X176895592Y-102093478D01*
X176940193Y-102102350D01*
X178621306Y-102102349D01*
X178665908Y-102093478D01*
X178716484Y-102059684D01*
X178750278Y-102009108D01*
X178759150Y-101964507D01*
X178759150Y-101123953D01*
X179185106Y-101123953D01*
X179204440Y-101332616D01*
X179204442Y-101332627D01*
X179242201Y-101465332D01*
X179261794Y-101534192D01*
X179355206Y-101721790D01*
X179407082Y-101790484D01*
X179479174Y-101885950D01*
X179481499Y-101889028D01*
X179636371Y-102030212D01*
X179636370Y-102030212D01*
X179752873Y-102102348D01*
X179814550Y-102140537D01*
X180009966Y-102216242D01*
X180215966Y-102254750D01*
X180215969Y-102254750D01*
X180425531Y-102254750D01*
X180425534Y-102254750D01*
X180631534Y-102216242D01*
X180826950Y-102140537D01*
X181005128Y-102030213D01*
X181160001Y-101889028D01*
X181286294Y-101721790D01*
X181379706Y-101534192D01*
X181437058Y-101332624D01*
X181438251Y-101319749D01*
X181456394Y-101123953D01*
X181456394Y-101123946D01*
X181437059Y-100915283D01*
X181437057Y-100915272D01*
X181427776Y-100882657D01*
X181379706Y-100713708D01*
X181286294Y-100526110D01*
X181160001Y-100358872D01*
X181005128Y-100217687D01*
X181005129Y-100217687D01*
X180826954Y-100107365D01*
X180826951Y-100107364D01*
X180826950Y-100107363D01*
X180631534Y-100031658D01*
X180631532Y-100031657D01*
X180631528Y-100031656D01*
X180425538Y-99993150D01*
X180425534Y-99993150D01*
X180215966Y-99993150D01*
X180215961Y-99993150D01*
X180009971Y-100031656D01*
X179814545Y-100107365D01*
X179636370Y-100217687D01*
X179481497Y-100358874D01*
X179481495Y-100358876D01*
X179355206Y-100526110D01*
X179261794Y-100713707D01*
X179204442Y-100915272D01*
X179204440Y-100915283D01*
X179185106Y-101123946D01*
X179185106Y-101123953D01*
X178759150Y-101123953D01*
X178759149Y-100283394D01*
X178750278Y-100238792D01*
X178716484Y-100188216D01*
X178665908Y-100154422D01*
X178665907Y-100154421D01*
X178630177Y-100147314D01*
X178621307Y-100145550D01*
X178621306Y-100145550D01*
X176940195Y-100145550D01*
X176940191Y-100145551D01*
X176895593Y-100154421D01*
X176895592Y-100154422D01*
X176845016Y-100188216D01*
X176811221Y-100238792D01*
X176802350Y-100283393D01*
X176802350Y-101964504D01*
X165785862Y-101964504D01*
X165797157Y-101885950D01*
X165778426Y-101755675D01*
X165723752Y-101635954D01*
X165723748Y-101635948D01*
X165637562Y-101536486D01*
X165637560Y-101536484D01*
X165526845Y-101465332D01*
X165526836Y-101465328D01*
X165400559Y-101428250D01*
X165400557Y-101428250D01*
X165268943Y-101428250D01*
X165268941Y-101428250D01*
X165142663Y-101465328D01*
X165142654Y-101465332D01*
X165031939Y-101536484D01*
X165031937Y-101536486D01*
X164945751Y-101635948D01*
X164945747Y-101635954D01*
X164891074Y-101755673D01*
X164891073Y-101755676D01*
X164888614Y-101772784D01*
X164864205Y-101813923D01*
X164817855Y-101825753D01*
X164776716Y-101801344D01*
X164764886Y-101772784D01*
X164762426Y-101755676D01*
X164762425Y-101755673D01*
X164707752Y-101635954D01*
X164707748Y-101635948D01*
X164621562Y-101536486D01*
X164621560Y-101536484D01*
X164510845Y-101465332D01*
X164510836Y-101465328D01*
X164384559Y-101428250D01*
X164384557Y-101428250D01*
X164252943Y-101428250D01*
X164252941Y-101428250D01*
X164126663Y-101465328D01*
X164126654Y-101465332D01*
X164015939Y-101536484D01*
X164015937Y-101536486D01*
X163929751Y-101635948D01*
X163929747Y-101635954D01*
X163875074Y-101755673D01*
X163875073Y-101755676D01*
X163872614Y-101772784D01*
X163848205Y-101813923D01*
X163801855Y-101825753D01*
X163760716Y-101801344D01*
X163748886Y-101772784D01*
X163746426Y-101755676D01*
X163746425Y-101755673D01*
X163691752Y-101635954D01*
X163691748Y-101635948D01*
X163605562Y-101536486D01*
X163605560Y-101536484D01*
X163494845Y-101465332D01*
X163494836Y-101465328D01*
X163368559Y-101428250D01*
X163368557Y-101428250D01*
X163236943Y-101428250D01*
X163236941Y-101428250D01*
X163110663Y-101465328D01*
X163110654Y-101465332D01*
X162999939Y-101536484D01*
X162999937Y-101536486D01*
X162913751Y-101635948D01*
X162913747Y-101635954D01*
X162859074Y-101755673D01*
X162859073Y-101755676D01*
X162856614Y-101772784D01*
X162832205Y-101813923D01*
X162785855Y-101825753D01*
X162744716Y-101801344D01*
X162732886Y-101772784D01*
X162730426Y-101755676D01*
X162730425Y-101755673D01*
X162675752Y-101635954D01*
X162675748Y-101635948D01*
X162589562Y-101536486D01*
X162589560Y-101536484D01*
X162478845Y-101465332D01*
X162478836Y-101465328D01*
X162352559Y-101428250D01*
X162352557Y-101428250D01*
X162220943Y-101428250D01*
X162220941Y-101428250D01*
X162094663Y-101465328D01*
X162094654Y-101465332D01*
X161983939Y-101536484D01*
X161983937Y-101536486D01*
X161897751Y-101635948D01*
X161897747Y-101635954D01*
X161843074Y-101755673D01*
X161843073Y-101755676D01*
X161840614Y-101772784D01*
X161816205Y-101813923D01*
X161769855Y-101825753D01*
X161728716Y-101801344D01*
X161716886Y-101772784D01*
X161714426Y-101755676D01*
X161714425Y-101755673D01*
X161659752Y-101635954D01*
X161659748Y-101635948D01*
X161573562Y-101536486D01*
X161573560Y-101536484D01*
X161462845Y-101465332D01*
X161462836Y-101465328D01*
X161336559Y-101428250D01*
X161336557Y-101428250D01*
X161204943Y-101428250D01*
X161204941Y-101428250D01*
X161078663Y-101465328D01*
X161078654Y-101465332D01*
X160967939Y-101536484D01*
X160967937Y-101536486D01*
X160881751Y-101635948D01*
X160881747Y-101635954D01*
X160827074Y-101755673D01*
X160827073Y-101755676D01*
X160824614Y-101772784D01*
X160800205Y-101813923D01*
X160753855Y-101825753D01*
X160712716Y-101801344D01*
X160700886Y-101772784D01*
X160698426Y-101755676D01*
X160698425Y-101755673D01*
X160643752Y-101635954D01*
X160643748Y-101635948D01*
X160557562Y-101536486D01*
X160557560Y-101536484D01*
X160446845Y-101465332D01*
X160446836Y-101465328D01*
X160320559Y-101428250D01*
X160320557Y-101428250D01*
X160188943Y-101428250D01*
X160188941Y-101428250D01*
X160062663Y-101465328D01*
X160062654Y-101465332D01*
X159951939Y-101536484D01*
X159951937Y-101536486D01*
X159865751Y-101635948D01*
X159865747Y-101635954D01*
X159811074Y-101755673D01*
X159811073Y-101755676D01*
X159808614Y-101772784D01*
X159784205Y-101813923D01*
X159737855Y-101825753D01*
X159696716Y-101801344D01*
X159684886Y-101772784D01*
X159682426Y-101755676D01*
X159682425Y-101755673D01*
X159627752Y-101635954D01*
X159627748Y-101635948D01*
X159541562Y-101536486D01*
X159541560Y-101536484D01*
X159430845Y-101465332D01*
X159430836Y-101465328D01*
X159304559Y-101428250D01*
X159304557Y-101428250D01*
X159172943Y-101428250D01*
X159172941Y-101428250D01*
X159046663Y-101465328D01*
X159046654Y-101465332D01*
X158935939Y-101536484D01*
X158935937Y-101536486D01*
X158849751Y-101635948D01*
X158849747Y-101635954D01*
X158795074Y-101755673D01*
X158795073Y-101755676D01*
X158776343Y-101885949D01*
X158795073Y-102016223D01*
X158795074Y-102016226D01*
X158849747Y-102135945D01*
X158849751Y-102135951D01*
X158918721Y-102215545D01*
X158935938Y-102235414D01*
X158935944Y-102235418D01*
X158937279Y-102236575D01*
X158937737Y-102237490D01*
X158938865Y-102238792D01*
X158938532Y-102239079D01*
X158958691Y-102279351D01*
X158958850Y-102283810D01*
X158958850Y-104028090D01*
X158940544Y-104072284D01*
X158937279Y-104075325D01*
X158935940Y-104076484D01*
X158935938Y-104076486D01*
X158935936Y-104076488D01*
X158935934Y-104076490D01*
X158849751Y-104175948D01*
X158849747Y-104175954D01*
X158795074Y-104295673D01*
X158795073Y-104295676D01*
X158776343Y-104425949D01*
X114306250Y-104425949D01*
X114306250Y-102824004D01*
X117522850Y-102824004D01*
X117522851Y-102824008D01*
X117531721Y-102868606D01*
X117531722Y-102868608D01*
X117565516Y-102919184D01*
X117616092Y-102952978D01*
X117660693Y-102961850D01*
X119790806Y-102961849D01*
X119835408Y-102952978D01*
X119885984Y-102919184D01*
X119919778Y-102868608D01*
X119928650Y-102824007D01*
X119928650Y-102139950D01*
X154204343Y-102139950D01*
X154223073Y-102270223D01*
X154223074Y-102270226D01*
X154277747Y-102389945D01*
X154277751Y-102389951D01*
X154363937Y-102489413D01*
X154363939Y-102489415D01*
X154474654Y-102560567D01*
X154474659Y-102560570D01*
X154600940Y-102597649D01*
X154600942Y-102597650D01*
X154600943Y-102597650D01*
X154732558Y-102597650D01*
X154732558Y-102597649D01*
X154858841Y-102560570D01*
X154969562Y-102489414D01*
X155055752Y-102389946D01*
X155110426Y-102270225D01*
X155119278Y-102208649D01*
X155136946Y-102173353D01*
X157234600Y-100075701D01*
X157269902Y-100058032D01*
X157272558Y-100057650D01*
X157361078Y-100031658D01*
X157398841Y-100020570D01*
X157509562Y-99949414D01*
X157595752Y-99849946D01*
X157650426Y-99730225D01*
X157669157Y-99599950D01*
X157650426Y-99469675D01*
X157595752Y-99349954D01*
X157595748Y-99349948D01*
X157509562Y-99250486D01*
X157509560Y-99250484D01*
X157398845Y-99179332D01*
X157398836Y-99179328D01*
X157272559Y-99142250D01*
X157272557Y-99142250D01*
X157140943Y-99142250D01*
X157140941Y-99142250D01*
X157014663Y-99179328D01*
X157014654Y-99179332D01*
X156903939Y-99250484D01*
X156903937Y-99250486D01*
X156817751Y-99349948D01*
X156817747Y-99349954D01*
X156763073Y-99469675D01*
X156754220Y-99531248D01*
X156736550Y-99566546D01*
X154638901Y-101664197D01*
X154603607Y-101681866D01*
X154600943Y-101682249D01*
X154474663Y-101719328D01*
X154474654Y-101719332D01*
X154363939Y-101790484D01*
X154363937Y-101790486D01*
X154277751Y-101889948D01*
X154277747Y-101889954D01*
X154223074Y-102009673D01*
X154223073Y-102009676D01*
X154204343Y-102139950D01*
X119928650Y-102139950D01*
X119928649Y-101377949D01*
X153442343Y-101377949D01*
X153461073Y-101508223D01*
X153461074Y-101508226D01*
X153515747Y-101627945D01*
X153515751Y-101627951D01*
X153601937Y-101727413D01*
X153601939Y-101727415D01*
X153672535Y-101772784D01*
X153712659Y-101798570D01*
X153764947Y-101813923D01*
X153838940Y-101835649D01*
X153838942Y-101835650D01*
X153838943Y-101835650D01*
X153970558Y-101835650D01*
X153970558Y-101835649D01*
X154096841Y-101798570D01*
X154207562Y-101727414D01*
X154293752Y-101627946D01*
X154348426Y-101508225D01*
X154367157Y-101377950D01*
X154363240Y-101350714D01*
X154375069Y-101304367D01*
X154380903Y-101297633D01*
X156364582Y-99313956D01*
X156408777Y-99295650D01*
X156510558Y-99295650D01*
X156510558Y-99295649D01*
X156636841Y-99258570D01*
X156747562Y-99187414D01*
X156833752Y-99087946D01*
X156888426Y-98968225D01*
X156907157Y-98837950D01*
X156888426Y-98707675D01*
X156833752Y-98587954D01*
X156833748Y-98587948D01*
X156747562Y-98488486D01*
X156747560Y-98488484D01*
X156636845Y-98417332D01*
X156636836Y-98417328D01*
X156510559Y-98380250D01*
X156510557Y-98380250D01*
X156378943Y-98380250D01*
X156378941Y-98380250D01*
X156252663Y-98417328D01*
X156252654Y-98417332D01*
X156141939Y-98488484D01*
X156141937Y-98488486D01*
X156055751Y-98587948D01*
X156055747Y-98587954D01*
X156001074Y-98707673D01*
X156001073Y-98707676D01*
X155982343Y-98837951D01*
X155986258Y-98865185D01*
X155974427Y-98911534D01*
X155968588Y-98918272D01*
X153984918Y-100901944D01*
X153940724Y-100920250D01*
X153838941Y-100920250D01*
X153712663Y-100957328D01*
X153712654Y-100957332D01*
X153601939Y-101028484D01*
X153601937Y-101028486D01*
X153515751Y-101127948D01*
X153515747Y-101127954D01*
X153461074Y-101247673D01*
X153461073Y-101247676D01*
X153442343Y-101377949D01*
X119928649Y-101377949D01*
X119928649Y-100693894D01*
X119919778Y-100649292D01*
X119885984Y-100598716D01*
X119835408Y-100564922D01*
X119835407Y-100564921D01*
X119799677Y-100557814D01*
X119790807Y-100556050D01*
X119790806Y-100556050D01*
X117660695Y-100556050D01*
X117660691Y-100556051D01*
X117616093Y-100564921D01*
X117616092Y-100564922D01*
X117565516Y-100598716D01*
X117531721Y-100649292D01*
X117522850Y-100693893D01*
X117522850Y-102824004D01*
X114306250Y-102824004D01*
X114306250Y-96043950D01*
X163856343Y-96043950D01*
X163875073Y-96174223D01*
X163875074Y-96174226D01*
X163929747Y-96293945D01*
X163929751Y-96293951D01*
X164015937Y-96393413D01*
X164015939Y-96393415D01*
X164126654Y-96464567D01*
X164126659Y-96464570D01*
X164252940Y-96501649D01*
X164252942Y-96501650D01*
X164252943Y-96501650D01*
X164384558Y-96501650D01*
X164384558Y-96501649D01*
X164510841Y-96464570D01*
X164621562Y-96393414D01*
X164707752Y-96293946D01*
X164762426Y-96174225D01*
X164764885Y-96157116D01*
X164789295Y-96115976D01*
X164835644Y-96104146D01*
X164876784Y-96128555D01*
X164888614Y-96157116D01*
X164891073Y-96174223D01*
X164891074Y-96174226D01*
X164945747Y-96293945D01*
X164945751Y-96293951D01*
X165031937Y-96393413D01*
X165031939Y-96393415D01*
X165142654Y-96464567D01*
X165142659Y-96464570D01*
X165268940Y-96501649D01*
X165268942Y-96501650D01*
X165268943Y-96501650D01*
X165400558Y-96501650D01*
X165400558Y-96501649D01*
X165526841Y-96464570D01*
X165637562Y-96393414D01*
X165723752Y-96293946D01*
X165778426Y-96174225D01*
X165787413Y-96111718D01*
X178466337Y-96111718D01*
X178495966Y-96380997D01*
X178495967Y-96381004D01*
X178564489Y-96643103D01*
X178670442Y-96892432D01*
X178789968Y-97088282D01*
X178811570Y-97123678D01*
X178984859Y-97331907D01*
X178984873Y-97331921D01*
X179186615Y-97512682D01*
X179186620Y-97512686D01*
X179186625Y-97512690D01*
X179305835Y-97591558D01*
X179412565Y-97662170D01*
X179544770Y-97724145D01*
X179657854Y-97777157D01*
X179917276Y-97855205D01*
X180185296Y-97894650D01*
X180185297Y-97894650D01*
X180388388Y-97894650D01*
X180590926Y-97879826D01*
X180590928Y-97879825D01*
X180590935Y-97879825D01*
X180855361Y-97820922D01*
X181108393Y-97724145D01*
X181344638Y-97591558D01*
X181559060Y-97425987D01*
X181747090Y-97230959D01*
X181904720Y-97010633D01*
X182028590Y-96769703D01*
X182116061Y-96513306D01*
X182165268Y-96246905D01*
X182175162Y-95976178D01*
X182145533Y-95706896D01*
X182077011Y-95444797D01*
X181971058Y-95195468D01*
X181829931Y-94964224D01*
X181791305Y-94917810D01*
X181656640Y-94755992D01*
X181656626Y-94755978D01*
X181454884Y-94575217D01*
X181454877Y-94575212D01*
X181454875Y-94575210D01*
X181335667Y-94496343D01*
X181228934Y-94425729D01*
X180983649Y-94310744D01*
X180983644Y-94310742D01*
X180724233Y-94232697D01*
X180724219Y-94232694D01*
X180456210Y-94193250D01*
X180456204Y-94193250D01*
X180253118Y-94193250D01*
X180253112Y-94193250D01*
X180050573Y-94208073D01*
X179786136Y-94266978D01*
X179533105Y-94363755D01*
X179296859Y-94496343D01*
X179082441Y-94661912D01*
X179082432Y-94661919D01*
X178894412Y-94856937D01*
X178894405Y-94856946D01*
X178736778Y-95077268D01*
X178612909Y-95318198D01*
X178612906Y-95318204D01*
X178525442Y-95574581D01*
X178525437Y-95574602D01*
X178476233Y-95840986D01*
X178476231Y-95841007D01*
X178466337Y-96111718D01*
X165787413Y-96111718D01*
X165797157Y-96043950D01*
X165778426Y-95913675D01*
X165723752Y-95793954D01*
X165723748Y-95793948D01*
X165661686Y-95722326D01*
X165637562Y-95694486D01*
X165637555Y-95694481D01*
X165636221Y-95693325D01*
X165635762Y-95692409D01*
X165634635Y-95691108D01*
X165634967Y-95690820D01*
X165614809Y-95650549D01*
X165614650Y-95646090D01*
X165614650Y-94155810D01*
X165632956Y-94111616D01*
X165636221Y-94108575D01*
X165637551Y-94107420D01*
X165637562Y-94107414D01*
X165723752Y-94007946D01*
X165778426Y-93888225D01*
X165797157Y-93757950D01*
X165778426Y-93627675D01*
X165723752Y-93507954D01*
X165723748Y-93507948D01*
X165637562Y-93408486D01*
X165637560Y-93408484D01*
X165526845Y-93337332D01*
X165526836Y-93337328D01*
X165400559Y-93300250D01*
X165400557Y-93300250D01*
X165268943Y-93300250D01*
X165268941Y-93300250D01*
X165142663Y-93337328D01*
X165142654Y-93337332D01*
X165031939Y-93408484D01*
X165031937Y-93408486D01*
X164945751Y-93507948D01*
X164945747Y-93507954D01*
X164891074Y-93627673D01*
X164891073Y-93627676D01*
X164872343Y-93757949D01*
X164891073Y-93888223D01*
X164891074Y-93888226D01*
X164945747Y-94007945D01*
X164945751Y-94007951D01*
X164992803Y-94062250D01*
X165031938Y-94107414D01*
X165031944Y-94107418D01*
X165033279Y-94108575D01*
X165033737Y-94109490D01*
X165034865Y-94110792D01*
X165034532Y-94111079D01*
X165054691Y-94151351D01*
X165054850Y-94155810D01*
X165054850Y-95646090D01*
X165036544Y-95690284D01*
X165033279Y-95693325D01*
X165031940Y-95694484D01*
X165031938Y-95694486D01*
X165031936Y-95694488D01*
X165031934Y-95694490D01*
X164945751Y-95793948D01*
X164945747Y-95793954D01*
X164891074Y-95913673D01*
X164891073Y-95913676D01*
X164888614Y-95930784D01*
X164864205Y-95971923D01*
X164817855Y-95983753D01*
X164776716Y-95959344D01*
X164764886Y-95930784D01*
X164762426Y-95913676D01*
X164762425Y-95913673D01*
X164729230Y-95840986D01*
X164707752Y-95793954D01*
X164707748Y-95793948D01*
X164645686Y-95722326D01*
X164621562Y-95694486D01*
X164621555Y-95694481D01*
X164620221Y-95693325D01*
X164619762Y-95692409D01*
X164618635Y-95691108D01*
X164618967Y-95690820D01*
X164598809Y-95650549D01*
X164598650Y-95646090D01*
X164598650Y-94917810D01*
X164616956Y-94873616D01*
X164620221Y-94870575D01*
X164621551Y-94869420D01*
X164621562Y-94869414D01*
X164707752Y-94769946D01*
X164762426Y-94650225D01*
X164781157Y-94519950D01*
X164762426Y-94389675D01*
X164707752Y-94269954D01*
X164707748Y-94269948D01*
X164621562Y-94170486D01*
X164621560Y-94170484D01*
X164510845Y-94099332D01*
X164510836Y-94099328D01*
X164384559Y-94062250D01*
X164384557Y-94062250D01*
X164252943Y-94062250D01*
X164252941Y-94062250D01*
X164126663Y-94099328D01*
X164126654Y-94099332D01*
X164015939Y-94170484D01*
X164015937Y-94170486D01*
X163929751Y-94269948D01*
X163929747Y-94269954D01*
X163875074Y-94389673D01*
X163875073Y-94389676D01*
X163856343Y-94519950D01*
X163875073Y-94650223D01*
X163875074Y-94650226D01*
X163929747Y-94769945D01*
X163929751Y-94769951D01*
X163998721Y-94849545D01*
X164015938Y-94869414D01*
X164015944Y-94869418D01*
X164017279Y-94870575D01*
X164017737Y-94871490D01*
X164018865Y-94872792D01*
X164018532Y-94873079D01*
X164038691Y-94913351D01*
X164038850Y-94917810D01*
X164038850Y-95646090D01*
X164020544Y-95690284D01*
X164017279Y-95693325D01*
X164015940Y-95694484D01*
X164015938Y-95694486D01*
X164015936Y-95694488D01*
X164015934Y-95694490D01*
X163929751Y-95793948D01*
X163929747Y-95793954D01*
X163875074Y-95913673D01*
X163875073Y-95913676D01*
X163856343Y-96043950D01*
X114306250Y-96043950D01*
X114306250Y-91471950D01*
X153950343Y-91471950D01*
X153969073Y-91602223D01*
X153969074Y-91602226D01*
X154023747Y-91721945D01*
X154023751Y-91721951D01*
X154109937Y-91821413D01*
X154109939Y-91821415D01*
X154220654Y-91892567D01*
X154220659Y-91892570D01*
X154346940Y-91929649D01*
X154346942Y-91929650D01*
X154346943Y-91929650D01*
X154478558Y-91929650D01*
X154478558Y-91929649D01*
X154604841Y-91892570D01*
X154715562Y-91821414D01*
X154801752Y-91721946D01*
X154856426Y-91602225D01*
X154875157Y-91471950D01*
X154856426Y-91341675D01*
X154801752Y-91221954D01*
X154801748Y-91221948D01*
X154715565Y-91122490D01*
X154715562Y-91122486D01*
X154715555Y-91122481D01*
X154714221Y-91121325D01*
X154713762Y-91120409D01*
X154712635Y-91119108D01*
X154712967Y-91118820D01*
X154692809Y-91078549D01*
X154692650Y-91074090D01*
X154692650Y-86279775D01*
X154710956Y-86235581D01*
X155146757Y-85799780D01*
X155587174Y-85359362D01*
X155595990Y-85353022D01*
X155595727Y-85352674D01*
X155600346Y-85349185D01*
X155600349Y-85349184D01*
X155606934Y-85341961D01*
X155607200Y-85341668D01*
X155630770Y-85315812D01*
X155631727Y-85314809D01*
X155645008Y-85301530D01*
X155647457Y-85297953D01*
X155650146Y-85294558D01*
X155670848Y-85271851D01*
X155675399Y-85260100D01*
X155682114Y-85247361D01*
X155689236Y-85236966D01*
X155696269Y-85207056D01*
X155697547Y-85202927D01*
X155708650Y-85174272D01*
X155708650Y-85161672D01*
X155710310Y-85147362D01*
X155713194Y-85135101D01*
X155708950Y-85104674D01*
X155708650Y-85100351D01*
X155708650Y-83995810D01*
X155726956Y-83951616D01*
X155730221Y-83948575D01*
X155731551Y-83947420D01*
X155731562Y-83947414D01*
X155817752Y-83847946D01*
X155872426Y-83728225D01*
X155891157Y-83597950D01*
X155872426Y-83467675D01*
X155817752Y-83347954D01*
X155817748Y-83347948D01*
X155731562Y-83248486D01*
X155731560Y-83248484D01*
X155620845Y-83177332D01*
X155620836Y-83177328D01*
X155494559Y-83140250D01*
X155494557Y-83140250D01*
X155362943Y-83140250D01*
X155362941Y-83140250D01*
X155236663Y-83177328D01*
X155236654Y-83177332D01*
X155125939Y-83248484D01*
X155125937Y-83248486D01*
X155039751Y-83347948D01*
X155039747Y-83347954D01*
X154985074Y-83467673D01*
X154985073Y-83467676D01*
X154966343Y-83597950D01*
X154985073Y-83728223D01*
X154985074Y-83728226D01*
X155039747Y-83847945D01*
X155039751Y-83847951D01*
X155108721Y-83927545D01*
X155125938Y-83947414D01*
X155125944Y-83947418D01*
X155127279Y-83948575D01*
X155127737Y-83949490D01*
X155128865Y-83950792D01*
X155128532Y-83951079D01*
X155148691Y-83991351D01*
X155148850Y-83995810D01*
X155148850Y-84980123D01*
X155130544Y-85024317D01*
X154254324Y-85900536D01*
X154245512Y-85906879D01*
X154245773Y-85907225D01*
X154241150Y-85910716D01*
X154210748Y-85944065D01*
X154209753Y-85945108D01*
X154196492Y-85958369D01*
X154196487Y-85958375D01*
X154194038Y-85961950D01*
X154191351Y-85965341D01*
X154170653Y-85988046D01*
X154170652Y-85988049D01*
X154166101Y-85999796D01*
X154159387Y-86012535D01*
X154152264Y-86022934D01*
X154152263Y-86022935D01*
X154145230Y-86052839D01*
X154143948Y-86056978D01*
X154132850Y-86085627D01*
X154132850Y-86098227D01*
X154131190Y-86112536D01*
X154128306Y-86124798D01*
X154132550Y-86155225D01*
X154132850Y-86159548D01*
X154132850Y-91074090D01*
X154114544Y-91118284D01*
X154111279Y-91121325D01*
X154109940Y-91122484D01*
X154109938Y-91122486D01*
X154109936Y-91122488D01*
X154109934Y-91122490D01*
X154023751Y-91221948D01*
X154023747Y-91221954D01*
X153969074Y-91341673D01*
X153969073Y-91341676D01*
X153950343Y-91471950D01*
X114306250Y-91471950D01*
X114306250Y-87915950D01*
X127280343Y-87915950D01*
X127299073Y-88046223D01*
X127299074Y-88046226D01*
X127353747Y-88165945D01*
X127353751Y-88165951D01*
X127439937Y-88265413D01*
X127439939Y-88265415D01*
X127494105Y-88300225D01*
X127550659Y-88336570D01*
X127676940Y-88373649D01*
X127676942Y-88373650D01*
X127676943Y-88373650D01*
X127778723Y-88373650D01*
X127822917Y-88391956D01*
X128013337Y-88582376D01*
X128019683Y-88591193D01*
X128020030Y-88590932D01*
X128023517Y-88595551D01*
X128037321Y-88608134D01*
X128056886Y-88625970D01*
X128057887Y-88626926D01*
X128071169Y-88640208D01*
X128074753Y-88642663D01*
X128078141Y-88645347D01*
X128100849Y-88666048D01*
X128112599Y-88670599D01*
X128125340Y-88677316D01*
X128135734Y-88684436D01*
X128160030Y-88690150D01*
X128165634Y-88691468D01*
X128169774Y-88692750D01*
X128178288Y-88696048D01*
X128198428Y-88703850D01*
X128211032Y-88703850D01*
X128225339Y-88705509D01*
X128237599Y-88708393D01*
X128259810Y-88705294D01*
X128268019Y-88704150D01*
X128272342Y-88703850D01*
X132258896Y-88703850D01*
X132269617Y-88705598D01*
X132269678Y-88705168D01*
X132275408Y-88705967D01*
X132275410Y-88705968D01*
X132275411Y-88705967D01*
X132275412Y-88705968D01*
X132280961Y-88705711D01*
X132320520Y-88703882D01*
X132321936Y-88703850D01*
X132340679Y-88703850D01*
X132340685Y-88703850D01*
X132344960Y-88703050D01*
X132349239Y-88702554D01*
X132379943Y-88701135D01*
X132391466Y-88696046D01*
X132405222Y-88691785D01*
X132417613Y-88689470D01*
X132443747Y-88673287D01*
X132447558Y-88671278D01*
X132475672Y-88658866D01*
X132484585Y-88649951D01*
X132495867Y-88641015D01*
X132506583Y-88634381D01*
X132525100Y-88609858D01*
X132527934Y-88606602D01*
X132666384Y-88468154D01*
X132710577Y-88449850D01*
X132767468Y-88449850D01*
X132811662Y-88468156D01*
X132829968Y-88512350D01*
X132811662Y-88556544D01*
X132801258Y-88564928D01*
X132773939Y-88582484D01*
X132773937Y-88582486D01*
X132687751Y-88681948D01*
X132687747Y-88681954D01*
X132633074Y-88801673D01*
X132633073Y-88801676D01*
X132614343Y-88931950D01*
X132633073Y-89062223D01*
X132633074Y-89062226D01*
X132672148Y-89147787D01*
X132673855Y-89195592D01*
X132641259Y-89230602D01*
X132615296Y-89236250D01*
X132502941Y-89236250D01*
X132376663Y-89273328D01*
X132376654Y-89273332D01*
X132265939Y-89344484D01*
X132265937Y-89344486D01*
X132179751Y-89443948D01*
X132179747Y-89443954D01*
X132125074Y-89563673D01*
X132125073Y-89563676D01*
X132106343Y-89693950D01*
X132125073Y-89824223D01*
X132125074Y-89824226D01*
X132179747Y-89943945D01*
X132179751Y-89943951D01*
X132265937Y-90043413D01*
X132265939Y-90043415D01*
X132376654Y-90114567D01*
X132376659Y-90114570D01*
X132502940Y-90151649D01*
X132502942Y-90151650D01*
X132502943Y-90151650D01*
X132634558Y-90151650D01*
X132634558Y-90151649D01*
X132760841Y-90114570D01*
X132871562Y-90043414D01*
X132897595Y-90013370D01*
X132913149Y-89995421D01*
X132955925Y-89974009D01*
X132960383Y-89973850D01*
X136576896Y-89973850D01*
X136587617Y-89975598D01*
X136587678Y-89975168D01*
X136593408Y-89975967D01*
X136593410Y-89975968D01*
X136593411Y-89975967D01*
X136593412Y-89975968D01*
X136598961Y-89975711D01*
X136638520Y-89973882D01*
X136639936Y-89973850D01*
X136658679Y-89973850D01*
X136658685Y-89973850D01*
X136662960Y-89973050D01*
X136667239Y-89972554D01*
X136697943Y-89971135D01*
X136709466Y-89966046D01*
X136723222Y-89961785D01*
X136735613Y-89959470D01*
X136761747Y-89943287D01*
X136765558Y-89941278D01*
X136793672Y-89928866D01*
X136802585Y-89919951D01*
X136813867Y-89911015D01*
X136824583Y-89904381D01*
X136843101Y-89879857D01*
X136845935Y-89876601D01*
X138330581Y-88391956D01*
X138374776Y-88373650D01*
X138476558Y-88373650D01*
X138476558Y-88373649D01*
X138602841Y-88336570D01*
X138713562Y-88265414D01*
X138796282Y-88169951D01*
X138799748Y-88165951D01*
X138799749Y-88165949D01*
X138799752Y-88165946D01*
X138854426Y-88046225D01*
X138873157Y-87915950D01*
X138854426Y-87785675D01*
X138799752Y-87665954D01*
X138799748Y-87665948D01*
X138713562Y-87566486D01*
X138713560Y-87566484D01*
X138602845Y-87495332D01*
X138602836Y-87495328D01*
X138476559Y-87458250D01*
X138476557Y-87458250D01*
X138344943Y-87458250D01*
X138344941Y-87458250D01*
X138218663Y-87495328D01*
X138218654Y-87495332D01*
X138107939Y-87566484D01*
X138107937Y-87566486D01*
X138021751Y-87665948D01*
X138021747Y-87665954D01*
X137967074Y-87785673D01*
X137967073Y-87785676D01*
X137948343Y-87915951D01*
X137952258Y-87943185D01*
X137940427Y-87989534D01*
X137934588Y-87996272D01*
X137527344Y-88403517D01*
X137483150Y-88421823D01*
X137438956Y-88403517D01*
X137420650Y-88359323D01*
X137420650Y-88178154D01*
X137438956Y-88133960D01*
X137465541Y-88118186D01*
X137586841Y-88082570D01*
X137697562Y-88011414D01*
X137773915Y-87923299D01*
X137783748Y-87911951D01*
X137783749Y-87911949D01*
X137783752Y-87911946D01*
X137838426Y-87792225D01*
X137857157Y-87661950D01*
X137838426Y-87531675D01*
X137783752Y-87411954D01*
X137783748Y-87411948D01*
X137697562Y-87312486D01*
X137697560Y-87312484D01*
X137586845Y-87241332D01*
X137586836Y-87241328D01*
X137460559Y-87204250D01*
X137460557Y-87204250D01*
X137328943Y-87204250D01*
X137328941Y-87204250D01*
X137202663Y-87241328D01*
X137202654Y-87241332D01*
X137091939Y-87312484D01*
X137091937Y-87312486D01*
X137005751Y-87411948D01*
X137005747Y-87411954D01*
X136951074Y-87531673D01*
X136951073Y-87531676D01*
X136932343Y-87661951D01*
X136936357Y-87689873D01*
X136926051Y-87734093D01*
X136922040Y-87739947D01*
X136919352Y-87743340D01*
X136898653Y-87766046D01*
X136898652Y-87766049D01*
X136894101Y-87777796D01*
X136887387Y-87790535D01*
X136880264Y-87800934D01*
X136880263Y-87800935D01*
X136873230Y-87830839D01*
X136871948Y-87834978D01*
X136860850Y-87863627D01*
X136859786Y-87869320D01*
X136857123Y-87868822D01*
X136842544Y-87904019D01*
X136798350Y-87922325D01*
X136754156Y-87904019D01*
X136751116Y-87900754D01*
X136681562Y-87820486D01*
X136681560Y-87820484D01*
X136570845Y-87749332D01*
X136570836Y-87749328D01*
X136444559Y-87712250D01*
X136444557Y-87712250D01*
X136312943Y-87712250D01*
X136312941Y-87712250D01*
X136186663Y-87749328D01*
X136186654Y-87749332D01*
X136075939Y-87820484D01*
X136075937Y-87820486D01*
X135989751Y-87919948D01*
X135989747Y-87919954D01*
X135935074Y-88039673D01*
X135935073Y-88039676D01*
X135916343Y-88169951D01*
X135920258Y-88197185D01*
X135908427Y-88243534D01*
X135902588Y-88250272D01*
X135773117Y-88379744D01*
X135728924Y-88398050D01*
X134234576Y-88398050D01*
X134190382Y-88379744D01*
X133822164Y-88011526D01*
X133815823Y-88002712D01*
X133815476Y-88002975D01*
X133811984Y-87998351D01*
X133778622Y-87967937D01*
X133777577Y-87966939D01*
X133764329Y-87953691D01*
X133760750Y-87951239D01*
X133757356Y-87948550D01*
X133742529Y-87935034D01*
X133734651Y-87927852D01*
X133734649Y-87927851D01*
X133734647Y-87927849D01*
X133722901Y-87923299D01*
X133710158Y-87916582D01*
X133699769Y-87909466D01*
X133699765Y-87909463D01*
X133669860Y-87902430D01*
X133665722Y-87901148D01*
X133637073Y-87890050D01*
X133637072Y-87890050D01*
X133624472Y-87890050D01*
X133610164Y-87888390D01*
X133597901Y-87885506D01*
X133597900Y-87885506D01*
X133567474Y-87889750D01*
X133563151Y-87890050D01*
X132624601Y-87890050D01*
X132604695Y-87886795D01*
X132604320Y-87886669D01*
X132568257Y-87855241D01*
X132564981Y-87807518D01*
X132590435Y-87774847D01*
X132617562Y-87757414D01*
X132700282Y-87661951D01*
X132703748Y-87657951D01*
X132703749Y-87657949D01*
X132703752Y-87657946D01*
X132758426Y-87538225D01*
X132777157Y-87407950D01*
X132758426Y-87277675D01*
X132703752Y-87157954D01*
X132703748Y-87157948D01*
X132617565Y-87058490D01*
X132617562Y-87058486D01*
X132617555Y-87058481D01*
X132616221Y-87057325D01*
X132615762Y-87056409D01*
X132614635Y-87055108D01*
X132614967Y-87054820D01*
X132594809Y-87014549D01*
X132594650Y-87010090D01*
X132594650Y-86756090D01*
X132594650Y-86281807D01*
X132612955Y-86237616D01*
X132616225Y-86234571D01*
X132617550Y-86233421D01*
X132617562Y-86233414D01*
X132703752Y-86133946D01*
X132758426Y-86014225D01*
X132777157Y-85883950D01*
X132758426Y-85753675D01*
X132703752Y-85633954D01*
X132703748Y-85633948D01*
X132617562Y-85534486D01*
X132617560Y-85534484D01*
X132506845Y-85463332D01*
X132506836Y-85463328D01*
X132380559Y-85426250D01*
X132380557Y-85426250D01*
X132248943Y-85426250D01*
X132248941Y-85426250D01*
X132122663Y-85463328D01*
X132122654Y-85463332D01*
X132011939Y-85534484D01*
X132011937Y-85534486D01*
X131925751Y-85633948D01*
X131925747Y-85633954D01*
X131871074Y-85753673D01*
X131871073Y-85753676D01*
X131852343Y-85883950D01*
X131871073Y-86014223D01*
X131871074Y-86014226D01*
X131925747Y-86133945D01*
X131925751Y-86133951D01*
X132011938Y-86233414D01*
X132013283Y-86234580D01*
X132013740Y-86235494D01*
X132014865Y-86236792D01*
X132014533Y-86237079D01*
X132034690Y-86277358D01*
X132034849Y-86281810D01*
X132034850Y-87010090D01*
X132016544Y-87054284D01*
X132013279Y-87057325D01*
X132011940Y-87058484D01*
X132011938Y-87058486D01*
X132011936Y-87058488D01*
X132011934Y-87058490D01*
X131925751Y-87157948D01*
X131925747Y-87157954D01*
X131871074Y-87277673D01*
X131871073Y-87277676D01*
X131852343Y-87407950D01*
X131871073Y-87538223D01*
X131871074Y-87538226D01*
X131925747Y-87657945D01*
X131925751Y-87657951D01*
X132011937Y-87757413D01*
X132011939Y-87757415D01*
X132079658Y-87800935D01*
X132122659Y-87828570D01*
X132242057Y-87863628D01*
X132248940Y-87865649D01*
X132248942Y-87865650D01*
X132322287Y-87865650D01*
X132366481Y-87883956D01*
X132384787Y-87928150D01*
X132372160Y-87965817D01*
X132370560Y-87967937D01*
X132358401Y-87984035D01*
X132355558Y-87987302D01*
X132217118Y-88125744D01*
X132172924Y-88144050D01*
X128392576Y-88144050D01*
X128348382Y-88125744D01*
X128218910Y-87996272D01*
X128200604Y-87952078D01*
X128201241Y-87943181D01*
X128205157Y-87915953D01*
X128205157Y-87915951D01*
X128203442Y-87904019D01*
X128186426Y-87785675D01*
X128131752Y-87665954D01*
X128131748Y-87665948D01*
X128045562Y-87566486D01*
X128045560Y-87566484D01*
X127934845Y-87495332D01*
X127934836Y-87495328D01*
X127808559Y-87458250D01*
X127808557Y-87458250D01*
X127676943Y-87458250D01*
X127676941Y-87458250D01*
X127550663Y-87495328D01*
X127550654Y-87495332D01*
X127439939Y-87566484D01*
X127439937Y-87566486D01*
X127353751Y-87665948D01*
X127353747Y-87665954D01*
X127299074Y-87785673D01*
X127299073Y-87785676D01*
X127280343Y-87915950D01*
X114306250Y-87915950D01*
X114306250Y-80871718D01*
X127666337Y-80871718D01*
X127695966Y-81140997D01*
X127695967Y-81141004D01*
X127764489Y-81403103D01*
X127870442Y-81652432D01*
X127973034Y-81820534D01*
X128011570Y-81883678D01*
X128184859Y-82091907D01*
X128184873Y-82091921D01*
X128386615Y-82272682D01*
X128386620Y-82272686D01*
X128386625Y-82272690D01*
X128505835Y-82351558D01*
X128612565Y-82422170D01*
X128744770Y-82484145D01*
X128857854Y-82537157D01*
X129117276Y-82615205D01*
X129385296Y-82654650D01*
X129385297Y-82654650D01*
X129588388Y-82654650D01*
X129790926Y-82639826D01*
X129790928Y-82639825D01*
X129790935Y-82639825D01*
X130055361Y-82580922D01*
X130308393Y-82484145D01*
X130544638Y-82351558D01*
X130759060Y-82185987D01*
X130947090Y-81990959D01*
X131104720Y-81770633D01*
X131228590Y-81529703D01*
X131272229Y-81401789D01*
X131316057Y-81273318D01*
X131316057Y-81273317D01*
X131316061Y-81273306D01*
X131365268Y-81006905D01*
X131372685Y-80803953D01*
X131941106Y-80803953D01*
X131960440Y-81012616D01*
X131960442Y-81012627D01*
X131996970Y-81141004D01*
X132017794Y-81214192D01*
X132111206Y-81401790D01*
X132237499Y-81569028D01*
X132392371Y-81710212D01*
X132392370Y-81710212D01*
X132508873Y-81782348D01*
X132570550Y-81820537D01*
X132765966Y-81896242D01*
X132971966Y-81934750D01*
X132971969Y-81934750D01*
X133181531Y-81934750D01*
X133181534Y-81934750D01*
X133387534Y-81896242D01*
X133582950Y-81820537D01*
X133761128Y-81710213D01*
X133916001Y-81569028D01*
X134042294Y-81401790D01*
X134135706Y-81214192D01*
X134193058Y-81012624D01*
X134206115Y-80871718D01*
X134212394Y-80803953D01*
X134481106Y-80803953D01*
X134500440Y-81012616D01*
X134500442Y-81012627D01*
X134536970Y-81141004D01*
X134557794Y-81214192D01*
X134651206Y-81401790D01*
X134777499Y-81569028D01*
X134932371Y-81710212D01*
X134932370Y-81710212D01*
X135048873Y-81782348D01*
X135110550Y-81820537D01*
X135305966Y-81896242D01*
X135511966Y-81934750D01*
X135511969Y-81934750D01*
X135721531Y-81934750D01*
X135721534Y-81934750D01*
X135927534Y-81896242D01*
X136122950Y-81820537D01*
X136301128Y-81710213D01*
X136456001Y-81569028D01*
X136582294Y-81401790D01*
X136675706Y-81214192D01*
X136733058Y-81012624D01*
X136746115Y-80871718D01*
X136752394Y-80803953D01*
X136752394Y-80803950D01*
X137173616Y-80803950D01*
X137192506Y-80995748D01*
X137217609Y-81078502D01*
X137236569Y-81141004D01*
X137248455Y-81180184D01*
X137339300Y-81350144D01*
X137339304Y-81350150D01*
X137461569Y-81499131D01*
X137610550Y-81621396D01*
X137610552Y-81621397D01*
X137610555Y-81621399D01*
X137780515Y-81712244D01*
X137780521Y-81712247D01*
X137964950Y-81768193D01*
X138018609Y-81773478D01*
X138156749Y-81787084D01*
X138156749Y-81787083D01*
X138156750Y-81787084D01*
X138348550Y-81768193D01*
X138532979Y-81712247D01*
X138702950Y-81621396D01*
X138851931Y-81499131D01*
X138974196Y-81350150D01*
X139065047Y-81180179D01*
X139120993Y-80995750D01*
X139139884Y-80803950D01*
X142253616Y-80803950D01*
X142272506Y-80995748D01*
X142297609Y-81078502D01*
X142316569Y-81141004D01*
X142328455Y-81180184D01*
X142419300Y-81350144D01*
X142419304Y-81350150D01*
X142541569Y-81499131D01*
X142690550Y-81621396D01*
X142690552Y-81621397D01*
X142690555Y-81621399D01*
X142860515Y-81712244D01*
X142860521Y-81712247D01*
X142912493Y-81728012D01*
X142949470Y-81758359D01*
X142956850Y-81787821D01*
X142956850Y-84724090D01*
X142938544Y-84768284D01*
X142935279Y-84771325D01*
X142933940Y-84772484D01*
X142933938Y-84772486D01*
X142933936Y-84772488D01*
X142933934Y-84772490D01*
X142847751Y-84871948D01*
X142847747Y-84871954D01*
X142793074Y-84991673D01*
X142793073Y-84991676D01*
X142774343Y-85121949D01*
X142793073Y-85252223D01*
X142793074Y-85252226D01*
X142847747Y-85371945D01*
X142847751Y-85371951D01*
X142933937Y-85471413D01*
X142933939Y-85471415D01*
X143000220Y-85514011D01*
X143044659Y-85542570D01*
X143158090Y-85575876D01*
X143170940Y-85579649D01*
X143170942Y-85579650D01*
X143170943Y-85579650D01*
X143302558Y-85579650D01*
X143302558Y-85579649D01*
X143428841Y-85542570D01*
X143539562Y-85471414D01*
X143625752Y-85371946D01*
X143680426Y-85252225D01*
X143699157Y-85121950D01*
X143680426Y-84991675D01*
X143625752Y-84871954D01*
X143625748Y-84871948D01*
X143539565Y-84772490D01*
X143539562Y-84772486D01*
X143539555Y-84772481D01*
X143538221Y-84771325D01*
X143537762Y-84770409D01*
X143536635Y-84769108D01*
X143536967Y-84768820D01*
X143516809Y-84728549D01*
X143516650Y-84724090D01*
X143516650Y-81787821D01*
X143534956Y-81743627D01*
X143561005Y-81728012D01*
X143612979Y-81712247D01*
X143782950Y-81621396D01*
X143931931Y-81499131D01*
X144054196Y-81350150D01*
X144145047Y-81180179D01*
X144200993Y-80995750D01*
X144219884Y-80803950D01*
X144793616Y-80803950D01*
X144812506Y-80995748D01*
X144837609Y-81078502D01*
X144856569Y-81141004D01*
X144868455Y-81180184D01*
X144959300Y-81350144D01*
X144959304Y-81350150D01*
X145081569Y-81499131D01*
X145230550Y-81621396D01*
X145230552Y-81621397D01*
X145230555Y-81621399D01*
X145400515Y-81712244D01*
X145400521Y-81712247D01*
X145452493Y-81728012D01*
X145489470Y-81758359D01*
X145496850Y-81787821D01*
X145496850Y-85308290D01*
X145478544Y-85352484D01*
X145475279Y-85355525D01*
X145473940Y-85356684D01*
X145473938Y-85356686D01*
X145473936Y-85356688D01*
X145473934Y-85356690D01*
X145387751Y-85456148D01*
X145387747Y-85456154D01*
X145333074Y-85575873D01*
X145333073Y-85575876D01*
X145314343Y-85706150D01*
X145333073Y-85836423D01*
X145333074Y-85836426D01*
X145387747Y-85956145D01*
X145387751Y-85956151D01*
X145473937Y-86055613D01*
X145473939Y-86055615D01*
X145581592Y-86124799D01*
X145584659Y-86126770D01*
X145681569Y-86155225D01*
X145710940Y-86163849D01*
X145710942Y-86163850D01*
X145710943Y-86163850D01*
X145842558Y-86163850D01*
X145842558Y-86163849D01*
X145968841Y-86126770D01*
X146079562Y-86055614D01*
X146145591Y-85979413D01*
X146165748Y-85956151D01*
X146165749Y-85956149D01*
X146165752Y-85956146D01*
X146220426Y-85836425D01*
X146239157Y-85706150D01*
X146220426Y-85575875D01*
X146165752Y-85456154D01*
X146165748Y-85456148D01*
X146092784Y-85371945D01*
X146079562Y-85356686D01*
X146079555Y-85356681D01*
X146078221Y-85355525D01*
X146077762Y-85354609D01*
X146076635Y-85353308D01*
X146076967Y-85353020D01*
X146056809Y-85312749D01*
X146056650Y-85308290D01*
X146056650Y-81787821D01*
X146074956Y-81743627D01*
X146101005Y-81728012D01*
X146152979Y-81712247D01*
X146322950Y-81621396D01*
X146471931Y-81499131D01*
X146594196Y-81350150D01*
X146685047Y-81180179D01*
X146740993Y-80995750D01*
X146759884Y-80803950D01*
X147333616Y-80803950D01*
X147352506Y-80995748D01*
X147377609Y-81078502D01*
X147396569Y-81141004D01*
X147408455Y-81180184D01*
X147499300Y-81350144D01*
X147499304Y-81350150D01*
X147621569Y-81499131D01*
X147770550Y-81621396D01*
X147770552Y-81621397D01*
X147770555Y-81621399D01*
X147940515Y-81712244D01*
X147940521Y-81712247D01*
X147992493Y-81728012D01*
X148029470Y-81758359D01*
X148036850Y-81787821D01*
X148036850Y-85232090D01*
X148018544Y-85276284D01*
X148015279Y-85279325D01*
X148013940Y-85280484D01*
X148013938Y-85280486D01*
X148013936Y-85280488D01*
X148013934Y-85280490D01*
X147927751Y-85379948D01*
X147927747Y-85379954D01*
X147873074Y-85499673D01*
X147873073Y-85499676D01*
X147854343Y-85629950D01*
X147873073Y-85760223D01*
X147873074Y-85760226D01*
X147927747Y-85879945D01*
X147927751Y-85879951D01*
X148013937Y-85979413D01*
X148013939Y-85979415D01*
X148081658Y-86022935D01*
X148124659Y-86050570D01*
X148244057Y-86085628D01*
X148250940Y-86087649D01*
X148250942Y-86087650D01*
X148250943Y-86087650D01*
X148382558Y-86087650D01*
X148382558Y-86087649D01*
X148508841Y-86050570D01*
X148619562Y-85979414D01*
X148687911Y-85900536D01*
X148705748Y-85879951D01*
X148705749Y-85879949D01*
X148705752Y-85879946D01*
X148760426Y-85760225D01*
X148779157Y-85629950D01*
X148760426Y-85499675D01*
X148705752Y-85379954D01*
X148705748Y-85379948D01*
X148643654Y-85308290D01*
X148619562Y-85280486D01*
X148619555Y-85280481D01*
X148618221Y-85279325D01*
X148617762Y-85278409D01*
X148616635Y-85277108D01*
X148616967Y-85276820D01*
X148596809Y-85236549D01*
X148596650Y-85232090D01*
X148596650Y-81787821D01*
X148614956Y-81743627D01*
X148641005Y-81728012D01*
X148692979Y-81712247D01*
X148862950Y-81621396D01*
X149011931Y-81499131D01*
X149134196Y-81350150D01*
X149225047Y-81180179D01*
X149280993Y-80995750D01*
X149299884Y-80803950D01*
X149873616Y-80803950D01*
X149892506Y-80995748D01*
X149917609Y-81078502D01*
X149936569Y-81141004D01*
X149948455Y-81180184D01*
X150039300Y-81350144D01*
X150039304Y-81350150D01*
X150161569Y-81499131D01*
X150310550Y-81621396D01*
X150310552Y-81621397D01*
X150310555Y-81621399D01*
X150480515Y-81712244D01*
X150480521Y-81712247D01*
X150532493Y-81728012D01*
X150569470Y-81758359D01*
X150576850Y-81787821D01*
X150576850Y-86756090D01*
X150558544Y-86800284D01*
X150555279Y-86803325D01*
X150553940Y-86804484D01*
X150553938Y-86804486D01*
X150553936Y-86804488D01*
X150553934Y-86804490D01*
X150467751Y-86903948D01*
X150467747Y-86903954D01*
X150413074Y-87023673D01*
X150413073Y-87023676D01*
X150394343Y-87153949D01*
X150413073Y-87284223D01*
X150413074Y-87284226D01*
X150467747Y-87403945D01*
X150467751Y-87403951D01*
X150553937Y-87503413D01*
X150553939Y-87503415D01*
X150652077Y-87566484D01*
X150664659Y-87574570D01*
X150790940Y-87611649D01*
X150790942Y-87611650D01*
X150790943Y-87611650D01*
X150922558Y-87611650D01*
X150922558Y-87611649D01*
X151048841Y-87574570D01*
X151159562Y-87503414D01*
X151238818Y-87411948D01*
X151245748Y-87403951D01*
X151245749Y-87403949D01*
X151245752Y-87403946D01*
X151300426Y-87284225D01*
X151319157Y-87153950D01*
X151300426Y-87023675D01*
X151245752Y-86903954D01*
X151245748Y-86903948D01*
X151159565Y-86804490D01*
X151159562Y-86804486D01*
X151159555Y-86804481D01*
X151158221Y-86803325D01*
X151157762Y-86802409D01*
X151156635Y-86801108D01*
X151156967Y-86800820D01*
X151136809Y-86760549D01*
X151136650Y-86756090D01*
X151136650Y-81787821D01*
X151154956Y-81743627D01*
X151181005Y-81728012D01*
X151232979Y-81712247D01*
X151402950Y-81621396D01*
X151551931Y-81499131D01*
X151674196Y-81350150D01*
X151765047Y-81180179D01*
X151820993Y-80995750D01*
X151839884Y-80803950D01*
X152413616Y-80803950D01*
X152432506Y-80995748D01*
X152457609Y-81078502D01*
X152476569Y-81141004D01*
X152488455Y-81180184D01*
X152579300Y-81350144D01*
X152579304Y-81350150D01*
X152701569Y-81499131D01*
X152850550Y-81621396D01*
X152850552Y-81621397D01*
X152850555Y-81621399D01*
X153020515Y-81712244D01*
X153020521Y-81712247D01*
X153072493Y-81728012D01*
X153109470Y-81758359D01*
X153116850Y-81787821D01*
X153116850Y-89042090D01*
X153098544Y-89086284D01*
X153095279Y-89089325D01*
X153093940Y-89090484D01*
X153093938Y-89090486D01*
X153093936Y-89090488D01*
X153093934Y-89090490D01*
X153007751Y-89189948D01*
X153007747Y-89189954D01*
X152953074Y-89309673D01*
X152953073Y-89309676D01*
X152934343Y-89439950D01*
X152953073Y-89570223D01*
X152953074Y-89570226D01*
X153007747Y-89689945D01*
X153007751Y-89689951D01*
X153093937Y-89789413D01*
X153093939Y-89789415D01*
X153204654Y-89860567D01*
X153204659Y-89860570D01*
X153264474Y-89878133D01*
X153330940Y-89897649D01*
X153330942Y-89897650D01*
X153330943Y-89897650D01*
X153462558Y-89897650D01*
X153462558Y-89897649D01*
X153588841Y-89860570D01*
X153699562Y-89789414D01*
X153761845Y-89717535D01*
X153785748Y-89689951D01*
X153785749Y-89689949D01*
X153785752Y-89689946D01*
X153840426Y-89570225D01*
X153859157Y-89439950D01*
X153840426Y-89309675D01*
X153785752Y-89189954D01*
X153785748Y-89189948D01*
X153699565Y-89090490D01*
X153699562Y-89090486D01*
X153699555Y-89090481D01*
X153698221Y-89089325D01*
X153697762Y-89088409D01*
X153696635Y-89087108D01*
X153696967Y-89086820D01*
X153676809Y-89046549D01*
X153676650Y-89042090D01*
X153676650Y-85432074D01*
X153694956Y-85387880D01*
X153739150Y-85369574D01*
X153783344Y-85387880D01*
X153786384Y-85391145D01*
X153855937Y-85471414D01*
X153855939Y-85471415D01*
X153922220Y-85514011D01*
X153966659Y-85542570D01*
X154080090Y-85575876D01*
X154092940Y-85579649D01*
X154092942Y-85579650D01*
X154092943Y-85579650D01*
X154224558Y-85579650D01*
X154224558Y-85579649D01*
X154350841Y-85542570D01*
X154461562Y-85471414D01*
X154547752Y-85371946D01*
X154602426Y-85252225D01*
X154621157Y-85121950D01*
X154602426Y-84991675D01*
X154547752Y-84871954D01*
X154547748Y-84871948D01*
X154461565Y-84772490D01*
X154461562Y-84772486D01*
X154461555Y-84772481D01*
X154460221Y-84771325D01*
X154459762Y-84770409D01*
X154458635Y-84769108D01*
X154458967Y-84768820D01*
X154438809Y-84728549D01*
X154438650Y-84724090D01*
X154438650Y-83995810D01*
X154456956Y-83951616D01*
X154460221Y-83948575D01*
X154461551Y-83947420D01*
X154461562Y-83947414D01*
X154547752Y-83847946D01*
X154602426Y-83728225D01*
X154621157Y-83597950D01*
X154602426Y-83467675D01*
X154547752Y-83347954D01*
X154547748Y-83347948D01*
X154461562Y-83248486D01*
X154461560Y-83248484D01*
X154350845Y-83177332D01*
X154350836Y-83177328D01*
X154224559Y-83140250D01*
X154224557Y-83140250D01*
X154092943Y-83140250D01*
X154092941Y-83140250D01*
X153966663Y-83177328D01*
X153966654Y-83177332D01*
X153855939Y-83248484D01*
X153855937Y-83248486D01*
X153786384Y-83328754D01*
X153743608Y-83350166D01*
X153698221Y-83335059D01*
X153676809Y-83292283D01*
X153676650Y-83287825D01*
X153676650Y-81787821D01*
X153694956Y-81743627D01*
X153721005Y-81728012D01*
X153772979Y-81712247D01*
X153899718Y-81644504D01*
X154958350Y-81644504D01*
X154958351Y-81644508D01*
X154967221Y-81689106D01*
X154967222Y-81689108D01*
X155001016Y-81739684D01*
X155051592Y-81773478D01*
X155096193Y-81782350D01*
X156777306Y-81782349D01*
X156821908Y-81773478D01*
X156872484Y-81739684D01*
X156906278Y-81689108D01*
X156915150Y-81644507D01*
X156915149Y-80803950D01*
X159017616Y-80803950D01*
X159036506Y-80995748D01*
X159061609Y-81078502D01*
X159080569Y-81141004D01*
X159092455Y-81180184D01*
X159183300Y-81350144D01*
X159183304Y-81350150D01*
X159305569Y-81499131D01*
X159454550Y-81621396D01*
X159454552Y-81621397D01*
X159454555Y-81621399D01*
X159624515Y-81712244D01*
X159624521Y-81712247D01*
X159676493Y-81728012D01*
X159713470Y-81758359D01*
X159720850Y-81787821D01*
X159720850Y-85574095D01*
X159719101Y-85584814D01*
X159719532Y-85584875D01*
X159718731Y-85590612D01*
X159720032Y-85618735D01*
X159720817Y-85635720D01*
X159720850Y-85637136D01*
X159720850Y-85655885D01*
X159721593Y-85659864D01*
X159721647Y-85660151D01*
X159722145Y-85664450D01*
X159723564Y-85695141D01*
X159728655Y-85706672D01*
X159732914Y-85720428D01*
X159735229Y-85732812D01*
X159751402Y-85758931D01*
X159753423Y-85762764D01*
X159765834Y-85790872D01*
X159774742Y-85799780D01*
X159783686Y-85811071D01*
X159790318Y-85821782D01*
X159814835Y-85840297D01*
X159818103Y-85843141D01*
X161556588Y-87581626D01*
X161574894Y-87625820D01*
X161574258Y-87634713D01*
X161570343Y-87661948D01*
X161589073Y-87792223D01*
X161589074Y-87792226D01*
X161643747Y-87911945D01*
X161643751Y-87911951D01*
X161729937Y-88011413D01*
X161729939Y-88011415D01*
X161840654Y-88082567D01*
X161840659Y-88082570D01*
X161961957Y-88118186D01*
X161966940Y-88119649D01*
X161966942Y-88119650D01*
X161966943Y-88119650D01*
X162098558Y-88119650D01*
X162098558Y-88119649D01*
X162224841Y-88082570D01*
X162335562Y-88011414D01*
X162411915Y-87923299D01*
X162421748Y-87911951D01*
X162421749Y-87911949D01*
X162421752Y-87911946D01*
X162476426Y-87792225D01*
X162495157Y-87661950D01*
X162476426Y-87531675D01*
X162421752Y-87411954D01*
X162421748Y-87411948D01*
X162335562Y-87312486D01*
X162335560Y-87312484D01*
X162224845Y-87241332D01*
X162224836Y-87241328D01*
X162098559Y-87204250D01*
X162098557Y-87204250D01*
X161996776Y-87204250D01*
X161952582Y-87185944D01*
X160298956Y-85532317D01*
X160280650Y-85488123D01*
X160280650Y-81787821D01*
X160298956Y-81743627D01*
X160325005Y-81728012D01*
X160376979Y-81712247D01*
X160546950Y-81621396D01*
X160695931Y-81499131D01*
X160818196Y-81350150D01*
X160909047Y-81180179D01*
X160964993Y-80995750D01*
X160983884Y-80803950D01*
X161557616Y-80803950D01*
X161576506Y-80995748D01*
X161601609Y-81078502D01*
X161620569Y-81141004D01*
X161632455Y-81180184D01*
X161723300Y-81350144D01*
X161723304Y-81350150D01*
X161845569Y-81499131D01*
X161994550Y-81621396D01*
X161994552Y-81621397D01*
X161994555Y-81621399D01*
X162164515Y-81712244D01*
X162164521Y-81712247D01*
X162348950Y-81768193D01*
X162402609Y-81773478D01*
X162540749Y-81787084D01*
X162540749Y-81787083D01*
X162540750Y-81787084D01*
X162732550Y-81768193D01*
X162916979Y-81712247D01*
X163086950Y-81621396D01*
X163235931Y-81499131D01*
X163358196Y-81350150D01*
X163449047Y-81180179D01*
X163504993Y-80995750D01*
X163523884Y-80803950D01*
X164097616Y-80803950D01*
X164116506Y-80995748D01*
X164141609Y-81078502D01*
X164160569Y-81141004D01*
X164172455Y-81180184D01*
X164263300Y-81350144D01*
X164263304Y-81350150D01*
X164385569Y-81499131D01*
X164534550Y-81621396D01*
X164534552Y-81621397D01*
X164534555Y-81621399D01*
X164704515Y-81712244D01*
X164704521Y-81712247D01*
X164888950Y-81768193D01*
X165080750Y-81787084D01*
X165272550Y-81768193D01*
X165456979Y-81712247D01*
X165626950Y-81621396D01*
X165775931Y-81499131D01*
X165898196Y-81350150D01*
X165989047Y-81180179D01*
X166044993Y-80995750D01*
X166063884Y-80803950D01*
X166637616Y-80803950D01*
X166656506Y-80995748D01*
X166681609Y-81078502D01*
X166700569Y-81141004D01*
X166712455Y-81180184D01*
X166803300Y-81350144D01*
X166803304Y-81350150D01*
X166925569Y-81499131D01*
X167074550Y-81621396D01*
X167074552Y-81621397D01*
X167074555Y-81621399D01*
X167244515Y-81712244D01*
X167244521Y-81712247D01*
X167428950Y-81768193D01*
X167482609Y-81773478D01*
X167620749Y-81787084D01*
X167620749Y-81787083D01*
X167620750Y-81787084D01*
X167812550Y-81768193D01*
X167996979Y-81712247D01*
X168166950Y-81621396D01*
X168315931Y-81499131D01*
X168438196Y-81350150D01*
X168529047Y-81180179D01*
X168584993Y-80995750D01*
X168603884Y-80803950D01*
X169177616Y-80803950D01*
X169196506Y-80995748D01*
X169221609Y-81078502D01*
X169240569Y-81141004D01*
X169252455Y-81180184D01*
X169343300Y-81350144D01*
X169343304Y-81350150D01*
X169465569Y-81499131D01*
X169614550Y-81621396D01*
X169614552Y-81621397D01*
X169614555Y-81621399D01*
X169784515Y-81712244D01*
X169784521Y-81712247D01*
X169968950Y-81768193D01*
X170160750Y-81787084D01*
X170352550Y-81768193D01*
X170536979Y-81712247D01*
X170706950Y-81621396D01*
X170855931Y-81499131D01*
X170978196Y-81350150D01*
X171069047Y-81180179D01*
X171124993Y-80995750D01*
X171143884Y-80803950D01*
X171717616Y-80803950D01*
X171736506Y-80995748D01*
X171761609Y-81078502D01*
X171780569Y-81141004D01*
X171792455Y-81180184D01*
X171883300Y-81350144D01*
X171883304Y-81350150D01*
X172005569Y-81499131D01*
X172154550Y-81621396D01*
X172154552Y-81621397D01*
X172154555Y-81621399D01*
X172324515Y-81712244D01*
X172324521Y-81712247D01*
X172508950Y-81768193D01*
X172562609Y-81773478D01*
X172700749Y-81787084D01*
X172700749Y-81787083D01*
X172700750Y-81787084D01*
X172892550Y-81768193D01*
X173076979Y-81712247D01*
X173246950Y-81621396D01*
X173395931Y-81499131D01*
X173518196Y-81350150D01*
X173609047Y-81180179D01*
X173664993Y-80995750D01*
X173683884Y-80803950D01*
X174257616Y-80803950D01*
X174276506Y-80995748D01*
X174301609Y-81078502D01*
X174320569Y-81141004D01*
X174332455Y-81180184D01*
X174423300Y-81350144D01*
X174423304Y-81350150D01*
X174545569Y-81499131D01*
X174694550Y-81621396D01*
X174694552Y-81621397D01*
X174694555Y-81621399D01*
X174864515Y-81712244D01*
X174864521Y-81712247D01*
X175048950Y-81768193D01*
X175240750Y-81787084D01*
X175432550Y-81768193D01*
X175616979Y-81712247D01*
X175743718Y-81644504D01*
X176802350Y-81644504D01*
X176802351Y-81644508D01*
X176811221Y-81689106D01*
X176811222Y-81689108D01*
X176845016Y-81739684D01*
X176895592Y-81773478D01*
X176940193Y-81782350D01*
X178621306Y-81782349D01*
X178665908Y-81773478D01*
X178716484Y-81739684D01*
X178750278Y-81689108D01*
X178759150Y-81644507D01*
X178759149Y-79963394D01*
X178750278Y-79918792D01*
X178716484Y-79868216D01*
X178673816Y-79839706D01*
X178665907Y-79834421D01*
X178630177Y-79827314D01*
X178621307Y-79825550D01*
X178621306Y-79825550D01*
X176940195Y-79825550D01*
X176940191Y-79825551D01*
X176895593Y-79834421D01*
X176895592Y-79834422D01*
X176845016Y-79868216D01*
X176811221Y-79918792D01*
X176802350Y-79963393D01*
X176802350Y-81644504D01*
X175743718Y-81644504D01*
X175786950Y-81621396D01*
X175935931Y-81499131D01*
X176058196Y-81350150D01*
X176149047Y-81180179D01*
X176204993Y-80995750D01*
X176223884Y-80803950D01*
X176223384Y-80798878D01*
X176204993Y-80612151D01*
X176204993Y-80612150D01*
X176149047Y-80427721D01*
X176058196Y-80257750D01*
X175935931Y-80108769D01*
X175786950Y-79986504D01*
X175786944Y-79986500D01*
X175616984Y-79895655D01*
X175616981Y-79895654D01*
X175616979Y-79895653D01*
X175515302Y-79864809D01*
X175432548Y-79839706D01*
X175240750Y-79820816D01*
X175048951Y-79839706D01*
X174902370Y-79884171D01*
X174864521Y-79895653D01*
X174864520Y-79895653D01*
X174864515Y-79895655D01*
X174694555Y-79986500D01*
X174694549Y-79986504D01*
X174545569Y-80108769D01*
X174423304Y-80257749D01*
X174423300Y-80257755D01*
X174332455Y-80427715D01*
X174276506Y-80612151D01*
X174257616Y-80803949D01*
X174257616Y-80803950D01*
X173683884Y-80803950D01*
X173683384Y-80798878D01*
X173664993Y-80612151D01*
X173664993Y-80612150D01*
X173609047Y-80427721D01*
X173518196Y-80257750D01*
X173395931Y-80108769D01*
X173246950Y-79986504D01*
X173246944Y-79986500D01*
X173076984Y-79895655D01*
X173076981Y-79895654D01*
X173076979Y-79895653D01*
X172975302Y-79864809D01*
X172892548Y-79839706D01*
X172700750Y-79820816D01*
X172508951Y-79839706D01*
X172362370Y-79884171D01*
X172324521Y-79895653D01*
X172324520Y-79895653D01*
X172324515Y-79895655D01*
X172154555Y-79986500D01*
X172154549Y-79986504D01*
X172005569Y-80108769D01*
X171883304Y-80257749D01*
X171883300Y-80257755D01*
X171792455Y-80427715D01*
X171736506Y-80612151D01*
X171717616Y-80803949D01*
X171717616Y-80803950D01*
X171143884Y-80803950D01*
X171143384Y-80798878D01*
X171124993Y-80612151D01*
X171124993Y-80612150D01*
X171069047Y-80427721D01*
X170978196Y-80257750D01*
X170855931Y-80108769D01*
X170706950Y-79986504D01*
X170706944Y-79986500D01*
X170536984Y-79895655D01*
X170536981Y-79895654D01*
X170536979Y-79895653D01*
X170435302Y-79864809D01*
X170352548Y-79839706D01*
X170160750Y-79820816D01*
X169968951Y-79839706D01*
X169822370Y-79884171D01*
X169784521Y-79895653D01*
X169784520Y-79895653D01*
X169784515Y-79895655D01*
X169614555Y-79986500D01*
X169614549Y-79986504D01*
X169465569Y-80108769D01*
X169343304Y-80257749D01*
X169343300Y-80257755D01*
X169252455Y-80427715D01*
X169196506Y-80612151D01*
X169177616Y-80803949D01*
X169177616Y-80803950D01*
X168603884Y-80803950D01*
X168603384Y-80798878D01*
X168584993Y-80612151D01*
X168584993Y-80612150D01*
X168529047Y-80427721D01*
X168438196Y-80257750D01*
X168315931Y-80108769D01*
X168166950Y-79986504D01*
X168166944Y-79986500D01*
X167996984Y-79895655D01*
X167996981Y-79895654D01*
X167996979Y-79895653D01*
X167895302Y-79864809D01*
X167812548Y-79839706D01*
X167620750Y-79820816D01*
X167428951Y-79839706D01*
X167282370Y-79884171D01*
X167244521Y-79895653D01*
X167244520Y-79895653D01*
X167244515Y-79895655D01*
X167074555Y-79986500D01*
X167074549Y-79986504D01*
X166925569Y-80108769D01*
X166803304Y-80257749D01*
X166803300Y-80257755D01*
X166712455Y-80427715D01*
X166656506Y-80612151D01*
X166637616Y-80803949D01*
X166637616Y-80803950D01*
X166063884Y-80803950D01*
X166063384Y-80798878D01*
X166044993Y-80612151D01*
X166044993Y-80612150D01*
X165989047Y-80427721D01*
X165898196Y-80257750D01*
X165775931Y-80108769D01*
X165626950Y-79986504D01*
X165626944Y-79986500D01*
X165456984Y-79895655D01*
X165456981Y-79895654D01*
X165456979Y-79895653D01*
X165355302Y-79864809D01*
X165272548Y-79839706D01*
X165080750Y-79820816D01*
X164888951Y-79839706D01*
X164742370Y-79884171D01*
X164704521Y-79895653D01*
X164704520Y-79895653D01*
X164704515Y-79895655D01*
X164534555Y-79986500D01*
X164534549Y-79986504D01*
X164385569Y-80108769D01*
X164263304Y-80257749D01*
X164263300Y-80257755D01*
X164172455Y-80427715D01*
X164116506Y-80612151D01*
X164097616Y-80803949D01*
X164097616Y-80803950D01*
X163523884Y-80803950D01*
X163523384Y-80798878D01*
X163504993Y-80612151D01*
X163504993Y-80612150D01*
X163449047Y-80427721D01*
X163358196Y-80257750D01*
X163235931Y-80108769D01*
X163086950Y-79986504D01*
X163086944Y-79986500D01*
X162916984Y-79895655D01*
X162916981Y-79895654D01*
X162916979Y-79895653D01*
X162815302Y-79864809D01*
X162732548Y-79839706D01*
X162540750Y-79820816D01*
X162348951Y-79839706D01*
X162202370Y-79884171D01*
X162164521Y-79895653D01*
X162164520Y-79895653D01*
X162164515Y-79895655D01*
X161994555Y-79986500D01*
X161994549Y-79986504D01*
X161845569Y-80108769D01*
X161723304Y-80257749D01*
X161723300Y-80257755D01*
X161632455Y-80427715D01*
X161576506Y-80612151D01*
X161557616Y-80803949D01*
X161557616Y-80803950D01*
X160983884Y-80803950D01*
X160983384Y-80798878D01*
X160964993Y-80612151D01*
X160964993Y-80612150D01*
X160909047Y-80427721D01*
X160818196Y-80257750D01*
X160695931Y-80108769D01*
X160546950Y-79986504D01*
X160546944Y-79986500D01*
X160376984Y-79895655D01*
X160376981Y-79895654D01*
X160376979Y-79895653D01*
X160275302Y-79864809D01*
X160192548Y-79839706D01*
X160000750Y-79820816D01*
X159808951Y-79839706D01*
X159662370Y-79884171D01*
X159624521Y-79895653D01*
X159624520Y-79895653D01*
X159624515Y-79895655D01*
X159454555Y-79986500D01*
X159454549Y-79986504D01*
X159305569Y-80108769D01*
X159183304Y-80257749D01*
X159183300Y-80257755D01*
X159092455Y-80427715D01*
X159036506Y-80612151D01*
X159017616Y-80803949D01*
X159017616Y-80803950D01*
X156915149Y-80803950D01*
X156915149Y-79963394D01*
X156906278Y-79918792D01*
X156872484Y-79868216D01*
X156829816Y-79839706D01*
X156821907Y-79834421D01*
X156786177Y-79827314D01*
X156777307Y-79825550D01*
X156777306Y-79825550D01*
X155096195Y-79825550D01*
X155096191Y-79825551D01*
X155051593Y-79834421D01*
X155051592Y-79834422D01*
X155001016Y-79868216D01*
X154967221Y-79918792D01*
X154958350Y-79963393D01*
X154958350Y-81644504D01*
X153899718Y-81644504D01*
X153942950Y-81621396D01*
X154091931Y-81499131D01*
X154214196Y-81350150D01*
X154305047Y-81180179D01*
X154360993Y-80995750D01*
X154379884Y-80803950D01*
X154379384Y-80798878D01*
X154360993Y-80612151D01*
X154360993Y-80612150D01*
X154305047Y-80427721D01*
X154214196Y-80257750D01*
X154091931Y-80108769D01*
X153942950Y-79986504D01*
X153942944Y-79986500D01*
X153772984Y-79895655D01*
X153772981Y-79895654D01*
X153772979Y-79895653D01*
X153671302Y-79864809D01*
X153588548Y-79839706D01*
X153396750Y-79820816D01*
X153204951Y-79839706D01*
X153058370Y-79884171D01*
X153020521Y-79895653D01*
X153020520Y-79895653D01*
X153020515Y-79895655D01*
X152850555Y-79986500D01*
X152850549Y-79986504D01*
X152701569Y-80108769D01*
X152579304Y-80257749D01*
X152579300Y-80257755D01*
X152488455Y-80427715D01*
X152432506Y-80612151D01*
X152413616Y-80803949D01*
X152413616Y-80803950D01*
X151839884Y-80803950D01*
X151839384Y-80798878D01*
X151820993Y-80612151D01*
X151820993Y-80612150D01*
X151765047Y-80427721D01*
X151674196Y-80257750D01*
X151551931Y-80108769D01*
X151402950Y-79986504D01*
X151402944Y-79986500D01*
X151232984Y-79895655D01*
X151232981Y-79895654D01*
X151232979Y-79895653D01*
X151131302Y-79864809D01*
X151048548Y-79839706D01*
X150856750Y-79820816D01*
X150664951Y-79839706D01*
X150518370Y-79884171D01*
X150480521Y-79895653D01*
X150480520Y-79895653D01*
X150480515Y-79895655D01*
X150310555Y-79986500D01*
X150310549Y-79986504D01*
X150161569Y-80108769D01*
X150039304Y-80257749D01*
X150039300Y-80257755D01*
X149948455Y-80427715D01*
X149892506Y-80612151D01*
X149873616Y-80803949D01*
X149873616Y-80803950D01*
X149299884Y-80803950D01*
X149299384Y-80798878D01*
X149280993Y-80612151D01*
X149280993Y-80612150D01*
X149225047Y-80427721D01*
X149134196Y-80257750D01*
X149011931Y-80108769D01*
X148862950Y-79986504D01*
X148862944Y-79986500D01*
X148692984Y-79895655D01*
X148692981Y-79895654D01*
X148692979Y-79895653D01*
X148591302Y-79864809D01*
X148508548Y-79839706D01*
X148316750Y-79820816D01*
X148124951Y-79839706D01*
X147978370Y-79884171D01*
X147940521Y-79895653D01*
X147940520Y-79895653D01*
X147940515Y-79895655D01*
X147770555Y-79986500D01*
X147770549Y-79986504D01*
X147621569Y-80108769D01*
X147499304Y-80257749D01*
X147499300Y-80257755D01*
X147408455Y-80427715D01*
X147352506Y-80612151D01*
X147333616Y-80803949D01*
X147333616Y-80803950D01*
X146759884Y-80803950D01*
X146759384Y-80798878D01*
X146740993Y-80612151D01*
X146740993Y-80612150D01*
X146685047Y-80427721D01*
X146594196Y-80257750D01*
X146471931Y-80108769D01*
X146322950Y-79986504D01*
X146322944Y-79986500D01*
X146152984Y-79895655D01*
X146152981Y-79895654D01*
X146152979Y-79895653D01*
X146051302Y-79864809D01*
X145968548Y-79839706D01*
X145776750Y-79820816D01*
X145584951Y-79839706D01*
X145438370Y-79884171D01*
X145400521Y-79895653D01*
X145400520Y-79895653D01*
X145400515Y-79895655D01*
X145230555Y-79986500D01*
X145230549Y-79986504D01*
X145081569Y-80108769D01*
X144959304Y-80257749D01*
X144959300Y-80257755D01*
X144868455Y-80427715D01*
X144812506Y-80612151D01*
X144793616Y-80803949D01*
X144793616Y-80803950D01*
X144219884Y-80803950D01*
X144219384Y-80798878D01*
X144200993Y-80612151D01*
X144200993Y-80612150D01*
X144145047Y-80427721D01*
X144054196Y-80257750D01*
X143931931Y-80108769D01*
X143782950Y-79986504D01*
X143782944Y-79986500D01*
X143612984Y-79895655D01*
X143612981Y-79895654D01*
X143612979Y-79895653D01*
X143511302Y-79864809D01*
X143428548Y-79839706D01*
X143236750Y-79820816D01*
X143044951Y-79839706D01*
X142898370Y-79884171D01*
X142860521Y-79895653D01*
X142860520Y-79895653D01*
X142860515Y-79895655D01*
X142690555Y-79986500D01*
X142690549Y-79986504D01*
X142541569Y-80108769D01*
X142419304Y-80257749D01*
X142419300Y-80257755D01*
X142328455Y-80427715D01*
X142272506Y-80612151D01*
X142253616Y-80803949D01*
X142253616Y-80803950D01*
X139139884Y-80803950D01*
X139139384Y-80798878D01*
X139120993Y-80612151D01*
X139120993Y-80612150D01*
X139065047Y-80427721D01*
X138974196Y-80257750D01*
X138851931Y-80108769D01*
X138702950Y-79986504D01*
X138702944Y-79986500D01*
X138532984Y-79895655D01*
X138532981Y-79895654D01*
X138532979Y-79895653D01*
X138431302Y-79864809D01*
X138348548Y-79839706D01*
X138156750Y-79820816D01*
X137964951Y-79839706D01*
X137818370Y-79884171D01*
X137780521Y-79895653D01*
X137780520Y-79895653D01*
X137780515Y-79895655D01*
X137610555Y-79986500D01*
X137610549Y-79986504D01*
X137461569Y-80108769D01*
X137339304Y-80257749D01*
X137339300Y-80257755D01*
X137248455Y-80427715D01*
X137192506Y-80612151D01*
X137173616Y-80803949D01*
X137173616Y-80803950D01*
X136752394Y-80803950D01*
X136752394Y-80803946D01*
X136733059Y-80595283D01*
X136733057Y-80595272D01*
X136723776Y-80562657D01*
X136675706Y-80393708D01*
X136582294Y-80206110D01*
X136456001Y-80038872D01*
X136301128Y-79897687D01*
X136301129Y-79897687D01*
X136122954Y-79787365D01*
X136122951Y-79787364D01*
X136122950Y-79787363D01*
X135927534Y-79711658D01*
X135927532Y-79711657D01*
X135927528Y-79711656D01*
X135721538Y-79673150D01*
X135721534Y-79673150D01*
X135511966Y-79673150D01*
X135511961Y-79673150D01*
X135305971Y-79711656D01*
X135110545Y-79787365D01*
X134932370Y-79897687D01*
X134777497Y-80038874D01*
X134777495Y-80038876D01*
X134651206Y-80206110D01*
X134557794Y-80393707D01*
X134500442Y-80595272D01*
X134500440Y-80595283D01*
X134481106Y-80803946D01*
X134481106Y-80803953D01*
X134212394Y-80803953D01*
X134212394Y-80803946D01*
X134193059Y-80595283D01*
X134193057Y-80595272D01*
X134183776Y-80562657D01*
X134135706Y-80393708D01*
X134042294Y-80206110D01*
X133916001Y-80038872D01*
X133761128Y-79897687D01*
X133761129Y-79897687D01*
X133582954Y-79787365D01*
X133582951Y-79787364D01*
X133582950Y-79787363D01*
X133387534Y-79711658D01*
X133387532Y-79711657D01*
X133387528Y-79711656D01*
X133181538Y-79673150D01*
X133181534Y-79673150D01*
X132971966Y-79673150D01*
X132971961Y-79673150D01*
X132765971Y-79711656D01*
X132570545Y-79787365D01*
X132392370Y-79897687D01*
X132237497Y-80038874D01*
X132237495Y-80038876D01*
X132111206Y-80206110D01*
X132017794Y-80393707D01*
X131960442Y-80595272D01*
X131960440Y-80595283D01*
X131941106Y-80803946D01*
X131941106Y-80803953D01*
X131372685Y-80803953D01*
X131375162Y-80736178D01*
X131345533Y-80466896D01*
X131277011Y-80204797D01*
X131171058Y-79955468D01*
X131029931Y-79724224D01*
X130987427Y-79673150D01*
X130856640Y-79515992D01*
X130856626Y-79515978D01*
X130654884Y-79335217D01*
X130654877Y-79335212D01*
X130654875Y-79335210D01*
X130535667Y-79256343D01*
X130428934Y-79185729D01*
X130183649Y-79070744D01*
X130183644Y-79070742D01*
X129924233Y-78992697D01*
X129924219Y-78992694D01*
X129656210Y-78953250D01*
X129656204Y-78953250D01*
X129453118Y-78953250D01*
X129453112Y-78953250D01*
X129250573Y-78968073D01*
X128986136Y-79026978D01*
X128733105Y-79123755D01*
X128496859Y-79256343D01*
X128282441Y-79421912D01*
X128282432Y-79421919D01*
X128094412Y-79616937D01*
X128094405Y-79616946D01*
X127936778Y-79837268D01*
X127812909Y-80078198D01*
X127812906Y-80078204D01*
X127725442Y-80334581D01*
X127725437Y-80334602D01*
X127676233Y-80600986D01*
X127676231Y-80601007D01*
X127666337Y-80871718D01*
X114306250Y-80871718D01*
X114306250Y-79535182D01*
X114306346Y-79532731D01*
X114309465Y-79493079D01*
X114321180Y-79344153D01*
X114322712Y-79334484D01*
X114366002Y-79154149D01*
X114369027Y-79144836D01*
X114439997Y-78973488D01*
X114444444Y-78964760D01*
X114541344Y-78806630D01*
X114547106Y-78798700D01*
X114667557Y-78657668D01*
X114674468Y-78650757D01*
X114815502Y-78530303D01*
X114823430Y-78524544D01*
X114981560Y-78427644D01*
X114990288Y-78423197D01*
X115161636Y-78352227D01*
X115170949Y-78349202D01*
X115351284Y-78305912D01*
X115360953Y-78304380D01*
X115509879Y-78292665D01*
X115549531Y-78289546D01*
X115551982Y-78289450D01*
X115559034Y-78289450D01*
X177772464Y-78289450D01*
X177779802Y-78289450D01*
X177781690Y-78289507D01*
G37*
%TD.AperFunction*%
%TD*%
M02*
