M48
; DRILL file {KiCad 7.0.7} date 2023 September 23, Saturday 12:42:03
; FORMAT={-:-/ absolute / inch / decimal}
; #@! TF.CreationDate,2023-09-23T12:42:03-04:00
; #@! TF.GenerationSoftware,Kicad,Pcbnew,7.0.7
; #@! TF.FileFunction,Plated,1,2,PTH
FMAT,2
INCH
; #@! TA.AperFunction,Plated,PTH,ViaDrill
T1C0.0120
; #@! TA.AperFunction,Plated,PTH,ViaDrill
T2C0.0150
; #@! TA.AperFunction,Plated,PTH,ViaDrill
T3C0.0236
; #@! TA.AperFunction,Plated,PTH,ComponentDrill
T4C0.0350
; #@! TA.AperFunction,Plated,PTH,ComponentDrill
T5C0.0360
; #@! TA.AperFunction,Plated,PTH,ComponentDrill
T6C0.0551
%
G90
G05
T1
X5.0092Y-3.7013
X5.0092Y-3.7313
X5.0292Y-3.4613
X5.0392Y-3.7013
X5.0392Y-3.7313
X5.1492Y-3.7613
X5.2092Y-3.3813
X5.2092Y-3.4413
X5.2192Y-3.5313
X5.2392Y-3.5013
X5.3592Y-3.3813
X5.3692Y-3.4713
X5.4092Y-3.4513
X5.4392Y-3.5713
X5.4492Y-3.4613
X5.6392Y-3.3513
X5.7392Y-3.3743
X5.8392Y-3.3713
X5.9192Y-4.3713
X5.9392Y-3.4313
X5.9992Y-4.8513
X6.0392Y-3.5213
X6.0592Y-3.9913
X6.0692Y-3.2913
X6.0692Y-3.3513
X6.0792Y-3.6013
X6.0892Y-4.0213
X6.1192Y-3.2913
X6.1592Y-3.8913
X6.1892Y-3.9213
X6.2692Y-3.8013
X6.2692Y-4.0113
X6.2692Y-4.1113
X6.2692Y-4.4013
X6.3092Y-4.0113
X6.3092Y-4.1113
X6.3092Y-4.7013
X6.3492Y-4.0113
X6.3492Y-4.1113
X6.3792Y-3.4513
X6.3892Y-4.0113
X6.3892Y-4.1113
X6.3892Y-4.4113
X6.4192Y-4.7713
X6.4292Y-4.0113
X6.4292Y-4.1113
X6.4292Y-4.4613
X6.4492Y-4.4113
X6.4692Y-3.7213
X6.4692Y-3.7813
X6.4692Y-4.0113
X6.4692Y-4.1113
X6.4692Y-4.5313
X6.5092Y-3.6913
X6.5092Y-3.7813
X6.5092Y-4.0113
X6.5092Y-4.1113
X6.5192Y-4.6413
X6.6292Y-3.3513
X7.0292Y-3.5713
T2
X4.7992Y-4.4063
X4.7992Y-4.8563
X5.2242Y-4.2413
X5.2242Y-4.4563
X5.2742Y-4.3563
X5.3242Y-4.2313
X5.3242Y-4.3063
X5.5192Y-4.7313
X5.6892Y-4.4763
X5.6992Y-4.8063
X5.8392Y-4.4763
T3
X5.5092Y-3.8863
X5.5092Y-3.9363
X5.5092Y-3.9863
X5.5092Y-4.0363
X5.5092Y-4.0863
X5.5092Y-4.1363
X5.5092Y-4.1863
X5.5092Y-4.2363
X5.9092Y-3.9113
X5.9092Y-3.9613
X5.9092Y-4.0113
X5.9092Y-4.0613
X5.9092Y-4.1113
X5.9092Y-4.1613
X5.9092Y-4.2113
X5.9092Y-4.2613
T4
X5.2392Y-3.1813
X5.3392Y-3.1813
X5.4392Y-3.1813
X5.5392Y-3.1813
X5.5992Y-5.0813
X5.6392Y-3.1813
X5.6992Y-5.0813
X5.7392Y-3.1813
X5.7992Y-5.0813
X5.8392Y-3.1813
X5.8992Y-5.0813
X5.9392Y-3.1813
X5.9992Y-5.0813
X6.0392Y-3.1813
X6.0992Y-5.0813
X6.1392Y-3.1813
X6.1992Y-5.0813
X6.2992Y-3.1813
X6.2992Y-5.0813
X6.3992Y-3.1813
X6.4992Y-3.1813
X6.5992Y-3.1813
X6.6992Y-3.1813
X6.7992Y-3.1813
X6.8992Y-3.1813
X6.9992Y-3.1813
X6.9992Y-3.9813
X6.9992Y-4.0813
X6.9992Y-4.1813
X7.0992Y-3.9813
X7.0992Y-4.0813
X7.0992Y-4.1813
T5
X4.6242Y-4.3563
X4.7242Y-4.3563
X6.5992Y-4.6813
X6.5992Y-4.7813
T6
X4.6742Y-4.0063
X4.6742Y-4.1441
X4.6742Y-4.5813
X4.6742Y-4.7191
X7.0292Y-4.5835
X7.0292Y-4.7213
T0
M30
