%TF.GenerationSoftware,KiCad,Pcbnew,7.0.7*%
%TF.CreationDate,2023-09-23T12:37:50-04:00*%
%TF.ProjectId,gateway_r0,67617465-7761-4795-9f72-302e6b696361,rev?*%
%TF.SameCoordinates,Original*%
%TF.FileFunction,Paste,Top*%
%TF.FilePolarity,Positive*%
%FSLAX46Y46*%
G04 Gerber Fmt 4.6, Leading zero omitted, Abs format (unit mm)*
G04 Created by KiCad (PCBNEW 7.0.7) date 2023-09-23 12:37:50*
%MOMM*%
%LPD*%
G01*
G04 APERTURE LIST*
%ADD10R,0.600000X0.500000*%
%ADD11R,0.500000X0.600000*%
%ADD12R,0.800000X0.800000*%
%ADD13R,1.930400X5.334000*%
%ADD14R,1.200000X0.400000*%
%ADD15R,1.400000X0.600000*%
%ADD16R,1.778000X0.762000*%
%ADD17R,3.400000X1.500000*%
%ADD18R,3.500000X1.000000*%
%ADD19R,3.400000X1.000000*%
%ADD20R,8.600000X10.700000*%
%ADD21R,1.600000X0.900000*%
G04 APERTURE END LIST*
D10*
%TO.C,R9*%
X132060750Y-93715950D03*
X132060750Y-94815950D03*
%TD*%
D11*
%TO.C,R7*%
X117370750Y-129063950D03*
X116270750Y-129063950D03*
%TD*%
D10*
%TO.C,R1*%
X164318750Y-116913950D03*
X164318750Y-115813950D03*
%TD*%
%TO.C,R15*%
X167620750Y-115305950D03*
X167620750Y-116405950D03*
%TD*%
D12*
%TO.C,D2*%
X119245750Y-123348950D03*
X120745750Y-123348950D03*
%TD*%
D13*
%TO.C,X2*%
X174732750Y-86391950D03*
X174732750Y-96043950D03*
%TD*%
D14*
%TO.C,U6*%
X134960750Y-91856950D03*
X134960750Y-91206950D03*
X134960750Y-90556950D03*
X134960750Y-89906950D03*
X134960750Y-89256950D03*
X134960750Y-88606950D03*
X134960750Y-87956950D03*
X134960750Y-87306950D03*
X134960750Y-86656950D03*
X134960750Y-86006950D03*
X129160750Y-86006950D03*
X129160750Y-86656950D03*
X129160750Y-87306950D03*
X129160750Y-87956950D03*
X129160750Y-88606950D03*
X129160750Y-89256950D03*
X129160750Y-89906950D03*
X129160750Y-90556950D03*
X129160750Y-91206950D03*
X129160750Y-91856950D03*
%TD*%
D11*
%TO.C,R13*%
X124355750Y-110013950D03*
X123255750Y-110013950D03*
%TD*%
D12*
%TO.C,D8*%
X175990750Y-109759950D03*
X174490750Y-109759950D03*
%TD*%
D10*
%TO.C,C5*%
X178542750Y-91429950D03*
X178542750Y-92529950D03*
%TD*%
%TO.C,R19*%
X137140750Y-93715950D03*
X137140750Y-94815950D03*
%TD*%
%TO.C,C1*%
X131679750Y-104721950D03*
X131679750Y-103621950D03*
%TD*%
D15*
%TO.C,U3*%
X158824750Y-118268950D03*
X158824750Y-119538950D03*
X158824750Y-120808950D03*
X158824750Y-122078950D03*
X164224750Y-122078950D03*
X164224750Y-120808950D03*
X164224750Y-119538950D03*
X164224750Y-118268950D03*
%TD*%
D16*
%TO.C,U5*%
X169995650Y-95281950D03*
X169995650Y-94011950D03*
X169995650Y-92741950D03*
X169995650Y-91471950D03*
X169995650Y-90201950D03*
X169995650Y-88931950D03*
X169995650Y-87661950D03*
X169995650Y-86391950D03*
X169995650Y-85121950D03*
X160165850Y-85121950D03*
X160165850Y-86391950D03*
X160165850Y-87661950D03*
X160165850Y-88931950D03*
X160165850Y-90201950D03*
X160165850Y-91471950D03*
X160165850Y-92741950D03*
X160165850Y-94011950D03*
X160165850Y-95281950D03*
%TD*%
D10*
%TO.C,C9*%
X127742750Y-91937950D03*
X127742750Y-93037950D03*
%TD*%
%TO.C,R22*%
X133330750Y-93715950D03*
X133330750Y-94815950D03*
%TD*%
D11*
%TO.C,R4*%
X117370750Y-123348950D03*
X116270750Y-123348950D03*
%TD*%
D10*
%TO.C,R2*%
X157968750Y-111368950D03*
X157968750Y-112468950D03*
%TD*%
D12*
%TO.C,D3*%
X119245750Y-125253950D03*
X120745750Y-125253950D03*
%TD*%
D10*
%TO.C,R21*%
X137394750Y-89651950D03*
X137394750Y-90751950D03*
%TD*%
D11*
%TO.C,R10*%
X177484750Y-113315950D03*
X178584750Y-113315950D03*
%TD*%
D12*
%TO.C,D6*%
X175990750Y-113315950D03*
X174490750Y-113315950D03*
%TD*%
D10*
%TO.C,C8*%
X178542750Y-89989950D03*
X178542750Y-88889950D03*
%TD*%
%TO.C,R8*%
X131679750Y-105907950D03*
X131679750Y-107007950D03*
%TD*%
D11*
%TO.C,R14*%
X124355750Y-111918950D03*
X123255750Y-111918950D03*
%TD*%
D10*
%TO.C,C6*%
X133076750Y-109590950D03*
X133076750Y-110690950D03*
%TD*%
D12*
%TO.C,D4*%
X119245750Y-127158950D03*
X120745750Y-127158950D03*
%TD*%
D10*
%TO.C,R17*%
X135870750Y-93715950D03*
X135870750Y-94815950D03*
%TD*%
D11*
%TO.C,R6*%
X117370750Y-127158950D03*
X116270750Y-127158950D03*
%TD*%
D10*
%TO.C,C7*%
X139680750Y-119453950D03*
X139680750Y-118353950D03*
%TD*%
D11*
%TO.C,R11*%
X177484750Y-111537950D03*
X178584750Y-111537950D03*
%TD*%
D10*
%TO.C,R20*%
X129520750Y-94815950D03*
X129520750Y-93715950D03*
%TD*%
D12*
%TO.C,D7*%
X175990750Y-111537950D03*
X174490750Y-111537950D03*
%TD*%
D10*
%TO.C,R16*%
X130790750Y-93715950D03*
X130790750Y-94815950D03*
%TD*%
D17*
%TO.C,CON4*%
X119598750Y-98281950D03*
X119598750Y-79581950D03*
D18*
X124948750Y-95931950D03*
X124948750Y-93931950D03*
X124948750Y-91931950D03*
X124948750Y-89931950D03*
X124948750Y-87931950D03*
X124948750Y-85931950D03*
X124948750Y-83931950D03*
X124948750Y-81931950D03*
%TD*%
D10*
%TO.C,C4*%
X139680750Y-120893950D03*
X139680750Y-121993950D03*
%TD*%
D15*
%TO.C,U1*%
X131458750Y-112172950D03*
X131458750Y-110902950D03*
X131458750Y-109632950D03*
X131458750Y-108362950D03*
X126058750Y-108362950D03*
X126058750Y-109632950D03*
X126058750Y-110902950D03*
X126058750Y-112172950D03*
%TD*%
D10*
%TO.C,R18*%
X134600750Y-93715950D03*
X134600750Y-94815950D03*
%TD*%
D13*
%TO.C,X1*%
X136251750Y-127920950D03*
X136251750Y-118268950D03*
%TD*%
D12*
%TO.C,D5*%
X119245750Y-129063950D03*
X120745750Y-129063950D03*
%TD*%
D11*
%TO.C,R12*%
X177484750Y-109759950D03*
X178584750Y-109759950D03*
%TD*%
%TO.C,R5*%
X117370750Y-125253950D03*
X116270750Y-125253950D03*
%TD*%
D19*
%TO.C,U4*%
X134346750Y-100996950D03*
X134346750Y-103536950D03*
X134346750Y-106076950D03*
D20*
X144946750Y-103536950D03*
%TD*%
D10*
%TO.C,C2*%
X158476750Y-95493950D03*
X158476750Y-96593950D03*
%TD*%
D16*
%TO.C,U2*%
X146195850Y-111918950D03*
X146195850Y-113188950D03*
X146195850Y-114458950D03*
X146195850Y-115728950D03*
X146195850Y-116998950D03*
X146195850Y-118268950D03*
X146195850Y-119538950D03*
X146195850Y-120808950D03*
X146195850Y-122078950D03*
X156025650Y-122078950D03*
X156025650Y-120808950D03*
X156025650Y-119538950D03*
X156025650Y-118268950D03*
X156025650Y-116998950D03*
X156025650Y-115728950D03*
X156025650Y-114458950D03*
X156025650Y-113188950D03*
X156025650Y-111918950D03*
%TD*%
D11*
%TO.C,R3*%
X157418750Y-94011950D03*
X158518750Y-94011950D03*
%TD*%
D21*
%TO.C,C3*%
X129139750Y-106764950D03*
X129139750Y-103864950D03*
%TD*%
M02*
