%TF.GenerationSoftware,KiCad,Pcbnew,7.0.7*%
%TF.CreationDate,2023-09-23T12:37:51-04:00*%
%TF.ProjectId,gateway_r0,67617465-7761-4795-9f72-302e6b696361,rev?*%
%TF.SameCoordinates,Original*%
%TF.FileFunction,Soldermask,Top*%
%TF.FilePolarity,Negative*%
%FSLAX46Y46*%
G04 Gerber Fmt 4.6, Leading zero omitted, Abs format (unit mm)*
G04 Created by KiCad (PCBNEW 7.0.7) date 2023-09-23 12:37:51*
%MOMM*%
%LPD*%
G01*
G04 APERTURE LIST*
G04 Aperture macros list*
%AMRoundRect*
0 Rectangle with rounded corners*
0 $1 Rounding radius*
0 $2 $3 $4 $5 $6 $7 $8 $9 X,Y pos of 4 corners*
0 Add a 4 corners polygon primitive as box body*
4,1,4,$2,$3,$4,$5,$6,$7,$8,$9,$2,$3,0*
0 Add four circle primitives for the rounded corners*
1,1,$1+$1,$2,$3*
1,1,$1+$1,$4,$5*
1,1,$1+$1,$6,$7*
1,1,$1+$1,$8,$9*
0 Add four rect primitives between the rounded corners*
20,1,$1+$1,$2,$3,$4,$5,0*
20,1,$1+$1,$4,$5,$6,$7,0*
20,1,$1+$1,$6,$7,$8,$9,0*
20,1,$1+$1,$8,$9,$2,$3,0*%
G04 Aperture macros list end*
%ADD10C,0.254000*%
%ADD11RoundRect,0.622300X0.000000X0.000000X0.000000X0.000000X0.000000X0.000000X0.000000X0.000000X0*%
%ADD12RoundRect,0.050800X0.300000X-0.250000X0.300000X0.250000X-0.300000X0.250000X-0.300000X-0.250000X0*%
%ADD13RoundRect,0.050800X-0.250000X-0.300000X0.250000X-0.300000X0.250000X0.300000X-0.250000X0.300000X0*%
%ADD14RoundRect,0.050800X-0.300000X0.250000X-0.300000X-0.250000X0.300000X-0.250000X0.300000X0.250000X0*%
%ADD15RoundRect,0.050800X0.400000X0.400000X-0.400000X0.400000X-0.400000X-0.400000X0.400000X-0.400000X0*%
%ADD16RoundRect,0.050800X-0.965200X2.667000X-0.965200X-2.667000X0.965200X-2.667000X0.965200X2.667000X0*%
%ADD17RoundRect,0.050800X0.600000X-0.200000X0.600000X0.200000X-0.600000X0.200000X-0.600000X-0.200000X0*%
%ADD18RoundRect,0.050800X-0.600000X0.200000X-0.600000X-0.200000X0.600000X-0.200000X0.600000X0.200000X0*%
%ADD19RoundRect,0.050800X-0.400000X-0.400000X0.400000X-0.400000X0.400000X0.400000X-0.400000X0.400000X0*%
%ADD20O,2.844800X1.473200*%
%ADD21RoundRect,0.050800X-0.700000X-0.300000X0.700000X-0.300000X0.700000X0.300000X-0.700000X0.300000X0*%
%ADD22RoundRect,0.050800X0.889000X0.381000X-0.889000X0.381000X-0.889000X-0.381000X0.889000X-0.381000X0*%
%ADD23C,3.200400*%
%ADD24RoundRect,0.050800X-0.825500X-0.825500X0.825500X-0.825500X0.825500X0.825500X-0.825500X0.825500X0*%
%ADD25C,1.752600*%
%ADD26RoundRect,0.050800X0.250000X0.300000X-0.250000X0.300000X-0.250000X-0.300000X0.250000X-0.300000X0*%
%ADD27RoundRect,0.050800X-1.050000X1.050000X-1.050000X-1.050000X1.050000X-1.050000X1.050000X1.050000X0*%
%ADD28C,2.201600*%
%ADD29O,1.473200X2.844800*%
%ADD30RoundRect,0.050800X1.700000X-0.750000X1.700000X0.750000X-1.700000X0.750000X-1.700000X-0.750000X0*%
%ADD31RoundRect,0.050800X1.750000X-0.500000X1.750000X0.500000X-1.750000X0.500000X-1.750000X-0.500000X0*%
%ADD32RoundRect,0.050800X1.050000X-1.050000X1.050000X1.050000X-1.050000X1.050000X-1.050000X-1.050000X0*%
%ADD33RoundRect,0.050800X0.700000X0.300000X-0.700000X0.300000X-0.700000X-0.300000X0.700000X-0.300000X0*%
%ADD34RoundRect,0.050800X0.965200X-2.667000X0.965200X2.667000X-0.965200X2.667000X-0.965200X-2.667000X0*%
%ADD35RoundRect,0.050800X-1.700000X0.500000X-1.700000X-0.500000X1.700000X-0.500000X1.700000X0.500000X0*%
%ADD36RoundRect,0.050800X-4.300000X5.350000X-4.300000X-5.350000X4.300000X-5.350000X4.300000X5.350000X0*%
%ADD37RoundRect,0.050800X-0.889000X-0.381000X0.889000X-0.381000X0.889000X0.381000X-0.889000X0.381000X0*%
%ADD38RoundRect,0.050800X-0.800000X0.450000X-0.800000X-0.450000X0.800000X-0.450000X0.800000X0.450000X0*%
G04 APERTURE END LIST*
D10*
X134346750Y-131095950D02*
X133584750Y-130333950D01*
X144760750Y-122205950D02*
X143998750Y-121443950D01*
X179558750Y-93249950D02*
X178034750Y-94773950D01*
X138156750Y-115093950D02*
X141966750Y-118903950D01*
X173462750Y-99345950D02*
X171684750Y-97567950D01*
X178034750Y-94773950D02*
X178034750Y-97313950D01*
X176764750Y-83343950D02*
X179558750Y-86137950D01*
X133584750Y-130333950D02*
X133584750Y-116617950D01*
X141966750Y-121443950D02*
X140696750Y-122713950D01*
X139426750Y-123221950D02*
X139426750Y-130079950D01*
X135108750Y-115093950D02*
X138156750Y-115093950D01*
X179558750Y-86137950D02*
X179558750Y-93249950D01*
X172954750Y-83343950D02*
X176764750Y-83343950D01*
X139426750Y-130079950D02*
X138410750Y-131095950D01*
X140696750Y-122713950D02*
X139934750Y-122713950D01*
X133584750Y-116617950D02*
X135108750Y-115093950D01*
X171684750Y-97567950D02*
X171684750Y-89439950D01*
X171176750Y-85121950D02*
X172954750Y-83343950D01*
X176002750Y-99345950D02*
X173462750Y-99345950D01*
X170160750Y-85121950D02*
X171176750Y-85121950D01*
X138410750Y-131095950D02*
X134346750Y-131095950D01*
X178034750Y-97313950D02*
X176002750Y-99345950D01*
X143998750Y-121443950D02*
X141966750Y-121443950D01*
X139934750Y-122713950D02*
X139426750Y-123221950D01*
X141966750Y-118903950D02*
X144760750Y-118903950D01*
D11*
%TO.C,TP2*%
X181082750Y-110902950D03*
%TD*%
D12*
%TO.C,R9*%
X132060750Y-93715950D03*
X132060750Y-94815950D03*
%TD*%
D13*
%TO.C,R7*%
X117370750Y-129063950D03*
X116270750Y-129063950D03*
%TD*%
D14*
%TO.C,R1*%
X164318750Y-116913950D03*
X164318750Y-115813950D03*
%TD*%
D12*
%TO.C,R15*%
X167620750Y-115305950D03*
X167620750Y-116405950D03*
%TD*%
D15*
%TO.C,D2*%
X119245750Y-123348950D03*
X120745750Y-123348950D03*
%TD*%
D16*
%TO.C,X2*%
X174732750Y-86391950D03*
X174732750Y-96043950D03*
%TD*%
D17*
%TO.C,U6*%
X134960750Y-91856950D03*
X134960750Y-91206950D03*
X134960750Y-90556950D03*
X134960750Y-89906950D03*
X134960750Y-89256950D03*
X134960750Y-88606950D03*
X134960750Y-87956950D03*
X134960750Y-87306950D03*
X134960750Y-86656950D03*
X134960750Y-86006950D03*
D18*
X129160750Y-86006950D03*
X129160750Y-86656950D03*
X129160750Y-87306950D03*
X129160750Y-87956950D03*
X129160750Y-88606950D03*
X129160750Y-89256950D03*
X129160750Y-89906950D03*
X129160750Y-90556950D03*
X129160750Y-91206950D03*
X129160750Y-91856950D03*
%TD*%
D13*
%TO.C,R13*%
X124355750Y-110013950D03*
X123255750Y-110013950D03*
%TD*%
D19*
%TO.C,D8*%
X175990750Y-109759950D03*
X174490750Y-109759950D03*
%TD*%
D20*
%TO.C,JP7*%
X167620750Y-121443950D03*
X167620750Y-118903950D03*
%TD*%
D12*
%TO.C,C5*%
X178542750Y-91429950D03*
X178542750Y-92529950D03*
%TD*%
%TO.C,R19*%
X137140750Y-93715950D03*
X137140750Y-94815950D03*
%TD*%
D14*
%TO.C,C1*%
X131679750Y-104721950D03*
X131679750Y-103621950D03*
%TD*%
D21*
%TO.C,U3*%
X158824750Y-118268950D03*
X158824750Y-119538950D03*
X158824750Y-120808950D03*
X158824750Y-122078950D03*
X164224750Y-122078950D03*
X164224750Y-120808950D03*
X164224750Y-119538950D03*
X164224750Y-118268950D03*
%TD*%
D22*
%TO.C,U5*%
X169995650Y-95281950D03*
X169995650Y-94011950D03*
X169995650Y-92741950D03*
X169995650Y-91471950D03*
X169995650Y-90201950D03*
X169995650Y-88931950D03*
X169995650Y-87661950D03*
X169995650Y-86391950D03*
X169995650Y-85121950D03*
X160165850Y-85121950D03*
X160165850Y-86391950D03*
X160165850Y-87661950D03*
X160165850Y-88931950D03*
X160165850Y-90201950D03*
X160165850Y-91471950D03*
X160165850Y-92741950D03*
X160165850Y-94011950D03*
X160165850Y-95281950D03*
%TD*%
D12*
%TO.C,C9*%
X127742750Y-91937950D03*
X127742750Y-93037950D03*
%TD*%
%TO.C,R22*%
X133330750Y-93715950D03*
X133330750Y-94815950D03*
%TD*%
D13*
%TO.C,R4*%
X117370750Y-123348950D03*
X116270750Y-123348950D03*
%TD*%
D12*
%TO.C,R2*%
X157968750Y-111368950D03*
X157968750Y-112468950D03*
%TD*%
D15*
%TO.C,D3*%
X119245750Y-125253950D03*
X120745750Y-125253950D03*
%TD*%
D23*
%TO.C,JP3*%
X180320750Y-96043950D03*
X180320750Y-123983950D03*
D24*
X177780750Y-101123950D03*
D25*
X177780750Y-103663950D03*
X177780750Y-106203950D03*
X180320750Y-106203950D03*
X180320750Y-103663950D03*
X180320750Y-101123950D03*
%TD*%
D12*
%TO.C,R21*%
X137394750Y-89651950D03*
X137394750Y-90751950D03*
%TD*%
D26*
%TO.C,R10*%
X177484750Y-113315950D03*
X178584750Y-113315950D03*
%TD*%
D19*
%TO.C,D6*%
X175990750Y-113315950D03*
X174490750Y-113315950D03*
%TD*%
D14*
%TO.C,C8*%
X178542750Y-89989950D03*
X178542750Y-88889950D03*
%TD*%
D12*
%TO.C,R8*%
X131679750Y-105907950D03*
X131679750Y-107007950D03*
%TD*%
D13*
%TO.C,R14*%
X124355750Y-111918950D03*
X123255750Y-111918950D03*
%TD*%
D12*
%TO.C,C6*%
X133076750Y-109590950D03*
X133076750Y-110690950D03*
%TD*%
D15*
%TO.C,D4*%
X119245750Y-127158950D03*
X120745750Y-127158950D03*
%TD*%
D12*
%TO.C,R17*%
X135870750Y-93715950D03*
X135870750Y-94815950D03*
%TD*%
D24*
%TO.C,JP2*%
X177780750Y-80803950D03*
D25*
X175240750Y-80803950D03*
X172700750Y-80803950D03*
X170160750Y-80803950D03*
X167620750Y-80803950D03*
X165080750Y-80803950D03*
X162540750Y-80803950D03*
X160000750Y-80803950D03*
%TD*%
D13*
%TO.C,R6*%
X117370750Y-127158950D03*
X116270750Y-127158950D03*
%TD*%
D25*
%TO.C,JP5*%
X142220750Y-129063950D03*
X144760750Y-129063950D03*
X147300750Y-129063950D03*
X149840750Y-129063950D03*
X152380750Y-129063950D03*
X154920750Y-129063950D03*
X157460750Y-129063950D03*
D24*
X160000750Y-129063950D03*
%TD*%
D14*
%TO.C,C7*%
X139680750Y-119453950D03*
X139680750Y-118353950D03*
%TD*%
D27*
%TO.C,CON2*%
X118725750Y-116363950D03*
D28*
X118725750Y-119863950D03*
%TD*%
D26*
%TO.C,R11*%
X177484750Y-111537950D03*
X178584750Y-111537950D03*
%TD*%
D14*
%TO.C,R20*%
X129520750Y-94815950D03*
X129520750Y-93715950D03*
%TD*%
D11*
%TO.C,TP1*%
X130409750Y-123602950D03*
%TD*%
D19*
%TO.C,D7*%
X175990750Y-111537950D03*
X174490750Y-111537950D03*
%TD*%
D29*
%TO.C,JP6*%
X117455750Y-110648950D03*
X119995750Y-110648950D03*
%TD*%
D12*
%TO.C,R16*%
X130790750Y-93715950D03*
X130790750Y-94815950D03*
%TD*%
D30*
%TO.C,CON4*%
X119598750Y-98281950D03*
X119598750Y-79581950D03*
D31*
X124948750Y-95931950D03*
X124948750Y-93931950D03*
X124948750Y-91931950D03*
X124948750Y-89931950D03*
X124948750Y-87931950D03*
X124948750Y-85931950D03*
X124948750Y-83931950D03*
X124948750Y-81931950D03*
%TD*%
D12*
%TO.C,C4*%
X139680750Y-120893950D03*
X139680750Y-121993950D03*
%TD*%
D32*
%TO.C,CON3*%
X178542750Y-119919950D03*
D28*
X178542750Y-116419950D03*
%TD*%
D33*
%TO.C,U1*%
X131458750Y-112172950D03*
X131458750Y-110902950D03*
X131458750Y-109632950D03*
X131458750Y-108362950D03*
X126058750Y-108362950D03*
X126058750Y-109632950D03*
X126058750Y-110902950D03*
X126058750Y-112172950D03*
%TD*%
D11*
%TO.C,TP3*%
X116058750Y-79914950D03*
%TD*%
D12*
%TO.C,R18*%
X134600750Y-93715950D03*
X134600750Y-94815950D03*
%TD*%
D27*
%TO.C,CON1*%
X118725750Y-101758950D03*
D28*
X118725750Y-105258950D03*
%TD*%
D34*
%TO.C,X1*%
X136251750Y-127920950D03*
X136251750Y-118268950D03*
%TD*%
D23*
%TO.C,JP1*%
X129520750Y-80803950D03*
D24*
X155936750Y-80803950D03*
D25*
X153396750Y-80803950D03*
X150856750Y-80803950D03*
X148316750Y-80803950D03*
X145776750Y-80803950D03*
X143236750Y-80803950D03*
X140696750Y-80803950D03*
X138156750Y-80803950D03*
X135616750Y-80803950D03*
X133076750Y-80803950D03*
%TD*%
D15*
%TO.C,D5*%
X119245750Y-129063950D03*
X120745750Y-129063950D03*
%TD*%
D26*
%TO.C,R12*%
X177484750Y-109759950D03*
X178584750Y-109759950D03*
%TD*%
D13*
%TO.C,R5*%
X117370750Y-125253950D03*
X116270750Y-125253950D03*
%TD*%
D35*
%TO.C,U4*%
X134346750Y-100996950D03*
X134346750Y-103536950D03*
X134346750Y-106076950D03*
D36*
X144946750Y-103536950D03*
%TD*%
D12*
%TO.C,C2*%
X158476750Y-95493950D03*
X158476750Y-96593950D03*
%TD*%
D37*
%TO.C,U2*%
X146195850Y-111918950D03*
X146195850Y-113188950D03*
X146195850Y-114458950D03*
X146195850Y-115728950D03*
X146195850Y-116998950D03*
X146195850Y-118268950D03*
X146195850Y-119538950D03*
X146195850Y-120808950D03*
X146195850Y-122078950D03*
X156025650Y-122078950D03*
X156025650Y-120808950D03*
X156025650Y-119538950D03*
X156025650Y-118268950D03*
X156025650Y-116998950D03*
X156025650Y-115728950D03*
X156025650Y-114458950D03*
X156025650Y-113188950D03*
X156025650Y-111918950D03*
%TD*%
D26*
%TO.C,R3*%
X157418750Y-94011950D03*
X158518750Y-94011950D03*
%TD*%
D38*
%TO.C,C3*%
X129139750Y-106764950D03*
X129139750Y-103864950D03*
%TD*%
M02*
