%TF.GenerationSoftware,KiCad,Pcbnew,7.0.7*%
%TF.CreationDate,2023-10-02T21:51:04-04:00*%
%TF.ProjectId,sensor_interface_1.1.0,73656e73-6f72-45f6-996e-746572666163,rev?*%
%TF.SameCoordinates,Original*%
%TF.FileFunction,Paste,Top*%
%TF.FilePolarity,Positive*%
%FSLAX46Y46*%
G04 Gerber Fmt 4.6, Leading zero omitted, Abs format (unit mm)*
G04 Created by KiCad (PCBNEW 7.0.7) date 2023-10-02 21:51:04*
%MOMM*%
%LPD*%
G01*
G04 APERTURE LIST*
G04 Aperture macros list*
%AMRoundRect*
0 Rectangle with rounded corners*
0 $1 Rounding radius*
0 $2 $3 $4 $5 $6 $7 $8 $9 X,Y pos of 4 corners*
0 Add a 4 corners polygon primitive as box body*
4,1,4,$2,$3,$4,$5,$6,$7,$8,$9,$2,$3,0*
0 Add four circle primitives for the rounded corners*
1,1,$1+$1,$2,$3*
1,1,$1+$1,$4,$5*
1,1,$1+$1,$6,$7*
1,1,$1+$1,$8,$9*
0 Add four rect primitives between the rounded corners*
20,1,$1+$1,$2,$3,$4,$5,0*
20,1,$1+$1,$4,$5,$6,$7,0*
20,1,$1+$1,$6,$7,$8,$9,0*
20,1,$1+$1,$8,$9,$2,$3,0*%
G04 Aperture macros list end*
%ADD10R,1.930400X5.334000*%
%ADD11R,0.600000X0.500000*%
%ADD12R,1.600000X0.900000*%
%ADD13R,1.400000X0.600000*%
%ADD14R,0.800000X0.800000*%
%ADD15R,1.450000X0.450000*%
%ADD16R,1.100000X3.000000*%
%ADD17R,0.500000X0.600000*%
%ADD18R,1.778000X0.762000*%
%ADD19R,0.700000X1.300000*%
%ADD20RoundRect,0.057500X0.172500X0.267500X-0.172500X0.267500X-0.172500X-0.267500X0.172500X-0.267500X0*%
%ADD21R,3.400000X1.000000*%
%ADD22R,8.600000X10.700000*%
G04 APERTURE END LIST*
D10*
%TO.C,X1*%
X136251750Y-127920950D03*
X136251750Y-118268950D03*
%TD*%
D11*
%TO.C,R12*%
X148697750Y-106288950D03*
X148697750Y-107388950D03*
%TD*%
D12*
%TO.C,C3*%
X131425750Y-94318950D03*
X131425750Y-91418950D03*
%TD*%
D13*
%TO.C,U6*%
X159205750Y-113823950D03*
X159205750Y-115093950D03*
X159205750Y-116363950D03*
X159205750Y-117633950D03*
X164605750Y-117633950D03*
X164605750Y-116363950D03*
X164605750Y-115093950D03*
X164605750Y-113823950D03*
%TD*%
D14*
%TO.C,D5*%
X119245750Y-129063950D03*
X120745750Y-129063950D03*
%TD*%
D11*
%TO.C,R1*%
X170160750Y-105018950D03*
X170160750Y-106118950D03*
%TD*%
D15*
%TO.C,U5*%
X139778750Y-102221950D03*
X139778750Y-102871950D03*
X139778750Y-103521950D03*
X139778750Y-104171950D03*
X139778750Y-104821950D03*
X139778750Y-105471950D03*
X139778750Y-106121950D03*
X145678750Y-106121950D03*
X145678750Y-105471950D03*
X145678750Y-104821950D03*
X145678750Y-104171950D03*
X145678750Y-103521950D03*
X145678750Y-102871950D03*
X145678750Y-102221950D03*
%TD*%
D16*
%TO.C,RELAY1*%
X154312750Y-107054950D03*
X159392750Y-107054950D03*
X161932750Y-107054950D03*
X164472750Y-107054950D03*
X164472750Y-99764950D03*
X161932750Y-99764950D03*
X159392750Y-99764950D03*
X154312750Y-99764950D03*
%TD*%
D11*
%TO.C,R16*%
X161905750Y-119623950D03*
X161905750Y-120723950D03*
%TD*%
D17*
%TO.C,R3*%
X149755750Y-101504950D03*
X148655750Y-101504950D03*
%TD*%
D11*
%TO.C,R22*%
X164572750Y-122163950D03*
X164572750Y-123263950D03*
%TD*%
D17*
%TO.C,C8*%
X162074750Y-112426950D03*
X160974750Y-112426950D03*
%TD*%
D11*
%TO.C,C1*%
X133965750Y-92783950D03*
X133965750Y-91683950D03*
%TD*%
%TO.C,R11*%
X149967750Y-107388950D03*
X149967750Y-106288950D03*
%TD*%
D18*
%TO.C,U2*%
X146195850Y-111918950D03*
X146195850Y-113188950D03*
X146195850Y-114458950D03*
X146195850Y-115728950D03*
X146195850Y-116998950D03*
X146195850Y-118268950D03*
X146195850Y-119538950D03*
X146195850Y-120808950D03*
X146195850Y-122078950D03*
X156025650Y-122078950D03*
X156025650Y-120808950D03*
X156025650Y-119538950D03*
X156025650Y-118268950D03*
X156025650Y-116998950D03*
X156025650Y-115728950D03*
X156025650Y-114458950D03*
X156025650Y-113188950D03*
X156025650Y-111918950D03*
%TD*%
D17*
%TO.C,R14*%
X124355750Y-111918950D03*
X123255750Y-111918950D03*
%TD*%
D11*
%TO.C,R21*%
X163302750Y-122163950D03*
X163302750Y-123263950D03*
%TD*%
D17*
%TO.C,R7*%
X117370750Y-129063950D03*
X116270750Y-129063950D03*
%TD*%
%TO.C,R10*%
X149755750Y-102774950D03*
X148655750Y-102774950D03*
%TD*%
D14*
%TO.C,D1*%
X170160750Y-102508950D03*
X170160750Y-101008950D03*
%TD*%
%TO.C,D3*%
X119245750Y-125253950D03*
X120745750Y-125253950D03*
%TD*%
%TO.C,D2*%
X119245750Y-123348950D03*
X120745750Y-123348950D03*
%TD*%
D19*
%TO.C,C5*%
X140254750Y-98837950D03*
X142154750Y-98837950D03*
%TD*%
D11*
%TO.C,R8*%
X133965750Y-94223950D03*
X133965750Y-95323950D03*
%TD*%
%TO.C,C6*%
X133076750Y-109590950D03*
X133076750Y-110690950D03*
%TD*%
%TO.C,C7*%
X139680750Y-119453950D03*
X139680750Y-118353950D03*
%TD*%
%TO.C,R2*%
X157968750Y-111368950D03*
X157968750Y-112468950D03*
%TD*%
%TO.C,C4*%
X139680750Y-120893950D03*
X139680750Y-121993950D03*
%TD*%
D17*
%TO.C,R5*%
X117370750Y-125253950D03*
X116270750Y-125253950D03*
%TD*%
D11*
%TO.C,R23*%
X157841750Y-115178950D03*
X157841750Y-116278950D03*
%TD*%
D17*
%TO.C,R13*%
X124355750Y-110013950D03*
X123255750Y-110013950D03*
%TD*%
D11*
%TO.C,R9*%
X147427750Y-106288950D03*
X147427750Y-107388950D03*
%TD*%
%TO.C,R20*%
X164572750Y-119623950D03*
X164572750Y-120723950D03*
%TD*%
%TO.C,R18*%
X161905750Y-122163950D03*
X161905750Y-123263950D03*
%TD*%
D14*
%TO.C,D4*%
X119245750Y-127158950D03*
X120745750Y-127158950D03*
%TD*%
D20*
%TO.C,Q1*%
X156817750Y-95916950D03*
X155817750Y-95916950D03*
X156317750Y-96966950D03*
%TD*%
D17*
%TO.C,R6*%
X117370750Y-127158950D03*
X116270750Y-127158950D03*
%TD*%
D19*
%TO.C,C9*%
X163490750Y-94265950D03*
X161590750Y-94265950D03*
%TD*%
D11*
%TO.C,R19*%
X163302750Y-119623950D03*
X163302750Y-120723950D03*
%TD*%
%TO.C,R15*%
X160635750Y-119623950D03*
X160635750Y-120723950D03*
%TD*%
D21*
%TO.C,U4*%
X136632750Y-88804950D03*
X136632750Y-91344950D03*
X136632750Y-93884950D03*
D22*
X147232750Y-91344950D03*
%TD*%
D17*
%TO.C,R4*%
X117370750Y-123348950D03*
X116270750Y-123348950D03*
%TD*%
%TO.C,C2*%
X140019750Y-100615950D03*
X141119750Y-100615950D03*
%TD*%
D11*
%TO.C,R17*%
X160635750Y-122163950D03*
X160635750Y-123263950D03*
%TD*%
D19*
%TO.C,C10*%
X163490750Y-89693950D03*
X161590750Y-89693950D03*
%TD*%
D13*
%TO.C,U1*%
X131458750Y-112172950D03*
X131458750Y-110902950D03*
X131458750Y-109632950D03*
X131458750Y-108362950D03*
X126058750Y-108362950D03*
X126058750Y-109632950D03*
X126058750Y-110902950D03*
X126058750Y-112172950D03*
%TD*%
M02*
