%TF.GenerationSoftware,KiCad,Pcbnew,7.0.7*%
%TF.CreationDate,2023-10-02T21:51:04-04:00*%
%TF.ProjectId,sensor_interface_1.1.0,73656e73-6f72-45f6-996e-746572666163,rev?*%
%TF.SameCoordinates,Original*%
%TF.FileFunction,Copper,L1,Top*%
%TF.FilePolarity,Positive*%
%FSLAX46Y46*%
G04 Gerber Fmt 4.6, Leading zero omitted, Abs format (unit mm)*
G04 Created by KiCad (PCBNEW 7.0.7) date 2023-10-02 21:51:04*
%MOMM*%
%LPD*%
G01*
G04 APERTURE LIST*
G04 Aperture macros list*
%AMRoundRect*
0 Rectangle with rounded corners*
0 $1 Rounding radius*
0 $2 $3 $4 $5 $6 $7 $8 $9 X,Y pos of 4 corners*
0 Add a 4 corners polygon primitive as box body*
4,1,4,$2,$3,$4,$5,$6,$7,$8,$9,$2,$3,0*
0 Add four circle primitives for the rounded corners*
1,1,$1+$1,$2,$3*
1,1,$1+$1,$4,$5*
1,1,$1+$1,$6,$7*
1,1,$1+$1,$8,$9*
0 Add four rect primitives between the rounded corners*
20,1,$1+$1,$2,$3,$4,$5,0*
20,1,$1+$1,$4,$5,$6,$7,0*
20,1,$1+$1,$6,$7,$8,$9,0*
20,1,$1+$1,$8,$9,$2,$3,0*%
G04 Aperture macros list end*
%TA.AperFunction,ComponentPad*%
%ADD10R,1.651000X1.651000*%
%TD*%
%TA.AperFunction,ComponentPad*%
%ADD11C,1.651000*%
%TD*%
%TA.AperFunction,SMDPad,CuDef*%
%ADD12R,1.930400X5.334000*%
%TD*%
%TA.AperFunction,SMDPad,CuDef*%
%ADD13R,0.600000X0.500000*%
%TD*%
%TA.AperFunction,SMDPad,CuDef*%
%ADD14R,1.600000X0.900000*%
%TD*%
%TA.AperFunction,SMDPad,CuDef*%
%ADD15R,1.400000X0.600000*%
%TD*%
%TA.AperFunction,SMDPad,CuDef*%
%ADD16R,0.800000X0.800000*%
%TD*%
%TA.AperFunction,SMDPad,CuDef*%
%ADD17R,1.450000X0.450000*%
%TD*%
%TA.AperFunction,SMDPad,CuDef*%
%ADD18R,1.100000X3.000000*%
%TD*%
%TA.AperFunction,SMDPad,CuDef*%
%ADD19RoundRect,0.571500X0.000000X0.000000X0.000000X0.000000X0.000000X0.000000X0.000000X0.000000X0*%
%TD*%
%TA.AperFunction,SMDPad,CuDef*%
%ADD20R,0.500000X0.600000*%
%TD*%
%TA.AperFunction,SMDPad,CuDef*%
%ADD21R,1.778000X0.762000*%
%TD*%
%TA.AperFunction,ComponentPad*%
%ADD22R,2.100000X2.100000*%
%TD*%
%TA.AperFunction,ComponentPad*%
%ADD23C,2.100000*%
%TD*%
%TA.AperFunction,SMDPad,CuDef*%
%ADD24R,0.700000X1.300000*%
%TD*%
%TA.AperFunction,SMDPad,CuDef*%
%ADD25RoundRect,0.057500X0.172500X0.267500X-0.172500X0.267500X-0.172500X-0.267500X0.172500X-0.267500X0*%
%TD*%
%TA.AperFunction,SMDPad,CuDef*%
%ADD26R,3.400000X1.000000*%
%TD*%
%TA.AperFunction,SMDPad,CuDef*%
%ADD27R,8.600000X10.700000*%
%TD*%
%TA.AperFunction,ComponentPad*%
%ADD28O,1.371600X2.743200*%
%TD*%
%TA.AperFunction,ViaPad*%
%ADD29C,0.904800*%
%TD*%
%TA.AperFunction,ViaPad*%
%ADD30C,0.685800*%
%TD*%
%TA.AperFunction,Conductor*%
%ADD31C,0.254000*%
%TD*%
%TA.AperFunction,Conductor*%
%ADD32C,0.406400*%
%TD*%
%TA.AperFunction,Conductor*%
%ADD33C,1.016000*%
%TD*%
%TA.AperFunction,Conductor*%
%ADD34C,1.270000*%
%TD*%
%TA.AperFunction,Conductor*%
%ADD35C,0.609600*%
%TD*%
G04 APERTURE END LIST*
D10*
%TO.P,JP1,9*%
%TO.N,IO8*%
X155936750Y-80803950D03*
D11*
%TO.P,JP1,10*%
%TO.N,CS_A*%
X153396750Y-80803950D03*
%TO.P,JP1,11*%
%TO.N,CS_B*%
X150856750Y-80803950D03*
%TO.P,JP1,12*%
%TO.N,MOSI_B*%
X148316750Y-80803950D03*
%TO.P,JP1,13*%
%TO.N,MISO_B*%
X145776750Y-80803950D03*
%TO.P,JP1,14*%
%TO.N,SCK_B*%
X143236750Y-80803950D03*
%TO.P,JP1,15*%
%TO.N,GND*%
X140696750Y-80803950D03*
%TO.P,JP1,16*%
%TO.N,REF*%
X138156750Y-80803950D03*
%TO.P,JP1,17*%
%TO.N,N/C*%
X135616750Y-80803950D03*
%TO.P,JP1,18*%
X133076750Y-80803950D03*
%TD*%
D12*
%TO.P,X1,1*%
%TO.N,N$17*%
X136251750Y-127920950D03*
%TO.P,X1,2*%
%TO.N,N$16*%
X136251750Y-118268950D03*
%TD*%
D13*
%TO.P,R12,P$1*%
%TO.N,SHDN*%
X148697750Y-106288950D03*
%TO.P,R12,P$2*%
%TO.N,GND*%
X148697750Y-107388950D03*
%TD*%
D14*
%TO.P,C3,P$1*%
%TO.N,N$4*%
X131425750Y-94318950D03*
%TO.P,C3,P$2*%
%TO.N,GND*%
X131425750Y-91418950D03*
%TD*%
D15*
%TO.P,U6,1*%
%TO.N,N$11*%
X159205750Y-113823950D03*
%TO.P,U6,2*%
%TO.N,SIGNAL_INPUT_B*%
X159205750Y-115093950D03*
%TO.P,U6,3*%
%TO.N,N$13*%
X159205750Y-116363950D03*
%TO.P,U6,4*%
%TO.N,GND*%
X159205750Y-117633950D03*
%TO.P,U6,5*%
%TO.N,SIGNAL_INPUT_A*%
X164605750Y-117633950D03*
%TO.P,U6,6*%
%TO.N,N$12*%
X164605750Y-116363950D03*
%TO.P,U6,7*%
%TO.N,N$11*%
X164605750Y-115093950D03*
%TO.P,U6,8*%
%TO.N,+5V*%
X164605750Y-113823950D03*
%TD*%
D10*
%TO.P,JP3,33*%
%TO.N,MISO_A*%
X177780750Y-101123950D03*
D11*
%TO.P,JP3,34*%
%TO.N,SCK_A*%
X177780750Y-103663950D03*
%TO.P,JP3,35*%
%TO.N,N/C*%
X177780750Y-106203950D03*
%TO.P,JP3,36*%
%TO.N,GND*%
X180320750Y-106203950D03*
%TO.P,JP3,37*%
%TO.N,MOSI_A*%
X180320750Y-103663950D03*
%TO.P,JP3,38*%
%TO.N,N/C*%
X180320750Y-101123950D03*
%TD*%
D16*
%TO.P,D5,ANODE*%
%TO.N,N$8*%
X119245750Y-129063950D03*
%TO.P,D5,CATHODE*%
%TO.N,INT*%
X120745750Y-129063950D03*
%TD*%
D13*
%TO.P,R1,P$1*%
%TO.N,N$10*%
X170160750Y-105018950D03*
%TO.P,R1,P$2*%
%TO.N,+5V*%
X170160750Y-106118950D03*
%TD*%
D17*
%TO.P,U5,P$1*%
%TO.N,+5V*%
X139778750Y-102221950D03*
%TO.P,U5,P$2*%
%TO.N,N/C*%
X139778750Y-102871950D03*
%TO.P,U5,P$3*%
%TO.N,CS_A*%
X139778750Y-103521950D03*
%TO.P,U5,P$4*%
%TO.N,SCK_A*%
X139778750Y-104171950D03*
%TO.P,U5,P$5*%
%TO.N,MOSI_A*%
X139778750Y-104821950D03*
%TO.P,U5,P$6*%
%TO.N,N/C*%
X139778750Y-105471950D03*
%TO.P,U5,P$7*%
X139778750Y-106121950D03*
%TO.P,U5,P$8*%
%TO.N,LDAC*%
X145678750Y-106121950D03*
%TO.P,U5,P$9*%
%TO.N,SHDN*%
X145678750Y-105471950D03*
%TO.P,U5,P$10*%
%TO.N,SPOOF_SIGNAL_B*%
X145678750Y-104821950D03*
%TO.P,U5,P$11*%
%TO.N,N$7*%
X145678750Y-104171950D03*
%TO.P,U5,P$12*%
%TO.N,GND*%
X145678750Y-103521950D03*
%TO.P,U5,P$13*%
%TO.N,N$7*%
X145678750Y-102871950D03*
%TO.P,U5,P$14*%
%TO.N,SPOOF_SIGNAL_A*%
X145678750Y-102221950D03*
%TD*%
D18*
%TO.P,RELAY1,P$1*%
%TO.N,+5V*%
X154312750Y-107054950D03*
%TO.P,RELAY1,P$3*%
%TO.N,SIGNAL_INPUT_A*%
X159392750Y-107054950D03*
%TO.P,RELAY1,P$4*%
%TO.N,SIGNAL_OUTPUT_A*%
X161932750Y-107054950D03*
%TO.P,RELAY1,P$5*%
%TO.N,SPOOF_SIGNAL_A*%
X164472750Y-107054950D03*
%TO.P,RELAY1,P$8*%
%TO.N,SPOOF_SIGNAL_B*%
X164472750Y-99764950D03*
%TO.P,RELAY1,P$9*%
%TO.N,SIGNAL_OUTPUT_B*%
X161932750Y-99764950D03*
%TO.P,RELAY1,P$10*%
%TO.N,SIGNAL_INPUT_B*%
X159392750Y-99764950D03*
%TO.P,RELAY1,P$12*%
%TO.N,N$3*%
X154312750Y-99764950D03*
%TD*%
D13*
%TO.P,R16,P$1*%
%TO.N,N$12*%
X161905750Y-119623950D03*
%TO.P,R16,P$2*%
%TO.N,ADC1*%
X161905750Y-120723950D03*
%TD*%
D19*
%TO.P,TP2,T*%
%TO.N,N/C*%
X173970750Y-104044950D03*
%TD*%
D10*
%TO.P,JP4,27*%
%TO.N,ADC0*%
X165080750Y-129063950D03*
D11*
%TO.P,JP4,28*%
%TO.N,ADC1*%
X167620750Y-129063950D03*
%TO.P,JP4,29*%
%TO.N,ADC2*%
X170160750Y-129063950D03*
%TO.P,JP4,30*%
%TO.N,ADC3*%
X172700750Y-129063950D03*
%TO.P,JP4,31*%
%TO.N,ADC4*%
X175240750Y-129063950D03*
%TO.P,JP4,32*%
%TO.N,ADC5*%
X177780750Y-129063950D03*
%TD*%
D20*
%TO.P,R3,P$1*%
%TO.N,+5V*%
X149755750Y-101504950D03*
%TO.P,R3,P$2*%
%TO.N,N$7*%
X148655750Y-101504950D03*
%TD*%
D13*
%TO.P,R22,P$1*%
%TO.N,ADC3*%
X164572750Y-122163950D03*
%TO.P,R22,P$2*%
%TO.N,GND*%
X164572750Y-123263950D03*
%TD*%
D20*
%TO.P,C8,P$1*%
%TO.N,+5V*%
X162074750Y-112426950D03*
%TO.P,C8,P$2*%
%TO.N,GND*%
X160974750Y-112426950D03*
%TD*%
D13*
%TO.P,C1,P$1*%
%TO.N,+5V*%
X133965750Y-92783950D03*
%TO.P,C1,P$2*%
%TO.N,GND*%
X133965750Y-91683950D03*
%TD*%
%TO.P,R11,P$1*%
%TO.N,+5V*%
X149967750Y-107388950D03*
%TO.P,R11,P$2*%
%TO.N,SHDN*%
X149967750Y-106288950D03*
%TD*%
D21*
%TO.P,U2,1*%
%TO.N,TX_CAN*%
X146195850Y-111918950D03*
%TO.P,U2,2*%
%TO.N,RX_CAN*%
X146195850Y-113188950D03*
%TO.P,U2,3*%
%TO.N,N/C*%
X146195850Y-114458950D03*
%TO.P,U2,4*%
X146195850Y-115728950D03*
%TO.P,U2,5*%
X146195850Y-116998950D03*
%TO.P,U2,6*%
X146195850Y-118268950D03*
%TO.P,U2,7*%
%TO.N,N$16*%
X146195850Y-119538950D03*
%TO.P,U2,8*%
%TO.N,N$17*%
X146195850Y-120808950D03*
%TO.P,U2,9*%
%TO.N,GND*%
X146195850Y-122078950D03*
%TO.P,U2,10*%
%TO.N,N/C*%
X156025650Y-122078950D03*
%TO.P,U2,11*%
X156025650Y-120808950D03*
%TO.P,U2,12*%
%TO.N,INT*%
X156025650Y-119538950D03*
%TO.P,U2,13*%
%TO.N,SCK_B*%
X156025650Y-118268950D03*
%TO.P,U2,14*%
%TO.N,MOSI_B*%
X156025650Y-116998950D03*
%TO.P,U2,15*%
%TO.N,MISO_B*%
X156025650Y-115728950D03*
%TO.P,U2,16*%
%TO.N,CS_B*%
X156025650Y-114458950D03*
%TO.P,U2,17*%
%TO.N,RST_N*%
X156025650Y-113188950D03*
%TO.P,U2,18*%
%TO.N,+5V*%
X156025650Y-111918950D03*
%TD*%
D20*
%TO.P,R14,P$1*%
%TO.N,N$9*%
X124355750Y-111918950D03*
%TO.P,R14,P$2*%
%TO.N,GND*%
X123255750Y-111918950D03*
%TD*%
D13*
%TO.P,R21,P$1*%
%TO.N,ADC2*%
X163302750Y-122163950D03*
%TO.P,R21,P$2*%
%TO.N,GND*%
X163302750Y-123263950D03*
%TD*%
D22*
%TO.P,CON2,P$1*%
%TO.N,CANH*%
X118725750Y-116363950D03*
D23*
%TO.P,CON2,P$2*%
%TO.N,CANL*%
X118725750Y-119863950D03*
%TD*%
D20*
%TO.P,R7,P$1*%
%TO.N,N$8*%
X117370750Y-129063950D03*
%TO.P,R7,P$2*%
%TO.N,+5V*%
X116270750Y-129063950D03*
%TD*%
%TO.P,R10,P$1*%
%TO.N,+3V3*%
X149755750Y-102774950D03*
%TO.P,R10,P$2*%
%TO.N,N$7*%
X148655750Y-102774950D03*
%TD*%
D16*
%TO.P,D1,ANODE*%
%TO.N,N$10*%
X170160750Y-102508950D03*
%TO.P,D1,CATHODE*%
%TO.N,N$3*%
X170160750Y-101008950D03*
%TD*%
%TO.P,D3,ANODE*%
%TO.N,N$1*%
X119245750Y-125253950D03*
%TO.P,D3,CATHODE*%
%TO.N,TX_CAN*%
X120745750Y-125253950D03*
%TD*%
D22*
%TO.P,CON3,P$1*%
%TO.N,SIGNAL_INPUT_A*%
X174605750Y-120808950D03*
D23*
%TO.P,CON3,P$2*%
%TO.N,GND*%
X174605750Y-117308950D03*
%TO.P,CON3,P$3*%
%TO.N,SIGNAL_INPUT_B*%
X174605750Y-113808950D03*
%TO.P,CON3,P$4*%
%TO.N,GND*%
X174605750Y-110308950D03*
%TD*%
D16*
%TO.P,D2,ANODE*%
%TO.N,N$6*%
X119245750Y-123348950D03*
%TO.P,D2,CATHODE*%
%TO.N,GND*%
X120745750Y-123348950D03*
%TD*%
D24*
%TO.P,C5,P$1*%
%TO.N,+5V*%
X140254750Y-98837950D03*
%TO.P,C5,P$2*%
%TO.N,GND*%
X142154750Y-98837950D03*
%TD*%
D13*
%TO.P,R8,P$1*%
%TO.N,+5V*%
X133965750Y-94223950D03*
%TO.P,R8,P$2*%
%TO.N,N$4*%
X133965750Y-95323950D03*
%TD*%
%TO.P,C6,P$1*%
%TO.N,+5V*%
X133076750Y-109590950D03*
%TO.P,C6,P$2*%
%TO.N,GND*%
X133076750Y-110690950D03*
%TD*%
%TO.P,C7,P$1*%
%TO.N,GND*%
X139680750Y-119453950D03*
%TO.P,C7,P$2*%
%TO.N,N$16*%
X139680750Y-118353950D03*
%TD*%
%TO.P,R2,P$1*%
%TO.N,+5V*%
X157968750Y-111368950D03*
%TO.P,R2,P$2*%
%TO.N,RST_N*%
X157968750Y-112468950D03*
%TD*%
%TO.P,C4,P$1*%
%TO.N,GND*%
X139680750Y-120893950D03*
%TO.P,C4,P$2*%
%TO.N,N$17*%
X139680750Y-121993950D03*
%TD*%
D20*
%TO.P,R5,P$1*%
%TO.N,N$1*%
X117370750Y-125253950D03*
%TO.P,R5,P$2*%
%TO.N,+5V*%
X116270750Y-125253950D03*
%TD*%
D13*
%TO.P,R23,P$1*%
%TO.N,N$11*%
X157841750Y-115178950D03*
%TO.P,R23,P$2*%
%TO.N,GND*%
X157841750Y-116278950D03*
%TD*%
D20*
%TO.P,R13,P$1*%
%TO.N,CANL*%
X124355750Y-110013950D03*
%TO.P,R13,P$2*%
%TO.N,N$2*%
X123255750Y-110013950D03*
%TD*%
D11*
%TO.P,JP5,19*%
%TO.N,ADC6*%
X142220750Y-129063950D03*
%TO.P,JP5,20*%
%TO.N,ADC7*%
X144760750Y-129063950D03*
%TO.P,JP5,21*%
%TO.N,RST*%
X147300750Y-129063950D03*
%TO.P,JP5,22*%
%TO.N,+3V3*%
X149840750Y-129063950D03*
%TO.P,JP5,23*%
%TO.N,+5V*%
X152380750Y-129063950D03*
%TO.P,JP5,24*%
%TO.N,GND*%
X154920750Y-129063950D03*
%TO.P,JP5,25*%
X157460750Y-129063950D03*
D10*
%TO.P,JP5,26*%
%TO.N,VIN*%
X160000750Y-129063950D03*
%TD*%
D13*
%TO.P,R9,P$1*%
%TO.N,LDAC*%
X147427750Y-106288950D03*
%TO.P,R9,P$2*%
%TO.N,GND*%
X147427750Y-107388950D03*
%TD*%
%TO.P,R20,P$1*%
%TO.N,SPOOF_SIGNAL_B*%
X164572750Y-119623950D03*
%TO.P,R20,P$2*%
%TO.N,ADC3*%
X164572750Y-120723950D03*
%TD*%
D10*
%TO.P,JP2,1*%
%TO.N,IO0*%
X177780750Y-80803950D03*
D11*
%TO.P,JP2,2*%
%TO.N,IO1*%
X175240750Y-80803950D03*
%TO.P,JP2,3*%
%TO.N,IO2*%
X172700750Y-80803950D03*
%TO.P,JP2,4*%
%TO.N,IO3*%
X170160750Y-80803950D03*
%TO.P,JP2,5*%
%TO.N,IO4*%
X167620750Y-80803950D03*
%TO.P,JP2,6*%
%TO.N,IO5*%
X165080750Y-80803950D03*
%TO.P,JP2,7*%
%TO.N,SPOOF_EN*%
X162540750Y-80803950D03*
%TO.P,JP2,8*%
%TO.N,INT*%
X160000750Y-80803950D03*
%TD*%
D13*
%TO.P,R18,P$1*%
%TO.N,ADC1*%
X161905750Y-122163950D03*
%TO.P,R18,P$2*%
%TO.N,GND*%
X161905750Y-123263950D03*
%TD*%
D16*
%TO.P,D4,ANODE*%
%TO.N,N$5*%
X119245750Y-127158950D03*
%TO.P,D4,CATHODE*%
%TO.N,RX_CAN*%
X120745750Y-127158950D03*
%TD*%
D25*
%TO.P,Q1,P$1*%
%TO.N,SPOOF_EN*%
X156817750Y-95916950D03*
%TO.P,Q1,P$2*%
%TO.N,GND*%
X155817750Y-95916950D03*
%TO.P,Q1,P$3*%
%TO.N,N$3*%
X156317750Y-96966950D03*
%TD*%
D20*
%TO.P,R6,P$1*%
%TO.N,N$5*%
X117370750Y-127158950D03*
%TO.P,R6,P$2*%
%TO.N,+5V*%
X116270750Y-127158950D03*
%TD*%
D24*
%TO.P,C9,P$1*%
%TO.N,SIGNAL_OUTPUT_A*%
X163490750Y-94265950D03*
%TO.P,C9,P$2*%
%TO.N,GND*%
X161590750Y-94265950D03*
%TD*%
D22*
%TO.P,CON4,P$1*%
%TO.N,SIGNAL_OUTPUT_A*%
X174605750Y-96678950D03*
D23*
%TO.P,CON4,P$2*%
%TO.N,GND*%
X174605750Y-93178950D03*
%TO.P,CON4,P$3*%
%TO.N,SIGNAL_OUTPUT_B*%
X174605750Y-89678950D03*
%TO.P,CON4,P$4*%
%TO.N,GND*%
X174605750Y-86178950D03*
%TD*%
D19*
%TO.P,TP3,T*%
%TO.N,N/C*%
X116058750Y-79914950D03*
%TD*%
D13*
%TO.P,R19,P$1*%
%TO.N,SPOOF_SIGNAL_A*%
X163302750Y-119623950D03*
%TO.P,R19,P$2*%
%TO.N,ADC2*%
X163302750Y-120723950D03*
%TD*%
D22*
%TO.P,CON1,P$1*%
%TO.N,V+*%
X118725750Y-101758950D03*
D23*
%TO.P,CON1,P$2*%
%TO.N,GND*%
X118725750Y-105258950D03*
%TD*%
D13*
%TO.P,R15,P$1*%
%TO.N,N$13*%
X160635750Y-119623950D03*
%TO.P,R15,P$2*%
%TO.N,ADC0*%
X160635750Y-120723950D03*
%TD*%
D26*
%TO.P,U4,P$1*%
%TO.N,V+*%
X136632750Y-88804950D03*
%TO.P,U4,P$2*%
%TO.N,GND*%
X136632750Y-91344950D03*
%TO.P,U4,P$3*%
%TO.N,+5V*%
X136632750Y-93884950D03*
D27*
%TO.P,U4,P$4*%
%TO.N,GND*%
X147232750Y-91344950D03*
%TD*%
D19*
%TO.P,TP1,T*%
%TO.N,N/C*%
X130409750Y-123602950D03*
%TD*%
D20*
%TO.P,R4,P$1*%
%TO.N,N$6*%
X117370750Y-123348950D03*
%TO.P,R4,P$2*%
%TO.N,+5V*%
X116270750Y-123348950D03*
%TD*%
%TO.P,C2,P$1*%
%TO.N,+5V*%
X140019750Y-100615950D03*
%TO.P,C2,P$2*%
%TO.N,GND*%
X141119750Y-100615950D03*
%TD*%
D28*
%TO.P,JP6,1*%
%TO.N,CANH*%
X117455750Y-110648950D03*
%TO.P,JP6,2*%
%TO.N,N$2*%
X119995750Y-110648950D03*
%TD*%
D13*
%TO.P,R17,P$1*%
%TO.N,ADC0*%
X160635750Y-122163950D03*
%TO.P,R17,P$2*%
%TO.N,GND*%
X160635750Y-123263950D03*
%TD*%
D24*
%TO.P,C10,P$1*%
%TO.N,SIGNAL_OUTPUT_B*%
X163490750Y-89693950D03*
%TO.P,C10,P$2*%
%TO.N,GND*%
X161590750Y-89693950D03*
%TD*%
D15*
%TO.P,U1,1*%
%TO.N,TX_CAN*%
X131458750Y-112172950D03*
%TO.P,U1,2*%
%TO.N,GND*%
X131458750Y-110902950D03*
%TO.P,U1,3*%
%TO.N,+5V*%
X131458750Y-109632950D03*
%TO.P,U1,4*%
%TO.N,RX_CAN*%
X131458750Y-108362950D03*
%TO.P,U1,5*%
%TO.N,N/C*%
X126058750Y-108362950D03*
%TO.P,U1,6*%
%TO.N,CANL*%
X126058750Y-109632950D03*
%TO.P,U1,7*%
%TO.N,CANH*%
X126058750Y-110902950D03*
%TO.P,U1,8*%
%TO.N,N$9*%
X126058750Y-112172950D03*
%TD*%
D29*
%TO.N,GND*%
X142220750Y-90328950D03*
X152380750Y-94773950D03*
X152380750Y-92233950D03*
D30*
X142855750Y-99218950D03*
X159238750Y-118395950D03*
D29*
X152380750Y-96043950D03*
X142220750Y-95408950D03*
X152380750Y-93503950D03*
X142220750Y-92868950D03*
D30*
X166096750Y-122459950D03*
X144125750Y-103663950D03*
X155936750Y-95027950D03*
X133965750Y-110648950D03*
D29*
X142220750Y-89058950D03*
D30*
X121900750Y-111918950D03*
X160762750Y-94265950D03*
X160635750Y-124618950D03*
D29*
X142220750Y-94138950D03*
X152380750Y-89693950D03*
X142220750Y-86518950D03*
D30*
X161905750Y-124618950D03*
X144760750Y-122078950D03*
D29*
X152380750Y-88423950D03*
X142220750Y-96678950D03*
X152380750Y-85883950D03*
D30*
X121900750Y-123348950D03*
X141712750Y-100488950D03*
X163302750Y-124237950D03*
D29*
X142220750Y-87788950D03*
D30*
X160762750Y-89693950D03*
X161016750Y-111791950D03*
X146665750Y-107473950D03*
D29*
X142220750Y-91598950D03*
X152380750Y-87153950D03*
X152380750Y-90963950D03*
D30*
X140188750Y-120173950D03*
%TO.N,RX_CAN*%
X132695750Y-107473950D03*
X132695750Y-113188950D03*
%TO.N,MISO_B*%
X151745750Y-116236950D03*
X140442750Y-84359950D03*
X139426750Y-97313950D03*
%TO.N,MOSI_A*%
X168255750Y-124618950D03*
X149205750Y-112680950D03*
X140950750Y-108743950D03*
X157587750Y-123983950D03*
%TO.N,MOSI_B*%
X151745750Y-117252950D03*
X138410750Y-97567950D03*
%TO.N,SCK_A*%
X142220750Y-108108950D03*
X157587750Y-122713950D03*
X168001750Y-123348950D03*
X150475750Y-112680950D03*
%TO.N,SCK_B*%
X151745750Y-118268950D03*
X137394750Y-97567950D03*
%TO.N,CS_B*%
X140696750Y-85629950D03*
X152507750Y-115474950D03*
X140442750Y-97313950D03*
%TO.N,CS_A*%
X147300750Y-99218950D03*
X147300750Y-101758950D03*
%TO.N,+5V*%
X153015750Y-107473950D03*
X135235750Y-109378950D03*
X135235750Y-107473950D03*
X153015750Y-110648950D03*
X159746750Y-112680950D03*
X170160750Y-111918950D03*
X167620750Y-115093950D03*
%TO.N,N$3*%
X163175750Y-96678950D03*
X160635750Y-96678950D03*
%TO.N,SPOOF_SIGNAL_B*%
X170160750Y-119919950D03*
X163810750Y-101758950D03*
X157460750Y-101758950D03*
X169144750Y-116617950D03*
X164572750Y-112045950D03*
X165842750Y-108235950D03*
%TO.N,SPOOF_SIGNAL_A*%
X163302750Y-112045950D03*
X163302750Y-108997950D03*
X168128750Y-116617950D03*
X168128750Y-118903950D03*
%TO.N,SIGNAL_OUTPUT_A*%
X170160750Y-110013950D03*
X166350750Y-110013950D03*
%TO.N,SIGNAL_INPUT_B*%
X168573250Y-112236450D03*
X161524750Y-114204950D03*
%TO.N,+3V3*%
X157714750Y-118141950D03*
X156190750Y-101631950D03*
%TO.N,INT*%
X151364750Y-103155950D03*
X142982750Y-113696950D03*
X150602750Y-113696950D03*
%TD*%
D31*
%TO.N,GND*%
X161905750Y-123263950D02*
X161905750Y-124618950D01*
X138156750Y-115093950D02*
X141966750Y-118903950D01*
X133965750Y-91683950D02*
X133965750Y-91344950D01*
D32*
X159205750Y-118362950D02*
X159238750Y-118395950D01*
D31*
X144760750Y-122078950D02*
X144633750Y-122078950D01*
D32*
X132864750Y-110902950D02*
X133076750Y-110690950D01*
D31*
X139680750Y-120681950D02*
X140188750Y-120173950D01*
D33*
X128250750Y-92868950D02*
X129700750Y-91418950D01*
D31*
X139680750Y-120893950D02*
X139680750Y-120681950D01*
D34*
X118725750Y-105258950D02*
X123480750Y-105258950D01*
D31*
X141966750Y-118903950D02*
X144760750Y-118903950D01*
D32*
X142474750Y-98837950D02*
X142855750Y-99218950D01*
D31*
X144633750Y-122078950D02*
X143998750Y-121443950D01*
X120745750Y-123348950D02*
X121900750Y-123348950D01*
D32*
X161590750Y-89693950D02*
X160762750Y-89693950D01*
D31*
X140696750Y-122713950D02*
X139934750Y-122713950D01*
X155817750Y-95146950D02*
X155936750Y-95027950D01*
D32*
X131458750Y-110902950D02*
X132864750Y-110902950D01*
X145678750Y-103521950D02*
X144267750Y-103521950D01*
X161590750Y-94265950D02*
X160762750Y-94265950D01*
D31*
X160635750Y-123263950D02*
X160635750Y-124618950D01*
X134346750Y-131095950D02*
X133584750Y-130333950D01*
D33*
X128250750Y-100488950D02*
X128250750Y-92868950D01*
D32*
X142154750Y-98837950D02*
X142474750Y-98837950D01*
D31*
X139426750Y-130079950D02*
X138410750Y-131095950D01*
D32*
X146195850Y-122078950D02*
X144760750Y-122078950D01*
X141119750Y-100615950D02*
X141585750Y-100615950D01*
D31*
X157841750Y-116278950D02*
X157841750Y-117252950D01*
D32*
X141585750Y-100615950D02*
X141712750Y-100488950D01*
D31*
X160974750Y-111833950D02*
X161016750Y-111791950D01*
X146750750Y-107388950D02*
X146665750Y-107473950D01*
X143998750Y-121443950D02*
X141966750Y-121443950D01*
X133923750Y-110690950D02*
X133965750Y-110648950D01*
X138410750Y-131095950D02*
X134346750Y-131095950D01*
D32*
X123255750Y-111918950D02*
X121900750Y-111918950D01*
D31*
X158222750Y-117633950D02*
X159205750Y-117633950D01*
X139680750Y-119665950D02*
X140188750Y-120173950D01*
D33*
X136632750Y-91344950D02*
X133965750Y-91344950D01*
X123480750Y-105258950D02*
X128250750Y-100488950D01*
D31*
X163302750Y-123263950D02*
X163302750Y-124237950D01*
X155817750Y-95916950D02*
X155817750Y-95146950D01*
X133584750Y-130333950D02*
X133584750Y-116617950D01*
D32*
X133076750Y-110690950D02*
X133923750Y-110690950D01*
D31*
X139934750Y-122713950D02*
X139426750Y-123221950D01*
D33*
X131499750Y-91344950D02*
X131425750Y-91418950D01*
D31*
X135108750Y-115093950D02*
X138156750Y-115093950D01*
X164572750Y-123263950D02*
X165292750Y-123263950D01*
X133584750Y-116617950D02*
X135108750Y-115093950D01*
X139426750Y-123221950D02*
X139426750Y-130079950D01*
X141966750Y-121443950D02*
X140696750Y-122713950D01*
X165292750Y-123263950D02*
X166096750Y-122459950D01*
X139680750Y-119453950D02*
X139680750Y-119665950D01*
D33*
X131425750Y-91418950D02*
X129700750Y-91418950D01*
D31*
X160974750Y-112426950D02*
X160974750Y-111833950D01*
D33*
X133965750Y-91344950D02*
X131499750Y-91344950D01*
D32*
X144267750Y-103521950D02*
X144125750Y-103663950D01*
D31*
X147427750Y-107388950D02*
X146750750Y-107388950D01*
X148697750Y-107388950D02*
X147427750Y-107388950D01*
X157841750Y-117252950D02*
X158222750Y-117633950D01*
D32*
X159205750Y-117633950D02*
X159205750Y-118362950D01*
D34*
%TO.N,CANH*%
X118725750Y-116363950D02*
X125964750Y-116363950D01*
X118725750Y-113188950D02*
X118725750Y-116363950D01*
D32*
X126058750Y-110902950D02*
X126853750Y-110902950D01*
X117455750Y-110648950D02*
X117455750Y-111918950D01*
D34*
X125964750Y-116363950D02*
X126218750Y-116109950D01*
D32*
X126218750Y-116109950D02*
X127869750Y-114458950D01*
X126218750Y-116109950D02*
X125964750Y-116363950D01*
X127869750Y-111918950D02*
X127869750Y-114458950D01*
X126853750Y-110902950D02*
X127869750Y-111918950D01*
X117455750Y-111918950D02*
X118725750Y-113188950D01*
D31*
%TO.N,TX_CAN*%
X120745750Y-125253950D02*
X123170750Y-125253950D01*
X123170750Y-125253950D02*
X131458750Y-116965950D01*
X131458750Y-112172950D02*
X131458750Y-116965950D01*
D32*
X137521750Y-112172950D02*
X137775750Y-111918950D01*
X131458750Y-112172950D02*
X137521750Y-112172950D01*
X137775750Y-111918950D02*
X146195850Y-111918950D01*
D31*
%TO.N,RX_CAN*%
X122027750Y-127158950D02*
X132060750Y-117125950D01*
D32*
X147427750Y-113188950D02*
X148062750Y-112553950D01*
D31*
X132060750Y-117125950D02*
X132060750Y-113823950D01*
D32*
X146195850Y-113188950D02*
X147427750Y-113188950D01*
X148062750Y-111283950D02*
X147427750Y-110648950D01*
X137775750Y-110648950D02*
X135489750Y-108362950D01*
D31*
X132695750Y-107473950D02*
X132695750Y-108362950D01*
D32*
X148062750Y-112553950D02*
X148062750Y-111283950D01*
X131458750Y-108362950D02*
X132695750Y-108362950D01*
X132695750Y-108362950D02*
X135489750Y-108362950D01*
X147427750Y-110648950D02*
X137775750Y-110648950D01*
D31*
X132060750Y-113823950D02*
X132695750Y-113188950D01*
X120745750Y-127158950D02*
X122027750Y-127158950D01*
%TO.N,ADC1*%
X165334750Y-127539950D02*
X166096750Y-127539950D01*
X161905750Y-122163950D02*
X161990750Y-122163950D01*
X161905750Y-122163950D02*
X161905750Y-120723950D01*
X162540750Y-124745950D02*
X165334750Y-127539950D01*
X166096750Y-127539950D02*
X167620750Y-129063950D01*
X161990750Y-122163950D02*
X162540750Y-122713950D01*
X162540750Y-122713950D02*
X162540750Y-124745950D01*
%TO.N,N$16*%
X141585750Y-119538950D02*
X140400750Y-118353950D01*
X136336750Y-118353950D02*
X136251750Y-118268950D01*
X139680750Y-118353950D02*
X136336750Y-118353950D01*
X146195850Y-119538950D02*
X141585750Y-119538950D01*
X139680750Y-118353950D02*
X140400750Y-118353950D01*
%TO.N,N$17*%
X146195850Y-120808950D02*
X141585750Y-120808950D01*
X141585750Y-120808950D02*
X140400750Y-121993950D01*
X139680750Y-121993950D02*
X140400750Y-121993950D01*
X136251750Y-127920950D02*
X136251750Y-124237950D01*
X136251750Y-124237950D02*
X138495750Y-121993950D01*
X139680750Y-121993950D02*
X138495750Y-121993950D01*
D32*
%TO.N,CANL*%
X128631750Y-111537950D02*
X128631750Y-116744950D01*
X126726750Y-109632950D02*
X128631750Y-111537950D01*
D34*
X118725750Y-119863950D02*
X125512750Y-119863950D01*
D32*
X125512750Y-119863950D02*
X128631750Y-116744950D01*
X126058750Y-109632950D02*
X124736750Y-109632950D01*
X126058750Y-109632950D02*
X126726750Y-109632950D01*
X124736750Y-109632950D02*
X124355750Y-110013950D01*
D31*
%TO.N,RST_N*%
X156025650Y-113188950D02*
X157248750Y-113188950D01*
X157248750Y-113188950D02*
X157968750Y-112468950D01*
%TO.N,ADC0*%
X161270750Y-122713950D02*
X161270750Y-125253950D01*
X160720750Y-122163950D02*
X161270750Y-122713950D01*
X161270750Y-125253950D02*
X165080750Y-129063950D01*
X160635750Y-122163950D02*
X160720750Y-122163950D01*
X160635750Y-122163950D02*
X160635750Y-120723950D01*
D33*
%TO.N,V+*%
X136632750Y-88804950D02*
X129139750Y-88804950D01*
D34*
X118725750Y-101758950D02*
X122535750Y-101758950D01*
D33*
X122535750Y-101758950D02*
X125710750Y-98583950D01*
X125710750Y-92233950D02*
X129139750Y-88804950D01*
X125710750Y-98583950D02*
X125710750Y-92233950D01*
D31*
%TO.N,ADC2*%
X163937750Y-124618950D02*
X166604750Y-127285950D01*
X163937750Y-122713950D02*
X163937750Y-124618950D01*
X163302750Y-120723950D02*
X163302750Y-122163950D01*
X168382750Y-127285950D02*
X170160750Y-129063950D01*
X163387750Y-122163950D02*
X163937750Y-122713950D01*
X166604750Y-127285950D02*
X168382750Y-127285950D01*
X163302750Y-122163950D02*
X163387750Y-122163950D01*
%TO.N,ADC3*%
X164572750Y-120723950D02*
X164572750Y-122163950D01*
X167874750Y-126777950D02*
X170414750Y-126777950D01*
X166858750Y-121951950D02*
X166858750Y-125761950D01*
X165122750Y-122163950D02*
X165588750Y-121697950D01*
X165588750Y-121697950D02*
X166604750Y-121697950D01*
X166858750Y-125761950D02*
X167874750Y-126777950D01*
X164572750Y-122163950D02*
X165122750Y-122163950D01*
X166604750Y-121697950D02*
X166858750Y-121951950D01*
X170414750Y-126777950D02*
X172700750Y-129063950D01*
%TO.N,MISO_B*%
X139426750Y-96043950D02*
X139934750Y-95535950D01*
X154285750Y-116236950D02*
X154793750Y-115728950D01*
X139934750Y-84867950D02*
X140442750Y-84359950D01*
X139934750Y-95535950D02*
X139934750Y-84867950D01*
X151745750Y-116236950D02*
X154285750Y-116236950D01*
X156025650Y-115728950D02*
X154793750Y-115728950D01*
X139426750Y-97313950D02*
X139426750Y-96043950D01*
%TO.N,MOSI_A*%
X137775750Y-108108950D02*
X138410750Y-108743950D01*
X139778750Y-104821950D02*
X138522750Y-104821950D01*
X179050750Y-120808950D02*
X175875750Y-123983950D01*
X180320750Y-103663950D02*
X179050750Y-104933950D01*
X149205750Y-121443950D02*
X149205750Y-112680950D01*
X168890750Y-123983950D02*
X168255750Y-124618950D01*
X138410750Y-108743950D02*
X140950750Y-108743950D01*
X151745750Y-123983950D02*
X149205750Y-121443950D01*
X157587750Y-123983950D02*
X151745750Y-123983950D01*
X138522750Y-104821950D02*
X137775750Y-105568950D01*
X179050750Y-104933950D02*
X179050750Y-120808950D01*
X175875750Y-123983950D02*
X168890750Y-123983950D01*
X137775750Y-105568950D02*
X137775750Y-108108950D01*
%TO.N,MOSI_B*%
X138410750Y-97567950D02*
X138410750Y-96297950D01*
X139426750Y-84105950D02*
X140188750Y-83343950D01*
X148316750Y-82327950D02*
X148316750Y-80803950D01*
X154793750Y-116998950D02*
X154539750Y-117252950D01*
X156025650Y-116998950D02*
X154793750Y-116998950D01*
X140188750Y-83343950D02*
X147300750Y-83343950D01*
X151745750Y-117252950D02*
X154539750Y-117252950D01*
X138410750Y-96297950D02*
X139426750Y-95281950D01*
X147300750Y-83343950D02*
X148316750Y-82327950D01*
X139426750Y-95281950D02*
X139426750Y-84105950D01*
%TO.N,SCK_A*%
X142220750Y-104933950D02*
X141458750Y-104171950D01*
X149840750Y-113315950D02*
X150475750Y-112680950D01*
X175240750Y-123348950D02*
X168001750Y-123348950D01*
X152380750Y-123348950D02*
X149840750Y-120808950D01*
X176510750Y-104933950D02*
X176510750Y-107473950D01*
X177780750Y-103663950D02*
X176510750Y-104933950D01*
X157587750Y-122713950D02*
X156952750Y-123348950D01*
X139778750Y-104171950D02*
X141458750Y-104171950D01*
X178415750Y-120173950D02*
X175240750Y-123348950D01*
X156952750Y-123348950D02*
X152380750Y-123348950D01*
X149840750Y-120808950D02*
X149840750Y-113315950D01*
X178415750Y-109378950D02*
X178415750Y-120173950D01*
X176510750Y-107473950D02*
X178415750Y-109378950D01*
X142220750Y-108108950D02*
X142220750Y-104933950D01*
%TO.N,SCK_B*%
X138918750Y-83851950D02*
X139934750Y-82835950D01*
X143236750Y-82327950D02*
X143236750Y-80803950D01*
X137394750Y-96551950D02*
X138918750Y-95027950D01*
X156025650Y-118268950D02*
X151745750Y-118268950D01*
X139934750Y-82835950D02*
X142728750Y-82835950D01*
X142728750Y-82835950D02*
X143236750Y-82327950D01*
X137394750Y-97567950D02*
X137394750Y-96551950D01*
X138918750Y-95027950D02*
X138918750Y-83851950D01*
%TO.N,CS_B*%
X153904750Y-115601950D02*
X152634750Y-115601950D01*
X152634750Y-115601950D02*
X152507750Y-115474950D01*
X155047750Y-114458950D02*
X153904750Y-115601950D01*
X140442750Y-85883950D02*
X140696750Y-85629950D01*
X156025650Y-114458950D02*
X155047750Y-114458950D01*
X140442750Y-97313950D02*
X140442750Y-85883950D01*
%TO.N,CS_A*%
X146665750Y-101123950D02*
X147300750Y-101758950D01*
X154285750Y-96678950D02*
X153650750Y-97313950D01*
X154285750Y-96678950D02*
X154285750Y-83978950D01*
X154285750Y-83978950D02*
X153396750Y-83089950D01*
X148570750Y-97313950D02*
X147300750Y-98583950D01*
X147300750Y-98583950D02*
X147300750Y-99218950D01*
X153396750Y-80803950D02*
X153396750Y-83089950D01*
X142045250Y-103521950D02*
X144443250Y-101123950D01*
X139778750Y-103521950D02*
X142045250Y-103521950D01*
X153650750Y-97313950D02*
X148570750Y-97313950D01*
X144443250Y-101123950D02*
X146665750Y-101123950D01*
D32*
%TO.N,+5V*%
X140019750Y-99072950D02*
X140254750Y-98837950D01*
D31*
X125456750Y-122205950D02*
X129266750Y-118395950D01*
X116270750Y-122755950D02*
X116820750Y-122205950D01*
D34*
X134346750Y-93884950D02*
X133965750Y-93503950D01*
D35*
X136378750Y-99599950D02*
X135362750Y-100615950D01*
D32*
X140254750Y-98837950D02*
X136378750Y-98837950D01*
D31*
X129266750Y-118395950D02*
X129266750Y-110521950D01*
X157158327Y-111918950D02*
X156025650Y-111918950D01*
D35*
X136378750Y-98837950D02*
X136378750Y-99599950D01*
D31*
X163556750Y-113823950D02*
X162159750Y-112426950D01*
D32*
X139778750Y-102221950D02*
X139778750Y-100856950D01*
D31*
X166350750Y-113823950D02*
X167620750Y-115093950D01*
D32*
X152063250Y-109696450D02*
X153015750Y-110648950D01*
D31*
X152930750Y-107388950D02*
X153015750Y-107473950D01*
X116270750Y-127158950D02*
X116270750Y-125253950D01*
X166350750Y-113823950D02*
X164605750Y-113823950D01*
D32*
X152063250Y-109696450D02*
X138093250Y-109696450D01*
D31*
X116270750Y-123348950D02*
X116270750Y-122755950D01*
D32*
X153015750Y-110648950D02*
X154285750Y-111918950D01*
X135023750Y-109590950D02*
X135235750Y-109378950D01*
D31*
X168890750Y-110648950D02*
X170160750Y-111918950D01*
D32*
X131458750Y-109632950D02*
X134304750Y-109632950D01*
D31*
X164605750Y-113823950D02*
X163556750Y-113823950D01*
D32*
X135870750Y-107473950D02*
X135235750Y-107473950D01*
D35*
X136378750Y-96043950D02*
X136378750Y-98837950D01*
D31*
X149755750Y-101504950D02*
X149755750Y-101038950D01*
D32*
X139778750Y-100856950D02*
X140019750Y-100615950D01*
D31*
X116820750Y-122205950D02*
X125456750Y-122205950D01*
X133965750Y-92783950D02*
X133965750Y-93503950D01*
D32*
X140019750Y-100615950D02*
X140019750Y-99072950D01*
D35*
X135362750Y-100615950D02*
X135362750Y-107346950D01*
D31*
X149205750Y-100488950D02*
X144125750Y-100488950D01*
X168890750Y-108743950D02*
X168890750Y-110648950D01*
X142392750Y-102221950D02*
X144125750Y-100488950D01*
X162159750Y-112426950D02*
X162074750Y-112426950D01*
X134007750Y-94223950D02*
X134346750Y-93884950D01*
D35*
X135362750Y-107346950D02*
X135235750Y-107473950D01*
D31*
X158434750Y-111368950D02*
X159746750Y-112680950D01*
D32*
X136505750Y-94011950D02*
X136632750Y-93884950D01*
X154312750Y-107054950D02*
X153434750Y-107054950D01*
X134304750Y-109632950D02*
X133076750Y-109590950D01*
D33*
X136632750Y-93884950D02*
X134346750Y-93884950D01*
D31*
X170160750Y-106118950D02*
X170160750Y-107473950D01*
D32*
X153434750Y-107054950D02*
X153015750Y-107473950D01*
D31*
X157708327Y-111368950D02*
X157158327Y-111918950D01*
X116270750Y-125253950D02*
X116270750Y-123348950D01*
D35*
X136505750Y-95916950D02*
X136378750Y-96043950D01*
D31*
X139778750Y-102221950D02*
X142392750Y-102221950D01*
X157968750Y-111368950D02*
X157708327Y-111368950D01*
X133965750Y-94223950D02*
X134007750Y-94223950D01*
D35*
X136505750Y-94011950D02*
X136505750Y-95916950D01*
D31*
X131458750Y-109632950D02*
X130155750Y-109632950D01*
X116270750Y-129063950D02*
X116270750Y-127158950D01*
X149755750Y-101038950D02*
X149205750Y-100488950D01*
D32*
X156025650Y-111918950D02*
X154285750Y-111918950D01*
X133076750Y-109590950D02*
X135023750Y-109590950D01*
D31*
X149967750Y-107388950D02*
X152930750Y-107388950D01*
X129266750Y-110521950D02*
X130155750Y-109632950D01*
X157968750Y-111368950D02*
X158434750Y-111368950D01*
D32*
X138093250Y-109696450D02*
X135870750Y-107473950D01*
D31*
X170160750Y-107473950D02*
X168890750Y-108743950D01*
%TO.N,N$3*%
X156317750Y-98710950D02*
X155428750Y-99599950D01*
X170160750Y-101008950D02*
X170160750Y-99218950D01*
X157172750Y-96966950D02*
X157460750Y-96678950D01*
X154477750Y-99599950D02*
X154312750Y-99764950D01*
X156317750Y-96966950D02*
X157172750Y-96966950D01*
X154539750Y-99537950D02*
X154312750Y-99764950D01*
X167620750Y-96678950D02*
X163175750Y-96678950D01*
X155428750Y-99599950D02*
X154477750Y-99599950D01*
X170160750Y-99218950D02*
X167620750Y-96678950D01*
X160635750Y-96678950D02*
X157460750Y-96678950D01*
X156317750Y-96966950D02*
X156317750Y-98710950D01*
D32*
%TO.N,SIGNAL_OUTPUT_B*%
X161905750Y-96678950D02*
X159746750Y-94519950D01*
X163407705Y-91440000D02*
X163414760Y-91447055D01*
X163414760Y-91447055D02*
X163490750Y-91371065D01*
X162318700Y-91440000D02*
X163407705Y-91440000D01*
X163490750Y-89693950D02*
X168255750Y-89693950D01*
X161932750Y-99764950D02*
X161905750Y-99737950D01*
X159746750Y-94519950D02*
X159746750Y-94011950D01*
X168255750Y-89693950D02*
X168270750Y-89678950D01*
X159746750Y-94011950D02*
X162318700Y-91440000D01*
X163490750Y-91371065D02*
X163490750Y-89693950D01*
D34*
X168270750Y-89678950D02*
X174605750Y-89678950D01*
D32*
X161905750Y-99737950D02*
X161905750Y-96678950D01*
D31*
%TO.N,SPOOF_SIGNAL_B*%
X169144750Y-116617950D02*
X169144750Y-114839950D01*
X166350750Y-112045950D02*
X164572750Y-112045950D01*
X165842750Y-105187950D02*
X164318750Y-103663950D01*
X164572750Y-119623950D02*
X169864750Y-119623950D01*
X169144750Y-114839950D02*
X166350750Y-112045950D01*
X164318750Y-103663950D02*
X159365750Y-103663950D01*
X159365750Y-103663950D02*
X157460750Y-101758950D01*
D32*
X163810750Y-101758950D02*
X164475840Y-101758950D01*
X164475840Y-101758950D02*
X164483465Y-101751325D01*
D31*
X165842750Y-108235950D02*
X165842750Y-105187950D01*
D32*
X151857750Y-104821950D02*
X153650750Y-103028950D01*
X156190750Y-103028950D02*
X157460750Y-101758950D01*
D31*
X169864750Y-119623950D02*
X170160750Y-119919950D01*
D32*
X153650750Y-103028950D02*
X156190750Y-103028950D01*
X164483465Y-101751325D02*
X164472750Y-101740610D01*
X164472750Y-101740610D02*
X164472750Y-99764950D01*
X145678750Y-104821950D02*
X151857750Y-104821950D01*
D31*
%TO.N,SPOOF_SIGNAL_A*%
X168636750Y-115093950D02*
X166350750Y-112807950D01*
X168128750Y-116109950D02*
X168636750Y-115601950D01*
X163302750Y-108997950D02*
X163302750Y-108224950D01*
D32*
X144760750Y-108743950D02*
X152380750Y-108743950D01*
D31*
X168636750Y-115601950D02*
X168636750Y-115093950D01*
D32*
X158730750Y-104298950D02*
X163175750Y-104298950D01*
X145678750Y-102221950D02*
X144297750Y-102221950D01*
D31*
X166350750Y-112807950D02*
X164064750Y-112807950D01*
X163344750Y-119623950D02*
X164064750Y-118903950D01*
X164064750Y-112807950D02*
X163302750Y-112045950D01*
D32*
X142855750Y-106838950D02*
X144760750Y-108743950D01*
D31*
X163302750Y-119623950D02*
X163344750Y-119623950D01*
X163302750Y-108224950D02*
X164472750Y-107054950D01*
X164064750Y-118903950D02*
X168128750Y-118903950D01*
D32*
X142855750Y-103663950D02*
X142855750Y-106838950D01*
D31*
X168128750Y-116617950D02*
X168128750Y-116109950D01*
D32*
X164472750Y-107054950D02*
X164472750Y-105595950D01*
X144297750Y-102221950D02*
X142855750Y-103663950D01*
X164472750Y-105595950D02*
X163175750Y-104298950D01*
X152380750Y-108743950D02*
X153015750Y-109378950D01*
X157460750Y-105568950D02*
X158730750Y-104298950D01*
X153015750Y-109378950D02*
X156825750Y-109378950D01*
X157460750Y-108743950D02*
X157460750Y-105568950D01*
X156825750Y-109378950D02*
X157460750Y-108743950D01*
%TO.N,SIGNAL_OUTPUT_A*%
X170160750Y-110013950D02*
X170160750Y-108743950D01*
D34*
X172700750Y-96678950D02*
X171430750Y-97948950D01*
D32*
X161932750Y-109405950D02*
X162540750Y-110013950D01*
X170160750Y-108743950D02*
X171430750Y-107473950D01*
X161932750Y-107054950D02*
X161932750Y-109405950D01*
X171430750Y-97948950D02*
X171430750Y-107473950D01*
X163490750Y-94265950D02*
X167747750Y-94265950D01*
D34*
X174605750Y-96678950D02*
X172700750Y-96678950D01*
D32*
X167747750Y-94265950D02*
X171430750Y-97948950D01*
X162540750Y-110013950D02*
X166350750Y-110013950D01*
D31*
%TO.N,SIGNAL_INPUT_A*%
X169144750Y-117633950D02*
X169906750Y-118395950D01*
D32*
X172319750Y-120808950D02*
X169906750Y-118395950D01*
X166350750Y-111283950D02*
X162286750Y-111283950D01*
D34*
X174605750Y-120808950D02*
X172319750Y-120808950D01*
D32*
X160254750Y-110267950D02*
X159365750Y-109378950D01*
X161270750Y-110267950D02*
X160254750Y-110267950D01*
X159365750Y-107081950D02*
X159392750Y-107054950D01*
X169906750Y-114839950D02*
X166350750Y-111283950D01*
X169906750Y-118395950D02*
X169906750Y-114839950D01*
X162286750Y-111283950D02*
X161270750Y-110267950D01*
X159365750Y-109378950D02*
X159365750Y-107081950D01*
D31*
X164605750Y-117633950D02*
X169144750Y-117633950D01*
D32*
%TO.N,SIGNAL_INPUT_B*%
X168573250Y-112236450D02*
X167620750Y-111283950D01*
X167620750Y-111283950D02*
X167620750Y-104933950D01*
X159392750Y-99764950D02*
X159392750Y-102420950D01*
X160000750Y-103028950D02*
X159392750Y-102420950D01*
X165715750Y-103028950D02*
X160000750Y-103028950D01*
D34*
X171191750Y-113808950D02*
X174605750Y-113808950D01*
D32*
X170145750Y-113808950D02*
X171191750Y-113808950D01*
X167620750Y-104933950D02*
X165715750Y-103028950D01*
D31*
X159205750Y-115093950D02*
X160635750Y-115093950D01*
D34*
X171191750Y-113808950D02*
X171176750Y-113823950D01*
D31*
X160635750Y-115093950D02*
X161524750Y-114204950D01*
D32*
X168573250Y-112236450D02*
X170145750Y-113808950D01*
D31*
%TO.N,LDAC*%
X147260750Y-106121950D02*
X147427750Y-106288950D01*
X145678750Y-106121950D02*
X147260750Y-106121950D01*
%TO.N,SHDN*%
X148697750Y-106288950D02*
X149967750Y-106288950D01*
X148697750Y-105695950D02*
X148473750Y-105471950D01*
X145678750Y-105471950D02*
X148473750Y-105471950D01*
X148697750Y-106288950D02*
X148697750Y-105695950D01*
%TO.N,+3V3*%
X158730750Y-124491950D02*
X158730750Y-119157950D01*
X149840750Y-126523950D02*
X149840750Y-129063950D01*
X150856750Y-125507950D02*
X149840750Y-126523950D01*
X150856750Y-125507950D02*
X157714750Y-125507950D01*
X150094750Y-104171950D02*
X151364750Y-104171950D01*
X149755750Y-103832950D02*
X150094750Y-104171950D01*
X158730750Y-119157950D02*
X157714750Y-118141950D01*
X155682750Y-102139950D02*
X156190750Y-101631950D01*
X149755750Y-102774950D02*
X149755750Y-103832950D01*
X153396750Y-102139950D02*
X151364750Y-104171950D01*
X157714750Y-125507950D02*
X158730750Y-124491950D01*
X155682750Y-102139950D02*
X153396750Y-102139950D01*
D32*
%TO.N,N$7*%
X145678750Y-104171950D02*
X148062750Y-104171950D01*
X148558750Y-102871950D02*
X148655750Y-102774950D01*
X145678750Y-102871950D02*
X148558750Y-102871950D01*
X148062750Y-104171950D02*
X148655750Y-103578950D01*
X148655750Y-102774950D02*
X148655750Y-103578950D01*
X148655750Y-102774950D02*
X148655750Y-101504950D01*
D31*
%TO.N,N$4*%
X133880750Y-95408950D02*
X133965750Y-95323950D01*
D33*
X131425750Y-94318950D02*
X132240750Y-94318950D01*
D31*
X133330750Y-95408950D02*
X133880750Y-95408950D01*
D33*
X132240750Y-94318950D02*
X133330750Y-95408950D01*
D31*
%TO.N,N$6*%
X117370750Y-123348950D02*
X119245750Y-123348950D01*
%TO.N,N$1*%
X117370750Y-125253950D02*
X119245750Y-125253950D01*
%TO.N,N$5*%
X117370750Y-127158950D02*
X119245750Y-127158950D01*
%TO.N,N$8*%
X117370750Y-129063950D02*
X119245750Y-129063950D01*
D32*
%TO.N,N$2*%
X123255750Y-110013950D02*
X120630750Y-110013950D01*
X120630750Y-110013950D02*
X119995750Y-110648950D01*
%TO.N,N$9*%
X124609750Y-112172950D02*
X124355750Y-111918950D01*
X126058750Y-112172950D02*
X124609750Y-112172950D01*
D31*
%TO.N,N$10*%
X170160750Y-102508950D02*
X170160750Y-105018950D01*
%TO.N,INT*%
X151364750Y-98837950D02*
X151364750Y-103155950D01*
X154920750Y-85883950D02*
X160000750Y-80803950D01*
X153904750Y-97821950D02*
X154920750Y-96805950D01*
X120745750Y-129063950D02*
X121646750Y-129063950D01*
X151110750Y-119538950D02*
X150475750Y-118903950D01*
X154920750Y-96805950D02*
X154920750Y-85883950D01*
X133965750Y-113188950D02*
X142474750Y-113188950D01*
X121900750Y-128047950D02*
X132695750Y-117252950D01*
X150475750Y-113823950D02*
X150602750Y-113696950D01*
X156025650Y-119538950D02*
X151110750Y-119538950D01*
X132695750Y-117252950D02*
X132695750Y-114458950D01*
X152380750Y-97821950D02*
X151364750Y-98837950D01*
X133965750Y-113188950D02*
X132695750Y-114458950D01*
X153904750Y-97821950D02*
X152380750Y-97821950D01*
X121900750Y-128809950D02*
X121900750Y-128047950D01*
X142474750Y-113188950D02*
X142982750Y-113696950D01*
X150475750Y-118903950D02*
X150475750Y-113823950D01*
X121646750Y-129063950D02*
X121900750Y-128809950D01*
%TO.N,SPOOF_EN*%
X156817750Y-95916950D02*
X156817750Y-86526950D01*
X156952750Y-95916950D02*
X156817750Y-95916950D01*
X156817750Y-86526950D02*
X162540750Y-80803950D01*
%TO.N,N$11*%
X157841750Y-115178950D02*
X157841750Y-114204950D01*
X160508750Y-113823950D02*
X161016750Y-113315950D01*
X162032750Y-113315950D02*
X161016750Y-113315950D01*
X164605750Y-115093950D02*
X163810750Y-115093950D01*
X158222750Y-113823950D02*
X159205750Y-113823950D01*
X159205750Y-113823950D02*
X160508750Y-113823950D01*
X157841750Y-114204950D02*
X158222750Y-113823950D01*
X163810750Y-115093950D02*
X162032750Y-113315950D01*
%TO.N,N$12*%
X164605750Y-116363950D02*
X162540750Y-116363950D01*
X161905750Y-116998950D02*
X161905750Y-119623950D01*
X162540750Y-116363950D02*
X161905750Y-116998950D01*
%TO.N,N$13*%
X160635750Y-116998950D02*
X160000750Y-116363950D01*
X160000750Y-116363950D02*
X159205750Y-116363950D01*
X160635750Y-119623950D02*
X160635750Y-116998950D01*
%TD*%
%TA.AperFunction,Conductor*%
%TO.N,GND*%
G36*
X153177481Y-85064963D02*
G01*
X153214026Y-85115263D01*
X153218950Y-85146350D01*
X153218950Y-96781550D01*
X153199737Y-96840681D01*
X153149437Y-96877226D01*
X153118350Y-96882150D01*
X141483150Y-96882150D01*
X141424019Y-96862937D01*
X141387474Y-96812637D01*
X141382550Y-96781550D01*
X141382550Y-85146350D01*
X141401763Y-85087219D01*
X141452063Y-85050674D01*
X141483150Y-85045750D01*
X153118350Y-85045750D01*
X153177481Y-85064963D01*
G37*
%TD.AperFunction*%
%TD*%
M02*
