%TF.GenerationSoftware,KiCad,Pcbnew,7.0.7*%
%TF.CreationDate,2023-10-02T21:51:04-04:00*%
%TF.ProjectId,sensor_interface_1.1.0,73656e73-6f72-45f6-996e-746572666163,rev?*%
%TF.SameCoordinates,Original*%
%TF.FileFunction,Copper,L2,Bot*%
%TF.FilePolarity,Positive*%
%FSLAX46Y46*%
G04 Gerber Fmt 4.6, Leading zero omitted, Abs format (unit mm)*
G04 Created by KiCad (PCBNEW 7.0.7) date 2023-10-02 21:51:04*
%MOMM*%
%LPD*%
G01*
G04 APERTURE LIST*
%TA.AperFunction,ComponentPad*%
%ADD10R,1.651000X1.651000*%
%TD*%
%TA.AperFunction,ComponentPad*%
%ADD11C,1.651000*%
%TD*%
%TA.AperFunction,ComponentPad*%
%ADD12R,2.100000X2.100000*%
%TD*%
%TA.AperFunction,ComponentPad*%
%ADD13C,2.100000*%
%TD*%
%TA.AperFunction,ComponentPad*%
%ADD14O,1.371600X2.743200*%
%TD*%
%TA.AperFunction,ViaPad*%
%ADD15C,0.904800*%
%TD*%
%TA.AperFunction,ViaPad*%
%ADD16C,0.685800*%
%TD*%
%TA.AperFunction,Conductor*%
%ADD17C,0.254000*%
%TD*%
%TA.AperFunction,Conductor*%
%ADD18C,0.609600*%
%TD*%
%TA.AperFunction,Conductor*%
%ADD19C,0.406400*%
%TD*%
G04 APERTURE END LIST*
D10*
%TO.P,JP1,9*%
%TO.N,IO8*%
X155936750Y-80803950D03*
D11*
%TO.P,JP1,10*%
%TO.N,CS_A*%
X153396750Y-80803950D03*
%TO.P,JP1,11*%
%TO.N,CS_B*%
X150856750Y-80803950D03*
%TO.P,JP1,12*%
%TO.N,MOSI_B*%
X148316750Y-80803950D03*
%TO.P,JP1,13*%
%TO.N,MISO_B*%
X145776750Y-80803950D03*
%TO.P,JP1,14*%
%TO.N,SCK_B*%
X143236750Y-80803950D03*
%TO.P,JP1,15*%
%TO.N,GND*%
X140696750Y-80803950D03*
%TO.P,JP1,16*%
%TO.N,REF*%
X138156750Y-80803950D03*
%TO.P,JP1,17*%
%TO.N,N/C*%
X135616750Y-80803950D03*
%TO.P,JP1,18*%
X133076750Y-80803950D03*
%TD*%
D10*
%TO.P,JP3,33*%
%TO.N,MISO_A*%
X177780750Y-101123950D03*
D11*
%TO.P,JP3,34*%
%TO.N,SCK_A*%
X177780750Y-103663950D03*
%TO.P,JP3,35*%
%TO.N,N/C*%
X177780750Y-106203950D03*
%TO.P,JP3,36*%
%TO.N,GND*%
X180320750Y-106203950D03*
%TO.P,JP3,37*%
%TO.N,MOSI_A*%
X180320750Y-103663950D03*
%TO.P,JP3,38*%
%TO.N,N/C*%
X180320750Y-101123950D03*
%TD*%
D10*
%TO.P,JP4,27*%
%TO.N,ADC0*%
X165080750Y-129063950D03*
D11*
%TO.P,JP4,28*%
%TO.N,ADC1*%
X167620750Y-129063950D03*
%TO.P,JP4,29*%
%TO.N,ADC2*%
X170160750Y-129063950D03*
%TO.P,JP4,30*%
%TO.N,ADC3*%
X172700750Y-129063950D03*
%TO.P,JP4,31*%
%TO.N,ADC4*%
X175240750Y-129063950D03*
%TO.P,JP4,32*%
%TO.N,ADC5*%
X177780750Y-129063950D03*
%TD*%
D12*
%TO.P,CON2,P$1*%
%TO.N,CANH*%
X118725750Y-116363950D03*
D13*
%TO.P,CON2,P$2*%
%TO.N,CANL*%
X118725750Y-119863950D03*
%TD*%
D12*
%TO.P,CON3,P$1*%
%TO.N,SIGNAL_INPUT_A*%
X174605750Y-120808950D03*
D13*
%TO.P,CON3,P$2*%
%TO.N,GND*%
X174605750Y-117308950D03*
%TO.P,CON3,P$3*%
%TO.N,SIGNAL_INPUT_B*%
X174605750Y-113808950D03*
%TO.P,CON3,P$4*%
%TO.N,GND*%
X174605750Y-110308950D03*
%TD*%
D11*
%TO.P,JP5,19*%
%TO.N,ADC6*%
X142220750Y-129063950D03*
%TO.P,JP5,20*%
%TO.N,ADC7*%
X144760750Y-129063950D03*
%TO.P,JP5,21*%
%TO.N,RST*%
X147300750Y-129063950D03*
%TO.P,JP5,22*%
%TO.N,+3V3*%
X149840750Y-129063950D03*
%TO.P,JP5,23*%
%TO.N,+5V*%
X152380750Y-129063950D03*
%TO.P,JP5,24*%
%TO.N,GND*%
X154920750Y-129063950D03*
%TO.P,JP5,25*%
X157460750Y-129063950D03*
D10*
%TO.P,JP5,26*%
%TO.N,VIN*%
X160000750Y-129063950D03*
%TD*%
%TO.P,JP2,1*%
%TO.N,IO0*%
X177780750Y-80803950D03*
D11*
%TO.P,JP2,2*%
%TO.N,IO1*%
X175240750Y-80803950D03*
%TO.P,JP2,3*%
%TO.N,IO2*%
X172700750Y-80803950D03*
%TO.P,JP2,4*%
%TO.N,IO3*%
X170160750Y-80803950D03*
%TO.P,JP2,5*%
%TO.N,IO4*%
X167620750Y-80803950D03*
%TO.P,JP2,6*%
%TO.N,IO5*%
X165080750Y-80803950D03*
%TO.P,JP2,7*%
%TO.N,SPOOF_EN*%
X162540750Y-80803950D03*
%TO.P,JP2,8*%
%TO.N,INT*%
X160000750Y-80803950D03*
%TD*%
D12*
%TO.P,CON4,P$1*%
%TO.N,SIGNAL_OUTPUT_A*%
X174605750Y-96678950D03*
D13*
%TO.P,CON4,P$2*%
%TO.N,GND*%
X174605750Y-93178950D03*
%TO.P,CON4,P$3*%
%TO.N,SIGNAL_OUTPUT_B*%
X174605750Y-89678950D03*
%TO.P,CON4,P$4*%
%TO.N,GND*%
X174605750Y-86178950D03*
%TD*%
D12*
%TO.P,CON1,P$1*%
%TO.N,V+*%
X118725750Y-101758950D03*
D13*
%TO.P,CON1,P$2*%
%TO.N,GND*%
X118725750Y-105258950D03*
%TD*%
D14*
%TO.P,JP6,1*%
%TO.N,CANH*%
X117455750Y-110648950D03*
%TO.P,JP6,2*%
%TO.N,N$2*%
X119995750Y-110648950D03*
%TD*%
D15*
%TO.N,GND*%
X142220750Y-90328950D03*
X152380750Y-94773950D03*
X152380750Y-92233950D03*
D16*
X142855750Y-99218950D03*
X159238750Y-118395950D03*
D15*
X152380750Y-96043950D03*
X142220750Y-95408950D03*
X152380750Y-93503950D03*
X142220750Y-92868950D03*
D16*
X166096750Y-122459950D03*
X144125750Y-103663950D03*
X155936750Y-95027950D03*
X133965750Y-110648950D03*
D15*
X142220750Y-89058950D03*
D16*
X121900750Y-111918950D03*
X160762750Y-94265950D03*
X160635750Y-124618950D03*
D15*
X142220750Y-94138950D03*
X152380750Y-89693950D03*
X142220750Y-86518950D03*
D16*
X161905750Y-124618950D03*
X144760750Y-122078950D03*
D15*
X152380750Y-88423950D03*
X142220750Y-96678950D03*
X152380750Y-85883950D03*
D16*
X121900750Y-123348950D03*
X141712750Y-100488950D03*
X163302750Y-124237950D03*
D15*
X142220750Y-87788950D03*
D16*
X160762750Y-89693950D03*
X161016750Y-111791950D03*
X146665750Y-107473950D03*
D15*
X142220750Y-91598950D03*
X152380750Y-87153950D03*
X152380750Y-90963950D03*
D16*
X140188750Y-120173950D03*
%TO.N,RX_CAN*%
X132695750Y-107473950D03*
X132695750Y-113188950D03*
%TO.N,MISO_B*%
X151745750Y-116236950D03*
X140442750Y-84359950D03*
X139426750Y-97313950D03*
%TO.N,MOSI_A*%
X168255750Y-124618950D03*
X149205750Y-112680950D03*
X140950750Y-108743950D03*
X157587750Y-123983950D03*
%TO.N,MOSI_B*%
X151745750Y-117252950D03*
X138410750Y-97567950D03*
%TO.N,SCK_A*%
X142220750Y-108108950D03*
X157587750Y-122713950D03*
X168001750Y-123348950D03*
X150475750Y-112680950D03*
%TO.N,SCK_B*%
X151745750Y-118268950D03*
X137394750Y-97567950D03*
%TO.N,CS_B*%
X140696750Y-85629950D03*
X152507750Y-115474950D03*
X140442750Y-97313950D03*
%TO.N,CS_A*%
X147300750Y-99218950D03*
X147300750Y-101758950D03*
%TO.N,+5V*%
X153015750Y-107473950D03*
X135235750Y-109378950D03*
X135235750Y-107473950D03*
X153015750Y-110648950D03*
X159746750Y-112680950D03*
X170160750Y-111918950D03*
X167620750Y-115093950D03*
%TO.N,N$3*%
X163175750Y-96678950D03*
X160635750Y-96678950D03*
%TO.N,SPOOF_SIGNAL_B*%
X170160750Y-119919950D03*
X163810750Y-101758950D03*
X157460750Y-101758950D03*
X169144750Y-116617950D03*
X164572750Y-112045950D03*
X165842750Y-108235950D03*
%TO.N,SPOOF_SIGNAL_A*%
X163302750Y-112045950D03*
X163302750Y-108997950D03*
X168128750Y-116617950D03*
X168128750Y-118903950D03*
%TO.N,SIGNAL_OUTPUT_A*%
X170160750Y-110013950D03*
X166350750Y-110013950D03*
%TO.N,SIGNAL_INPUT_B*%
X168573250Y-112236450D03*
X161524750Y-114204950D03*
%TO.N,+3V3*%
X157714750Y-118141950D03*
X156190750Y-101631950D03*
%TO.N,INT*%
X151364750Y-103155950D03*
X142982750Y-113696950D03*
X150602750Y-113696950D03*
%TD*%
D17*
%TO.N,RX_CAN*%
X132695750Y-113188950D02*
X132695750Y-107473950D01*
%TO.N,MISO_B*%
X139426750Y-99345950D02*
X139426750Y-97313950D01*
X144506750Y-84359950D02*
X145776750Y-83089950D01*
X150094750Y-117125950D02*
X150983750Y-116236950D01*
X142220750Y-117125950D02*
X150094750Y-117125950D01*
X142220750Y-117125950D02*
X137394750Y-112299950D01*
X137394750Y-112299950D02*
X137394750Y-101377950D01*
X145776750Y-83089950D02*
X145776750Y-80803950D01*
X151745750Y-116236950D02*
X150983750Y-116236950D01*
X137394750Y-101377950D02*
X139426750Y-99345950D01*
X140442750Y-84359950D02*
X144506750Y-84359950D01*
%TO.N,MOSI_A*%
X141712750Y-108743950D02*
X142728750Y-109759950D01*
X163810750Y-123348950D02*
X158222750Y-123348950D01*
X165080750Y-124618950D02*
X163810750Y-123348950D01*
X158222750Y-123348950D02*
X157587750Y-123983950D01*
X142728750Y-109759950D02*
X146538750Y-109759950D01*
X168255750Y-124618950D02*
X165080750Y-124618950D01*
X146538750Y-109759950D02*
X149205750Y-112426950D01*
X149205750Y-112680950D02*
X149205750Y-112426950D01*
X141712750Y-108743950D02*
X140950750Y-108743950D01*
%TO.N,MOSI_B*%
X138410750Y-99599950D02*
X138410750Y-97567950D01*
X136886750Y-101123950D02*
X138410750Y-99599950D01*
X150856750Y-117633950D02*
X151237750Y-117252950D01*
X151745750Y-117252950D02*
X151237750Y-117252950D01*
X136886750Y-112553950D02*
X136886750Y-101123950D01*
X141966750Y-117633950D02*
X150856750Y-117633950D01*
X141966750Y-117633950D02*
X136886750Y-112553950D01*
%TO.N,SCK_A*%
X163810750Y-122713950D02*
X157587750Y-122713950D01*
X146919750Y-109124950D02*
X143236750Y-109124950D01*
X146919750Y-109124950D02*
X150475750Y-112680950D01*
X143236750Y-109124950D02*
X142220750Y-108108950D01*
X164445750Y-123348950D02*
X163810750Y-122713950D01*
X168001750Y-123348950D02*
X164445750Y-123348950D01*
%TO.N,SCK_B*%
X136378750Y-112807950D02*
X136378750Y-100869950D01*
X141839750Y-118268950D02*
X136378750Y-112807950D01*
X151745750Y-118268950D02*
X141839750Y-118268950D01*
X136378750Y-100869950D02*
X137394750Y-99853950D01*
X137394750Y-99853950D02*
X137394750Y-97567950D01*
%TO.N,CS_B*%
X149840750Y-116617950D02*
X142474750Y-116617950D01*
X149840750Y-83343950D02*
X150856750Y-82327950D01*
X152507750Y-115474950D02*
X150983750Y-115474950D01*
X140696750Y-85629950D02*
X141458750Y-84867950D01*
X141458750Y-84867950D02*
X144760750Y-84867950D01*
X140442750Y-99091950D02*
X140442750Y-97313950D01*
X144760750Y-84867950D02*
X146284750Y-83343950D01*
X137902750Y-112045950D02*
X137902750Y-101631950D01*
X142474750Y-116617950D02*
X137902750Y-112045950D01*
X146284750Y-83343950D02*
X149840750Y-83343950D01*
X150983750Y-115474950D02*
X149840750Y-116617950D01*
X150856750Y-82327950D02*
X150856750Y-80803950D01*
X137902750Y-101631950D02*
X140442750Y-99091950D01*
%TO.N,CS_A*%
X147300750Y-101758950D02*
X147300750Y-99218950D01*
D18*
%TO.N,+5V*%
X135362750Y-109505950D02*
X135235750Y-109378950D01*
X152380750Y-129063950D02*
X152380750Y-122713950D01*
X141458750Y-119157950D02*
X135362750Y-113061950D01*
X135362750Y-113061950D02*
X135362750Y-109505950D01*
D17*
X167620750Y-115093950D02*
X160635750Y-115093950D01*
X170160750Y-112553950D02*
X167620750Y-115093950D01*
X160635750Y-115093950D02*
X160000750Y-114458950D01*
X160000750Y-112934950D02*
X159746750Y-112680950D01*
D19*
X153015750Y-107473950D02*
X153015750Y-110648950D01*
D18*
X152380750Y-122713950D02*
X148824750Y-119157950D01*
X148824750Y-119157950D02*
X141458750Y-119157950D01*
D17*
X170160750Y-111918950D02*
X170160750Y-112553950D01*
X160000750Y-114458950D02*
X160000750Y-112934950D01*
D18*
X135235750Y-109378950D02*
X135235750Y-107473950D01*
D17*
%TO.N,N$3*%
X163175750Y-96678950D02*
X160635750Y-96678950D01*
%TO.N,SPOOF_SIGNAL_B*%
X164572750Y-109505950D02*
X165842750Y-108235950D01*
X169144750Y-118903950D02*
X169144750Y-116617950D01*
X170160750Y-119919950D02*
X169144750Y-118903950D01*
X164572750Y-112045950D02*
X164572750Y-109505950D01*
D19*
X157460750Y-101758950D02*
X163810750Y-101758950D01*
D17*
%TO.N,SPOOF_SIGNAL_A*%
X163302750Y-112045950D02*
X163302750Y-108997950D01*
X168128750Y-118903950D02*
X168128750Y-116617950D01*
D19*
%TO.N,SIGNAL_OUTPUT_A*%
X170160750Y-110013950D02*
X166350750Y-110013950D01*
D17*
%TO.N,SIGNAL_INPUT_B*%
X166604750Y-114204950D02*
X168573250Y-112236450D01*
X161524750Y-114204950D02*
X166604750Y-114204950D01*
%TO.N,+3V3*%
X156190750Y-101631950D02*
X156190750Y-107727950D01*
X157714750Y-118141950D02*
X157714750Y-109251950D01*
X157714750Y-109251950D02*
X156190750Y-107727950D01*
%TO.N,INT*%
X151364750Y-103155950D02*
X151364750Y-112934950D01*
X151364750Y-112934950D02*
X150602750Y-113696950D01*
X142982750Y-113696950D02*
X150602750Y-113696950D01*
%TD*%
%TA.AperFunction,Conductor*%
%TO.N,GND*%
G36*
X177781690Y-78289507D02*
G01*
X177804520Y-78290888D01*
X178081961Y-78307675D01*
X178085680Y-78308126D01*
X178380646Y-78362185D01*
X178384305Y-78363087D01*
X178560855Y-78418104D01*
X178670590Y-78452301D01*
X178674121Y-78453640D01*
X178947564Y-78576710D01*
X178950902Y-78578461D01*
X179075759Y-78653941D01*
X179207516Y-78733592D01*
X179210625Y-78735738D01*
X179446670Y-78920669D01*
X179449488Y-78923165D01*
X179661533Y-79135210D01*
X179664030Y-79138029D01*
X179848961Y-79374074D01*
X179851107Y-79377183D01*
X180006234Y-79633790D01*
X180007989Y-79637135D01*
X180131059Y-79910578D01*
X180132398Y-79914109D01*
X180221611Y-80200391D01*
X180222515Y-80204059D01*
X180276570Y-80499001D01*
X180277025Y-80502750D01*
X180295193Y-80803007D01*
X180295250Y-80804895D01*
X180295250Y-91200447D01*
X180293149Y-91211012D01*
X180293149Y-91217949D01*
X180293149Y-91217950D01*
X180295250Y-91223022D01*
X180301233Y-91237466D01*
X180301233Y-91237467D01*
X180306144Y-91242379D01*
X180315096Y-91248359D01*
X182816944Y-93750206D01*
X182835250Y-93794400D01*
X182835250Y-126487498D01*
X182816944Y-126531692D01*
X180315092Y-129033543D01*
X180306140Y-129039525D01*
X180301232Y-129044433D01*
X180296783Y-129055172D01*
X180296778Y-129055188D01*
X180293149Y-129063950D01*
X180293149Y-129070894D01*
X180295250Y-129081454D01*
X180295250Y-130325671D01*
X180295249Y-130332725D01*
X180295153Y-130335171D01*
X180280320Y-130523737D01*
X180278785Y-130533425D01*
X180235499Y-130713743D01*
X180232469Y-130723070D01*
X180161504Y-130894405D01*
X180157051Y-130903145D01*
X180060157Y-131061265D01*
X180054393Y-131069199D01*
X179933954Y-131210218D01*
X179927018Y-131217154D01*
X179785999Y-131337593D01*
X179778065Y-131343357D01*
X179619945Y-131440251D01*
X179611205Y-131444704D01*
X179439870Y-131515669D01*
X179430543Y-131518699D01*
X179250225Y-131561985D01*
X179240538Y-131563519D01*
X179051970Y-131578354D01*
X179049518Y-131578450D01*
X115551982Y-131578450D01*
X115549530Y-131578354D01*
X115360961Y-131563520D01*
X115351274Y-131561985D01*
X115170956Y-131518699D01*
X115161629Y-131515669D01*
X114990294Y-131444704D01*
X114981554Y-131440251D01*
X114823434Y-131343357D01*
X114815500Y-131337593D01*
X114752367Y-131283674D01*
X114674475Y-131217148D01*
X114667551Y-131210224D01*
X114547106Y-131069199D01*
X114541342Y-131061265D01*
X114444448Y-130903145D01*
X114439995Y-130894405D01*
X114369030Y-130723070D01*
X114366000Y-130713743D01*
X114336116Y-130589254D01*
X114322712Y-130533417D01*
X114321180Y-130523744D01*
X114306346Y-130335168D01*
X114306250Y-130332717D01*
X114306250Y-129063950D01*
X141237616Y-129063950D01*
X141256506Y-129255748D01*
X141281609Y-129338502D01*
X141312225Y-129439428D01*
X141312455Y-129440184D01*
X141403300Y-129610144D01*
X141403304Y-129610150D01*
X141525569Y-129759131D01*
X141674550Y-129881396D01*
X141674552Y-129881397D01*
X141674555Y-129881399D01*
X141838764Y-129969170D01*
X141844521Y-129972247D01*
X142028950Y-130028193D01*
X142082609Y-130033478D01*
X142220749Y-130047084D01*
X142220749Y-130047083D01*
X142220750Y-130047084D01*
X142412550Y-130028193D01*
X142596979Y-129972247D01*
X142766950Y-129881396D01*
X142915931Y-129759131D01*
X143038196Y-129610150D01*
X143129047Y-129440179D01*
X143184993Y-129255750D01*
X143203884Y-129063950D01*
X143777616Y-129063950D01*
X143796506Y-129255748D01*
X143821609Y-129338502D01*
X143852225Y-129439428D01*
X143852455Y-129440184D01*
X143943300Y-129610144D01*
X143943304Y-129610150D01*
X144065569Y-129759131D01*
X144214550Y-129881396D01*
X144214552Y-129881397D01*
X144214555Y-129881399D01*
X144378764Y-129969170D01*
X144384521Y-129972247D01*
X144568950Y-130028193D01*
X144622609Y-130033478D01*
X144760749Y-130047084D01*
X144760749Y-130047083D01*
X144760750Y-130047084D01*
X144952550Y-130028193D01*
X145136979Y-129972247D01*
X145306950Y-129881396D01*
X145455931Y-129759131D01*
X145578196Y-129610150D01*
X145669047Y-129440179D01*
X145724993Y-129255750D01*
X145743884Y-129063950D01*
X146317616Y-129063950D01*
X146336506Y-129255748D01*
X146361609Y-129338502D01*
X146392225Y-129439428D01*
X146392455Y-129440184D01*
X146483300Y-129610144D01*
X146483304Y-129610150D01*
X146605569Y-129759131D01*
X146754550Y-129881396D01*
X146754552Y-129881397D01*
X146754555Y-129881399D01*
X146918764Y-129969170D01*
X146924521Y-129972247D01*
X147108950Y-130028193D01*
X147300750Y-130047084D01*
X147492550Y-130028193D01*
X147676979Y-129972247D01*
X147846950Y-129881396D01*
X147995931Y-129759131D01*
X148118196Y-129610150D01*
X148209047Y-129440179D01*
X148264993Y-129255750D01*
X148283884Y-129063950D01*
X148857616Y-129063950D01*
X148876506Y-129255748D01*
X148901609Y-129338502D01*
X148932225Y-129439428D01*
X148932455Y-129440184D01*
X149023300Y-129610144D01*
X149023304Y-129610150D01*
X149145569Y-129759131D01*
X149294550Y-129881396D01*
X149294552Y-129881397D01*
X149294555Y-129881399D01*
X149458764Y-129969170D01*
X149464521Y-129972247D01*
X149648950Y-130028193D01*
X149840750Y-130047084D01*
X150032550Y-130028193D01*
X150216979Y-129972247D01*
X150386950Y-129881396D01*
X150535931Y-129759131D01*
X150658196Y-129610150D01*
X150749047Y-129440179D01*
X150804993Y-129255750D01*
X150823884Y-129063950D01*
X150823019Y-129055172D01*
X150804993Y-128872151D01*
X150799949Y-128855523D01*
X150749047Y-128687721D01*
X150725826Y-128644277D01*
X150658199Y-128517755D01*
X150658195Y-128517749D01*
X150616380Y-128466797D01*
X150535931Y-128368769D01*
X150386950Y-128246504D01*
X150386944Y-128246500D01*
X150216984Y-128155655D01*
X150216981Y-128155654D01*
X150216979Y-128155653D01*
X150115302Y-128124809D01*
X150032548Y-128099706D01*
X149840750Y-128080816D01*
X149648951Y-128099706D01*
X149502370Y-128144171D01*
X149464521Y-128155653D01*
X149464520Y-128155653D01*
X149464515Y-128155655D01*
X149294555Y-128246500D01*
X149294549Y-128246504D01*
X149145569Y-128368769D01*
X149023304Y-128517749D01*
X149023300Y-128517755D01*
X148932455Y-128687715D01*
X148932453Y-128687720D01*
X148932453Y-128687721D01*
X148930992Y-128692538D01*
X148876506Y-128872151D01*
X148857616Y-129063949D01*
X148857616Y-129063950D01*
X148283884Y-129063950D01*
X148283019Y-129055172D01*
X148264993Y-128872151D01*
X148259949Y-128855523D01*
X148209047Y-128687721D01*
X148185826Y-128644277D01*
X148118199Y-128517755D01*
X148118195Y-128517749D01*
X148076380Y-128466797D01*
X147995931Y-128368769D01*
X147846950Y-128246504D01*
X147846944Y-128246500D01*
X147676984Y-128155655D01*
X147676981Y-128155654D01*
X147676979Y-128155653D01*
X147575302Y-128124809D01*
X147492548Y-128099706D01*
X147300750Y-128080816D01*
X147108951Y-128099706D01*
X146962370Y-128144171D01*
X146924521Y-128155653D01*
X146924520Y-128155653D01*
X146924515Y-128155655D01*
X146754555Y-128246500D01*
X146754549Y-128246504D01*
X146605569Y-128368769D01*
X146483304Y-128517749D01*
X146483300Y-128517755D01*
X146392455Y-128687715D01*
X146392453Y-128687720D01*
X146392453Y-128687721D01*
X146390992Y-128692538D01*
X146336506Y-128872151D01*
X146317616Y-129063949D01*
X146317616Y-129063950D01*
X145743884Y-129063950D01*
X145743019Y-129055172D01*
X145724993Y-128872151D01*
X145719949Y-128855523D01*
X145669047Y-128687721D01*
X145645826Y-128644277D01*
X145578199Y-128517755D01*
X145578195Y-128517749D01*
X145536380Y-128466797D01*
X145455931Y-128368769D01*
X145306950Y-128246504D01*
X145306944Y-128246500D01*
X145136984Y-128155655D01*
X145136981Y-128155654D01*
X145136979Y-128155653D01*
X145035302Y-128124809D01*
X144952548Y-128099706D01*
X144760750Y-128080816D01*
X144568951Y-128099706D01*
X144422370Y-128144171D01*
X144384521Y-128155653D01*
X144384520Y-128155653D01*
X144384515Y-128155655D01*
X144214555Y-128246500D01*
X144214549Y-128246504D01*
X144065569Y-128368769D01*
X143943304Y-128517749D01*
X143943300Y-128517755D01*
X143852455Y-128687715D01*
X143852453Y-128687720D01*
X143852453Y-128687721D01*
X143850992Y-128692538D01*
X143796506Y-128872151D01*
X143777616Y-129063949D01*
X143777616Y-129063950D01*
X143203884Y-129063950D01*
X143203019Y-129055172D01*
X143184993Y-128872151D01*
X143179949Y-128855523D01*
X143129047Y-128687721D01*
X143105826Y-128644277D01*
X143038199Y-128517755D01*
X143038195Y-128517749D01*
X142996380Y-128466797D01*
X142915931Y-128368769D01*
X142766950Y-128246504D01*
X142766944Y-128246500D01*
X142596984Y-128155655D01*
X142596981Y-128155654D01*
X142596979Y-128155653D01*
X142495302Y-128124809D01*
X142412548Y-128099706D01*
X142220750Y-128080816D01*
X142028951Y-128099706D01*
X141882370Y-128144171D01*
X141844521Y-128155653D01*
X141844520Y-128155653D01*
X141844515Y-128155655D01*
X141674555Y-128246500D01*
X141674549Y-128246504D01*
X141525569Y-128368769D01*
X141403304Y-128517749D01*
X141403300Y-128517755D01*
X141312455Y-128687715D01*
X141312453Y-128687720D01*
X141312453Y-128687721D01*
X141310992Y-128692538D01*
X141256506Y-128872151D01*
X141237616Y-129063949D01*
X141237616Y-129063950D01*
X114306250Y-129063950D01*
X114306250Y-119863953D01*
X117517697Y-119863953D01*
X117538264Y-120085921D01*
X117538266Y-120085932D01*
X117598748Y-120298501D01*
X117599274Y-120300349D01*
X117698643Y-120499908D01*
X117698644Y-120499909D01*
X117698646Y-120499913D01*
X117832979Y-120677800D01*
X117832984Y-120677805D01*
X117832988Y-120677810D01*
X117997734Y-120827996D01*
X117997733Y-120827996D01*
X118187270Y-120945353D01*
X118187271Y-120945354D01*
X118187274Y-120945355D01*
X118395151Y-121025886D01*
X118614285Y-121066850D01*
X118614288Y-121066850D01*
X118837212Y-121066850D01*
X118837215Y-121066850D01*
X119056349Y-121025886D01*
X119264226Y-120945355D01*
X119453765Y-120827997D01*
X119618512Y-120677810D01*
X119752857Y-120499908D01*
X119852226Y-120300349D01*
X119913234Y-120085929D01*
X119913235Y-120085921D01*
X119933803Y-119863953D01*
X119933803Y-119863946D01*
X119913235Y-119641978D01*
X119913233Y-119641967D01*
X119894174Y-119574982D01*
X119852226Y-119427551D01*
X119752857Y-119227992D01*
X119752854Y-119227988D01*
X119752853Y-119227986D01*
X119618520Y-119050099D01*
X119618515Y-119050094D01*
X119618512Y-119050090D01*
X119453765Y-118899903D01*
X119453766Y-118899903D01*
X119264229Y-118782546D01*
X119264228Y-118782545D01*
X119059281Y-118703150D01*
X119056349Y-118702014D01*
X119056348Y-118702013D01*
X119056346Y-118702013D01*
X118837217Y-118661050D01*
X118837215Y-118661050D01*
X118614285Y-118661050D01*
X118614282Y-118661050D01*
X118395153Y-118702013D01*
X118187271Y-118782545D01*
X118187270Y-118782546D01*
X117997733Y-118899903D01*
X117832986Y-119050092D01*
X117832979Y-119050099D01*
X117698646Y-119227986D01*
X117698643Y-119227992D01*
X117599274Y-119427550D01*
X117538266Y-119641967D01*
X117538264Y-119641978D01*
X117517697Y-119863946D01*
X117517697Y-119863953D01*
X114306250Y-119863953D01*
X114306250Y-117429004D01*
X117522850Y-117429004D01*
X117522851Y-117429008D01*
X117531721Y-117473606D01*
X117531722Y-117473608D01*
X117565516Y-117524184D01*
X117616092Y-117557978D01*
X117660693Y-117566850D01*
X119790806Y-117566849D01*
X119835408Y-117557978D01*
X119885984Y-117524184D01*
X119919778Y-117473608D01*
X119928650Y-117429007D01*
X119928649Y-115298894D01*
X119919778Y-115254292D01*
X119885984Y-115203716D01*
X119852189Y-115181134D01*
X119835407Y-115169921D01*
X119799678Y-115162814D01*
X119790807Y-115161050D01*
X119790806Y-115161050D01*
X117660695Y-115161050D01*
X117660691Y-115161051D01*
X117616093Y-115169921D01*
X117616092Y-115169922D01*
X117565516Y-115203716D01*
X117531721Y-115254292D01*
X117522850Y-115298893D01*
X117522850Y-117429004D01*
X114306250Y-117429004D01*
X114306250Y-113188949D01*
X132194852Y-113188949D01*
X132215141Y-113330067D01*
X132215142Y-113330070D01*
X132274367Y-113459754D01*
X132274370Y-113459759D01*
X132357616Y-113555829D01*
X132367732Y-113567503D01*
X132487669Y-113644583D01*
X132624462Y-113684749D01*
X132624464Y-113684750D01*
X132624465Y-113684750D01*
X132767036Y-113684750D01*
X132767036Y-113684749D01*
X132903831Y-113644583D01*
X133023768Y-113567503D01*
X133117132Y-113459756D01*
X133176358Y-113330069D01*
X133196648Y-113188950D01*
X133176358Y-113047831D01*
X133117132Y-112918144D01*
X133109223Y-112909017D01*
X133023769Y-112810398D01*
X133023768Y-112810397D01*
X133010906Y-112802131D01*
X133004356Y-112797921D01*
X132977077Y-112758626D01*
X132975649Y-112745344D01*
X132975649Y-109378949D01*
X134734852Y-109378949D01*
X134755141Y-109520067D01*
X134755142Y-109520070D01*
X134807810Y-109635397D01*
X134814368Y-109649756D01*
X134852503Y-109693766D01*
X134889784Y-109736789D01*
X134905050Y-109777718D01*
X134905050Y-113034485D01*
X134904853Y-113037986D01*
X134903503Y-113049966D01*
X134900203Y-113079257D01*
X134906877Y-113114530D01*
X134911438Y-113138636D01*
X134920443Y-113198383D01*
X134920662Y-113198836D01*
X134925760Y-113214326D01*
X134925855Y-113214826D01*
X134925855Y-113214827D01*
X134925856Y-113214828D01*
X134925856Y-113214830D01*
X134954089Y-113268249D01*
X134980307Y-113322690D01*
X134980310Y-113322696D01*
X134980653Y-113323065D01*
X134990086Y-113336360D01*
X134990322Y-113336806D01*
X134990328Y-113336815D01*
X135033057Y-113379544D01*
X135074152Y-113423833D01*
X135074155Y-113423836D01*
X135074589Y-113424086D01*
X135087532Y-113434018D01*
X141115680Y-119462165D01*
X141118016Y-119464778D01*
X141143918Y-119497258D01*
X141143921Y-119497260D01*
X141193855Y-119531304D01*
X141242462Y-119567178D01*
X141242463Y-119567179D01*
X141242464Y-119567179D01*
X141242465Y-119567180D01*
X141242934Y-119567344D01*
X141257506Y-119574700D01*
X141257919Y-119574982D01*
X141315649Y-119592788D01*
X141315650Y-119592789D01*
X141372697Y-119612751D01*
X141373194Y-119612769D01*
X141389287Y-119615503D01*
X141389763Y-119615650D01*
X141389765Y-119615650D01*
X141450175Y-119615650D01*
X141510575Y-119617910D01*
X141510579Y-119617909D01*
X141510581Y-119617909D01*
X141511059Y-119617781D01*
X141527239Y-119615650D01*
X148609276Y-119615650D01*
X148653470Y-119633956D01*
X151904744Y-122885230D01*
X151923050Y-122929424D01*
X151923050Y-128161737D01*
X151904744Y-128205931D01*
X151890013Y-128216856D01*
X151834559Y-128246497D01*
X151834549Y-128246504D01*
X151685569Y-128368769D01*
X151563304Y-128517749D01*
X151563300Y-128517755D01*
X151472455Y-128687715D01*
X151472453Y-128687720D01*
X151472453Y-128687721D01*
X151470992Y-128692538D01*
X151416506Y-128872151D01*
X151397616Y-129063949D01*
X151397616Y-129063950D01*
X151416506Y-129255748D01*
X151441609Y-129338502D01*
X151472225Y-129439428D01*
X151472455Y-129440184D01*
X151563300Y-129610144D01*
X151563304Y-129610150D01*
X151685569Y-129759131D01*
X151834550Y-129881396D01*
X151834552Y-129881397D01*
X151834555Y-129881399D01*
X151998764Y-129969170D01*
X152004521Y-129972247D01*
X152188950Y-130028193D01*
X152242609Y-130033478D01*
X152380749Y-130047084D01*
X152380749Y-130047083D01*
X152380750Y-130047084D01*
X152572550Y-130028193D01*
X152756979Y-129972247D01*
X152926950Y-129881396D01*
X153075931Y-129759131D01*
X153198196Y-129610150D01*
X153289047Y-129440179D01*
X153344993Y-129255750D01*
X153363884Y-129063954D01*
X153786411Y-129063954D01*
X153805723Y-129272376D01*
X153805725Y-129272388D01*
X153863010Y-129473721D01*
X153956316Y-129661102D01*
X154021852Y-129747885D01*
X154459627Y-129310110D01*
X154503821Y-129291804D01*
X154548015Y-129310110D01*
X154552685Y-129315335D01*
X154559283Y-129323608D01*
X154614998Y-129393472D01*
X154614999Y-129393473D01*
X154615001Y-129393475D01*
X154666352Y-129428485D01*
X154692555Y-129468505D01*
X154682785Y-129515332D01*
X154675339Y-129524319D01*
X154233668Y-129965991D01*
X154237153Y-129969168D01*
X154237158Y-129969172D01*
X154415133Y-130079369D01*
X154610326Y-130154986D01*
X154816081Y-130193449D01*
X154816089Y-130193450D01*
X155025411Y-130193450D01*
X155025418Y-130193449D01*
X155231173Y-130154986D01*
X155426366Y-130079369D01*
X155604343Y-129969170D01*
X155607830Y-129965991D01*
X155169655Y-129527816D01*
X155151349Y-129483622D01*
X155169655Y-129439428D01*
X155171339Y-129437806D01*
X155173971Y-129435362D01*
X155173974Y-129435362D01*
X155272200Y-129344222D01*
X155284102Y-129323606D01*
X155322049Y-129294486D01*
X155369476Y-129300728D01*
X155382422Y-129310662D01*
X155819646Y-129747886D01*
X155819646Y-129747885D01*
X155885185Y-129661100D01*
X155978489Y-129473721D01*
X156035774Y-129272388D01*
X156035776Y-129272376D01*
X156055089Y-129063954D01*
X156326411Y-129063954D01*
X156345723Y-129272376D01*
X156345725Y-129272388D01*
X156403010Y-129473721D01*
X156496316Y-129661102D01*
X156561852Y-129747885D01*
X156999627Y-129310110D01*
X157043821Y-129291804D01*
X157088015Y-129310110D01*
X157092685Y-129315335D01*
X157099283Y-129323608D01*
X157154998Y-129393472D01*
X157154999Y-129393473D01*
X157155001Y-129393475D01*
X157206352Y-129428485D01*
X157232555Y-129468505D01*
X157222785Y-129515332D01*
X157215339Y-129524319D01*
X156773668Y-129965991D01*
X156777153Y-129969168D01*
X156777158Y-129969172D01*
X156955133Y-130079369D01*
X157150326Y-130154986D01*
X157356081Y-130193449D01*
X157356089Y-130193450D01*
X157565411Y-130193450D01*
X157565418Y-130193449D01*
X157771173Y-130154986D01*
X157966366Y-130079369D01*
X158144343Y-129969170D01*
X158147830Y-129965991D01*
X158086343Y-129904504D01*
X159022350Y-129904504D01*
X159022351Y-129904508D01*
X159031221Y-129949106D01*
X159031222Y-129949108D01*
X159065016Y-129999684D01*
X159115592Y-130033478D01*
X159160193Y-130042350D01*
X160841306Y-130042349D01*
X160885908Y-130033478D01*
X160936484Y-129999684D01*
X160970278Y-129949108D01*
X160979150Y-129904507D01*
X160979150Y-129904504D01*
X164102350Y-129904504D01*
X164102351Y-129904508D01*
X164111221Y-129949106D01*
X164111222Y-129949108D01*
X164145016Y-129999684D01*
X164195592Y-130033478D01*
X164240193Y-130042350D01*
X165921306Y-130042349D01*
X165965908Y-130033478D01*
X166016484Y-129999684D01*
X166050278Y-129949108D01*
X166059150Y-129904507D01*
X166059149Y-129063950D01*
X166637616Y-129063950D01*
X166656506Y-129255748D01*
X166681609Y-129338502D01*
X166712225Y-129439428D01*
X166712455Y-129440184D01*
X166803300Y-129610144D01*
X166803304Y-129610150D01*
X166925569Y-129759131D01*
X167074550Y-129881396D01*
X167074552Y-129881397D01*
X167074555Y-129881399D01*
X167238764Y-129969170D01*
X167244521Y-129972247D01*
X167428950Y-130028193D01*
X167620750Y-130047084D01*
X167812550Y-130028193D01*
X167996979Y-129972247D01*
X168166950Y-129881396D01*
X168315931Y-129759131D01*
X168438196Y-129610150D01*
X168529047Y-129440179D01*
X168584993Y-129255750D01*
X168603884Y-129063950D01*
X169177616Y-129063950D01*
X169196506Y-129255748D01*
X169221609Y-129338502D01*
X169252225Y-129439428D01*
X169252455Y-129440184D01*
X169343300Y-129610144D01*
X169343304Y-129610150D01*
X169465569Y-129759131D01*
X169614550Y-129881396D01*
X169614552Y-129881397D01*
X169614555Y-129881399D01*
X169778764Y-129969170D01*
X169784521Y-129972247D01*
X169968950Y-130028193D01*
X170160750Y-130047084D01*
X170352550Y-130028193D01*
X170536979Y-129972247D01*
X170706950Y-129881396D01*
X170855931Y-129759131D01*
X170978196Y-129610150D01*
X171069047Y-129440179D01*
X171124993Y-129255750D01*
X171143884Y-129063950D01*
X171717616Y-129063950D01*
X171736506Y-129255748D01*
X171761609Y-129338502D01*
X171792225Y-129439428D01*
X171792455Y-129440184D01*
X171883300Y-129610144D01*
X171883304Y-129610150D01*
X172005569Y-129759131D01*
X172154550Y-129881396D01*
X172154552Y-129881397D01*
X172154555Y-129881399D01*
X172318764Y-129969170D01*
X172324521Y-129972247D01*
X172508950Y-130028193D01*
X172562609Y-130033478D01*
X172700749Y-130047084D01*
X172700749Y-130047083D01*
X172700750Y-130047084D01*
X172892550Y-130028193D01*
X173076979Y-129972247D01*
X173246950Y-129881396D01*
X173395931Y-129759131D01*
X173518196Y-129610150D01*
X173609047Y-129440179D01*
X173664993Y-129255750D01*
X173683884Y-129063950D01*
X174257616Y-129063950D01*
X174276506Y-129255748D01*
X174301609Y-129338502D01*
X174332225Y-129439428D01*
X174332455Y-129440184D01*
X174423300Y-129610144D01*
X174423304Y-129610150D01*
X174545569Y-129759131D01*
X174694550Y-129881396D01*
X174694552Y-129881397D01*
X174694555Y-129881399D01*
X174858764Y-129969170D01*
X174864521Y-129972247D01*
X175048950Y-130028193D01*
X175102609Y-130033478D01*
X175240749Y-130047084D01*
X175240749Y-130047083D01*
X175240750Y-130047084D01*
X175432550Y-130028193D01*
X175616979Y-129972247D01*
X175786950Y-129881396D01*
X175935931Y-129759131D01*
X176058196Y-129610150D01*
X176149047Y-129440179D01*
X176204993Y-129255750D01*
X176223884Y-129063950D01*
X176797616Y-129063950D01*
X176816506Y-129255748D01*
X176841609Y-129338502D01*
X176872225Y-129439428D01*
X176872455Y-129440184D01*
X176963300Y-129610144D01*
X176963304Y-129610150D01*
X177085569Y-129759131D01*
X177234550Y-129881396D01*
X177234552Y-129881397D01*
X177234555Y-129881399D01*
X177398764Y-129969170D01*
X177404521Y-129972247D01*
X177588950Y-130028193D01*
X177780750Y-130047084D01*
X177972550Y-130028193D01*
X178156979Y-129972247D01*
X178326950Y-129881396D01*
X178475931Y-129759131D01*
X178598196Y-129610150D01*
X178689047Y-129440179D01*
X178744993Y-129255750D01*
X178763884Y-129063950D01*
X178763019Y-129055172D01*
X178744993Y-128872151D01*
X178739949Y-128855523D01*
X178689047Y-128687721D01*
X178665826Y-128644277D01*
X178598199Y-128517755D01*
X178598195Y-128517749D01*
X178556380Y-128466797D01*
X178475931Y-128368769D01*
X178326950Y-128246504D01*
X178326944Y-128246500D01*
X178156984Y-128155655D01*
X178156981Y-128155654D01*
X178156979Y-128155653D01*
X178055302Y-128124809D01*
X177972548Y-128099706D01*
X177780750Y-128080816D01*
X177588951Y-128099706D01*
X177442370Y-128144171D01*
X177404521Y-128155653D01*
X177404520Y-128155653D01*
X177404515Y-128155655D01*
X177234555Y-128246500D01*
X177234549Y-128246504D01*
X177085569Y-128368769D01*
X176963304Y-128517749D01*
X176963300Y-128517755D01*
X176872455Y-128687715D01*
X176872453Y-128687720D01*
X176872453Y-128687721D01*
X176870992Y-128692538D01*
X176816506Y-128872151D01*
X176797616Y-129063949D01*
X176797616Y-129063950D01*
X176223884Y-129063950D01*
X176223019Y-129055172D01*
X176204993Y-128872151D01*
X176199949Y-128855523D01*
X176149047Y-128687721D01*
X176125826Y-128644277D01*
X176058199Y-128517755D01*
X176058195Y-128517749D01*
X176016380Y-128466797D01*
X175935931Y-128368769D01*
X175786950Y-128246504D01*
X175786944Y-128246500D01*
X175616984Y-128155655D01*
X175616981Y-128155654D01*
X175616979Y-128155653D01*
X175515302Y-128124809D01*
X175432548Y-128099706D01*
X175240750Y-128080816D01*
X175048951Y-128099706D01*
X174902370Y-128144171D01*
X174864521Y-128155653D01*
X174864520Y-128155653D01*
X174864515Y-128155655D01*
X174694555Y-128246500D01*
X174694549Y-128246504D01*
X174545569Y-128368769D01*
X174423304Y-128517749D01*
X174423300Y-128517755D01*
X174332455Y-128687715D01*
X174332453Y-128687720D01*
X174332453Y-128687721D01*
X174330992Y-128692538D01*
X174276506Y-128872151D01*
X174257616Y-129063949D01*
X174257616Y-129063950D01*
X173683884Y-129063950D01*
X173683019Y-129055172D01*
X173664993Y-128872151D01*
X173659949Y-128855523D01*
X173609047Y-128687721D01*
X173585826Y-128644277D01*
X173518199Y-128517755D01*
X173518195Y-128517749D01*
X173476380Y-128466797D01*
X173395931Y-128368769D01*
X173246950Y-128246504D01*
X173246944Y-128246500D01*
X173076984Y-128155655D01*
X173076981Y-128155654D01*
X173076979Y-128155653D01*
X172975302Y-128124809D01*
X172892548Y-128099706D01*
X172700750Y-128080816D01*
X172508951Y-128099706D01*
X172362370Y-128144171D01*
X172324521Y-128155653D01*
X172324520Y-128155653D01*
X172324515Y-128155655D01*
X172154555Y-128246500D01*
X172154549Y-128246504D01*
X172005569Y-128368769D01*
X171883304Y-128517749D01*
X171883300Y-128517755D01*
X171792455Y-128687715D01*
X171792453Y-128687720D01*
X171792453Y-128687721D01*
X171790992Y-128692538D01*
X171736506Y-128872151D01*
X171717616Y-129063949D01*
X171717616Y-129063950D01*
X171143884Y-129063950D01*
X171143019Y-129055172D01*
X171124993Y-128872151D01*
X171119949Y-128855523D01*
X171069047Y-128687721D01*
X171045826Y-128644277D01*
X170978199Y-128517755D01*
X170978195Y-128517749D01*
X170936380Y-128466797D01*
X170855931Y-128368769D01*
X170706950Y-128246504D01*
X170706944Y-128246500D01*
X170536984Y-128155655D01*
X170536981Y-128155654D01*
X170536979Y-128155653D01*
X170435302Y-128124809D01*
X170352548Y-128099706D01*
X170160750Y-128080816D01*
X169968951Y-128099706D01*
X169822370Y-128144171D01*
X169784521Y-128155653D01*
X169784520Y-128155653D01*
X169784515Y-128155655D01*
X169614555Y-128246500D01*
X169614549Y-128246504D01*
X169465569Y-128368769D01*
X169343304Y-128517749D01*
X169343300Y-128517755D01*
X169252455Y-128687715D01*
X169252453Y-128687720D01*
X169252453Y-128687721D01*
X169250992Y-128692538D01*
X169196506Y-128872151D01*
X169177616Y-129063949D01*
X169177616Y-129063950D01*
X168603884Y-129063950D01*
X168603019Y-129055172D01*
X168584993Y-128872151D01*
X168579949Y-128855523D01*
X168529047Y-128687721D01*
X168505826Y-128644277D01*
X168438199Y-128517755D01*
X168438195Y-128517749D01*
X168396380Y-128466797D01*
X168315931Y-128368769D01*
X168166950Y-128246504D01*
X168166944Y-128246500D01*
X167996984Y-128155655D01*
X167996981Y-128155654D01*
X167996979Y-128155653D01*
X167895302Y-128124809D01*
X167812548Y-128099706D01*
X167620750Y-128080816D01*
X167428951Y-128099706D01*
X167282370Y-128144171D01*
X167244521Y-128155653D01*
X167244520Y-128155653D01*
X167244515Y-128155655D01*
X167074555Y-128246500D01*
X167074549Y-128246504D01*
X166925569Y-128368769D01*
X166803304Y-128517749D01*
X166803300Y-128517755D01*
X166712455Y-128687715D01*
X166712453Y-128687720D01*
X166712453Y-128687721D01*
X166710992Y-128692538D01*
X166656506Y-128872151D01*
X166637616Y-129063949D01*
X166637616Y-129063950D01*
X166059149Y-129063950D01*
X166059149Y-128223394D01*
X166050278Y-128178792D01*
X166016484Y-128128216D01*
X165965908Y-128094422D01*
X165965907Y-128094421D01*
X165930177Y-128087314D01*
X165921307Y-128085550D01*
X165921306Y-128085550D01*
X164240195Y-128085550D01*
X164240191Y-128085551D01*
X164195593Y-128094421D01*
X164195592Y-128094422D01*
X164145016Y-128128216D01*
X164111221Y-128178792D01*
X164102350Y-128223393D01*
X164102350Y-129904504D01*
X160979150Y-129904504D01*
X160979149Y-128223394D01*
X160970278Y-128178792D01*
X160936484Y-128128216D01*
X160885908Y-128094422D01*
X160885907Y-128094421D01*
X160850177Y-128087314D01*
X160841307Y-128085550D01*
X160841306Y-128085550D01*
X159160195Y-128085550D01*
X159160191Y-128085551D01*
X159115593Y-128094421D01*
X159115592Y-128094422D01*
X159065016Y-128128216D01*
X159031221Y-128178792D01*
X159022350Y-128223393D01*
X159022350Y-129904504D01*
X158086343Y-129904504D01*
X157709655Y-129527816D01*
X157691349Y-129483622D01*
X157709655Y-129439428D01*
X157711339Y-129437806D01*
X157713971Y-129435362D01*
X157713974Y-129435362D01*
X157812200Y-129344222D01*
X157824102Y-129323606D01*
X157862049Y-129294486D01*
X157909476Y-129300728D01*
X157922422Y-129310662D01*
X158359646Y-129747886D01*
X158359646Y-129747885D01*
X158425185Y-129661100D01*
X158518489Y-129473721D01*
X158575774Y-129272388D01*
X158575776Y-129272376D01*
X158595089Y-129063954D01*
X158595089Y-129063945D01*
X158575776Y-128855523D01*
X158575774Y-128855511D01*
X158518489Y-128654178D01*
X158425183Y-128466797D01*
X158359646Y-128380013D01*
X158359646Y-128380012D01*
X157921871Y-128817788D01*
X157877677Y-128836094D01*
X157833483Y-128817788D01*
X157828813Y-128812562D01*
X157766504Y-128734430D01*
X157766502Y-128734429D01*
X157766502Y-128734428D01*
X157743996Y-128719083D01*
X157715145Y-128699413D01*
X157688943Y-128659392D01*
X157698713Y-128612565D01*
X157706159Y-128603579D01*
X158147829Y-128161908D01*
X158144345Y-128158731D01*
X158144340Y-128158727D01*
X157966366Y-128048530D01*
X157771173Y-127972913D01*
X157565418Y-127934450D01*
X157356081Y-127934450D01*
X157150326Y-127972913D01*
X156955130Y-128048531D01*
X156955128Y-128048532D01*
X156777162Y-128158725D01*
X156777154Y-128158731D01*
X156773669Y-128161907D01*
X157211844Y-128600083D01*
X157230150Y-128644277D01*
X157211844Y-128688471D01*
X157210161Y-128690093D01*
X157109297Y-128783680D01*
X157097397Y-128804293D01*
X157059447Y-128833413D01*
X157012021Y-128827169D01*
X156999077Y-128817237D01*
X156561852Y-128380013D01*
X156496316Y-128466797D01*
X156403010Y-128654178D01*
X156345725Y-128855511D01*
X156345723Y-128855523D01*
X156326411Y-129063945D01*
X156326411Y-129063954D01*
X156055089Y-129063954D01*
X156055089Y-129063945D01*
X156035776Y-128855523D01*
X156035774Y-128855511D01*
X155978489Y-128654178D01*
X155885183Y-128466797D01*
X155819646Y-128380013D01*
X155819646Y-128380012D01*
X155381871Y-128817788D01*
X155337677Y-128836094D01*
X155293483Y-128817788D01*
X155288813Y-128812562D01*
X155226504Y-128734430D01*
X155226502Y-128734429D01*
X155226502Y-128734428D01*
X155203996Y-128719083D01*
X155175145Y-128699413D01*
X155148943Y-128659392D01*
X155158713Y-128612565D01*
X155166159Y-128603579D01*
X155607829Y-128161908D01*
X155604345Y-128158731D01*
X155604340Y-128158727D01*
X155426366Y-128048530D01*
X155231173Y-127972913D01*
X155025418Y-127934450D01*
X154816081Y-127934450D01*
X154610326Y-127972913D01*
X154415130Y-128048531D01*
X154415128Y-128048532D01*
X154237162Y-128158725D01*
X154237154Y-128158731D01*
X154233669Y-128161907D01*
X154671844Y-128600083D01*
X154690150Y-128644277D01*
X154671844Y-128688471D01*
X154670161Y-128690093D01*
X154569297Y-128783680D01*
X154557397Y-128804293D01*
X154519447Y-128833413D01*
X154472021Y-128827169D01*
X154459077Y-128817237D01*
X154021852Y-128380013D01*
X153956316Y-128466797D01*
X153863010Y-128654178D01*
X153805725Y-128855511D01*
X153805723Y-128855523D01*
X153786411Y-129063945D01*
X153786411Y-129063954D01*
X153363884Y-129063954D01*
X153363884Y-129063950D01*
X153363019Y-129055172D01*
X153344993Y-128872151D01*
X153339949Y-128855523D01*
X153289047Y-128687721D01*
X153265826Y-128644277D01*
X153198199Y-128517755D01*
X153198195Y-128517749D01*
X153156380Y-128466797D01*
X153075931Y-128368769D01*
X152926950Y-128246504D01*
X152926947Y-128246502D01*
X152871486Y-128216857D01*
X152841140Y-128179879D01*
X152838450Y-128161743D01*
X152838450Y-123983950D01*
X157086852Y-123983950D01*
X157107141Y-124125067D01*
X157107142Y-124125070D01*
X157166367Y-124254754D01*
X157166370Y-124254759D01*
X157259730Y-124362501D01*
X157259732Y-124362503D01*
X157379669Y-124439583D01*
X157509933Y-124477832D01*
X157516462Y-124479749D01*
X157516464Y-124479750D01*
X157516465Y-124479750D01*
X157659036Y-124479750D01*
X157659036Y-124479749D01*
X157795831Y-124439583D01*
X157915768Y-124362503D01*
X158009132Y-124254756D01*
X158068358Y-124125069D01*
X158088648Y-123983950D01*
X158079893Y-123923061D01*
X158091723Y-123876712D01*
X158097555Y-123869981D01*
X158320381Y-123647156D01*
X158364576Y-123628850D01*
X163668924Y-123628850D01*
X163713118Y-123647156D01*
X164843337Y-124777376D01*
X164849683Y-124786193D01*
X164850030Y-124785932D01*
X164853517Y-124790551D01*
X164871532Y-124806973D01*
X164886885Y-124820969D01*
X164887886Y-124821925D01*
X164901169Y-124835208D01*
X164904753Y-124837663D01*
X164908141Y-124840347D01*
X164930849Y-124861048D01*
X164942599Y-124865599D01*
X164955340Y-124872316D01*
X164965734Y-124879436D01*
X164995634Y-124886468D01*
X164999774Y-124887750D01*
X165012456Y-124892662D01*
X165028428Y-124898850D01*
X165041032Y-124898850D01*
X165055339Y-124900509D01*
X165067599Y-124903393D01*
X165091787Y-124900019D01*
X165098021Y-124899150D01*
X165102343Y-124898850D01*
X167813706Y-124898850D01*
X167857900Y-124917156D01*
X167860933Y-124920413D01*
X167927732Y-124997503D01*
X168013443Y-125052587D01*
X168030697Y-125063676D01*
X168047669Y-125074583D01*
X168184462Y-125114749D01*
X168184464Y-125114750D01*
X168184465Y-125114750D01*
X168327036Y-125114750D01*
X168327036Y-125114749D01*
X168463831Y-125074583D01*
X168583768Y-124997503D01*
X168677132Y-124889756D01*
X168736358Y-124760069D01*
X168756648Y-124618950D01*
X168736358Y-124477831D01*
X168677132Y-124348144D01*
X168669114Y-124338891D01*
X168583769Y-124240398D01*
X168583768Y-124240397D01*
X168500547Y-124186913D01*
X168463832Y-124163317D01*
X168463826Y-124163315D01*
X168327037Y-124123150D01*
X168327035Y-124123150D01*
X168184465Y-124123150D01*
X168184463Y-124123150D01*
X168047673Y-124163315D01*
X168047667Y-124163317D01*
X167927730Y-124240398D01*
X167860940Y-124317479D01*
X167818165Y-124338891D01*
X167813706Y-124339050D01*
X165222576Y-124339050D01*
X165178382Y-124320744D01*
X164909356Y-124051718D01*
X178466337Y-124051718D01*
X178488678Y-124254759D01*
X178495967Y-124321004D01*
X178564489Y-124583103D01*
X178670442Y-124832432D01*
X178771183Y-124997501D01*
X178811570Y-125063678D01*
X178984859Y-125271907D01*
X178984873Y-125271921D01*
X179186615Y-125452682D01*
X179186620Y-125452686D01*
X179186625Y-125452690D01*
X179305835Y-125531558D01*
X179412565Y-125602170D01*
X179544770Y-125664145D01*
X179657854Y-125717157D01*
X179917276Y-125795205D01*
X180185296Y-125834650D01*
X180185297Y-125834650D01*
X180388388Y-125834650D01*
X180590926Y-125819826D01*
X180590928Y-125819825D01*
X180590935Y-125819825D01*
X180855361Y-125760922D01*
X181108393Y-125664145D01*
X181344638Y-125531558D01*
X181559060Y-125365987D01*
X181747090Y-125170959D01*
X181904720Y-124950633D01*
X182028590Y-124709703D01*
X182116061Y-124453306D01*
X182165268Y-124186905D01*
X182175162Y-123916178D01*
X182145533Y-123646896D01*
X182077011Y-123384797D01*
X181971058Y-123135468D01*
X181829931Y-122904224D01*
X181829358Y-122903536D01*
X181656640Y-122695992D01*
X181656626Y-122695978D01*
X181454884Y-122515217D01*
X181454877Y-122515212D01*
X181454875Y-122515210D01*
X181443448Y-122507650D01*
X181228934Y-122365729D01*
X180983649Y-122250744D01*
X180983644Y-122250742D01*
X180724233Y-122172697D01*
X180724219Y-122172694D01*
X180456210Y-122133250D01*
X180456204Y-122133250D01*
X180253118Y-122133250D01*
X180253112Y-122133250D01*
X180050573Y-122148073D01*
X179786136Y-122206978D01*
X179533105Y-122303755D01*
X179296859Y-122436343D01*
X179082441Y-122601912D01*
X179082432Y-122601919D01*
X178894412Y-122796937D01*
X178894405Y-122796946D01*
X178736778Y-123017268D01*
X178612909Y-123258198D01*
X178612906Y-123258204D01*
X178525442Y-123514581D01*
X178525437Y-123514602D01*
X178476233Y-123780986D01*
X178476231Y-123781007D01*
X178466337Y-124051718D01*
X164909356Y-124051718D01*
X164593182Y-123735544D01*
X164574876Y-123691350D01*
X164593182Y-123647156D01*
X164637376Y-123628850D01*
X167559706Y-123628850D01*
X167603900Y-123647156D01*
X167606940Y-123650421D01*
X167661290Y-123713145D01*
X167673732Y-123727503D01*
X167793669Y-123804583D01*
X167923933Y-123842832D01*
X167930462Y-123844749D01*
X167930464Y-123844750D01*
X167930465Y-123844750D01*
X168073036Y-123844750D01*
X168073036Y-123844749D01*
X168209831Y-123804583D01*
X168329768Y-123727503D01*
X168423132Y-123619756D01*
X168482358Y-123490069D01*
X168502648Y-123348950D01*
X168482358Y-123207831D01*
X168423132Y-123078144D01*
X168416287Y-123070245D01*
X168329769Y-122970398D01*
X168329768Y-122970397D01*
X168266014Y-122929424D01*
X168209832Y-122893317D01*
X168209826Y-122893315D01*
X168073037Y-122853150D01*
X168073035Y-122853150D01*
X167930465Y-122853150D01*
X167930463Y-122853150D01*
X167793673Y-122893315D01*
X167793667Y-122893317D01*
X167673730Y-122970398D01*
X167606940Y-123047479D01*
X167564165Y-123068891D01*
X167559706Y-123069050D01*
X164587577Y-123069050D01*
X164543383Y-123050744D01*
X164048164Y-122555526D01*
X164041823Y-122546712D01*
X164041476Y-122546975D01*
X164037984Y-122542351D01*
X164004623Y-122511938D01*
X164003578Y-122510940D01*
X163990329Y-122497691D01*
X163986750Y-122495239D01*
X163983356Y-122492550D01*
X163970151Y-122480513D01*
X163960651Y-122471852D01*
X163960649Y-122471851D01*
X163960647Y-122471849D01*
X163948901Y-122467299D01*
X163936158Y-122460582D01*
X163925769Y-122453466D01*
X163925765Y-122453463D01*
X163895860Y-122446430D01*
X163891722Y-122445148D01*
X163863073Y-122434050D01*
X163863072Y-122434050D01*
X163850472Y-122434050D01*
X163836164Y-122432390D01*
X163823901Y-122429506D01*
X163823900Y-122429506D01*
X163793474Y-122433750D01*
X163789151Y-122434050D01*
X158029794Y-122434050D01*
X157985600Y-122415744D01*
X157982560Y-122412479D01*
X157968588Y-122396355D01*
X157915768Y-122335397D01*
X157866533Y-122303755D01*
X157795832Y-122258317D01*
X157795826Y-122258315D01*
X157659037Y-122218150D01*
X157659035Y-122218150D01*
X157516465Y-122218150D01*
X157516463Y-122218150D01*
X157379673Y-122258315D01*
X157379667Y-122258317D01*
X157259730Y-122335398D01*
X157166370Y-122443140D01*
X157166367Y-122443145D01*
X157107142Y-122572829D01*
X157107141Y-122572832D01*
X157086852Y-122713950D01*
X157107141Y-122855067D01*
X157107142Y-122855070D01*
X157166367Y-122984754D01*
X157166370Y-122984759D01*
X157248709Y-123079782D01*
X157259732Y-123092503D01*
X157379669Y-123169583D01*
X157509933Y-123207832D01*
X157516462Y-123209749D01*
X157516464Y-123209750D01*
X157516465Y-123209750D01*
X157659036Y-123209750D01*
X157659036Y-123209749D01*
X157795831Y-123169583D01*
X157895711Y-123105392D01*
X157942784Y-123096899D01*
X157982078Y-123124180D01*
X157990572Y-123171255D01*
X157973694Y-123202165D01*
X157706016Y-123469844D01*
X157661822Y-123488150D01*
X157516463Y-123488150D01*
X157379673Y-123528315D01*
X157379667Y-123528317D01*
X157259730Y-123605398D01*
X157166370Y-123713140D01*
X157166367Y-123713145D01*
X157107142Y-123842829D01*
X157107141Y-123842832D01*
X157086852Y-123983950D01*
X152838450Y-123983950D01*
X152838450Y-122741413D01*
X152838647Y-122737913D01*
X152839726Y-122728329D01*
X152843297Y-122696643D01*
X152832061Y-122637263D01*
X152823056Y-122577517D01*
X152822839Y-122577067D01*
X152817735Y-122561552D01*
X152817645Y-122561074D01*
X152789410Y-122507650D01*
X152763191Y-122453206D01*
X152763188Y-122453203D01*
X152763188Y-122453202D01*
X152762846Y-122452834D01*
X152753408Y-122439530D01*
X152753176Y-122439091D01*
X152753175Y-122439090D01*
X152753174Y-122439088D01*
X152710441Y-122396355D01*
X152669345Y-122352064D01*
X152668904Y-122351809D01*
X152655966Y-122341880D01*
X152188090Y-121874004D01*
X173402850Y-121874004D01*
X173402851Y-121874008D01*
X173411721Y-121918606D01*
X173411722Y-121918608D01*
X173445516Y-121969184D01*
X173496092Y-122002978D01*
X173540693Y-122011850D01*
X175670806Y-122011849D01*
X175715408Y-122002978D01*
X175765984Y-121969184D01*
X175799778Y-121918608D01*
X175808650Y-121874007D01*
X175808649Y-119743894D01*
X175799778Y-119699292D01*
X175765984Y-119648716D01*
X175719880Y-119617910D01*
X175715407Y-119614921D01*
X175679678Y-119607814D01*
X175670807Y-119606050D01*
X175670806Y-119606050D01*
X173540695Y-119606050D01*
X173540691Y-119606051D01*
X173496093Y-119614921D01*
X173496092Y-119614922D01*
X173445516Y-119648716D01*
X173411721Y-119699292D01*
X173402850Y-119743893D01*
X173402850Y-121874004D01*
X152188090Y-121874004D01*
X149218035Y-118903950D01*
X167627852Y-118903950D01*
X167648141Y-119045067D01*
X167648142Y-119045070D01*
X167707367Y-119174754D01*
X167707370Y-119174759D01*
X167800730Y-119282501D01*
X167800732Y-119282503D01*
X167920669Y-119359583D01*
X168057462Y-119399749D01*
X168057464Y-119399750D01*
X168057465Y-119399750D01*
X168200036Y-119399750D01*
X168200036Y-119399749D01*
X168336831Y-119359583D01*
X168456768Y-119282503D01*
X168550132Y-119174756D01*
X168609358Y-119045069D01*
X168629648Y-118903950D01*
X168609358Y-118762831D01*
X168550132Y-118633144D01*
X168456768Y-118525397D01*
X168456767Y-118525396D01*
X168437358Y-118512922D01*
X168410078Y-118473628D01*
X168408650Y-118460345D01*
X168408650Y-117061553D01*
X168426956Y-117017359D01*
X168437353Y-117008980D01*
X168456768Y-116996503D01*
X168550132Y-116888756D01*
X168579898Y-116823576D01*
X168614908Y-116790981D01*
X168662713Y-116792688D01*
X168693602Y-116823577D01*
X168723367Y-116888754D01*
X168723370Y-116888759D01*
X168805709Y-116983782D01*
X168816732Y-116996503D01*
X168836140Y-117008976D01*
X168863421Y-117048266D01*
X168864850Y-117061553D01*
X168864850Y-118848095D01*
X168863101Y-118858814D01*
X168863532Y-118858875D01*
X168862731Y-118864612D01*
X168864032Y-118892735D01*
X168864817Y-118909720D01*
X168864850Y-118911136D01*
X168864850Y-118929885D01*
X168865593Y-118933864D01*
X168865647Y-118934151D01*
X168866145Y-118938450D01*
X168867564Y-118969141D01*
X168872655Y-118980672D01*
X168876914Y-118994428D01*
X168879229Y-119006812D01*
X168895402Y-119032931D01*
X168897423Y-119036764D01*
X168909834Y-119064872D01*
X168918742Y-119073780D01*
X168927686Y-119085071D01*
X168934318Y-119095782D01*
X168958835Y-119114297D01*
X168962103Y-119117141D01*
X169650935Y-119805973D01*
X169669241Y-119850167D01*
X169668605Y-119859060D01*
X169659852Y-119919948D01*
X169680141Y-120061067D01*
X169680142Y-120061070D01*
X169739367Y-120190754D01*
X169739370Y-120190759D01*
X169832730Y-120298501D01*
X169832732Y-120298503D01*
X169952669Y-120375583D01*
X170089462Y-120415749D01*
X170089464Y-120415750D01*
X170089465Y-120415750D01*
X170232036Y-120415750D01*
X170232036Y-120415749D01*
X170368831Y-120375583D01*
X170488768Y-120298503D01*
X170582132Y-120190756D01*
X170641358Y-120061069D01*
X170661648Y-119919950D01*
X170641358Y-119778831D01*
X170582132Y-119649144D01*
X170581761Y-119648716D01*
X170488769Y-119541398D01*
X170488768Y-119541397D01*
X170420091Y-119497260D01*
X170368832Y-119464317D01*
X170368826Y-119464315D01*
X170232037Y-119424150D01*
X170232035Y-119424150D01*
X170089465Y-119424150D01*
X170086676Y-119424150D01*
X170042482Y-119405844D01*
X169442956Y-118806317D01*
X169424650Y-118762123D01*
X169424650Y-117308950D01*
X173247110Y-117308950D01*
X173265640Y-117532574D01*
X173320725Y-117750098D01*
X173320726Y-117750102D01*
X173410863Y-117955593D01*
X173410865Y-117955596D01*
X173533591Y-118143442D01*
X173533600Y-118143454D01*
X173544472Y-118155264D01*
X173544474Y-118155264D01*
X173961943Y-117737795D01*
X174006137Y-117719489D01*
X174050331Y-117737795D01*
X174052909Y-117740534D01*
X174138155Y-117836756D01*
X174167989Y-117857349D01*
X174193961Y-117897519D01*
X174183922Y-117944289D01*
X174176679Y-117952979D01*
X173761794Y-118367863D01*
X173761795Y-118367864D01*
X173862642Y-118446357D01*
X173862649Y-118446361D01*
X174059984Y-118553152D01*
X174059991Y-118553155D01*
X174272223Y-118626015D01*
X174493552Y-118662949D01*
X174493560Y-118662950D01*
X174717940Y-118662950D01*
X174717947Y-118662949D01*
X174939276Y-118626015D01*
X175151508Y-118553155D01*
X175151515Y-118553152D01*
X175348854Y-118446359D01*
X175449703Y-118367863D01*
X175449704Y-118367863D01*
X175034819Y-117952979D01*
X175016513Y-117908785D01*
X175034819Y-117864591D01*
X175043499Y-117857356D01*
X175073345Y-117836756D01*
X175158581Y-117740544D01*
X175201588Y-117719604D01*
X175246807Y-117735208D01*
X175249556Y-117737796D01*
X175667024Y-118155265D01*
X175667025Y-118155264D01*
X175677906Y-118143445D01*
X175677912Y-118143438D01*
X175800634Y-117955597D01*
X175800636Y-117955593D01*
X175890773Y-117750102D01*
X175890774Y-117750098D01*
X175945859Y-117532574D01*
X175964389Y-117308950D01*
X175945859Y-117085325D01*
X175890774Y-116867801D01*
X175890773Y-116867797D01*
X175800636Y-116662306D01*
X175800634Y-116662303D01*
X175677909Y-116474458D01*
X175667024Y-116462634D01*
X175249555Y-116880103D01*
X175205361Y-116898409D01*
X175161167Y-116880103D01*
X175158592Y-116877367D01*
X175073345Y-116781144D01*
X175073342Y-116781141D01*
X175043509Y-116760549D01*
X175017537Y-116720379D01*
X175027577Y-116673609D01*
X175034819Y-116664919D01*
X175449704Y-116250035D01*
X175449703Y-116250034D01*
X175348857Y-116171542D01*
X175348850Y-116171538D01*
X175151515Y-116064747D01*
X175151508Y-116064744D01*
X174939276Y-115991884D01*
X174717947Y-115954950D01*
X174493552Y-115954950D01*
X174272223Y-115991884D01*
X174059991Y-116064744D01*
X174059984Y-116064747D01*
X173862649Y-116171538D01*
X173761794Y-116250035D01*
X174176679Y-116664919D01*
X174194985Y-116709113D01*
X174176679Y-116753307D01*
X174167991Y-116760548D01*
X174138156Y-116781142D01*
X174138153Y-116781145D01*
X174052919Y-116877354D01*
X174009910Y-116898295D01*
X173964692Y-116882691D01*
X173961943Y-116880103D01*
X173544474Y-116462634D01*
X173544473Y-116462634D01*
X173533593Y-116474454D01*
X173410865Y-116662303D01*
X173410863Y-116662306D01*
X173320726Y-116867797D01*
X173320725Y-116867801D01*
X173265640Y-117085325D01*
X173247110Y-117308950D01*
X169424650Y-117308950D01*
X169424650Y-117061553D01*
X169442956Y-117017359D01*
X169453353Y-117008980D01*
X169472768Y-116996503D01*
X169566132Y-116888756D01*
X169625358Y-116759069D01*
X169645648Y-116617950D01*
X169625358Y-116476831D01*
X169566132Y-116347144D01*
X169472768Y-116239397D01*
X169429911Y-116211854D01*
X169352832Y-116162317D01*
X169352826Y-116162315D01*
X169216037Y-116122150D01*
X169216035Y-116122150D01*
X169073465Y-116122150D01*
X169073463Y-116122150D01*
X168936673Y-116162315D01*
X168936667Y-116162317D01*
X168816730Y-116239398D01*
X168723370Y-116347140D01*
X168723367Y-116347145D01*
X168693602Y-116412322D01*
X168658592Y-116444918D01*
X168610787Y-116443211D01*
X168579898Y-116412322D01*
X168550132Y-116347145D01*
X168550132Y-116347144D01*
X168456768Y-116239397D01*
X168413911Y-116211854D01*
X168336832Y-116162317D01*
X168336826Y-116162315D01*
X168200037Y-116122150D01*
X168200035Y-116122150D01*
X168057465Y-116122150D01*
X168057463Y-116122150D01*
X167920673Y-116162315D01*
X167920667Y-116162317D01*
X167800730Y-116239398D01*
X167707370Y-116347140D01*
X167707367Y-116347145D01*
X167648142Y-116476829D01*
X167648141Y-116476832D01*
X167627852Y-116617950D01*
X167648141Y-116759067D01*
X167648142Y-116759070D01*
X167707367Y-116888754D01*
X167707370Y-116888759D01*
X167789709Y-116983782D01*
X167800732Y-116996503D01*
X167820140Y-117008976D01*
X167847421Y-117048266D01*
X167848850Y-117061553D01*
X167848850Y-118460345D01*
X167830544Y-118504539D01*
X167820142Y-118512922D01*
X167800732Y-118525396D01*
X167800731Y-118525397D01*
X167707370Y-118633140D01*
X167707367Y-118633145D01*
X167648142Y-118762829D01*
X167648141Y-118762832D01*
X167627852Y-118903950D01*
X149218035Y-118903950D01*
X149167818Y-118853733D01*
X149165481Y-118851118D01*
X149139584Y-118818644D01*
X149139578Y-118818639D01*
X149089644Y-118784595D01*
X149041034Y-118748719D01*
X149040550Y-118748550D01*
X149026003Y-118741206D01*
X149025581Y-118740918D01*
X148967835Y-118723106D01*
X148910803Y-118703150D01*
X148910800Y-118703149D01*
X148910799Y-118703149D01*
X148910290Y-118703130D01*
X148894227Y-118700401D01*
X148893739Y-118700250D01*
X148893737Y-118700250D01*
X148833313Y-118700250D01*
X148772925Y-118697990D01*
X148772919Y-118697990D01*
X148772441Y-118698119D01*
X148756261Y-118700250D01*
X141674224Y-118700250D01*
X141630030Y-118681944D01*
X135838756Y-112890670D01*
X135820450Y-112846476D01*
X135820450Y-109533414D01*
X135820647Y-109529913D01*
X135822710Y-109511602D01*
X135825297Y-109488643D01*
X135814061Y-109429263D01*
X135805056Y-109369517D01*
X135804839Y-109369067D01*
X135799735Y-109353552D01*
X135799645Y-109353074D01*
X135771410Y-109299650D01*
X135745191Y-109245206D01*
X135745188Y-109245203D01*
X135745188Y-109245202D01*
X135744846Y-109244834D01*
X135735408Y-109231530D01*
X135735176Y-109231091D01*
X135735172Y-109231086D01*
X135711756Y-109207670D01*
X135693450Y-109163476D01*
X135693450Y-107678826D01*
X135699098Y-107652862D01*
X135716358Y-107615069D01*
X135736648Y-107473950D01*
X135716358Y-107332831D01*
X135657132Y-107203144D01*
X135576605Y-107110212D01*
X135563769Y-107095398D01*
X135563768Y-107095397D01*
X135520911Y-107067854D01*
X135443832Y-107018317D01*
X135443826Y-107018315D01*
X135307037Y-106978150D01*
X135307035Y-106978150D01*
X135164465Y-106978150D01*
X135164463Y-106978150D01*
X135027673Y-107018315D01*
X135027667Y-107018317D01*
X134907730Y-107095398D01*
X134814370Y-107203140D01*
X134814367Y-107203145D01*
X134755142Y-107332829D01*
X134755141Y-107332832D01*
X134734852Y-107473950D01*
X134755141Y-107615067D01*
X134772402Y-107652862D01*
X134778050Y-107678826D01*
X134778050Y-109174073D01*
X134772402Y-109200036D01*
X134755142Y-109237829D01*
X134755141Y-109237832D01*
X134734852Y-109378949D01*
X132975649Y-109378949D01*
X132975649Y-107917554D01*
X132993955Y-107873360D01*
X133004355Y-107864978D01*
X133023768Y-107852503D01*
X133117132Y-107744756D01*
X133176358Y-107615069D01*
X133196648Y-107473950D01*
X133176358Y-107332831D01*
X133117132Y-107203144D01*
X133036605Y-107110212D01*
X133023769Y-107095398D01*
X133023768Y-107095397D01*
X132980912Y-107067854D01*
X132903832Y-107018317D01*
X132903826Y-107018315D01*
X132767037Y-106978150D01*
X132767035Y-106978150D01*
X132624465Y-106978150D01*
X132624463Y-106978150D01*
X132487673Y-107018315D01*
X132487667Y-107018317D01*
X132367730Y-107095398D01*
X132274370Y-107203140D01*
X132274367Y-107203145D01*
X132215142Y-107332829D01*
X132215141Y-107332832D01*
X132194852Y-107473950D01*
X132215141Y-107615067D01*
X132215142Y-107615070D01*
X132274367Y-107744754D01*
X132274370Y-107744759D01*
X132359848Y-107843405D01*
X132367732Y-107852503D01*
X132387140Y-107864976D01*
X132414421Y-107904266D01*
X132415850Y-107917553D01*
X132415850Y-112745345D01*
X132397544Y-112789539D01*
X132387142Y-112797922D01*
X132367732Y-112810396D01*
X132367731Y-112810397D01*
X132274370Y-112918140D01*
X132274367Y-112918145D01*
X132215142Y-113047829D01*
X132215141Y-113047832D01*
X132194852Y-113188949D01*
X114306250Y-113188949D01*
X114306250Y-111380218D01*
X116617050Y-111380218D01*
X116631829Y-111516109D01*
X116631830Y-111516114D01*
X116690078Y-111688985D01*
X116784128Y-111845300D01*
X116784130Y-111845302D01*
X116909586Y-111977744D01*
X116909589Y-111977746D01*
X116909590Y-111977747D01*
X117060577Y-112080120D01*
X117060581Y-112080122D01*
X117230043Y-112147641D01*
X117230051Y-112147644D01*
X117410076Y-112177158D01*
X117592237Y-112167281D01*
X117768015Y-112118477D01*
X117929193Y-112033026D01*
X118068232Y-111914924D01*
X118178633Y-111769694D01*
X118255233Y-111604127D01*
X118294450Y-111425964D01*
X118294450Y-111380218D01*
X119157050Y-111380218D01*
X119171829Y-111516109D01*
X119171830Y-111516114D01*
X119230078Y-111688985D01*
X119324128Y-111845300D01*
X119324130Y-111845302D01*
X119449586Y-111977744D01*
X119449589Y-111977746D01*
X119449590Y-111977747D01*
X119600577Y-112080120D01*
X119600581Y-112080122D01*
X119770043Y-112147641D01*
X119770051Y-112147644D01*
X119950076Y-112177158D01*
X120132237Y-112167281D01*
X120308015Y-112118477D01*
X120469193Y-112033026D01*
X120608232Y-111914924D01*
X120718633Y-111769694D01*
X120795233Y-111604127D01*
X120834450Y-111425964D01*
X120834450Y-109917682D01*
X120819671Y-109781791D01*
X120761421Y-109608913D01*
X120691558Y-109492799D01*
X120667371Y-109452599D01*
X120639481Y-109423156D01*
X120541914Y-109320156D01*
X120541910Y-109320153D01*
X120541909Y-109320152D01*
X120390922Y-109217779D01*
X120390918Y-109217777D01*
X120221456Y-109150258D01*
X120221452Y-109150257D01*
X120221449Y-109150256D01*
X120041424Y-109120742D01*
X120041423Y-109120742D01*
X120041417Y-109120741D01*
X119859269Y-109130618D01*
X119859264Y-109130618D01*
X119859263Y-109130619D01*
X119828836Y-109139067D01*
X119683483Y-109179423D01*
X119683479Y-109179425D01*
X119522306Y-109264874D01*
X119383270Y-109382974D01*
X119383268Y-109382976D01*
X119348082Y-109429263D01*
X119272864Y-109528209D01*
X119196269Y-109693766D01*
X119196267Y-109693771D01*
X119181568Y-109760549D01*
X119157961Y-109867801D01*
X119157050Y-109871938D01*
X119157050Y-111380218D01*
X118294450Y-111380218D01*
X118294450Y-109917682D01*
X118279671Y-109781791D01*
X118221421Y-109608913D01*
X118151558Y-109492799D01*
X118127371Y-109452599D01*
X118099481Y-109423156D01*
X118001914Y-109320156D01*
X118001910Y-109320153D01*
X118001909Y-109320152D01*
X117850922Y-109217779D01*
X117850918Y-109217777D01*
X117681456Y-109150258D01*
X117681452Y-109150257D01*
X117681449Y-109150256D01*
X117501424Y-109120742D01*
X117501423Y-109120742D01*
X117501417Y-109120741D01*
X117319269Y-109130618D01*
X117319264Y-109130618D01*
X117319263Y-109130619D01*
X117288836Y-109139067D01*
X117143483Y-109179423D01*
X117143479Y-109179425D01*
X116982306Y-109264874D01*
X116843270Y-109382974D01*
X116843268Y-109382976D01*
X116808082Y-109429263D01*
X116732864Y-109528209D01*
X116656269Y-109693766D01*
X116656267Y-109693771D01*
X116641568Y-109760549D01*
X116617961Y-109867801D01*
X116617050Y-109871938D01*
X116617050Y-111380218D01*
X114306250Y-111380218D01*
X114306250Y-105258949D01*
X117367110Y-105258949D01*
X117385640Y-105482574D01*
X117440725Y-105700098D01*
X117440726Y-105700102D01*
X117530863Y-105905593D01*
X117530865Y-105905596D01*
X117653591Y-106093442D01*
X117653600Y-106093454D01*
X117664472Y-106105264D01*
X117664474Y-106105264D01*
X118081943Y-105687795D01*
X118126137Y-105669489D01*
X118170331Y-105687795D01*
X118172909Y-105690534D01*
X118227864Y-105752565D01*
X118247208Y-105774400D01*
X118258155Y-105786756D01*
X118287989Y-105807349D01*
X118313961Y-105847519D01*
X118303922Y-105894289D01*
X118296679Y-105902979D01*
X117881794Y-106317863D01*
X117881795Y-106317864D01*
X117982642Y-106396357D01*
X117982649Y-106396361D01*
X118179984Y-106503152D01*
X118179991Y-106503155D01*
X118392223Y-106576015D01*
X118613552Y-106612949D01*
X118613560Y-106612950D01*
X118837940Y-106612950D01*
X118837947Y-106612949D01*
X119059276Y-106576015D01*
X119271508Y-106503155D01*
X119271515Y-106503152D01*
X119468854Y-106396359D01*
X119569703Y-106317863D01*
X119569704Y-106317863D01*
X119154819Y-105902979D01*
X119136513Y-105858785D01*
X119154819Y-105814591D01*
X119163499Y-105807356D01*
X119193345Y-105786756D01*
X119278581Y-105690544D01*
X119321588Y-105669604D01*
X119366807Y-105685208D01*
X119369556Y-105687796D01*
X119787024Y-106105265D01*
X119787025Y-106105264D01*
X119797906Y-106093445D01*
X119797912Y-106093438D01*
X119920634Y-105905597D01*
X119920636Y-105905593D01*
X120010773Y-105700102D01*
X120010774Y-105700098D01*
X120065859Y-105482574D01*
X120084389Y-105258949D01*
X120065859Y-105035325D01*
X120010774Y-104817801D01*
X120010773Y-104817797D01*
X119920636Y-104612306D01*
X119920634Y-104612303D01*
X119797909Y-104424458D01*
X119787024Y-104412634D01*
X119369555Y-104830103D01*
X119325361Y-104848409D01*
X119281167Y-104830103D01*
X119278592Y-104827367D01*
X119193345Y-104731144D01*
X119193342Y-104731141D01*
X119163509Y-104710549D01*
X119137537Y-104670379D01*
X119147577Y-104623609D01*
X119154819Y-104614919D01*
X119569704Y-104200035D01*
X119569703Y-104200034D01*
X119468857Y-104121542D01*
X119468850Y-104121538D01*
X119271515Y-104014747D01*
X119271508Y-104014744D01*
X119059276Y-103941884D01*
X118837947Y-103904950D01*
X118613552Y-103904950D01*
X118392223Y-103941884D01*
X118179991Y-104014744D01*
X118179984Y-104014747D01*
X117982649Y-104121538D01*
X117881794Y-104200035D01*
X118296679Y-104614919D01*
X118314985Y-104659113D01*
X118296679Y-104703307D01*
X118287991Y-104710548D01*
X118258156Y-104731142D01*
X118258153Y-104731145D01*
X118172919Y-104827354D01*
X118129910Y-104848295D01*
X118084692Y-104832691D01*
X118081943Y-104830103D01*
X117664474Y-104412634D01*
X117664473Y-104412634D01*
X117653593Y-104424454D01*
X117530865Y-104612303D01*
X117530863Y-104612306D01*
X117440726Y-104817797D01*
X117440725Y-104817801D01*
X117385640Y-105035325D01*
X117367110Y-105258949D01*
X114306250Y-105258949D01*
X114306250Y-102824004D01*
X117522850Y-102824004D01*
X117522851Y-102824008D01*
X117531721Y-102868606D01*
X117531722Y-102868608D01*
X117565516Y-102919184D01*
X117616092Y-102952978D01*
X117660693Y-102961850D01*
X119790806Y-102961849D01*
X119835408Y-102952978D01*
X119885984Y-102919184D01*
X119919778Y-102868608D01*
X119928650Y-102824007D01*
X119928649Y-100856798D01*
X136094306Y-100856798D01*
X136098550Y-100887225D01*
X136098850Y-100891548D01*
X136098850Y-112752095D01*
X136097101Y-112762814D01*
X136097532Y-112762875D01*
X136096731Y-112768612D01*
X136097784Y-112791364D01*
X136098817Y-112813720D01*
X136098850Y-112815136D01*
X136098850Y-112833885D01*
X136099593Y-112837864D01*
X136099647Y-112838151D01*
X136100145Y-112842450D01*
X136101564Y-112873141D01*
X136106655Y-112884672D01*
X136110914Y-112898428D01*
X136113229Y-112910812D01*
X136129402Y-112936931D01*
X136131423Y-112940764D01*
X136143834Y-112968872D01*
X136152742Y-112977780D01*
X136161686Y-112989071D01*
X136168318Y-112999782D01*
X136192835Y-113018297D01*
X136196103Y-113021141D01*
X141602337Y-118427376D01*
X141608683Y-118436193D01*
X141609030Y-118435932D01*
X141612517Y-118440551D01*
X141618891Y-118446361D01*
X141645885Y-118470969D01*
X141646886Y-118471925D01*
X141660169Y-118485208D01*
X141663753Y-118487663D01*
X141667141Y-118490347D01*
X141689849Y-118511048D01*
X141701599Y-118515599D01*
X141714340Y-118522316D01*
X141724734Y-118529436D01*
X141754634Y-118536468D01*
X141758774Y-118537750D01*
X141771456Y-118542662D01*
X141787428Y-118548850D01*
X141800032Y-118548850D01*
X141814339Y-118550509D01*
X141826599Y-118553393D01*
X141850787Y-118550019D01*
X141857021Y-118549150D01*
X141861343Y-118548850D01*
X151303706Y-118548850D01*
X151347900Y-118567156D01*
X151350940Y-118570421D01*
X151405290Y-118633145D01*
X151417732Y-118647503D01*
X151496290Y-118697990D01*
X151535370Y-118723106D01*
X151537669Y-118724583D01*
X151667933Y-118762832D01*
X151674462Y-118764749D01*
X151674464Y-118764750D01*
X151674465Y-118764750D01*
X151817036Y-118764750D01*
X151817036Y-118764749D01*
X151953831Y-118724583D01*
X152073768Y-118647503D01*
X152167132Y-118539756D01*
X152226358Y-118410069D01*
X152246648Y-118268950D01*
X152226358Y-118127831D01*
X152167132Y-117998144D01*
X152163195Y-117993601D01*
X152073769Y-117890398D01*
X152073768Y-117890397D01*
X151954158Y-117813527D01*
X151926878Y-117774235D01*
X151935372Y-117727159D01*
X151954159Y-117708372D01*
X151969761Y-117698345D01*
X152073768Y-117631503D01*
X152167132Y-117523756D01*
X152226358Y-117394069D01*
X152246648Y-117252950D01*
X152226358Y-117111831D01*
X152167132Y-116982144D01*
X152166015Y-116980855D01*
X152073769Y-116874398D01*
X152073768Y-116874397D01*
X151954158Y-116797527D01*
X151926878Y-116758235D01*
X151935372Y-116711159D01*
X151954159Y-116692372D01*
X151966285Y-116684579D01*
X152073768Y-116615503D01*
X152167132Y-116507756D01*
X152226358Y-116378069D01*
X152246648Y-116236950D01*
X152226358Y-116095831D01*
X152177509Y-115988868D01*
X152175803Y-115941065D01*
X152208398Y-115906054D01*
X152256203Y-115904347D01*
X152268148Y-115910325D01*
X152299669Y-115930583D01*
X152426357Y-115967782D01*
X152436462Y-115970749D01*
X152436464Y-115970750D01*
X152436465Y-115970750D01*
X152579036Y-115970750D01*
X152579036Y-115970749D01*
X152715831Y-115930583D01*
X152835768Y-115853503D01*
X152929132Y-115745756D01*
X152988358Y-115616069D01*
X153008648Y-115474950D01*
X152988358Y-115333831D01*
X152929132Y-115204144D01*
X152928761Y-115203716D01*
X152835769Y-115096398D01*
X152835768Y-115096397D01*
X152792911Y-115068854D01*
X152715832Y-115019317D01*
X152715826Y-115019315D01*
X152579037Y-114979150D01*
X152579035Y-114979150D01*
X152436465Y-114979150D01*
X152436463Y-114979150D01*
X152299673Y-115019315D01*
X152299667Y-115019317D01*
X152179730Y-115096398D01*
X152132560Y-115150835D01*
X152123710Y-115161050D01*
X152112940Y-115173479D01*
X152070165Y-115194891D01*
X152065706Y-115195050D01*
X151039601Y-115195050D01*
X151028882Y-115193302D01*
X151028822Y-115193733D01*
X151023087Y-115192932D01*
X150994422Y-115194258D01*
X150977992Y-115195017D01*
X150976577Y-115195050D01*
X150957808Y-115195050D01*
X150953544Y-115195848D01*
X150949243Y-115196346D01*
X150918559Y-115197764D01*
X150918552Y-115197766D01*
X150907025Y-115202855D01*
X150893272Y-115207114D01*
X150880890Y-115209429D01*
X150880885Y-115209431D01*
X150854760Y-115225606D01*
X150850929Y-115227625D01*
X150822828Y-115240034D01*
X150813913Y-115248948D01*
X150802627Y-115257887D01*
X150791916Y-115264519D01*
X150773402Y-115289034D01*
X150770559Y-115292302D01*
X149743118Y-116319744D01*
X149698924Y-116338050D01*
X142616576Y-116338050D01*
X142572382Y-116319744D01*
X138200956Y-111948318D01*
X138182650Y-111904124D01*
X138182650Y-108743950D01*
X140449852Y-108743950D01*
X140470141Y-108885067D01*
X140470142Y-108885070D01*
X140529367Y-109014754D01*
X140529370Y-109014759D01*
X140622730Y-109122501D01*
X140622732Y-109122503D01*
X140694456Y-109168598D01*
X140722711Y-109186757D01*
X140742669Y-109199583D01*
X140872933Y-109237832D01*
X140879462Y-109239749D01*
X140879464Y-109239750D01*
X140879465Y-109239750D01*
X141022036Y-109239750D01*
X141022036Y-109239749D01*
X141158831Y-109199583D01*
X141278768Y-109122503D01*
X141345560Y-109045420D01*
X141388335Y-109024009D01*
X141392794Y-109023850D01*
X141570924Y-109023850D01*
X141615118Y-109042156D01*
X142491336Y-109918374D01*
X142497683Y-109927193D01*
X142498030Y-109926932D01*
X142501518Y-109931551D01*
X142534876Y-109961961D01*
X142535899Y-109962937D01*
X142549168Y-109976206D01*
X142549174Y-109976211D01*
X142552742Y-109978655D01*
X142556141Y-109981347D01*
X142566128Y-109990451D01*
X142578849Y-110002048D01*
X142590593Y-110006597D01*
X142603341Y-110013316D01*
X142613732Y-110020435D01*
X142613734Y-110020436D01*
X142643650Y-110027471D01*
X142647763Y-110028744D01*
X142676428Y-110039850D01*
X142689028Y-110039850D01*
X142703335Y-110041509D01*
X142715599Y-110044394D01*
X142740182Y-110040964D01*
X142746026Y-110040150D01*
X142750349Y-110039850D01*
X146396924Y-110039850D01*
X146441118Y-110058156D01*
X148756422Y-112373460D01*
X148774728Y-112417654D01*
X148769080Y-112443617D01*
X148725142Y-112539829D01*
X148725141Y-112539832D01*
X148709731Y-112647013D01*
X148704852Y-112680950D01*
X148708145Y-112703851D01*
X148725141Y-112822067D01*
X148725142Y-112822070D01*
X148784367Y-112951754D01*
X148784370Y-112951759D01*
X148857575Y-113036241D01*
X148877732Y-113059503D01*
X148963354Y-113114530D01*
X148985611Y-113128834D01*
X148997669Y-113136583D01*
X149134462Y-113176749D01*
X149134464Y-113176750D01*
X149134465Y-113176750D01*
X149277036Y-113176750D01*
X149277036Y-113176749D01*
X149413831Y-113136583D01*
X149533768Y-113059503D01*
X149627132Y-112951756D01*
X149686358Y-112822069D01*
X149706648Y-112680950D01*
X149686358Y-112539831D01*
X149627132Y-112410144D01*
X149623075Y-112405462D01*
X149591940Y-112369530D01*
X149576833Y-112324143D01*
X149598245Y-112281367D01*
X149643632Y-112266260D01*
X149683368Y-112284407D01*
X149965935Y-112566974D01*
X149984241Y-112611168D01*
X149983605Y-112620061D01*
X149976575Y-112668966D01*
X149974852Y-112680950D01*
X149978145Y-112703851D01*
X149995141Y-112822067D01*
X149995142Y-112822070D01*
X150054367Y-112951754D01*
X150054370Y-112951759D01*
X150127575Y-113036241D01*
X150147732Y-113059503D01*
X150233354Y-113114530D01*
X150255611Y-113128834D01*
X150267669Y-113136583D01*
X150274661Y-113138636D01*
X150335389Y-113156468D01*
X150372636Y-113186483D01*
X150377749Y-113234044D01*
X150351572Y-113269014D01*
X150274730Y-113318398D01*
X150227808Y-113372550D01*
X150221748Y-113379544D01*
X150207940Y-113395479D01*
X150165165Y-113416891D01*
X150160706Y-113417050D01*
X143424794Y-113417050D01*
X143380600Y-113398744D01*
X143377560Y-113395479D01*
X143363752Y-113379544D01*
X143314493Y-113322696D01*
X143310769Y-113318398D01*
X143310768Y-113318397D01*
X143233928Y-113269014D01*
X143190832Y-113241317D01*
X143190826Y-113241315D01*
X143054037Y-113201150D01*
X143054035Y-113201150D01*
X142911465Y-113201150D01*
X142911463Y-113201150D01*
X142774673Y-113241315D01*
X142774667Y-113241317D01*
X142654730Y-113318398D01*
X142561370Y-113426140D01*
X142561367Y-113426145D01*
X142502142Y-113555829D01*
X142502141Y-113555832D01*
X142481852Y-113696949D01*
X142502141Y-113838067D01*
X142502142Y-113838070D01*
X142561367Y-113967754D01*
X142561370Y-113967759D01*
X142644616Y-114063829D01*
X142654732Y-114075503D01*
X142774669Y-114152583D01*
X142911462Y-114192749D01*
X142911464Y-114192750D01*
X142911465Y-114192750D01*
X143054036Y-114192750D01*
X143054036Y-114192749D01*
X143190831Y-114152583D01*
X143310768Y-114075503D01*
X143377560Y-113998420D01*
X143420335Y-113977009D01*
X143424794Y-113976850D01*
X150160706Y-113976850D01*
X150204900Y-113995156D01*
X150207933Y-113998413D01*
X150274732Y-114075503D01*
X150394669Y-114152583D01*
X150531462Y-114192749D01*
X150531464Y-114192750D01*
X150531465Y-114192750D01*
X150674036Y-114192750D01*
X150674036Y-114192749D01*
X150810831Y-114152583D01*
X150930768Y-114075503D01*
X151024132Y-113967756D01*
X151083358Y-113838069D01*
X151103648Y-113696950D01*
X151094893Y-113636061D01*
X151106723Y-113589712D01*
X151112556Y-113582980D01*
X151523174Y-113172362D01*
X151531990Y-113166022D01*
X151531727Y-113165674D01*
X151536346Y-113162185D01*
X151536349Y-113162184D01*
X151566770Y-113128812D01*
X151567727Y-113127809D01*
X151581008Y-113114530D01*
X151583457Y-113110953D01*
X151586146Y-113107558D01*
X151606848Y-113084851D01*
X151611399Y-113073100D01*
X151618114Y-113060361D01*
X151625236Y-113049966D01*
X151632269Y-113020056D01*
X151633547Y-113015927D01*
X151644650Y-112987272D01*
X151644650Y-112974672D01*
X151646310Y-112960362D01*
X151649194Y-112948101D01*
X151645868Y-112924259D01*
X151644950Y-112917674D01*
X151644650Y-112913351D01*
X151644650Y-110648949D01*
X152514852Y-110648949D01*
X152535141Y-110790067D01*
X152535142Y-110790070D01*
X152594367Y-110919754D01*
X152594370Y-110919759D01*
X152687730Y-111027501D01*
X152687732Y-111027503D01*
X152807669Y-111104583D01*
X152944462Y-111144749D01*
X152944464Y-111144750D01*
X152944465Y-111144750D01*
X153087036Y-111144750D01*
X153087036Y-111144749D01*
X153223831Y-111104583D01*
X153343768Y-111027503D01*
X153437132Y-110919756D01*
X153496358Y-110790069D01*
X153516648Y-110648950D01*
X153496358Y-110507831D01*
X153437132Y-110378144D01*
X153437129Y-110378140D01*
X153387116Y-110320422D01*
X153371850Y-110279493D01*
X153371850Y-107843405D01*
X153387116Y-107802476D01*
X153395204Y-107793143D01*
X153437132Y-107744756D01*
X153496358Y-107615069D01*
X153516648Y-107473950D01*
X153496358Y-107332831D01*
X153437132Y-107203144D01*
X153356605Y-107110212D01*
X153343769Y-107095398D01*
X153343768Y-107095397D01*
X153300912Y-107067854D01*
X153223832Y-107018317D01*
X153223826Y-107018315D01*
X153087037Y-106978150D01*
X153087035Y-106978150D01*
X152944465Y-106978150D01*
X152944463Y-106978150D01*
X152807673Y-107018315D01*
X152807667Y-107018317D01*
X152687730Y-107095398D01*
X152594370Y-107203140D01*
X152594367Y-107203145D01*
X152535142Y-107332829D01*
X152535141Y-107332832D01*
X152514852Y-107473950D01*
X152535141Y-107615067D01*
X152535142Y-107615070D01*
X152594365Y-107744750D01*
X152594369Y-107744758D01*
X152609700Y-107762450D01*
X152636296Y-107793143D01*
X152644384Y-107802476D01*
X152659650Y-107843405D01*
X152659650Y-110279493D01*
X152644384Y-110320422D01*
X152594370Y-110378140D01*
X152594367Y-110378145D01*
X152535142Y-110507829D01*
X152535141Y-110507832D01*
X152514852Y-110648949D01*
X151644650Y-110648949D01*
X151644650Y-103599553D01*
X151662956Y-103555359D01*
X151673353Y-103546980D01*
X151692768Y-103534503D01*
X151786132Y-103426756D01*
X151845358Y-103297069D01*
X151865648Y-103155950D01*
X151845358Y-103014831D01*
X151786132Y-102885144D01*
X151771803Y-102868608D01*
X151692769Y-102777398D01*
X151692768Y-102777397D01*
X151649911Y-102749854D01*
X151572832Y-102700317D01*
X151572826Y-102700315D01*
X151436037Y-102660150D01*
X151436035Y-102660150D01*
X151293465Y-102660150D01*
X151293463Y-102660150D01*
X151156673Y-102700315D01*
X151156667Y-102700317D01*
X151036730Y-102777398D01*
X150943370Y-102885140D01*
X150943367Y-102885145D01*
X150884142Y-103014829D01*
X150884141Y-103014832D01*
X150863852Y-103155950D01*
X150884141Y-103297067D01*
X150884142Y-103297070D01*
X150943367Y-103426754D01*
X150943370Y-103426759D01*
X150982702Y-103472150D01*
X151036732Y-103534503D01*
X151056140Y-103546976D01*
X151083421Y-103586266D01*
X151084850Y-103599553D01*
X151084850Y-112559646D01*
X151066544Y-112603840D01*
X151022350Y-112622146D01*
X150978156Y-112603840D01*
X150960486Y-112568541D01*
X150956358Y-112539832D01*
X150956357Y-112539829D01*
X150941483Y-112507259D01*
X150897132Y-112410144D01*
X150868906Y-112377570D01*
X150803769Y-112302398D01*
X150803768Y-112302397D01*
X150747539Y-112266260D01*
X150683832Y-112225317D01*
X150683826Y-112225315D01*
X150547037Y-112185150D01*
X150547035Y-112185150D01*
X150404465Y-112185150D01*
X150401676Y-112185150D01*
X150357482Y-112166844D01*
X147157164Y-108966526D01*
X147150823Y-108957712D01*
X147150476Y-108957975D01*
X147146984Y-108953351D01*
X147113622Y-108922937D01*
X147112577Y-108921939D01*
X147099329Y-108908691D01*
X147095750Y-108906239D01*
X147092356Y-108903550D01*
X147079151Y-108891513D01*
X147069651Y-108882852D01*
X147069649Y-108882851D01*
X147069647Y-108882849D01*
X147057901Y-108878299D01*
X147045158Y-108871582D01*
X147034769Y-108864466D01*
X147034765Y-108864463D01*
X147004860Y-108857430D01*
X147000722Y-108856148D01*
X146972073Y-108845050D01*
X146972072Y-108845050D01*
X146959472Y-108845050D01*
X146945164Y-108843390D01*
X146932901Y-108840506D01*
X146932900Y-108840506D01*
X146902474Y-108844750D01*
X146898151Y-108845050D01*
X143378576Y-108845050D01*
X143334382Y-108826744D01*
X142730563Y-108222925D01*
X142712257Y-108178731D01*
X142712892Y-108169843D01*
X142721648Y-108108950D01*
X142701358Y-107967831D01*
X142642132Y-107838144D01*
X142626491Y-107820094D01*
X142548769Y-107730398D01*
X142548768Y-107730397D01*
X142505912Y-107702854D01*
X142428832Y-107653317D01*
X142428826Y-107653315D01*
X142292037Y-107613150D01*
X142292035Y-107613150D01*
X142149465Y-107613150D01*
X142149463Y-107613150D01*
X142012673Y-107653315D01*
X142012667Y-107653317D01*
X141892730Y-107730398D01*
X141799370Y-107838140D01*
X141799367Y-107838145D01*
X141740142Y-107967829D01*
X141740141Y-107967832D01*
X141719852Y-108108949D01*
X141740141Y-108250067D01*
X141740142Y-108250070D01*
X141796036Y-108372461D01*
X141797743Y-108420266D01*
X141765147Y-108455276D01*
X141731740Y-108458585D01*
X141731686Y-108459773D01*
X141725903Y-108459505D01*
X141695474Y-108463750D01*
X141691151Y-108464050D01*
X141392794Y-108464050D01*
X141348600Y-108445744D01*
X141345560Y-108442479D01*
X141326312Y-108420266D01*
X141278768Y-108365397D01*
X141235912Y-108337854D01*
X141158832Y-108288317D01*
X141158826Y-108288315D01*
X141022037Y-108248150D01*
X141022035Y-108248150D01*
X140879465Y-108248150D01*
X140879463Y-108248150D01*
X140742673Y-108288315D01*
X140742667Y-108288317D01*
X140622730Y-108365398D01*
X140529370Y-108473140D01*
X140529367Y-108473145D01*
X140470142Y-108602829D01*
X140470141Y-108602832D01*
X140449852Y-108743950D01*
X138182650Y-108743950D01*
X138182650Y-101773776D01*
X138188792Y-101758949D01*
X146799852Y-101758949D01*
X146820141Y-101900067D01*
X146820142Y-101900070D01*
X146879367Y-102029754D01*
X146879370Y-102029759D01*
X146970198Y-102134579D01*
X146972732Y-102137503D01*
X147092669Y-102214583D01*
X147229462Y-102254749D01*
X147229464Y-102254750D01*
X147229465Y-102254750D01*
X147372036Y-102254750D01*
X147372036Y-102254749D01*
X147508831Y-102214583D01*
X147628768Y-102137503D01*
X147722132Y-102029756D01*
X147781358Y-101900069D01*
X147801648Y-101758950D01*
X147783388Y-101631950D01*
X155689852Y-101631950D01*
X155710141Y-101773067D01*
X155710142Y-101773070D01*
X155769367Y-101902754D01*
X155769370Y-101902759D01*
X155861521Y-102009106D01*
X155862732Y-102010503D01*
X155882140Y-102022976D01*
X155909421Y-102062266D01*
X155910850Y-102075553D01*
X155910850Y-107672095D01*
X155909101Y-107682814D01*
X155909532Y-107682875D01*
X155908731Y-107688612D01*
X155910032Y-107716735D01*
X155910817Y-107733720D01*
X155910850Y-107735136D01*
X155910850Y-107753885D01*
X155911593Y-107757864D01*
X155911647Y-107758151D01*
X155912145Y-107762450D01*
X155913564Y-107793141D01*
X155918655Y-107804672D01*
X155922914Y-107818428D01*
X155925229Y-107830812D01*
X155941402Y-107856931D01*
X155943423Y-107860764D01*
X155955834Y-107888872D01*
X155964742Y-107897780D01*
X155973685Y-107909069D01*
X155980319Y-107919783D01*
X156004832Y-107938295D01*
X156008100Y-107941139D01*
X157416544Y-109349582D01*
X157434850Y-109393776D01*
X157434850Y-117698345D01*
X157416544Y-117742539D01*
X157406142Y-117750922D01*
X157386732Y-117763396D01*
X157386731Y-117763397D01*
X157293370Y-117871140D01*
X157293367Y-117871145D01*
X157234142Y-118000829D01*
X157234141Y-118000832D01*
X157213852Y-118141950D01*
X157234141Y-118283067D01*
X157234142Y-118283070D01*
X157293367Y-118412754D01*
X157293370Y-118412759D01*
X157372899Y-118504539D01*
X157386732Y-118520503D01*
X157506669Y-118597583D01*
X157627782Y-118633145D01*
X157643462Y-118637749D01*
X157643464Y-118637750D01*
X157643465Y-118637750D01*
X157786036Y-118637750D01*
X157786036Y-118637749D01*
X157922831Y-118597583D01*
X158042768Y-118520503D01*
X158136132Y-118412756D01*
X158195358Y-118283069D01*
X158215648Y-118141950D01*
X158195358Y-118000831D01*
X158136132Y-117871144D01*
X158134598Y-117869374D01*
X158042768Y-117763397D01*
X158042767Y-117763396D01*
X158023358Y-117750922D01*
X157996078Y-117711628D01*
X157994650Y-117698345D01*
X157994650Y-112680950D01*
X159245852Y-112680950D01*
X159249145Y-112703851D01*
X159266141Y-112822067D01*
X159266142Y-112822070D01*
X159325367Y-112951754D01*
X159325370Y-112951759D01*
X159398575Y-113036241D01*
X159418732Y-113059503D01*
X159504354Y-113114530D01*
X159526611Y-113128834D01*
X159538669Y-113136583D01*
X159545661Y-113138636D01*
X159675958Y-113176895D01*
X159713205Y-113206910D01*
X159720850Y-113236863D01*
X159720850Y-114403095D01*
X159719101Y-114413814D01*
X159719532Y-114413875D01*
X159718731Y-114419612D01*
X159719902Y-114444908D01*
X159720817Y-114464720D01*
X159720850Y-114466136D01*
X159720850Y-114484885D01*
X159721090Y-114486168D01*
X159721647Y-114489151D01*
X159722145Y-114493450D01*
X159723564Y-114524141D01*
X159728655Y-114535672D01*
X159732914Y-114549428D01*
X159735229Y-114561812D01*
X159751402Y-114587931D01*
X159753423Y-114591764D01*
X159765834Y-114619872D01*
X159774742Y-114628780D01*
X159783686Y-114640071D01*
X159790319Y-114650783D01*
X159803728Y-114660909D01*
X159814835Y-114669297D01*
X159818103Y-114672141D01*
X160398336Y-115252374D01*
X160404683Y-115261193D01*
X160405030Y-115260932D01*
X160408518Y-115265551D01*
X160441876Y-115295961D01*
X160442899Y-115296937D01*
X160456168Y-115310206D01*
X160456174Y-115310211D01*
X160459742Y-115312655D01*
X160463141Y-115315347D01*
X160473128Y-115324451D01*
X160485849Y-115336048D01*
X160497593Y-115340597D01*
X160510341Y-115347316D01*
X160520732Y-115354435D01*
X160520734Y-115354436D01*
X160550650Y-115361471D01*
X160554763Y-115362744D01*
X160583428Y-115373850D01*
X160596029Y-115373850D01*
X160610336Y-115375509D01*
X160622600Y-115378394D01*
X160647183Y-115374964D01*
X160653027Y-115374150D01*
X160657350Y-115373850D01*
X167178706Y-115373850D01*
X167222900Y-115392156D01*
X167225933Y-115395413D01*
X167292732Y-115472503D01*
X167412669Y-115549583D01*
X167549462Y-115589749D01*
X167549464Y-115589750D01*
X167549465Y-115589750D01*
X167692036Y-115589750D01*
X167692036Y-115589749D01*
X167828831Y-115549583D01*
X167948768Y-115472503D01*
X168042132Y-115364756D01*
X168101358Y-115235069D01*
X168121648Y-115093950D01*
X168112893Y-115033061D01*
X168124723Y-114986712D01*
X168130556Y-114979980D01*
X169301584Y-113808953D01*
X173397697Y-113808953D01*
X173418264Y-114030921D01*
X173418266Y-114030932D01*
X173452880Y-114152584D01*
X173479274Y-114245349D01*
X173578643Y-114444908D01*
X173578644Y-114444909D01*
X173578646Y-114444913D01*
X173712979Y-114622800D01*
X173712984Y-114622805D01*
X173712988Y-114622810D01*
X173877734Y-114772996D01*
X173877733Y-114772996D01*
X174067270Y-114890353D01*
X174067271Y-114890354D01*
X174067274Y-114890355D01*
X174275151Y-114970886D01*
X174494285Y-115011850D01*
X174494288Y-115011850D01*
X174717212Y-115011850D01*
X174717215Y-115011850D01*
X174936349Y-114970886D01*
X175144226Y-114890355D01*
X175333765Y-114772997D01*
X175498512Y-114622810D01*
X175517135Y-114598150D01*
X175603674Y-114483553D01*
X175632857Y-114444908D01*
X175732226Y-114245349D01*
X175793234Y-114030929D01*
X175793235Y-114030921D01*
X175813803Y-113808953D01*
X175813803Y-113808946D01*
X175793235Y-113586978D01*
X175793233Y-113586967D01*
X175757037Y-113459754D01*
X175732226Y-113372551D01*
X175632857Y-113172992D01*
X175632854Y-113172988D01*
X175632853Y-113172986D01*
X175498520Y-112995099D01*
X175498515Y-112995094D01*
X175498512Y-112995090D01*
X175333765Y-112844903D01*
X175333766Y-112844903D01*
X175144229Y-112727546D01*
X175144228Y-112727545D01*
X174936346Y-112647013D01*
X174717217Y-112606050D01*
X174717215Y-112606050D01*
X174494285Y-112606050D01*
X174494282Y-112606050D01*
X174275153Y-112647013D01*
X174067271Y-112727545D01*
X174067270Y-112727546D01*
X173877733Y-112844903D01*
X173712986Y-112995092D01*
X173712979Y-112995099D01*
X173578646Y-113172986D01*
X173578643Y-113172992D01*
X173479274Y-113372550D01*
X173418266Y-113586967D01*
X173418264Y-113586978D01*
X173397697Y-113808946D01*
X173397697Y-113808953D01*
X169301584Y-113808953D01*
X170319176Y-112791361D01*
X170327990Y-112785023D01*
X170327727Y-112784674D01*
X170332346Y-112781185D01*
X170332349Y-112781184D01*
X170362758Y-112747825D01*
X170363717Y-112746820D01*
X170377008Y-112733531D01*
X170379459Y-112729950D01*
X170382150Y-112726554D01*
X170382891Y-112725741D01*
X170402848Y-112703851D01*
X170407400Y-112692099D01*
X170414113Y-112679363D01*
X170421236Y-112668966D01*
X170428271Y-112639050D01*
X170429543Y-112634941D01*
X170440650Y-112606272D01*
X170440650Y-112593668D01*
X170442310Y-112579358D01*
X170445193Y-112567100D01*
X170440950Y-112536681D01*
X170440650Y-112532358D01*
X170440650Y-112362553D01*
X170458956Y-112318359D01*
X170469353Y-112309980D01*
X170488768Y-112297503D01*
X170582132Y-112189756D01*
X170641358Y-112060069D01*
X170661648Y-111918950D01*
X170641358Y-111777831D01*
X170582132Y-111648144D01*
X170580741Y-111646539D01*
X170488769Y-111540398D01*
X170488768Y-111540397D01*
X170445912Y-111512854D01*
X170368832Y-111463317D01*
X170368826Y-111463315D01*
X170232037Y-111423150D01*
X170232035Y-111423150D01*
X170089465Y-111423150D01*
X170089463Y-111423150D01*
X169952673Y-111463315D01*
X169952667Y-111463317D01*
X169832730Y-111540398D01*
X169739370Y-111648140D01*
X169739367Y-111648145D01*
X169680142Y-111777829D01*
X169680141Y-111777832D01*
X169661882Y-111904829D01*
X169659852Y-111918950D01*
X169663258Y-111942645D01*
X169680141Y-112060067D01*
X169680142Y-112060070D01*
X169739367Y-112189754D01*
X169739370Y-112189759D01*
X169818539Y-112281124D01*
X169832732Y-112297503D01*
X169852140Y-112309976D01*
X169879421Y-112349266D01*
X169880850Y-112362553D01*
X169880850Y-112412123D01*
X169862544Y-112456317D01*
X167739017Y-114579844D01*
X167694823Y-114598150D01*
X167549463Y-114598150D01*
X167412673Y-114638315D01*
X167412667Y-114638317D01*
X167292730Y-114715398D01*
X167225940Y-114792479D01*
X167183165Y-114813891D01*
X167178706Y-114814050D01*
X161644868Y-114814050D01*
X161600674Y-114795744D01*
X161582368Y-114751550D01*
X161600674Y-114707356D01*
X161627260Y-114691582D01*
X161693468Y-114672141D01*
X161732831Y-114660583D01*
X161852768Y-114583503D01*
X161919560Y-114506420D01*
X161962335Y-114485009D01*
X161966794Y-114484850D01*
X166548896Y-114484850D01*
X166559617Y-114486598D01*
X166559678Y-114486168D01*
X166565408Y-114486967D01*
X166565410Y-114486968D01*
X166565411Y-114486967D01*
X166565412Y-114486968D01*
X166570961Y-114486711D01*
X166610520Y-114484882D01*
X166611936Y-114484850D01*
X166630679Y-114484850D01*
X166630685Y-114484850D01*
X166634960Y-114484050D01*
X166639239Y-114483554D01*
X166669943Y-114482135D01*
X166681466Y-114477046D01*
X166695222Y-114472785D01*
X166707613Y-114470470D01*
X166733747Y-114454287D01*
X166737558Y-114452278D01*
X166765672Y-114439866D01*
X166774585Y-114430951D01*
X166785867Y-114422015D01*
X166796583Y-114415381D01*
X166815101Y-114390857D01*
X166817935Y-114387601D01*
X168454981Y-112750556D01*
X168499176Y-112732250D01*
X168644536Y-112732250D01*
X168644536Y-112732249D01*
X168781331Y-112692083D01*
X168901268Y-112615003D01*
X168994632Y-112507256D01*
X169053858Y-112377569D01*
X169074148Y-112236450D01*
X169053858Y-112095331D01*
X168994632Y-111965644D01*
X168963756Y-111930012D01*
X168901269Y-111857898D01*
X168901268Y-111857897D01*
X168858411Y-111830354D01*
X168781332Y-111780817D01*
X168781326Y-111780815D01*
X168644537Y-111740650D01*
X168644535Y-111740650D01*
X168501965Y-111740650D01*
X168501963Y-111740650D01*
X168365173Y-111780815D01*
X168365167Y-111780817D01*
X168245230Y-111857898D01*
X168151870Y-111965640D01*
X168151867Y-111965645D01*
X168092642Y-112095329D01*
X168092641Y-112095332D01*
X168072352Y-112236451D01*
X168081105Y-112297338D01*
X168069274Y-112343687D01*
X168063435Y-112350425D01*
X166507118Y-113906744D01*
X166462924Y-113925050D01*
X161966794Y-113925050D01*
X161922600Y-113906744D01*
X161919560Y-113903479D01*
X161852769Y-113826398D01*
X161852768Y-113826397D01*
X161809912Y-113798854D01*
X161732832Y-113749317D01*
X161732826Y-113749315D01*
X161596037Y-113709150D01*
X161596035Y-113709150D01*
X161453465Y-113709150D01*
X161453463Y-113709150D01*
X161316673Y-113749315D01*
X161316667Y-113749317D01*
X161196730Y-113826398D01*
X161103370Y-113934140D01*
X161103367Y-113934145D01*
X161044142Y-114063829D01*
X161044141Y-114063832D01*
X161023852Y-114204949D01*
X161044141Y-114346067D01*
X161044142Y-114346070D01*
X161103367Y-114475754D01*
X161103370Y-114475759D01*
X161177937Y-114561813D01*
X161196732Y-114583503D01*
X161275163Y-114633908D01*
X161301418Y-114650782D01*
X161316669Y-114660583D01*
X161343852Y-114668564D01*
X161422240Y-114691582D01*
X161459487Y-114721597D01*
X161464600Y-114769158D01*
X161434585Y-114806405D01*
X161404632Y-114814050D01*
X160777577Y-114814050D01*
X160733383Y-114795744D01*
X160298956Y-114361317D01*
X160280650Y-114317123D01*
X160280650Y-112990800D01*
X160282398Y-112980082D01*
X160281967Y-112980022D01*
X160282767Y-112974287D01*
X160282123Y-112960362D01*
X160280682Y-112929191D01*
X160280650Y-112927776D01*
X160280650Y-112909017D01*
X160280650Y-112909015D01*
X160279849Y-112904737D01*
X160279353Y-112900451D01*
X160277935Y-112869757D01*
X160272844Y-112858227D01*
X160268584Y-112844467D01*
X160266606Y-112833885D01*
X160266270Y-112832087D01*
X160250094Y-112805964D01*
X160248074Y-112802131D01*
X160241849Y-112788031D01*
X160237160Y-112753892D01*
X160237640Y-112750556D01*
X160247648Y-112680950D01*
X160227358Y-112539831D01*
X160168132Y-112410144D01*
X160139906Y-112377570D01*
X160074769Y-112302398D01*
X160074768Y-112302397D01*
X160018539Y-112266260D01*
X159954832Y-112225317D01*
X159954826Y-112225315D01*
X159818037Y-112185150D01*
X159818035Y-112185150D01*
X159675465Y-112185150D01*
X159675463Y-112185150D01*
X159538673Y-112225315D01*
X159538667Y-112225317D01*
X159418730Y-112302398D01*
X159325370Y-112410140D01*
X159325367Y-112410145D01*
X159266142Y-112539829D01*
X159266141Y-112539832D01*
X159250731Y-112647013D01*
X159245852Y-112680950D01*
X157994650Y-112680950D01*
X157994650Y-112045950D01*
X162801852Y-112045950D01*
X162822141Y-112187067D01*
X162822142Y-112187070D01*
X162881367Y-112316754D01*
X162881370Y-112316759D01*
X162968797Y-112417654D01*
X162974732Y-112424503D01*
X163094669Y-112501583D01*
X163224933Y-112539832D01*
X163231462Y-112541749D01*
X163231464Y-112541750D01*
X163231465Y-112541750D01*
X163374036Y-112541750D01*
X163374036Y-112541749D01*
X163510831Y-112501583D01*
X163630768Y-112424503D01*
X163724132Y-112316756D01*
X163783358Y-112187069D01*
X163803648Y-112045950D01*
X164071852Y-112045950D01*
X164092141Y-112187067D01*
X164092142Y-112187070D01*
X164151367Y-112316754D01*
X164151370Y-112316759D01*
X164238797Y-112417654D01*
X164244732Y-112424503D01*
X164364669Y-112501583D01*
X164494933Y-112539832D01*
X164501462Y-112541749D01*
X164501464Y-112541750D01*
X164501465Y-112541750D01*
X164644036Y-112541750D01*
X164644036Y-112541749D01*
X164780831Y-112501583D01*
X164900768Y-112424503D01*
X164994132Y-112316756D01*
X165053358Y-112187069D01*
X165073648Y-112045950D01*
X165053358Y-111904831D01*
X164994132Y-111775144D01*
X164900768Y-111667397D01*
X164900767Y-111667396D01*
X164881358Y-111654922D01*
X164854078Y-111615628D01*
X164852650Y-111602345D01*
X164852650Y-110013950D01*
X165849852Y-110013950D01*
X165870141Y-110155067D01*
X165870142Y-110155070D01*
X165929367Y-110284754D01*
X165929370Y-110284759D01*
X166020198Y-110389579D01*
X166022732Y-110392503D01*
X166142669Y-110469583D01*
X166272933Y-110507832D01*
X166279462Y-110509749D01*
X166279464Y-110509750D01*
X166279465Y-110509750D01*
X166422036Y-110509750D01*
X166422036Y-110509749D01*
X166558831Y-110469583D01*
X166618799Y-110431042D01*
X166678764Y-110392506D01*
X166678764Y-110392505D01*
X166678768Y-110392503D01*
X166679530Y-110391622D01*
X166680132Y-110391321D01*
X166682143Y-110389579D01*
X166682587Y-110390092D01*
X166722305Y-110370209D01*
X166726766Y-110370050D01*
X169784734Y-110370050D01*
X169828928Y-110388356D01*
X169831962Y-110391614D01*
X169832732Y-110392503D01*
X169832735Y-110392506D01*
X169952664Y-110469580D01*
X169952669Y-110469583D01*
X170082933Y-110507832D01*
X170089462Y-110509749D01*
X170089464Y-110509750D01*
X170089465Y-110509750D01*
X170232036Y-110509750D01*
X170232036Y-110509749D01*
X170368831Y-110469583D01*
X170488768Y-110392503D01*
X170561168Y-110308949D01*
X173247110Y-110308949D01*
X173265640Y-110532574D01*
X173320725Y-110750098D01*
X173320726Y-110750102D01*
X173410863Y-110955593D01*
X173410865Y-110955596D01*
X173533591Y-111143442D01*
X173533600Y-111143454D01*
X173544472Y-111155264D01*
X173544474Y-111155264D01*
X173961943Y-110737795D01*
X174006137Y-110719489D01*
X174050331Y-110737795D01*
X174052909Y-110740534D01*
X174138155Y-110836756D01*
X174167989Y-110857349D01*
X174193961Y-110897519D01*
X174183922Y-110944289D01*
X174176679Y-110952979D01*
X173761794Y-111367863D01*
X173761795Y-111367864D01*
X173862642Y-111446357D01*
X173862649Y-111446361D01*
X174059984Y-111553152D01*
X174059991Y-111553155D01*
X174272223Y-111626015D01*
X174493552Y-111662949D01*
X174493560Y-111662950D01*
X174717940Y-111662950D01*
X174717947Y-111662949D01*
X174939276Y-111626015D01*
X175151508Y-111553155D01*
X175151515Y-111553152D01*
X175348854Y-111446359D01*
X175449703Y-111367863D01*
X175449704Y-111367863D01*
X175034819Y-110952979D01*
X175016513Y-110908785D01*
X175034819Y-110864591D01*
X175043499Y-110857356D01*
X175073345Y-110836756D01*
X175158581Y-110740544D01*
X175201588Y-110719604D01*
X175246807Y-110735208D01*
X175249556Y-110737796D01*
X175667024Y-111155265D01*
X175667025Y-111155264D01*
X175677906Y-111143445D01*
X175677912Y-111143438D01*
X175800634Y-110955597D01*
X175800636Y-110955593D01*
X175890773Y-110750102D01*
X175890774Y-110750098D01*
X175945859Y-110532574D01*
X175964389Y-110308950D01*
X175945859Y-110085325D01*
X175890774Y-109867801D01*
X175890773Y-109867797D01*
X175800636Y-109662306D01*
X175800634Y-109662303D01*
X175677909Y-109474458D01*
X175667024Y-109462634D01*
X175249555Y-109880103D01*
X175205361Y-109898409D01*
X175161167Y-109880103D01*
X175158592Y-109877367D01*
X175073345Y-109781144D01*
X175073342Y-109781141D01*
X175043509Y-109760549D01*
X175017537Y-109720379D01*
X175027577Y-109673609D01*
X175034819Y-109664919D01*
X175449704Y-109250035D01*
X175449703Y-109250034D01*
X175348857Y-109171542D01*
X175348850Y-109171538D01*
X175151515Y-109064747D01*
X175151508Y-109064744D01*
X174939276Y-108991884D01*
X174717947Y-108954950D01*
X174493552Y-108954950D01*
X174272223Y-108991884D01*
X174059991Y-109064744D01*
X174059984Y-109064747D01*
X173862649Y-109171538D01*
X173761794Y-109250035D01*
X174176679Y-109664919D01*
X174194985Y-109709113D01*
X174176679Y-109753307D01*
X174167991Y-109760548D01*
X174138156Y-109781142D01*
X174138153Y-109781145D01*
X174052919Y-109877354D01*
X174009910Y-109898295D01*
X173964692Y-109882691D01*
X173961943Y-109880103D01*
X173544474Y-109462634D01*
X173544473Y-109462634D01*
X173533593Y-109474454D01*
X173410865Y-109662303D01*
X173410863Y-109662306D01*
X173320726Y-109867797D01*
X173320725Y-109867801D01*
X173265640Y-110085325D01*
X173247110Y-110308949D01*
X170561168Y-110308949D01*
X170582132Y-110284756D01*
X170641358Y-110155069D01*
X170661648Y-110013950D01*
X170641358Y-109872831D01*
X170582132Y-109743144D01*
X170576625Y-109736789D01*
X170488769Y-109635398D01*
X170488768Y-109635397D01*
X170439264Y-109603582D01*
X170368832Y-109558317D01*
X170368826Y-109558315D01*
X170232037Y-109518150D01*
X170232035Y-109518150D01*
X170089465Y-109518150D01*
X170089463Y-109518150D01*
X169952673Y-109558315D01*
X169952664Y-109558319D01*
X169832735Y-109635393D01*
X169832730Y-109635397D01*
X169832732Y-109635397D01*
X169831969Y-109636277D01*
X169831367Y-109636578D01*
X169829357Y-109638321D01*
X169828912Y-109637807D01*
X169789195Y-109657691D01*
X169784734Y-109657850D01*
X166726766Y-109657850D01*
X166682572Y-109639544D01*
X166679537Y-109636285D01*
X166678768Y-109635397D01*
X166678766Y-109635396D01*
X166678764Y-109635393D01*
X166558835Y-109558319D01*
X166558826Y-109558315D01*
X166422037Y-109518150D01*
X166422035Y-109518150D01*
X166279465Y-109518150D01*
X166279463Y-109518150D01*
X166142673Y-109558315D01*
X166142667Y-109558317D01*
X166022730Y-109635398D01*
X165929370Y-109743140D01*
X165929367Y-109743145D01*
X165870142Y-109872829D01*
X165870141Y-109872832D01*
X165849852Y-110013950D01*
X164852650Y-110013950D01*
X164852650Y-109647776D01*
X164870956Y-109603582D01*
X165724482Y-108750056D01*
X165768676Y-108731750D01*
X165914036Y-108731750D01*
X165914036Y-108731749D01*
X166050831Y-108691583D01*
X166170768Y-108614503D01*
X166264132Y-108506756D01*
X166323358Y-108377069D01*
X166343648Y-108235950D01*
X166323358Y-108094831D01*
X166264132Y-107965144D01*
X166243331Y-107941139D01*
X166170769Y-107857398D01*
X166170768Y-107857397D01*
X166110132Y-107818428D01*
X166050832Y-107780317D01*
X166050826Y-107780315D01*
X165914037Y-107740150D01*
X165914035Y-107740150D01*
X165771465Y-107740150D01*
X165771463Y-107740150D01*
X165634673Y-107780315D01*
X165634667Y-107780317D01*
X165514730Y-107857398D01*
X165421370Y-107965140D01*
X165421367Y-107965145D01*
X165362142Y-108094829D01*
X165362141Y-108094832D01*
X165341852Y-108235951D01*
X165350605Y-108296838D01*
X165338774Y-108343187D01*
X165332935Y-108349925D01*
X164414324Y-109268536D01*
X164405512Y-109274879D01*
X164405773Y-109275225D01*
X164401150Y-109278716D01*
X164370748Y-109312065D01*
X164369753Y-109313108D01*
X164356492Y-109326369D01*
X164356487Y-109326375D01*
X164354038Y-109329950D01*
X164351351Y-109333341D01*
X164330653Y-109356046D01*
X164330652Y-109356049D01*
X164326101Y-109367796D01*
X164319387Y-109380535D01*
X164312264Y-109390934D01*
X164312263Y-109390935D01*
X164305230Y-109420839D01*
X164303948Y-109424978D01*
X164292850Y-109453627D01*
X164292850Y-109466227D01*
X164291190Y-109480536D01*
X164288306Y-109492798D01*
X164292550Y-109523225D01*
X164292850Y-109527548D01*
X164292850Y-111602345D01*
X164274544Y-111646539D01*
X164264142Y-111654922D01*
X164244732Y-111667396D01*
X164244731Y-111667397D01*
X164151370Y-111775140D01*
X164151367Y-111775145D01*
X164092142Y-111904829D01*
X164092141Y-111904832D01*
X164071852Y-112045950D01*
X163803648Y-112045950D01*
X163783358Y-111904831D01*
X163724132Y-111775144D01*
X163630768Y-111667397D01*
X163630767Y-111667396D01*
X163611358Y-111654922D01*
X163584078Y-111615628D01*
X163582650Y-111602345D01*
X163582650Y-109441553D01*
X163600956Y-109397359D01*
X163611353Y-109388980D01*
X163630768Y-109376503D01*
X163724132Y-109268756D01*
X163783358Y-109139069D01*
X163803648Y-108997950D01*
X163783358Y-108856831D01*
X163724132Y-108727144D01*
X163630768Y-108619397D01*
X163566846Y-108578316D01*
X163510832Y-108542317D01*
X163510826Y-108542315D01*
X163374037Y-108502150D01*
X163374035Y-108502150D01*
X163231465Y-108502150D01*
X163231463Y-108502150D01*
X163094673Y-108542315D01*
X163094667Y-108542317D01*
X162974730Y-108619398D01*
X162881370Y-108727140D01*
X162881367Y-108727145D01*
X162822142Y-108856829D01*
X162822141Y-108856832D01*
X162801852Y-108997950D01*
X162822141Y-109139067D01*
X162822142Y-109139070D01*
X162881367Y-109268754D01*
X162881370Y-109268759D01*
X162974730Y-109376501D01*
X162974732Y-109376503D01*
X162994140Y-109388976D01*
X163021421Y-109428266D01*
X163022850Y-109441553D01*
X163022850Y-111602345D01*
X163004544Y-111646539D01*
X162994142Y-111654922D01*
X162974732Y-111667396D01*
X162974731Y-111667397D01*
X162881370Y-111775140D01*
X162881367Y-111775145D01*
X162822142Y-111904829D01*
X162822141Y-111904832D01*
X162801852Y-112045950D01*
X157994650Y-112045950D01*
X157994650Y-109307800D01*
X157996398Y-109297082D01*
X157995967Y-109297022D01*
X157996767Y-109291287D01*
X157996008Y-109274879D01*
X157994682Y-109246191D01*
X157994650Y-109244776D01*
X157994650Y-109226017D01*
X157994650Y-109226015D01*
X157993849Y-109221737D01*
X157993353Y-109217451D01*
X157991935Y-109186757D01*
X157986844Y-109175227D01*
X157982584Y-109161467D01*
X157980489Y-109150257D01*
X157980270Y-109149087D01*
X157964095Y-109122964D01*
X157962074Y-109119130D01*
X157949666Y-109091027D01*
X157940757Y-109082119D01*
X157931813Y-109070828D01*
X157925181Y-109060117D01*
X157925180Y-109060115D01*
X157900663Y-109041601D01*
X157897395Y-109038757D01*
X156488956Y-107630318D01*
X156470650Y-107586124D01*
X156470650Y-106203953D01*
X176645106Y-106203953D01*
X176664440Y-106412616D01*
X176664442Y-106412627D01*
X176720176Y-106608505D01*
X176721794Y-106614192D01*
X176815206Y-106801790D01*
X176941499Y-106969028D01*
X177096371Y-107110212D01*
X177096370Y-107110212D01*
X177274545Y-107220534D01*
X177274550Y-107220537D01*
X177469966Y-107296242D01*
X177675966Y-107334750D01*
X177675969Y-107334750D01*
X177885531Y-107334750D01*
X177885534Y-107334750D01*
X178091534Y-107296242D01*
X178286950Y-107220537D01*
X178465128Y-107110213D01*
X178620001Y-106969028D01*
X178746294Y-106801790D01*
X178839706Y-106614192D01*
X178897058Y-106412624D01*
X178898565Y-106396359D01*
X178916394Y-106203954D01*
X179186411Y-106203954D01*
X179205723Y-106412376D01*
X179205725Y-106412388D01*
X179263010Y-106613721D01*
X179356316Y-106801102D01*
X179421852Y-106887885D01*
X179859627Y-106450110D01*
X179903821Y-106431804D01*
X179948015Y-106450110D01*
X179952685Y-106455335D01*
X179959283Y-106463608D01*
X180014998Y-106533472D01*
X180014999Y-106533473D01*
X180015001Y-106533475D01*
X180066352Y-106568485D01*
X180092555Y-106608505D01*
X180082785Y-106655332D01*
X180075339Y-106664319D01*
X179633668Y-107105991D01*
X179637153Y-107109168D01*
X179637158Y-107109172D01*
X179815133Y-107219369D01*
X180010326Y-107294986D01*
X180216081Y-107333449D01*
X180216089Y-107333450D01*
X180425411Y-107333450D01*
X180425418Y-107333449D01*
X180631173Y-107294986D01*
X180826366Y-107219369D01*
X181004343Y-107109170D01*
X181007830Y-107105991D01*
X180569655Y-106667816D01*
X180551349Y-106623622D01*
X180569655Y-106579428D01*
X180571339Y-106577806D01*
X180573971Y-106575362D01*
X180573974Y-106575362D01*
X180672200Y-106484222D01*
X180684102Y-106463606D01*
X180722049Y-106434486D01*
X180769476Y-106440728D01*
X180782422Y-106450662D01*
X181219646Y-106887886D01*
X181219646Y-106887885D01*
X181285185Y-106801100D01*
X181378489Y-106613721D01*
X181435774Y-106412388D01*
X181435776Y-106412376D01*
X181455089Y-106203954D01*
X181455089Y-106203945D01*
X181435776Y-105995523D01*
X181435774Y-105995511D01*
X181378489Y-105794178D01*
X181285183Y-105606797D01*
X181219646Y-105520013D01*
X181219646Y-105520012D01*
X180781871Y-105957788D01*
X180737677Y-105976094D01*
X180693483Y-105957788D01*
X180688813Y-105952562D01*
X180626504Y-105874430D01*
X180626502Y-105874429D01*
X180626502Y-105874428D01*
X180587034Y-105847519D01*
X180575145Y-105839413D01*
X180548943Y-105799392D01*
X180558713Y-105752565D01*
X180566159Y-105743579D01*
X181007829Y-105301908D01*
X181004345Y-105298731D01*
X181004340Y-105298727D01*
X180826366Y-105188530D01*
X180631173Y-105112913D01*
X180425418Y-105074450D01*
X180216081Y-105074450D01*
X180010326Y-105112913D01*
X179815130Y-105188531D01*
X179815128Y-105188532D01*
X179637162Y-105298725D01*
X179637154Y-105298731D01*
X179633669Y-105301907D01*
X179633669Y-105301908D01*
X180071844Y-105740083D01*
X180090150Y-105784277D01*
X180071844Y-105828471D01*
X180070161Y-105830093D01*
X179969297Y-105923680D01*
X179957397Y-105944293D01*
X179919447Y-105973413D01*
X179872021Y-105967169D01*
X179859077Y-105957237D01*
X179421852Y-105520013D01*
X179356316Y-105606797D01*
X179263010Y-105794178D01*
X179205725Y-105995511D01*
X179205723Y-105995523D01*
X179186411Y-106203945D01*
X179186411Y-106203954D01*
X178916394Y-106203954D01*
X178916394Y-106203953D01*
X178916394Y-106203946D01*
X178897059Y-105995283D01*
X178897057Y-105995272D01*
X178876686Y-105923678D01*
X178839706Y-105793708D01*
X178746294Y-105606110D01*
X178620001Y-105438872D01*
X178465128Y-105297687D01*
X178465129Y-105297687D01*
X178286954Y-105187365D01*
X178286951Y-105187364D01*
X178286950Y-105187363D01*
X178091534Y-105111658D01*
X178091532Y-105111657D01*
X178091528Y-105111656D01*
X177885538Y-105073150D01*
X177885534Y-105073150D01*
X177675966Y-105073150D01*
X177675961Y-105073150D01*
X177469971Y-105111656D01*
X177274545Y-105187365D01*
X177096370Y-105297687D01*
X176941497Y-105438874D01*
X176941495Y-105438876D01*
X176815206Y-105606110D01*
X176721794Y-105793707D01*
X176664442Y-105995272D01*
X176664440Y-105995283D01*
X176645106Y-106203946D01*
X176645106Y-106203953D01*
X156470650Y-106203953D01*
X156470650Y-103663950D01*
X176797616Y-103663950D01*
X176816506Y-103855748D01*
X176816507Y-103855750D01*
X176864738Y-104014747D01*
X176872455Y-104040184D01*
X176963300Y-104210144D01*
X176963304Y-104210150D01*
X177085569Y-104359131D01*
X177234550Y-104481396D01*
X177234552Y-104481397D01*
X177234555Y-104481399D01*
X177379644Y-104558950D01*
X177404521Y-104572247D01*
X177588950Y-104628193D01*
X177780750Y-104647084D01*
X177972550Y-104628193D01*
X178156979Y-104572247D01*
X178326950Y-104481396D01*
X178475931Y-104359131D01*
X178598196Y-104210150D01*
X178689047Y-104040179D01*
X178744993Y-103855750D01*
X178763884Y-103663950D01*
X179337616Y-103663950D01*
X179356506Y-103855748D01*
X179356507Y-103855750D01*
X179404738Y-104014747D01*
X179412455Y-104040184D01*
X179503300Y-104210144D01*
X179503304Y-104210150D01*
X179625569Y-104359131D01*
X179774550Y-104481396D01*
X179774552Y-104481397D01*
X179774555Y-104481399D01*
X179919644Y-104558950D01*
X179944521Y-104572247D01*
X180128950Y-104628193D01*
X180320750Y-104647084D01*
X180512550Y-104628193D01*
X180696979Y-104572247D01*
X180866950Y-104481396D01*
X181015931Y-104359131D01*
X181138196Y-104210150D01*
X181229047Y-104040179D01*
X181284993Y-103855750D01*
X181303884Y-103663950D01*
X181284993Y-103472150D01*
X181229047Y-103287721D01*
X181229044Y-103287715D01*
X181138199Y-103117755D01*
X181138195Y-103117749D01*
X181015931Y-102968769D01*
X180866950Y-102846504D01*
X180866944Y-102846500D01*
X180696984Y-102755655D01*
X180696981Y-102755654D01*
X180696979Y-102755653D01*
X180595302Y-102724809D01*
X180512548Y-102699706D01*
X180320750Y-102680816D01*
X180128951Y-102699706D01*
X179982370Y-102744171D01*
X179944521Y-102755653D01*
X179944520Y-102755653D01*
X179944515Y-102755655D01*
X179774555Y-102846500D01*
X179774549Y-102846504D01*
X179625569Y-102968769D01*
X179503304Y-103117749D01*
X179503300Y-103117755D01*
X179412455Y-103287715D01*
X179356506Y-103472151D01*
X179337616Y-103663949D01*
X179337616Y-103663950D01*
X178763884Y-103663950D01*
X178744993Y-103472150D01*
X178689047Y-103287721D01*
X178689044Y-103287715D01*
X178598199Y-103117755D01*
X178598195Y-103117749D01*
X178475931Y-102968769D01*
X178326950Y-102846504D01*
X178326944Y-102846500D01*
X178156984Y-102755655D01*
X178156981Y-102755654D01*
X178156979Y-102755653D01*
X178055302Y-102724809D01*
X177972548Y-102699706D01*
X177780750Y-102680816D01*
X177588951Y-102699706D01*
X177442370Y-102744171D01*
X177404521Y-102755653D01*
X177404520Y-102755653D01*
X177404515Y-102755655D01*
X177234555Y-102846500D01*
X177234549Y-102846504D01*
X177085569Y-102968769D01*
X176963304Y-103117749D01*
X176963300Y-103117755D01*
X176872455Y-103287715D01*
X176816506Y-103472151D01*
X176797616Y-103663949D01*
X176797616Y-103663950D01*
X156470650Y-103663950D01*
X156470650Y-102075553D01*
X156488956Y-102031359D01*
X156499353Y-102022980D01*
X156518768Y-102010503D01*
X156612132Y-101902756D01*
X156671358Y-101773069D01*
X156673388Y-101758949D01*
X156959852Y-101758949D01*
X156980141Y-101900067D01*
X156980142Y-101900070D01*
X157039367Y-102029754D01*
X157039370Y-102029759D01*
X157130198Y-102134579D01*
X157132732Y-102137503D01*
X157252669Y-102214583D01*
X157389462Y-102254749D01*
X157389464Y-102254750D01*
X157389465Y-102254750D01*
X157532036Y-102254750D01*
X157532036Y-102254749D01*
X157668831Y-102214583D01*
X157728799Y-102176043D01*
X157788764Y-102137506D01*
X157788764Y-102137505D01*
X157788768Y-102137503D01*
X157789530Y-102136622D01*
X157790132Y-102136321D01*
X157792143Y-102134579D01*
X157792587Y-102135092D01*
X157832305Y-102115209D01*
X157836766Y-102115050D01*
X163434734Y-102115050D01*
X163478928Y-102133356D01*
X163481962Y-102136614D01*
X163482732Y-102137503D01*
X163482735Y-102137506D01*
X163602664Y-102214580D01*
X163602669Y-102214583D01*
X163739462Y-102254749D01*
X163739464Y-102254750D01*
X163739465Y-102254750D01*
X163882036Y-102254750D01*
X163882036Y-102254749D01*
X164018831Y-102214583D01*
X164138768Y-102137503D01*
X164232132Y-102029756D01*
X164261932Y-101964504D01*
X176802350Y-101964504D01*
X176802351Y-101964508D01*
X176811221Y-102009106D01*
X176811222Y-102009108D01*
X176845016Y-102059684D01*
X176895592Y-102093478D01*
X176940193Y-102102350D01*
X178621306Y-102102349D01*
X178665908Y-102093478D01*
X178716484Y-102059684D01*
X178750278Y-102009108D01*
X178759150Y-101964507D01*
X178759150Y-101123953D01*
X179185106Y-101123953D01*
X179204440Y-101332616D01*
X179204442Y-101332627D01*
X179249457Y-101490832D01*
X179261794Y-101534192D01*
X179355206Y-101721790D01*
X179481499Y-101889028D01*
X179636371Y-102030212D01*
X179636370Y-102030212D01*
X179805756Y-102135092D01*
X179814550Y-102140537D01*
X180009966Y-102216242D01*
X180215966Y-102254750D01*
X180215969Y-102254750D01*
X180425531Y-102254750D01*
X180425534Y-102254750D01*
X180631534Y-102216242D01*
X180826950Y-102140537D01*
X181005128Y-102030213D01*
X181160001Y-101889028D01*
X181286294Y-101721790D01*
X181379706Y-101534192D01*
X181437058Y-101332624D01*
X181437059Y-101332616D01*
X181456394Y-101123953D01*
X181456394Y-101123946D01*
X181437059Y-100915283D01*
X181437057Y-100915272D01*
X181427776Y-100882657D01*
X181379706Y-100713708D01*
X181286294Y-100526110D01*
X181160001Y-100358872D01*
X181005128Y-100217687D01*
X181005129Y-100217687D01*
X180826954Y-100107365D01*
X180826951Y-100107364D01*
X180826950Y-100107363D01*
X180631534Y-100031658D01*
X180631532Y-100031657D01*
X180631528Y-100031656D01*
X180425538Y-99993150D01*
X180425534Y-99993150D01*
X180215966Y-99993150D01*
X180215961Y-99993150D01*
X180009971Y-100031656D01*
X179814545Y-100107365D01*
X179636370Y-100217687D01*
X179481497Y-100358874D01*
X179481495Y-100358876D01*
X179355206Y-100526110D01*
X179261794Y-100713707D01*
X179204442Y-100915272D01*
X179204440Y-100915283D01*
X179185106Y-101123946D01*
X179185106Y-101123953D01*
X178759150Y-101123953D01*
X178759149Y-100283394D01*
X178750278Y-100238792D01*
X178716484Y-100188216D01*
X178665908Y-100154422D01*
X178665907Y-100154421D01*
X178630177Y-100147314D01*
X178621307Y-100145550D01*
X178621306Y-100145550D01*
X176940195Y-100145550D01*
X176940191Y-100145551D01*
X176895593Y-100154421D01*
X176895592Y-100154422D01*
X176845016Y-100188216D01*
X176811221Y-100238792D01*
X176802350Y-100283393D01*
X176802350Y-101964504D01*
X164261932Y-101964504D01*
X164291358Y-101900069D01*
X164311648Y-101758950D01*
X164291358Y-101617831D01*
X164232132Y-101488144D01*
X164142361Y-101384544D01*
X164138769Y-101380398D01*
X164138768Y-101380397D01*
X164095912Y-101352854D01*
X164018832Y-101303317D01*
X164018826Y-101303315D01*
X163882037Y-101263150D01*
X163882035Y-101263150D01*
X163739465Y-101263150D01*
X163739463Y-101263150D01*
X163602673Y-101303315D01*
X163602664Y-101303319D01*
X163482735Y-101380393D01*
X163482730Y-101380397D01*
X163482732Y-101380397D01*
X163481969Y-101381277D01*
X163481367Y-101381578D01*
X163479357Y-101383321D01*
X163478912Y-101382807D01*
X163439195Y-101402691D01*
X163434734Y-101402850D01*
X157836766Y-101402850D01*
X157792572Y-101384544D01*
X157789537Y-101381285D01*
X157788768Y-101380397D01*
X157788766Y-101380396D01*
X157788764Y-101380393D01*
X157668835Y-101303319D01*
X157668826Y-101303315D01*
X157532037Y-101263150D01*
X157532035Y-101263150D01*
X157389465Y-101263150D01*
X157389463Y-101263150D01*
X157252673Y-101303315D01*
X157252667Y-101303317D01*
X157132730Y-101380398D01*
X157039370Y-101488140D01*
X157039367Y-101488145D01*
X156980142Y-101617829D01*
X156980141Y-101617832D01*
X156959852Y-101758949D01*
X156673388Y-101758949D01*
X156691648Y-101631950D01*
X156671358Y-101490831D01*
X156612132Y-101361144D01*
X156610741Y-101359539D01*
X156518769Y-101253398D01*
X156518768Y-101253397D01*
X156475912Y-101225854D01*
X156398832Y-101176317D01*
X156398826Y-101176315D01*
X156262037Y-101136150D01*
X156262035Y-101136150D01*
X156119465Y-101136150D01*
X156119463Y-101136150D01*
X155982673Y-101176315D01*
X155982667Y-101176317D01*
X155862730Y-101253398D01*
X155769370Y-101361140D01*
X155769367Y-101361145D01*
X155710142Y-101490829D01*
X155710141Y-101490832D01*
X155689852Y-101631950D01*
X147783388Y-101631950D01*
X147781358Y-101617831D01*
X147722132Y-101488144D01*
X147628768Y-101380397D01*
X147628767Y-101380396D01*
X147609358Y-101367922D01*
X147582078Y-101328628D01*
X147580650Y-101315345D01*
X147580650Y-99662553D01*
X147598956Y-99618359D01*
X147609353Y-99609980D01*
X147628768Y-99597503D01*
X147722132Y-99489756D01*
X147781358Y-99360069D01*
X147801648Y-99218950D01*
X147781358Y-99077831D01*
X147722132Y-98948144D01*
X147628768Y-98840397D01*
X147585912Y-98812854D01*
X147508832Y-98763317D01*
X147508826Y-98763315D01*
X147372037Y-98723150D01*
X147372035Y-98723150D01*
X147229465Y-98723150D01*
X147229463Y-98723150D01*
X147092673Y-98763315D01*
X147092667Y-98763317D01*
X146972730Y-98840398D01*
X146879370Y-98948140D01*
X146879367Y-98948145D01*
X146820142Y-99077829D01*
X146820141Y-99077832D01*
X146801984Y-99204123D01*
X146799852Y-99218950D01*
X146803145Y-99241851D01*
X146820141Y-99360067D01*
X146820142Y-99360070D01*
X146879367Y-99489754D01*
X146879370Y-99489759D01*
X146890252Y-99502317D01*
X146972732Y-99597503D01*
X146992140Y-99609976D01*
X147019421Y-99649266D01*
X147020850Y-99662553D01*
X147020850Y-101315345D01*
X147002544Y-101359539D01*
X146992142Y-101367922D01*
X146972732Y-101380396D01*
X146972731Y-101380397D01*
X146879370Y-101488140D01*
X146879367Y-101488145D01*
X146820142Y-101617829D01*
X146820141Y-101617832D01*
X146799852Y-101758949D01*
X138188792Y-101758949D01*
X138200956Y-101729582D01*
X139374488Y-100556050D01*
X140601176Y-99329361D01*
X140609990Y-99323023D01*
X140609727Y-99322674D01*
X140614346Y-99319185D01*
X140614349Y-99319184D01*
X140644758Y-99285825D01*
X140645717Y-99284820D01*
X140659008Y-99271531D01*
X140661459Y-99267950D01*
X140664150Y-99264554D01*
X140684848Y-99241851D01*
X140689400Y-99230099D01*
X140696113Y-99217363D01*
X140703236Y-99206966D01*
X140710271Y-99177050D01*
X140711543Y-99172941D01*
X140722650Y-99144272D01*
X140722650Y-99131668D01*
X140724310Y-99117358D01*
X140727193Y-99105100D01*
X140722950Y-99074681D01*
X140722650Y-99070358D01*
X140722650Y-97757553D01*
X140728262Y-97744004D01*
X173402850Y-97744004D01*
X173402851Y-97744008D01*
X173411721Y-97788606D01*
X173411722Y-97788608D01*
X173445516Y-97839184D01*
X173496092Y-97872978D01*
X173540693Y-97881850D01*
X175670806Y-97881849D01*
X175715408Y-97872978D01*
X175765984Y-97839184D01*
X175799778Y-97788608D01*
X175808650Y-97744007D01*
X175808649Y-96111718D01*
X178466337Y-96111718D01*
X178481212Y-96246905D01*
X178495967Y-96381004D01*
X178564489Y-96643103D01*
X178670442Y-96892432D01*
X178771183Y-97057501D01*
X178811570Y-97123678D01*
X178984859Y-97331907D01*
X178984873Y-97331921D01*
X179186615Y-97512682D01*
X179186620Y-97512686D01*
X179186625Y-97512690D01*
X179305835Y-97591558D01*
X179412565Y-97662170D01*
X179615224Y-97757172D01*
X179657854Y-97777157D01*
X179917276Y-97855205D01*
X180185296Y-97894650D01*
X180185297Y-97894650D01*
X180388388Y-97894650D01*
X180590926Y-97879826D01*
X180590928Y-97879825D01*
X180590935Y-97879825D01*
X180855361Y-97820922D01*
X181108393Y-97724145D01*
X181344638Y-97591558D01*
X181559060Y-97425987D01*
X181747090Y-97230959D01*
X181904720Y-97010633D01*
X182028590Y-96769703D01*
X182116061Y-96513306D01*
X182165268Y-96246905D01*
X182175162Y-95976178D01*
X182145533Y-95706896D01*
X182077011Y-95444797D01*
X181971058Y-95195468D01*
X181829931Y-94964224D01*
X181656639Y-94755991D01*
X181656626Y-94755978D01*
X181454884Y-94575217D01*
X181454877Y-94575212D01*
X181454875Y-94575210D01*
X181335667Y-94496343D01*
X181228934Y-94425729D01*
X180983649Y-94310744D01*
X180983644Y-94310742D01*
X180724233Y-94232697D01*
X180724219Y-94232694D01*
X180456210Y-94193250D01*
X180456204Y-94193250D01*
X180253118Y-94193250D01*
X180253112Y-94193250D01*
X180050573Y-94208073D01*
X179786136Y-94266978D01*
X179533105Y-94363755D01*
X179296859Y-94496343D01*
X179082441Y-94661912D01*
X179082432Y-94661919D01*
X178894412Y-94856937D01*
X178894405Y-94856946D01*
X178736778Y-95077268D01*
X178612909Y-95318198D01*
X178612906Y-95318204D01*
X178525442Y-95574581D01*
X178525437Y-95574602D01*
X178476233Y-95840986D01*
X178476231Y-95841007D01*
X178466337Y-96111718D01*
X175808649Y-96111718D01*
X175808649Y-95613894D01*
X175799778Y-95569292D01*
X175765984Y-95518716D01*
X175715408Y-95484922D01*
X175715407Y-95484921D01*
X175679677Y-95477814D01*
X175670807Y-95476050D01*
X175670806Y-95476050D01*
X173540695Y-95476050D01*
X173540691Y-95476051D01*
X173496093Y-95484921D01*
X173496092Y-95484922D01*
X173445516Y-95518716D01*
X173411721Y-95569292D01*
X173402850Y-95613893D01*
X173402850Y-97744004D01*
X140728262Y-97744004D01*
X140740956Y-97713359D01*
X140751353Y-97704980D01*
X140770768Y-97692503D01*
X140864132Y-97584756D01*
X140923358Y-97455069D01*
X140943648Y-97313950D01*
X140923358Y-97172831D01*
X140864132Y-97043144D01*
X140770768Y-96935397D01*
X140703911Y-96892430D01*
X140650832Y-96858317D01*
X140650826Y-96858315D01*
X140514037Y-96818150D01*
X140514035Y-96818150D01*
X140371465Y-96818150D01*
X140371463Y-96818150D01*
X140234673Y-96858315D01*
X140234667Y-96858317D01*
X140114730Y-96935398D01*
X140021370Y-97043140D01*
X140021367Y-97043145D01*
X139991602Y-97108322D01*
X139956592Y-97140918D01*
X139908787Y-97139211D01*
X139877898Y-97108322D01*
X139867667Y-97085921D01*
X139848132Y-97043144D01*
X139754768Y-96935397D01*
X139687911Y-96892430D01*
X139634832Y-96858317D01*
X139634826Y-96858315D01*
X139498037Y-96818150D01*
X139498035Y-96818150D01*
X139355465Y-96818150D01*
X139355463Y-96818150D01*
X139218673Y-96858315D01*
X139218667Y-96858317D01*
X139098730Y-96935398D01*
X139005370Y-97043140D01*
X139005367Y-97043145D01*
X138946142Y-97172829D01*
X138946141Y-97172832D01*
X138934063Y-97256838D01*
X138909654Y-97297977D01*
X138863304Y-97309807D01*
X138824965Y-97288872D01*
X138738769Y-97189398D01*
X138738768Y-97189397D01*
X138695911Y-97161854D01*
X138618832Y-97112317D01*
X138618826Y-97112315D01*
X138482037Y-97072150D01*
X138482035Y-97072150D01*
X138339465Y-97072150D01*
X138339463Y-97072150D01*
X138202673Y-97112315D01*
X138202667Y-97112317D01*
X138082730Y-97189398D01*
X137989370Y-97297140D01*
X137989367Y-97297145D01*
X137959602Y-97362322D01*
X137924592Y-97394918D01*
X137876787Y-97393211D01*
X137845898Y-97362322D01*
X137816132Y-97297145D01*
X137816132Y-97297144D01*
X137808964Y-97288872D01*
X137722769Y-97189398D01*
X137722768Y-97189397D01*
X137679911Y-97161854D01*
X137602832Y-97112317D01*
X137602826Y-97112315D01*
X137466037Y-97072150D01*
X137466035Y-97072150D01*
X137323465Y-97072150D01*
X137323463Y-97072150D01*
X137186673Y-97112315D01*
X137186667Y-97112317D01*
X137066730Y-97189398D01*
X136973370Y-97297140D01*
X136973367Y-97297145D01*
X136914142Y-97426829D01*
X136914141Y-97426832D01*
X136893852Y-97567950D01*
X136914141Y-97709067D01*
X136914142Y-97709070D01*
X136973367Y-97838754D01*
X136973370Y-97838759D01*
X137066730Y-97946501D01*
X137066732Y-97946503D01*
X137086140Y-97958976D01*
X137113421Y-97998266D01*
X137114850Y-98011553D01*
X137114850Y-99712123D01*
X137096544Y-99756317D01*
X136220324Y-100632536D01*
X136211512Y-100638879D01*
X136211773Y-100639225D01*
X136207150Y-100642716D01*
X136176748Y-100676065D01*
X136175753Y-100677108D01*
X136162492Y-100690369D01*
X136162487Y-100690375D01*
X136160038Y-100693950D01*
X136157351Y-100697341D01*
X136136653Y-100720046D01*
X136136652Y-100720049D01*
X136132101Y-100731796D01*
X136125387Y-100744535D01*
X136118264Y-100754934D01*
X136118263Y-100754935D01*
X136111230Y-100784839D01*
X136109948Y-100788978D01*
X136098850Y-100817627D01*
X136098850Y-100830227D01*
X136097190Y-100844536D01*
X136094306Y-100856798D01*
X119928649Y-100856798D01*
X119928649Y-100693894D01*
X119919778Y-100649292D01*
X119885984Y-100598716D01*
X119835408Y-100564922D01*
X119835407Y-100564921D01*
X119799677Y-100557814D01*
X119790807Y-100556050D01*
X119790806Y-100556050D01*
X117660695Y-100556050D01*
X117660691Y-100556051D01*
X117616093Y-100564921D01*
X117616092Y-100564922D01*
X117565516Y-100598716D01*
X117531721Y-100649292D01*
X117522850Y-100693893D01*
X117522850Y-102824004D01*
X114306250Y-102824004D01*
X114306250Y-96678949D01*
X160134852Y-96678949D01*
X160155141Y-96820067D01*
X160155142Y-96820070D01*
X160214367Y-96949754D01*
X160214370Y-96949759D01*
X160307730Y-97057501D01*
X160307732Y-97057503D01*
X160386807Y-97108322D01*
X160410697Y-97123676D01*
X160427669Y-97134583D01*
X160557933Y-97172832D01*
X160564462Y-97174749D01*
X160564464Y-97174750D01*
X160564465Y-97174750D01*
X160707036Y-97174750D01*
X160707036Y-97174749D01*
X160843831Y-97134583D01*
X160963768Y-97057503D01*
X161030560Y-96980420D01*
X161073335Y-96959009D01*
X161077794Y-96958850D01*
X162733706Y-96958850D01*
X162777900Y-96977156D01*
X162780940Y-96980421D01*
X162835290Y-97043145D01*
X162847732Y-97057503D01*
X162926807Y-97108322D01*
X162950697Y-97123676D01*
X162967669Y-97134583D01*
X163097933Y-97172832D01*
X163104462Y-97174749D01*
X163104464Y-97174750D01*
X163104465Y-97174750D01*
X163247036Y-97174750D01*
X163247036Y-97174749D01*
X163383831Y-97134583D01*
X163503768Y-97057503D01*
X163597132Y-96949756D01*
X163656358Y-96820069D01*
X163676648Y-96678950D01*
X163656358Y-96537831D01*
X163597132Y-96408144D01*
X163589114Y-96398891D01*
X163503769Y-96300398D01*
X163503768Y-96300397D01*
X163420547Y-96246913D01*
X163383832Y-96223317D01*
X163383826Y-96223315D01*
X163247037Y-96183150D01*
X163247035Y-96183150D01*
X163104465Y-96183150D01*
X163104463Y-96183150D01*
X162967673Y-96223315D01*
X162967667Y-96223317D01*
X162847730Y-96300398D01*
X162780940Y-96377479D01*
X162738165Y-96398891D01*
X162733706Y-96399050D01*
X161077794Y-96399050D01*
X161033600Y-96380744D01*
X161030560Y-96377479D01*
X160963769Y-96300398D01*
X160963768Y-96300397D01*
X160880547Y-96246913D01*
X160843832Y-96223317D01*
X160843826Y-96223315D01*
X160707037Y-96183150D01*
X160707035Y-96183150D01*
X160564465Y-96183150D01*
X160564463Y-96183150D01*
X160427673Y-96223315D01*
X160427667Y-96223317D01*
X160307730Y-96300398D01*
X160214370Y-96408140D01*
X160214367Y-96408145D01*
X160155142Y-96537829D01*
X160155141Y-96537832D01*
X160134852Y-96678949D01*
X114306250Y-96678949D01*
X114306250Y-93178949D01*
X173247110Y-93178949D01*
X173265640Y-93402574D01*
X173320725Y-93620098D01*
X173320726Y-93620102D01*
X173410863Y-93825593D01*
X173410865Y-93825596D01*
X173533591Y-94013442D01*
X173533600Y-94013454D01*
X173544472Y-94025264D01*
X173544474Y-94025264D01*
X173961943Y-93607795D01*
X174006137Y-93589489D01*
X174050331Y-93607795D01*
X174052909Y-93610534D01*
X174138155Y-93706756D01*
X174167989Y-93727349D01*
X174193961Y-93767519D01*
X174183922Y-93814289D01*
X174176679Y-93822979D01*
X173761794Y-94237863D01*
X173761795Y-94237864D01*
X173862642Y-94316357D01*
X173862649Y-94316361D01*
X174059984Y-94423152D01*
X174059991Y-94423155D01*
X174272223Y-94496015D01*
X174493552Y-94532949D01*
X174493560Y-94532950D01*
X174717940Y-94532950D01*
X174717947Y-94532949D01*
X174939276Y-94496015D01*
X175151508Y-94423155D01*
X175151515Y-94423152D01*
X175348854Y-94316359D01*
X175449703Y-94237863D01*
X175449704Y-94237863D01*
X175034819Y-93822979D01*
X175016513Y-93778785D01*
X175034819Y-93734591D01*
X175043499Y-93727356D01*
X175073345Y-93706756D01*
X175158581Y-93610544D01*
X175201588Y-93589604D01*
X175246807Y-93605208D01*
X175249556Y-93607796D01*
X175667024Y-94025265D01*
X175667025Y-94025264D01*
X175677906Y-94013445D01*
X175677912Y-94013438D01*
X175800634Y-93825597D01*
X175800636Y-93825593D01*
X175890773Y-93620102D01*
X175890774Y-93620098D01*
X175945859Y-93402574D01*
X175964389Y-93178949D01*
X175945859Y-92955325D01*
X175890774Y-92737801D01*
X175890773Y-92737797D01*
X175800636Y-92532306D01*
X175800634Y-92532303D01*
X175677909Y-92344458D01*
X175667024Y-92332634D01*
X175249555Y-92750103D01*
X175205361Y-92768409D01*
X175161167Y-92750103D01*
X175158592Y-92747367D01*
X175073345Y-92651144D01*
X175073342Y-92651141D01*
X175043509Y-92630549D01*
X175017537Y-92590379D01*
X175027577Y-92543609D01*
X175034819Y-92534919D01*
X175449704Y-92120035D01*
X175449703Y-92120034D01*
X175348857Y-92041542D01*
X175348850Y-92041538D01*
X175151515Y-91934747D01*
X175151508Y-91934744D01*
X174939276Y-91861884D01*
X174717947Y-91824950D01*
X174493552Y-91824950D01*
X174272223Y-91861884D01*
X174059991Y-91934744D01*
X174059984Y-91934747D01*
X173862649Y-92041538D01*
X173761794Y-92120035D01*
X174176679Y-92534919D01*
X174194985Y-92579113D01*
X174176679Y-92623307D01*
X174167991Y-92630548D01*
X174138156Y-92651142D01*
X174138153Y-92651145D01*
X174052919Y-92747354D01*
X174009910Y-92768295D01*
X173964692Y-92752691D01*
X173961943Y-92750103D01*
X173544474Y-92332634D01*
X173544473Y-92332634D01*
X173533593Y-92344454D01*
X173410865Y-92532303D01*
X173410863Y-92532306D01*
X173320726Y-92737797D01*
X173320725Y-92737801D01*
X173265640Y-92955325D01*
X173247110Y-93178949D01*
X114306250Y-93178949D01*
X114306250Y-89678953D01*
X173397697Y-89678953D01*
X173418264Y-89900921D01*
X173418266Y-89900932D01*
X173479274Y-90115349D01*
X173578643Y-90314908D01*
X173578644Y-90314909D01*
X173578646Y-90314913D01*
X173712979Y-90492800D01*
X173712984Y-90492805D01*
X173712988Y-90492810D01*
X173877734Y-90642996D01*
X173877733Y-90642996D01*
X174067270Y-90760353D01*
X174067271Y-90760354D01*
X174067274Y-90760355D01*
X174275151Y-90840886D01*
X174494285Y-90881850D01*
X174494288Y-90881850D01*
X174717212Y-90881850D01*
X174717215Y-90881850D01*
X174936349Y-90840886D01*
X175144226Y-90760355D01*
X175333765Y-90642997D01*
X175498512Y-90492810D01*
X175632857Y-90314908D01*
X175732226Y-90115349D01*
X175793234Y-89900929D01*
X175813803Y-89678950D01*
X175793234Y-89456971D01*
X175732226Y-89242551D01*
X175632857Y-89042992D01*
X175632854Y-89042988D01*
X175632853Y-89042986D01*
X175498520Y-88865099D01*
X175498515Y-88865094D01*
X175498512Y-88865090D01*
X175333765Y-88714903D01*
X175333766Y-88714903D01*
X175144229Y-88597546D01*
X175144228Y-88597545D01*
X174936346Y-88517013D01*
X174717217Y-88476050D01*
X174717215Y-88476050D01*
X174494285Y-88476050D01*
X174494282Y-88476050D01*
X174275153Y-88517013D01*
X174067271Y-88597545D01*
X174067270Y-88597546D01*
X173877733Y-88714903D01*
X173712986Y-88865092D01*
X173712979Y-88865099D01*
X173578646Y-89042986D01*
X173578643Y-89042992D01*
X173479274Y-89242550D01*
X173418266Y-89456967D01*
X173418264Y-89456978D01*
X173397697Y-89678946D01*
X173397697Y-89678953D01*
X114306250Y-89678953D01*
X114306250Y-86178950D01*
X173247110Y-86178950D01*
X173265640Y-86402574D01*
X173320725Y-86620098D01*
X173320726Y-86620102D01*
X173410863Y-86825593D01*
X173410865Y-86825596D01*
X173533591Y-87013442D01*
X173533600Y-87013454D01*
X173544472Y-87025264D01*
X173544474Y-87025264D01*
X173961943Y-86607795D01*
X174006137Y-86589489D01*
X174050331Y-86607795D01*
X174052909Y-86610534D01*
X174138155Y-86706756D01*
X174167989Y-86727349D01*
X174193961Y-86767519D01*
X174183922Y-86814289D01*
X174176679Y-86822979D01*
X173761794Y-87237863D01*
X173761795Y-87237864D01*
X173862642Y-87316357D01*
X173862649Y-87316361D01*
X174059984Y-87423152D01*
X174059991Y-87423155D01*
X174272223Y-87496015D01*
X174493552Y-87532949D01*
X174493560Y-87532950D01*
X174717940Y-87532950D01*
X174717947Y-87532949D01*
X174939276Y-87496015D01*
X175151508Y-87423155D01*
X175151515Y-87423152D01*
X175348854Y-87316359D01*
X175449703Y-87237863D01*
X175449704Y-87237863D01*
X175034819Y-86822979D01*
X175016513Y-86778785D01*
X175034819Y-86734591D01*
X175043499Y-86727356D01*
X175073345Y-86706756D01*
X175158581Y-86610544D01*
X175201588Y-86589604D01*
X175246807Y-86605208D01*
X175249556Y-86607796D01*
X175667024Y-87025265D01*
X175667025Y-87025264D01*
X175677906Y-87013445D01*
X175677912Y-87013438D01*
X175800634Y-86825597D01*
X175800636Y-86825593D01*
X175890773Y-86620102D01*
X175890774Y-86620098D01*
X175945859Y-86402574D01*
X175964389Y-86178950D01*
X175945859Y-85955325D01*
X175890774Y-85737801D01*
X175890773Y-85737797D01*
X175800636Y-85532306D01*
X175800634Y-85532303D01*
X175677909Y-85344458D01*
X175667024Y-85332634D01*
X175249555Y-85750103D01*
X175205361Y-85768409D01*
X175161167Y-85750103D01*
X175158592Y-85747367D01*
X175073345Y-85651144D01*
X175073342Y-85651141D01*
X175043509Y-85630549D01*
X175017537Y-85590379D01*
X175027577Y-85543609D01*
X175034819Y-85534919D01*
X175449704Y-85120035D01*
X175449703Y-85120034D01*
X175348857Y-85041542D01*
X175348850Y-85041538D01*
X175151515Y-84934747D01*
X175151508Y-84934744D01*
X174939276Y-84861884D01*
X174717947Y-84824950D01*
X174493552Y-84824950D01*
X174272223Y-84861884D01*
X174059991Y-84934744D01*
X174059984Y-84934747D01*
X173862649Y-85041538D01*
X173761794Y-85120035D01*
X174176679Y-85534919D01*
X174194985Y-85579113D01*
X174176679Y-85623307D01*
X174167991Y-85630548D01*
X174138156Y-85651142D01*
X174138153Y-85651145D01*
X174052919Y-85747354D01*
X174009910Y-85768295D01*
X173964692Y-85752691D01*
X173961943Y-85750103D01*
X173544474Y-85332634D01*
X173544473Y-85332634D01*
X173533593Y-85344454D01*
X173410865Y-85532303D01*
X173410863Y-85532306D01*
X173320726Y-85737797D01*
X173320725Y-85737801D01*
X173265640Y-85955325D01*
X173247110Y-86178950D01*
X114306250Y-86178950D01*
X114306250Y-84359950D01*
X139941852Y-84359950D01*
X139962141Y-84501067D01*
X139962142Y-84501070D01*
X140021367Y-84630754D01*
X140021370Y-84630759D01*
X140067298Y-84683762D01*
X140114732Y-84738503D01*
X140234669Y-84815583D01*
X140371462Y-84855749D01*
X140371464Y-84855750D01*
X140371465Y-84855750D01*
X140514036Y-84855750D01*
X140514036Y-84855749D01*
X140650831Y-84815583D01*
X140770768Y-84738503D01*
X140837560Y-84661420D01*
X140880335Y-84640009D01*
X140884794Y-84639850D01*
X141140122Y-84639850D01*
X141184316Y-84658156D01*
X141202622Y-84702350D01*
X141184316Y-84746544D01*
X140815017Y-85115844D01*
X140770823Y-85134150D01*
X140625463Y-85134150D01*
X140488673Y-85174315D01*
X140488667Y-85174317D01*
X140368730Y-85251398D01*
X140275370Y-85359140D01*
X140275367Y-85359145D01*
X140216142Y-85488829D01*
X140216141Y-85488832D01*
X140195852Y-85629950D01*
X140216141Y-85771067D01*
X140216142Y-85771070D01*
X140275367Y-85900754D01*
X140275370Y-85900759D01*
X140368730Y-86008501D01*
X140368732Y-86008503D01*
X140488669Y-86085583D01*
X140625462Y-86125749D01*
X140625464Y-86125750D01*
X140625465Y-86125750D01*
X140768036Y-86125750D01*
X140768036Y-86125749D01*
X140904831Y-86085583D01*
X141024768Y-86008503D01*
X141118132Y-85900756D01*
X141177358Y-85771069D01*
X141197648Y-85629950D01*
X141188893Y-85569061D01*
X141200723Y-85522712D01*
X141206556Y-85515980D01*
X141556381Y-85166156D01*
X141600576Y-85147850D01*
X144704896Y-85147850D01*
X144715617Y-85149598D01*
X144715678Y-85149168D01*
X144721408Y-85149967D01*
X144721410Y-85149968D01*
X144721411Y-85149967D01*
X144721412Y-85149968D01*
X144726961Y-85149711D01*
X144766520Y-85147882D01*
X144767936Y-85147850D01*
X144786679Y-85147850D01*
X144786685Y-85147850D01*
X144790960Y-85147050D01*
X144795239Y-85146554D01*
X144825943Y-85145135D01*
X144837466Y-85140046D01*
X144851222Y-85135785D01*
X144863613Y-85133470D01*
X144889747Y-85117287D01*
X144893558Y-85115278D01*
X144921672Y-85102866D01*
X144930585Y-85093951D01*
X144941867Y-85085015D01*
X144952583Y-85078381D01*
X144971102Y-85053858D01*
X144973934Y-85050603D01*
X146382382Y-83642156D01*
X146426577Y-83623850D01*
X149784896Y-83623850D01*
X149795617Y-83625598D01*
X149795678Y-83625168D01*
X149801408Y-83625967D01*
X149801410Y-83625968D01*
X149801411Y-83625967D01*
X149801412Y-83625968D01*
X149806961Y-83625711D01*
X149846520Y-83623882D01*
X149847936Y-83623850D01*
X149866679Y-83623850D01*
X149866685Y-83623850D01*
X149870960Y-83623050D01*
X149875239Y-83622554D01*
X149905943Y-83621135D01*
X149917466Y-83616046D01*
X149931222Y-83611785D01*
X149943613Y-83609470D01*
X149969747Y-83593287D01*
X149973558Y-83591278D01*
X150001672Y-83578866D01*
X150010585Y-83569951D01*
X150021867Y-83561015D01*
X150032583Y-83554381D01*
X150051101Y-83529857D01*
X150053935Y-83526601D01*
X151015174Y-82565362D01*
X151023990Y-82559022D01*
X151023727Y-82558674D01*
X151028346Y-82555185D01*
X151028349Y-82555184D01*
X151058770Y-82521812D01*
X151059727Y-82520809D01*
X151073008Y-82507530D01*
X151075457Y-82503953D01*
X151078146Y-82500558D01*
X151098848Y-82477851D01*
X151103399Y-82466100D01*
X151110114Y-82453361D01*
X151117236Y-82442966D01*
X151124269Y-82413056D01*
X151125547Y-82408927D01*
X151136650Y-82380272D01*
X151136650Y-82367672D01*
X151138310Y-82353362D01*
X151141194Y-82341101D01*
X151136950Y-82310674D01*
X151136650Y-82306351D01*
X151136650Y-81787821D01*
X151154956Y-81743627D01*
X151181005Y-81728012D01*
X151232979Y-81712247D01*
X151402950Y-81621396D01*
X151551931Y-81499131D01*
X151674196Y-81350150D01*
X151765047Y-81180179D01*
X151820993Y-80995750D01*
X151839884Y-80803950D01*
X152413616Y-80803950D01*
X152432506Y-80995748D01*
X152457609Y-81078502D01*
X152488225Y-81179428D01*
X152488455Y-81180184D01*
X152579300Y-81350144D01*
X152579304Y-81350150D01*
X152701569Y-81499131D01*
X152850550Y-81621396D01*
X152850552Y-81621397D01*
X152850555Y-81621399D01*
X153020515Y-81712244D01*
X153020521Y-81712247D01*
X153204950Y-81768193D01*
X153258609Y-81773478D01*
X153396749Y-81787084D01*
X153396749Y-81787083D01*
X153396750Y-81787084D01*
X153588550Y-81768193D01*
X153772979Y-81712247D01*
X153899718Y-81644504D01*
X154958350Y-81644504D01*
X154958351Y-81644508D01*
X154967221Y-81689106D01*
X154967222Y-81689108D01*
X155001016Y-81739684D01*
X155051592Y-81773478D01*
X155096193Y-81782350D01*
X156777306Y-81782349D01*
X156821908Y-81773478D01*
X156872484Y-81739684D01*
X156906278Y-81689108D01*
X156915150Y-81644507D01*
X156915149Y-80803950D01*
X159017616Y-80803950D01*
X159036506Y-80995748D01*
X159061609Y-81078502D01*
X159092225Y-81179428D01*
X159092455Y-81180184D01*
X159183300Y-81350144D01*
X159183304Y-81350150D01*
X159305569Y-81499131D01*
X159454550Y-81621396D01*
X159454552Y-81621397D01*
X159454555Y-81621399D01*
X159624515Y-81712244D01*
X159624521Y-81712247D01*
X159808950Y-81768193D01*
X160000750Y-81787084D01*
X160192550Y-81768193D01*
X160376979Y-81712247D01*
X160546950Y-81621396D01*
X160695931Y-81499131D01*
X160818196Y-81350150D01*
X160909047Y-81180179D01*
X160964993Y-80995750D01*
X160983884Y-80803950D01*
X161557616Y-80803950D01*
X161576506Y-80995748D01*
X161601609Y-81078502D01*
X161632225Y-81179428D01*
X161632455Y-81180184D01*
X161723300Y-81350144D01*
X161723304Y-81350150D01*
X161845569Y-81499131D01*
X161994550Y-81621396D01*
X161994552Y-81621397D01*
X161994555Y-81621399D01*
X162164515Y-81712244D01*
X162164521Y-81712247D01*
X162348950Y-81768193D01*
X162402609Y-81773478D01*
X162540749Y-81787084D01*
X162540749Y-81787083D01*
X162540750Y-81787084D01*
X162732550Y-81768193D01*
X162916979Y-81712247D01*
X163086950Y-81621396D01*
X163235931Y-81499131D01*
X163358196Y-81350150D01*
X163449047Y-81180179D01*
X163504993Y-80995750D01*
X163523884Y-80803950D01*
X164097616Y-80803950D01*
X164116506Y-80995748D01*
X164141609Y-81078502D01*
X164172225Y-81179428D01*
X164172455Y-81180184D01*
X164263300Y-81350144D01*
X164263304Y-81350150D01*
X164385569Y-81499131D01*
X164534550Y-81621396D01*
X164534552Y-81621397D01*
X164534555Y-81621399D01*
X164704515Y-81712244D01*
X164704521Y-81712247D01*
X164888950Y-81768193D01*
X165080750Y-81787084D01*
X165272550Y-81768193D01*
X165456979Y-81712247D01*
X165626950Y-81621396D01*
X165775931Y-81499131D01*
X165898196Y-81350150D01*
X165989047Y-81180179D01*
X166044993Y-80995750D01*
X166063884Y-80803950D01*
X166637616Y-80803950D01*
X166656506Y-80995748D01*
X166681609Y-81078502D01*
X166712225Y-81179428D01*
X166712455Y-81180184D01*
X166803300Y-81350144D01*
X166803304Y-81350150D01*
X166925569Y-81499131D01*
X167074550Y-81621396D01*
X167074552Y-81621397D01*
X167074555Y-81621399D01*
X167244515Y-81712244D01*
X167244521Y-81712247D01*
X167428950Y-81768193D01*
X167482609Y-81773478D01*
X167620749Y-81787084D01*
X167620749Y-81787083D01*
X167620750Y-81787084D01*
X167812550Y-81768193D01*
X167996979Y-81712247D01*
X168166950Y-81621396D01*
X168315931Y-81499131D01*
X168438196Y-81350150D01*
X168529047Y-81180179D01*
X168584993Y-80995750D01*
X168603884Y-80803950D01*
X169177616Y-80803950D01*
X169196506Y-80995748D01*
X169221609Y-81078502D01*
X169252225Y-81179428D01*
X169252455Y-81180184D01*
X169343300Y-81350144D01*
X169343304Y-81350150D01*
X169465569Y-81499131D01*
X169614550Y-81621396D01*
X169614552Y-81621397D01*
X169614555Y-81621399D01*
X169784515Y-81712244D01*
X169784521Y-81712247D01*
X169968950Y-81768193D01*
X170160750Y-81787084D01*
X170352550Y-81768193D01*
X170536979Y-81712247D01*
X170706950Y-81621396D01*
X170855931Y-81499131D01*
X170978196Y-81350150D01*
X171069047Y-81180179D01*
X171124993Y-80995750D01*
X171143884Y-80803950D01*
X171717616Y-80803950D01*
X171736506Y-80995748D01*
X171761609Y-81078502D01*
X171792225Y-81179428D01*
X171792455Y-81180184D01*
X171883300Y-81350144D01*
X171883304Y-81350150D01*
X172005569Y-81499131D01*
X172154550Y-81621396D01*
X172154552Y-81621397D01*
X172154555Y-81621399D01*
X172324515Y-81712244D01*
X172324521Y-81712247D01*
X172508950Y-81768193D01*
X172562609Y-81773478D01*
X172700749Y-81787084D01*
X172700749Y-81787083D01*
X172700750Y-81787084D01*
X172892550Y-81768193D01*
X173076979Y-81712247D01*
X173246950Y-81621396D01*
X173395931Y-81499131D01*
X173518196Y-81350150D01*
X173609047Y-81180179D01*
X173664993Y-80995750D01*
X173683884Y-80803950D01*
X174257616Y-80803950D01*
X174276506Y-80995748D01*
X174301609Y-81078502D01*
X174332225Y-81179428D01*
X174332455Y-81180184D01*
X174423300Y-81350144D01*
X174423304Y-81350150D01*
X174545569Y-81499131D01*
X174694550Y-81621396D01*
X174694552Y-81621397D01*
X174694555Y-81621399D01*
X174864515Y-81712244D01*
X174864521Y-81712247D01*
X175048950Y-81768193D01*
X175240750Y-81787084D01*
X175432550Y-81768193D01*
X175616979Y-81712247D01*
X175743718Y-81644504D01*
X176802350Y-81644504D01*
X176802351Y-81644508D01*
X176811221Y-81689106D01*
X176811222Y-81689108D01*
X176845016Y-81739684D01*
X176895592Y-81773478D01*
X176940193Y-81782350D01*
X178621306Y-81782349D01*
X178665908Y-81773478D01*
X178716484Y-81739684D01*
X178750278Y-81689108D01*
X178759150Y-81644507D01*
X178759149Y-79963394D01*
X178750278Y-79918792D01*
X178716484Y-79868216D01*
X178673816Y-79839706D01*
X178665907Y-79834421D01*
X178630177Y-79827314D01*
X178621307Y-79825550D01*
X178621306Y-79825550D01*
X176940195Y-79825550D01*
X176940191Y-79825551D01*
X176895593Y-79834421D01*
X176895592Y-79834422D01*
X176845016Y-79868216D01*
X176811221Y-79918792D01*
X176802350Y-79963393D01*
X176802350Y-81644504D01*
X175743718Y-81644504D01*
X175786950Y-81621396D01*
X175935931Y-81499131D01*
X176058196Y-81350150D01*
X176149047Y-81180179D01*
X176204993Y-80995750D01*
X176223884Y-80803950D01*
X176223384Y-80798878D01*
X176204993Y-80612151D01*
X176204993Y-80612150D01*
X176149047Y-80427721D01*
X176125826Y-80384277D01*
X176058199Y-80257755D01*
X176058195Y-80257749D01*
X176015816Y-80206110D01*
X175935931Y-80108769D01*
X175786950Y-79986504D01*
X175786944Y-79986500D01*
X175616984Y-79895655D01*
X175616981Y-79895654D01*
X175616979Y-79895653D01*
X175515302Y-79864809D01*
X175432548Y-79839706D01*
X175240750Y-79820816D01*
X175048951Y-79839706D01*
X174902370Y-79884171D01*
X174864521Y-79895653D01*
X174864520Y-79895653D01*
X174864515Y-79895655D01*
X174694555Y-79986500D01*
X174694549Y-79986504D01*
X174545569Y-80108769D01*
X174423304Y-80257749D01*
X174423300Y-80257755D01*
X174332455Y-80427715D01*
X174332453Y-80427720D01*
X174332453Y-80427721D01*
X174330992Y-80432538D01*
X174276506Y-80612151D01*
X174257616Y-80803949D01*
X174257616Y-80803950D01*
X173683884Y-80803950D01*
X173683384Y-80798878D01*
X173664993Y-80612151D01*
X173664993Y-80612150D01*
X173609047Y-80427721D01*
X173585826Y-80384277D01*
X173518199Y-80257755D01*
X173518195Y-80257749D01*
X173475816Y-80206110D01*
X173395931Y-80108769D01*
X173246950Y-79986504D01*
X173246944Y-79986500D01*
X173076984Y-79895655D01*
X173076981Y-79895654D01*
X173076979Y-79895653D01*
X172975302Y-79864809D01*
X172892548Y-79839706D01*
X172700750Y-79820816D01*
X172508951Y-79839706D01*
X172362370Y-79884171D01*
X172324521Y-79895653D01*
X172324520Y-79895653D01*
X172324515Y-79895655D01*
X172154555Y-79986500D01*
X172154549Y-79986504D01*
X172005569Y-80108769D01*
X171883304Y-80257749D01*
X171883300Y-80257755D01*
X171792455Y-80427715D01*
X171792453Y-80427720D01*
X171792453Y-80427721D01*
X171790992Y-80432538D01*
X171736506Y-80612151D01*
X171717616Y-80803949D01*
X171717616Y-80803950D01*
X171143884Y-80803950D01*
X171143384Y-80798878D01*
X171124993Y-80612151D01*
X171124993Y-80612150D01*
X171069047Y-80427721D01*
X171045826Y-80384277D01*
X170978199Y-80257755D01*
X170978195Y-80257749D01*
X170935816Y-80206110D01*
X170855931Y-80108769D01*
X170706950Y-79986504D01*
X170706944Y-79986500D01*
X170536984Y-79895655D01*
X170536981Y-79895654D01*
X170536979Y-79895653D01*
X170435302Y-79864809D01*
X170352548Y-79839706D01*
X170160750Y-79820816D01*
X169968951Y-79839706D01*
X169822370Y-79884171D01*
X169784521Y-79895653D01*
X169784520Y-79895653D01*
X169784515Y-79895655D01*
X169614555Y-79986500D01*
X169614549Y-79986504D01*
X169465569Y-80108769D01*
X169343304Y-80257749D01*
X169343300Y-80257755D01*
X169252455Y-80427715D01*
X169252453Y-80427720D01*
X169252453Y-80427721D01*
X169250992Y-80432538D01*
X169196506Y-80612151D01*
X169177616Y-80803949D01*
X169177616Y-80803950D01*
X168603884Y-80803950D01*
X168603384Y-80798878D01*
X168584993Y-80612151D01*
X168584993Y-80612150D01*
X168529047Y-80427721D01*
X168505826Y-80384277D01*
X168438199Y-80257755D01*
X168438195Y-80257749D01*
X168395816Y-80206110D01*
X168315931Y-80108769D01*
X168166950Y-79986504D01*
X168166944Y-79986500D01*
X167996984Y-79895655D01*
X167996981Y-79895654D01*
X167996979Y-79895653D01*
X167895302Y-79864809D01*
X167812548Y-79839706D01*
X167620750Y-79820816D01*
X167428951Y-79839706D01*
X167282370Y-79884171D01*
X167244521Y-79895653D01*
X167244520Y-79895653D01*
X167244515Y-79895655D01*
X167074555Y-79986500D01*
X167074549Y-79986504D01*
X166925569Y-80108769D01*
X166803304Y-80257749D01*
X166803300Y-80257755D01*
X166712455Y-80427715D01*
X166712453Y-80427720D01*
X166712453Y-80427721D01*
X166710992Y-80432538D01*
X166656506Y-80612151D01*
X166637616Y-80803949D01*
X166637616Y-80803950D01*
X166063884Y-80803950D01*
X166063384Y-80798878D01*
X166044993Y-80612151D01*
X166044993Y-80612150D01*
X165989047Y-80427721D01*
X165965826Y-80384277D01*
X165898199Y-80257755D01*
X165898195Y-80257749D01*
X165855816Y-80206110D01*
X165775931Y-80108769D01*
X165626950Y-79986504D01*
X165626944Y-79986500D01*
X165456984Y-79895655D01*
X165456981Y-79895654D01*
X165456979Y-79895653D01*
X165355302Y-79864809D01*
X165272548Y-79839706D01*
X165080750Y-79820816D01*
X164888951Y-79839706D01*
X164742370Y-79884171D01*
X164704521Y-79895653D01*
X164704520Y-79895653D01*
X164704515Y-79895655D01*
X164534555Y-79986500D01*
X164534549Y-79986504D01*
X164385569Y-80108769D01*
X164263304Y-80257749D01*
X164263300Y-80257755D01*
X164172455Y-80427715D01*
X164172453Y-80427720D01*
X164172453Y-80427721D01*
X164170992Y-80432538D01*
X164116506Y-80612151D01*
X164097616Y-80803949D01*
X164097616Y-80803950D01*
X163523884Y-80803950D01*
X163523384Y-80798878D01*
X163504993Y-80612151D01*
X163504993Y-80612150D01*
X163449047Y-80427721D01*
X163425826Y-80384277D01*
X163358199Y-80257755D01*
X163358195Y-80257749D01*
X163315816Y-80206110D01*
X163235931Y-80108769D01*
X163086950Y-79986504D01*
X163086944Y-79986500D01*
X162916984Y-79895655D01*
X162916981Y-79895654D01*
X162916979Y-79895653D01*
X162815302Y-79864809D01*
X162732548Y-79839706D01*
X162540750Y-79820816D01*
X162348951Y-79839706D01*
X162202370Y-79884171D01*
X162164521Y-79895653D01*
X162164520Y-79895653D01*
X162164515Y-79895655D01*
X161994555Y-79986500D01*
X161994549Y-79986504D01*
X161845569Y-80108769D01*
X161723304Y-80257749D01*
X161723300Y-80257755D01*
X161632455Y-80427715D01*
X161632453Y-80427720D01*
X161632453Y-80427721D01*
X161630992Y-80432538D01*
X161576506Y-80612151D01*
X161557616Y-80803949D01*
X161557616Y-80803950D01*
X160983884Y-80803950D01*
X160983384Y-80798878D01*
X160964993Y-80612151D01*
X160964993Y-80612150D01*
X160909047Y-80427721D01*
X160885826Y-80384277D01*
X160818199Y-80257755D01*
X160818195Y-80257749D01*
X160775816Y-80206110D01*
X160695931Y-80108769D01*
X160546950Y-79986504D01*
X160546944Y-79986500D01*
X160376984Y-79895655D01*
X160376981Y-79895654D01*
X160376979Y-79895653D01*
X160275302Y-79864809D01*
X160192548Y-79839706D01*
X160000750Y-79820816D01*
X159808951Y-79839706D01*
X159662370Y-79884171D01*
X159624521Y-79895653D01*
X159624520Y-79895653D01*
X159624515Y-79895655D01*
X159454555Y-79986500D01*
X159454549Y-79986504D01*
X159305569Y-80108769D01*
X159183304Y-80257749D01*
X159183300Y-80257755D01*
X159092455Y-80427715D01*
X159092453Y-80427720D01*
X159092453Y-80427721D01*
X159090992Y-80432538D01*
X159036506Y-80612151D01*
X159017616Y-80803949D01*
X159017616Y-80803950D01*
X156915149Y-80803950D01*
X156915149Y-79963394D01*
X156906278Y-79918792D01*
X156872484Y-79868216D01*
X156829816Y-79839706D01*
X156821907Y-79834421D01*
X156786177Y-79827314D01*
X156777307Y-79825550D01*
X156777306Y-79825550D01*
X155096195Y-79825550D01*
X155096191Y-79825551D01*
X155051593Y-79834421D01*
X155051592Y-79834422D01*
X155001016Y-79868216D01*
X154967221Y-79918792D01*
X154958350Y-79963393D01*
X154958350Y-81644504D01*
X153899718Y-81644504D01*
X153942950Y-81621396D01*
X154091931Y-81499131D01*
X154214196Y-81350150D01*
X154305047Y-81180179D01*
X154360993Y-80995750D01*
X154379884Y-80803950D01*
X154379384Y-80798878D01*
X154360993Y-80612151D01*
X154360993Y-80612150D01*
X154305047Y-80427721D01*
X154281826Y-80384277D01*
X154214199Y-80257755D01*
X154214195Y-80257749D01*
X154171816Y-80206110D01*
X154091931Y-80108769D01*
X153942950Y-79986504D01*
X153942944Y-79986500D01*
X153772984Y-79895655D01*
X153772981Y-79895654D01*
X153772979Y-79895653D01*
X153671302Y-79864809D01*
X153588548Y-79839706D01*
X153396750Y-79820816D01*
X153204951Y-79839706D01*
X153058370Y-79884171D01*
X153020521Y-79895653D01*
X153020520Y-79895653D01*
X153020515Y-79895655D01*
X152850555Y-79986500D01*
X152850549Y-79986504D01*
X152701569Y-80108769D01*
X152579304Y-80257749D01*
X152579300Y-80257755D01*
X152488455Y-80427715D01*
X152488453Y-80427720D01*
X152488453Y-80427721D01*
X152486992Y-80432538D01*
X152432506Y-80612151D01*
X152413616Y-80803949D01*
X152413616Y-80803950D01*
X151839884Y-80803950D01*
X151839384Y-80798878D01*
X151820993Y-80612151D01*
X151820993Y-80612150D01*
X151765047Y-80427721D01*
X151741826Y-80384277D01*
X151674199Y-80257755D01*
X151674195Y-80257749D01*
X151631816Y-80206110D01*
X151551931Y-80108769D01*
X151402950Y-79986504D01*
X151402944Y-79986500D01*
X151232984Y-79895655D01*
X151232981Y-79895654D01*
X151232979Y-79895653D01*
X151131302Y-79864809D01*
X151048548Y-79839706D01*
X150856750Y-79820816D01*
X150664951Y-79839706D01*
X150518370Y-79884171D01*
X150480521Y-79895653D01*
X150480520Y-79895653D01*
X150480515Y-79895655D01*
X150310555Y-79986500D01*
X150310549Y-79986504D01*
X150161569Y-80108769D01*
X150039304Y-80257749D01*
X150039300Y-80257755D01*
X149948455Y-80427715D01*
X149948453Y-80427720D01*
X149948453Y-80427721D01*
X149946992Y-80432538D01*
X149892506Y-80612151D01*
X149873616Y-80803949D01*
X149873616Y-80803950D01*
X149892506Y-80995748D01*
X149917609Y-81078502D01*
X149948225Y-81179428D01*
X149948455Y-81180184D01*
X150039300Y-81350144D01*
X150039304Y-81350150D01*
X150161569Y-81499131D01*
X150310550Y-81621396D01*
X150310552Y-81621397D01*
X150310555Y-81621399D01*
X150480515Y-81712244D01*
X150480521Y-81712247D01*
X150532493Y-81728012D01*
X150569470Y-81758359D01*
X150576850Y-81787821D01*
X150576850Y-82186123D01*
X150558544Y-82230317D01*
X149743118Y-83045744D01*
X149698924Y-83064050D01*
X146340601Y-83064050D01*
X146329882Y-83062302D01*
X146329822Y-83062733D01*
X146324087Y-83061932D01*
X146295422Y-83063258D01*
X146278992Y-83064017D01*
X146277577Y-83064050D01*
X146258808Y-83064050D01*
X146254544Y-83064848D01*
X146250243Y-83065346D01*
X146219559Y-83066764D01*
X146219552Y-83066766D01*
X146208025Y-83071855D01*
X146194272Y-83076114D01*
X146181890Y-83078429D01*
X146181885Y-83078431D01*
X146155759Y-83094606D01*
X146151927Y-83096626D01*
X146144395Y-83099952D01*
X146096572Y-83101056D01*
X146061975Y-83068022D01*
X146056650Y-83042777D01*
X146056650Y-81787821D01*
X146074956Y-81743627D01*
X146101005Y-81728012D01*
X146152979Y-81712247D01*
X146322950Y-81621396D01*
X146471931Y-81499131D01*
X146594196Y-81350150D01*
X146685047Y-81180179D01*
X146740993Y-80995750D01*
X146759884Y-80803950D01*
X147333616Y-80803950D01*
X147352506Y-80995748D01*
X147377609Y-81078502D01*
X147408225Y-81179428D01*
X147408455Y-81180184D01*
X147499300Y-81350144D01*
X147499304Y-81350150D01*
X147621569Y-81499131D01*
X147770550Y-81621396D01*
X147770552Y-81621397D01*
X147770555Y-81621399D01*
X147940515Y-81712244D01*
X147940521Y-81712247D01*
X148124950Y-81768193D01*
X148178609Y-81773478D01*
X148316749Y-81787084D01*
X148316749Y-81787083D01*
X148316750Y-81787084D01*
X148508550Y-81768193D01*
X148692979Y-81712247D01*
X148862950Y-81621396D01*
X149011931Y-81499131D01*
X149134196Y-81350150D01*
X149225047Y-81180179D01*
X149280993Y-80995750D01*
X149299884Y-80803950D01*
X149299384Y-80798878D01*
X149280993Y-80612151D01*
X149280993Y-80612150D01*
X149225047Y-80427721D01*
X149201826Y-80384277D01*
X149134199Y-80257755D01*
X149134195Y-80257749D01*
X149091816Y-80206110D01*
X149011931Y-80108769D01*
X148862950Y-79986504D01*
X148862944Y-79986500D01*
X148692984Y-79895655D01*
X148692981Y-79895654D01*
X148692979Y-79895653D01*
X148591302Y-79864809D01*
X148508548Y-79839706D01*
X148316750Y-79820816D01*
X148124951Y-79839706D01*
X147978370Y-79884171D01*
X147940521Y-79895653D01*
X147940520Y-79895653D01*
X147940515Y-79895655D01*
X147770555Y-79986500D01*
X147770549Y-79986504D01*
X147621569Y-80108769D01*
X147499304Y-80257749D01*
X147499300Y-80257755D01*
X147408455Y-80427715D01*
X147408453Y-80427720D01*
X147408453Y-80427721D01*
X147406992Y-80432538D01*
X147352506Y-80612151D01*
X147333616Y-80803949D01*
X147333616Y-80803950D01*
X146759884Y-80803950D01*
X146759384Y-80798878D01*
X146740993Y-80612151D01*
X146740993Y-80612150D01*
X146685047Y-80427721D01*
X146661826Y-80384277D01*
X146594199Y-80257755D01*
X146594195Y-80257749D01*
X146551816Y-80206110D01*
X146471931Y-80108769D01*
X146322950Y-79986504D01*
X146322944Y-79986500D01*
X146152984Y-79895655D01*
X146152981Y-79895654D01*
X146152979Y-79895653D01*
X146051302Y-79864809D01*
X145968548Y-79839706D01*
X145776750Y-79820816D01*
X145584951Y-79839706D01*
X145438370Y-79884171D01*
X145400521Y-79895653D01*
X145400520Y-79895653D01*
X145400515Y-79895655D01*
X145230555Y-79986500D01*
X145230549Y-79986504D01*
X145081569Y-80108769D01*
X144959304Y-80257749D01*
X144959300Y-80257755D01*
X144868455Y-80427715D01*
X144868453Y-80427720D01*
X144868453Y-80427721D01*
X144866992Y-80432538D01*
X144812506Y-80612151D01*
X144793616Y-80803949D01*
X144793616Y-80803950D01*
X144812506Y-80995748D01*
X144837609Y-81078502D01*
X144868225Y-81179428D01*
X144868455Y-81180184D01*
X144959300Y-81350144D01*
X144959304Y-81350150D01*
X145081569Y-81499131D01*
X145230550Y-81621396D01*
X145230552Y-81621397D01*
X145230555Y-81621399D01*
X145400515Y-81712244D01*
X145400521Y-81712247D01*
X145452493Y-81728012D01*
X145489470Y-81758359D01*
X145496850Y-81787821D01*
X145496850Y-82948123D01*
X145478544Y-82992317D01*
X144409118Y-84061744D01*
X144364924Y-84080050D01*
X140884794Y-84080050D01*
X140840600Y-84061744D01*
X140837560Y-84058479D01*
X140770769Y-83981398D01*
X140770768Y-83981397D01*
X140727911Y-83953854D01*
X140650832Y-83904317D01*
X140650826Y-83904315D01*
X140514037Y-83864150D01*
X140514035Y-83864150D01*
X140371465Y-83864150D01*
X140371463Y-83864150D01*
X140234673Y-83904315D01*
X140234667Y-83904317D01*
X140114730Y-83981398D01*
X140021370Y-84089140D01*
X140021367Y-84089145D01*
X139962142Y-84218829D01*
X139962141Y-84218832D01*
X139941852Y-84359950D01*
X114306250Y-84359950D01*
X114306250Y-80871718D01*
X127666337Y-80871718D01*
X127695966Y-81140997D01*
X127695967Y-81141004D01*
X127764489Y-81403103D01*
X127870442Y-81652432D01*
X127972323Y-81819369D01*
X128011570Y-81883678D01*
X128184859Y-82091907D01*
X128184873Y-82091921D01*
X128386615Y-82272682D01*
X128386620Y-82272686D01*
X128386625Y-82272690D01*
X128505835Y-82351558D01*
X128612565Y-82422170D01*
X128815224Y-82517172D01*
X128857854Y-82537157D01*
X129117276Y-82615205D01*
X129385296Y-82654650D01*
X129385297Y-82654650D01*
X129588388Y-82654650D01*
X129790926Y-82639826D01*
X129790928Y-82639825D01*
X129790935Y-82639825D01*
X130055361Y-82580922D01*
X130308393Y-82484145D01*
X130544638Y-82351558D01*
X130759060Y-82185987D01*
X130947090Y-81990959D01*
X131104720Y-81770633D01*
X131228590Y-81529703D01*
X131242857Y-81487885D01*
X131316057Y-81273318D01*
X131316057Y-81273317D01*
X131316061Y-81273306D01*
X131365268Y-81006905D01*
X131372685Y-80803953D01*
X131941106Y-80803953D01*
X131960440Y-81012616D01*
X131960442Y-81012627D01*
X132008116Y-81180179D01*
X132017794Y-81214192D01*
X132111206Y-81401790D01*
X132237499Y-81569028D01*
X132392371Y-81710212D01*
X132392370Y-81710212D01*
X132570545Y-81820534D01*
X132570550Y-81820537D01*
X132765966Y-81896242D01*
X132971966Y-81934750D01*
X132971969Y-81934750D01*
X133181531Y-81934750D01*
X133181534Y-81934750D01*
X133387534Y-81896242D01*
X133582950Y-81820537D01*
X133761128Y-81710213D01*
X133916001Y-81569028D01*
X134042294Y-81401790D01*
X134135706Y-81214192D01*
X134193058Y-81012624D01*
X134194622Y-80995748D01*
X134212394Y-80803953D01*
X134481106Y-80803953D01*
X134500440Y-81012616D01*
X134500442Y-81012627D01*
X134548116Y-81180179D01*
X134557794Y-81214192D01*
X134651206Y-81401790D01*
X134777499Y-81569028D01*
X134932371Y-81710212D01*
X134932370Y-81710212D01*
X135110545Y-81820534D01*
X135110550Y-81820537D01*
X135305966Y-81896242D01*
X135511966Y-81934750D01*
X135511969Y-81934750D01*
X135721531Y-81934750D01*
X135721534Y-81934750D01*
X135927534Y-81896242D01*
X136122950Y-81820537D01*
X136301128Y-81710213D01*
X136456001Y-81569028D01*
X136582294Y-81401790D01*
X136675706Y-81214192D01*
X136733058Y-81012624D01*
X136734622Y-80995748D01*
X136752394Y-80803953D01*
X136752394Y-80803950D01*
X137173616Y-80803950D01*
X137192506Y-80995748D01*
X137217609Y-81078502D01*
X137248225Y-81179428D01*
X137248455Y-81180184D01*
X137339300Y-81350144D01*
X137339304Y-81350150D01*
X137461569Y-81499131D01*
X137610550Y-81621396D01*
X137610552Y-81621397D01*
X137610555Y-81621399D01*
X137780515Y-81712244D01*
X137780521Y-81712247D01*
X137964950Y-81768193D01*
X138018609Y-81773478D01*
X138156749Y-81787084D01*
X138156749Y-81787083D01*
X138156750Y-81787084D01*
X138348550Y-81768193D01*
X138532979Y-81712247D01*
X138702950Y-81621396D01*
X138851931Y-81499131D01*
X138974196Y-81350150D01*
X139065047Y-81180179D01*
X139120993Y-80995750D01*
X139139884Y-80803954D01*
X139562411Y-80803954D01*
X139581723Y-81012376D01*
X139581725Y-81012388D01*
X139639010Y-81213721D01*
X139732316Y-81401102D01*
X139797852Y-81487885D01*
X140235627Y-81050110D01*
X140279821Y-81031804D01*
X140324015Y-81050110D01*
X140328685Y-81055335D01*
X140335283Y-81063608D01*
X140390998Y-81133472D01*
X140390999Y-81133473D01*
X140391001Y-81133475D01*
X140442352Y-81168485D01*
X140468555Y-81208505D01*
X140458785Y-81255332D01*
X140451339Y-81264319D01*
X140009668Y-81705991D01*
X140013153Y-81709168D01*
X140013158Y-81709172D01*
X140191133Y-81819369D01*
X140386326Y-81894986D01*
X140592081Y-81933449D01*
X140592089Y-81933450D01*
X140801411Y-81933450D01*
X140801418Y-81933449D01*
X141007173Y-81894986D01*
X141202366Y-81819369D01*
X141380343Y-81709170D01*
X141383830Y-81705991D01*
X140945655Y-81267816D01*
X140927349Y-81223622D01*
X140945655Y-81179428D01*
X140947339Y-81177806D01*
X140949971Y-81175362D01*
X140949974Y-81175362D01*
X141048200Y-81084222D01*
X141060102Y-81063606D01*
X141098049Y-81034486D01*
X141145476Y-81040728D01*
X141158422Y-81050662D01*
X141595646Y-81487886D01*
X141595646Y-81487885D01*
X141661185Y-81401100D01*
X141754489Y-81213721D01*
X141811774Y-81012388D01*
X141811776Y-81012376D01*
X141831089Y-80803954D01*
X141831089Y-80803950D01*
X142253616Y-80803950D01*
X142272506Y-80995748D01*
X142297609Y-81078502D01*
X142328225Y-81179428D01*
X142328455Y-81180184D01*
X142419300Y-81350144D01*
X142419304Y-81350150D01*
X142541569Y-81499131D01*
X142690550Y-81621396D01*
X142690552Y-81621397D01*
X142690555Y-81621399D01*
X142860515Y-81712244D01*
X142860521Y-81712247D01*
X143044950Y-81768193D01*
X143098609Y-81773478D01*
X143236749Y-81787084D01*
X143236749Y-81787083D01*
X143236750Y-81787084D01*
X143428550Y-81768193D01*
X143612979Y-81712247D01*
X143782950Y-81621396D01*
X143931931Y-81499131D01*
X144054196Y-81350150D01*
X144145047Y-81180179D01*
X144200993Y-80995750D01*
X144219884Y-80803950D01*
X144219384Y-80798878D01*
X144200993Y-80612151D01*
X144200993Y-80612150D01*
X144145047Y-80427721D01*
X144121826Y-80384277D01*
X144054199Y-80257755D01*
X144054195Y-80257749D01*
X144011816Y-80206110D01*
X143931931Y-80108769D01*
X143782950Y-79986504D01*
X143782944Y-79986500D01*
X143612984Y-79895655D01*
X143612981Y-79895654D01*
X143612979Y-79895653D01*
X143511302Y-79864809D01*
X143428548Y-79839706D01*
X143236750Y-79820816D01*
X143044951Y-79839706D01*
X142898370Y-79884171D01*
X142860521Y-79895653D01*
X142860520Y-79895653D01*
X142860515Y-79895655D01*
X142690555Y-79986500D01*
X142690549Y-79986504D01*
X142541569Y-80108769D01*
X142419304Y-80257749D01*
X142419300Y-80257755D01*
X142328455Y-80427715D01*
X142328453Y-80427720D01*
X142328453Y-80427721D01*
X142326992Y-80432538D01*
X142272506Y-80612151D01*
X142253616Y-80803949D01*
X142253616Y-80803950D01*
X141831089Y-80803950D01*
X141831089Y-80803945D01*
X141811776Y-80595523D01*
X141811774Y-80595511D01*
X141754489Y-80394178D01*
X141661183Y-80206797D01*
X141595646Y-80120013D01*
X141595646Y-80120012D01*
X141157871Y-80557788D01*
X141113677Y-80576094D01*
X141069483Y-80557788D01*
X141064813Y-80552562D01*
X141002504Y-80474430D01*
X141002502Y-80474429D01*
X141002502Y-80474428D01*
X140979996Y-80459083D01*
X140951145Y-80439413D01*
X140924943Y-80399392D01*
X140934713Y-80352565D01*
X140942159Y-80343579D01*
X141383829Y-79901908D01*
X141380345Y-79898731D01*
X141380340Y-79898727D01*
X141202366Y-79788530D01*
X141007173Y-79712913D01*
X140801418Y-79674450D01*
X140592081Y-79674450D01*
X140386326Y-79712913D01*
X140191130Y-79788531D01*
X140191128Y-79788532D01*
X140013162Y-79898725D01*
X140013154Y-79898731D01*
X140009669Y-79901907D01*
X140009669Y-79901908D01*
X140447844Y-80340083D01*
X140466150Y-80384277D01*
X140447844Y-80428471D01*
X140446161Y-80430093D01*
X140345297Y-80523680D01*
X140333397Y-80544293D01*
X140295447Y-80573413D01*
X140248021Y-80567169D01*
X140235077Y-80557237D01*
X139797852Y-80120013D01*
X139732316Y-80206797D01*
X139639010Y-80394178D01*
X139581725Y-80595511D01*
X139581723Y-80595523D01*
X139562411Y-80803945D01*
X139562411Y-80803954D01*
X139139884Y-80803954D01*
X139139884Y-80803950D01*
X139139384Y-80798878D01*
X139120993Y-80612151D01*
X139120993Y-80612150D01*
X139065047Y-80427721D01*
X139041826Y-80384277D01*
X138974199Y-80257755D01*
X138974195Y-80257749D01*
X138931816Y-80206110D01*
X138851931Y-80108769D01*
X138702950Y-79986504D01*
X138702944Y-79986500D01*
X138532984Y-79895655D01*
X138532981Y-79895654D01*
X138532979Y-79895653D01*
X138431302Y-79864809D01*
X138348548Y-79839706D01*
X138156750Y-79820816D01*
X137964951Y-79839706D01*
X137818370Y-79884171D01*
X137780521Y-79895653D01*
X137780520Y-79895653D01*
X137780515Y-79895655D01*
X137610555Y-79986500D01*
X137610549Y-79986504D01*
X137461569Y-80108769D01*
X137339304Y-80257749D01*
X137339300Y-80257755D01*
X137248455Y-80427715D01*
X137248453Y-80427720D01*
X137248453Y-80427721D01*
X137246992Y-80432538D01*
X137192506Y-80612151D01*
X137173616Y-80803949D01*
X137173616Y-80803950D01*
X136752394Y-80803950D01*
X136752394Y-80803946D01*
X136733059Y-80595283D01*
X136733057Y-80595272D01*
X136712686Y-80523678D01*
X136675706Y-80393708D01*
X136582294Y-80206110D01*
X136456001Y-80038872D01*
X136301128Y-79897687D01*
X136301129Y-79897687D01*
X136122954Y-79787365D01*
X136122951Y-79787364D01*
X136122950Y-79787363D01*
X135927534Y-79711658D01*
X135927532Y-79711657D01*
X135927528Y-79711656D01*
X135721538Y-79673150D01*
X135721534Y-79673150D01*
X135511966Y-79673150D01*
X135511961Y-79673150D01*
X135305971Y-79711656D01*
X135110545Y-79787365D01*
X134932370Y-79897687D01*
X134777497Y-80038874D01*
X134777495Y-80038876D01*
X134651206Y-80206110D01*
X134557794Y-80393707D01*
X134500442Y-80595272D01*
X134500440Y-80595283D01*
X134481106Y-80803946D01*
X134481106Y-80803953D01*
X134212394Y-80803953D01*
X134212394Y-80803946D01*
X134193059Y-80595283D01*
X134193057Y-80595272D01*
X134172686Y-80523678D01*
X134135706Y-80393708D01*
X134042294Y-80206110D01*
X133916001Y-80038872D01*
X133761128Y-79897687D01*
X133761129Y-79897687D01*
X133582954Y-79787365D01*
X133582951Y-79787364D01*
X133582950Y-79787363D01*
X133387534Y-79711658D01*
X133387532Y-79711657D01*
X133387528Y-79711656D01*
X133181538Y-79673150D01*
X133181534Y-79673150D01*
X132971966Y-79673150D01*
X132971961Y-79673150D01*
X132765971Y-79711656D01*
X132570545Y-79787365D01*
X132392370Y-79897687D01*
X132237497Y-80038874D01*
X132237495Y-80038876D01*
X132111206Y-80206110D01*
X132017794Y-80393707D01*
X131960442Y-80595272D01*
X131960440Y-80595283D01*
X131941106Y-80803946D01*
X131941106Y-80803953D01*
X131372685Y-80803953D01*
X131375162Y-80736178D01*
X131345533Y-80466896D01*
X131277011Y-80204797D01*
X131171058Y-79955468D01*
X131029931Y-79724224D01*
X130987427Y-79673150D01*
X130856640Y-79515992D01*
X130856626Y-79515978D01*
X130654884Y-79335217D01*
X130654877Y-79335212D01*
X130654875Y-79335210D01*
X130535667Y-79256343D01*
X130428934Y-79185729D01*
X130183649Y-79070744D01*
X130183644Y-79070742D01*
X129924233Y-78992697D01*
X129924219Y-78992694D01*
X129656210Y-78953250D01*
X129656204Y-78953250D01*
X129453118Y-78953250D01*
X129453112Y-78953250D01*
X129250573Y-78968073D01*
X128986136Y-79026978D01*
X128733105Y-79123755D01*
X128496859Y-79256343D01*
X128282441Y-79421912D01*
X128282432Y-79421919D01*
X128094412Y-79616937D01*
X128094405Y-79616946D01*
X127936778Y-79837268D01*
X127812909Y-80078198D01*
X127812906Y-80078204D01*
X127725442Y-80334581D01*
X127725437Y-80334602D01*
X127676233Y-80600986D01*
X127676231Y-80601007D01*
X127666337Y-80871718D01*
X114306250Y-80871718D01*
X114306250Y-79535182D01*
X114306346Y-79532731D01*
X114309465Y-79493079D01*
X114321180Y-79344153D01*
X114322712Y-79334484D01*
X114366002Y-79154149D01*
X114369027Y-79144836D01*
X114439997Y-78973488D01*
X114444444Y-78964760D01*
X114541344Y-78806630D01*
X114547106Y-78798700D01*
X114667557Y-78657668D01*
X114674468Y-78650757D01*
X114815502Y-78530303D01*
X114823430Y-78524544D01*
X114981560Y-78427644D01*
X114990288Y-78423197D01*
X115161636Y-78352227D01*
X115170949Y-78349202D01*
X115351284Y-78305912D01*
X115360953Y-78304380D01*
X115509879Y-78292665D01*
X115549531Y-78289546D01*
X115551982Y-78289450D01*
X115559034Y-78289450D01*
X177772464Y-78289450D01*
X177779802Y-78289450D01*
X177781690Y-78289507D01*
G37*
%TD.AperFunction*%
%TD*%
M02*
