M48
; DRILL file {KiCad 7.0.7} date 2023 October 02, Monday 21:51:08
; FORMAT={-:-/ absolute / inch / decimal}
; #@! TF.CreationDate,2023-10-02T21:51:08-04:00
; #@! TF.GenerationSoftware,Kicad,Pcbnew,7.0.7
; #@! TF.FileFunction,Plated,1,2,PTH
FMAT,2
INCH
; #@! TA.AperFunction,Plated,PTH,ViaDrill
T1C0.0150
; #@! TA.AperFunction,Plated,PTH,ViaDrill
T2C0.0236
; #@! TA.AperFunction,Plated,PTH,ComponentDrill
T3C0.0350
; #@! TA.AperFunction,Plated,PTH,ComponentDrill
T4C0.0360
; #@! TA.AperFunction,Plated,PTH,ComponentDrill
T5C0.0551
%
G90
G05
T1
X4.7992Y-4.4063
X4.7992Y-4.8563
X5.2242Y-4.2313
X5.2242Y-4.4563
X5.2742Y-4.3563
X5.3242Y-4.2313
X5.3242Y-4.3063
X5.4092Y-3.8413
X5.4492Y-3.8413
X5.4892Y-3.8313
X5.5192Y-4.7313
X5.5292Y-3.3213
X5.5292Y-3.8313
X5.5392Y-3.3713
X5.5492Y-4.2813
X5.5792Y-3.9563
X5.5992Y-4.2563
X5.6242Y-3.9063
X5.6292Y-4.4763
X5.6742Y-4.0813
X5.6992Y-4.8063
X5.7742Y-4.2313
X5.7992Y-3.9063
X5.7992Y-4.0063
X5.8742Y-4.4363
X5.9242Y-4.4363
X5.9292Y-4.4763
X5.9592Y-4.0613
X5.9742Y-4.5763
X5.9742Y-4.6163
X5.9742Y-4.6563
X6.0042Y-4.5463
X6.0242Y-4.2313
X6.0242Y-4.3563
X6.1392Y-3.7413
X6.1492Y-4.0013
X6.1992Y-4.0063
X6.2042Y-4.8313
X6.2042Y-4.8813
X6.2092Y-4.6513
X6.2692Y-4.6613
X6.2892Y-4.4363
X6.3242Y-3.8063
X6.3242Y-4.9063
X6.3292Y-3.5313
X6.3292Y-3.7113
X6.3392Y-4.4013
X6.3592Y-4.4963
X6.3742Y-4.9063
X6.4242Y-3.8063
X6.4292Y-4.2913
X6.4292Y-4.4113
X6.4292Y-4.8913
X6.4492Y-4.0063
X6.4792Y-4.4113
X6.5292Y-4.2613
X6.5392Y-4.8213
X6.5492Y-4.3313
X6.5992Y-4.5313
X6.6142Y-4.8563
X6.6192Y-4.5913
X6.6192Y-4.6813
X6.6242Y-4.9063
X6.6367Y-4.4188
X6.6592Y-4.5913
X6.6992Y-4.3313
X6.6992Y-4.4063
X6.6992Y-4.7213
T2
X5.5992Y-3.4063
X5.5992Y-3.4563
X5.5992Y-3.5063
X5.5992Y-3.5563
X5.5992Y-3.6063
X5.5992Y-3.6563
X5.5992Y-3.7063
X5.5992Y-3.7563
X5.5992Y-3.8063
X5.9992Y-3.3813
X5.9992Y-3.4313
X5.9992Y-3.4813
X5.9992Y-3.5313
X5.9992Y-3.5813
X5.9992Y-3.6313
X5.9992Y-3.6813
X5.9992Y-3.7313
X5.9992Y-3.7813
T3
X5.2392Y-3.1813
X5.3392Y-3.1813
X5.4392Y-3.1813
X5.5392Y-3.1813
X5.5992Y-5.0813
X5.6392Y-3.1813
X5.6992Y-5.0813
X5.7392Y-3.1813
X5.7992Y-5.0813
X5.8392Y-3.1813
X5.8992Y-5.0813
X5.9392Y-3.1813
X5.9992Y-5.0813
X6.0392Y-3.1813
X6.0992Y-5.0813
X6.1392Y-3.1813
X6.1992Y-5.0813
X6.2992Y-3.1813
X6.2992Y-5.0813
X6.3992Y-3.1813
X6.4992Y-3.1813
X6.4992Y-5.0813
X6.5992Y-3.1813
X6.5992Y-5.0813
X6.6992Y-3.1813
X6.6992Y-5.0813
X6.7992Y-3.1813
X6.7992Y-5.0813
X6.8992Y-3.1813
X6.8992Y-5.0813
X6.9992Y-3.1813
X6.9992Y-3.9813
X6.9992Y-4.0813
X6.9992Y-4.1813
X6.9992Y-5.0813
X7.0992Y-3.9813
X7.0992Y-4.0813
X7.0992Y-4.1813
T4
X4.6242Y-4.3563
X4.7242Y-4.3563
T5
X4.6742Y-4.0063
X4.6742Y-4.1441
X4.6742Y-4.5813
X4.6742Y-4.7191
X6.8742Y-3.3929
X6.8742Y-3.5307
X6.8742Y-3.6685
X6.8742Y-3.8063
X6.8742Y-4.3429
X6.8742Y-4.4807
X6.8742Y-4.6185
X6.8742Y-4.7563
T0
M30
