%TF.GenerationSoftware,KiCad,Pcbnew,7.0.7*%
%TF.CreationDate,2023-10-02T21:51:04-04:00*%
%TF.ProjectId,sensor_interface_1.1.0,73656e73-6f72-45f6-996e-746572666163,rev?*%
%TF.SameCoordinates,Original*%
%TF.FileFunction,Profile,NP*%
%FSLAX46Y46*%
G04 Gerber Fmt 4.6, Leading zero omitted, Abs format (unit mm)*
G04 Created by KiCad (PCBNEW 7.0.7) date 2023-10-02 21:51:04*
%MOMM*%
%LPD*%
G01*
G04 APERTURE LIST*
%TA.AperFunction,Profile*%
%ADD10C,0.025400*%
%TD*%
%TA.AperFunction,Profile*%
%ADD11C,0.050000*%
%TD*%
G04 APERTURE END LIST*
D10*
X114280750Y-130333950D02*
G75*
G03*
X115550750Y-131603950I1269950J-50D01*
G01*
D11*
X114280750Y-131476950D02*
X114280750Y-131730950D01*
D10*
X115550750Y-78263950D02*
G75*
G03*
X114280750Y-79533950I-50J-1269950D01*
G01*
X179050750Y-131603950D02*
G75*
G03*
X180320750Y-130333950I50J1269950D01*
G01*
X182860750Y-93757950D02*
X180320750Y-91217950D01*
X180320750Y-91217950D02*
X180320750Y-80803950D01*
X180320750Y-129063950D02*
X180320750Y-130333950D01*
X180320750Y-80803950D02*
G75*
G03*
X177780750Y-78263950I-2540050J-50D01*
G01*
D11*
X114153750Y-131603950D02*
X114407750Y-131603950D01*
D10*
X182860750Y-93757950D02*
X182860750Y-126523950D01*
X177780750Y-78263950D02*
X115550750Y-78263950D01*
X179050750Y-131603950D02*
G75*
G03*
X180320750Y-130333950I50J1269950D01*
G01*
X115550750Y-131603950D02*
X179050750Y-131603950D01*
X114280750Y-130333950D02*
G75*
G03*
X115550750Y-131603950I1269950J-50D01*
G01*
X179050750Y-131603950D02*
G75*
G03*
X180320750Y-130333950I50J1269950D01*
G01*
X114280750Y-79533950D02*
X114280750Y-130333950D01*
X180320750Y-129063950D02*
X182860750Y-126523950D01*
X180320750Y-80803950D02*
G75*
G03*
X177780750Y-78263950I-2540050J-50D01*
G01*
X180320750Y-80803950D02*
G75*
G03*
X177780750Y-78263950I-2540050J-50D01*
G01*
X114280750Y-130333950D02*
G75*
G03*
X115550750Y-131603950I1269950J-50D01*
G01*
X179050750Y-131603950D02*
G75*
G03*
X180320750Y-130333950I50J1269950D01*
G01*
X115550750Y-78263950D02*
G75*
G03*
X114280750Y-79533950I-50J-1269950D01*
G01*
X114280750Y-130333950D02*
G75*
G03*
X115550750Y-131603950I1269950J-50D01*
G01*
X115550750Y-78263950D02*
G75*
G03*
X114280750Y-79533950I-50J-1269950D01*
G01*
M02*
