%TF.GenerationSoftware,KiCad,Pcbnew,7.0.7*%
%TF.CreationDate,2023-10-02T21:51:04-04:00*%
%TF.ProjectId,sensor_interface_1.1.0,73656e73-6f72-45f6-996e-746572666163,rev?*%
%TF.SameCoordinates,Original*%
%TF.FileFunction,Soldermask,Top*%
%TF.FilePolarity,Negative*%
%FSLAX46Y46*%
G04 Gerber Fmt 4.6, Leading zero omitted, Abs format (unit mm)*
G04 Created by KiCad (PCBNEW 7.0.7) date 2023-10-02 21:51:04*
%MOMM*%
%LPD*%
G01*
G04 APERTURE LIST*
G04 Aperture macros list*
%AMRoundRect*
0 Rectangle with rounded corners*
0 $1 Rounding radius*
0 $2 $3 $4 $5 $6 $7 $8 $9 X,Y pos of 4 corners*
0 Add a 4 corners polygon primitive as box body*
4,1,4,$2,$3,$4,$5,$6,$7,$8,$9,$2,$3,0*
0 Add four circle primitives for the rounded corners*
1,1,$1+$1,$2,$3*
1,1,$1+$1,$4,$5*
1,1,$1+$1,$6,$7*
1,1,$1+$1,$8,$9*
0 Add four rect primitives between the rounded corners*
20,1,$1+$1,$2,$3,$4,$5,0*
20,1,$1+$1,$4,$5,$6,$7,0*
20,1,$1+$1,$6,$7,$8,$9,0*
20,1,$1+$1,$8,$9,$2,$3,0*%
G04 Aperture macros list end*
%ADD10C,0.254000*%
%ADD11C,3.200400*%
%ADD12RoundRect,0.050800X-0.825500X-0.825500X0.825500X-0.825500X0.825500X0.825500X-0.825500X0.825500X0*%
%ADD13C,1.752600*%
%ADD14RoundRect,0.050800X0.965200X-2.667000X0.965200X2.667000X-0.965200X2.667000X-0.965200X-2.667000X0*%
%ADD15RoundRect,0.050800X0.300000X-0.250000X0.300000X0.250000X-0.300000X0.250000X-0.300000X-0.250000X0*%
%ADD16RoundRect,0.050800X-0.800000X0.450000X-0.800000X-0.450000X0.800000X-0.450000X0.800000X0.450000X0*%
%ADD17RoundRect,0.050800X-0.700000X-0.300000X0.700000X-0.300000X0.700000X0.300000X-0.700000X0.300000X0*%
%ADD18RoundRect,0.050800X0.400000X0.400000X-0.400000X0.400000X-0.400000X-0.400000X0.400000X-0.400000X0*%
%ADD19RoundRect,0.050800X-0.725000X-0.225000X0.725000X-0.225000X0.725000X0.225000X-0.725000X0.225000X0*%
%ADD20RoundRect,0.050800X-0.550000X-1.500000X0.550000X-1.500000X0.550000X1.500000X-0.550000X1.500000X0*%
%ADD21RoundRect,0.622300X0.000000X0.000000X0.000000X0.000000X0.000000X0.000000X0.000000X0.000000X0*%
%ADD22RoundRect,0.050800X-0.250000X-0.300000X0.250000X-0.300000X0.250000X0.300000X-0.250000X0.300000X0*%
%ADD23RoundRect,0.050800X-0.300000X0.250000X-0.300000X-0.250000X0.300000X-0.250000X0.300000X0.250000X0*%
%ADD24RoundRect,0.050800X-0.889000X-0.381000X0.889000X-0.381000X0.889000X0.381000X-0.889000X0.381000X0*%
%ADD25RoundRect,0.050800X-1.050000X1.050000X-1.050000X-1.050000X1.050000X-1.050000X1.050000X1.050000X0*%
%ADD26C,2.201600*%
%ADD27RoundRect,0.050800X-0.400000X0.400000X-0.400000X-0.400000X0.400000X-0.400000X0.400000X0.400000X0*%
%ADD28RoundRect,0.050800X1.050000X-1.050000X1.050000X1.050000X-1.050000X1.050000X-1.050000X-1.050000X0*%
%ADD29RoundRect,0.050800X0.350000X0.650000X-0.350000X0.650000X-0.350000X-0.650000X0.350000X-0.650000X0*%
%ADD30RoundRect,0.108300X0.172500X0.267500X-0.172500X0.267500X-0.172500X-0.267500X0.172500X-0.267500X0*%
%ADD31RoundRect,0.050800X-0.350000X-0.650000X0.350000X-0.650000X0.350000X0.650000X-0.350000X0.650000X0*%
%ADD32RoundRect,0.050800X-1.700000X0.500000X-1.700000X-0.500000X1.700000X-0.500000X1.700000X0.500000X0*%
%ADD33RoundRect,0.050800X-4.300000X5.350000X-4.300000X-5.350000X4.300000X-5.350000X4.300000X5.350000X0*%
%ADD34RoundRect,0.050800X0.250000X0.300000X-0.250000X0.300000X-0.250000X-0.300000X0.250000X-0.300000X0*%
%ADD35O,1.473200X2.844800*%
%ADD36RoundRect,0.050800X0.700000X0.300000X-0.700000X0.300000X-0.700000X-0.300000X0.700000X-0.300000X0*%
G04 APERTURE END LIST*
D10*
X139426750Y-130079950D02*
X138410750Y-131095950D01*
X138156750Y-115093950D02*
X141966750Y-118903950D01*
X134346750Y-131095950D02*
X133584750Y-130333950D01*
X133584750Y-130333950D02*
X133584750Y-116617950D01*
X141966750Y-118903950D02*
X144760750Y-118903950D01*
X138410750Y-131095950D02*
X134346750Y-131095950D01*
X140696750Y-122713950D02*
X139934750Y-122713950D01*
X139934750Y-122713950D02*
X139426750Y-123221950D01*
X135108750Y-115093950D02*
X138156750Y-115093950D01*
X143998750Y-121443950D02*
X141966750Y-121443950D01*
X139426750Y-123221950D02*
X139426750Y-130079950D01*
X144760750Y-122205950D02*
X143998750Y-121443950D01*
X141966750Y-121443950D02*
X140696750Y-122713950D01*
X133584750Y-116617950D02*
X135108750Y-115093950D01*
D11*
%TO.C,JP1*%
X129520750Y-80803950D03*
D12*
X155936750Y-80803950D03*
D13*
X153396750Y-80803950D03*
X150856750Y-80803950D03*
X148316750Y-80803950D03*
X145776750Y-80803950D03*
X143236750Y-80803950D03*
X140696750Y-80803950D03*
X138156750Y-80803950D03*
X135616750Y-80803950D03*
X133076750Y-80803950D03*
%TD*%
D14*
%TO.C,X1*%
X136251750Y-127920950D03*
X136251750Y-118268950D03*
%TD*%
D15*
%TO.C,R12*%
X148697750Y-106288950D03*
X148697750Y-107388950D03*
%TD*%
D16*
%TO.C,C3*%
X131425750Y-94318950D03*
X131425750Y-91418950D03*
%TD*%
D17*
%TO.C,U6*%
X159205750Y-113823950D03*
X159205750Y-115093950D03*
X159205750Y-116363950D03*
X159205750Y-117633950D03*
X164605750Y-117633950D03*
X164605750Y-116363950D03*
X164605750Y-115093950D03*
X164605750Y-113823950D03*
%TD*%
D11*
%TO.C,JP3*%
X180320750Y-96043950D03*
X180320750Y-123983950D03*
D12*
X177780750Y-101123950D03*
D13*
X177780750Y-103663950D03*
X177780750Y-106203950D03*
X180320750Y-106203950D03*
X180320750Y-103663950D03*
X180320750Y-101123950D03*
%TD*%
D18*
%TO.C,D5*%
X119245750Y-129063950D03*
X120745750Y-129063950D03*
%TD*%
D15*
%TO.C,R1*%
X170160750Y-105018950D03*
X170160750Y-106118950D03*
%TD*%
D19*
%TO.C,U5*%
X139778750Y-102221950D03*
X139778750Y-102871950D03*
X139778750Y-103521950D03*
X139778750Y-104171950D03*
X139778750Y-104821950D03*
X139778750Y-105471950D03*
X139778750Y-106121950D03*
X145678750Y-106121950D03*
X145678750Y-105471950D03*
X145678750Y-104821950D03*
X145678750Y-104171950D03*
X145678750Y-103521950D03*
X145678750Y-102871950D03*
X145678750Y-102221950D03*
%TD*%
D20*
%TO.C,RELAY1*%
X154312750Y-107054950D03*
X159392750Y-107054950D03*
X161932750Y-107054950D03*
X164472750Y-107054950D03*
X164472750Y-99764950D03*
X161932750Y-99764950D03*
X159392750Y-99764950D03*
X154312750Y-99764950D03*
%TD*%
D15*
%TO.C,R16*%
X161905750Y-119623950D03*
X161905750Y-120723950D03*
%TD*%
D21*
%TO.C,TP2*%
X173970750Y-104044950D03*
%TD*%
D12*
%TO.C,JP4*%
X165080750Y-129063950D03*
D13*
X167620750Y-129063950D03*
X170160750Y-129063950D03*
X172700750Y-129063950D03*
X175240750Y-129063950D03*
X177780750Y-129063950D03*
%TD*%
D22*
%TO.C,R3*%
X149755750Y-101504950D03*
X148655750Y-101504950D03*
%TD*%
D15*
%TO.C,R22*%
X164572750Y-122163950D03*
X164572750Y-123263950D03*
%TD*%
D22*
%TO.C,C8*%
X162074750Y-112426950D03*
X160974750Y-112426950D03*
%TD*%
D23*
%TO.C,C1*%
X133965750Y-92783950D03*
X133965750Y-91683950D03*
%TD*%
%TO.C,R11*%
X149967750Y-107388950D03*
X149967750Y-106288950D03*
%TD*%
D24*
%TO.C,U2*%
X146195850Y-111918950D03*
X146195850Y-113188950D03*
X146195850Y-114458950D03*
X146195850Y-115728950D03*
X146195850Y-116998950D03*
X146195850Y-118268950D03*
X146195850Y-119538950D03*
X146195850Y-120808950D03*
X146195850Y-122078950D03*
X156025650Y-122078950D03*
X156025650Y-120808950D03*
X156025650Y-119538950D03*
X156025650Y-118268950D03*
X156025650Y-116998950D03*
X156025650Y-115728950D03*
X156025650Y-114458950D03*
X156025650Y-113188950D03*
X156025650Y-111918950D03*
%TD*%
D22*
%TO.C,R14*%
X124355750Y-111918950D03*
X123255750Y-111918950D03*
%TD*%
D15*
%TO.C,R21*%
X163302750Y-122163950D03*
X163302750Y-123263950D03*
%TD*%
D25*
%TO.C,CON2*%
X118725750Y-116363950D03*
D26*
X118725750Y-119863950D03*
%TD*%
D22*
%TO.C,R7*%
X117370750Y-129063950D03*
X116270750Y-129063950D03*
%TD*%
%TO.C,R10*%
X149755750Y-102774950D03*
X148655750Y-102774950D03*
%TD*%
D27*
%TO.C,D1*%
X170160750Y-102508950D03*
X170160750Y-101008950D03*
%TD*%
D18*
%TO.C,D3*%
X119245750Y-125253950D03*
X120745750Y-125253950D03*
%TD*%
D28*
%TO.C,CON3*%
X174605750Y-120808950D03*
D26*
X174605750Y-117308950D03*
X174605750Y-113808950D03*
X174605750Y-110308950D03*
%TD*%
D18*
%TO.C,D2*%
X119245750Y-123348950D03*
X120745750Y-123348950D03*
%TD*%
D29*
%TO.C,C5*%
X140254750Y-98837950D03*
X142154750Y-98837950D03*
%TD*%
D15*
%TO.C,R8*%
X133965750Y-94223950D03*
X133965750Y-95323950D03*
%TD*%
%TO.C,C6*%
X133076750Y-109590950D03*
X133076750Y-110690950D03*
%TD*%
D23*
%TO.C,C7*%
X139680750Y-119453950D03*
X139680750Y-118353950D03*
%TD*%
D15*
%TO.C,R2*%
X157968750Y-111368950D03*
X157968750Y-112468950D03*
%TD*%
%TO.C,C4*%
X139680750Y-120893950D03*
X139680750Y-121993950D03*
%TD*%
D22*
%TO.C,R5*%
X117370750Y-125253950D03*
X116270750Y-125253950D03*
%TD*%
D15*
%TO.C,R23*%
X157841750Y-115178950D03*
X157841750Y-116278950D03*
%TD*%
D22*
%TO.C,R13*%
X124355750Y-110013950D03*
X123255750Y-110013950D03*
%TD*%
D13*
%TO.C,JP5*%
X142220750Y-129063950D03*
X144760750Y-129063950D03*
X147300750Y-129063950D03*
X149840750Y-129063950D03*
X152380750Y-129063950D03*
X154920750Y-129063950D03*
X157460750Y-129063950D03*
D12*
X160000750Y-129063950D03*
%TD*%
D15*
%TO.C,R9*%
X147427750Y-106288950D03*
X147427750Y-107388950D03*
%TD*%
%TO.C,R20*%
X164572750Y-119623950D03*
X164572750Y-120723950D03*
%TD*%
D12*
%TO.C,JP2*%
X177780750Y-80803950D03*
D13*
X175240750Y-80803950D03*
X172700750Y-80803950D03*
X170160750Y-80803950D03*
X167620750Y-80803950D03*
X165080750Y-80803950D03*
X162540750Y-80803950D03*
X160000750Y-80803950D03*
%TD*%
D15*
%TO.C,R18*%
X161905750Y-122163950D03*
X161905750Y-123263950D03*
%TD*%
D18*
%TO.C,D4*%
X119245750Y-127158950D03*
X120745750Y-127158950D03*
%TD*%
D30*
%TO.C,Q1*%
X156817750Y-95916950D03*
X155817750Y-95916950D03*
X156317750Y-96966950D03*
%TD*%
D22*
%TO.C,R6*%
X117370750Y-127158950D03*
X116270750Y-127158950D03*
%TD*%
D31*
%TO.C,C9*%
X163490750Y-94265950D03*
X161590750Y-94265950D03*
%TD*%
D28*
%TO.C,CON4*%
X174605750Y-96678950D03*
D26*
X174605750Y-93178950D03*
X174605750Y-89678950D03*
X174605750Y-86178950D03*
%TD*%
D21*
%TO.C,TP3*%
X116058750Y-79914950D03*
%TD*%
D15*
%TO.C,R19*%
X163302750Y-119623950D03*
X163302750Y-120723950D03*
%TD*%
D25*
%TO.C,CON1*%
X118725750Y-101758950D03*
D26*
X118725750Y-105258950D03*
%TD*%
D15*
%TO.C,R15*%
X160635750Y-119623950D03*
X160635750Y-120723950D03*
%TD*%
D32*
%TO.C,U4*%
X136632750Y-88804950D03*
X136632750Y-91344950D03*
X136632750Y-93884950D03*
D33*
X147232750Y-91344950D03*
%TD*%
D21*
%TO.C,TP1*%
X130409750Y-123602950D03*
%TD*%
D22*
%TO.C,R4*%
X117370750Y-123348950D03*
X116270750Y-123348950D03*
%TD*%
D34*
%TO.C,C2*%
X140019750Y-100615950D03*
X141119750Y-100615950D03*
%TD*%
D35*
%TO.C,JP6*%
X117455750Y-110648950D03*
X119995750Y-110648950D03*
%TD*%
D15*
%TO.C,R17*%
X160635750Y-122163950D03*
X160635750Y-123263950D03*
%TD*%
D31*
%TO.C,C10*%
X163490750Y-89693950D03*
X161590750Y-89693950D03*
%TD*%
D36*
%TO.C,U1*%
X131458750Y-112172950D03*
X131458750Y-110902950D03*
X131458750Y-109632950D03*
X131458750Y-108362950D03*
X126058750Y-108362950D03*
X126058750Y-109632950D03*
X126058750Y-110902950D03*
X126058750Y-112172950D03*
%TD*%
M02*
