%TF.GenerationSoftware,KiCad,Pcbnew,7.0.7*%
%TF.CreationDate,2023-10-02T21:57:18-04:00*%
%TF.ProjectId,vehicle_controL_module_0.1.0,76656869-636c-4655-9f63-6f6e74726f4c,rev?*%
%TF.SameCoordinates,Original*%
%TF.FileFunction,Profile,NP*%
%FSLAX46Y46*%
G04 Gerber Fmt 4.6, Leading zero omitted, Abs format (unit mm)*
G04 Created by KiCad (PCBNEW 7.0.7) date 2023-10-02 21:57:18*
%MOMM*%
%LPD*%
G01*
G04 APERTURE LIST*
%TA.AperFunction,Profile*%
%ADD10C,0.025400*%
%TD*%
%TA.AperFunction,Profile*%
%ADD11C,0.050000*%
%TD*%
G04 APERTURE END LIST*
D10*
X181717750Y-131603950D02*
G75*
G03*
X182987750Y-130333950I0J1270000D01*
G01*
X114153750Y-130333950D02*
G75*
G03*
X115423750Y-131603950I1270000J0D01*
G01*
X115423750Y-78263950D02*
G75*
G03*
X114153750Y-79533950I0J-1270000D01*
G01*
X182987750Y-80803950D02*
G75*
G03*
X180447750Y-78263950I-2540000J0D01*
G01*
X114153750Y-130333950D02*
G75*
G03*
X115423750Y-131603950I1270000J0D01*
G01*
X181717750Y-131603950D02*
G75*
G03*
X182987750Y-130333950I0J1270000D01*
G01*
X115423750Y-78263950D02*
G75*
G03*
X114153750Y-79533950I0J-1270000D01*
G01*
X114153750Y-130333950D02*
G75*
G03*
X115423750Y-131603950I1270000J0D01*
G01*
X181717750Y-131603950D02*
G75*
G03*
X182987750Y-130333950I0J1270000D01*
G01*
X182987750Y-80803950D02*
G75*
G03*
X180447750Y-78263950I-2540000J0D01*
G01*
X181717750Y-131603950D02*
G75*
G03*
X182987750Y-130333950I0J1270000D01*
G01*
X180447750Y-78263950D02*
X115423750Y-78263950D01*
X115423750Y-78263950D02*
G75*
G03*
X114153750Y-79533950I0J-1270000D01*
G01*
X114153750Y-79533950D02*
X114153750Y-130333950D01*
X114153750Y-130333950D02*
G75*
G03*
X115423750Y-131603950I1270000J0D01*
G01*
X182987750Y-80803950D02*
G75*
G03*
X180447750Y-78263950I-2540000J0D01*
G01*
X115423750Y-131603950D02*
X181717750Y-131603950D01*
D11*
X114026750Y-131603950D02*
X114280750Y-131603950D01*
X114153750Y-131476950D02*
X114153750Y-131730950D01*
D10*
X182987750Y-80803950D02*
X182987750Y-130333950D01*
M02*
