%TF.GenerationSoftware,KiCad,Pcbnew,7.0.7*%
%TF.CreationDate,2023-10-02T21:57:18-04:00*%
%TF.ProjectId,vehicle_controL_module_0.1.0,76656869-636c-4655-9f63-6f6e74726f4c,rev?*%
%TF.SameCoordinates,Original*%
%TF.FileFunction,Soldermask,Bot*%
%TF.FilePolarity,Negative*%
%FSLAX46Y46*%
G04 Gerber Fmt 4.6, Leading zero omitted, Abs format (unit mm)*
G04 Created by KiCad (PCBNEW 7.0.7) date 2023-10-02 21:57:18*
%MOMM*%
%LPD*%
G01*
G04 APERTURE LIST*
G04 Aperture macros list*
%AMRoundRect*
0 Rectangle with rounded corners*
0 $1 Rounding radius*
0 $2 $3 $4 $5 $6 $7 $8 $9 X,Y pos of 4 corners*
0 Add a 4 corners polygon primitive as box body*
4,1,4,$2,$3,$4,$5,$6,$7,$8,$9,$2,$3,0*
0 Add four circle primitives for the rounded corners*
1,1,$1+$1,$2,$3*
1,1,$1+$1,$4,$5*
1,1,$1+$1,$6,$7*
1,1,$1+$1,$8,$9*
0 Add four rect primitives between the rounded corners*
20,1,$1+$1,$2,$3,$4,$5,0*
20,1,$1+$1,$4,$5,$6,$7,0*
20,1,$1+$1,$6,$7,$8,$9,0*
20,1,$1+$1,$8,$9,$2,$3,0*%
G04 Aperture macros list end*
%ADD10C,2.201600*%
%ADD11RoundRect,0.050800X-1.050000X1.050000X-1.050000X-1.050000X1.050000X-1.050000X1.050000X1.050000X0*%
%ADD12RoundRect,0.050800X1.050000X-1.050000X1.050000X1.050000X-1.050000X1.050000X-1.050000X-1.050000X0*%
%ADD13O,1.473200X2.844800*%
%ADD14C,3.200400*%
%ADD15C,1.752600*%
%ADD16RoundRect,0.050800X-0.825500X-0.825500X0.825500X-0.825500X0.825500X0.825500X-0.825500X0.825500X0*%
%ADD17RoundRect,0.050800X1.050000X1.050000X-1.050000X1.050000X-1.050000X-1.050000X1.050000X-1.050000X0*%
G04 APERTURE END LIST*
D10*
%TO.C,CON1*%
X118598750Y-105258950D03*
D11*
X118598750Y-101758950D03*
%TD*%
D10*
%TO.C,CON2*%
X118598750Y-119863950D03*
D11*
X118598750Y-116363950D03*
%TD*%
D10*
%TO.C,CON4*%
X175240750Y-85670950D03*
X175240750Y-89170950D03*
X175240750Y-92670950D03*
D12*
X175240750Y-96170950D03*
%TD*%
D10*
%TO.C,CON3*%
X175240750Y-113610950D03*
X175240750Y-117110950D03*
X175240750Y-120610950D03*
D12*
X175240750Y-124110950D03*
%TD*%
D13*
%TO.C,JP6*%
X119868750Y-110648950D03*
X117328750Y-110648950D03*
%TD*%
D14*
%TO.C,JP1*%
X129393750Y-80803950D03*
D15*
X132949750Y-80803950D03*
X135489750Y-80803950D03*
X138029750Y-80803950D03*
X140569750Y-80803950D03*
X143109750Y-80803950D03*
X145649750Y-80803950D03*
X148189750Y-80803950D03*
X150729750Y-80803950D03*
X153269750Y-80803950D03*
D16*
X155809750Y-80803950D03*
%TD*%
D15*
%TO.C,JP2*%
X159873750Y-80803950D03*
X162413750Y-80803950D03*
X164953750Y-80803950D03*
X167493750Y-80803950D03*
X170033750Y-80803950D03*
X172573750Y-80803950D03*
X175113750Y-80803950D03*
D16*
X177653750Y-80803950D03*
%TD*%
D14*
%TO.C,JP3*%
X180193750Y-123983950D03*
X180193750Y-96043950D03*
D15*
X180193750Y-101123950D03*
X180193750Y-103663950D03*
X180193750Y-106203950D03*
X177653750Y-106203950D03*
X177653750Y-103663950D03*
D16*
X177653750Y-101123950D03*
%TD*%
D15*
%TO.C,JP4*%
X177653750Y-129063950D03*
X175113750Y-129063950D03*
X172573750Y-129063950D03*
X170033750Y-129063950D03*
X167493750Y-129063950D03*
D16*
X164953750Y-129063950D03*
%TD*%
%TO.C,JP5*%
X159873750Y-129063950D03*
D15*
X157333750Y-129063950D03*
X154793750Y-129063950D03*
X152253750Y-129063950D03*
X149713750Y-129063950D03*
X147173750Y-129063950D03*
X144633750Y-129063950D03*
X142093750Y-129063950D03*
%TD*%
D10*
%TO.C,CON9*%
X150841750Y-88296950D03*
X154341750Y-88296950D03*
D17*
X157841750Y-88296950D03*
%TD*%
D10*
%TO.C,CON10*%
X139919750Y-88296950D03*
X143419750Y-88296950D03*
D17*
X146919750Y-88296950D03*
%TD*%
M02*
