%TF.GenerationSoftware,KiCad,Pcbnew,7.0.7*%
%TF.CreationDate,2023-10-02T21:57:18-04:00*%
%TF.ProjectId,vehicle_controL_module_0.1.0,76656869-636c-4655-9f63-6f6e74726f4c,rev?*%
%TF.SameCoordinates,Original*%
%TF.FileFunction,Copper,L1,Top*%
%TF.FilePolarity,Positive*%
%FSLAX46Y46*%
G04 Gerber Fmt 4.6, Leading zero omitted, Abs format (unit mm)*
G04 Created by KiCad (PCBNEW 7.0.7) date 2023-10-02 21:57:18*
%MOMM*%
%LPD*%
G01*
G04 APERTURE LIST*
G04 Aperture macros list*
%AMRoundRect*
0 Rectangle with rounded corners*
0 $1 Rounding radius*
0 $2 $3 $4 $5 $6 $7 $8 $9 X,Y pos of 4 corners*
0 Add a 4 corners polygon primitive as box body*
4,1,4,$2,$3,$4,$5,$6,$7,$8,$9,$2,$3,0*
0 Add four circle primitives for the rounded corners*
1,1,$1+$1,$2,$3*
1,1,$1+$1,$4,$5*
1,1,$1+$1,$6,$7*
1,1,$1+$1,$8,$9*
0 Add four rect primitives between the rounded corners*
20,1,$1+$1,$2,$3,$4,$5,0*
20,1,$1+$1,$4,$5,$6,$7,0*
20,1,$1+$1,$6,$7,$8,$9,0*
20,1,$1+$1,$8,$9,$2,$3,0*%
G04 Aperture macros list end*
%TA.AperFunction,SMDPad,CuDef*%
%ADD10R,1.400000X0.600000*%
%TD*%
%TA.AperFunction,SMDPad,CuDef*%
%ADD11R,1.778000X0.762000*%
%TD*%
%TA.AperFunction,SMDPad,CuDef*%
%ADD12R,1.930400X5.334000*%
%TD*%
%TA.AperFunction,SMDPad,CuDef*%
%ADD13RoundRect,0.571500X0.000000X0.000000X0.000000X0.000000X0.000000X0.000000X0.000000X0.000000X0*%
%TD*%
%TA.AperFunction,SMDPad,CuDef*%
%ADD14R,1.450000X0.450000*%
%TD*%
%TA.AperFunction,SMDPad,CuDef*%
%ADD15R,8.600000X10.700000*%
%TD*%
%TA.AperFunction,SMDPad,CuDef*%
%ADD16R,3.400000X1.000000*%
%TD*%
%TA.AperFunction,SMDPad,CuDef*%
%ADD17RoundRect,0.057500X0.267500X-0.172500X0.267500X0.172500X-0.267500X0.172500X-0.267500X-0.172500X0*%
%TD*%
%TA.AperFunction,SMDPad,CuDef*%
%ADD18R,1.100000X3.000000*%
%TD*%
%TA.AperFunction,SMDPad,CuDef*%
%ADD19R,0.600000X0.500000*%
%TD*%
%TA.AperFunction,SMDPad,CuDef*%
%ADD20R,0.500000X0.600000*%
%TD*%
%TA.AperFunction,SMDPad,CuDef*%
%ADD21R,0.700000X1.300000*%
%TD*%
%TA.AperFunction,ComponentPad*%
%ADD22C,2.100000*%
%TD*%
%TA.AperFunction,ComponentPad*%
%ADD23R,2.100000X2.100000*%
%TD*%
%TA.AperFunction,SMDPad,CuDef*%
%ADD24R,1.600000X0.900000*%
%TD*%
%TA.AperFunction,SMDPad,CuDef*%
%ADD25R,0.800000X0.800000*%
%TD*%
%TA.AperFunction,ComponentPad*%
%ADD26O,1.371600X2.743200*%
%TD*%
%TA.AperFunction,ComponentPad*%
%ADD27C,1.651000*%
%TD*%
%TA.AperFunction,ComponentPad*%
%ADD28R,1.651000X1.651000*%
%TD*%
%TA.AperFunction,SMDPad,CuDef*%
%ADD29R,1.300000X0.700000*%
%TD*%
%TA.AperFunction,ViaPad*%
%ADD30C,0.609600*%
%TD*%
%TA.AperFunction,ViaPad*%
%ADD31C,0.685800*%
%TD*%
%TA.AperFunction,ViaPad*%
%ADD32C,0.904800*%
%TD*%
%TA.AperFunction,Conductor*%
%ADD33C,0.406400*%
%TD*%
%TA.AperFunction,Conductor*%
%ADD34C,0.254000*%
%TD*%
%TA.AperFunction,Conductor*%
%ADD35C,1.270000*%
%TD*%
%TA.AperFunction,Conductor*%
%ADD36C,1.016000*%
%TD*%
%TA.AperFunction,Conductor*%
%ADD37C,0.609600*%
%TD*%
G04 APERTURE END LIST*
D10*
%TO.P,U1,8*%
%TO.N,N$9*%
X130757750Y-114204950D03*
%TO.P,U1,7*%
%TO.N,CANH*%
X130757750Y-112934950D03*
%TO.P,U1,6*%
%TO.N,CANL*%
X130757750Y-111664950D03*
%TO.P,U1,5*%
%TO.N,N/C*%
X130757750Y-110394950D03*
%TO.P,U1,4*%
%TO.N,RX_CAN*%
X136157750Y-110394950D03*
%TO.P,U1,3*%
%TO.N,+5V*%
X136157750Y-111664950D03*
%TO.P,U1,2*%
%TO.N,GND*%
X136157750Y-112934950D03*
%TO.P,U1,1*%
%TO.N,TX_CAN*%
X136157750Y-114204950D03*
%TD*%
D11*
%TO.P,U2,18*%
%TO.N,+5V*%
X151072650Y-111918950D03*
%TO.P,U2,17*%
%TO.N,RST_N*%
X151072650Y-113188950D03*
%TO.P,U2,16*%
%TO.N,CS_B*%
X151072650Y-114458950D03*
%TO.P,U2,15*%
%TO.N,MISO_B*%
X151072650Y-115728950D03*
%TO.P,U2,14*%
%TO.N,MOSI_B*%
X151072650Y-116998950D03*
%TO.P,U2,13*%
%TO.N,SCK_B*%
X151072650Y-118268950D03*
%TO.P,U2,12*%
%TO.N,INT*%
X151072650Y-119538950D03*
%TO.P,U2,11*%
%TO.N,N/C*%
X151072650Y-120808950D03*
%TO.P,U2,10*%
X151072650Y-122078950D03*
%TO.P,U2,9*%
%TO.N,GND*%
X141242850Y-122078950D03*
%TO.P,U2,8*%
%TO.N,N$17*%
X141242850Y-120808950D03*
%TO.P,U2,7*%
%TO.N,N$16*%
X141242850Y-119538950D03*
%TO.P,U2,6*%
%TO.N,N/C*%
X141242850Y-118268950D03*
%TO.P,U2,5*%
X141242850Y-116998950D03*
%TO.P,U2,4*%
X141242850Y-115728950D03*
%TO.P,U2,3*%
X141242850Y-114458950D03*
%TO.P,U2,2*%
%TO.N,RX_CAN*%
X141242850Y-113188950D03*
%TO.P,U2,1*%
%TO.N,TX_CAN*%
X141242850Y-111918950D03*
%TD*%
D12*
%TO.P,X1,2*%
%TO.N,N$16*%
X133330750Y-118268950D03*
%TO.P,X1,1*%
%TO.N,N$17*%
X133330750Y-127920950D03*
%TD*%
D13*
%TO.P,TP1,T*%
%TO.N,N/C*%
X129266750Y-129952950D03*
%TD*%
%TO.P,TP2,T*%
%TO.N,N/C*%
X179939750Y-109886950D03*
%TD*%
%TO.P,TP3,T*%
%TO.N,N/C*%
X115931750Y-79914950D03*
%TD*%
D14*
%TO.P,U5,P$14*%
%TO.N,SPOOF_SIGNAL_A*%
X152917750Y-104253950D03*
%TO.P,U5,P$13*%
%TO.N,N$7*%
X152917750Y-104903950D03*
%TO.P,U5,P$12*%
%TO.N,GND*%
X152917750Y-105553950D03*
%TO.P,U5,P$11*%
%TO.N,N$7*%
X152917750Y-106203950D03*
%TO.P,U5,P$10*%
%TO.N,SPOOF_SIGNAL_B*%
X152917750Y-106853950D03*
%TO.P,U5,P$9*%
%TO.N,SHDN*%
X152917750Y-107503950D03*
%TO.P,U5,P$8*%
%TO.N,LDAC*%
X152917750Y-108153950D03*
%TO.P,U5,P$7*%
%TO.N,N/C*%
X147017750Y-108153950D03*
%TO.P,U5,P$6*%
X147017750Y-107503950D03*
%TO.P,U5,P$5*%
%TO.N,MOSI_A*%
X147017750Y-106853950D03*
%TO.P,U5,P$4*%
%TO.N,SCK_A*%
X147017750Y-106203950D03*
%TO.P,U5,P$3*%
%TO.N,CS_A*%
X147017750Y-105553950D03*
%TO.P,U5,P$2*%
%TO.N,N/C*%
X147017750Y-104903950D03*
%TO.P,U5,P$1*%
%TO.N,+5V*%
X147017750Y-104253950D03*
%TD*%
D15*
%TO.P,U4,P$4*%
%TO.N,GND*%
X120825750Y-91090950D03*
D16*
%TO.P,U4,P$3*%
%TO.N,+5V*%
X131425750Y-88550950D03*
%TO.P,U4,P$2*%
%TO.N,GND*%
X131425750Y-91090950D03*
%TO.P,U4,P$1*%
%TO.N,V+*%
X131425750Y-93630950D03*
%TD*%
D17*
%TO.P,Q1,P$3*%
%TO.N,N$3*%
X160982750Y-98964950D03*
%TO.P,Q1,P$2*%
%TO.N,GND*%
X162032750Y-98464950D03*
%TO.P,Q1,P$1*%
%TO.N,SPOOF_EN*%
X162032750Y-99464950D03*
%TD*%
D18*
%TO.P,RELAY1,P$12*%
%TO.N,N$3*%
X160281750Y-101288950D03*
%TO.P,RELAY1,P$10*%
%TO.N,SIGNAL_INPUT_B*%
X165361750Y-101288950D03*
%TO.P,RELAY1,P$9*%
%TO.N,SIGNAL_OUTPUT_B*%
X167901750Y-101288950D03*
%TO.P,RELAY1,P$8*%
%TO.N,SPOOF_SIGNAL_B*%
X170441750Y-101288950D03*
%TO.P,RELAY1,P$5*%
%TO.N,SPOOF_SIGNAL_A*%
X170441750Y-108578950D03*
%TO.P,RELAY1,P$4*%
%TO.N,SIGNAL_OUTPUT_A*%
X167901750Y-108578950D03*
%TO.P,RELAY1,P$3*%
%TO.N,SIGNAL_INPUT_A*%
X165361750Y-108578950D03*
%TO.P,RELAY1,P$1*%
%TO.N,+5V*%
X160281750Y-108578950D03*
%TD*%
D19*
%TO.P,R9,P$2*%
%TO.N,GND*%
X154666750Y-109420950D03*
%TO.P,R9,P$1*%
%TO.N,LDAC*%
X154666750Y-108320950D03*
%TD*%
%TO.P,R12,P$2*%
%TO.N,GND*%
X155936750Y-109420950D03*
%TO.P,R12,P$1*%
%TO.N,SHDN*%
X155936750Y-108320950D03*
%TD*%
%TO.P,R11,P$2*%
%TO.N,SHDN*%
X157206750Y-108320950D03*
%TO.P,R11,P$1*%
%TO.N,+5V*%
X157206750Y-109420950D03*
%TD*%
D20*
%TO.P,C2,P$2*%
%TO.N,GND*%
X148358750Y-102647950D03*
%TO.P,C2,P$1*%
%TO.N,+5V*%
X147258750Y-102647950D03*
%TD*%
D21*
%TO.P,C5,P$2*%
%TO.N,GND*%
X149393750Y-100869950D03*
%TO.P,C5,P$1*%
%TO.N,+5V*%
X147493750Y-100869950D03*
%TD*%
D20*
%TO.P,R10,P$2*%
%TO.N,N$7*%
X154624750Y-106076950D03*
%TO.P,R10,P$1*%
%TO.N,+3V3*%
X155724750Y-106076950D03*
%TD*%
%TO.P,R3,P$2*%
%TO.N,N$7*%
X154624750Y-104806950D03*
%TO.P,R3,P$1*%
%TO.N,+5V*%
X155724750Y-104806950D03*
%TD*%
D19*
%TO.P,C6,P$2*%
%TO.N,GND*%
X137648750Y-112849950D03*
%TO.P,C6,P$1*%
%TO.N,+5V*%
X137648750Y-111749950D03*
%TD*%
D22*
%TO.P,CON1,P$2*%
%TO.N,GND*%
X118598750Y-105258950D03*
D23*
%TO.P,CON1,P$1*%
%TO.N,V+*%
X118598750Y-101758950D03*
%TD*%
D22*
%TO.P,CON2,P$2*%
%TO.N,CANL*%
X118598750Y-119863950D03*
D23*
%TO.P,CON2,P$1*%
%TO.N,CANH*%
X118598750Y-116363950D03*
%TD*%
D22*
%TO.P,CON4,P$4*%
%TO.N,GND*%
X175240750Y-85670950D03*
%TO.P,CON4,P$3*%
%TO.N,SIGNAL_OUTPUT_B*%
X175240750Y-89170950D03*
%TO.P,CON4,P$2*%
%TO.N,GND*%
X175240750Y-92670950D03*
D23*
%TO.P,CON4,P$1*%
%TO.N,SIGNAL_OUTPUT_A*%
X175240750Y-96170950D03*
%TD*%
D22*
%TO.P,CON3,P$4*%
%TO.N,GND*%
X175240750Y-113610950D03*
%TO.P,CON3,P$3*%
%TO.N,SIGNAL_INPUT_B*%
X175240750Y-117110950D03*
%TO.P,CON3,P$2*%
%TO.N,GND*%
X175240750Y-120610950D03*
D23*
%TO.P,CON3,P$1*%
%TO.N,SIGNAL_INPUT_A*%
X175240750Y-124110950D03*
%TD*%
D24*
%TO.P,C3,P$2*%
%TO.N,GND*%
X136632750Y-91016950D03*
%TO.P,C3,P$1*%
%TO.N,N$4*%
X136632750Y-88116950D03*
%TD*%
D19*
%TO.P,C1,P$2*%
%TO.N,GND*%
X134092750Y-90751950D03*
%TO.P,C1,P$1*%
%TO.N,+5V*%
X134092750Y-89651950D03*
%TD*%
%TO.P,R8,P$2*%
%TO.N,N$4*%
X134092750Y-87111950D03*
%TO.P,R8,P$1*%
%TO.N,+5V*%
X134092750Y-88211950D03*
%TD*%
D25*
%TO.P,D2,ANODE*%
%TO.N,N$6*%
X119118750Y-123348950D03*
%TO.P,D2,CATHODE*%
%TO.N,GND*%
X120618750Y-123348950D03*
%TD*%
D20*
%TO.P,R4,P$2*%
%TO.N,+5V*%
X116143750Y-123348950D03*
%TO.P,R4,P$1*%
%TO.N,N$6*%
X117243750Y-123348950D03*
%TD*%
D25*
%TO.P,D3,ANODE*%
%TO.N,N$1*%
X119118750Y-125253950D03*
%TO.P,D3,CATHODE*%
%TO.N,TX_CAN*%
X120618750Y-125253950D03*
%TD*%
D20*
%TO.P,R5,P$2*%
%TO.N,+5V*%
X116143750Y-125253950D03*
%TO.P,R5,P$1*%
%TO.N,N$1*%
X117243750Y-125253950D03*
%TD*%
D25*
%TO.P,D4,ANODE*%
%TO.N,N$5*%
X119118750Y-127158950D03*
%TO.P,D4,CATHODE*%
%TO.N,RX_CAN*%
X120618750Y-127158950D03*
%TD*%
D20*
%TO.P,R6,P$2*%
%TO.N,+5V*%
X116143750Y-127158950D03*
%TO.P,R6,P$1*%
%TO.N,N$5*%
X117243750Y-127158950D03*
%TD*%
D25*
%TO.P,D5,ANODE*%
%TO.N,N$8*%
X119118750Y-129063950D03*
%TO.P,D5,CATHODE*%
%TO.N,INT*%
X120618750Y-129063950D03*
%TD*%
D20*
%TO.P,R7,P$2*%
%TO.N,+5V*%
X116143750Y-129063950D03*
%TO.P,R7,P$1*%
%TO.N,N$8*%
X117243750Y-129063950D03*
%TD*%
D26*
%TO.P,JP6,2*%
%TO.N,N$2*%
X119868750Y-110648950D03*
%TO.P,JP6,1*%
%TO.N,CANH*%
X117328750Y-110648950D03*
%TD*%
D20*
%TO.P,R13,P$2*%
%TO.N,N$2*%
X123128750Y-110013950D03*
%TO.P,R13,P$1*%
%TO.N,CANL*%
X124228750Y-110013950D03*
%TD*%
D19*
%TO.P,C7,P$2*%
%TO.N,N$16*%
X136759750Y-118353950D03*
%TO.P,C7,P$1*%
%TO.N,GND*%
X136759750Y-119453950D03*
%TD*%
%TO.P,C4,P$2*%
%TO.N,N$17*%
X136759750Y-121993950D03*
%TO.P,C4,P$1*%
%TO.N,GND*%
X136759750Y-120893950D03*
%TD*%
D20*
%TO.P,R14,P$2*%
%TO.N,GND*%
X123128750Y-111918950D03*
%TO.P,R14,P$1*%
%TO.N,N$9*%
X124228750Y-111918950D03*
%TD*%
D19*
%TO.P,R2,P$2*%
%TO.N,RST_N*%
X153015750Y-113230950D03*
%TO.P,R2,P$1*%
%TO.N,+5V*%
X153015750Y-112130950D03*
%TD*%
D25*
%TO.P,D1,ANODE*%
%TO.N,N$10*%
X157841750Y-103524950D03*
%TO.P,D1,CATHODE*%
%TO.N,N$3*%
X157841750Y-102024950D03*
%TD*%
D19*
%TO.P,R1,P$2*%
%TO.N,+5V*%
X157841750Y-106880950D03*
%TO.P,R1,P$1*%
%TO.N,N$10*%
X157841750Y-105780950D03*
%TD*%
%TO.P,R15,P$2*%
%TO.N,ADC0*%
X158730750Y-121485950D03*
%TO.P,R15,P$1*%
%TO.N,N$13*%
X158730750Y-120385950D03*
%TD*%
%TO.P,R16,P$2*%
%TO.N,ADC1*%
X160000750Y-121485950D03*
%TO.P,R16,P$1*%
%TO.N,N$12*%
X160000750Y-120385950D03*
%TD*%
%TO.P,R17,P$2*%
%TO.N,GND*%
X158730750Y-124025950D03*
%TO.P,R17,P$1*%
%TO.N,ADC0*%
X158730750Y-122925950D03*
%TD*%
%TO.P,R18,P$2*%
%TO.N,GND*%
X160000750Y-124025950D03*
%TO.P,R18,P$1*%
%TO.N,ADC1*%
X160000750Y-122925950D03*
%TD*%
%TO.P,R19,P$2*%
%TO.N,ADC2*%
X161397750Y-121485950D03*
%TO.P,R19,P$1*%
%TO.N,SPOOF_SIGNAL_A*%
X161397750Y-120385950D03*
%TD*%
%TO.P,R20,P$2*%
%TO.N,ADC3*%
X162667750Y-121485950D03*
%TO.P,R20,P$1*%
%TO.N,SPOOF_SIGNAL_B*%
X162667750Y-120385950D03*
%TD*%
%TO.P,R21,P$2*%
%TO.N,GND*%
X161397750Y-124025950D03*
%TO.P,R21,P$1*%
%TO.N,ADC2*%
X161397750Y-122925950D03*
%TD*%
%TO.P,R22,P$2*%
%TO.N,GND*%
X162667750Y-124025950D03*
%TO.P,R22,P$1*%
%TO.N,ADC3*%
X162667750Y-122925950D03*
%TD*%
D27*
%TO.P,JP1,18*%
%TO.N,N/C*%
X132949750Y-80803950D03*
%TO.P,JP1,17*%
X135489750Y-80803950D03*
%TO.P,JP1,16*%
%TO.N,REF*%
X138029750Y-80803950D03*
%TO.P,JP1,15*%
%TO.N,GND*%
X140569750Y-80803950D03*
%TO.P,JP1,14*%
%TO.N,SCK_B*%
X143109750Y-80803950D03*
%TO.P,JP1,13*%
%TO.N,MISO_B*%
X145649750Y-80803950D03*
%TO.P,JP1,12*%
%TO.N,MOSI_B*%
X148189750Y-80803950D03*
%TO.P,JP1,11*%
%TO.N,CS_B*%
X150729750Y-80803950D03*
%TO.P,JP1,10*%
%TO.N,CS_A*%
X153269750Y-80803950D03*
D28*
%TO.P,JP1,9*%
%TO.N,IO8*%
X155809750Y-80803950D03*
%TD*%
D27*
%TO.P,JP2,8*%
%TO.N,INT*%
X159873750Y-80803950D03*
%TO.P,JP2,7*%
%TO.N,SPOOF_EN*%
X162413750Y-80803950D03*
%TO.P,JP2,6*%
%TO.N,RELAY_EN*%
X164953750Y-80803950D03*
%TO.P,JP2,5*%
%TO.N,IO4*%
X167493750Y-80803950D03*
%TO.P,JP2,4*%
%TO.N,IO3*%
X170033750Y-80803950D03*
%TO.P,JP2,3*%
%TO.N,IO2*%
X172573750Y-80803950D03*
%TO.P,JP2,2*%
%TO.N,IO1*%
X175113750Y-80803950D03*
D28*
%TO.P,JP2,1*%
%TO.N,IO0*%
X177653750Y-80803950D03*
%TD*%
D27*
%TO.P,JP3,38*%
%TO.N,N/C*%
X180193750Y-101123950D03*
%TO.P,JP3,37*%
%TO.N,MOSI_A*%
X180193750Y-103663950D03*
%TO.P,JP3,36*%
%TO.N,GND*%
X180193750Y-106203950D03*
%TO.P,JP3,35*%
%TO.N,N/C*%
X177653750Y-106203950D03*
%TO.P,JP3,34*%
%TO.N,SCK_A*%
X177653750Y-103663950D03*
D28*
%TO.P,JP3,33*%
%TO.N,MISO_A*%
X177653750Y-101123950D03*
%TD*%
D27*
%TO.P,JP4,32*%
%TO.N,ADC5*%
X177653750Y-129063950D03*
%TO.P,JP4,31*%
%TO.N,ADC4*%
X175113750Y-129063950D03*
%TO.P,JP4,30*%
%TO.N,ADC3*%
X172573750Y-129063950D03*
%TO.P,JP4,29*%
%TO.N,ADC2*%
X170033750Y-129063950D03*
%TO.P,JP4,28*%
%TO.N,ADC1*%
X167493750Y-129063950D03*
D28*
%TO.P,JP4,27*%
%TO.N,ADC0*%
X164953750Y-129063950D03*
%TD*%
%TO.P,JP5,26*%
%TO.N,VIN*%
X159873750Y-129063950D03*
D27*
%TO.P,JP5,25*%
%TO.N,GND*%
X157333750Y-129063950D03*
%TO.P,JP5,24*%
X154793750Y-129063950D03*
%TO.P,JP5,23*%
%TO.N,+5V*%
X152253750Y-129063950D03*
%TO.P,JP5,22*%
%TO.N,+3V3*%
X149713750Y-129063950D03*
%TO.P,JP5,21*%
%TO.N,RST*%
X147173750Y-129063950D03*
%TO.P,JP5,20*%
%TO.N,ADC7*%
X144633750Y-129063950D03*
%TO.P,JP5,19*%
%TO.N,ADC6*%
X142093750Y-129063950D03*
%TD*%
D10*
%TO.P,U6,8*%
%TO.N,+5V*%
X162700750Y-114585950D03*
%TO.P,U6,7*%
%TO.N,N$11*%
X162700750Y-115855950D03*
%TO.P,U6,6*%
%TO.N,N$12*%
X162700750Y-117125950D03*
%TO.P,U6,5*%
%TO.N,SIGNAL_INPUT_A*%
X162700750Y-118395950D03*
%TO.P,U6,4*%
%TO.N,GND*%
X157300750Y-118395950D03*
%TO.P,U6,3*%
%TO.N,N$13*%
X157300750Y-117125950D03*
%TO.P,U6,2*%
%TO.N,SIGNAL_INPUT_B*%
X157300750Y-115855950D03*
%TO.P,U6,1*%
%TO.N,N$11*%
X157300750Y-114585950D03*
%TD*%
D19*
%TO.P,R23,P$2*%
%TO.N,GND*%
X155428750Y-117040950D03*
%TO.P,R23,P$1*%
%TO.N,N$11*%
X155428750Y-115940950D03*
%TD*%
D20*
%TO.P,C8,P$2*%
%TO.N,GND*%
X159069750Y-113188950D03*
%TO.P,C8,P$1*%
%TO.N,+5V*%
X160169750Y-113188950D03*
%TD*%
D29*
%TO.P,C9,P$2*%
%TO.N,GND*%
X164953750Y-94331950D03*
%TO.P,C9,P$1*%
%TO.N,SIGNAL_OUTPUT_A*%
X164953750Y-96231950D03*
%TD*%
%TO.P,C10,P$2*%
%TO.N,GND*%
X164953750Y-91151950D03*
%TO.P,C10,P$1*%
%TO.N,SIGNAL_OUTPUT_B*%
X164953750Y-89251950D03*
%TD*%
D17*
%TO.P,Q10,P$3*%
%TO.N,N$25*%
X131645750Y-98075950D03*
%TO.P,Q10,P$2*%
%TO.N,GND*%
X132695750Y-97575950D03*
%TO.P,Q10,P$1*%
%TO.N,RELAY_EN*%
X132695750Y-98575950D03*
%TD*%
D18*
%TO.P,RELAY2,P$12*%
%TO.N,N$25*%
X130817750Y-100526950D03*
%TO.P,RELAY2,P$10*%
%TO.N,RELAY_NC_B*%
X135897750Y-100526950D03*
%TO.P,RELAY2,P$9*%
%TO.N,RELAY_COM_B*%
X138437750Y-100526950D03*
%TO.P,RELAY2,P$8*%
%TO.N,RELAY_NO_B*%
X140977750Y-100526950D03*
%TO.P,RELAY2,P$5*%
%TO.N,RELAY_NO_A*%
X140977750Y-107816950D03*
%TO.P,RELAY2,P$4*%
%TO.N,RELAY_COM_A*%
X138437750Y-107816950D03*
%TO.P,RELAY2,P$3*%
%TO.N,RELAY_NC_A*%
X135897750Y-107816950D03*
%TO.P,RELAY2,P$1*%
%TO.N,+5V*%
X130817750Y-107816950D03*
%TD*%
D25*
%TO.P,D17,ANODE*%
%TO.N,N$34*%
X128631750Y-102889950D03*
%TO.P,D17,CATHODE*%
%TO.N,N$25*%
X128631750Y-101389950D03*
%TD*%
D19*
%TO.P,R103,P$2*%
%TO.N,+5V*%
X128631750Y-107261950D03*
%TO.P,R103,P$1*%
%TO.N,N$34*%
X128631750Y-106161950D03*
%TD*%
D22*
%TO.P,CON9,P$3*%
%TO.N,RELAY_NC_A*%
X150841750Y-88296950D03*
%TO.P,CON9,P$2*%
%TO.N,RELAY_COM_A*%
X154341750Y-88296950D03*
D23*
%TO.P,CON9,P$1*%
%TO.N,RELAY_NO_A*%
X157841750Y-88296950D03*
%TD*%
D22*
%TO.P,CON10,P$3*%
%TO.N,RELAY_NC_B*%
X139919750Y-88296950D03*
%TO.P,CON10,P$2*%
%TO.N,RELAY_COM_B*%
X143419750Y-88296950D03*
D23*
%TO.P,CON10,P$1*%
%TO.N,RELAY_NO_B*%
X146919750Y-88296950D03*
%TD*%
D30*
%TO.N,RELAY_EN*%
X164191750Y-86391950D03*
X158349750Y-85375950D03*
%TO.N,INT*%
X143109750Y-115601950D03*
X139553750Y-115093950D03*
X136505750Y-115347950D03*
X130663750Y-115347950D03*
X159365750Y-85121950D03*
%TO.N,N$9*%
X126345750Y-112553950D03*
X127615750Y-113823950D03*
%TO.N,+3V3*%
X155555750Y-112553950D03*
X156317750Y-106076950D03*
%TO.N,SIGNAL_INPUT_B*%
X164191750Y-103917950D03*
X164191750Y-106711950D03*
X164953750Y-116363950D03*
X161143750Y-116363950D03*
%TO.N,SPOOF_SIGNAL_A*%
X165715750Y-118395950D03*
X165715750Y-115347950D03*
X168763750Y-104933950D03*
X165207750Y-104933950D03*
X159111750Y-103663950D03*
X156571750Y-103409950D03*
%TO.N,SPOOF_SIGNAL_B*%
X167493750Y-115601950D03*
X166223750Y-119411950D03*
X168509750Y-103663950D03*
X166731750Y-104679950D03*
X158857750Y-106203950D03*
X156317750Y-106965950D03*
%TO.N,SIGNAL_OUTPUT_B*%
X168001750Y-94773950D03*
X168001750Y-97567950D03*
%TO.N,+5V*%
X161651750Y-108997950D03*
X160127750Y-112045950D03*
X132314750Y-92360950D03*
X137267750Y-92741950D03*
X138791750Y-92741950D03*
X132695750Y-87407950D03*
X131425750Y-87407950D03*
X130155750Y-87407950D03*
X139680750Y-100869950D03*
X146411750Y-100869950D03*
X148443750Y-104425950D03*
X145649750Y-105441950D03*
X139553750Y-111283950D03*
X145903750Y-110775950D03*
X132949750Y-112553950D03*
X127869750Y-115093950D03*
%TO.N,SCK_A*%
X163937750Y-108997950D03*
X172827750Y-108997950D03*
%TO.N,MOSI_B*%
X148189750Y-83343950D03*
%TO.N,MOSI_A*%
X163937750Y-110013950D03*
X172827750Y-110013950D03*
%TO.N,CANL*%
X125329750Y-111029950D03*
X126853750Y-114585950D03*
%TO.N,RX_CAN*%
X132187750Y-113315950D03*
X128885750Y-115093950D03*
%TO.N,TX_CAN*%
X132949750Y-113823950D03*
X128631750Y-116109950D03*
%TO.N,GND*%
X158349750Y-113315950D03*
X132949750Y-96805950D03*
X154031750Y-109505950D03*
X155301750Y-117633950D03*
X156063750Y-118395950D03*
X162159750Y-97821950D03*
X164953750Y-91979950D03*
X164953750Y-93503950D03*
X138283750Y-112807950D03*
X162667750Y-124999950D03*
D31*
X161397750Y-124999950D03*
X137267750Y-120173950D03*
D32*
X115677750Y-96551950D03*
X125837750Y-85756950D03*
X125837750Y-87026950D03*
X125837750Y-88296950D03*
X125837750Y-89566950D03*
X125837750Y-90836950D03*
X125837750Y-92106950D03*
X125837750Y-93376950D03*
X125837750Y-94646950D03*
X125837750Y-95916950D03*
X115677750Y-86391950D03*
X115677750Y-87661950D03*
X115677750Y-88931950D03*
X115677750Y-90201950D03*
X115677750Y-91471950D03*
X115677750Y-92741950D03*
X115677750Y-94011950D03*
X115677750Y-95281950D03*
D31*
X150094750Y-101250950D03*
X148951750Y-102520950D03*
X151364750Y-105695950D03*
X139807750Y-122078950D03*
X158730750Y-124872950D03*
X160000750Y-124872950D03*
X121773750Y-123348950D03*
X121773750Y-111918950D03*
%TD*%
D33*
%TO.N,RELAY_NC_B*%
X139807750Y-91695950D02*
X139919750Y-91583950D01*
X139807750Y-94773950D02*
X139807750Y-91695950D01*
D34*
X135897750Y-98683950D02*
X139807750Y-94773950D01*
X135897750Y-100526950D02*
X135897750Y-98683950D01*
D35*
X139919750Y-91583950D02*
X139919750Y-88296950D01*
D33*
%TO.N,RELAY_NO_B*%
X146919750Y-94265950D02*
X146919750Y-91471950D01*
D34*
X146411750Y-94773950D02*
X146919750Y-94265950D01*
X144379750Y-94773950D02*
X146411750Y-94773950D01*
X140977750Y-98175950D02*
X144379750Y-94773950D01*
X140977750Y-100526950D02*
X140977750Y-98175950D01*
D35*
X146919750Y-91471950D02*
X146919750Y-88296950D01*
D33*
%TO.N,RELAY_NO_A*%
X157841750Y-94773950D02*
X157841750Y-91471950D01*
D34*
X156317750Y-96297950D02*
X157841750Y-94773950D01*
X145141750Y-96297950D02*
X156317750Y-96297950D01*
X143109750Y-98329950D02*
X145141750Y-96297950D01*
X143109750Y-98583950D02*
X143109750Y-98329950D01*
D35*
X157841750Y-91471950D02*
X157841750Y-88296950D01*
D34*
X140977750Y-105033950D02*
X143109750Y-102901950D01*
X143109750Y-102901950D02*
X143109750Y-98583950D01*
X140977750Y-107816950D02*
X140977750Y-105033950D01*
%TO.N,RELAY_NC_A*%
X142093750Y-102393950D02*
X142093750Y-97821950D01*
D33*
X150729750Y-90313950D02*
X150841750Y-90201950D01*
X150729750Y-94773950D02*
X150729750Y-90313950D01*
D34*
X150221750Y-95281950D02*
X150729750Y-94773950D01*
X144633750Y-95281950D02*
X150221750Y-95281950D01*
X142093750Y-97821950D02*
X144633750Y-95281950D01*
D35*
X150841750Y-90201950D02*
X150841750Y-91105950D01*
X150841750Y-90201950D02*
X150841750Y-88296950D01*
D34*
X140315750Y-104171950D02*
X142093750Y-102393950D01*
X136505750Y-104171950D02*
X140315750Y-104171950D01*
X135897750Y-104779950D02*
X136505750Y-104171950D01*
X135897750Y-107816950D02*
X135897750Y-104779950D01*
D33*
%TO.N,N$34*%
X128631750Y-106161950D02*
X128631750Y-102889950D01*
D34*
%TO.N,N$25*%
X130817750Y-98903950D02*
X131645750Y-98075950D01*
X130817750Y-100526950D02*
X130817750Y-98903950D01*
D33*
X129954750Y-101389950D02*
X130817750Y-100526950D01*
X128631750Y-101389950D02*
X129954750Y-101389950D01*
D34*
%TO.N,RELAY_EN*%
X164953750Y-83597950D02*
X164953750Y-80803950D01*
X164191750Y-84359950D02*
X164953750Y-83597950D01*
X164191750Y-86391950D02*
X164191750Y-84359950D01*
X157841750Y-84867950D02*
X158349750Y-85375950D01*
X139553750Y-84867950D02*
X157841750Y-84867950D01*
X138029750Y-86391950D02*
X139553750Y-84867950D01*
X138029750Y-94265950D02*
X138029750Y-86391950D01*
X133719750Y-98575950D02*
X138029750Y-94265950D01*
X132695750Y-98575950D02*
X133719750Y-98575950D01*
%TO.N,RELAY_COM_A*%
X142601750Y-102647950D02*
X142601750Y-98075950D01*
D33*
X154285750Y-90765950D02*
X154341750Y-90709950D01*
X154285750Y-94773950D02*
X154285750Y-90765950D01*
D34*
X153269750Y-95789950D02*
X154285750Y-94773950D01*
X144887750Y-95789950D02*
X153269750Y-95789950D01*
X142601750Y-98075950D02*
X144887750Y-95789950D01*
X140569750Y-104679950D02*
X142601750Y-102647950D01*
X139045750Y-104679950D02*
X140569750Y-104679950D01*
X138437750Y-105287950D02*
X139045750Y-104679950D01*
X138437750Y-107816950D02*
X138437750Y-105287950D01*
D35*
X154341750Y-90709950D02*
X154341750Y-91415950D01*
X154341750Y-90709950D02*
X154341750Y-88296950D01*
D33*
%TO.N,RELAY_COM_B*%
X143363750Y-90003950D02*
X143419750Y-89947950D01*
X143363750Y-94519950D02*
X143363750Y-90003950D01*
D34*
X143363750Y-95027950D02*
X143363750Y-94519950D01*
X140569750Y-97821950D02*
X143363750Y-95027950D01*
X139045750Y-97821950D02*
X140569750Y-97821950D01*
X138437750Y-98429950D02*
X139045750Y-97821950D01*
X138437750Y-100526950D02*
X138437750Y-98429950D01*
D35*
X143419750Y-89947950D02*
X143419750Y-91415950D01*
X143419750Y-89947950D02*
X143419750Y-88296950D01*
D34*
%TO.N,N$13*%
X158095750Y-117125950D02*
X157300750Y-117125950D01*
X158730750Y-117760950D02*
X158095750Y-117125950D01*
X158730750Y-120385950D02*
X158730750Y-117760950D01*
%TO.N,N$12*%
X160000750Y-117760950D02*
X160000750Y-120385950D01*
X160635750Y-117125950D02*
X160000750Y-117760950D01*
X162700750Y-117125950D02*
X160635750Y-117125950D01*
%TO.N,N$11*%
X155428750Y-114966950D02*
X155809750Y-114585950D01*
X155428750Y-115940950D02*
X155428750Y-114966950D01*
X155809750Y-114585950D02*
X157300750Y-114585950D01*
X161905750Y-115855950D02*
X160127750Y-114077950D01*
X162700750Y-115855950D02*
X161905750Y-115855950D01*
X160127750Y-114077950D02*
X159111750Y-114077950D01*
X158603750Y-114585950D02*
X159111750Y-114077950D01*
X158603750Y-114585950D02*
X157300750Y-114585950D01*
%TO.N,SPOOF_EN*%
X162921750Y-95535950D02*
X163429750Y-95027950D01*
X162413750Y-83343950D02*
X162413750Y-80803950D01*
X163429750Y-84359950D02*
X162413750Y-83343950D01*
X163429750Y-95027950D02*
X163429750Y-84359950D01*
X162921750Y-99091950D02*
X162921750Y-95535950D01*
X162548750Y-99464950D02*
X162921750Y-99091950D01*
X162032750Y-99464950D02*
X162548750Y-99464950D01*
%TO.N,INT*%
X139299750Y-115347950D02*
X139553750Y-115093950D01*
X136505750Y-115347950D02*
X139299750Y-115347950D01*
X129901750Y-116109950D02*
X130663750Y-115347950D01*
X129901750Y-127285950D02*
X129901750Y-116109950D01*
X128123750Y-129063950D02*
X129901750Y-127285950D01*
X120618750Y-129063950D02*
X128123750Y-129063950D01*
X145395750Y-96805950D02*
X157079750Y-96805950D01*
X160381750Y-86137950D02*
X159365750Y-85121950D01*
X160381750Y-93503950D02*
X160381750Y-86137950D01*
X157079750Y-96805950D02*
X160381750Y-93503950D01*
X143617750Y-103155950D02*
X143617750Y-98583950D01*
X143617750Y-98583950D02*
X145395750Y-96805950D01*
X142855750Y-110775950D02*
X142855750Y-103917950D01*
X143109750Y-111029950D02*
X142855750Y-110775950D01*
X143109750Y-115601950D02*
X143109750Y-111029950D01*
X143109750Y-117633950D02*
X143109750Y-115601950D01*
X142855750Y-103917950D02*
X143617750Y-103155950D01*
X145014750Y-119538950D02*
X143109750Y-117633950D01*
X151072650Y-119538950D02*
X145014750Y-119538950D01*
D33*
%TO.N,N$10*%
X157841750Y-103524950D02*
X157841750Y-105780950D01*
%TO.N,N$9*%
X125710750Y-111918950D02*
X126345750Y-112553950D01*
X124228750Y-111918950D02*
X125710750Y-111918950D01*
X127996750Y-114204950D02*
X127615750Y-113823950D01*
X130757750Y-114204950D02*
X127996750Y-114204950D01*
%TO.N,N$2*%
X120503750Y-110013950D02*
X119868750Y-110648950D01*
X123128750Y-110013950D02*
X120503750Y-110013950D01*
D34*
%TO.N,N$8*%
X117243750Y-129063950D02*
X119118750Y-129063950D01*
%TO.N,N$5*%
X117243750Y-127158950D02*
X119118750Y-127158950D01*
%TO.N,N$1*%
X117243750Y-125253950D02*
X119118750Y-125253950D01*
%TO.N,N$6*%
X117243750Y-123348950D02*
X119118750Y-123348950D01*
%TO.N,N$4*%
X134177750Y-87026950D02*
X134092750Y-87111950D01*
X134727750Y-87026950D02*
X134177750Y-87026950D01*
D36*
X135817750Y-88116950D02*
X134727750Y-87026950D01*
X136632750Y-88116950D02*
X135817750Y-88116950D01*
D33*
%TO.N,N$7*%
X154624750Y-106076950D02*
X154624750Y-104806950D01*
X154624750Y-104806950D02*
X154527750Y-104903950D01*
X152917750Y-104903950D02*
X154527750Y-104903950D01*
X154497750Y-106203950D02*
X154624750Y-106076950D01*
X152917750Y-106203950D02*
X154497750Y-106203950D01*
%TO.N,+3V3*%
X152761750Y-115347950D02*
X155555750Y-112553950D01*
X152761750Y-122967950D02*
X152761750Y-115347950D01*
X149713750Y-126015950D02*
X152761750Y-122967950D01*
X149713750Y-129063950D02*
X149713750Y-126015950D01*
X155724750Y-106076950D02*
X156317750Y-106076950D01*
D34*
%TO.N,SHDN*%
X155936750Y-108320950D02*
X157206750Y-108320950D01*
X155936750Y-107727950D02*
X155712750Y-107503950D01*
X155936750Y-108320950D02*
X155936750Y-107727950D01*
X152917750Y-107503950D02*
X155712750Y-107503950D01*
%TO.N,LDAC*%
X154499750Y-108153950D02*
X154666750Y-108320950D01*
X152917750Y-108153950D02*
X154499750Y-108153950D01*
D33*
%TO.N,SIGNAL_INPUT_B*%
X165361750Y-103255950D02*
X164699750Y-103917950D01*
X165361750Y-101288950D02*
X165361750Y-103255950D01*
X164953750Y-114839950D02*
X166604750Y-113188950D01*
X164699750Y-103917950D02*
X164191750Y-103917950D01*
X164445750Y-106457950D02*
X164191750Y-106711950D01*
X166223750Y-106457950D02*
X164445750Y-106457950D01*
X166604750Y-106838950D02*
X166223750Y-106457950D01*
X166604750Y-113188950D02*
X166604750Y-106838950D01*
X164953750Y-116363950D02*
X164953750Y-114839950D01*
X167015750Y-116363950D02*
X167762750Y-117110950D01*
X167015750Y-116363950D02*
X164953750Y-116363950D01*
X160635750Y-115855950D02*
X161143750Y-116363950D01*
X157300750Y-115855950D02*
X160635750Y-115855950D01*
D35*
X167762750Y-117110950D02*
X167493750Y-117125950D01*
X167762750Y-117110950D02*
X175240750Y-117110950D01*
D33*
%TO.N,SIGNAL_INPUT_A*%
X164064750Y-114458950D02*
X165361750Y-113161950D01*
X164064750Y-117125950D02*
X164064750Y-114458950D01*
X164191750Y-117252950D02*
X164064750Y-117125950D01*
X164191750Y-117633950D02*
X164191750Y-117252950D01*
X165361750Y-113161950D02*
X165361750Y-108578950D01*
X167493750Y-119157950D02*
X167493750Y-124110950D01*
X165969750Y-117633950D02*
X167493750Y-119157950D01*
X164191750Y-117633950D02*
X165969750Y-117633950D01*
X163429750Y-118395950D02*
X164191750Y-117633950D01*
X162700750Y-118395950D02*
X163429750Y-118395950D01*
D35*
X167493750Y-124110950D02*
X175240750Y-124110950D01*
D33*
%TO.N,SIGNAL_OUTPUT_A*%
X166604750Y-96551950D02*
X166223750Y-96170950D01*
X166604750Y-103155950D02*
X166604750Y-96551950D01*
X167901750Y-104452950D02*
X166604750Y-103155950D01*
X167901750Y-108578950D02*
X167901750Y-104452950D01*
D35*
X165014750Y-96170950D02*
X164953750Y-96231950D01*
X166223750Y-96170950D02*
X165014750Y-96170950D01*
X166223750Y-96170950D02*
X175240750Y-96170950D01*
D33*
%TO.N,SPOOF_SIGNAL_A*%
X164699750Y-119411950D02*
X165715750Y-118395950D01*
X161905750Y-119411950D02*
X164699750Y-119411950D01*
X161397750Y-119919950D02*
X161905750Y-119411950D01*
X161397750Y-120385950D02*
X161397750Y-119919950D01*
X165715750Y-115093950D02*
X165715750Y-115347950D01*
X165969750Y-114839950D02*
X165715750Y-115093950D01*
X168509750Y-114839950D02*
X165969750Y-114839950D01*
X170441750Y-112907950D02*
X168509750Y-114839950D01*
X170441750Y-108578950D02*
X170441750Y-112907950D01*
X170441750Y-105849950D02*
X169525750Y-104933950D01*
X170441750Y-105849950D02*
X170441750Y-108578950D01*
X153949750Y-104253950D02*
X154793750Y-103409950D01*
X169525750Y-104933950D02*
X168763750Y-104933950D01*
X160381750Y-104933950D02*
X165207750Y-104933950D01*
X159111750Y-103663950D02*
X160381750Y-104933950D01*
X154793750Y-103409950D02*
X156571750Y-103409950D01*
X152917750Y-104253950D02*
X153949750Y-104253950D01*
%TO.N,SPOOF_SIGNAL_B*%
X169017750Y-115601950D02*
X171811750Y-112807950D01*
X171811750Y-104933950D02*
X170287750Y-103409950D01*
X171811750Y-112807950D02*
X171811750Y-104933950D01*
X167493750Y-115601950D02*
X169017750Y-115601950D01*
X165249750Y-120385950D02*
X166223750Y-119411950D01*
X162667750Y-120385950D02*
X165249750Y-120385950D01*
X170287750Y-103409950D02*
X170033750Y-103663950D01*
X170287750Y-103409950D02*
X170441750Y-103255950D01*
X170441750Y-101288950D02*
X170441750Y-103255950D01*
X160381750Y-105695950D02*
X165715750Y-105695950D01*
X170033750Y-103663950D02*
X168509750Y-103663950D01*
X165715750Y-105695950D02*
X166731750Y-104679950D01*
X159873750Y-106203950D02*
X160381750Y-105695950D01*
X158857750Y-106203950D02*
X159873750Y-106203950D01*
X156205750Y-106853950D02*
X156317750Y-106965950D01*
X152917750Y-106853950D02*
X156205750Y-106853950D01*
%TO.N,SIGNAL_OUTPUT_B*%
X168001750Y-94773950D02*
X168001750Y-89170950D01*
X167901750Y-97667950D02*
X168001750Y-97567950D01*
X167901750Y-101288950D02*
X167901750Y-97667950D01*
D35*
X165034750Y-89170950D02*
X164953750Y-89251950D01*
X168001750Y-89170950D02*
X165034750Y-89170950D01*
X168001750Y-89170950D02*
X175240750Y-89170950D01*
D33*
%TO.N,N$3*%
X159545750Y-102024950D02*
X160281750Y-101288950D01*
X157841750Y-102024950D02*
X159545750Y-102024950D01*
D34*
X160281750Y-99665950D02*
X160982750Y-98964950D01*
X160281750Y-101288950D02*
X160281750Y-99665950D01*
D37*
%TO.N,+5V*%
X130817750Y-105287950D02*
X133203750Y-102901950D01*
D33*
X160169750Y-113188950D02*
X160169750Y-112087950D01*
X160169750Y-112087950D02*
X160127750Y-112045950D01*
D37*
X160700750Y-108997950D02*
X160281750Y-108578950D01*
X161651750Y-108997950D02*
X160700750Y-108997950D01*
X160127750Y-112045950D02*
X157079750Y-112045950D01*
X133457750Y-92360950D02*
X132314750Y-92360950D01*
X133838750Y-92741950D02*
X133457750Y-92360950D01*
X137267750Y-92741950D02*
X133838750Y-92741950D01*
X138791750Y-94519950D02*
X138791750Y-92741950D01*
X133203750Y-100107950D02*
X138791750Y-94519950D01*
X133203750Y-102901950D02*
X133203750Y-100107950D01*
D33*
X156825750Y-111791950D02*
X157079750Y-112045950D01*
D37*
X147258750Y-101208950D02*
X146919750Y-100869950D01*
X147258750Y-102647950D02*
X147258750Y-101208950D01*
X130817750Y-107816950D02*
X130817750Y-105287950D01*
X133203750Y-102901950D02*
X139299750Y-102901950D01*
X139680750Y-102520950D02*
X139299750Y-102901950D01*
X139680750Y-100869950D02*
X139680750Y-102520950D01*
X146919750Y-100869950D02*
X146411750Y-100869950D01*
X146919750Y-100869950D02*
X147493750Y-100869950D01*
X147258750Y-103578950D02*
X147173750Y-103663950D01*
X147258750Y-103578950D02*
X147258750Y-102647950D01*
D33*
X147173750Y-103663950D02*
X147017750Y-103819950D01*
X147017750Y-104253950D02*
X147017750Y-103819950D01*
X148271750Y-104253950D02*
X148443750Y-104425950D01*
X148271750Y-104253950D02*
X147017750Y-104253950D01*
D37*
X145649750Y-109251950D02*
X145649750Y-105441950D01*
X145903750Y-109505950D02*
X145649750Y-109251950D01*
X145903750Y-110775950D02*
X145903750Y-109505950D01*
X153015750Y-112130950D02*
X153015750Y-111918950D01*
X139087750Y-111749950D02*
X139553750Y-111283950D01*
X137648750Y-111749950D02*
X139087750Y-111749950D01*
X147046750Y-111918950D02*
X145903750Y-110775950D01*
X151072650Y-111918950D02*
X147046750Y-111918950D01*
X156825750Y-113315950D02*
X156825750Y-111791950D01*
X156571750Y-113569950D02*
X156825750Y-113315950D01*
X155809750Y-113569950D02*
X156571750Y-113569950D01*
X153777750Y-115601950D02*
X155809750Y-113569950D01*
X153015750Y-111918950D02*
X151072650Y-111918950D01*
X153015750Y-111918950D02*
X154285750Y-111918950D01*
X154666750Y-111537950D02*
X154285750Y-111918950D01*
X156571750Y-111537950D02*
X154666750Y-111537950D01*
X156825750Y-111791950D02*
X156571750Y-111537950D01*
X152253750Y-124999950D02*
X153777750Y-123475950D01*
X153777750Y-123475950D02*
X153777750Y-115601950D01*
X152253750Y-129063950D02*
X152253750Y-124999950D01*
D33*
X156444750Y-104806950D02*
X157079750Y-105441950D01*
X155724750Y-104806950D02*
X156444750Y-104806950D01*
X157079750Y-105441950D02*
X157079750Y-106711950D01*
X157248750Y-106880950D02*
X157079750Y-106711950D01*
X157841750Y-106880950D02*
X157248750Y-106880950D01*
D34*
X158857750Y-107981950D02*
X159271250Y-107568450D01*
X158857750Y-108997950D02*
X158857750Y-107981950D01*
X158434750Y-109420950D02*
X158857750Y-108997950D01*
X157206750Y-109420950D02*
X158434750Y-109420950D01*
D33*
X160281750Y-108578950D02*
X159271250Y-107568450D01*
X159271250Y-107568450D02*
X158583750Y-106880950D01*
X158583750Y-106880950D02*
X157841750Y-106880950D01*
D34*
X133838750Y-111664950D02*
X132949750Y-112553950D01*
X136157750Y-111664950D02*
X133838750Y-111664950D01*
X128377750Y-117125950D02*
X127615750Y-116363950D01*
X127615750Y-115347950D02*
X127869750Y-115093950D01*
X127615750Y-116363950D02*
X127615750Y-115347950D01*
X128377750Y-121189950D02*
X128377750Y-117125950D01*
X127361750Y-122205950D02*
X128377750Y-121189950D01*
X116693750Y-122205950D02*
X127361750Y-122205950D01*
X116143750Y-122755950D02*
X116693750Y-122205950D01*
X116143750Y-123348950D02*
X116143750Y-122755950D01*
D33*
X130817750Y-107816950D02*
X130262750Y-107261950D01*
X128631750Y-107261950D02*
X130262750Y-107261950D01*
X137563750Y-111664950D02*
X137648750Y-111749950D01*
X137563750Y-111664950D02*
X136157750Y-111664950D01*
D34*
X161651750Y-114585950D02*
X160254750Y-113188950D01*
X162700750Y-114585950D02*
X161651750Y-114585950D01*
X160254750Y-113188950D02*
X160169750Y-113188950D01*
X116143750Y-125253950D02*
X116143750Y-123348950D01*
X116143750Y-127158950D02*
X116143750Y-125253950D01*
X116143750Y-129063950D02*
X116143750Y-127158950D01*
X134050750Y-88211950D02*
X133711750Y-88550950D01*
X134092750Y-88211950D02*
X134050750Y-88211950D01*
X134092750Y-89651950D02*
X134092750Y-88931950D01*
D35*
X133711750Y-88550950D02*
X134092750Y-88931950D01*
D36*
X131425750Y-88550950D02*
X133711750Y-88550950D01*
D34*
%TO.N,CS_A*%
X162921750Y-94773950D02*
X162921750Y-84613950D01*
X152253750Y-99345950D02*
X158349750Y-99345950D01*
X150983750Y-100615950D02*
X152253750Y-99345950D01*
X150983750Y-103155950D02*
X150983750Y-100615950D01*
X148585750Y-105553950D02*
X150983750Y-103155950D01*
X147017750Y-105553950D02*
X148585750Y-105553950D01*
X158349750Y-99345950D02*
X162921750Y-94773950D01*
X153777750Y-82327950D02*
X160635750Y-82327950D01*
X162921750Y-84613950D02*
X160635750Y-82327950D01*
X153269750Y-81819950D02*
X153777750Y-82327950D01*
X153269750Y-80803950D02*
X153269750Y-81819950D01*
%TO.N,CS_B*%
X152507750Y-82835950D02*
X150729750Y-81057950D01*
X160381750Y-82835950D02*
X152507750Y-82835950D01*
X162413750Y-84867950D02*
X160381750Y-82835950D01*
X162413750Y-94519950D02*
X162413750Y-84867950D01*
X158095750Y-98837950D02*
X162413750Y-94519950D01*
X146411750Y-98837950D02*
X158095750Y-98837950D01*
X145649750Y-99599950D02*
X146411750Y-98837950D01*
X145141750Y-112807950D02*
X146792750Y-114458950D01*
X145141750Y-110013950D02*
X145141750Y-112807950D01*
X144887750Y-109759950D02*
X145141750Y-110013950D01*
X144887750Y-104933950D02*
X144887750Y-109759950D01*
X145649750Y-104171950D02*
X144887750Y-104933950D01*
X145649750Y-104171950D02*
X145649750Y-99599950D01*
X146792750Y-114458950D02*
X151072650Y-114458950D01*
X150729750Y-81057950D02*
X150729750Y-80803950D01*
%TO.N,SCK_B*%
X145903750Y-84359950D02*
X143109750Y-81565950D01*
X145649750Y-97313950D02*
X157333750Y-97313950D01*
X159619750Y-84359950D02*
X145903750Y-84359950D01*
X160889750Y-85629950D02*
X159619750Y-84359950D01*
X160889750Y-93757950D02*
X160889750Y-85629950D01*
X157333750Y-97313950D02*
X160889750Y-93757950D01*
X144125750Y-103409950D02*
X144125750Y-98837950D01*
X144125750Y-98837950D02*
X145649750Y-97313950D01*
X143363750Y-110521950D02*
X143363750Y-104171950D01*
X143617750Y-110775950D02*
X143363750Y-110521950D01*
X143617750Y-114839950D02*
X143617750Y-110775950D01*
X143363750Y-104171950D02*
X144125750Y-103409950D01*
X147046750Y-118268950D02*
X143617750Y-114839950D01*
X151072650Y-118268950D02*
X147046750Y-118268950D01*
X143109750Y-81565950D02*
X143109750Y-80803950D01*
%TO.N,SCK_A*%
X148951750Y-106203950D02*
X153015750Y-110267950D01*
X147017750Y-106203950D02*
X148951750Y-106203950D01*
X153015750Y-110267950D02*
X157587750Y-110267950D01*
X157841750Y-110521950D02*
X157587750Y-110267950D01*
X161397750Y-110521950D02*
X157841750Y-110521950D01*
X162921750Y-108997950D02*
X161397750Y-110521950D01*
X163937750Y-108997950D02*
X162921750Y-108997950D01*
X175113750Y-108997950D02*
X172827750Y-108997950D01*
X176129750Y-107981950D02*
X175113750Y-108997950D01*
X176129750Y-105187950D02*
X176129750Y-107981950D01*
X177653750Y-103663950D02*
X176129750Y-105187950D01*
%TO.N,MOSI_B*%
X159873750Y-83851950D02*
X148697750Y-83851950D01*
X148697750Y-83851950D02*
X148189750Y-83343950D01*
X145903750Y-97821950D02*
X157587750Y-97821950D01*
X161397750Y-85375950D02*
X159873750Y-83851950D01*
X161397750Y-94011950D02*
X161397750Y-85375950D01*
X157587750Y-97821950D02*
X161397750Y-94011950D01*
X144633750Y-103663950D02*
X144633750Y-99091950D01*
X144633750Y-99091950D02*
X145903750Y-97821950D01*
X143871750Y-104425950D02*
X144633750Y-103663950D01*
X143871750Y-110267950D02*
X143871750Y-104425950D01*
X144125750Y-110521950D02*
X143871750Y-110267950D01*
X144125750Y-113823950D02*
X144125750Y-110521950D01*
X147300750Y-116998950D02*
X144125750Y-113823950D01*
X151072650Y-116998950D02*
X147300750Y-116998950D01*
%TO.N,MOSI_A*%
X148839750Y-106853950D02*
X152761750Y-110775950D01*
X147017750Y-106853950D02*
X148839750Y-106853950D01*
X152761750Y-110775950D02*
X157333750Y-110775950D01*
X162667750Y-110013950D02*
X161651750Y-111029950D01*
X157587750Y-111029950D02*
X157333750Y-110775950D01*
X161651750Y-111029950D02*
X157587750Y-111029950D01*
X163937750Y-110013950D02*
X162667750Y-110013950D01*
X173081750Y-110013950D02*
X172827750Y-110013950D01*
X173589750Y-109505950D02*
X173081750Y-110013950D01*
X178923750Y-107727950D02*
X177145750Y-109505950D01*
X177145750Y-109505950D02*
X173589750Y-109505950D01*
X178923750Y-104933950D02*
X178923750Y-107727950D01*
X180193750Y-103663950D02*
X178923750Y-104933950D01*
%TO.N,MISO_B*%
X146665750Y-82581950D02*
X145649750Y-81565950D01*
X149459750Y-82581950D02*
X146665750Y-82581950D01*
X150221750Y-83343950D02*
X149459750Y-82581950D01*
X160127750Y-83343950D02*
X150221750Y-83343950D01*
X161905750Y-85121950D02*
X160127750Y-83343950D01*
X161905750Y-94265950D02*
X161905750Y-85121950D01*
X157841750Y-98329950D02*
X161905750Y-94265950D01*
X145141750Y-103917950D02*
X145141750Y-99345950D01*
X146157750Y-98329950D02*
X157841750Y-98329950D01*
X145141750Y-99345950D02*
X146157750Y-98329950D01*
X144633750Y-110267950D02*
X144633750Y-113061950D01*
X144379750Y-110013950D02*
X144633750Y-110267950D01*
X144379750Y-104679950D02*
X144379750Y-110013950D01*
X144379750Y-104679950D02*
X145141750Y-103917950D01*
X144633750Y-113061950D02*
X147300750Y-115728950D01*
X151072650Y-115728950D02*
X147300750Y-115728950D01*
X145649750Y-80803950D02*
X145649750Y-81565950D01*
%TO.N,ADC3*%
X172573750Y-127539950D02*
X172573750Y-129063950D01*
X170795750Y-125761950D02*
X172573750Y-127539950D01*
X163683750Y-125761950D02*
X170795750Y-125761950D01*
X163251950Y-123665019D02*
X163251950Y-125330150D01*
X163175750Y-123588819D02*
X163251950Y-123665019D01*
X163251950Y-125330150D02*
X163683750Y-125761950D01*
X163175750Y-123475950D02*
X163175750Y-123588819D01*
X162667750Y-122967950D02*
X163175750Y-123475950D01*
X162667750Y-122925950D02*
X162667750Y-122967950D01*
X162667750Y-121485950D02*
X162667750Y-122925950D01*
%TO.N,ADC2*%
X170033750Y-127793950D02*
X170033750Y-129063950D01*
X168509750Y-126269950D02*
X170033750Y-127793950D01*
X162667750Y-126269950D02*
X168509750Y-126269950D01*
X162032750Y-125634950D02*
X162667750Y-126269950D01*
X162032750Y-123475950D02*
X162032750Y-125634950D01*
X161482750Y-122925950D02*
X162032750Y-123475950D01*
X161397750Y-122925950D02*
X161482750Y-122925950D01*
X161397750Y-121485950D02*
X161397750Y-122925950D01*
D35*
%TO.N,V+*%
X131425750Y-95281950D02*
X131425750Y-93630950D01*
X124948750Y-101758950D02*
X131425750Y-95281950D01*
X118598750Y-101758950D02*
X124948750Y-101758950D01*
D34*
%TO.N,ADC0*%
X163175750Y-127285950D02*
X164953750Y-129063950D01*
X160635750Y-127285950D02*
X163175750Y-127285950D01*
X159365750Y-126015950D02*
X160635750Y-127285950D01*
X159365750Y-123475950D02*
X159365750Y-126015950D01*
X158815750Y-122925950D02*
X159365750Y-123475950D01*
X158730750Y-122925950D02*
X158815750Y-122925950D01*
X158730750Y-121485950D02*
X158730750Y-122925950D01*
%TO.N,RST_N*%
X152973750Y-113188950D02*
X153015750Y-113230950D01*
X151072650Y-113188950D02*
X152973750Y-113188950D01*
D33*
%TO.N,CANL*%
X125329750Y-110775950D02*
X125710750Y-110394950D01*
X125329750Y-111029950D02*
X125329750Y-110775950D01*
X125329750Y-116109950D02*
X126853750Y-114585950D01*
X125329750Y-118649950D02*
X125329750Y-116109950D01*
X124115750Y-119863950D02*
X125329750Y-118649950D01*
X123749750Y-119863950D02*
X124115750Y-119863950D01*
X125329750Y-110013950D02*
X124228750Y-110013950D01*
X125710750Y-110394950D02*
X125329750Y-110013950D01*
X125710750Y-110394950D02*
X126980750Y-111664950D01*
X130757750Y-111664950D02*
X126980750Y-111664950D01*
D35*
X123749750Y-119863950D02*
X123805750Y-119919950D01*
X118598750Y-119863950D02*
X123749750Y-119863950D01*
D34*
%TO.N,N$17*%
X136759750Y-121993950D02*
X135574750Y-121993950D01*
X133330750Y-124237950D02*
X135574750Y-121993950D01*
X133330750Y-127920950D02*
X133330750Y-124237950D01*
X136759750Y-121993950D02*
X137479750Y-121993950D01*
X138664750Y-120808950D02*
X137479750Y-121993950D01*
X141242850Y-120808950D02*
X138664750Y-120808950D01*
%TO.N,N$16*%
X133415750Y-118353950D02*
X133330750Y-118268950D01*
X136759750Y-118353950D02*
X133415750Y-118353950D01*
X136759750Y-118353950D02*
X137479750Y-118353950D01*
X138410750Y-119538950D02*
X137479750Y-118353950D01*
X141242850Y-119538950D02*
X138410750Y-119538950D01*
%TO.N,ADC1*%
X167493750Y-127793950D02*
X167493750Y-129063950D01*
X166477750Y-126777950D02*
X167493750Y-127793950D01*
X161397750Y-126777950D02*
X166477750Y-126777950D01*
X160635750Y-126015950D02*
X161397750Y-126777950D01*
X160635750Y-123475950D02*
X160635750Y-126015950D01*
X160085750Y-122925950D02*
X160635750Y-123475950D01*
X160000750Y-122925950D02*
X160085750Y-122925950D01*
X160000750Y-121485950D02*
X160000750Y-122925950D01*
%TO.N,RX_CAN*%
X133838750Y-110394950D02*
X132187750Y-112045950D01*
X136157750Y-110394950D02*
X133838750Y-110394950D01*
X129393750Y-126523950D02*
X129393750Y-115601950D01*
X132187750Y-112045950D02*
X132187750Y-113315950D01*
X129393750Y-115601950D02*
X128885750Y-115093950D01*
X128758750Y-127158950D02*
X129393750Y-126523950D01*
X120618750Y-127158950D02*
X128758750Y-127158950D01*
X141712750Y-110394950D02*
X142220750Y-110902950D01*
X141712750Y-110394950D02*
X136157750Y-110394950D01*
X142220750Y-110902950D02*
X142093750Y-110775950D01*
X142220750Y-110902950D02*
X142347750Y-111029950D01*
X142601750Y-111283950D02*
X142347750Y-111029950D01*
X142601750Y-112807950D02*
X142601750Y-111283950D01*
X142220750Y-113188950D02*
X142601750Y-112807950D01*
X141242850Y-113188950D02*
X142220750Y-113188950D01*
%TO.N,TX_CAN*%
X133330750Y-114204950D02*
X132949750Y-113823950D01*
X136157750Y-114204950D02*
X133330750Y-114204950D01*
X128885750Y-123983950D02*
X128885750Y-116363950D01*
X132949750Y-113823950D02*
X133203750Y-114077950D01*
X128885750Y-116363950D02*
X128631750Y-116109950D01*
X127615750Y-125253950D02*
X128885750Y-123983950D01*
X120618750Y-125253950D02*
X127615750Y-125253950D01*
X140188750Y-111918950D02*
X139807750Y-112299950D01*
X141242850Y-111918950D02*
X140188750Y-111918950D01*
X139807750Y-112299950D02*
X139807750Y-112807950D01*
X138410750Y-114204950D02*
X139807750Y-112807950D01*
X138410750Y-114204950D02*
X136157750Y-114204950D01*
D35*
%TO.N,CANH*%
X123805750Y-116363950D02*
X118598750Y-116363950D01*
D33*
X127234750Y-112934950D02*
X123805750Y-116363950D01*
X130757750Y-112934950D02*
X127234750Y-112934950D01*
D35*
X118598750Y-116363950D02*
X118598750Y-113188950D01*
D33*
X118598750Y-113188950D02*
X117328750Y-111918950D01*
X117328750Y-110648950D02*
X117328750Y-111918950D01*
D35*
%TO.N,GND*%
X126091750Y-91090950D02*
X125837750Y-90836950D01*
X131425750Y-91090950D02*
X126091750Y-91090950D01*
D37*
X158476750Y-113188950D02*
X158349750Y-113315950D01*
X159069750Y-113188950D02*
X158476750Y-113188950D01*
D34*
X132695750Y-97059950D02*
X132949750Y-96805950D01*
X132695750Y-97575950D02*
X132695750Y-97059950D01*
D33*
X154116750Y-109420950D02*
X154031750Y-109505950D01*
X154666750Y-109420950D02*
X154116750Y-109420950D01*
D34*
X155428750Y-117506950D02*
X155301750Y-117633950D01*
X155428750Y-117040950D02*
X155428750Y-117506950D01*
X157300750Y-118395950D02*
X156063750Y-118395950D01*
X162032750Y-97948950D02*
X162159750Y-97821950D01*
X162032750Y-98464950D02*
X162032750Y-97948950D01*
D35*
X164953750Y-91151950D02*
X164953750Y-91979950D01*
X164953750Y-94331950D02*
X164953750Y-93503950D01*
D33*
X138241750Y-112849950D02*
X138283750Y-112807950D01*
X137648750Y-112849950D02*
X138241750Y-112849950D01*
X137563750Y-112934950D02*
X137648750Y-112849950D01*
X136157750Y-112934950D02*
X137563750Y-112934950D01*
D34*
X162667750Y-124025950D02*
X162667750Y-124999950D01*
X161397750Y-124025950D02*
X161397750Y-124999950D01*
X138537750Y-118903950D02*
X139807750Y-118903950D01*
X135235750Y-115093950D02*
X138537750Y-118903950D01*
X132187750Y-115093950D02*
X135235750Y-115093950D01*
X130663750Y-116617950D02*
X132187750Y-115093950D01*
X130663750Y-130333950D02*
X130663750Y-116617950D01*
X131425750Y-131095950D02*
X130663750Y-130333950D01*
X135489750Y-131095950D02*
X131425750Y-131095950D01*
X136505750Y-130079950D02*
X135489750Y-131095950D01*
X136505750Y-123221950D02*
X136505750Y-130079950D01*
X137013750Y-122713950D02*
X136505750Y-123221950D01*
X137521750Y-122713950D02*
X137013750Y-122713950D01*
X138791750Y-121443950D02*
X137521750Y-122713950D01*
X139045750Y-121443950D02*
X138791750Y-121443950D01*
X139680750Y-122078950D02*
X139045750Y-121443950D01*
X139807750Y-122078950D02*
X139680750Y-122078950D01*
X136759750Y-120681950D02*
X137267750Y-120173950D01*
X136759750Y-120893950D02*
X136759750Y-120681950D01*
X136759750Y-119665950D02*
X137267750Y-120173950D01*
X136759750Y-119453950D02*
X136759750Y-119665950D01*
D33*
X149713750Y-100869950D02*
X150094750Y-101250950D01*
X149393750Y-100869950D02*
X149713750Y-100869950D01*
X148824750Y-102647950D02*
X148951750Y-102520950D01*
X148358750Y-102647950D02*
X148824750Y-102647950D01*
X151506750Y-105553950D02*
X151364750Y-105695950D01*
X152917750Y-105553950D02*
X151506750Y-105553950D01*
X141242850Y-122078950D02*
X139807750Y-122078950D01*
D34*
X158730750Y-124025950D02*
X158730750Y-124872950D01*
X160000750Y-124025950D02*
X160000750Y-124872950D01*
X155936750Y-109420950D02*
X154666750Y-109420950D01*
X120618750Y-123348950D02*
X121773750Y-123348950D01*
X134092750Y-90751950D02*
X134092750Y-91090950D01*
D36*
X136558750Y-91090950D02*
X136632750Y-91016950D01*
X134092750Y-91090950D02*
X136558750Y-91090950D01*
X134092750Y-91090950D02*
X131425750Y-91090950D01*
D33*
X123128750Y-111918950D02*
X121773750Y-111918950D01*
%TD*%
%TA.AperFunction,Conductor*%
%TO.N,GND*%
G36*
X126634481Y-85572963D02*
G01*
X126671026Y-85623263D01*
X126675950Y-85654350D01*
X126675950Y-97289550D01*
X126656737Y-97348681D01*
X126606437Y-97385226D01*
X126575350Y-97390150D01*
X114940150Y-97390150D01*
X114881019Y-97370937D01*
X114844474Y-97320637D01*
X114839550Y-97289550D01*
X114839550Y-85654350D01*
X114858763Y-85595219D01*
X114909063Y-85558674D01*
X114940150Y-85553750D01*
X126575350Y-85553750D01*
X126634481Y-85572963D01*
G37*
%TD.AperFunction*%
%TD*%
%TA.AperFunction,Conductor*%
%TO.N,+5V*%
G36*
X133058444Y-86537256D02*
G01*
X133076750Y-86581450D01*
X133076750Y-88996450D01*
X133058444Y-89040644D01*
X133014250Y-89058950D01*
X129583250Y-89058950D01*
X129539056Y-89040644D01*
X129520750Y-88996450D01*
X129520750Y-86581450D01*
X129539056Y-86537256D01*
X129583250Y-86518950D01*
X133014250Y-86518950D01*
X133058444Y-86537256D01*
G37*
%TD.AperFunction*%
%TD*%
M02*
