%TF.GenerationSoftware,KiCad,Pcbnew,7.0.7*%
%TF.CreationDate,2023-10-02T21:57:18-04:00*%
%TF.ProjectId,vehicle_controL_module_0.1.0,76656869-636c-4655-9f63-6f6e74726f4c,rev?*%
%TF.SameCoordinates,Original*%
%TF.FileFunction,Legend,Bot*%
%TF.FilePolarity,Positive*%
%FSLAX46Y46*%
G04 Gerber Fmt 4.6, Leading zero omitted, Abs format (unit mm)*
G04 Created by KiCad (PCBNEW 7.0.7) date 2023-10-02 21:57:18*
%MOMM*%
%LPD*%
G01*
G04 APERTURE LIST*
%ADD10C,0.097790*%
%ADD11C,0.127000*%
G04 APERTURE END LIST*
D10*
X179714971Y-98325825D02*
X179714971Y-98890975D01*
X179714971Y-98890975D02*
X179752648Y-99004005D01*
X179752648Y-99004005D02*
X179828001Y-99079359D01*
X179828001Y-99079359D02*
X179941031Y-99117035D01*
X179941031Y-99117035D02*
X180016385Y-99117035D01*
X179338204Y-99117035D02*
X179338204Y-98325825D01*
X179338204Y-98325825D02*
X179036791Y-98325825D01*
X179036791Y-98325825D02*
X178961438Y-98363502D01*
X178961438Y-98363502D02*
X178923761Y-98401179D01*
X178923761Y-98401179D02*
X178886084Y-98476532D01*
X178886084Y-98476532D02*
X178886084Y-98589562D01*
X178886084Y-98589562D02*
X178923761Y-98664915D01*
X178923761Y-98664915D02*
X178961438Y-98702592D01*
X178961438Y-98702592D02*
X179036791Y-98740269D01*
X179036791Y-98740269D02*
X179338204Y-98740269D01*
X178622348Y-98325825D02*
X178132551Y-98325825D01*
X178132551Y-98325825D02*
X178396288Y-98627239D01*
X178396288Y-98627239D02*
X178283258Y-98627239D01*
X178283258Y-98627239D02*
X178207904Y-98664915D01*
X178207904Y-98664915D02*
X178170228Y-98702592D01*
X178170228Y-98702592D02*
X178132551Y-98777945D01*
X178132551Y-98777945D02*
X178132551Y-98966329D01*
X178132551Y-98966329D02*
X178170228Y-99041682D01*
X178170228Y-99041682D02*
X178207904Y-99079359D01*
X178207904Y-99079359D02*
X178283258Y-99117035D01*
X178283258Y-99117035D02*
X178509318Y-99117035D01*
X178509318Y-99117035D02*
X178584671Y-99079359D01*
X178584671Y-99079359D02*
X178622348Y-99041682D01*
D11*
%TO.C,JP3*%
X176383750Y-107473950D02*
X176383750Y-99853950D01*
X181463750Y-107473950D02*
X176383750Y-107473950D01*
X181463750Y-99853950D02*
X181463750Y-107473950D01*
X176383750Y-99853950D02*
X181463750Y-99853950D01*
%TD*%
M02*
