%TF.GenerationSoftware,KiCad,Pcbnew,7.0.7*%
%TF.CreationDate,2023-10-02T21:57:18-04:00*%
%TF.ProjectId,vehicle_controL_module_0.1.0,76656869-636c-4655-9f63-6f6e74726f4c,rev?*%
%TF.SameCoordinates,Original*%
%TF.FileFunction,Copper,L2,Bot*%
%TF.FilePolarity,Positive*%
%FSLAX46Y46*%
G04 Gerber Fmt 4.6, Leading zero omitted, Abs format (unit mm)*
G04 Created by KiCad (PCBNEW 7.0.7) date 2023-10-02 21:57:18*
%MOMM*%
%LPD*%
G01*
G04 APERTURE LIST*
%TA.AperFunction,ComponentPad*%
%ADD10C,2.100000*%
%TD*%
%TA.AperFunction,ComponentPad*%
%ADD11R,2.100000X2.100000*%
%TD*%
%TA.AperFunction,ComponentPad*%
%ADD12O,1.371600X2.743200*%
%TD*%
%TA.AperFunction,ComponentPad*%
%ADD13C,1.651000*%
%TD*%
%TA.AperFunction,ComponentPad*%
%ADD14R,1.651000X1.651000*%
%TD*%
%TA.AperFunction,ViaPad*%
%ADD15C,0.609600*%
%TD*%
%TA.AperFunction,ViaPad*%
%ADD16C,0.685800*%
%TD*%
%TA.AperFunction,ViaPad*%
%ADD17C,0.904800*%
%TD*%
%TA.AperFunction,Conductor*%
%ADD18C,0.254000*%
%TD*%
%TA.AperFunction,Conductor*%
%ADD19C,0.406400*%
%TD*%
%TA.AperFunction,Conductor*%
%ADD20C,0.609600*%
%TD*%
G04 APERTURE END LIST*
D10*
%TO.P,CON1,P$2*%
%TO.N,GND*%
X118598750Y-105258950D03*
D11*
%TO.P,CON1,P$1*%
%TO.N,V+*%
X118598750Y-101758950D03*
%TD*%
D10*
%TO.P,CON2,P$2*%
%TO.N,CANL*%
X118598750Y-119863950D03*
D11*
%TO.P,CON2,P$1*%
%TO.N,CANH*%
X118598750Y-116363950D03*
%TD*%
D10*
%TO.P,CON4,P$4*%
%TO.N,GND*%
X175240750Y-85670950D03*
%TO.P,CON4,P$3*%
%TO.N,SIGNAL_OUTPUT_B*%
X175240750Y-89170950D03*
%TO.P,CON4,P$2*%
%TO.N,GND*%
X175240750Y-92670950D03*
D11*
%TO.P,CON4,P$1*%
%TO.N,SIGNAL_OUTPUT_A*%
X175240750Y-96170950D03*
%TD*%
D10*
%TO.P,CON3,P$4*%
%TO.N,GND*%
X175240750Y-113610950D03*
%TO.P,CON3,P$3*%
%TO.N,SIGNAL_INPUT_B*%
X175240750Y-117110950D03*
%TO.P,CON3,P$2*%
%TO.N,GND*%
X175240750Y-120610950D03*
D11*
%TO.P,CON3,P$1*%
%TO.N,SIGNAL_INPUT_A*%
X175240750Y-124110950D03*
%TD*%
D12*
%TO.P,JP6,2*%
%TO.N,N$2*%
X119868750Y-110648950D03*
%TO.P,JP6,1*%
%TO.N,CANH*%
X117328750Y-110648950D03*
%TD*%
D13*
%TO.P,JP1,18*%
%TO.N,N/C*%
X132949750Y-80803950D03*
%TO.P,JP1,17*%
X135489750Y-80803950D03*
%TO.P,JP1,16*%
%TO.N,REF*%
X138029750Y-80803950D03*
%TO.P,JP1,15*%
%TO.N,GND*%
X140569750Y-80803950D03*
%TO.P,JP1,14*%
%TO.N,SCK_B*%
X143109750Y-80803950D03*
%TO.P,JP1,13*%
%TO.N,MISO_B*%
X145649750Y-80803950D03*
%TO.P,JP1,12*%
%TO.N,MOSI_B*%
X148189750Y-80803950D03*
%TO.P,JP1,11*%
%TO.N,CS_B*%
X150729750Y-80803950D03*
%TO.P,JP1,10*%
%TO.N,CS_A*%
X153269750Y-80803950D03*
D14*
%TO.P,JP1,9*%
%TO.N,IO8*%
X155809750Y-80803950D03*
%TD*%
D13*
%TO.P,JP2,8*%
%TO.N,INT*%
X159873750Y-80803950D03*
%TO.P,JP2,7*%
%TO.N,SPOOF_EN*%
X162413750Y-80803950D03*
%TO.P,JP2,6*%
%TO.N,RELAY_EN*%
X164953750Y-80803950D03*
%TO.P,JP2,5*%
%TO.N,IO4*%
X167493750Y-80803950D03*
%TO.P,JP2,4*%
%TO.N,IO3*%
X170033750Y-80803950D03*
%TO.P,JP2,3*%
%TO.N,IO2*%
X172573750Y-80803950D03*
%TO.P,JP2,2*%
%TO.N,IO1*%
X175113750Y-80803950D03*
D14*
%TO.P,JP2,1*%
%TO.N,IO0*%
X177653750Y-80803950D03*
%TD*%
D13*
%TO.P,JP3,38*%
%TO.N,N/C*%
X180193750Y-101123950D03*
%TO.P,JP3,37*%
%TO.N,MOSI_A*%
X180193750Y-103663950D03*
%TO.P,JP3,36*%
%TO.N,GND*%
X180193750Y-106203950D03*
%TO.P,JP3,35*%
%TO.N,N/C*%
X177653750Y-106203950D03*
%TO.P,JP3,34*%
%TO.N,SCK_A*%
X177653750Y-103663950D03*
D14*
%TO.P,JP3,33*%
%TO.N,MISO_A*%
X177653750Y-101123950D03*
%TD*%
D13*
%TO.P,JP4,32*%
%TO.N,ADC5*%
X177653750Y-129063950D03*
%TO.P,JP4,31*%
%TO.N,ADC4*%
X175113750Y-129063950D03*
%TO.P,JP4,30*%
%TO.N,ADC3*%
X172573750Y-129063950D03*
%TO.P,JP4,29*%
%TO.N,ADC2*%
X170033750Y-129063950D03*
%TO.P,JP4,28*%
%TO.N,ADC1*%
X167493750Y-129063950D03*
D14*
%TO.P,JP4,27*%
%TO.N,ADC0*%
X164953750Y-129063950D03*
%TD*%
%TO.P,JP5,26*%
%TO.N,VIN*%
X159873750Y-129063950D03*
D13*
%TO.P,JP5,25*%
%TO.N,GND*%
X157333750Y-129063950D03*
%TO.P,JP5,24*%
X154793750Y-129063950D03*
%TO.P,JP5,23*%
%TO.N,+5V*%
X152253750Y-129063950D03*
%TO.P,JP5,22*%
%TO.N,+3V3*%
X149713750Y-129063950D03*
%TO.P,JP5,21*%
%TO.N,RST*%
X147173750Y-129063950D03*
%TO.P,JP5,20*%
%TO.N,ADC7*%
X144633750Y-129063950D03*
%TO.P,JP5,19*%
%TO.N,ADC6*%
X142093750Y-129063950D03*
%TD*%
D10*
%TO.P,CON9,P$3*%
%TO.N,RELAY_NC_A*%
X150841750Y-88296950D03*
%TO.P,CON9,P$2*%
%TO.N,RELAY_COM_A*%
X154341750Y-88296950D03*
D11*
%TO.P,CON9,P$1*%
%TO.N,RELAY_NO_A*%
X157841750Y-88296950D03*
%TD*%
D10*
%TO.P,CON10,P$3*%
%TO.N,RELAY_NC_B*%
X139919750Y-88296950D03*
%TO.P,CON10,P$2*%
%TO.N,RELAY_COM_B*%
X143419750Y-88296950D03*
D11*
%TO.P,CON10,P$1*%
%TO.N,RELAY_NO_B*%
X146919750Y-88296950D03*
%TD*%
D15*
%TO.N,RELAY_EN*%
X164191750Y-86391950D03*
X158349750Y-85375950D03*
%TO.N,INT*%
X143109750Y-115601950D03*
X139553750Y-115093950D03*
X136505750Y-115347950D03*
X130663750Y-115347950D03*
X159365750Y-85121950D03*
%TO.N,N$9*%
X126345750Y-112553950D03*
X127615750Y-113823950D03*
%TO.N,+3V3*%
X155555750Y-112553950D03*
X156317750Y-106076950D03*
%TO.N,SIGNAL_INPUT_B*%
X164191750Y-103917950D03*
X164191750Y-106711950D03*
X164953750Y-116363950D03*
X161143750Y-116363950D03*
%TO.N,SPOOF_SIGNAL_A*%
X165715750Y-118395950D03*
X165715750Y-115347950D03*
X168763750Y-104933950D03*
X165207750Y-104933950D03*
X159111750Y-103663950D03*
X156571750Y-103409950D03*
%TO.N,SPOOF_SIGNAL_B*%
X167493750Y-115601950D03*
X166223750Y-119411950D03*
X168509750Y-103663950D03*
X166731750Y-104679950D03*
X158857750Y-106203950D03*
X156317750Y-106965950D03*
%TO.N,SIGNAL_OUTPUT_B*%
X168001750Y-94773950D03*
X168001750Y-97567950D03*
%TO.N,+5V*%
X161651750Y-108997950D03*
X160127750Y-112045950D03*
X132314750Y-92360950D03*
X137267750Y-92741950D03*
X138791750Y-92741950D03*
X132695750Y-87407950D03*
X131425750Y-87407950D03*
X130155750Y-87407950D03*
X139680750Y-100869950D03*
X146411750Y-100869950D03*
X148443750Y-104425950D03*
X145649750Y-105441950D03*
X139553750Y-111283950D03*
X145903750Y-110775950D03*
X132949750Y-112553950D03*
X127869750Y-115093950D03*
%TO.N,SCK_A*%
X163937750Y-108997950D03*
X172827750Y-108997950D03*
%TO.N,MOSI_B*%
X148189750Y-83343950D03*
%TO.N,MOSI_A*%
X163937750Y-110013950D03*
X172827750Y-110013950D03*
%TO.N,CANL*%
X125329750Y-111029950D03*
X126853750Y-114585950D03*
%TO.N,RX_CAN*%
X132187750Y-113315950D03*
X128885750Y-115093950D03*
%TO.N,TX_CAN*%
X132949750Y-113823950D03*
X128631750Y-116109950D03*
%TO.N,GND*%
X158349750Y-113315950D03*
X132949750Y-96805950D03*
X154031750Y-109505950D03*
X155301750Y-117633950D03*
X156063750Y-118395950D03*
X162159750Y-97821950D03*
X164953750Y-91979950D03*
X164953750Y-93503950D03*
X138283750Y-112807950D03*
X162667750Y-124999950D03*
D16*
X161397750Y-124999950D03*
X137267750Y-120173950D03*
D17*
X115677750Y-96551950D03*
X125837750Y-85756950D03*
X125837750Y-87026950D03*
X125837750Y-88296950D03*
X125837750Y-89566950D03*
X125837750Y-90836950D03*
X125837750Y-92106950D03*
X125837750Y-93376950D03*
X125837750Y-94646950D03*
X125837750Y-95916950D03*
X115677750Y-86391950D03*
X115677750Y-87661950D03*
X115677750Y-88931950D03*
X115677750Y-90201950D03*
X115677750Y-91471950D03*
X115677750Y-92741950D03*
X115677750Y-94011950D03*
X115677750Y-95281950D03*
D16*
X150094750Y-101250950D03*
X148951750Y-102520950D03*
X151364750Y-105695950D03*
X139807750Y-122078950D03*
X158730750Y-124872950D03*
X160000750Y-124872950D03*
X121773750Y-123348950D03*
X121773750Y-111918950D03*
%TD*%
D18*
%TO.N,RELAY_EN*%
X163683750Y-85883950D02*
X164191750Y-86391950D01*
X158857750Y-85883950D02*
X163683750Y-85883950D01*
X158349750Y-85375950D02*
X158857750Y-85883950D01*
%TO.N,INT*%
X159873750Y-84613950D02*
X159365750Y-85121950D01*
X159873750Y-80803950D02*
X159873750Y-84613950D01*
X139553750Y-115093950D02*
X142601750Y-115093950D01*
X142601750Y-115093950D02*
X143109750Y-115601950D01*
X135743750Y-114585950D02*
X136505750Y-115347950D01*
X131425750Y-114585950D02*
X135743750Y-114585950D01*
X130663750Y-115347950D02*
X131425750Y-114585950D01*
D19*
%TO.N,N$9*%
X127615750Y-113823950D02*
X126345750Y-112553950D01*
%TO.N,+3V3*%
X155555750Y-112553950D02*
X155555750Y-106457950D01*
X155555750Y-106457950D02*
X155936750Y-106076950D01*
X156317750Y-106076950D02*
X155936750Y-106076950D01*
%TO.N,SIGNAL_INPUT_B*%
X164191750Y-106711950D02*
X164191750Y-103917950D01*
X161143750Y-116363950D02*
X164953750Y-116363950D01*
%TO.N,SPOOF_SIGNAL_A*%
X165715750Y-115347950D02*
X165715750Y-118395950D01*
X165715750Y-104933950D02*
X166477750Y-105695950D01*
X168001750Y-104933950D02*
X168763750Y-104933950D01*
X167239750Y-105695950D02*
X168001750Y-104933950D01*
X166477750Y-105695950D02*
X167239750Y-105695950D01*
X165207750Y-104933950D02*
X165715750Y-104933950D01*
X158857750Y-103409950D02*
X159111750Y-103663950D01*
X156571750Y-103409950D02*
X158857750Y-103409950D01*
%TO.N,SPOOF_SIGNAL_B*%
X166477750Y-116617950D02*
X167493750Y-115601950D01*
X166477750Y-119157950D02*
X166477750Y-116617950D01*
X166223750Y-119411950D02*
X166477750Y-119157950D01*
X168001750Y-103663950D02*
X168509750Y-103663950D01*
X166985750Y-104679950D02*
X168001750Y-103663950D01*
X166731750Y-104679950D02*
X166985750Y-104679950D01*
X158095750Y-106965950D02*
X158857750Y-106203950D01*
X156317750Y-106965950D02*
X158095750Y-106965950D01*
%TO.N,SIGNAL_OUTPUT_B*%
X168001750Y-97567950D02*
X168001750Y-94773950D01*
D20*
%TO.N,+5V*%
X160127750Y-110521950D02*
X161651750Y-108997950D01*
X160127750Y-112045950D02*
X160127750Y-110521950D01*
X131425750Y-91471950D02*
X132314750Y-92360950D01*
X131425750Y-87407950D02*
X131425750Y-91471950D01*
X131425750Y-87407950D02*
X132695750Y-87407950D01*
X130155750Y-87407950D02*
X131425750Y-87407950D01*
X138791750Y-92741950D02*
X137267750Y-92741950D01*
X146411750Y-100869950D02*
X139680750Y-100869950D01*
X147427750Y-105441950D02*
X148443750Y-104425950D01*
X145649750Y-105441950D02*
X147427750Y-105441950D01*
X140061750Y-110775950D02*
X139553750Y-111283950D01*
X145903750Y-110775950D02*
X140061750Y-110775950D01*
D18*
X127869750Y-114839950D02*
X129647750Y-113061950D01*
X131679750Y-112553950D02*
X132949750Y-112553950D01*
X131171750Y-113061950D02*
X131679750Y-112553950D01*
X129647750Y-113061950D02*
X131171750Y-113061950D01*
X127869750Y-115093950D02*
X127869750Y-114839950D01*
%TO.N,SCK_A*%
X172827750Y-108997950D02*
X163937750Y-108997950D01*
%TO.N,MOSI_B*%
X148189750Y-80803950D02*
X148189750Y-83343950D01*
%TO.N,MOSI_A*%
X172827750Y-110013950D02*
X163937750Y-110013950D01*
D19*
%TO.N,CANL*%
X125329750Y-113061950D02*
X125329750Y-111029950D01*
X126853750Y-114585950D02*
X125329750Y-113061950D01*
D18*
%TO.N,RX_CAN*%
X128885750Y-114839950D02*
X130155750Y-113569950D01*
X131933750Y-113569950D02*
X132187750Y-113315950D01*
X130155750Y-113569950D02*
X131933750Y-113569950D01*
X128885750Y-115093950D02*
X128885750Y-114839950D01*
%TO.N,TX_CAN*%
X132695750Y-114077950D02*
X132949750Y-113823950D01*
X130409750Y-114077950D02*
X132695750Y-114077950D01*
X129647750Y-114839950D02*
X130409750Y-114077950D01*
X129647750Y-115601950D02*
X129647750Y-114839950D01*
X129139750Y-116109950D02*
X129647750Y-115601950D01*
X128631750Y-116109950D02*
X129139750Y-116109950D01*
%TD*%
%TA.AperFunction,Conductor*%
%TO.N,GND*%
G36*
X180448690Y-78289507D02*
G01*
X180471520Y-78290888D01*
X180748961Y-78307675D01*
X180752680Y-78308126D01*
X181047646Y-78362185D01*
X181051305Y-78363087D01*
X181227855Y-78418104D01*
X181337590Y-78452301D01*
X181341121Y-78453640D01*
X181614564Y-78576710D01*
X181617902Y-78578461D01*
X181742759Y-78653941D01*
X181874516Y-78733592D01*
X181877625Y-78735738D01*
X182113670Y-78920669D01*
X182116488Y-78923165D01*
X182328533Y-79135210D01*
X182331030Y-79138029D01*
X182515961Y-79374074D01*
X182518107Y-79377183D01*
X182673234Y-79633790D01*
X182674989Y-79637135D01*
X182798059Y-79910578D01*
X182799398Y-79914109D01*
X182888611Y-80200391D01*
X182889515Y-80204059D01*
X182943570Y-80499001D01*
X182944025Y-80502750D01*
X182962193Y-80803007D01*
X182962250Y-80804895D01*
X182962250Y-130325671D01*
X182962249Y-130332725D01*
X182962153Y-130335171D01*
X182947320Y-130523737D01*
X182945785Y-130533425D01*
X182902499Y-130713743D01*
X182899469Y-130723070D01*
X182828504Y-130894405D01*
X182824051Y-130903145D01*
X182727157Y-131061265D01*
X182721393Y-131069199D01*
X182600954Y-131210218D01*
X182594018Y-131217154D01*
X182452999Y-131337593D01*
X182445065Y-131343357D01*
X182286945Y-131440251D01*
X182278205Y-131444704D01*
X182106870Y-131515669D01*
X182097543Y-131518699D01*
X181917225Y-131561985D01*
X181907538Y-131563519D01*
X181718970Y-131578354D01*
X181716518Y-131578450D01*
X115424982Y-131578450D01*
X115422530Y-131578354D01*
X115233961Y-131563520D01*
X115224274Y-131561985D01*
X115043956Y-131518699D01*
X115034629Y-131515669D01*
X114863294Y-131444704D01*
X114854554Y-131440251D01*
X114696434Y-131343357D01*
X114688500Y-131337593D01*
X114625367Y-131283674D01*
X114547475Y-131217148D01*
X114540551Y-131210224D01*
X114420106Y-131069199D01*
X114414342Y-131061265D01*
X114317448Y-130903145D01*
X114312995Y-130894405D01*
X114242030Y-130723070D01*
X114239000Y-130713743D01*
X114220654Y-130637317D01*
X114195712Y-130533417D01*
X114194180Y-130523744D01*
X114179346Y-130335168D01*
X114179250Y-130332717D01*
X114179250Y-129063950D01*
X141110616Y-129063950D01*
X141129506Y-129255748D01*
X141154609Y-129338502D01*
X141185225Y-129439428D01*
X141185455Y-129440184D01*
X141276300Y-129610144D01*
X141276304Y-129610150D01*
X141398569Y-129759131D01*
X141547550Y-129881396D01*
X141547552Y-129881397D01*
X141547555Y-129881399D01*
X141711764Y-129969170D01*
X141717521Y-129972247D01*
X141901950Y-130028193D01*
X141955609Y-130033478D01*
X142093749Y-130047084D01*
X142093749Y-130047083D01*
X142093750Y-130047084D01*
X142285550Y-130028193D01*
X142469979Y-129972247D01*
X142639950Y-129881396D01*
X142788931Y-129759131D01*
X142911196Y-129610150D01*
X143002047Y-129440179D01*
X143057993Y-129255750D01*
X143076884Y-129063950D01*
X143650616Y-129063950D01*
X143669506Y-129255748D01*
X143694609Y-129338502D01*
X143725225Y-129439428D01*
X143725455Y-129440184D01*
X143816300Y-129610144D01*
X143816304Y-129610150D01*
X143938569Y-129759131D01*
X144087550Y-129881396D01*
X144087552Y-129881397D01*
X144087555Y-129881399D01*
X144251764Y-129969170D01*
X144257521Y-129972247D01*
X144441950Y-130028193D01*
X144633750Y-130047084D01*
X144825550Y-130028193D01*
X145009979Y-129972247D01*
X145179950Y-129881396D01*
X145328931Y-129759131D01*
X145451196Y-129610150D01*
X145542047Y-129440179D01*
X145597993Y-129255750D01*
X145616884Y-129063950D01*
X146190616Y-129063950D01*
X146209506Y-129255748D01*
X146234609Y-129338502D01*
X146265225Y-129439428D01*
X146265455Y-129440184D01*
X146356300Y-129610144D01*
X146356304Y-129610150D01*
X146478569Y-129759131D01*
X146627550Y-129881396D01*
X146627552Y-129881397D01*
X146627555Y-129881399D01*
X146791764Y-129969170D01*
X146797521Y-129972247D01*
X146981950Y-130028193D01*
X147173750Y-130047084D01*
X147365550Y-130028193D01*
X147549979Y-129972247D01*
X147719950Y-129881396D01*
X147868931Y-129759131D01*
X147991196Y-129610150D01*
X148082047Y-129440179D01*
X148137993Y-129255750D01*
X148156884Y-129063950D01*
X148730616Y-129063950D01*
X148749506Y-129255748D01*
X148774609Y-129338502D01*
X148805225Y-129439428D01*
X148805455Y-129440184D01*
X148896300Y-129610144D01*
X148896304Y-129610150D01*
X149018569Y-129759131D01*
X149167550Y-129881396D01*
X149167552Y-129881397D01*
X149167555Y-129881399D01*
X149331764Y-129969170D01*
X149337521Y-129972247D01*
X149521950Y-130028193D01*
X149575609Y-130033478D01*
X149713749Y-130047084D01*
X149713749Y-130047083D01*
X149713750Y-130047084D01*
X149905550Y-130028193D01*
X150089979Y-129972247D01*
X150259950Y-129881396D01*
X150408931Y-129759131D01*
X150531196Y-129610150D01*
X150622047Y-129440179D01*
X150677993Y-129255750D01*
X150696884Y-129063950D01*
X151270616Y-129063950D01*
X151289506Y-129255748D01*
X151314609Y-129338502D01*
X151345225Y-129439428D01*
X151345455Y-129440184D01*
X151436300Y-129610144D01*
X151436304Y-129610150D01*
X151558569Y-129759131D01*
X151707550Y-129881396D01*
X151707552Y-129881397D01*
X151707555Y-129881399D01*
X151871764Y-129969170D01*
X151877521Y-129972247D01*
X152061950Y-130028193D01*
X152115609Y-130033478D01*
X152253749Y-130047084D01*
X152253749Y-130047083D01*
X152253750Y-130047084D01*
X152445550Y-130028193D01*
X152629979Y-129972247D01*
X152799950Y-129881396D01*
X152948931Y-129759131D01*
X153071196Y-129610150D01*
X153162047Y-129440179D01*
X153217993Y-129255750D01*
X153236884Y-129063954D01*
X153659411Y-129063954D01*
X153678723Y-129272376D01*
X153678725Y-129272388D01*
X153736010Y-129473721D01*
X153829316Y-129661102D01*
X153894852Y-129747885D01*
X154332627Y-129310110D01*
X154376821Y-129291804D01*
X154421015Y-129310110D01*
X154425685Y-129315335D01*
X154432283Y-129323608D01*
X154487998Y-129393472D01*
X154487999Y-129393473D01*
X154488001Y-129393475D01*
X154539352Y-129428485D01*
X154565555Y-129468505D01*
X154555785Y-129515332D01*
X154548339Y-129524319D01*
X154106668Y-129965991D01*
X154110153Y-129969168D01*
X154110158Y-129969172D01*
X154288133Y-130079369D01*
X154483326Y-130154986D01*
X154689081Y-130193449D01*
X154689089Y-130193450D01*
X154898411Y-130193450D01*
X154898418Y-130193449D01*
X155104173Y-130154986D01*
X155299366Y-130079369D01*
X155477343Y-129969170D01*
X155480830Y-129965991D01*
X155042655Y-129527816D01*
X155024349Y-129483622D01*
X155042655Y-129439428D01*
X155044339Y-129437806D01*
X155046971Y-129435362D01*
X155046974Y-129435362D01*
X155145200Y-129344222D01*
X155157102Y-129323606D01*
X155195049Y-129294486D01*
X155242476Y-129300728D01*
X155255422Y-129310662D01*
X155692646Y-129747885D01*
X155758185Y-129661100D01*
X155851489Y-129473721D01*
X155908774Y-129272388D01*
X155908776Y-129272376D01*
X155928089Y-129063954D01*
X156199411Y-129063954D01*
X156218723Y-129272376D01*
X156218725Y-129272388D01*
X156276010Y-129473721D01*
X156369316Y-129661102D01*
X156434852Y-129747885D01*
X156872627Y-129310110D01*
X156916821Y-129291804D01*
X156961015Y-129310110D01*
X156965685Y-129315335D01*
X156972283Y-129323608D01*
X157027998Y-129393472D01*
X157027999Y-129393473D01*
X157028001Y-129393475D01*
X157079352Y-129428485D01*
X157105555Y-129468505D01*
X157095785Y-129515332D01*
X157088339Y-129524319D01*
X156646668Y-129965991D01*
X156650153Y-129969168D01*
X156650158Y-129969172D01*
X156828133Y-130079369D01*
X157023326Y-130154986D01*
X157229081Y-130193449D01*
X157229089Y-130193450D01*
X157438411Y-130193450D01*
X157438418Y-130193449D01*
X157644173Y-130154986D01*
X157839366Y-130079369D01*
X158017343Y-129969170D01*
X158020830Y-129965991D01*
X157959343Y-129904504D01*
X158895350Y-129904504D01*
X158895351Y-129904508D01*
X158904221Y-129949106D01*
X158904222Y-129949108D01*
X158938016Y-129999684D01*
X158988592Y-130033478D01*
X159033193Y-130042350D01*
X160714306Y-130042349D01*
X160758908Y-130033478D01*
X160809484Y-129999684D01*
X160843278Y-129949108D01*
X160852150Y-129904507D01*
X160852150Y-129904504D01*
X163975350Y-129904504D01*
X163975351Y-129904508D01*
X163984221Y-129949106D01*
X163984222Y-129949108D01*
X164018016Y-129999684D01*
X164068592Y-130033478D01*
X164113193Y-130042350D01*
X165794306Y-130042349D01*
X165838908Y-130033478D01*
X165889484Y-129999684D01*
X165923278Y-129949108D01*
X165932150Y-129904507D01*
X165932149Y-129063950D01*
X166510616Y-129063950D01*
X166529506Y-129255748D01*
X166554609Y-129338502D01*
X166585225Y-129439428D01*
X166585455Y-129440184D01*
X166676300Y-129610144D01*
X166676304Y-129610150D01*
X166798569Y-129759131D01*
X166947550Y-129881396D01*
X166947552Y-129881397D01*
X166947555Y-129881399D01*
X167111764Y-129969170D01*
X167117521Y-129972247D01*
X167301950Y-130028193D01*
X167493750Y-130047084D01*
X167685550Y-130028193D01*
X167869979Y-129972247D01*
X168039950Y-129881396D01*
X168188931Y-129759131D01*
X168311196Y-129610150D01*
X168402047Y-129440179D01*
X168457993Y-129255750D01*
X168476884Y-129063950D01*
X169050616Y-129063950D01*
X169069506Y-129255748D01*
X169094609Y-129338502D01*
X169125225Y-129439428D01*
X169125455Y-129440184D01*
X169216300Y-129610144D01*
X169216304Y-129610150D01*
X169338569Y-129759131D01*
X169487550Y-129881396D01*
X169487552Y-129881397D01*
X169487555Y-129881399D01*
X169651764Y-129969170D01*
X169657521Y-129972247D01*
X169841950Y-130028193D01*
X169895609Y-130033478D01*
X170033749Y-130047084D01*
X170033749Y-130047083D01*
X170033750Y-130047084D01*
X170225550Y-130028193D01*
X170409979Y-129972247D01*
X170579950Y-129881396D01*
X170728931Y-129759131D01*
X170851196Y-129610150D01*
X170942047Y-129440179D01*
X170997993Y-129255750D01*
X171016884Y-129063950D01*
X171590616Y-129063950D01*
X171609506Y-129255748D01*
X171634609Y-129338502D01*
X171665225Y-129439428D01*
X171665455Y-129440184D01*
X171756300Y-129610144D01*
X171756304Y-129610150D01*
X171878569Y-129759131D01*
X172027550Y-129881396D01*
X172027552Y-129881397D01*
X172027555Y-129881399D01*
X172191764Y-129969170D01*
X172197521Y-129972247D01*
X172381950Y-130028193D01*
X172435609Y-130033478D01*
X172573749Y-130047084D01*
X172573749Y-130047083D01*
X172573750Y-130047084D01*
X172765550Y-130028193D01*
X172949979Y-129972247D01*
X173119950Y-129881396D01*
X173268931Y-129759131D01*
X173391196Y-129610150D01*
X173482047Y-129440179D01*
X173537993Y-129255750D01*
X173556884Y-129063950D01*
X174130616Y-129063950D01*
X174149506Y-129255748D01*
X174174609Y-129338502D01*
X174205225Y-129439428D01*
X174205455Y-129440184D01*
X174296300Y-129610144D01*
X174296304Y-129610150D01*
X174418569Y-129759131D01*
X174567550Y-129881396D01*
X174567552Y-129881397D01*
X174567555Y-129881399D01*
X174731764Y-129969170D01*
X174737521Y-129972247D01*
X174921950Y-130028193D01*
X175113750Y-130047084D01*
X175305550Y-130028193D01*
X175489979Y-129972247D01*
X175659950Y-129881396D01*
X175808931Y-129759131D01*
X175931196Y-129610150D01*
X176022047Y-129440179D01*
X176077993Y-129255750D01*
X176096884Y-129063950D01*
X176670616Y-129063950D01*
X176689506Y-129255748D01*
X176714609Y-129338502D01*
X176745225Y-129439428D01*
X176745455Y-129440184D01*
X176836300Y-129610144D01*
X176836304Y-129610150D01*
X176958569Y-129759131D01*
X177107550Y-129881396D01*
X177107552Y-129881397D01*
X177107555Y-129881399D01*
X177271764Y-129969170D01*
X177277521Y-129972247D01*
X177461950Y-130028193D01*
X177653750Y-130047084D01*
X177845550Y-130028193D01*
X178029979Y-129972247D01*
X178199950Y-129881396D01*
X178348931Y-129759131D01*
X178471196Y-129610150D01*
X178562047Y-129440179D01*
X178617993Y-129255750D01*
X178636884Y-129063950D01*
X178617993Y-128872150D01*
X178562047Y-128687721D01*
X178538826Y-128644277D01*
X178471199Y-128517755D01*
X178471195Y-128517749D01*
X178429380Y-128466797D01*
X178348931Y-128368769D01*
X178199950Y-128246504D01*
X178199944Y-128246500D01*
X178029984Y-128155655D01*
X178029981Y-128155654D01*
X178029979Y-128155653D01*
X177928302Y-128124809D01*
X177845548Y-128099706D01*
X177653750Y-128080816D01*
X177461951Y-128099706D01*
X177315370Y-128144171D01*
X177277521Y-128155653D01*
X177277520Y-128155653D01*
X177277515Y-128155655D01*
X177107555Y-128246500D01*
X177107549Y-128246504D01*
X176958569Y-128368769D01*
X176836304Y-128517749D01*
X176836300Y-128517755D01*
X176745455Y-128687715D01*
X176745453Y-128687720D01*
X176745453Y-128687721D01*
X176743992Y-128692538D01*
X176689506Y-128872151D01*
X176670616Y-129063949D01*
X176670616Y-129063950D01*
X176096884Y-129063950D01*
X176077993Y-128872150D01*
X176022047Y-128687721D01*
X175998826Y-128644277D01*
X175931199Y-128517755D01*
X175931195Y-128517749D01*
X175889380Y-128466797D01*
X175808931Y-128368769D01*
X175659950Y-128246504D01*
X175659944Y-128246500D01*
X175489984Y-128155655D01*
X175489981Y-128155654D01*
X175489979Y-128155653D01*
X175388302Y-128124809D01*
X175305548Y-128099706D01*
X175113750Y-128080816D01*
X174921951Y-128099706D01*
X174775370Y-128144171D01*
X174737521Y-128155653D01*
X174737520Y-128155653D01*
X174737515Y-128155655D01*
X174567555Y-128246500D01*
X174567549Y-128246504D01*
X174418569Y-128368769D01*
X174296304Y-128517749D01*
X174296300Y-128517755D01*
X174205455Y-128687715D01*
X174205453Y-128687720D01*
X174205453Y-128687721D01*
X174203992Y-128692538D01*
X174149506Y-128872151D01*
X174130616Y-129063949D01*
X174130616Y-129063950D01*
X173556884Y-129063950D01*
X173537993Y-128872150D01*
X173482047Y-128687721D01*
X173458826Y-128644277D01*
X173391199Y-128517755D01*
X173391195Y-128517749D01*
X173349380Y-128466797D01*
X173268931Y-128368769D01*
X173119950Y-128246504D01*
X173119944Y-128246500D01*
X172949984Y-128155655D01*
X172949981Y-128155654D01*
X172949979Y-128155653D01*
X172848302Y-128124809D01*
X172765548Y-128099706D01*
X172573750Y-128080816D01*
X172381951Y-128099706D01*
X172235370Y-128144171D01*
X172197521Y-128155653D01*
X172197520Y-128155653D01*
X172197515Y-128155655D01*
X172027555Y-128246500D01*
X172027549Y-128246504D01*
X171878569Y-128368769D01*
X171756304Y-128517749D01*
X171756300Y-128517755D01*
X171665455Y-128687715D01*
X171665453Y-128687720D01*
X171665453Y-128687721D01*
X171663992Y-128692538D01*
X171609506Y-128872151D01*
X171590616Y-129063949D01*
X171590616Y-129063950D01*
X171016884Y-129063950D01*
X170997993Y-128872150D01*
X170942047Y-128687721D01*
X170918826Y-128644277D01*
X170851199Y-128517755D01*
X170851195Y-128517749D01*
X170809380Y-128466797D01*
X170728931Y-128368769D01*
X170579950Y-128246504D01*
X170579944Y-128246500D01*
X170409984Y-128155655D01*
X170409981Y-128155654D01*
X170409979Y-128155653D01*
X170308302Y-128124809D01*
X170225548Y-128099706D01*
X170033750Y-128080816D01*
X169841951Y-128099706D01*
X169695370Y-128144171D01*
X169657521Y-128155653D01*
X169657520Y-128155653D01*
X169657515Y-128155655D01*
X169487555Y-128246500D01*
X169487549Y-128246504D01*
X169338569Y-128368769D01*
X169216304Y-128517749D01*
X169216300Y-128517755D01*
X169125455Y-128687715D01*
X169125453Y-128687720D01*
X169125453Y-128687721D01*
X169123992Y-128692538D01*
X169069506Y-128872151D01*
X169050616Y-129063949D01*
X169050616Y-129063950D01*
X168476884Y-129063950D01*
X168457993Y-128872150D01*
X168402047Y-128687721D01*
X168378826Y-128644277D01*
X168311199Y-128517755D01*
X168311195Y-128517749D01*
X168269380Y-128466797D01*
X168188931Y-128368769D01*
X168039950Y-128246504D01*
X168039944Y-128246500D01*
X167869984Y-128155655D01*
X167869981Y-128155654D01*
X167869979Y-128155653D01*
X167768302Y-128124809D01*
X167685548Y-128099706D01*
X167493750Y-128080816D01*
X167301951Y-128099706D01*
X167155370Y-128144171D01*
X167117521Y-128155653D01*
X167117520Y-128155653D01*
X167117515Y-128155655D01*
X166947555Y-128246500D01*
X166947549Y-128246504D01*
X166798569Y-128368769D01*
X166676304Y-128517749D01*
X166676300Y-128517755D01*
X166585455Y-128687715D01*
X166585453Y-128687720D01*
X166585453Y-128687721D01*
X166583992Y-128692538D01*
X166529506Y-128872151D01*
X166510616Y-129063949D01*
X166510616Y-129063950D01*
X165932149Y-129063950D01*
X165932149Y-128223394D01*
X165923278Y-128178792D01*
X165889484Y-128128216D01*
X165838908Y-128094422D01*
X165838907Y-128094421D01*
X165803178Y-128087314D01*
X165794307Y-128085550D01*
X165794306Y-128085550D01*
X164113195Y-128085550D01*
X164113191Y-128085551D01*
X164068593Y-128094421D01*
X164068592Y-128094422D01*
X164018016Y-128128216D01*
X163984221Y-128178792D01*
X163975350Y-128223393D01*
X163975350Y-129904504D01*
X160852150Y-129904504D01*
X160852149Y-128223394D01*
X160843278Y-128178792D01*
X160809484Y-128128216D01*
X160758908Y-128094422D01*
X160758907Y-128094421D01*
X160723178Y-128087314D01*
X160714307Y-128085550D01*
X160714306Y-128085550D01*
X159033195Y-128085550D01*
X159033191Y-128085551D01*
X158988593Y-128094421D01*
X158988592Y-128094422D01*
X158938016Y-128128216D01*
X158904221Y-128178792D01*
X158895350Y-128223393D01*
X158895350Y-129904504D01*
X157959343Y-129904504D01*
X157582655Y-129527816D01*
X157564349Y-129483622D01*
X157582655Y-129439428D01*
X157584339Y-129437806D01*
X157586971Y-129435362D01*
X157586974Y-129435362D01*
X157685200Y-129344222D01*
X157697102Y-129323606D01*
X157735049Y-129294486D01*
X157782476Y-129300728D01*
X157795422Y-129310662D01*
X158232646Y-129747886D01*
X158232646Y-129747885D01*
X158298185Y-129661100D01*
X158391489Y-129473721D01*
X158448774Y-129272388D01*
X158448776Y-129272376D01*
X158468089Y-129063954D01*
X158468089Y-129063945D01*
X158448776Y-128855523D01*
X158448774Y-128855511D01*
X158391489Y-128654178D01*
X158298183Y-128466797D01*
X158232646Y-128380013D01*
X158232646Y-128380012D01*
X157794871Y-128817788D01*
X157750677Y-128836094D01*
X157706483Y-128817788D01*
X157701813Y-128812562D01*
X157639504Y-128734430D01*
X157639502Y-128734429D01*
X157639502Y-128734428D01*
X157616996Y-128719083D01*
X157588145Y-128699413D01*
X157561943Y-128659392D01*
X157571713Y-128612565D01*
X157579159Y-128603579D01*
X158020829Y-128161908D01*
X158017345Y-128158731D01*
X158017340Y-128158727D01*
X157839366Y-128048530D01*
X157644173Y-127972913D01*
X157438418Y-127934450D01*
X157229081Y-127934450D01*
X157023326Y-127972913D01*
X156828130Y-128048531D01*
X156828128Y-128048532D01*
X156650162Y-128158725D01*
X156650154Y-128158731D01*
X156646669Y-128161907D01*
X157084844Y-128600083D01*
X157103150Y-128644277D01*
X157084844Y-128688471D01*
X157083161Y-128690093D01*
X156982297Y-128783680D01*
X156970397Y-128804293D01*
X156932447Y-128833413D01*
X156885021Y-128827169D01*
X156872077Y-128817237D01*
X156434852Y-128380013D01*
X156369316Y-128466797D01*
X156276010Y-128654178D01*
X156218725Y-128855511D01*
X156218723Y-128855523D01*
X156199411Y-129063945D01*
X156199411Y-129063954D01*
X155928089Y-129063954D01*
X155928089Y-129063945D01*
X155908776Y-128855523D01*
X155908774Y-128855511D01*
X155851489Y-128654178D01*
X155758183Y-128466797D01*
X155692646Y-128380013D01*
X155692646Y-128380012D01*
X155254871Y-128817788D01*
X155210677Y-128836094D01*
X155166483Y-128817788D01*
X155161813Y-128812562D01*
X155099504Y-128734430D01*
X155099502Y-128734429D01*
X155099502Y-128734428D01*
X155076996Y-128719083D01*
X155048145Y-128699413D01*
X155021943Y-128659392D01*
X155031713Y-128612565D01*
X155039159Y-128603579D01*
X155480829Y-128161908D01*
X155477345Y-128158731D01*
X155477340Y-128158727D01*
X155299366Y-128048530D01*
X155104173Y-127972913D01*
X154898418Y-127934450D01*
X154689081Y-127934450D01*
X154483326Y-127972913D01*
X154288130Y-128048531D01*
X154288128Y-128048532D01*
X154110162Y-128158725D01*
X154110154Y-128158731D01*
X154106669Y-128161907D01*
X154544844Y-128600083D01*
X154563150Y-128644277D01*
X154544844Y-128688471D01*
X154543161Y-128690093D01*
X154442297Y-128783680D01*
X154430397Y-128804293D01*
X154392447Y-128833413D01*
X154345021Y-128827169D01*
X154332077Y-128817237D01*
X153894852Y-128380013D01*
X153829316Y-128466797D01*
X153736010Y-128654178D01*
X153678725Y-128855511D01*
X153678723Y-128855523D01*
X153659411Y-129063945D01*
X153659411Y-129063954D01*
X153236884Y-129063954D01*
X153236884Y-129063950D01*
X153217993Y-128872150D01*
X153162047Y-128687721D01*
X153138826Y-128644277D01*
X153071199Y-128517755D01*
X153071195Y-128517749D01*
X153029380Y-128466797D01*
X152948931Y-128368769D01*
X152799950Y-128246504D01*
X152799944Y-128246500D01*
X152629984Y-128155655D01*
X152629981Y-128155654D01*
X152629979Y-128155653D01*
X152528302Y-128124809D01*
X152445548Y-128099706D01*
X152253750Y-128080816D01*
X152061951Y-128099706D01*
X151915370Y-128144171D01*
X151877521Y-128155653D01*
X151877520Y-128155653D01*
X151877515Y-128155655D01*
X151707555Y-128246500D01*
X151707549Y-128246504D01*
X151558569Y-128368769D01*
X151436304Y-128517749D01*
X151436300Y-128517755D01*
X151345455Y-128687715D01*
X151345453Y-128687720D01*
X151345453Y-128687721D01*
X151343992Y-128692538D01*
X151289506Y-128872151D01*
X151270616Y-129063949D01*
X151270616Y-129063950D01*
X150696884Y-129063950D01*
X150677993Y-128872150D01*
X150622047Y-128687721D01*
X150598826Y-128644277D01*
X150531199Y-128517755D01*
X150531195Y-128517749D01*
X150489380Y-128466797D01*
X150408931Y-128368769D01*
X150259950Y-128246504D01*
X150259944Y-128246500D01*
X150089984Y-128155655D01*
X150089981Y-128155654D01*
X150089979Y-128155653D01*
X149988302Y-128124809D01*
X149905548Y-128099706D01*
X149713750Y-128080816D01*
X149521951Y-128099706D01*
X149375370Y-128144171D01*
X149337521Y-128155653D01*
X149337520Y-128155653D01*
X149337515Y-128155655D01*
X149167555Y-128246500D01*
X149167549Y-128246504D01*
X149018569Y-128368769D01*
X148896304Y-128517749D01*
X148896300Y-128517755D01*
X148805455Y-128687715D01*
X148805453Y-128687720D01*
X148805453Y-128687721D01*
X148803992Y-128692538D01*
X148749506Y-128872151D01*
X148730616Y-129063949D01*
X148730616Y-129063950D01*
X148156884Y-129063950D01*
X148137993Y-128872150D01*
X148082047Y-128687721D01*
X148058826Y-128644277D01*
X147991199Y-128517755D01*
X147991195Y-128517749D01*
X147949380Y-128466797D01*
X147868931Y-128368769D01*
X147719950Y-128246504D01*
X147719944Y-128246500D01*
X147549984Y-128155655D01*
X147549981Y-128155654D01*
X147549979Y-128155653D01*
X147448302Y-128124809D01*
X147365548Y-128099706D01*
X147173750Y-128080816D01*
X146981951Y-128099706D01*
X146835370Y-128144171D01*
X146797521Y-128155653D01*
X146797520Y-128155653D01*
X146797515Y-128155655D01*
X146627555Y-128246500D01*
X146627549Y-128246504D01*
X146478569Y-128368769D01*
X146356304Y-128517749D01*
X146356300Y-128517755D01*
X146265455Y-128687715D01*
X146265453Y-128687720D01*
X146265453Y-128687721D01*
X146263992Y-128692538D01*
X146209506Y-128872151D01*
X146190616Y-129063949D01*
X146190616Y-129063950D01*
X145616884Y-129063950D01*
X145597993Y-128872150D01*
X145542047Y-128687721D01*
X145518826Y-128644277D01*
X145451199Y-128517755D01*
X145451195Y-128517749D01*
X145409380Y-128466797D01*
X145328931Y-128368769D01*
X145179950Y-128246504D01*
X145179944Y-128246500D01*
X145009984Y-128155655D01*
X145009981Y-128155654D01*
X145009979Y-128155653D01*
X144908302Y-128124809D01*
X144825548Y-128099706D01*
X144633750Y-128080816D01*
X144441951Y-128099706D01*
X144295370Y-128144171D01*
X144257521Y-128155653D01*
X144257520Y-128155653D01*
X144257515Y-128155655D01*
X144087555Y-128246500D01*
X144087549Y-128246504D01*
X143938569Y-128368769D01*
X143816304Y-128517749D01*
X143816300Y-128517755D01*
X143725455Y-128687715D01*
X143725453Y-128687720D01*
X143725453Y-128687721D01*
X143723992Y-128692538D01*
X143669506Y-128872151D01*
X143650616Y-129063949D01*
X143650616Y-129063950D01*
X143076884Y-129063950D01*
X143057993Y-128872150D01*
X143002047Y-128687721D01*
X142978826Y-128644277D01*
X142911199Y-128517755D01*
X142911195Y-128517749D01*
X142869380Y-128466797D01*
X142788931Y-128368769D01*
X142639950Y-128246504D01*
X142639944Y-128246500D01*
X142469984Y-128155655D01*
X142469981Y-128155654D01*
X142469979Y-128155653D01*
X142368302Y-128124809D01*
X142285548Y-128099706D01*
X142093750Y-128080816D01*
X141901951Y-128099706D01*
X141755370Y-128144171D01*
X141717521Y-128155653D01*
X141717520Y-128155653D01*
X141717515Y-128155655D01*
X141547555Y-128246500D01*
X141547549Y-128246504D01*
X141398569Y-128368769D01*
X141276304Y-128517749D01*
X141276300Y-128517755D01*
X141185455Y-128687715D01*
X141185453Y-128687720D01*
X141185453Y-128687721D01*
X141183992Y-128692538D01*
X141129506Y-128872151D01*
X141110616Y-129063949D01*
X141110616Y-129063950D01*
X114179250Y-129063950D01*
X114179250Y-125176004D01*
X174037850Y-125176004D01*
X174037851Y-125176008D01*
X174046721Y-125220606D01*
X174046722Y-125220608D01*
X174080516Y-125271184D01*
X174131092Y-125304978D01*
X174175693Y-125313850D01*
X176305806Y-125313849D01*
X176350408Y-125304978D01*
X176400984Y-125271184D01*
X176434778Y-125220608D01*
X176443650Y-125176007D01*
X176443649Y-124051718D01*
X178339337Y-124051718D01*
X178354212Y-124186905D01*
X178368967Y-124321004D01*
X178437489Y-124583103D01*
X178543442Y-124832432D01*
X178662968Y-125028282D01*
X178684570Y-125063678D01*
X178857859Y-125271907D01*
X178857873Y-125271921D01*
X179059615Y-125452682D01*
X179059620Y-125452686D01*
X179059625Y-125452690D01*
X179178835Y-125531558D01*
X179285565Y-125602170D01*
X179417770Y-125664145D01*
X179530854Y-125717157D01*
X179790276Y-125795205D01*
X180058296Y-125834650D01*
X180058297Y-125834650D01*
X180261388Y-125834650D01*
X180463926Y-125819826D01*
X180463928Y-125819825D01*
X180463935Y-125819825D01*
X180728361Y-125760922D01*
X180981393Y-125664145D01*
X181217638Y-125531558D01*
X181432060Y-125365987D01*
X181620090Y-125170959D01*
X181777720Y-124950633D01*
X181901590Y-124709703D01*
X181989061Y-124453306D01*
X182038268Y-124186905D01*
X182048162Y-123916178D01*
X182018533Y-123646896D01*
X181950011Y-123384797D01*
X181844058Y-123135468D01*
X181702931Y-122904224D01*
X181529639Y-122695991D01*
X181529626Y-122695978D01*
X181327884Y-122515217D01*
X181327877Y-122515212D01*
X181327875Y-122515210D01*
X181208667Y-122436343D01*
X181101934Y-122365729D01*
X180856649Y-122250744D01*
X180856644Y-122250742D01*
X180597233Y-122172697D01*
X180597219Y-122172694D01*
X180329210Y-122133250D01*
X180329204Y-122133250D01*
X180126118Y-122133250D01*
X180126112Y-122133250D01*
X179923573Y-122148073D01*
X179659136Y-122206978D01*
X179406105Y-122303755D01*
X179169859Y-122436343D01*
X178955441Y-122601912D01*
X178955432Y-122601919D01*
X178767412Y-122796937D01*
X178767405Y-122796946D01*
X178609778Y-123017268D01*
X178485909Y-123258198D01*
X178485906Y-123258204D01*
X178398442Y-123514581D01*
X178398437Y-123514602D01*
X178349233Y-123780986D01*
X178349231Y-123781007D01*
X178339337Y-124051718D01*
X176443649Y-124051718D01*
X176443649Y-123045894D01*
X176434778Y-123001292D01*
X176400984Y-122950716D01*
X176350408Y-122916922D01*
X176350407Y-122916921D01*
X176314677Y-122909814D01*
X176305807Y-122908050D01*
X176305806Y-122908050D01*
X174175695Y-122908050D01*
X174175691Y-122908051D01*
X174131093Y-122916921D01*
X174131092Y-122916922D01*
X174080516Y-122950716D01*
X174046721Y-123001292D01*
X174037850Y-123045893D01*
X174037850Y-125176004D01*
X114179250Y-125176004D01*
X114179250Y-119863953D01*
X117390697Y-119863953D01*
X117411264Y-120085921D01*
X117411266Y-120085932D01*
X117472274Y-120300348D01*
X117472274Y-120300349D01*
X117571643Y-120499908D01*
X117571644Y-120499909D01*
X117571646Y-120499913D01*
X117705979Y-120677800D01*
X117705984Y-120677805D01*
X117705988Y-120677810D01*
X117870734Y-120827996D01*
X117870733Y-120827996D01*
X118060270Y-120945353D01*
X118060271Y-120945354D01*
X118060274Y-120945355D01*
X118268151Y-121025886D01*
X118487285Y-121066850D01*
X118487288Y-121066850D01*
X118710212Y-121066850D01*
X118710215Y-121066850D01*
X118929349Y-121025886D01*
X119137226Y-120945355D01*
X119326765Y-120827997D01*
X119491512Y-120677810D01*
X119542002Y-120610950D01*
X173882110Y-120610950D01*
X173900640Y-120834574D01*
X173955725Y-121052098D01*
X173955726Y-121052102D01*
X174045863Y-121257593D01*
X174045865Y-121257596D01*
X174168591Y-121445442D01*
X174168600Y-121445454D01*
X174179472Y-121457264D01*
X174179474Y-121457264D01*
X174596943Y-121039795D01*
X174641137Y-121021489D01*
X174685331Y-121039795D01*
X174687909Y-121042534D01*
X174773155Y-121138756D01*
X174802989Y-121159349D01*
X174828961Y-121199519D01*
X174818922Y-121246289D01*
X174811679Y-121254979D01*
X174396794Y-121669863D01*
X174396795Y-121669864D01*
X174497642Y-121748357D01*
X174497649Y-121748361D01*
X174694984Y-121855152D01*
X174694991Y-121855155D01*
X174907223Y-121928015D01*
X175128552Y-121964949D01*
X175128560Y-121964950D01*
X175352940Y-121964950D01*
X175352947Y-121964949D01*
X175574276Y-121928015D01*
X175786508Y-121855155D01*
X175786515Y-121855152D01*
X175983854Y-121748359D01*
X176084703Y-121669863D01*
X176084704Y-121669863D01*
X175669819Y-121254979D01*
X175651513Y-121210785D01*
X175669819Y-121166591D01*
X175678499Y-121159356D01*
X175708345Y-121138756D01*
X175793581Y-121042544D01*
X175836588Y-121021604D01*
X175881807Y-121037208D01*
X175884556Y-121039796D01*
X176302024Y-121457265D01*
X176302025Y-121457264D01*
X176312906Y-121445445D01*
X176312912Y-121445438D01*
X176435634Y-121257597D01*
X176435636Y-121257593D01*
X176525773Y-121052102D01*
X176525774Y-121052098D01*
X176580859Y-120834574D01*
X176599389Y-120610950D01*
X176580859Y-120387325D01*
X176525774Y-120169801D01*
X176525773Y-120169797D01*
X176435636Y-119964306D01*
X176435634Y-119964303D01*
X176312909Y-119776458D01*
X176302024Y-119764634D01*
X175884555Y-120182103D01*
X175840361Y-120200409D01*
X175796167Y-120182103D01*
X175793592Y-120179367D01*
X175708345Y-120083144D01*
X175708342Y-120083141D01*
X175678509Y-120062549D01*
X175652537Y-120022379D01*
X175662577Y-119975609D01*
X175669819Y-119966919D01*
X176084704Y-119552035D01*
X176084703Y-119552034D01*
X175983857Y-119473542D01*
X175983850Y-119473538D01*
X175786515Y-119366747D01*
X175786508Y-119366744D01*
X175574276Y-119293884D01*
X175352947Y-119256950D01*
X175128552Y-119256950D01*
X174907223Y-119293884D01*
X174694991Y-119366744D01*
X174694984Y-119366747D01*
X174497649Y-119473538D01*
X174396794Y-119552035D01*
X174811679Y-119966919D01*
X174829985Y-120011113D01*
X174811679Y-120055307D01*
X174802991Y-120062548D01*
X174773156Y-120083142D01*
X174773153Y-120083145D01*
X174687919Y-120179354D01*
X174644910Y-120200295D01*
X174599692Y-120184691D01*
X174596943Y-120182103D01*
X174179474Y-119764634D01*
X174179473Y-119764634D01*
X174168593Y-119776454D01*
X174045865Y-119964303D01*
X174045863Y-119964306D01*
X173955726Y-120169797D01*
X173955725Y-120169801D01*
X173900640Y-120387325D01*
X173882110Y-120610950D01*
X119542002Y-120610950D01*
X119625857Y-120499908D01*
X119725226Y-120300349D01*
X119786234Y-120085929D01*
X119786492Y-120083144D01*
X119806803Y-119863953D01*
X119806803Y-119863946D01*
X119786235Y-119641978D01*
X119786233Y-119641967D01*
X119760645Y-119552035D01*
X119725226Y-119427551D01*
X119625857Y-119227992D01*
X119625854Y-119227988D01*
X119625853Y-119227986D01*
X119491520Y-119050099D01*
X119491515Y-119050094D01*
X119491512Y-119050090D01*
X119326765Y-118899903D01*
X119326766Y-118899903D01*
X119137229Y-118782546D01*
X119137228Y-118782545D01*
X118929346Y-118702013D01*
X118710217Y-118661050D01*
X118710215Y-118661050D01*
X118487285Y-118661050D01*
X118487282Y-118661050D01*
X118268153Y-118702013D01*
X118060271Y-118782545D01*
X118060270Y-118782546D01*
X117870733Y-118899903D01*
X117705986Y-119050092D01*
X117705979Y-119050099D01*
X117571646Y-119227986D01*
X117571643Y-119227992D01*
X117472274Y-119427550D01*
X117411266Y-119641967D01*
X117411264Y-119641978D01*
X117390697Y-119863946D01*
X117390697Y-119863953D01*
X114179250Y-119863953D01*
X114179250Y-117429004D01*
X117395850Y-117429004D01*
X117395851Y-117429008D01*
X117404721Y-117473606D01*
X117404722Y-117473608D01*
X117438516Y-117524184D01*
X117489092Y-117557978D01*
X117533693Y-117566850D01*
X119663806Y-117566849D01*
X119708408Y-117557978D01*
X119758984Y-117524184D01*
X119792778Y-117473608D01*
X119801650Y-117429007D01*
X119801649Y-115298894D01*
X119792778Y-115254292D01*
X119758984Y-115203716D01*
X119708408Y-115169922D01*
X119708407Y-115169921D01*
X119672678Y-115162814D01*
X119663807Y-115161050D01*
X119663806Y-115161050D01*
X117533695Y-115161050D01*
X117533691Y-115161051D01*
X117489093Y-115169921D01*
X117489092Y-115169922D01*
X117438516Y-115203716D01*
X117404721Y-115254292D01*
X117395850Y-115298893D01*
X117395850Y-117429004D01*
X114179250Y-117429004D01*
X114179250Y-115093949D01*
X127407343Y-115093949D01*
X127426073Y-115224223D01*
X127426074Y-115224226D01*
X127480747Y-115343945D01*
X127480751Y-115343951D01*
X127566937Y-115443413D01*
X127566939Y-115443415D01*
X127633220Y-115486011D01*
X127677659Y-115514570D01*
X127803940Y-115551649D01*
X127803942Y-115551650D01*
X127803943Y-115551650D01*
X127935558Y-115551650D01*
X127935558Y-115551649D01*
X128061841Y-115514570D01*
X128172562Y-115443414D01*
X128255282Y-115347951D01*
X128258748Y-115343951D01*
X128258749Y-115343949D01*
X128258752Y-115343946D01*
X128313426Y-115224225D01*
X128315885Y-115207116D01*
X128340295Y-115165976D01*
X128386644Y-115154146D01*
X128427784Y-115178555D01*
X128439614Y-115207116D01*
X128442073Y-115224223D01*
X128442074Y-115224226D01*
X128496747Y-115343945D01*
X128496751Y-115343951D01*
X128582937Y-115443413D01*
X128582939Y-115443415D01*
X128649220Y-115486011D01*
X128693659Y-115514570D01*
X128819940Y-115551649D01*
X128819942Y-115551650D01*
X128819943Y-115551650D01*
X128951558Y-115551650D01*
X128951558Y-115551649D01*
X129077841Y-115514570D01*
X129188562Y-115443414D01*
X129188563Y-115443413D01*
X129258116Y-115363145D01*
X129300891Y-115341733D01*
X129346279Y-115356840D01*
X129367691Y-115399615D01*
X129367850Y-115404074D01*
X129367850Y-115460123D01*
X129349544Y-115504317D01*
X129055757Y-115798104D01*
X129011563Y-115816410D01*
X128967369Y-115798104D01*
X128964329Y-115794839D01*
X128964293Y-115794798D01*
X128934562Y-115760486D01*
X128934561Y-115760485D01*
X128934560Y-115760484D01*
X128823845Y-115689332D01*
X128823836Y-115689328D01*
X128697559Y-115652250D01*
X128697557Y-115652250D01*
X128565943Y-115652250D01*
X128565941Y-115652250D01*
X128439663Y-115689328D01*
X128439654Y-115689332D01*
X128328939Y-115760484D01*
X128328937Y-115760486D01*
X128242751Y-115859948D01*
X128242747Y-115859954D01*
X128188074Y-115979673D01*
X128188073Y-115979676D01*
X128169343Y-116109949D01*
X128188073Y-116240223D01*
X128188074Y-116240226D01*
X128242747Y-116359945D01*
X128242751Y-116359951D01*
X128328937Y-116459413D01*
X128328939Y-116459415D01*
X128406559Y-116509298D01*
X128439659Y-116530570D01*
X128534873Y-116558527D01*
X128565940Y-116567649D01*
X128565942Y-116567650D01*
X128565943Y-116567650D01*
X128697558Y-116567650D01*
X128697558Y-116567649D01*
X128823841Y-116530570D01*
X128934562Y-116459414D01*
X128972167Y-116416016D01*
X128976149Y-116411421D01*
X129018925Y-116390009D01*
X129023383Y-116389850D01*
X129083896Y-116389850D01*
X129094617Y-116391598D01*
X129094678Y-116391168D01*
X129100408Y-116391967D01*
X129100410Y-116391968D01*
X129100411Y-116391967D01*
X129100412Y-116391968D01*
X129105961Y-116391711D01*
X129145520Y-116389882D01*
X129146936Y-116389850D01*
X129165679Y-116389850D01*
X129165685Y-116389850D01*
X129169960Y-116389050D01*
X129174239Y-116388554D01*
X129204943Y-116387135D01*
X129216466Y-116382046D01*
X129230222Y-116377785D01*
X129242613Y-116375470D01*
X129261217Y-116363950D01*
X160681343Y-116363950D01*
X160700073Y-116494223D01*
X160700074Y-116494226D01*
X160754747Y-116613945D01*
X160754751Y-116613951D01*
X160840937Y-116713413D01*
X160840939Y-116713415D01*
X160921909Y-116765451D01*
X160951659Y-116784570D01*
X161077940Y-116821649D01*
X161077942Y-116821650D01*
X161077943Y-116821650D01*
X161209558Y-116821650D01*
X161209558Y-116821649D01*
X161335841Y-116784570D01*
X161420797Y-116729971D01*
X161454587Y-116720050D01*
X164642913Y-116720050D01*
X164676702Y-116729971D01*
X164761659Y-116784570D01*
X164887940Y-116821649D01*
X164887942Y-116821650D01*
X164887943Y-116821650D01*
X165019558Y-116821650D01*
X165019558Y-116821649D01*
X165145841Y-116784570D01*
X165204893Y-116746619D01*
X165260322Y-116710998D01*
X165261035Y-116712108D01*
X165301602Y-116698602D01*
X165344380Y-116720009D01*
X165359650Y-116760943D01*
X165359650Y-118084671D01*
X165344385Y-118125599D01*
X165326750Y-118145951D01*
X165326747Y-118145956D01*
X165272074Y-118265673D01*
X165272073Y-118265676D01*
X165253343Y-118395950D01*
X165272073Y-118526223D01*
X165272074Y-118526226D01*
X165326747Y-118645945D01*
X165326751Y-118645951D01*
X165412937Y-118745413D01*
X165412939Y-118745415D01*
X165523654Y-118816567D01*
X165523659Y-118816570D01*
X165649940Y-118853649D01*
X165649942Y-118853650D01*
X165649943Y-118853650D01*
X165781558Y-118853650D01*
X165781558Y-118853649D01*
X165907841Y-118816570D01*
X166008300Y-118752009D01*
X166022322Y-118742998D01*
X166023035Y-118744108D01*
X166063602Y-118730602D01*
X166106380Y-118752009D01*
X166121650Y-118792943D01*
X166121650Y-118918119D01*
X166103344Y-118962313D01*
X166076759Y-118978087D01*
X166031661Y-118991329D01*
X166031654Y-118991332D01*
X165920939Y-119062484D01*
X165920937Y-119062486D01*
X165834751Y-119161948D01*
X165834747Y-119161954D01*
X165780074Y-119281673D01*
X165780073Y-119281676D01*
X165761343Y-119411949D01*
X165780073Y-119542223D01*
X165780074Y-119542226D01*
X165834747Y-119661945D01*
X165834751Y-119661951D01*
X165920937Y-119761413D01*
X165920939Y-119761415D01*
X166031654Y-119832567D01*
X166031659Y-119832570D01*
X166138541Y-119863953D01*
X166157940Y-119869649D01*
X166157942Y-119869650D01*
X166157943Y-119869650D01*
X166289558Y-119869650D01*
X166289558Y-119869649D01*
X166415841Y-119832570D01*
X166526562Y-119761414D01*
X166612752Y-119661946D01*
X166667426Y-119542225D01*
X166676278Y-119480650D01*
X166693946Y-119445354D01*
X166698855Y-119440445D01*
X166708862Y-119432320D01*
X166722265Y-119423564D01*
X166731305Y-119411949D01*
X166743995Y-119395643D01*
X166746547Y-119392753D01*
X166750416Y-119388886D01*
X166763292Y-119370851D01*
X166795261Y-119329778D01*
X166795261Y-119329775D01*
X166795263Y-119329774D01*
X166797728Y-119325220D01*
X166797834Y-119325277D01*
X166799922Y-119321220D01*
X166799815Y-119321168D01*
X166802089Y-119316514D01*
X166802089Y-119316513D01*
X166802091Y-119316511D01*
X166816949Y-119266601D01*
X166833850Y-119217373D01*
X166833850Y-119217371D01*
X166834703Y-119212264D01*
X166834820Y-119212283D01*
X166835479Y-119207756D01*
X166835362Y-119207742D01*
X166836002Y-119202609D01*
X166833850Y-119150582D01*
X166833850Y-117110953D01*
X174032697Y-117110953D01*
X174053264Y-117332921D01*
X174053266Y-117332932D01*
X174107683Y-117524183D01*
X174114274Y-117547349D01*
X174213643Y-117746908D01*
X174213644Y-117746909D01*
X174213646Y-117746913D01*
X174347979Y-117924800D01*
X174347984Y-117924805D01*
X174347988Y-117924810D01*
X174512734Y-118074996D01*
X174512733Y-118074996D01*
X174702270Y-118192353D01*
X174702271Y-118192354D01*
X174702274Y-118192355D01*
X174910151Y-118272886D01*
X175129285Y-118313850D01*
X175129288Y-118313850D01*
X175352212Y-118313850D01*
X175352215Y-118313850D01*
X175571349Y-118272886D01*
X175779226Y-118192355D01*
X175968765Y-118074997D01*
X176133512Y-117924810D01*
X176267857Y-117746908D01*
X176367226Y-117547349D01*
X176428234Y-117332929D01*
X176448803Y-117110950D01*
X176428234Y-116888971D01*
X176367226Y-116674551D01*
X176267857Y-116474992D01*
X176267854Y-116474988D01*
X176267853Y-116474986D01*
X176133520Y-116297099D01*
X176133515Y-116297094D01*
X176133512Y-116297090D01*
X175968765Y-116146903D01*
X175968766Y-116146903D01*
X175779229Y-116029546D01*
X175779228Y-116029545D01*
X175607330Y-115962953D01*
X175571349Y-115949014D01*
X175571348Y-115949013D01*
X175571346Y-115949013D01*
X175352217Y-115908050D01*
X175352215Y-115908050D01*
X175129285Y-115908050D01*
X175129282Y-115908050D01*
X174910153Y-115949013D01*
X174702271Y-116029545D01*
X174702270Y-116029546D01*
X174512733Y-116146903D01*
X174347986Y-116297092D01*
X174347979Y-116297099D01*
X174213646Y-116474986D01*
X174213643Y-116474992D01*
X174114274Y-116674550D01*
X174053266Y-116888967D01*
X174053264Y-116888978D01*
X174032697Y-117110946D01*
X174032697Y-117110953D01*
X166833850Y-117110953D01*
X166833850Y-116791339D01*
X166852156Y-116747145D01*
X167183285Y-116416016D01*
X167521600Y-116077700D01*
X167556902Y-116060032D01*
X167559558Y-116059650D01*
X167608233Y-116045357D01*
X167685841Y-116022570D01*
X167796562Y-115951414D01*
X167882752Y-115851946D01*
X167937426Y-115732225D01*
X167956157Y-115601950D01*
X167937426Y-115471675D01*
X167882752Y-115351954D01*
X167882748Y-115351948D01*
X167796562Y-115252486D01*
X167796560Y-115252484D01*
X167685845Y-115181332D01*
X167685836Y-115181328D01*
X167559559Y-115144250D01*
X167559557Y-115144250D01*
X167427943Y-115144250D01*
X167427941Y-115144250D01*
X167301663Y-115181328D01*
X167301654Y-115181332D01*
X167190939Y-115252484D01*
X167190937Y-115252486D01*
X167104751Y-115351948D01*
X167104747Y-115351954D01*
X167050073Y-115471675D01*
X167041220Y-115533249D01*
X167023550Y-115568547D01*
X166256649Y-116335448D01*
X166246642Y-116343575D01*
X166233237Y-116352333D01*
X166233235Y-116352335D01*
X166211503Y-116380254D01*
X166208944Y-116383153D01*
X166205090Y-116387007D01*
X166205082Y-116387017D01*
X166201547Y-116391968D01*
X166192214Y-116405039D01*
X166187247Y-116411421D01*
X166183671Y-116416016D01*
X166142080Y-116439647D01*
X166095961Y-116426948D01*
X166072330Y-116385357D01*
X166071850Y-116377627D01*
X166071850Y-115659227D01*
X166087114Y-115618299D01*
X166104752Y-115597946D01*
X166159426Y-115478225D01*
X166178157Y-115347950D01*
X166159426Y-115217675D01*
X166104752Y-115097954D01*
X166104748Y-115097948D01*
X166018562Y-114998486D01*
X166018560Y-114998484D01*
X165907845Y-114927332D01*
X165907836Y-114927328D01*
X165781559Y-114890250D01*
X165781557Y-114890250D01*
X165649943Y-114890250D01*
X165649941Y-114890250D01*
X165523663Y-114927328D01*
X165523654Y-114927332D01*
X165412939Y-114998484D01*
X165412937Y-114998486D01*
X165326751Y-115097948D01*
X165326747Y-115097954D01*
X165272074Y-115217673D01*
X165272073Y-115217676D01*
X165253343Y-115347949D01*
X165272073Y-115478223D01*
X165272074Y-115478226D01*
X165326745Y-115597941D01*
X165326747Y-115597944D01*
X165326748Y-115597946D01*
X165344385Y-115618299D01*
X165359650Y-115659227D01*
X165359650Y-115966956D01*
X165341344Y-116011150D01*
X165297150Y-116029456D01*
X165260933Y-116015950D01*
X165260322Y-116016902D01*
X165145845Y-115943332D01*
X165145836Y-115943328D01*
X165019559Y-115906250D01*
X165019557Y-115906250D01*
X164887943Y-115906250D01*
X164887941Y-115906250D01*
X164761663Y-115943328D01*
X164761654Y-115943332D01*
X164676703Y-115997928D01*
X164642913Y-116007850D01*
X161454587Y-116007850D01*
X161420797Y-115997928D01*
X161335845Y-115943332D01*
X161335836Y-115943328D01*
X161209559Y-115906250D01*
X161209557Y-115906250D01*
X161077943Y-115906250D01*
X161077941Y-115906250D01*
X160951663Y-115943328D01*
X160951654Y-115943332D01*
X160840939Y-116014484D01*
X160840937Y-116014486D01*
X160754751Y-116113948D01*
X160754747Y-116113954D01*
X160700074Y-116233673D01*
X160700073Y-116233676D01*
X160681343Y-116363950D01*
X129261217Y-116363950D01*
X129268747Y-116359287D01*
X129272558Y-116357278D01*
X129300672Y-116344866D01*
X129309585Y-116335951D01*
X129320867Y-116327015D01*
X129331583Y-116320381D01*
X129350100Y-116295858D01*
X129352934Y-116292602D01*
X129806176Y-115839361D01*
X129814990Y-115833023D01*
X129814727Y-115832674D01*
X129819346Y-115829185D01*
X129819349Y-115829184D01*
X129849760Y-115795823D01*
X129850717Y-115794820D01*
X129864008Y-115781531D01*
X129866459Y-115777950D01*
X129869150Y-115774554D01*
X129889848Y-115751851D01*
X129894400Y-115740099D01*
X129901113Y-115727363D01*
X129908236Y-115716966D01*
X129915271Y-115687050D01*
X129916543Y-115682941D01*
X129927650Y-115654272D01*
X129927650Y-115641662D01*
X129929309Y-115627362D01*
X129932193Y-115615101D01*
X129929800Y-115597944D01*
X129927950Y-115584681D01*
X129927650Y-115580358D01*
X129927650Y-114981776D01*
X129945956Y-114937582D01*
X130507382Y-114376156D01*
X130551576Y-114357850D01*
X131107122Y-114357850D01*
X131151316Y-114376156D01*
X131169622Y-114420350D01*
X131151316Y-114464544D01*
X130743918Y-114871944D01*
X130699724Y-114890250D01*
X130597941Y-114890250D01*
X130471663Y-114927328D01*
X130471654Y-114927332D01*
X130360939Y-114998484D01*
X130360937Y-114998486D01*
X130274751Y-115097948D01*
X130274747Y-115097954D01*
X130220074Y-115217673D01*
X130220073Y-115217676D01*
X130201343Y-115347949D01*
X130220073Y-115478223D01*
X130220074Y-115478226D01*
X130274747Y-115597945D01*
X130274751Y-115597951D01*
X130360937Y-115697413D01*
X130360939Y-115697415D01*
X130445645Y-115751852D01*
X130471659Y-115768570D01*
X130597940Y-115805649D01*
X130597942Y-115805650D01*
X130597943Y-115805650D01*
X130729558Y-115805650D01*
X130729558Y-115805649D01*
X130855841Y-115768570D01*
X130966562Y-115697414D01*
X131037888Y-115615100D01*
X131052748Y-115597951D01*
X131052749Y-115597949D01*
X131052752Y-115597946D01*
X131107426Y-115478225D01*
X131126157Y-115347950D01*
X131122240Y-115320714D01*
X131134069Y-115274367D01*
X131139903Y-115267633D01*
X131523381Y-114884156D01*
X131567576Y-114865850D01*
X135601924Y-114865850D01*
X135646118Y-114884156D01*
X136029588Y-115267626D01*
X136047894Y-115311820D01*
X136047258Y-115320713D01*
X136043343Y-115347948D01*
X136062073Y-115478223D01*
X136062074Y-115478226D01*
X136116747Y-115597945D01*
X136116751Y-115597951D01*
X136202937Y-115697413D01*
X136202939Y-115697415D01*
X136287645Y-115751852D01*
X136313659Y-115768570D01*
X136439940Y-115805649D01*
X136439942Y-115805650D01*
X136439943Y-115805650D01*
X136571558Y-115805650D01*
X136571558Y-115805649D01*
X136697841Y-115768570D01*
X136808562Y-115697414D01*
X136879888Y-115615100D01*
X136894748Y-115597951D01*
X136894749Y-115597949D01*
X136894752Y-115597946D01*
X136949426Y-115478225D01*
X136968157Y-115347950D01*
X136949426Y-115217675D01*
X136894752Y-115097954D01*
X136894748Y-115097948D01*
X136891283Y-115093949D01*
X139091343Y-115093949D01*
X139110073Y-115224223D01*
X139110074Y-115224226D01*
X139164747Y-115343945D01*
X139164751Y-115343951D01*
X139250937Y-115443413D01*
X139250939Y-115443415D01*
X139317220Y-115486011D01*
X139361659Y-115514570D01*
X139487940Y-115551649D01*
X139487942Y-115551650D01*
X139487943Y-115551650D01*
X139619558Y-115551650D01*
X139619558Y-115551649D01*
X139745841Y-115514570D01*
X139856562Y-115443414D01*
X139890651Y-115404074D01*
X139898149Y-115395421D01*
X139940925Y-115374009D01*
X139945383Y-115373850D01*
X142459924Y-115373850D01*
X142504118Y-115392156D01*
X142633588Y-115521626D01*
X142651894Y-115565820D01*
X142651258Y-115574713D01*
X142647918Y-115597951D01*
X142647343Y-115601950D01*
X142650996Y-115627355D01*
X142666073Y-115732223D01*
X142666074Y-115732226D01*
X142720747Y-115851945D01*
X142720751Y-115851951D01*
X142806937Y-115951413D01*
X142806939Y-115951415D01*
X142879315Y-115997928D01*
X142917659Y-116022570D01*
X143043940Y-116059649D01*
X143043942Y-116059650D01*
X143043943Y-116059650D01*
X143175558Y-116059650D01*
X143175558Y-116059649D01*
X143301841Y-116022570D01*
X143412562Y-115951414D01*
X143498752Y-115851946D01*
X143553426Y-115732225D01*
X143572157Y-115601950D01*
X143553426Y-115471675D01*
X143498752Y-115351954D01*
X143498748Y-115351948D01*
X143412562Y-115252486D01*
X143412560Y-115252484D01*
X143301845Y-115181332D01*
X143301836Y-115181328D01*
X143175559Y-115144250D01*
X143175557Y-115144250D01*
X143073776Y-115144250D01*
X143029582Y-115125944D01*
X142839164Y-114935526D01*
X142832823Y-114926712D01*
X142832476Y-114926975D01*
X142828984Y-114922351D01*
X142795622Y-114891937D01*
X142794577Y-114890939D01*
X142781329Y-114877691D01*
X142777750Y-114875239D01*
X142774356Y-114872550D01*
X142755274Y-114855155D01*
X142751651Y-114851852D01*
X142751649Y-114851851D01*
X142751647Y-114851849D01*
X142739901Y-114847299D01*
X142727158Y-114840582D01*
X142716769Y-114833466D01*
X142716765Y-114833463D01*
X142686860Y-114826430D01*
X142682722Y-114825148D01*
X142654073Y-114814050D01*
X142654072Y-114814050D01*
X142641472Y-114814050D01*
X142627164Y-114812390D01*
X142614901Y-114809506D01*
X142614900Y-114809506D01*
X142584474Y-114813750D01*
X142580151Y-114814050D01*
X139945383Y-114814050D01*
X139901189Y-114795744D01*
X139898149Y-114792479D01*
X139856562Y-114744486D01*
X139856560Y-114744484D01*
X139745845Y-114673332D01*
X139745836Y-114673328D01*
X139619559Y-114636250D01*
X139619557Y-114636250D01*
X139487943Y-114636250D01*
X139487941Y-114636250D01*
X139361663Y-114673328D01*
X139361654Y-114673332D01*
X139250939Y-114744484D01*
X139250937Y-114744486D01*
X139164751Y-114843948D01*
X139164747Y-114843954D01*
X139110074Y-114963673D01*
X139110073Y-114963676D01*
X139091343Y-115093949D01*
X136891283Y-115093949D01*
X136808562Y-114998486D01*
X136808560Y-114998484D01*
X136697845Y-114927332D01*
X136697836Y-114927328D01*
X136571559Y-114890250D01*
X136571557Y-114890250D01*
X136469777Y-114890250D01*
X136425583Y-114871944D01*
X135981164Y-114427526D01*
X135974822Y-114418711D01*
X135974475Y-114418974D01*
X135970984Y-114414351D01*
X135957175Y-114401762D01*
X135937615Y-114383930D01*
X135936610Y-114382972D01*
X135923330Y-114369692D01*
X135923327Y-114369689D01*
X135919750Y-114367239D01*
X135916356Y-114364550D01*
X135903151Y-114352513D01*
X135893651Y-114343852D01*
X135893649Y-114343851D01*
X135893647Y-114343849D01*
X135881901Y-114339299D01*
X135869158Y-114332582D01*
X135858769Y-114325466D01*
X135858765Y-114325463D01*
X135828860Y-114318430D01*
X135824722Y-114317148D01*
X135796073Y-114306050D01*
X135796072Y-114306050D01*
X135783472Y-114306050D01*
X135769164Y-114304390D01*
X135756901Y-114301506D01*
X135756900Y-114301506D01*
X135726474Y-114305750D01*
X135722151Y-114306050D01*
X133259032Y-114306050D01*
X133214838Y-114287744D01*
X133196532Y-114243550D01*
X133214838Y-114199356D01*
X133225242Y-114190972D01*
X133252560Y-114173415D01*
X133252559Y-114173415D01*
X133252562Y-114173414D01*
X133338752Y-114073946D01*
X133393426Y-113954225D01*
X133412157Y-113823950D01*
X133393426Y-113693675D01*
X133355647Y-113610949D01*
X173882110Y-113610949D01*
X173900640Y-113834574D01*
X173955725Y-114052098D01*
X173955726Y-114052102D01*
X174045863Y-114257593D01*
X174045865Y-114257596D01*
X174168591Y-114445442D01*
X174168600Y-114445454D01*
X174179472Y-114457264D01*
X174179474Y-114457264D01*
X174596943Y-114039795D01*
X174641137Y-114021489D01*
X174685331Y-114039795D01*
X174687909Y-114042534D01*
X174715743Y-114073951D01*
X174763846Y-114128249D01*
X174773155Y-114138756D01*
X174802989Y-114159349D01*
X174828961Y-114199519D01*
X174818922Y-114246289D01*
X174811679Y-114254979D01*
X174396794Y-114669863D01*
X174396795Y-114669864D01*
X174497642Y-114748357D01*
X174497649Y-114748361D01*
X174694984Y-114855152D01*
X174694991Y-114855155D01*
X174907223Y-114928015D01*
X175128552Y-114964949D01*
X175128560Y-114964950D01*
X175352940Y-114964950D01*
X175352947Y-114964949D01*
X175574276Y-114928015D01*
X175786508Y-114855155D01*
X175786515Y-114855152D01*
X175983854Y-114748359D01*
X176084703Y-114669863D01*
X176084704Y-114669863D01*
X175669819Y-114254979D01*
X175651513Y-114210785D01*
X175669819Y-114166591D01*
X175678499Y-114159356D01*
X175708345Y-114138756D01*
X175793581Y-114042544D01*
X175836588Y-114021604D01*
X175881807Y-114037208D01*
X175884556Y-114039796D01*
X176302024Y-114457265D01*
X176302025Y-114457264D01*
X176312906Y-114445445D01*
X176312912Y-114445438D01*
X176435634Y-114257597D01*
X176435636Y-114257593D01*
X176525773Y-114052102D01*
X176525774Y-114052098D01*
X176580859Y-113834574D01*
X176599389Y-113610949D01*
X176580859Y-113387325D01*
X176525774Y-113169801D01*
X176525773Y-113169797D01*
X176435636Y-112964306D01*
X176435634Y-112964303D01*
X176312909Y-112776458D01*
X176302024Y-112764634D01*
X175884555Y-113182103D01*
X175840361Y-113200409D01*
X175796167Y-113182103D01*
X175793592Y-113179367D01*
X175708345Y-113083144D01*
X175708342Y-113083141D01*
X175678509Y-113062549D01*
X175652537Y-113022379D01*
X175662577Y-112975609D01*
X175669819Y-112966919D01*
X176084704Y-112552035D01*
X176084703Y-112552034D01*
X175983857Y-112473542D01*
X175983850Y-112473538D01*
X175786515Y-112366747D01*
X175786508Y-112366744D01*
X175574276Y-112293884D01*
X175352947Y-112256950D01*
X175128552Y-112256950D01*
X174907223Y-112293884D01*
X174694991Y-112366744D01*
X174694984Y-112366747D01*
X174497649Y-112473538D01*
X174396794Y-112552035D01*
X174811679Y-112966919D01*
X174829985Y-113011113D01*
X174811679Y-113055307D01*
X174802991Y-113062548D01*
X174773156Y-113083142D01*
X174773153Y-113083145D01*
X174687919Y-113179354D01*
X174644910Y-113200295D01*
X174599692Y-113184691D01*
X174596943Y-113182103D01*
X174179474Y-112764634D01*
X174179473Y-112764634D01*
X174168593Y-112776454D01*
X174045865Y-112964303D01*
X174045863Y-112964306D01*
X173955726Y-113169797D01*
X173955725Y-113169801D01*
X173900640Y-113387325D01*
X173882110Y-113610949D01*
X133355647Y-113610949D01*
X133338752Y-113573954D01*
X133338748Y-113573948D01*
X133252562Y-113474486D01*
X133252560Y-113474484D01*
X133141845Y-113403332D01*
X133141836Y-113403328D01*
X133015559Y-113366250D01*
X133015557Y-113366250D01*
X132883943Y-113366250D01*
X132883941Y-113366250D01*
X132757663Y-113403328D01*
X132757655Y-113403332D01*
X132740499Y-113414357D01*
X132693423Y-113422849D01*
X132654131Y-113395567D01*
X132644846Y-113352884D01*
X132650157Y-113315950D01*
X132631426Y-113185675D01*
X132576752Y-113065954D01*
X132576748Y-113065948D01*
X132490562Y-112966486D01*
X132490560Y-112966484D01*
X132463242Y-112948928D01*
X132435960Y-112909635D01*
X132444454Y-112862560D01*
X132483747Y-112835278D01*
X132497032Y-112833850D01*
X132558117Y-112833850D01*
X132602311Y-112852156D01*
X132605351Y-112855421D01*
X132646937Y-112903413D01*
X132646939Y-112903415D01*
X132757654Y-112974567D01*
X132757659Y-112974570D01*
X132883940Y-113011649D01*
X132883942Y-113011650D01*
X132883943Y-113011650D01*
X133015558Y-113011650D01*
X133015558Y-113011649D01*
X133141841Y-112974570D01*
X133252562Y-112903414D01*
X133330262Y-112813744D01*
X133338748Y-112803951D01*
X133338749Y-112803949D01*
X133338752Y-112803946D01*
X133393426Y-112684225D01*
X133412157Y-112553950D01*
X155093343Y-112553950D01*
X155112073Y-112684223D01*
X155112074Y-112684226D01*
X155166747Y-112803945D01*
X155166751Y-112803951D01*
X155252937Y-112903413D01*
X155252939Y-112903415D01*
X155363654Y-112974567D01*
X155363659Y-112974570D01*
X155489940Y-113011649D01*
X155489942Y-113011650D01*
X155489943Y-113011650D01*
X155621558Y-113011650D01*
X155621558Y-113011649D01*
X155747841Y-112974570D01*
X155858562Y-112903414D01*
X155936262Y-112813744D01*
X155944748Y-112803951D01*
X155944749Y-112803949D01*
X155944752Y-112803946D01*
X155999426Y-112684225D01*
X156018157Y-112553950D01*
X155999426Y-112423675D01*
X155944752Y-112303954D01*
X155936026Y-112293884D01*
X155927115Y-112283599D01*
X155911850Y-112242671D01*
X155911850Y-112045951D01*
X159665343Y-112045951D01*
X159669653Y-112075932D01*
X159669883Y-112078040D01*
X159670048Y-112080245D01*
X159674928Y-112112616D01*
X159684074Y-112176227D01*
X159684382Y-112177274D01*
X159685299Y-112181421D01*
X159685443Y-112182380D01*
X159685444Y-112182384D01*
X159713341Y-112240313D01*
X159738747Y-112295946D01*
X159741163Y-112299705D01*
X159740805Y-112299934D01*
X159743597Y-112304183D01*
X159745309Y-112306694D01*
X159786931Y-112351552D01*
X159824939Y-112395415D01*
X159824951Y-112395423D01*
X159836977Y-112405489D01*
X159839155Y-112407836D01*
X159888839Y-112436521D01*
X159890059Y-112437265D01*
X159923589Y-112458813D01*
X159935659Y-112466570D01*
X159939122Y-112467587D01*
X159952764Y-112473429D01*
X159952953Y-112473538D01*
X159958645Y-112476824D01*
X159995551Y-112485247D01*
X160011315Y-112488845D01*
X160013158Y-112489324D01*
X160028338Y-112493782D01*
X160061941Y-112503650D01*
X160061943Y-112503650D01*
X160069137Y-112503650D01*
X160083043Y-112505216D01*
X160093160Y-112507526D01*
X160143728Y-112503736D01*
X160146048Y-112503650D01*
X160193555Y-112503650D01*
X160193557Y-112503650D01*
X160203901Y-112500612D01*
X160216829Y-112498258D01*
X160230748Y-112497215D01*
X160274838Y-112479909D01*
X160277444Y-112479018D01*
X160284916Y-112476824D01*
X160319841Y-112466570D01*
X160331913Y-112458811D01*
X160342866Y-112453211D01*
X160359185Y-112446807D01*
X160393612Y-112419350D01*
X160396190Y-112417502D01*
X160430562Y-112395414D01*
X160442297Y-112381869D01*
X160450562Y-112373936D01*
X160467058Y-112360782D01*
X160489984Y-112327153D01*
X160492177Y-112324304D01*
X160516752Y-112295946D01*
X160525680Y-112276394D01*
X160530888Y-112267159D01*
X160544781Y-112246782D01*
X160555789Y-112211093D01*
X160557226Y-112207317D01*
X160571426Y-112176225D01*
X160574990Y-112151434D01*
X160577129Y-112141910D01*
X160585450Y-112114937D01*
X160585450Y-112083158D01*
X160586086Y-112074263D01*
X160590157Y-112045950D01*
X160586086Y-112017634D01*
X160585450Y-112008740D01*
X160585450Y-110737423D01*
X160603756Y-110693229D01*
X161152762Y-110144223D01*
X161283036Y-110013949D01*
X163475343Y-110013949D01*
X163494073Y-110144223D01*
X163494074Y-110144226D01*
X163548747Y-110263945D01*
X163548751Y-110263951D01*
X163634937Y-110363413D01*
X163634939Y-110363415D01*
X163740535Y-110431277D01*
X163745659Y-110434570D01*
X163871940Y-110471649D01*
X163871942Y-110471650D01*
X163871943Y-110471650D01*
X164003558Y-110471650D01*
X164003558Y-110471649D01*
X164129841Y-110434570D01*
X164240562Y-110363414D01*
X164277585Y-110320688D01*
X164282149Y-110315421D01*
X164324925Y-110294009D01*
X164329383Y-110293850D01*
X172436117Y-110293850D01*
X172480311Y-110312156D01*
X172483351Y-110315421D01*
X172524937Y-110363413D01*
X172524939Y-110363415D01*
X172630535Y-110431277D01*
X172635659Y-110434570D01*
X172761940Y-110471649D01*
X172761942Y-110471650D01*
X172761943Y-110471650D01*
X172893558Y-110471650D01*
X172893558Y-110471649D01*
X173019841Y-110434570D01*
X173130562Y-110363414D01*
X173216752Y-110263946D01*
X173271426Y-110144225D01*
X173290157Y-110013950D01*
X173271426Y-109883675D01*
X173216752Y-109763954D01*
X173216748Y-109763948D01*
X173130562Y-109664486D01*
X173130560Y-109664484D01*
X173019845Y-109593332D01*
X173019836Y-109593328D01*
X172926485Y-109565918D01*
X172889238Y-109535903D01*
X172884125Y-109488342D01*
X172914140Y-109451095D01*
X172926485Y-109445982D01*
X172972115Y-109432583D01*
X173019841Y-109418570D01*
X173130562Y-109347414D01*
X173216752Y-109247946D01*
X173271426Y-109128225D01*
X173290157Y-108997950D01*
X173271426Y-108867675D01*
X173216752Y-108747954D01*
X173216748Y-108747948D01*
X173130562Y-108648486D01*
X173130560Y-108648484D01*
X173019845Y-108577332D01*
X173019836Y-108577328D01*
X172893559Y-108540250D01*
X172893557Y-108540250D01*
X172761943Y-108540250D01*
X172761941Y-108540250D01*
X172635663Y-108577328D01*
X172635654Y-108577332D01*
X172524939Y-108648484D01*
X172524937Y-108648486D01*
X172483351Y-108696479D01*
X172440575Y-108717891D01*
X172436117Y-108718050D01*
X164329383Y-108718050D01*
X164285189Y-108699744D01*
X164282149Y-108696479D01*
X164240562Y-108648486D01*
X164240560Y-108648484D01*
X164129845Y-108577332D01*
X164129836Y-108577328D01*
X164003559Y-108540250D01*
X164003557Y-108540250D01*
X163871943Y-108540250D01*
X163871941Y-108540250D01*
X163745663Y-108577328D01*
X163745654Y-108577332D01*
X163634939Y-108648484D01*
X163634937Y-108648486D01*
X163548751Y-108747948D01*
X163548747Y-108747954D01*
X163494074Y-108867673D01*
X163494073Y-108867676D01*
X163475343Y-108997949D01*
X163494073Y-109128223D01*
X163494074Y-109128226D01*
X163548747Y-109247945D01*
X163548751Y-109247951D01*
X163634937Y-109347413D01*
X163634939Y-109347415D01*
X163745654Y-109418567D01*
X163745659Y-109418570D01*
X163763451Y-109423794D01*
X163839014Y-109445982D01*
X163876261Y-109475997D01*
X163881374Y-109523558D01*
X163851359Y-109560805D01*
X163839014Y-109565918D01*
X163745663Y-109593328D01*
X163745654Y-109593332D01*
X163634939Y-109664484D01*
X163634937Y-109664486D01*
X163548751Y-109763948D01*
X163548747Y-109763954D01*
X163494074Y-109883673D01*
X163494073Y-109883676D01*
X163475343Y-110013949D01*
X161283036Y-110013949D01*
X161935848Y-109361136D01*
X161946252Y-109352754D01*
X161954560Y-109347415D01*
X161954559Y-109347415D01*
X161954562Y-109347414D01*
X161986228Y-109310867D01*
X161987745Y-109309240D01*
X161999647Y-109297339D01*
X162008666Y-109285117D01*
X162010166Y-109283242D01*
X162040752Y-109247946D01*
X162045602Y-109237323D01*
X162052161Y-109226182D01*
X162060980Y-109214235D01*
X162076348Y-109170312D01*
X162077405Y-109167683D01*
X162095426Y-109128225D01*
X162097595Y-109113132D01*
X162100465Y-109101389D01*
X162106550Y-109084003D01*
X162108164Y-109040830D01*
X162108460Y-109037568D01*
X162114157Y-108997950D01*
X162114156Y-108997946D01*
X162114157Y-108997946D01*
X162111479Y-108979326D01*
X162110886Y-108968093D01*
X162111709Y-108946126D01*
X162101391Y-108907624D01*
X162100646Y-108903985D01*
X162095426Y-108867674D01*
X162086130Y-108847319D01*
X162082612Y-108837532D01*
X162075999Y-108812852D01*
X162056571Y-108781934D01*
X162054603Y-108778285D01*
X162040752Y-108747954D01*
X162040750Y-108747952D01*
X162023767Y-108728353D01*
X162018081Y-108720675D01*
X162002595Y-108696030D01*
X162002591Y-108696025D01*
X161979179Y-108675877D01*
X161972713Y-108669433D01*
X161954562Y-108648486D01*
X161927913Y-108631359D01*
X161924420Y-108628753D01*
X161898011Y-108606026D01*
X161872955Y-108595094D01*
X161864159Y-108590387D01*
X161843841Y-108577329D01*
X161810248Y-108567465D01*
X161806553Y-108566123D01*
X161771547Y-108550851D01*
X161747922Y-108548189D01*
X161737313Y-108546050D01*
X161717559Y-108540250D01*
X161717557Y-108540250D01*
X161679210Y-108540250D01*
X161675708Y-108540053D01*
X161649595Y-108537111D01*
X161634443Y-108535404D01*
X161634442Y-108535404D01*
X161634441Y-108535404D01*
X161621838Y-108537788D01*
X161614590Y-108539160D01*
X161602973Y-108540250D01*
X161585943Y-108540250D01*
X161545940Y-108551995D01*
X161542944Y-108552716D01*
X161498878Y-108561053D01*
X161498873Y-108561055D01*
X161484165Y-108568828D01*
X161472578Y-108573536D01*
X161459659Y-108577330D01*
X161459656Y-108577331D01*
X161421787Y-108601666D01*
X161419496Y-108603005D01*
X161390754Y-108618197D01*
X161376888Y-108625526D01*
X161376886Y-108625527D01*
X161376887Y-108625527D01*
X161367648Y-108634765D01*
X161357251Y-108643142D01*
X161348941Y-108648483D01*
X161348938Y-108648485D01*
X161317268Y-108685031D01*
X161315749Y-108686664D01*
X159823532Y-110178882D01*
X159820917Y-110181218D01*
X159788443Y-110207116D01*
X159788438Y-110207121D01*
X159754395Y-110257055D01*
X159718519Y-110305665D01*
X159718519Y-110305666D01*
X159718351Y-110306147D01*
X159711011Y-110320688D01*
X159710723Y-110321110D01*
X159710718Y-110321119D01*
X159692906Y-110378864D01*
X159672949Y-110435899D01*
X159672949Y-110435900D01*
X159672930Y-110436409D01*
X159670202Y-110452467D01*
X159670050Y-110452957D01*
X159670050Y-110513386D01*
X159667790Y-110573775D01*
X159667790Y-110573776D01*
X159667921Y-110574265D01*
X159670049Y-110590433D01*
X159670049Y-112008740D01*
X159669413Y-112017632D01*
X159665343Y-112045947D01*
X159665343Y-112045951D01*
X155911850Y-112045951D01*
X155911850Y-107362943D01*
X155930156Y-107318749D01*
X155974350Y-107300443D01*
X156010564Y-107313952D01*
X156011178Y-107312998D01*
X156125654Y-107386567D01*
X156125659Y-107386570D01*
X156251940Y-107423649D01*
X156251942Y-107423650D01*
X156251943Y-107423650D01*
X156383558Y-107423650D01*
X156383558Y-107423649D01*
X156509841Y-107386570D01*
X156594797Y-107331971D01*
X156628587Y-107322050D01*
X158052333Y-107322050D01*
X158065159Y-107323380D01*
X158080831Y-107326666D01*
X158080831Y-107326665D01*
X158080832Y-107326666D01*
X158093848Y-107325043D01*
X158115937Y-107322289D01*
X158119804Y-107322050D01*
X158125253Y-107322050D01*
X158125258Y-107322050D01*
X158147103Y-107318404D01*
X158198763Y-107311965D01*
X158198772Y-107311960D01*
X158203728Y-107310486D01*
X158203762Y-107310602D01*
X158208110Y-107309209D01*
X158208072Y-107309096D01*
X158212968Y-107307413D01*
X158212974Y-107307413D01*
X158258773Y-107282627D01*
X158305532Y-107259769D01*
X158305534Y-107259766D01*
X158309747Y-107256759D01*
X158309817Y-107256857D01*
X158313482Y-107254124D01*
X158313409Y-107254030D01*
X158317492Y-107250850D01*
X158317496Y-107250849D01*
X158352765Y-107212535D01*
X158853350Y-106711950D01*
X163729343Y-106711950D01*
X163748073Y-106842223D01*
X163748074Y-106842226D01*
X163802747Y-106961945D01*
X163802751Y-106961951D01*
X163888937Y-107061413D01*
X163888939Y-107061415D01*
X163999654Y-107132567D01*
X163999659Y-107132570D01*
X164125940Y-107169649D01*
X164125942Y-107169650D01*
X164125943Y-107169650D01*
X164257558Y-107169650D01*
X164257558Y-107169649D01*
X164383841Y-107132570D01*
X164494562Y-107061414D01*
X164556845Y-106989535D01*
X164580748Y-106961951D01*
X164580749Y-106961949D01*
X164580752Y-106961946D01*
X164635426Y-106842225D01*
X164654157Y-106711950D01*
X164635426Y-106581675D01*
X164580752Y-106461954D01*
X164573812Y-106453945D01*
X164563115Y-106441599D01*
X164547850Y-106400671D01*
X164547850Y-106203953D01*
X176518106Y-106203953D01*
X176537440Y-106412616D01*
X176537442Y-106412627D01*
X176585541Y-106581673D01*
X176594794Y-106614192D01*
X176688206Y-106801790D01*
X176753223Y-106887886D01*
X176809154Y-106961951D01*
X176814499Y-106969028D01*
X176969371Y-107110212D01*
X176969370Y-107110212D01*
X177147545Y-107220534D01*
X177147550Y-107220537D01*
X177342966Y-107296242D01*
X177548966Y-107334750D01*
X177548969Y-107334750D01*
X177758531Y-107334750D01*
X177758534Y-107334750D01*
X177964534Y-107296242D01*
X178159950Y-107220537D01*
X178338128Y-107110213D01*
X178493001Y-106969028D01*
X178619294Y-106801790D01*
X178712706Y-106614192D01*
X178770058Y-106412624D01*
X178770472Y-106408155D01*
X178789394Y-106203954D01*
X179059411Y-106203954D01*
X179078723Y-106412376D01*
X179078725Y-106412388D01*
X179136010Y-106613721D01*
X179229316Y-106801102D01*
X179294852Y-106887885D01*
X179732627Y-106450110D01*
X179776821Y-106431804D01*
X179821015Y-106450110D01*
X179825685Y-106455335D01*
X179832283Y-106463608D01*
X179887998Y-106533472D01*
X179887999Y-106533473D01*
X179888001Y-106533475D01*
X179939352Y-106568485D01*
X179965555Y-106608505D01*
X179955785Y-106655332D01*
X179948339Y-106664319D01*
X179506668Y-107105991D01*
X179510153Y-107109168D01*
X179510158Y-107109172D01*
X179688133Y-107219369D01*
X179883326Y-107294986D01*
X180089081Y-107333449D01*
X180089089Y-107333450D01*
X180298411Y-107333450D01*
X180298418Y-107333449D01*
X180504173Y-107294986D01*
X180699366Y-107219369D01*
X180877343Y-107109170D01*
X180880830Y-107105991D01*
X180442655Y-106667816D01*
X180424349Y-106623622D01*
X180442655Y-106579428D01*
X180444339Y-106577806D01*
X180446971Y-106575362D01*
X180446974Y-106575362D01*
X180545200Y-106484222D01*
X180557102Y-106463606D01*
X180595049Y-106434486D01*
X180642476Y-106440728D01*
X180655422Y-106450662D01*
X181092646Y-106887886D01*
X181092646Y-106887885D01*
X181158185Y-106801100D01*
X181251489Y-106613721D01*
X181308774Y-106412388D01*
X181308776Y-106412376D01*
X181328089Y-106203954D01*
X181328089Y-106203945D01*
X181308776Y-105995523D01*
X181308774Y-105995511D01*
X181251489Y-105794178D01*
X181158183Y-105606797D01*
X181092646Y-105520013D01*
X181092646Y-105520012D01*
X180654871Y-105957788D01*
X180610677Y-105976094D01*
X180566483Y-105957788D01*
X180561813Y-105952562D01*
X180499504Y-105874430D01*
X180499502Y-105874429D01*
X180499502Y-105874428D01*
X180476558Y-105858785D01*
X180448145Y-105839413D01*
X180421943Y-105799392D01*
X180431713Y-105752565D01*
X180439159Y-105743579D01*
X180880829Y-105301908D01*
X180877345Y-105298731D01*
X180877340Y-105298727D01*
X180699366Y-105188530D01*
X180504173Y-105112913D01*
X180298418Y-105074450D01*
X180089081Y-105074450D01*
X179883326Y-105112913D01*
X179688130Y-105188531D01*
X179688128Y-105188532D01*
X179510162Y-105298725D01*
X179510154Y-105298731D01*
X179506669Y-105301907D01*
X179506669Y-105301908D01*
X179944844Y-105740083D01*
X179963150Y-105784277D01*
X179944844Y-105828471D01*
X179943161Y-105830093D01*
X179842297Y-105923680D01*
X179830397Y-105944293D01*
X179792447Y-105973413D01*
X179745021Y-105967169D01*
X179732077Y-105957237D01*
X179294852Y-105520013D01*
X179229316Y-105606797D01*
X179136010Y-105794178D01*
X179078725Y-105995511D01*
X179078723Y-105995523D01*
X179059411Y-106203945D01*
X179059411Y-106203954D01*
X178789394Y-106203954D01*
X178789394Y-106203953D01*
X178789394Y-106203946D01*
X178770059Y-105995283D01*
X178770057Y-105995272D01*
X178747800Y-105917050D01*
X178712706Y-105793708D01*
X178619294Y-105606110D01*
X178493001Y-105438872D01*
X178338128Y-105297687D01*
X178338129Y-105297687D01*
X178159954Y-105187365D01*
X178159951Y-105187364D01*
X178159950Y-105187363D01*
X177964534Y-105111658D01*
X177964532Y-105111657D01*
X177964528Y-105111656D01*
X177758538Y-105073150D01*
X177758534Y-105073150D01*
X177548966Y-105073150D01*
X177548961Y-105073150D01*
X177342971Y-105111656D01*
X177147545Y-105187365D01*
X176969370Y-105297687D01*
X176814497Y-105438874D01*
X176814495Y-105438876D01*
X176688206Y-105606110D01*
X176594794Y-105793707D01*
X176537442Y-105995272D01*
X176537440Y-105995283D01*
X176518106Y-106203946D01*
X176518106Y-106203953D01*
X164547850Y-106203953D01*
X164547850Y-104933949D01*
X164745343Y-104933949D01*
X164764073Y-105064223D01*
X164764074Y-105064226D01*
X164818747Y-105183945D01*
X164818751Y-105183951D01*
X164904937Y-105283413D01*
X164904939Y-105283415D01*
X164948911Y-105311674D01*
X165015659Y-105354570D01*
X165032671Y-105359565D01*
X165141940Y-105391649D01*
X165141942Y-105391650D01*
X165141943Y-105391650D01*
X165273558Y-105391650D01*
X165273558Y-105391649D01*
X165399841Y-105354570D01*
X165484797Y-105299971D01*
X165518587Y-105290050D01*
X165542361Y-105290050D01*
X165586555Y-105308356D01*
X166195249Y-105917050D01*
X166203374Y-105927054D01*
X166212136Y-105940465D01*
X166212137Y-105940466D01*
X166240055Y-105962195D01*
X166242952Y-105964753D01*
X166245368Y-105967169D01*
X166246815Y-105968616D01*
X166264839Y-105981486D01*
X166280908Y-105993992D01*
X166305922Y-106013461D01*
X166305927Y-106013462D01*
X166310479Y-106015927D01*
X166310422Y-106016031D01*
X166314483Y-106018121D01*
X166314535Y-106018016D01*
X166319186Y-106020289D01*
X166319189Y-106020291D01*
X166369098Y-106035149D01*
X166418327Y-106052050D01*
X166423436Y-106052903D01*
X166423416Y-106053019D01*
X166427943Y-106053679D01*
X166427958Y-106053562D01*
X166433089Y-106054202D01*
X166433093Y-106054201D01*
X166433094Y-106054202D01*
X166485117Y-106052050D01*
X167196333Y-106052050D01*
X167209159Y-106053380D01*
X167224831Y-106056666D01*
X167224831Y-106056665D01*
X167224832Y-106056666D01*
X167244597Y-106054202D01*
X167259937Y-106052289D01*
X167263804Y-106052050D01*
X167269253Y-106052050D01*
X167269258Y-106052050D01*
X167291103Y-106048404D01*
X167342763Y-106041965D01*
X167342772Y-106041960D01*
X167347728Y-106040486D01*
X167347762Y-106040602D01*
X167352110Y-106039209D01*
X167352072Y-106039096D01*
X167356968Y-106037413D01*
X167356974Y-106037413D01*
X167402773Y-106012627D01*
X167402772Y-106012626D01*
X167449528Y-105989771D01*
X167449528Y-105989770D01*
X167449532Y-105989769D01*
X167449534Y-105989766D01*
X167453747Y-105986759D01*
X167453817Y-105986857D01*
X167457482Y-105984124D01*
X167457409Y-105984030D01*
X167461492Y-105980850D01*
X167461496Y-105980849D01*
X167496765Y-105942535D01*
X167782972Y-105656328D01*
X168130945Y-105308356D01*
X168175139Y-105290050D01*
X168452913Y-105290050D01*
X168486703Y-105299972D01*
X168520269Y-105321544D01*
X168571659Y-105354570D01*
X168588671Y-105359565D01*
X168697940Y-105391649D01*
X168697942Y-105391650D01*
X168697943Y-105391650D01*
X168829558Y-105391650D01*
X168829558Y-105391649D01*
X168955841Y-105354570D01*
X169066562Y-105283414D01*
X169130319Y-105209835D01*
X169152748Y-105183951D01*
X169152749Y-105183949D01*
X169152752Y-105183946D01*
X169207426Y-105064225D01*
X169226157Y-104933950D01*
X169207426Y-104803675D01*
X169152752Y-104683954D01*
X169152748Y-104683948D01*
X169066562Y-104584486D01*
X169066560Y-104584484D01*
X168955845Y-104513332D01*
X168955836Y-104513328D01*
X168829559Y-104476250D01*
X168829557Y-104476250D01*
X168697943Y-104476250D01*
X168697941Y-104476250D01*
X168571663Y-104513328D01*
X168571654Y-104513332D01*
X168486703Y-104567928D01*
X168452913Y-104577850D01*
X168045167Y-104577850D01*
X168032341Y-104576520D01*
X168016669Y-104573234D01*
X168016667Y-104573233D01*
X167987420Y-104576880D01*
X167981562Y-104577610D01*
X167977696Y-104577850D01*
X167972242Y-104577850D01*
X167957678Y-104580280D01*
X167950395Y-104581495D01*
X167898737Y-104587934D01*
X167893778Y-104589411D01*
X167893744Y-104589299D01*
X167889387Y-104590695D01*
X167889425Y-104590805D01*
X167884528Y-104592486D01*
X167884526Y-104592486D01*
X167884526Y-104592487D01*
X167852886Y-104609609D01*
X167838726Y-104617272D01*
X167791967Y-104640131D01*
X167787750Y-104643142D01*
X167787682Y-104643046D01*
X167784020Y-104645777D01*
X167784092Y-104645869D01*
X167780003Y-104649051D01*
X167744733Y-104687364D01*
X167110555Y-105321544D01*
X167066361Y-105339850D01*
X166651139Y-105339850D01*
X166606945Y-105321544D01*
X166495236Y-105209835D01*
X166476930Y-105165641D01*
X166495236Y-105121447D01*
X166539430Y-105103141D01*
X166557038Y-105105673D01*
X166665940Y-105137649D01*
X166665942Y-105137650D01*
X166665943Y-105137650D01*
X166797558Y-105137650D01*
X166797558Y-105137649D01*
X166923841Y-105100570D01*
X167016224Y-105041198D01*
X167042276Y-105031759D01*
X167088763Y-105025965D01*
X167088772Y-105025960D01*
X167093728Y-105024486D01*
X167093762Y-105024602D01*
X167098110Y-105023209D01*
X167098072Y-105023096D01*
X167102968Y-105021413D01*
X167102974Y-105021413D01*
X167148773Y-104996627D01*
X167195532Y-104973769D01*
X167195534Y-104973766D01*
X167199747Y-104970759D01*
X167199817Y-104970857D01*
X167203482Y-104968124D01*
X167203409Y-104968030D01*
X167207492Y-104964850D01*
X167207496Y-104964849D01*
X167242765Y-104926535D01*
X167657297Y-104512003D01*
X168130945Y-104038356D01*
X168175139Y-104020050D01*
X168198913Y-104020050D01*
X168232703Y-104029972D01*
X168305078Y-104076485D01*
X168317659Y-104084570D01*
X168443940Y-104121649D01*
X168443942Y-104121650D01*
X168443943Y-104121650D01*
X168575558Y-104121650D01*
X168575558Y-104121649D01*
X168701841Y-104084570D01*
X168812562Y-104013414D01*
X168874845Y-103941535D01*
X168898748Y-103913951D01*
X168898749Y-103913949D01*
X168898752Y-103913946D01*
X168953426Y-103794225D01*
X168972157Y-103663950D01*
X176670616Y-103663950D01*
X176689506Y-103855748D01*
X176707162Y-103913951D01*
X176742670Y-104031005D01*
X176745455Y-104040184D01*
X176836300Y-104210144D01*
X176836304Y-104210150D01*
X176958569Y-104359131D01*
X177107550Y-104481396D01*
X177107552Y-104481397D01*
X177107555Y-104481399D01*
X177277515Y-104572244D01*
X177277521Y-104572247D01*
X177461950Y-104628193D01*
X177653750Y-104647084D01*
X177845550Y-104628193D01*
X178029979Y-104572247D01*
X178199950Y-104481396D01*
X178348931Y-104359131D01*
X178471196Y-104210150D01*
X178562047Y-104040179D01*
X178617993Y-103855750D01*
X178636884Y-103663950D01*
X179210616Y-103663950D01*
X179229506Y-103855748D01*
X179247162Y-103913951D01*
X179282670Y-104031005D01*
X179285455Y-104040184D01*
X179376300Y-104210144D01*
X179376304Y-104210150D01*
X179498569Y-104359131D01*
X179647550Y-104481396D01*
X179647552Y-104481397D01*
X179647555Y-104481399D01*
X179817515Y-104572244D01*
X179817521Y-104572247D01*
X180001950Y-104628193D01*
X180066787Y-104634579D01*
X180193749Y-104647084D01*
X180193749Y-104647083D01*
X180193750Y-104647084D01*
X180385550Y-104628193D01*
X180569979Y-104572247D01*
X180739950Y-104481396D01*
X180888931Y-104359131D01*
X181011196Y-104210150D01*
X181102047Y-104040179D01*
X181157993Y-103855750D01*
X181176884Y-103663950D01*
X181157993Y-103472150D01*
X181102047Y-103287721D01*
X181097747Y-103279676D01*
X181011199Y-103117755D01*
X181011195Y-103117749D01*
X180988317Y-103089872D01*
X180888931Y-102968769D01*
X180739950Y-102846504D01*
X180739944Y-102846500D01*
X180569984Y-102755655D01*
X180569981Y-102755654D01*
X180569979Y-102755653D01*
X180468302Y-102724809D01*
X180385548Y-102699706D01*
X180193750Y-102680816D01*
X180001951Y-102699706D01*
X179855370Y-102744171D01*
X179817521Y-102755653D01*
X179817520Y-102755653D01*
X179817515Y-102755655D01*
X179647555Y-102846500D01*
X179647549Y-102846504D01*
X179498569Y-102968769D01*
X179376304Y-103117749D01*
X179376300Y-103117755D01*
X179285455Y-103287715D01*
X179285453Y-103287720D01*
X179285453Y-103287721D01*
X179280747Y-103303234D01*
X179229506Y-103472151D01*
X179210616Y-103663949D01*
X179210616Y-103663950D01*
X178636884Y-103663950D01*
X178617993Y-103472150D01*
X178562047Y-103287721D01*
X178557747Y-103279676D01*
X178471199Y-103117755D01*
X178471195Y-103117749D01*
X178448317Y-103089872D01*
X178348931Y-102968769D01*
X178199950Y-102846504D01*
X178199944Y-102846500D01*
X178029984Y-102755655D01*
X178029981Y-102755654D01*
X178029979Y-102755653D01*
X177928302Y-102724809D01*
X177845548Y-102699706D01*
X177653750Y-102680816D01*
X177461951Y-102699706D01*
X177315370Y-102744171D01*
X177277521Y-102755653D01*
X177277520Y-102755653D01*
X177277515Y-102755655D01*
X177107555Y-102846500D01*
X177107549Y-102846504D01*
X176958569Y-102968769D01*
X176836304Y-103117749D01*
X176836300Y-103117755D01*
X176745455Y-103287715D01*
X176745453Y-103287720D01*
X176745453Y-103287721D01*
X176740747Y-103303234D01*
X176689506Y-103472151D01*
X176670616Y-103663949D01*
X176670616Y-103663950D01*
X168972157Y-103663950D01*
X168953426Y-103533675D01*
X168898752Y-103413954D01*
X168898748Y-103413948D01*
X168812562Y-103314486D01*
X168812560Y-103314484D01*
X168701845Y-103243332D01*
X168701836Y-103243328D01*
X168575559Y-103206250D01*
X168575557Y-103206250D01*
X168443943Y-103206250D01*
X168443941Y-103206250D01*
X168317663Y-103243328D01*
X168317654Y-103243332D01*
X168232703Y-103297928D01*
X168198913Y-103307850D01*
X168045167Y-103307850D01*
X168032341Y-103306520D01*
X168016669Y-103303234D01*
X168016667Y-103303233D01*
X167986648Y-103306976D01*
X167981562Y-103307610D01*
X167977696Y-103307850D01*
X167972242Y-103307850D01*
X167957678Y-103310280D01*
X167950395Y-103311495D01*
X167898737Y-103317934D01*
X167893778Y-103319411D01*
X167893744Y-103319299D01*
X167889387Y-103320695D01*
X167889425Y-103320805D01*
X167884528Y-103322486D01*
X167838726Y-103347272D01*
X167791967Y-103370131D01*
X167787750Y-103373142D01*
X167787682Y-103373046D01*
X167784020Y-103375777D01*
X167784092Y-103375869D01*
X167780003Y-103379051D01*
X167744733Y-103417364D01*
X166933772Y-104228325D01*
X166889578Y-104246631D01*
X166871970Y-104244099D01*
X166797559Y-104222250D01*
X166797557Y-104222250D01*
X166665943Y-104222250D01*
X166665941Y-104222250D01*
X166539663Y-104259328D01*
X166539654Y-104259332D01*
X166428939Y-104330484D01*
X166428937Y-104330486D01*
X166342751Y-104429948D01*
X166342747Y-104429954D01*
X166288074Y-104549673D01*
X166288073Y-104549676D01*
X166269343Y-104679950D01*
X166288073Y-104810223D01*
X166288074Y-104810226D01*
X166305930Y-104849326D01*
X166307637Y-104897131D01*
X166275041Y-104932141D01*
X166227236Y-104933848D01*
X166204884Y-104919483D01*
X165998250Y-104712849D01*
X165990120Y-104702837D01*
X165981366Y-104689437D01*
X165981365Y-104689436D01*
X165974314Y-104683948D01*
X165953440Y-104667701D01*
X165950550Y-104665149D01*
X165946685Y-104661284D01*
X165946684Y-104661283D01*
X165946683Y-104661282D01*
X165928660Y-104648414D01*
X165887577Y-104616438D01*
X165883028Y-104613977D01*
X165883084Y-104613872D01*
X165879015Y-104611777D01*
X165878964Y-104611884D01*
X165874313Y-104609610D01*
X165874311Y-104609609D01*
X165824401Y-104594750D01*
X165775173Y-104577850D01*
X165775172Y-104577850D01*
X165775169Y-104577849D01*
X165770063Y-104576997D01*
X165770082Y-104576880D01*
X165765556Y-104576220D01*
X165765542Y-104576338D01*
X165760410Y-104575697D01*
X165708383Y-104577850D01*
X165518587Y-104577850D01*
X165484797Y-104567928D01*
X165399845Y-104513332D01*
X165399836Y-104513328D01*
X165273559Y-104476250D01*
X165273557Y-104476250D01*
X165141943Y-104476250D01*
X165141941Y-104476250D01*
X165015663Y-104513328D01*
X165015654Y-104513332D01*
X164904939Y-104584484D01*
X164904937Y-104584486D01*
X164818751Y-104683948D01*
X164818747Y-104683954D01*
X164764074Y-104803673D01*
X164764073Y-104803676D01*
X164745343Y-104933949D01*
X164547850Y-104933949D01*
X164547850Y-104229227D01*
X164563114Y-104188299D01*
X164580752Y-104167946D01*
X164635426Y-104048225D01*
X164654157Y-103917950D01*
X164635426Y-103787675D01*
X164580752Y-103667954D01*
X164580748Y-103667948D01*
X164494562Y-103568486D01*
X164494560Y-103568484D01*
X164383845Y-103497332D01*
X164383836Y-103497328D01*
X164257559Y-103460250D01*
X164257557Y-103460250D01*
X164125943Y-103460250D01*
X164125941Y-103460250D01*
X163999663Y-103497328D01*
X163999654Y-103497332D01*
X163888939Y-103568484D01*
X163888937Y-103568486D01*
X163802751Y-103667948D01*
X163802747Y-103667954D01*
X163748074Y-103787673D01*
X163748073Y-103787676D01*
X163729343Y-103917949D01*
X163748073Y-104048223D01*
X163748074Y-104048226D01*
X163802745Y-104167941D01*
X163802747Y-104167944D01*
X163802748Y-104167946D01*
X163820385Y-104188299D01*
X163835650Y-104229227D01*
X163835650Y-106400671D01*
X163820385Y-106441599D01*
X163802750Y-106461951D01*
X163802747Y-106461956D01*
X163748074Y-106581673D01*
X163748073Y-106581676D01*
X163729343Y-106711950D01*
X158853350Y-106711950D01*
X158885599Y-106679701D01*
X158920902Y-106662032D01*
X158923558Y-106661650D01*
X158972233Y-106647357D01*
X159049841Y-106624570D01*
X159160562Y-106553414D01*
X159222845Y-106481535D01*
X159246748Y-106453951D01*
X159246749Y-106453949D01*
X159246752Y-106453946D01*
X159301426Y-106334225D01*
X159320157Y-106203950D01*
X159301426Y-106073675D01*
X159246752Y-105953954D01*
X159246748Y-105953948D01*
X159160562Y-105854486D01*
X159160560Y-105854484D01*
X159049845Y-105783332D01*
X159049836Y-105783328D01*
X158923559Y-105746250D01*
X158923557Y-105746250D01*
X158791943Y-105746250D01*
X158791941Y-105746250D01*
X158665663Y-105783328D01*
X158665654Y-105783332D01*
X158554939Y-105854484D01*
X158554937Y-105854486D01*
X158468751Y-105953948D01*
X158468747Y-105953954D01*
X158414073Y-106073675D01*
X158405220Y-106135249D01*
X158387550Y-106170547D01*
X157966555Y-106591544D01*
X157922361Y-106609850D01*
X156628587Y-106609850D01*
X156594797Y-106599928D01*
X156554496Y-106574028D01*
X156527214Y-106534735D01*
X156535708Y-106487660D01*
X156554496Y-106468872D01*
X156562687Y-106463608D01*
X156620562Y-106426414D01*
X156700445Y-106334225D01*
X156706748Y-106326951D01*
X156706749Y-106326949D01*
X156706752Y-106326946D01*
X156761426Y-106207225D01*
X156780157Y-106076950D01*
X156761426Y-105946675D01*
X156706752Y-105826954D01*
X156706748Y-105826948D01*
X156620562Y-105727486D01*
X156620560Y-105727484D01*
X156509845Y-105656332D01*
X156509836Y-105656328D01*
X156383559Y-105619250D01*
X156383557Y-105619250D01*
X156251943Y-105619250D01*
X156251941Y-105619250D01*
X156125663Y-105656328D01*
X156125654Y-105656332D01*
X156040703Y-105710928D01*
X156006913Y-105720850D01*
X155980162Y-105720850D01*
X155967337Y-105719520D01*
X155951669Y-105716235D01*
X155951666Y-105716234D01*
X155923143Y-105719790D01*
X155916566Y-105720610D01*
X155912702Y-105720850D01*
X155907242Y-105720850D01*
X155894445Y-105722985D01*
X155885388Y-105724496D01*
X155833736Y-105730934D01*
X155828777Y-105732411D01*
X155828743Y-105732299D01*
X155824388Y-105733694D01*
X155824426Y-105733804D01*
X155819530Y-105735485D01*
X155773735Y-105760267D01*
X155726964Y-105783132D01*
X155722749Y-105786142D01*
X155722681Y-105786047D01*
X155719018Y-105788778D01*
X155719090Y-105788870D01*
X155715005Y-105792049D01*
X155679744Y-105830352D01*
X155334649Y-106175448D01*
X155324642Y-106183575D01*
X155311237Y-106192333D01*
X155311235Y-106192335D01*
X155289503Y-106220254D01*
X155286944Y-106223153D01*
X155283090Y-106227007D01*
X155283081Y-106227017D01*
X155270214Y-106245039D01*
X155238241Y-106286117D01*
X155235775Y-106290675D01*
X155235672Y-106290619D01*
X155233578Y-106294686D01*
X155233683Y-106294737D01*
X155231407Y-106299391D01*
X155216550Y-106349298D01*
X155199649Y-106398530D01*
X155198797Y-106403637D01*
X155198680Y-106403617D01*
X155198021Y-106408140D01*
X155198138Y-106408155D01*
X155197497Y-106413290D01*
X155199650Y-106465317D01*
X155199650Y-112242671D01*
X155184385Y-112283599D01*
X155166750Y-112303951D01*
X155166747Y-112303956D01*
X155112074Y-112423673D01*
X155112073Y-112423676D01*
X155093343Y-112553950D01*
X133412157Y-112553950D01*
X133393426Y-112423675D01*
X133338752Y-112303954D01*
X133338748Y-112303948D01*
X133252562Y-112204486D01*
X133252560Y-112204484D01*
X133141845Y-112133332D01*
X133141836Y-112133328D01*
X133015559Y-112096250D01*
X133015557Y-112096250D01*
X132883943Y-112096250D01*
X132883941Y-112096250D01*
X132757663Y-112133328D01*
X132757654Y-112133332D01*
X132646939Y-112204484D01*
X132646937Y-112204486D01*
X132605351Y-112252479D01*
X132562575Y-112273891D01*
X132558117Y-112274050D01*
X131735601Y-112274050D01*
X131724882Y-112272302D01*
X131724822Y-112272733D01*
X131719087Y-112271932D01*
X131690422Y-112273258D01*
X131673992Y-112274017D01*
X131672577Y-112274050D01*
X131653808Y-112274050D01*
X131649544Y-112274848D01*
X131645243Y-112275346D01*
X131614559Y-112276764D01*
X131614552Y-112276766D01*
X131603025Y-112281855D01*
X131589272Y-112286114D01*
X131576890Y-112288429D01*
X131576885Y-112288431D01*
X131550760Y-112304606D01*
X131546929Y-112306625D01*
X131518828Y-112319034D01*
X131509913Y-112327948D01*
X131498627Y-112336887D01*
X131487916Y-112343519D01*
X131469402Y-112368034D01*
X131466559Y-112371302D01*
X131074118Y-112763744D01*
X131029924Y-112782050D01*
X129703604Y-112782050D01*
X129692882Y-112780301D01*
X129692822Y-112780732D01*
X129687087Y-112779931D01*
X129658527Y-112781252D01*
X129641979Y-112782017D01*
X129640564Y-112782050D01*
X129621815Y-112782050D01*
X129618467Y-112782675D01*
X129617548Y-112782847D01*
X129613250Y-112783345D01*
X129582560Y-112784764D01*
X129582558Y-112784764D01*
X129571025Y-112789856D01*
X129557272Y-112794114D01*
X129544891Y-112796428D01*
X129544884Y-112796431D01*
X129518768Y-112812601D01*
X129514937Y-112814621D01*
X129486827Y-112827033D01*
X129477910Y-112835950D01*
X129466623Y-112844889D01*
X129455918Y-112851517D01*
X129455916Y-112851519D01*
X129437405Y-112876030D01*
X129434562Y-112879298D01*
X127711324Y-114602536D01*
X127702512Y-114608879D01*
X127702773Y-114609225D01*
X127698150Y-114612716D01*
X127667748Y-114646065D01*
X127666753Y-114647108D01*
X127653492Y-114660369D01*
X127653487Y-114660375D01*
X127651038Y-114663950D01*
X127648351Y-114667341D01*
X127627653Y-114690046D01*
X127627649Y-114690053D01*
X127627052Y-114691595D01*
X127625575Y-114693404D01*
X127624605Y-114694971D01*
X127624399Y-114694843D01*
X127602568Y-114721586D01*
X127566938Y-114744485D01*
X127566937Y-114744486D01*
X127480751Y-114843948D01*
X127480747Y-114843954D01*
X127426074Y-114963673D01*
X127426073Y-114963676D01*
X127407343Y-115093949D01*
X114179250Y-115093949D01*
X114179250Y-111380218D01*
X116490050Y-111380218D01*
X116504829Y-111516109D01*
X116504830Y-111516114D01*
X116563078Y-111688985D01*
X116657128Y-111845300D01*
X116657130Y-111845302D01*
X116782586Y-111977744D01*
X116782589Y-111977746D01*
X116782590Y-111977747D01*
X116933577Y-112080120D01*
X116933581Y-112080122D01*
X117103043Y-112147641D01*
X117103051Y-112147644D01*
X117283076Y-112177158D01*
X117465237Y-112167281D01*
X117641015Y-112118477D01*
X117802193Y-112033026D01*
X117941232Y-111914924D01*
X118051633Y-111769694D01*
X118064517Y-111741847D01*
X118093643Y-111678891D01*
X118128233Y-111604127D01*
X118167450Y-111425964D01*
X118167450Y-111380218D01*
X119030050Y-111380218D01*
X119044829Y-111516109D01*
X119044830Y-111516114D01*
X119103078Y-111688985D01*
X119197128Y-111845300D01*
X119197130Y-111845302D01*
X119322586Y-111977744D01*
X119322589Y-111977746D01*
X119322590Y-111977747D01*
X119473577Y-112080120D01*
X119473581Y-112080122D01*
X119643043Y-112147641D01*
X119643051Y-112147644D01*
X119823076Y-112177158D01*
X120005237Y-112167281D01*
X120181015Y-112118477D01*
X120342193Y-112033026D01*
X120481232Y-111914924D01*
X120591633Y-111769694D01*
X120604517Y-111741847D01*
X120633643Y-111678891D01*
X120668233Y-111604127D01*
X120707450Y-111425964D01*
X120707450Y-111029949D01*
X124867343Y-111029949D01*
X124886073Y-111160223D01*
X124886074Y-111160226D01*
X124940745Y-111279941D01*
X124940747Y-111279944D01*
X124940748Y-111279946D01*
X124958385Y-111300299D01*
X124973650Y-111341227D01*
X124973650Y-113018532D01*
X124972320Y-113031358D01*
X124969034Y-113047029D01*
X124969033Y-113047032D01*
X124973410Y-113082132D01*
X124973650Y-113086001D01*
X124973650Y-113091458D01*
X124977295Y-113113302D01*
X124977295Y-113113303D01*
X124983735Y-113164964D01*
X124985213Y-113169928D01*
X124985100Y-113169961D01*
X124986495Y-113174312D01*
X124986605Y-113174275D01*
X124988287Y-113179175D01*
X125013072Y-113224973D01*
X125035932Y-113271734D01*
X125038940Y-113275946D01*
X125038843Y-113276015D01*
X125041579Y-113279684D01*
X125041672Y-113279612D01*
X125044849Y-113283695D01*
X125083163Y-113318964D01*
X126383550Y-114619352D01*
X126401220Y-114654651D01*
X126410073Y-114716224D01*
X126464747Y-114835945D01*
X126464751Y-114835951D01*
X126550937Y-114935413D01*
X126550939Y-114935415D01*
X126649077Y-114998484D01*
X126661659Y-115006570D01*
X126713947Y-115021923D01*
X126787940Y-115043649D01*
X126787942Y-115043650D01*
X126787943Y-115043650D01*
X126919558Y-115043650D01*
X126919558Y-115043649D01*
X127045841Y-115006570D01*
X127156562Y-114935414D01*
X127232915Y-114847299D01*
X127242748Y-114835951D01*
X127242749Y-114835949D01*
X127242752Y-114835946D01*
X127297426Y-114716225D01*
X127316157Y-114585950D01*
X127297426Y-114455675D01*
X127242752Y-114335954D01*
X127242748Y-114335948D01*
X127156562Y-114236486D01*
X127156560Y-114236484D01*
X127045845Y-114165332D01*
X127045836Y-114165328D01*
X126919556Y-114128249D01*
X126916893Y-114127866D01*
X126881599Y-114110197D01*
X125704156Y-112932754D01*
X125685850Y-112888560D01*
X125685850Y-112553949D01*
X125883343Y-112553949D01*
X125902073Y-112684223D01*
X125902074Y-112684226D01*
X125956747Y-112803945D01*
X125956751Y-112803951D01*
X126042937Y-112903413D01*
X126042939Y-112903415D01*
X126153654Y-112974567D01*
X126153659Y-112974570D01*
X126157198Y-112975609D01*
X126279941Y-113011650D01*
X126282598Y-113012032D01*
X126317901Y-113029702D01*
X127145550Y-113857352D01*
X127163220Y-113892651D01*
X127172073Y-113954224D01*
X127226747Y-114073945D01*
X127226751Y-114073951D01*
X127312937Y-114173413D01*
X127312939Y-114173415D01*
X127353558Y-114199519D01*
X127423659Y-114244570D01*
X127549940Y-114281649D01*
X127549942Y-114281650D01*
X127549943Y-114281650D01*
X127681558Y-114281650D01*
X127681558Y-114281649D01*
X127807841Y-114244570D01*
X127918562Y-114173414D01*
X128004752Y-114073946D01*
X128059426Y-113954225D01*
X128078157Y-113823950D01*
X128059426Y-113693675D01*
X128004752Y-113573954D01*
X128004748Y-113573948D01*
X127918562Y-113474486D01*
X127918560Y-113474484D01*
X127807845Y-113403332D01*
X127807836Y-113403328D01*
X127681555Y-113366249D01*
X127678893Y-113365866D01*
X127643598Y-113348197D01*
X126815948Y-112520547D01*
X126798278Y-112485248D01*
X126789426Y-112423675D01*
X126734752Y-112303954D01*
X126734748Y-112303948D01*
X126648562Y-112204486D01*
X126648560Y-112204484D01*
X126537845Y-112133332D01*
X126537836Y-112133328D01*
X126411559Y-112096250D01*
X126411557Y-112096250D01*
X126279943Y-112096250D01*
X126279941Y-112096250D01*
X126153663Y-112133328D01*
X126153654Y-112133332D01*
X126042939Y-112204484D01*
X126042937Y-112204486D01*
X125956751Y-112303948D01*
X125956747Y-112303954D01*
X125902074Y-112423673D01*
X125902073Y-112423676D01*
X125883343Y-112553949D01*
X125685850Y-112553949D01*
X125685850Y-111341227D01*
X125701114Y-111300299D01*
X125715280Y-111283953D01*
X139091343Y-111283953D01*
X139094019Y-111302573D01*
X139094611Y-111313798D01*
X139093789Y-111335770D01*
X139093790Y-111335775D01*
X139104108Y-111374282D01*
X139104853Y-111377916D01*
X139110073Y-111414224D01*
X139110074Y-111414227D01*
X139119369Y-111434580D01*
X139122887Y-111444366D01*
X139129500Y-111469048D01*
X139148928Y-111499969D01*
X139150896Y-111503616D01*
X139164746Y-111533942D01*
X139164749Y-111533948D01*
X139173964Y-111544582D01*
X139181736Y-111553551D01*
X139187419Y-111561224D01*
X139202908Y-111585876D01*
X139214711Y-111596032D01*
X139226321Y-111606023D01*
X139232786Y-111612466D01*
X139250938Y-111633415D01*
X139268664Y-111644806D01*
X139277582Y-111650537D01*
X139281070Y-111653139D01*
X139307488Y-111675873D01*
X139332547Y-111686805D01*
X139341330Y-111691505D01*
X139361659Y-111704570D01*
X139395271Y-111714439D01*
X139398941Y-111715773D01*
X139433951Y-111731048D01*
X139449460Y-111732795D01*
X139457575Y-111733710D01*
X139468184Y-111735848D01*
X139476894Y-111738405D01*
X139487942Y-111741650D01*
X139487943Y-111741650D01*
X139526285Y-111741650D01*
X139529786Y-111741847D01*
X139537714Y-111742740D01*
X139571057Y-111746497D01*
X139588613Y-111743174D01*
X139590913Y-111742740D01*
X139602533Y-111741650D01*
X139619557Y-111741650D01*
X139659554Y-111729905D01*
X139662537Y-111729186D01*
X139706626Y-111720845D01*
X139721342Y-111713066D01*
X139732926Y-111708361D01*
X139745841Y-111704570D01*
X139783723Y-111680224D01*
X139785986Y-111678901D01*
X139828612Y-111656374D01*
X139837844Y-111647140D01*
X139848250Y-111638755D01*
X139856562Y-111633414D01*
X139888229Y-111596867D01*
X139889730Y-111595254D01*
X140233029Y-111251956D01*
X140277224Y-111233650D01*
X145969557Y-111233650D01*
X146000756Y-111224488D01*
X146004886Y-111223575D01*
X146040183Y-111218256D01*
X146064011Y-111206780D01*
X146073507Y-111203126D01*
X146095841Y-111196570D01*
X146126003Y-111177184D01*
X146129332Y-111175322D01*
X146164494Y-111158391D01*
X146181271Y-111142823D01*
X146189984Y-111136067D01*
X146206562Y-111125414D01*
X146232221Y-111095800D01*
X146234574Y-111093364D01*
X146265636Y-111064545D01*
X146275294Y-111047815D01*
X146282185Y-111038140D01*
X146292748Y-111025951D01*
X146292748Y-111025950D01*
X146292752Y-111025946D01*
X146310420Y-110987257D01*
X146311765Y-110984647D01*
X146334624Y-110945055D01*
X146338127Y-110929706D01*
X146342207Y-110917650D01*
X146347426Y-110906225D01*
X146353951Y-110860846D01*
X146354416Y-110858338D01*
X146365326Y-110810540D01*
X146364416Y-110798405D01*
X146364877Y-110784845D01*
X146366157Y-110775950D01*
X146359155Y-110727256D01*
X146358929Y-110725185D01*
X146355015Y-110672952D01*
X146351876Y-110664957D01*
X146348194Y-110651020D01*
X146347426Y-110645675D01*
X146325608Y-110597900D01*
X146324952Y-110596354D01*
X146304608Y-110544516D01*
X146301495Y-110540613D01*
X146293506Y-110527605D01*
X146293418Y-110527414D01*
X146292752Y-110525954D01*
X146270896Y-110500731D01*
X146255770Y-110483274D01*
X146246499Y-110471649D01*
X146218582Y-110436642D01*
X146217415Y-110435846D01*
X146210052Y-110429288D01*
X146209943Y-110429415D01*
X146206563Y-110426487D01*
X146206562Y-110426486D01*
X146156434Y-110394271D01*
X146116859Y-110367289D01*
X146104581Y-110358918D01*
X146103789Y-110358674D01*
X146100025Y-110357240D01*
X146095839Y-110355328D01*
X146035669Y-110337662D01*
X145972739Y-110318250D01*
X145972737Y-110318250D01*
X140089210Y-110318250D01*
X140085708Y-110318053D01*
X140044444Y-110313404D01*
X140044443Y-110313404D01*
X140005945Y-110320688D01*
X139985078Y-110324636D01*
X139925315Y-110333644D01*
X139925313Y-110333644D01*
X139924850Y-110333868D01*
X139909378Y-110338959D01*
X139908876Y-110339054D01*
X139908874Y-110339054D01*
X139855450Y-110367289D01*
X139801012Y-110393504D01*
X139801005Y-110393510D01*
X139800629Y-110393859D01*
X139787338Y-110403288D01*
X139786889Y-110403525D01*
X139786886Y-110403527D01*
X139744156Y-110446257D01*
X139699861Y-110487357D01*
X139699608Y-110487797D01*
X139689681Y-110500731D01*
X139269655Y-110920758D01*
X139259256Y-110929139D01*
X139250939Y-110934484D01*
X139250939Y-110934485D01*
X139219262Y-110971039D01*
X139217744Y-110972669D01*
X139205853Y-110984562D01*
X139196847Y-110996762D01*
X139195322Y-110998668D01*
X139164748Y-111033953D01*
X139159899Y-111044571D01*
X139153338Y-111055715D01*
X139144519Y-111067665D01*
X139144519Y-111067666D01*
X139129151Y-111111583D01*
X139128080Y-111114244D01*
X139110074Y-111153673D01*
X139110073Y-111153678D01*
X139107903Y-111168765D01*
X139105035Y-111180502D01*
X139098950Y-111197895D01*
X139098949Y-111197900D01*
X139097335Y-111241053D01*
X139097038Y-111244333D01*
X139091343Y-111283949D01*
X139091343Y-111283953D01*
X125715280Y-111283953D01*
X125718752Y-111279946D01*
X125773426Y-111160225D01*
X125792157Y-111029950D01*
X125773426Y-110899675D01*
X125718752Y-110779954D01*
X125718748Y-110779948D01*
X125632562Y-110680486D01*
X125632560Y-110680484D01*
X125521845Y-110609332D01*
X125521836Y-110609328D01*
X125395559Y-110572250D01*
X125395557Y-110572250D01*
X125263943Y-110572250D01*
X125263941Y-110572250D01*
X125137663Y-110609328D01*
X125137654Y-110609332D01*
X125026939Y-110680484D01*
X125026937Y-110680486D01*
X124940751Y-110779948D01*
X124940747Y-110779954D01*
X124886074Y-110899673D01*
X124886073Y-110899676D01*
X124867343Y-111029949D01*
X120707450Y-111029949D01*
X120707450Y-109917682D01*
X120692671Y-109781791D01*
X120634421Y-109608913D01*
X120554449Y-109475997D01*
X120540371Y-109452599D01*
X120474420Y-109382976D01*
X120414914Y-109320156D01*
X120414910Y-109320153D01*
X120414909Y-109320152D01*
X120263922Y-109217779D01*
X120263918Y-109217777D01*
X120094456Y-109150258D01*
X120094452Y-109150257D01*
X120094449Y-109150256D01*
X119914424Y-109120742D01*
X119914423Y-109120742D01*
X119914417Y-109120741D01*
X119732269Y-109130618D01*
X119732264Y-109130618D01*
X119732263Y-109130619D01*
X119673670Y-109146886D01*
X119556483Y-109179423D01*
X119556479Y-109179425D01*
X119395306Y-109264874D01*
X119256270Y-109382974D01*
X119256268Y-109382976D01*
X119212107Y-109441068D01*
X119145864Y-109528209D01*
X119069269Y-109693766D01*
X119069267Y-109693771D01*
X119030050Y-109871938D01*
X119030050Y-111380218D01*
X118167450Y-111380218D01*
X118167450Y-109917682D01*
X118152671Y-109781791D01*
X118094421Y-109608913D01*
X118014449Y-109475997D01*
X118000371Y-109452599D01*
X117934420Y-109382976D01*
X117874914Y-109320156D01*
X117874910Y-109320153D01*
X117874909Y-109320152D01*
X117723922Y-109217779D01*
X117723918Y-109217777D01*
X117554456Y-109150258D01*
X117554452Y-109150257D01*
X117554449Y-109150256D01*
X117374424Y-109120742D01*
X117374423Y-109120742D01*
X117374417Y-109120741D01*
X117192269Y-109130618D01*
X117192264Y-109130618D01*
X117192263Y-109130619D01*
X117133670Y-109146886D01*
X117016483Y-109179423D01*
X117016479Y-109179425D01*
X116855306Y-109264874D01*
X116716270Y-109382974D01*
X116716268Y-109382976D01*
X116672107Y-109441068D01*
X116605864Y-109528209D01*
X116529269Y-109693766D01*
X116529267Y-109693771D01*
X116490050Y-109871938D01*
X116490050Y-111380218D01*
X114179250Y-111380218D01*
X114179250Y-105258949D01*
X117240110Y-105258949D01*
X117258640Y-105482574D01*
X117313725Y-105700098D01*
X117313726Y-105700102D01*
X117403863Y-105905593D01*
X117403865Y-105905596D01*
X117526591Y-106093442D01*
X117526600Y-106093454D01*
X117537472Y-106105264D01*
X117537474Y-106105264D01*
X117954943Y-105687795D01*
X117999137Y-105669489D01*
X118043331Y-105687795D01*
X118045909Y-105690534D01*
X118095270Y-105746250D01*
X118128121Y-105783332D01*
X118131155Y-105786756D01*
X118160989Y-105807349D01*
X118186961Y-105847519D01*
X118176922Y-105894289D01*
X118169679Y-105902979D01*
X117754794Y-106317863D01*
X117754795Y-106317864D01*
X117855642Y-106396357D01*
X117855649Y-106396361D01*
X118052984Y-106503152D01*
X118052991Y-106503155D01*
X118265223Y-106576015D01*
X118486552Y-106612949D01*
X118486560Y-106612950D01*
X118710940Y-106612950D01*
X118710947Y-106612949D01*
X118932276Y-106576015D01*
X119144508Y-106503155D01*
X119144515Y-106503152D01*
X119341854Y-106396359D01*
X119442703Y-106317863D01*
X119442704Y-106317863D01*
X119027819Y-105902979D01*
X119009513Y-105858785D01*
X119027819Y-105814591D01*
X119036499Y-105807356D01*
X119066345Y-105786756D01*
X119151581Y-105690544D01*
X119194588Y-105669604D01*
X119239807Y-105685208D01*
X119242556Y-105687796D01*
X119660024Y-106105265D01*
X119660025Y-106105264D01*
X119670906Y-106093445D01*
X119670912Y-106093438D01*
X119793634Y-105905597D01*
X119793636Y-105905593D01*
X119883773Y-105700102D01*
X119883774Y-105700098D01*
X119938859Y-105482574D01*
X119942225Y-105441950D01*
X145187343Y-105441950D01*
X145194341Y-105490627D01*
X145194572Y-105492739D01*
X145198485Y-105544948D01*
X145201621Y-105552940D01*
X145205303Y-105566872D01*
X145206072Y-105572221D01*
X145206072Y-105572222D01*
X145227889Y-105619994D01*
X145228545Y-105621540D01*
X145242200Y-105656332D01*
X145248894Y-105673387D01*
X145248895Y-105673388D01*
X145252007Y-105677291D01*
X145259989Y-105690286D01*
X145260745Y-105691941D01*
X145260748Y-105691947D01*
X145297729Y-105734625D01*
X145334915Y-105781255D01*
X145334916Y-105781255D01*
X145334918Y-105781258D01*
X145336081Y-105782051D01*
X145343452Y-105788615D01*
X145343562Y-105788489D01*
X145346938Y-105791414D01*
X145397065Y-105823628D01*
X145448918Y-105858981D01*
X145449704Y-105859223D01*
X145453477Y-105860659D01*
X145457654Y-105862567D01*
X145457659Y-105862570D01*
X145498052Y-105874430D01*
X145517830Y-105880237D01*
X145580762Y-105899650D01*
X145580763Y-105899650D01*
X145583943Y-105899650D01*
X145715557Y-105899650D01*
X147400285Y-105899650D01*
X147403786Y-105899847D01*
X147414192Y-105901019D01*
X147445057Y-105904497D01*
X147504436Y-105893261D01*
X147504435Y-105893261D01*
X147564177Y-105884257D01*
X147564177Y-105884256D01*
X147564183Y-105884256D01*
X147564629Y-105884040D01*
X147580142Y-105878936D01*
X147580626Y-105878845D01*
X147634049Y-105850610D01*
X147688494Y-105824391D01*
X147688858Y-105824052D01*
X147702174Y-105814605D01*
X147702612Y-105814374D01*
X147723978Y-105793007D01*
X147745345Y-105771641D01*
X147789632Y-105730549D01*
X147789635Y-105730546D01*
X147789881Y-105730120D01*
X147799816Y-105717168D01*
X148727847Y-104789137D01*
X148738245Y-104780758D01*
X148746562Y-104775414D01*
X148778247Y-104738846D01*
X148779724Y-104737259D01*
X148791647Y-104725338D01*
X148800657Y-104713129D01*
X148802179Y-104711228D01*
X148832752Y-104675946D01*
X148837602Y-104665323D01*
X148844161Y-104654182D01*
X148852980Y-104642235D01*
X148868348Y-104598312D01*
X148869405Y-104595683D01*
X148887426Y-104556225D01*
X148889595Y-104541132D01*
X148892465Y-104529389D01*
X148898550Y-104512003D01*
X148900164Y-104468827D01*
X148900460Y-104465565D01*
X148906157Y-104425950D01*
X148903478Y-104407324D01*
X148902887Y-104396098D01*
X148903710Y-104374125D01*
X148893393Y-104335624D01*
X148892645Y-104331978D01*
X148887426Y-104295674D01*
X148883907Y-104287970D01*
X148878130Y-104275321D01*
X148874612Y-104265535D01*
X148868000Y-104240853D01*
X148867998Y-104240850D01*
X148848704Y-104210144D01*
X148848568Y-104209927D01*
X148846602Y-104206281D01*
X148832752Y-104175955D01*
X148832752Y-104175954D01*
X148825811Y-104167944D01*
X148815766Y-104156351D01*
X148810085Y-104148683D01*
X148794592Y-104124025D01*
X148794589Y-104124022D01*
X148771173Y-104103871D01*
X148764706Y-104097426D01*
X148746562Y-104076486D01*
X148746561Y-104076485D01*
X148719920Y-104059362D01*
X148716429Y-104056758D01*
X148690012Y-104034027D01*
X148664956Y-104023095D01*
X148656163Y-104018390D01*
X148635841Y-104005330D01*
X148635840Y-104005329D01*
X148635839Y-104005329D01*
X148602248Y-103995465D01*
X148598553Y-103994123D01*
X148563552Y-103978853D01*
X148563550Y-103978852D01*
X148563549Y-103978852D01*
X148539920Y-103976188D01*
X148529316Y-103974051D01*
X148509557Y-103968250D01*
X148471215Y-103968250D01*
X148467714Y-103968053D01*
X148441930Y-103965148D01*
X148426443Y-103963403D01*
X148426442Y-103963403D01*
X148426441Y-103963403D01*
X148406587Y-103967160D01*
X148394967Y-103968250D01*
X148377942Y-103968250D01*
X148337940Y-103979994D01*
X148334946Y-103980715D01*
X148290876Y-103989053D01*
X148276165Y-103996828D01*
X148264578Y-104001536D01*
X148251659Y-104005330D01*
X148251656Y-104005331D01*
X148213787Y-104029666D01*
X148211496Y-104031005D01*
X148182754Y-104046197D01*
X148168888Y-104053526D01*
X148168886Y-104053527D01*
X148168887Y-104053527D01*
X148159648Y-104062765D01*
X148149251Y-104071142D01*
X148140941Y-104076483D01*
X148140938Y-104076485D01*
X148109268Y-104113031D01*
X148107748Y-104114664D01*
X147891928Y-104330486D01*
X147256471Y-104965944D01*
X147212277Y-104984250D01*
X145583940Y-104984250D01*
X145552755Y-104993406D01*
X145548607Y-104994323D01*
X145513323Y-104999642D01*
X145513316Y-104999644D01*
X145489488Y-105011118D01*
X145479983Y-105014774D01*
X145457660Y-105021329D01*
X145427498Y-105040711D01*
X145424161Y-105042578D01*
X145389007Y-105059508D01*
X145389004Y-105059510D01*
X145372232Y-105075071D01*
X145363517Y-105081830D01*
X145346938Y-105092485D01*
X145346938Y-105092486D01*
X145321269Y-105122106D01*
X145318908Y-105124549D01*
X145287867Y-105153351D01*
X145287863Y-105153356D01*
X145278206Y-105170081D01*
X145271318Y-105179754D01*
X145260748Y-105191953D01*
X145260745Y-105191957D01*
X145243080Y-105230637D01*
X145241718Y-105233280D01*
X145218877Y-105272842D01*
X145218875Y-105272846D01*
X145215372Y-105288195D01*
X145211292Y-105300247D01*
X145206074Y-105311673D01*
X145206073Y-105311674D01*
X145199546Y-105357061D01*
X145199081Y-105359565D01*
X145188174Y-105407360D01*
X145189083Y-105419493D01*
X145188622Y-105433049D01*
X145187343Y-105441950D01*
X119942225Y-105441950D01*
X119957389Y-105258949D01*
X119938859Y-105035325D01*
X119883774Y-104817801D01*
X119883773Y-104817797D01*
X119793636Y-104612306D01*
X119793634Y-104612303D01*
X119670909Y-104424458D01*
X119660024Y-104412634D01*
X119242555Y-104830103D01*
X119198361Y-104848409D01*
X119154167Y-104830103D01*
X119151592Y-104827367D01*
X119066345Y-104731144D01*
X119066342Y-104731141D01*
X119036509Y-104710549D01*
X119010537Y-104670379D01*
X119020577Y-104623609D01*
X119027819Y-104614919D01*
X119442704Y-104200035D01*
X119442703Y-104200034D01*
X119341857Y-104121542D01*
X119341850Y-104121538D01*
X119144515Y-104014747D01*
X119144508Y-104014744D01*
X118932276Y-103941884D01*
X118710947Y-103904950D01*
X118486552Y-103904950D01*
X118265223Y-103941884D01*
X118052991Y-104014744D01*
X118052984Y-104014747D01*
X117855649Y-104121538D01*
X117754794Y-104200035D01*
X118169679Y-104614919D01*
X118187985Y-104659113D01*
X118169679Y-104703307D01*
X118160991Y-104710548D01*
X118131156Y-104731142D01*
X118131153Y-104731145D01*
X118045919Y-104827354D01*
X118002910Y-104848295D01*
X117957692Y-104832691D01*
X117954943Y-104830103D01*
X117537474Y-104412634D01*
X117537473Y-104412634D01*
X117526593Y-104424454D01*
X117403865Y-104612303D01*
X117403863Y-104612306D01*
X117313726Y-104817797D01*
X117313725Y-104817801D01*
X117258640Y-105035325D01*
X117240110Y-105258949D01*
X114179250Y-105258949D01*
X114179250Y-103409950D01*
X156109343Y-103409950D01*
X156128073Y-103540223D01*
X156128074Y-103540226D01*
X156182747Y-103659945D01*
X156182751Y-103659951D01*
X156268937Y-103759413D01*
X156268939Y-103759415D01*
X156379654Y-103830567D01*
X156379659Y-103830570D01*
X156465415Y-103855750D01*
X156505940Y-103867649D01*
X156505942Y-103867650D01*
X156505943Y-103867650D01*
X156637558Y-103867650D01*
X156637558Y-103867649D01*
X156763841Y-103830570D01*
X156848797Y-103775971D01*
X156882587Y-103766050D01*
X158615041Y-103766050D01*
X158659235Y-103784356D01*
X158671893Y-103802587D01*
X158722747Y-103913945D01*
X158722751Y-103913951D01*
X158808937Y-104013413D01*
X158808939Y-104013415D01*
X158907075Y-104076483D01*
X158919659Y-104084570D01*
X159045940Y-104121649D01*
X159045942Y-104121650D01*
X159045943Y-104121650D01*
X159177558Y-104121650D01*
X159177558Y-104121649D01*
X159303841Y-104084570D01*
X159414562Y-104013414D01*
X159476845Y-103941535D01*
X159500748Y-103913951D01*
X159500749Y-103913949D01*
X159500752Y-103913946D01*
X159555426Y-103794225D01*
X159574157Y-103663950D01*
X159555426Y-103533675D01*
X159500752Y-103413954D01*
X159500748Y-103413948D01*
X159414562Y-103314486D01*
X159414560Y-103314484D01*
X159303845Y-103243332D01*
X159303836Y-103243328D01*
X159177555Y-103206248D01*
X159175144Y-103205902D01*
X159173939Y-103205187D01*
X159173268Y-103204990D01*
X159173318Y-103204818D01*
X159134006Y-103181491D01*
X159131718Y-103178222D01*
X159123364Y-103165435D01*
X159116314Y-103159948D01*
X159095440Y-103143701D01*
X159092550Y-103141149D01*
X159088685Y-103137284D01*
X159088684Y-103137283D01*
X159088683Y-103137282D01*
X159070660Y-103124414D01*
X159029577Y-103092438D01*
X159025028Y-103089977D01*
X159025084Y-103089872D01*
X159021015Y-103087777D01*
X159020964Y-103087884D01*
X159016313Y-103085610D01*
X159016311Y-103085609D01*
X158966401Y-103070750D01*
X158917173Y-103053850D01*
X158917172Y-103053850D01*
X158917169Y-103053849D01*
X158912063Y-103052997D01*
X158912082Y-103052880D01*
X158907556Y-103052220D01*
X158907542Y-103052338D01*
X158902410Y-103051697D01*
X158850383Y-103053850D01*
X156882587Y-103053850D01*
X156848797Y-103043928D01*
X156763845Y-102989332D01*
X156763836Y-102989328D01*
X156637559Y-102952250D01*
X156637557Y-102952250D01*
X156505943Y-102952250D01*
X156505941Y-102952250D01*
X156379663Y-102989328D01*
X156379654Y-102989332D01*
X156268939Y-103060484D01*
X156268937Y-103060486D01*
X156182751Y-103159948D01*
X156182747Y-103159954D01*
X156128074Y-103279673D01*
X156128073Y-103279676D01*
X156109343Y-103409950D01*
X114179250Y-103409950D01*
X114179250Y-102824004D01*
X117395850Y-102824004D01*
X117395851Y-102824008D01*
X117404721Y-102868606D01*
X117404722Y-102868608D01*
X117438516Y-102919184D01*
X117489092Y-102952978D01*
X117533693Y-102961850D01*
X119663806Y-102961849D01*
X119708408Y-102952978D01*
X119758984Y-102919184D01*
X119792778Y-102868608D01*
X119801650Y-102824007D01*
X119801650Y-101964504D01*
X176675350Y-101964504D01*
X176675351Y-101964508D01*
X176684221Y-102009106D01*
X176684222Y-102009108D01*
X176718016Y-102059684D01*
X176768592Y-102093478D01*
X176813193Y-102102350D01*
X178494306Y-102102349D01*
X178538908Y-102093478D01*
X178589484Y-102059684D01*
X178623278Y-102009108D01*
X178632150Y-101964507D01*
X178632150Y-101123953D01*
X179058106Y-101123953D01*
X179077440Y-101332616D01*
X179077442Y-101332627D01*
X179134794Y-101534191D01*
X179134794Y-101534192D01*
X179228206Y-101721790D01*
X179354499Y-101889028D01*
X179509371Y-102030212D01*
X179509370Y-102030212D01*
X179625873Y-102102348D01*
X179687550Y-102140537D01*
X179882966Y-102216242D01*
X180088966Y-102254750D01*
X180088969Y-102254750D01*
X180298531Y-102254750D01*
X180298534Y-102254750D01*
X180504534Y-102216242D01*
X180699950Y-102140537D01*
X180878128Y-102030213D01*
X181033001Y-101889028D01*
X181159294Y-101721790D01*
X181252706Y-101534192D01*
X181310058Y-101332624D01*
X181310519Y-101327650D01*
X181329394Y-101123953D01*
X181329394Y-101123946D01*
X181310059Y-100915283D01*
X181310057Y-100915272D01*
X181290772Y-100847493D01*
X181252706Y-100713708D01*
X181159294Y-100526110D01*
X181033001Y-100358872D01*
X180878128Y-100217687D01*
X180878129Y-100217687D01*
X180699954Y-100107365D01*
X180699951Y-100107364D01*
X180699950Y-100107363D01*
X180504534Y-100031658D01*
X180504532Y-100031657D01*
X180504528Y-100031656D01*
X180298538Y-99993150D01*
X180298534Y-99993150D01*
X180088966Y-99993150D01*
X180088961Y-99993150D01*
X179882971Y-100031656D01*
X179687545Y-100107365D01*
X179509370Y-100217687D01*
X179354497Y-100358874D01*
X179354495Y-100358876D01*
X179228206Y-100526110D01*
X179134794Y-100713707D01*
X179077442Y-100915272D01*
X179077440Y-100915283D01*
X179058106Y-101123946D01*
X179058106Y-101123953D01*
X178632150Y-101123953D01*
X178632149Y-100283394D01*
X178623278Y-100238792D01*
X178589484Y-100188216D01*
X178538908Y-100154422D01*
X178538907Y-100154421D01*
X178503178Y-100147314D01*
X178494307Y-100145550D01*
X178494306Y-100145550D01*
X176813195Y-100145550D01*
X176813191Y-100145551D01*
X176768593Y-100154421D01*
X176768592Y-100154422D01*
X176718016Y-100188216D01*
X176684221Y-100238792D01*
X176675350Y-100283393D01*
X176675350Y-101964504D01*
X119801650Y-101964504D01*
X119801649Y-100869950D01*
X139218343Y-100869950D01*
X139225341Y-100918627D01*
X139225572Y-100920739D01*
X139229485Y-100972948D01*
X139232621Y-100980940D01*
X139236303Y-100994872D01*
X139237072Y-101000221D01*
X139237072Y-101000222D01*
X139258889Y-101047994D01*
X139259545Y-101049540D01*
X139271997Y-101081267D01*
X139279894Y-101101387D01*
X139279895Y-101101388D01*
X139283007Y-101105291D01*
X139290989Y-101118286D01*
X139291745Y-101119941D01*
X139291748Y-101119947D01*
X139328729Y-101162625D01*
X139365915Y-101209255D01*
X139365916Y-101209255D01*
X139365918Y-101209258D01*
X139367081Y-101210051D01*
X139374452Y-101216615D01*
X139374562Y-101216489D01*
X139377936Y-101219412D01*
X139377938Y-101219414D01*
X139428065Y-101251628D01*
X139479918Y-101286981D01*
X139480704Y-101287223D01*
X139484477Y-101288659D01*
X139488654Y-101290567D01*
X139488659Y-101290570D01*
X139523443Y-101300783D01*
X139548830Y-101308237D01*
X139611762Y-101327650D01*
X139611763Y-101327650D01*
X146477557Y-101327650D01*
X146508756Y-101318488D01*
X146512886Y-101317575D01*
X146548183Y-101312256D01*
X146572011Y-101300780D01*
X146581507Y-101297126D01*
X146603841Y-101290570D01*
X146634003Y-101271184D01*
X146637332Y-101269322D01*
X146672494Y-101252391D01*
X146689271Y-101236823D01*
X146697984Y-101230067D01*
X146714562Y-101219414D01*
X146717097Y-101216489D01*
X146740219Y-101189803D01*
X146742574Y-101187364D01*
X146773636Y-101158545D01*
X146783294Y-101141815D01*
X146790185Y-101132140D01*
X146800748Y-101119951D01*
X146800748Y-101119950D01*
X146800752Y-101119946D01*
X146818420Y-101081257D01*
X146819765Y-101078647D01*
X146842624Y-101039055D01*
X146846127Y-101023706D01*
X146850207Y-101011650D01*
X146855426Y-101000225D01*
X146861951Y-100954846D01*
X146862416Y-100952338D01*
X146873326Y-100904540D01*
X146872416Y-100892405D01*
X146872877Y-100878845D01*
X146874157Y-100869950D01*
X146867155Y-100821256D01*
X146866929Y-100819185D01*
X146863015Y-100766952D01*
X146859876Y-100758957D01*
X146856194Y-100745020D01*
X146855426Y-100739675D01*
X146833608Y-100691900D01*
X146832952Y-100690354D01*
X146812608Y-100638516D01*
X146809495Y-100634613D01*
X146801506Y-100621605D01*
X146801418Y-100621414D01*
X146800752Y-100619954D01*
X146786275Y-100603247D01*
X146763770Y-100577274D01*
X146763769Y-100577273D01*
X146726582Y-100530642D01*
X146725415Y-100529846D01*
X146718052Y-100523288D01*
X146717943Y-100523415D01*
X146714563Y-100520487D01*
X146714562Y-100520486D01*
X146664434Y-100488271D01*
X146612582Y-100452919D01*
X146612581Y-100452918D01*
X146611789Y-100452674D01*
X146608025Y-100451240D01*
X146603839Y-100449328D01*
X146543669Y-100431662D01*
X146480739Y-100412250D01*
X146480737Y-100412250D01*
X139746557Y-100412250D01*
X139614943Y-100412250D01*
X139614940Y-100412250D01*
X139583755Y-100421406D01*
X139579607Y-100422323D01*
X139544323Y-100427642D01*
X139544316Y-100427644D01*
X139520488Y-100439118D01*
X139510983Y-100442774D01*
X139488660Y-100449329D01*
X139458498Y-100468711D01*
X139455161Y-100470578D01*
X139420007Y-100487508D01*
X139420004Y-100487510D01*
X139403232Y-100503071D01*
X139394517Y-100509830D01*
X139377938Y-100520485D01*
X139377938Y-100520486D01*
X139352269Y-100550106D01*
X139349908Y-100552549D01*
X139318867Y-100581351D01*
X139318863Y-100581356D01*
X139309206Y-100598081D01*
X139302318Y-100607754D01*
X139291748Y-100619953D01*
X139291745Y-100619957D01*
X139274080Y-100658637D01*
X139272718Y-100661280D01*
X139249877Y-100700842D01*
X139249875Y-100700846D01*
X139246372Y-100716195D01*
X139242292Y-100728247D01*
X139237074Y-100739673D01*
X139237073Y-100739674D01*
X139230546Y-100785061D01*
X139230081Y-100787565D01*
X139219174Y-100835360D01*
X139220083Y-100847493D01*
X139219622Y-100861049D01*
X139218343Y-100869950D01*
X119801649Y-100869950D01*
X119801649Y-100693894D01*
X119792778Y-100649292D01*
X119758984Y-100598716D01*
X119708408Y-100564922D01*
X119708407Y-100564921D01*
X119672677Y-100557814D01*
X119663807Y-100556050D01*
X119663806Y-100556050D01*
X117533695Y-100556050D01*
X117533691Y-100556051D01*
X117489093Y-100564921D01*
X117489092Y-100564922D01*
X117438516Y-100598716D01*
X117404721Y-100649292D01*
X117395850Y-100693893D01*
X117395850Y-102824004D01*
X114179250Y-102824004D01*
X114179250Y-97567950D01*
X167539343Y-97567950D01*
X167558073Y-97698223D01*
X167558074Y-97698226D01*
X167612747Y-97817945D01*
X167612751Y-97817951D01*
X167698937Y-97917413D01*
X167698939Y-97917415D01*
X167809654Y-97988567D01*
X167809659Y-97988570D01*
X167935940Y-98025649D01*
X167935942Y-98025650D01*
X167935943Y-98025650D01*
X168067558Y-98025650D01*
X168067558Y-98025649D01*
X168193841Y-97988570D01*
X168304562Y-97917414D01*
X168366845Y-97845535D01*
X168390748Y-97817951D01*
X168390749Y-97817949D01*
X168390752Y-97817946D01*
X168445426Y-97698225D01*
X168464157Y-97567950D01*
X168445426Y-97437675D01*
X168390752Y-97317954D01*
X168384190Y-97310382D01*
X168373115Y-97297599D01*
X168357850Y-97256671D01*
X168357850Y-97236004D01*
X174037850Y-97236004D01*
X174037851Y-97236008D01*
X174046721Y-97280606D01*
X174046722Y-97280608D01*
X174080516Y-97331184D01*
X174131092Y-97364978D01*
X174175693Y-97373850D01*
X176305806Y-97373849D01*
X176350408Y-97364978D01*
X176400984Y-97331184D01*
X176434778Y-97280608D01*
X176443650Y-97236007D01*
X176443649Y-96111718D01*
X178339337Y-96111718D01*
X178354212Y-96246905D01*
X178368967Y-96381004D01*
X178437489Y-96643103D01*
X178543442Y-96892432D01*
X178662968Y-97088282D01*
X178684570Y-97123678D01*
X178857859Y-97331907D01*
X178857873Y-97331921D01*
X179059615Y-97512682D01*
X179059620Y-97512686D01*
X179059625Y-97512690D01*
X179178835Y-97591558D01*
X179285565Y-97662170D01*
X179417770Y-97724145D01*
X179530854Y-97777157D01*
X179790276Y-97855205D01*
X180058296Y-97894650D01*
X180058297Y-97894650D01*
X180261388Y-97894650D01*
X180463926Y-97879826D01*
X180463928Y-97879825D01*
X180463935Y-97879825D01*
X180728361Y-97820922D01*
X180981393Y-97724145D01*
X181217638Y-97591558D01*
X181432060Y-97425987D01*
X181536220Y-97317951D01*
X181563680Y-97289467D01*
X181620090Y-97230959D01*
X181777720Y-97010633D01*
X181901590Y-96769703D01*
X181989061Y-96513306D01*
X182038268Y-96246905D01*
X182048162Y-95976178D01*
X182018533Y-95706896D01*
X181950011Y-95444797D01*
X181844058Y-95195468D01*
X181702931Y-94964224D01*
X181529639Y-94755991D01*
X181529626Y-94755978D01*
X181327884Y-94575217D01*
X181327877Y-94575212D01*
X181327875Y-94575210D01*
X181208667Y-94496343D01*
X181101934Y-94425729D01*
X180856649Y-94310744D01*
X180856644Y-94310742D01*
X180597233Y-94232697D01*
X180597219Y-94232694D01*
X180329210Y-94193250D01*
X180329204Y-94193250D01*
X180126118Y-94193250D01*
X180126112Y-94193250D01*
X179923573Y-94208073D01*
X179659136Y-94266978D01*
X179406105Y-94363755D01*
X179169859Y-94496343D01*
X178955441Y-94661912D01*
X178955432Y-94661919D01*
X178767412Y-94856937D01*
X178767405Y-94856946D01*
X178609778Y-95077268D01*
X178485909Y-95318198D01*
X178485906Y-95318204D01*
X178398442Y-95574581D01*
X178398437Y-95574602D01*
X178349233Y-95840986D01*
X178349231Y-95841007D01*
X178339337Y-96111718D01*
X176443649Y-96111718D01*
X176443649Y-95105894D01*
X176434778Y-95061292D01*
X176400984Y-95010716D01*
X176350408Y-94976922D01*
X176350407Y-94976921D01*
X176314677Y-94969814D01*
X176305807Y-94968050D01*
X176305806Y-94968050D01*
X174175695Y-94968050D01*
X174175691Y-94968051D01*
X174131093Y-94976921D01*
X174131092Y-94976922D01*
X174080516Y-95010716D01*
X174046721Y-95061292D01*
X174037850Y-95105893D01*
X174037850Y-97236004D01*
X168357850Y-97236004D01*
X168357850Y-95085227D01*
X168373114Y-95044299D01*
X168390752Y-95023946D01*
X168445426Y-94904225D01*
X168464157Y-94773950D01*
X168445426Y-94643675D01*
X168390752Y-94523954D01*
X168390748Y-94523948D01*
X168304562Y-94424486D01*
X168304560Y-94424484D01*
X168193845Y-94353332D01*
X168193836Y-94353328D01*
X168067559Y-94316250D01*
X168067557Y-94316250D01*
X167935943Y-94316250D01*
X167935941Y-94316250D01*
X167809663Y-94353328D01*
X167809654Y-94353332D01*
X167698939Y-94424484D01*
X167698937Y-94424486D01*
X167612751Y-94523948D01*
X167612747Y-94523954D01*
X167558074Y-94643673D01*
X167558073Y-94643676D01*
X167539343Y-94773949D01*
X167558073Y-94904223D01*
X167558074Y-94904226D01*
X167612745Y-95023941D01*
X167612747Y-95023944D01*
X167612748Y-95023946D01*
X167630385Y-95044299D01*
X167645650Y-95085227D01*
X167645650Y-97256671D01*
X167630385Y-97297599D01*
X167612750Y-97317951D01*
X167612747Y-97317956D01*
X167558074Y-97437673D01*
X167558073Y-97437676D01*
X167539343Y-97567950D01*
X114179250Y-97567950D01*
X114179250Y-87407950D01*
X129693343Y-87407950D01*
X129700341Y-87456627D01*
X129700572Y-87458739D01*
X129704485Y-87510948D01*
X129707621Y-87518940D01*
X129711303Y-87532872D01*
X129712072Y-87538221D01*
X129712072Y-87538222D01*
X129733889Y-87585994D01*
X129734545Y-87587540D01*
X129746997Y-87619267D01*
X129754894Y-87639387D01*
X129754895Y-87639388D01*
X129758007Y-87643291D01*
X129765989Y-87656286D01*
X129766745Y-87657941D01*
X129766748Y-87657947D01*
X129803729Y-87700625D01*
X129840915Y-87747255D01*
X129840916Y-87747255D01*
X129840918Y-87747258D01*
X129842081Y-87748051D01*
X129849452Y-87754615D01*
X129849562Y-87754489D01*
X129852936Y-87757412D01*
X129852938Y-87757414D01*
X129903065Y-87789628D01*
X129954918Y-87824981D01*
X129955704Y-87825223D01*
X129959477Y-87826659D01*
X129963654Y-87828567D01*
X129963659Y-87828570D01*
X129998443Y-87838783D01*
X130023830Y-87846237D01*
X130086762Y-87865650D01*
X130086763Y-87865650D01*
X130089943Y-87865650D01*
X130221557Y-87865650D01*
X130905550Y-87865650D01*
X130949744Y-87883956D01*
X130968050Y-87928150D01*
X130968049Y-91444484D01*
X130967852Y-91447985D01*
X130963203Y-91489254D01*
X130963203Y-91489257D01*
X130971581Y-91533538D01*
X130974438Y-91548636D01*
X130983443Y-91608383D01*
X130983662Y-91608836D01*
X130988760Y-91624326D01*
X130988855Y-91624826D01*
X130988855Y-91624827D01*
X130988856Y-91624828D01*
X130988856Y-91624830D01*
X131017089Y-91678249D01*
X131043307Y-91732690D01*
X131043310Y-91732696D01*
X131043653Y-91733065D01*
X131053086Y-91746360D01*
X131053322Y-91746806D01*
X131053328Y-91746815D01*
X131096057Y-91789544D01*
X131137152Y-91833833D01*
X131137155Y-91833836D01*
X131137589Y-91834086D01*
X131150532Y-91844018D01*
X131978749Y-92672234D01*
X131980264Y-92673860D01*
X132011938Y-92710414D01*
X132054041Y-92737472D01*
X132055662Y-92738590D01*
X132098465Y-92770180D01*
X132105719Y-92772718D01*
X132118864Y-92779131D01*
X132122659Y-92781570D01*
X132173828Y-92796594D01*
X132175333Y-92797078D01*
X132188394Y-92801648D01*
X132228697Y-92815751D01*
X132232789Y-92815903D01*
X132248066Y-92818392D01*
X132248943Y-92818650D01*
X132248944Y-92818650D01*
X132306175Y-92818650D01*
X132366575Y-92820910D01*
X132366579Y-92820909D01*
X132366581Y-92820909D01*
X132367059Y-92820781D01*
X132376176Y-92819580D01*
X132376134Y-92819286D01*
X132380552Y-92818650D01*
X132380557Y-92818650D01*
X132438460Y-92801648D01*
X132455516Y-92797078D01*
X132499843Y-92785201D01*
X132499843Y-92785200D01*
X132499849Y-92785199D01*
X132500634Y-92784705D01*
X132504287Y-92782735D01*
X132506829Y-92781573D01*
X132506841Y-92781570D01*
X132560236Y-92747255D01*
X132568679Y-92741950D01*
X136805343Y-92741950D01*
X136812341Y-92790627D01*
X136812570Y-92792727D01*
X136814584Y-92819580D01*
X136816485Y-92844948D01*
X136819621Y-92852940D01*
X136823303Y-92866872D01*
X136824072Y-92872221D01*
X136824072Y-92872222D01*
X136845889Y-92919994D01*
X136846545Y-92921540D01*
X136858997Y-92953267D01*
X136866894Y-92973387D01*
X136866895Y-92973388D01*
X136870007Y-92977291D01*
X136877989Y-92990286D01*
X136878745Y-92991941D01*
X136878748Y-92991947D01*
X136915729Y-93034625D01*
X136952915Y-93081255D01*
X136952916Y-93081255D01*
X136952918Y-93081258D01*
X136954081Y-93082051D01*
X136961452Y-93088615D01*
X136961562Y-93088489D01*
X136964936Y-93091412D01*
X136964938Y-93091414D01*
X137015065Y-93123628D01*
X137066918Y-93158981D01*
X137067704Y-93159223D01*
X137071477Y-93160659D01*
X137075654Y-93162567D01*
X137075659Y-93162570D01*
X137110443Y-93172783D01*
X137135830Y-93180237D01*
X137198762Y-93199650D01*
X137198763Y-93199650D01*
X138857557Y-93199650D01*
X138888756Y-93190488D01*
X138892886Y-93189575D01*
X138928183Y-93184256D01*
X138952011Y-93172780D01*
X138961507Y-93169126D01*
X138983841Y-93162570D01*
X139014003Y-93143184D01*
X139017332Y-93141322D01*
X139052494Y-93124391D01*
X139069271Y-93108823D01*
X139077984Y-93102067D01*
X139094562Y-93091414D01*
X139097097Y-93088489D01*
X139120219Y-93061803D01*
X139122574Y-93059364D01*
X139153636Y-93030545D01*
X139163294Y-93013815D01*
X139170185Y-93004140D01*
X139180748Y-92991951D01*
X139180748Y-92991950D01*
X139180752Y-92991946D01*
X139198420Y-92953257D01*
X139199765Y-92950647D01*
X139222624Y-92911055D01*
X139226127Y-92895706D01*
X139230207Y-92883650D01*
X139235426Y-92872225D01*
X139241951Y-92826846D01*
X139242416Y-92824338D01*
X139253326Y-92776540D01*
X139252416Y-92764405D01*
X139252877Y-92750845D01*
X139254157Y-92741950D01*
X139247155Y-92693256D01*
X139246929Y-92691185D01*
X139245413Y-92670950D01*
X173882110Y-92670950D01*
X173900640Y-92894574D01*
X173955725Y-93112098D01*
X173955726Y-93112102D01*
X174045863Y-93317593D01*
X174045865Y-93317596D01*
X174168591Y-93505442D01*
X174168600Y-93505454D01*
X174179472Y-93517264D01*
X174179474Y-93517264D01*
X174596943Y-93099795D01*
X174641137Y-93081489D01*
X174685331Y-93099795D01*
X174687909Y-93102534D01*
X174737917Y-93158981D01*
X174756748Y-93180237D01*
X174773155Y-93198756D01*
X174802989Y-93219349D01*
X174828961Y-93259519D01*
X174818922Y-93306289D01*
X174811679Y-93314979D01*
X174396794Y-93729863D01*
X174396795Y-93729864D01*
X174497642Y-93808357D01*
X174497649Y-93808361D01*
X174694984Y-93915152D01*
X174694991Y-93915155D01*
X174907223Y-93988015D01*
X175128552Y-94024949D01*
X175128560Y-94024950D01*
X175352940Y-94024950D01*
X175352947Y-94024949D01*
X175574276Y-93988015D01*
X175786508Y-93915155D01*
X175786515Y-93915152D01*
X175983854Y-93808359D01*
X176084703Y-93729863D01*
X176084704Y-93729863D01*
X175669819Y-93314979D01*
X175651513Y-93270785D01*
X175669819Y-93226591D01*
X175678499Y-93219356D01*
X175708345Y-93198756D01*
X175793581Y-93102544D01*
X175836588Y-93081604D01*
X175881807Y-93097208D01*
X175884556Y-93099796D01*
X176302024Y-93517265D01*
X176302025Y-93517264D01*
X176312906Y-93505445D01*
X176312912Y-93505438D01*
X176435634Y-93317597D01*
X176435636Y-93317593D01*
X176525773Y-93112102D01*
X176525774Y-93112098D01*
X176580859Y-92894574D01*
X176599389Y-92670950D01*
X176580859Y-92447325D01*
X176525774Y-92229801D01*
X176525773Y-92229797D01*
X176435636Y-92024306D01*
X176435634Y-92024303D01*
X176312909Y-91836458D01*
X176302024Y-91824634D01*
X175884555Y-92242103D01*
X175840361Y-92260409D01*
X175796167Y-92242103D01*
X175793592Y-92239367D01*
X175708345Y-92143144D01*
X175708342Y-92143141D01*
X175678509Y-92122549D01*
X175652537Y-92082379D01*
X175662577Y-92035609D01*
X175669819Y-92026919D01*
X176084704Y-91612035D01*
X176084703Y-91612034D01*
X175983857Y-91533542D01*
X175983850Y-91533538D01*
X175786515Y-91426747D01*
X175786508Y-91426744D01*
X175574276Y-91353884D01*
X175352947Y-91316950D01*
X175128552Y-91316950D01*
X174907223Y-91353884D01*
X174694991Y-91426744D01*
X174694984Y-91426747D01*
X174497649Y-91533538D01*
X174396794Y-91612035D01*
X174811679Y-92026919D01*
X174829985Y-92071113D01*
X174811679Y-92115307D01*
X174802991Y-92122548D01*
X174773156Y-92143142D01*
X174773153Y-92143145D01*
X174687919Y-92239354D01*
X174644910Y-92260295D01*
X174599692Y-92244691D01*
X174596943Y-92242103D01*
X174179474Y-91824634D01*
X174179473Y-91824634D01*
X174168593Y-91836454D01*
X174045865Y-92024303D01*
X174045863Y-92024306D01*
X173955726Y-92229797D01*
X173955725Y-92229801D01*
X173900640Y-92447325D01*
X173882110Y-92670950D01*
X139245413Y-92670950D01*
X139243015Y-92638952D01*
X139239876Y-92630957D01*
X139236194Y-92617020D01*
X139235426Y-92611675D01*
X139213608Y-92563900D01*
X139212952Y-92562354D01*
X139192608Y-92510516D01*
X139189495Y-92506613D01*
X139181506Y-92493605D01*
X139181418Y-92493414D01*
X139180752Y-92491954D01*
X139180121Y-92491226D01*
X139143770Y-92449274D01*
X139124052Y-92424549D01*
X139106582Y-92402642D01*
X139105415Y-92401846D01*
X139098052Y-92395288D01*
X139097943Y-92395415D01*
X139094563Y-92392487D01*
X139094562Y-92392486D01*
X139044434Y-92360271D01*
X138992582Y-92324919D01*
X138992581Y-92324918D01*
X138991789Y-92324674D01*
X138988025Y-92323240D01*
X138983839Y-92321328D01*
X138923669Y-92303662D01*
X138860739Y-92284250D01*
X138860737Y-92284250D01*
X137333557Y-92284250D01*
X137201943Y-92284250D01*
X137201940Y-92284250D01*
X137170755Y-92293406D01*
X137166607Y-92294323D01*
X137131323Y-92299642D01*
X137131316Y-92299644D01*
X137107488Y-92311118D01*
X137097983Y-92314774D01*
X137075660Y-92321329D01*
X137045498Y-92340711D01*
X137042161Y-92342578D01*
X137007007Y-92359508D01*
X137007004Y-92359510D01*
X136990232Y-92375071D01*
X136981517Y-92381830D01*
X136964938Y-92392485D01*
X136964938Y-92392486D01*
X136939269Y-92422106D01*
X136936908Y-92424549D01*
X136905867Y-92453351D01*
X136905863Y-92453356D01*
X136896206Y-92470081D01*
X136889318Y-92479754D01*
X136878748Y-92491953D01*
X136878745Y-92491957D01*
X136861080Y-92530637D01*
X136859718Y-92533280D01*
X136836877Y-92572842D01*
X136836875Y-92572846D01*
X136833372Y-92588195D01*
X136829292Y-92600247D01*
X136824074Y-92611673D01*
X136824073Y-92611674D01*
X136817546Y-92657061D01*
X136817081Y-92659565D01*
X136806174Y-92707360D01*
X136807083Y-92719493D01*
X136806622Y-92733049D01*
X136805343Y-92741950D01*
X132568679Y-92741950D01*
X132616675Y-92711792D01*
X132661131Y-92660132D01*
X132703752Y-92610946D01*
X132703752Y-92610945D01*
X132704122Y-92610519D01*
X132706039Y-92607947D01*
X132706673Y-92607212D01*
X132732698Y-92547561D01*
X132758426Y-92491225D01*
X132758426Y-92491220D01*
X132760231Y-92485072D01*
X132761575Y-92481374D01*
X132761848Y-92480750D01*
X132768789Y-92419149D01*
X132777157Y-92360950D01*
X132777157Y-92360948D01*
X132777157Y-92356480D01*
X132777201Y-92356480D01*
X132777039Y-92345928D01*
X132777297Y-92343643D01*
X132766351Y-92285795D01*
X132758426Y-92230675D01*
X132757300Y-92228209D01*
X132752739Y-92213859D01*
X132751645Y-92208074D01*
X132726006Y-92159564D01*
X132725237Y-92158002D01*
X132703752Y-92110954D01*
X132699622Y-92106187D01*
X132691602Y-92094466D01*
X132687174Y-92086089D01*
X132672198Y-92071113D01*
X132650735Y-92049650D01*
X132649235Y-92048039D01*
X132617562Y-92011486D01*
X132617559Y-92011484D01*
X132609242Y-92006138D01*
X132598841Y-91997756D01*
X131901756Y-91300670D01*
X131883450Y-91256476D01*
X131883450Y-88296953D01*
X138711697Y-88296953D01*
X138732264Y-88518921D01*
X138732266Y-88518932D01*
X138736836Y-88534992D01*
X138793274Y-88733349D01*
X138892643Y-88932908D01*
X138892644Y-88932909D01*
X138892646Y-88932913D01*
X139026979Y-89110800D01*
X139026984Y-89110805D01*
X139026988Y-89110810D01*
X139191734Y-89260996D01*
X139191733Y-89260996D01*
X139381270Y-89378353D01*
X139381271Y-89378354D01*
X139381274Y-89378355D01*
X139589151Y-89458886D01*
X139808285Y-89499850D01*
X139808288Y-89499850D01*
X140031212Y-89499850D01*
X140031215Y-89499850D01*
X140250349Y-89458886D01*
X140458226Y-89378355D01*
X140647765Y-89260997D01*
X140812512Y-89110810D01*
X140946857Y-88932908D01*
X141046226Y-88733349D01*
X141107234Y-88518929D01*
X141107235Y-88518921D01*
X141127803Y-88296953D01*
X142211697Y-88296953D01*
X142232264Y-88518921D01*
X142232266Y-88518932D01*
X142236836Y-88534992D01*
X142293274Y-88733349D01*
X142392643Y-88932908D01*
X142392644Y-88932909D01*
X142392646Y-88932913D01*
X142526979Y-89110800D01*
X142526984Y-89110805D01*
X142526988Y-89110810D01*
X142691734Y-89260996D01*
X142691733Y-89260996D01*
X142881270Y-89378353D01*
X142881271Y-89378354D01*
X142881274Y-89378355D01*
X143089151Y-89458886D01*
X143308285Y-89499850D01*
X143308288Y-89499850D01*
X143531212Y-89499850D01*
X143531215Y-89499850D01*
X143750349Y-89458886D01*
X143958226Y-89378355D01*
X143984634Y-89362004D01*
X145716850Y-89362004D01*
X145716851Y-89362008D01*
X145725721Y-89406606D01*
X145725722Y-89406608D01*
X145759516Y-89457184D01*
X145810092Y-89490978D01*
X145854693Y-89499850D01*
X147984806Y-89499849D01*
X148029408Y-89490978D01*
X148079984Y-89457184D01*
X148113778Y-89406608D01*
X148122650Y-89362007D01*
X148122650Y-88296953D01*
X149633697Y-88296953D01*
X149654264Y-88518921D01*
X149654266Y-88518932D01*
X149658836Y-88534992D01*
X149715274Y-88733349D01*
X149814643Y-88932908D01*
X149814644Y-88932909D01*
X149814646Y-88932913D01*
X149948979Y-89110800D01*
X149948984Y-89110805D01*
X149948988Y-89110810D01*
X150113734Y-89260996D01*
X150113733Y-89260996D01*
X150303270Y-89378353D01*
X150303271Y-89378354D01*
X150303274Y-89378355D01*
X150511151Y-89458886D01*
X150730285Y-89499850D01*
X150730288Y-89499850D01*
X150953212Y-89499850D01*
X150953215Y-89499850D01*
X151172349Y-89458886D01*
X151380226Y-89378355D01*
X151569765Y-89260997D01*
X151734512Y-89110810D01*
X151868857Y-88932908D01*
X151968226Y-88733349D01*
X152029234Y-88518929D01*
X152029235Y-88518921D01*
X152049803Y-88296953D01*
X153133697Y-88296953D01*
X153154264Y-88518921D01*
X153154266Y-88518932D01*
X153158836Y-88534992D01*
X153215274Y-88733349D01*
X153314643Y-88932908D01*
X153314644Y-88932909D01*
X153314646Y-88932913D01*
X153448979Y-89110800D01*
X153448984Y-89110805D01*
X153448988Y-89110810D01*
X153613734Y-89260996D01*
X153613733Y-89260996D01*
X153803270Y-89378353D01*
X153803271Y-89378354D01*
X153803274Y-89378355D01*
X154011151Y-89458886D01*
X154230285Y-89499850D01*
X154230288Y-89499850D01*
X154453212Y-89499850D01*
X154453215Y-89499850D01*
X154672349Y-89458886D01*
X154880226Y-89378355D01*
X154906634Y-89362004D01*
X156638850Y-89362004D01*
X156638851Y-89362008D01*
X156647721Y-89406606D01*
X156647722Y-89406608D01*
X156681516Y-89457184D01*
X156732092Y-89490978D01*
X156776693Y-89499850D01*
X158906806Y-89499849D01*
X158951408Y-89490978D01*
X159001984Y-89457184D01*
X159035778Y-89406608D01*
X159044650Y-89362007D01*
X159044650Y-89170953D01*
X174032697Y-89170953D01*
X174053264Y-89392921D01*
X174053266Y-89392932D01*
X174114274Y-89607349D01*
X174213643Y-89806908D01*
X174213644Y-89806909D01*
X174213646Y-89806913D01*
X174347979Y-89984800D01*
X174347984Y-89984805D01*
X174347988Y-89984810D01*
X174512734Y-90134996D01*
X174512733Y-90134996D01*
X174702270Y-90252353D01*
X174702271Y-90252354D01*
X174702274Y-90252355D01*
X174910151Y-90332886D01*
X175129285Y-90373850D01*
X175129288Y-90373850D01*
X175352212Y-90373850D01*
X175352215Y-90373850D01*
X175571349Y-90332886D01*
X175779226Y-90252355D01*
X175968765Y-90134997D01*
X176133512Y-89984810D01*
X176267857Y-89806908D01*
X176367226Y-89607349D01*
X176428234Y-89392929D01*
X176428235Y-89392921D01*
X176448803Y-89170953D01*
X176448803Y-89170946D01*
X176428235Y-88948978D01*
X176428233Y-88948967D01*
X176418362Y-88914275D01*
X176367226Y-88734551D01*
X176267857Y-88534992D01*
X176267854Y-88534988D01*
X176267853Y-88534986D01*
X176133520Y-88357099D01*
X176133515Y-88357094D01*
X176133512Y-88357090D01*
X175968765Y-88206903D01*
X175968766Y-88206903D01*
X175779229Y-88089546D01*
X175779228Y-88089545D01*
X175571346Y-88009013D01*
X175352217Y-87968050D01*
X175352215Y-87968050D01*
X175129285Y-87968050D01*
X175129282Y-87968050D01*
X174910153Y-88009013D01*
X174702271Y-88089545D01*
X174702270Y-88089546D01*
X174512733Y-88206903D01*
X174347986Y-88357092D01*
X174347979Y-88357099D01*
X174213646Y-88534986D01*
X174213643Y-88534992D01*
X174114274Y-88734550D01*
X174053266Y-88948967D01*
X174053264Y-88948978D01*
X174032697Y-89170946D01*
X174032697Y-89170953D01*
X159044650Y-89170953D01*
X159044649Y-87231894D01*
X159035778Y-87187292D01*
X159001984Y-87136716D01*
X158951408Y-87102922D01*
X158951407Y-87102921D01*
X158915678Y-87095814D01*
X158906807Y-87094050D01*
X158906806Y-87094050D01*
X156776695Y-87094050D01*
X156776691Y-87094051D01*
X156732093Y-87102921D01*
X156732092Y-87102922D01*
X156681516Y-87136716D01*
X156647721Y-87187292D01*
X156638850Y-87231893D01*
X156638850Y-89362004D01*
X154906634Y-89362004D01*
X155069765Y-89260997D01*
X155234512Y-89110810D01*
X155368857Y-88932908D01*
X155468226Y-88733349D01*
X155529234Y-88518929D01*
X155529235Y-88518921D01*
X155549803Y-88296953D01*
X155549803Y-88296946D01*
X155529235Y-88074978D01*
X155529233Y-88074967D01*
X155519362Y-88040275D01*
X155468226Y-87860551D01*
X155368857Y-87660992D01*
X155368854Y-87660988D01*
X155368853Y-87660986D01*
X155234520Y-87483099D01*
X155234515Y-87483094D01*
X155234512Y-87483090D01*
X155069765Y-87332903D01*
X155069766Y-87332903D01*
X154880229Y-87215546D01*
X154880228Y-87215545D01*
X154672346Y-87135013D01*
X154453217Y-87094050D01*
X154453215Y-87094050D01*
X154230285Y-87094050D01*
X154230282Y-87094050D01*
X154011153Y-87135013D01*
X153803271Y-87215545D01*
X153803270Y-87215546D01*
X153613733Y-87332903D01*
X153448986Y-87483092D01*
X153448979Y-87483099D01*
X153314646Y-87660986D01*
X153314643Y-87660992D01*
X153215274Y-87860550D01*
X153154266Y-88074967D01*
X153154264Y-88074978D01*
X153133697Y-88296946D01*
X153133697Y-88296953D01*
X152049803Y-88296953D01*
X152049803Y-88296946D01*
X152029235Y-88074978D01*
X152029233Y-88074967D01*
X152019362Y-88040275D01*
X151968226Y-87860551D01*
X151868857Y-87660992D01*
X151868854Y-87660988D01*
X151868853Y-87660986D01*
X151734520Y-87483099D01*
X151734515Y-87483094D01*
X151734512Y-87483090D01*
X151569765Y-87332903D01*
X151569766Y-87332903D01*
X151380229Y-87215546D01*
X151380228Y-87215545D01*
X151172346Y-87135013D01*
X150953217Y-87094050D01*
X150953215Y-87094050D01*
X150730285Y-87094050D01*
X150730282Y-87094050D01*
X150511153Y-87135013D01*
X150303271Y-87215545D01*
X150303270Y-87215546D01*
X150113733Y-87332903D01*
X149948986Y-87483092D01*
X149948979Y-87483099D01*
X149814646Y-87660986D01*
X149814643Y-87660992D01*
X149715274Y-87860550D01*
X149654266Y-88074967D01*
X149654264Y-88074978D01*
X149633697Y-88296946D01*
X149633697Y-88296953D01*
X148122650Y-88296953D01*
X148122649Y-87231894D01*
X148113778Y-87187292D01*
X148079984Y-87136716D01*
X148029408Y-87102922D01*
X148029407Y-87102921D01*
X147993677Y-87095814D01*
X147984807Y-87094050D01*
X147984806Y-87094050D01*
X145854695Y-87094050D01*
X145854691Y-87094051D01*
X145810093Y-87102921D01*
X145810092Y-87102922D01*
X145759516Y-87136716D01*
X145725721Y-87187292D01*
X145716850Y-87231893D01*
X145716850Y-89362004D01*
X143984634Y-89362004D01*
X144147765Y-89260997D01*
X144312512Y-89110810D01*
X144446857Y-88932908D01*
X144546226Y-88733349D01*
X144607234Y-88518929D01*
X144607235Y-88518921D01*
X144627803Y-88296953D01*
X144627803Y-88296946D01*
X144607235Y-88074978D01*
X144607233Y-88074967D01*
X144597362Y-88040275D01*
X144546226Y-87860551D01*
X144446857Y-87660992D01*
X144446854Y-87660988D01*
X144446853Y-87660986D01*
X144312520Y-87483099D01*
X144312515Y-87483094D01*
X144312512Y-87483090D01*
X144147765Y-87332903D01*
X144147766Y-87332903D01*
X143958229Y-87215546D01*
X143958228Y-87215545D01*
X143750346Y-87135013D01*
X143531217Y-87094050D01*
X143531215Y-87094050D01*
X143308285Y-87094050D01*
X143308282Y-87094050D01*
X143089153Y-87135013D01*
X142881271Y-87215545D01*
X142881270Y-87215546D01*
X142691733Y-87332903D01*
X142526986Y-87483092D01*
X142526979Y-87483099D01*
X142392646Y-87660986D01*
X142392643Y-87660992D01*
X142293274Y-87860550D01*
X142232266Y-88074967D01*
X142232264Y-88074978D01*
X142211697Y-88296946D01*
X142211697Y-88296953D01*
X141127803Y-88296953D01*
X141127803Y-88296946D01*
X141107235Y-88074978D01*
X141107233Y-88074967D01*
X141097362Y-88040275D01*
X141046226Y-87860551D01*
X140946857Y-87660992D01*
X140946854Y-87660988D01*
X140946853Y-87660986D01*
X140812520Y-87483099D01*
X140812515Y-87483094D01*
X140812512Y-87483090D01*
X140647765Y-87332903D01*
X140647766Y-87332903D01*
X140458229Y-87215546D01*
X140458228Y-87215545D01*
X140250346Y-87135013D01*
X140031217Y-87094050D01*
X140031215Y-87094050D01*
X139808285Y-87094050D01*
X139808282Y-87094050D01*
X139589153Y-87135013D01*
X139381271Y-87215545D01*
X139381270Y-87215546D01*
X139191733Y-87332903D01*
X139026986Y-87483092D01*
X139026979Y-87483099D01*
X138892646Y-87660986D01*
X138892643Y-87660992D01*
X138793274Y-87860550D01*
X138732266Y-88074967D01*
X138732264Y-88074978D01*
X138711697Y-88296946D01*
X138711697Y-88296953D01*
X131883450Y-88296953D01*
X131883450Y-87928150D01*
X131901756Y-87883956D01*
X131945950Y-87865650D01*
X132761557Y-87865650D01*
X132792756Y-87856488D01*
X132796886Y-87855575D01*
X132832183Y-87850256D01*
X132856011Y-87838780D01*
X132865507Y-87835126D01*
X132887841Y-87828570D01*
X132918003Y-87809184D01*
X132921332Y-87807322D01*
X132956494Y-87790391D01*
X132973271Y-87774823D01*
X132981984Y-87768067D01*
X132998562Y-87757414D01*
X133001097Y-87754489D01*
X133024219Y-87727803D01*
X133026574Y-87725364D01*
X133057636Y-87696545D01*
X133067294Y-87679815D01*
X133074185Y-87670140D01*
X133084748Y-87657951D01*
X133084748Y-87657950D01*
X133084752Y-87657946D01*
X133102420Y-87619257D01*
X133103765Y-87616647D01*
X133126624Y-87577055D01*
X133130127Y-87561706D01*
X133134207Y-87549650D01*
X133139426Y-87538225D01*
X133145951Y-87492846D01*
X133146416Y-87490338D01*
X133157326Y-87442540D01*
X133156416Y-87430405D01*
X133156877Y-87416845D01*
X133158157Y-87407950D01*
X133151155Y-87359256D01*
X133150929Y-87357185D01*
X133147015Y-87304952D01*
X133143876Y-87296957D01*
X133140194Y-87283020D01*
X133139426Y-87277675D01*
X133117608Y-87229900D01*
X133116952Y-87228354D01*
X133096608Y-87176516D01*
X133093495Y-87172613D01*
X133085506Y-87159605D01*
X133085418Y-87159414D01*
X133084752Y-87157954D01*
X133070275Y-87141247D01*
X133047770Y-87115274D01*
X133047769Y-87115274D01*
X133010582Y-87068642D01*
X133009415Y-87067846D01*
X133002052Y-87061288D01*
X133001943Y-87061415D01*
X132998563Y-87058487D01*
X132998562Y-87058486D01*
X132948434Y-87026271D01*
X132896582Y-86990919D01*
X132896581Y-86990918D01*
X132895789Y-86990674D01*
X132892025Y-86989240D01*
X132887839Y-86987328D01*
X132827669Y-86969662D01*
X132764739Y-86950250D01*
X132764737Y-86950250D01*
X131494737Y-86950250D01*
X131484363Y-86950250D01*
X131470456Y-86948683D01*
X131460340Y-86946374D01*
X131460339Y-86946374D01*
X131454771Y-86946791D01*
X131409771Y-86950163D01*
X131407452Y-86950250D01*
X130089940Y-86950250D01*
X130058755Y-86959406D01*
X130054607Y-86960323D01*
X130019323Y-86965642D01*
X130019316Y-86965644D01*
X129995488Y-86977118D01*
X129985983Y-86980774D01*
X129963660Y-86987329D01*
X129933498Y-87006711D01*
X129930161Y-87008578D01*
X129895007Y-87025508D01*
X129895004Y-87025510D01*
X129878232Y-87041071D01*
X129869517Y-87047830D01*
X129852938Y-87058485D01*
X129852938Y-87058486D01*
X129827269Y-87088106D01*
X129824908Y-87090549D01*
X129793867Y-87119351D01*
X129793863Y-87119356D01*
X129784206Y-87136081D01*
X129777318Y-87145754D01*
X129766748Y-87157953D01*
X129766745Y-87157957D01*
X129749080Y-87196637D01*
X129747718Y-87199280D01*
X129724877Y-87238842D01*
X129724875Y-87238846D01*
X129721372Y-87254195D01*
X129717292Y-87266247D01*
X129712074Y-87277673D01*
X129712073Y-87277674D01*
X129705546Y-87323061D01*
X129705081Y-87325565D01*
X129694174Y-87373360D01*
X129695083Y-87385493D01*
X129694622Y-87399049D01*
X129693343Y-87407950D01*
X114179250Y-87407950D01*
X114179250Y-85375950D01*
X157887343Y-85375950D01*
X157906073Y-85506223D01*
X157906074Y-85506226D01*
X157960747Y-85625945D01*
X157960751Y-85625951D01*
X158046937Y-85725413D01*
X158046939Y-85725415D01*
X158047112Y-85725526D01*
X158157659Y-85796570D01*
X158283940Y-85833649D01*
X158283942Y-85833650D01*
X158283943Y-85833650D01*
X158385723Y-85833650D01*
X158429917Y-85851956D01*
X158620337Y-86042376D01*
X158626683Y-86051193D01*
X158627030Y-86050932D01*
X158630517Y-86055551D01*
X158648031Y-86071516D01*
X158663886Y-86085970D01*
X158664887Y-86086926D01*
X158678169Y-86100208D01*
X158681753Y-86102663D01*
X158685141Y-86105347D01*
X158707849Y-86126048D01*
X158719599Y-86130599D01*
X158732340Y-86137316D01*
X158742734Y-86144436D01*
X158772634Y-86151468D01*
X158776774Y-86152750D01*
X158789456Y-86157662D01*
X158805428Y-86163850D01*
X158818032Y-86163850D01*
X158832339Y-86165509D01*
X158844599Y-86168393D01*
X158866810Y-86165294D01*
X158875019Y-86164150D01*
X158879342Y-86163850D01*
X163541924Y-86163850D01*
X163586118Y-86182156D01*
X163715588Y-86311626D01*
X163733894Y-86355820D01*
X163733258Y-86364713D01*
X163729343Y-86391948D01*
X163748073Y-86522223D01*
X163748074Y-86522226D01*
X163802747Y-86641945D01*
X163802751Y-86641951D01*
X163888937Y-86741413D01*
X163888939Y-86741415D01*
X163999654Y-86812567D01*
X163999659Y-86812570D01*
X164125940Y-86849649D01*
X164125942Y-86849650D01*
X164125943Y-86849650D01*
X164257558Y-86849650D01*
X164257558Y-86849649D01*
X164383841Y-86812570D01*
X164494562Y-86741414D01*
X164580752Y-86641946D01*
X164635426Y-86522225D01*
X164654157Y-86391950D01*
X164635426Y-86261675D01*
X164580752Y-86141954D01*
X164580748Y-86141948D01*
X164494562Y-86042486D01*
X164494560Y-86042484D01*
X164383845Y-85971332D01*
X164383836Y-85971328D01*
X164257559Y-85934250D01*
X164257557Y-85934250D01*
X164155776Y-85934250D01*
X164111582Y-85915944D01*
X163921164Y-85725526D01*
X163914823Y-85716712D01*
X163914476Y-85716975D01*
X163910984Y-85712351D01*
X163877622Y-85681937D01*
X163876577Y-85680939D01*
X163866588Y-85670950D01*
X173882110Y-85670950D01*
X173900640Y-85894574D01*
X173955725Y-86112098D01*
X173955726Y-86112102D01*
X174045863Y-86317593D01*
X174045865Y-86317596D01*
X174168591Y-86505442D01*
X174168600Y-86505454D01*
X174179472Y-86517264D01*
X174179474Y-86517264D01*
X174596943Y-86099795D01*
X174641137Y-86081489D01*
X174685331Y-86099795D01*
X174687909Y-86102534D01*
X174773155Y-86198756D01*
X174802989Y-86219349D01*
X174828961Y-86259519D01*
X174818922Y-86306289D01*
X174811679Y-86314979D01*
X174396794Y-86729863D01*
X174396795Y-86729864D01*
X174497642Y-86808357D01*
X174497649Y-86808361D01*
X174694984Y-86915152D01*
X174694991Y-86915155D01*
X174907223Y-86988015D01*
X175128552Y-87024949D01*
X175128560Y-87024950D01*
X175352940Y-87024950D01*
X175352947Y-87024949D01*
X175574276Y-86988015D01*
X175786508Y-86915155D01*
X175786515Y-86915152D01*
X175983854Y-86808359D01*
X176084703Y-86729863D01*
X176084704Y-86729863D01*
X175669819Y-86314979D01*
X175651513Y-86270785D01*
X175669819Y-86226591D01*
X175678499Y-86219356D01*
X175708345Y-86198756D01*
X175793581Y-86102544D01*
X175836588Y-86081604D01*
X175881807Y-86097208D01*
X175884556Y-86099796D01*
X176302024Y-86517265D01*
X176302025Y-86517264D01*
X176312906Y-86505445D01*
X176312912Y-86505438D01*
X176435634Y-86317597D01*
X176435636Y-86317593D01*
X176525773Y-86112102D01*
X176525774Y-86112098D01*
X176580859Y-85894574D01*
X176599389Y-85670949D01*
X176580859Y-85447325D01*
X176525774Y-85229801D01*
X176525773Y-85229797D01*
X176435636Y-85024306D01*
X176435634Y-85024303D01*
X176312909Y-84836458D01*
X176302024Y-84824634D01*
X175884555Y-85242103D01*
X175840361Y-85260409D01*
X175796167Y-85242103D01*
X175793592Y-85239367D01*
X175708345Y-85143144D01*
X175708342Y-85143141D01*
X175678509Y-85122549D01*
X175652537Y-85082379D01*
X175662577Y-85035609D01*
X175669819Y-85026919D01*
X176084704Y-84612035D01*
X176084703Y-84612034D01*
X175983857Y-84533542D01*
X175983850Y-84533538D01*
X175786515Y-84426747D01*
X175786508Y-84426744D01*
X175574276Y-84353884D01*
X175352947Y-84316950D01*
X175128552Y-84316950D01*
X174907223Y-84353884D01*
X174694991Y-84426744D01*
X174694984Y-84426747D01*
X174497649Y-84533538D01*
X174396794Y-84612035D01*
X174811679Y-85026919D01*
X174829985Y-85071113D01*
X174811679Y-85115307D01*
X174802991Y-85122548D01*
X174773156Y-85143142D01*
X174773153Y-85143145D01*
X174687919Y-85239354D01*
X174644910Y-85260295D01*
X174599692Y-85244691D01*
X174596943Y-85242103D01*
X174179474Y-84824634D01*
X174179473Y-84824634D01*
X174168593Y-84836454D01*
X174045865Y-85024303D01*
X174045863Y-85024306D01*
X173955726Y-85229797D01*
X173955725Y-85229801D01*
X173900640Y-85447325D01*
X173882110Y-85670950D01*
X163866588Y-85670950D01*
X163863329Y-85667691D01*
X163859750Y-85665239D01*
X163856356Y-85662550D01*
X163843151Y-85650513D01*
X163833651Y-85641852D01*
X163833649Y-85641851D01*
X163833647Y-85641849D01*
X163821901Y-85637299D01*
X163809158Y-85630582D01*
X163798769Y-85623466D01*
X163798765Y-85623463D01*
X163768860Y-85616430D01*
X163764722Y-85615148D01*
X163736073Y-85604050D01*
X163736072Y-85604050D01*
X163723472Y-85604050D01*
X163709164Y-85602390D01*
X163696901Y-85599506D01*
X163696900Y-85599506D01*
X163666474Y-85603750D01*
X163662151Y-85604050D01*
X159675032Y-85604050D01*
X159630838Y-85585744D01*
X159612532Y-85541550D01*
X159630838Y-85497356D01*
X159641242Y-85488972D01*
X159668560Y-85471415D01*
X159668559Y-85471415D01*
X159668562Y-85471414D01*
X159751282Y-85375951D01*
X159754748Y-85371951D01*
X159754749Y-85371949D01*
X159754752Y-85371946D01*
X159809426Y-85252225D01*
X159828157Y-85121950D01*
X159824240Y-85094714D01*
X159836069Y-85048367D01*
X159841902Y-85041634D01*
X160032179Y-84851358D01*
X160040990Y-84845023D01*
X160040727Y-84844674D01*
X160045346Y-84841185D01*
X160045349Y-84841184D01*
X160075760Y-84807823D01*
X160076717Y-84806820D01*
X160090008Y-84793531D01*
X160092459Y-84789950D01*
X160095150Y-84786554D01*
X160115848Y-84763851D01*
X160120400Y-84752099D01*
X160127113Y-84739363D01*
X160134236Y-84728966D01*
X160141271Y-84699050D01*
X160142543Y-84694941D01*
X160153650Y-84666272D01*
X160153650Y-84653668D01*
X160155310Y-84639358D01*
X160158193Y-84627100D01*
X160153950Y-84596681D01*
X160153650Y-84592358D01*
X160153650Y-81787821D01*
X160171956Y-81743627D01*
X160198005Y-81728012D01*
X160249979Y-81712247D01*
X160419950Y-81621396D01*
X160568931Y-81499131D01*
X160691196Y-81350150D01*
X160782047Y-81180179D01*
X160837993Y-80995750D01*
X160856884Y-80803950D01*
X161430616Y-80803950D01*
X161449506Y-80995748D01*
X161474609Y-81078502D01*
X161505225Y-81179428D01*
X161505455Y-81180184D01*
X161596300Y-81350144D01*
X161596304Y-81350150D01*
X161718569Y-81499131D01*
X161867550Y-81621396D01*
X161867552Y-81621397D01*
X161867555Y-81621399D01*
X162037515Y-81712244D01*
X162037521Y-81712247D01*
X162221950Y-81768193D01*
X162413750Y-81787084D01*
X162605550Y-81768193D01*
X162789979Y-81712247D01*
X162959950Y-81621396D01*
X163108931Y-81499131D01*
X163231196Y-81350150D01*
X163322047Y-81180179D01*
X163377993Y-80995750D01*
X163396884Y-80803950D01*
X163970616Y-80803950D01*
X163989506Y-80995748D01*
X164014609Y-81078502D01*
X164045225Y-81179428D01*
X164045455Y-81180184D01*
X164136300Y-81350144D01*
X164136304Y-81350150D01*
X164258569Y-81499131D01*
X164407550Y-81621396D01*
X164407552Y-81621397D01*
X164407555Y-81621399D01*
X164577515Y-81712244D01*
X164577521Y-81712247D01*
X164761950Y-81768193D01*
X164815609Y-81773478D01*
X164953749Y-81787084D01*
X164953749Y-81787083D01*
X164953750Y-81787084D01*
X165145550Y-81768193D01*
X165329979Y-81712247D01*
X165499950Y-81621396D01*
X165648931Y-81499131D01*
X165771196Y-81350150D01*
X165862047Y-81180179D01*
X165917993Y-80995750D01*
X165936884Y-80803950D01*
X166510616Y-80803950D01*
X166529506Y-80995748D01*
X166554609Y-81078502D01*
X166585225Y-81179428D01*
X166585455Y-81180184D01*
X166676300Y-81350144D01*
X166676304Y-81350150D01*
X166798569Y-81499131D01*
X166947550Y-81621396D01*
X166947552Y-81621397D01*
X166947555Y-81621399D01*
X167117515Y-81712244D01*
X167117521Y-81712247D01*
X167301950Y-81768193D01*
X167493750Y-81787084D01*
X167685550Y-81768193D01*
X167869979Y-81712247D01*
X168039950Y-81621396D01*
X168188931Y-81499131D01*
X168311196Y-81350150D01*
X168402047Y-81180179D01*
X168457993Y-80995750D01*
X168476884Y-80803950D01*
X169050616Y-80803950D01*
X169069506Y-80995748D01*
X169094609Y-81078502D01*
X169125225Y-81179428D01*
X169125455Y-81180184D01*
X169216300Y-81350144D01*
X169216304Y-81350150D01*
X169338569Y-81499131D01*
X169487550Y-81621396D01*
X169487552Y-81621397D01*
X169487555Y-81621399D01*
X169657515Y-81712244D01*
X169657521Y-81712247D01*
X169841950Y-81768193D01*
X169895609Y-81773478D01*
X170033749Y-81787084D01*
X170033749Y-81787083D01*
X170033750Y-81787084D01*
X170225550Y-81768193D01*
X170409979Y-81712247D01*
X170579950Y-81621396D01*
X170728931Y-81499131D01*
X170851196Y-81350150D01*
X170942047Y-81180179D01*
X170997993Y-80995750D01*
X171016884Y-80803950D01*
X171590616Y-80803950D01*
X171609506Y-80995748D01*
X171634609Y-81078502D01*
X171665225Y-81179428D01*
X171665455Y-81180184D01*
X171756300Y-81350144D01*
X171756304Y-81350150D01*
X171878569Y-81499131D01*
X172027550Y-81621396D01*
X172027552Y-81621397D01*
X172027555Y-81621399D01*
X172197515Y-81712244D01*
X172197521Y-81712247D01*
X172381950Y-81768193D01*
X172573750Y-81787084D01*
X172765550Y-81768193D01*
X172949979Y-81712247D01*
X173119950Y-81621396D01*
X173268931Y-81499131D01*
X173391196Y-81350150D01*
X173482047Y-81180179D01*
X173537993Y-80995750D01*
X173556884Y-80803950D01*
X174130616Y-80803950D01*
X174149506Y-80995748D01*
X174174609Y-81078502D01*
X174205225Y-81179428D01*
X174205455Y-81180184D01*
X174296300Y-81350144D01*
X174296304Y-81350150D01*
X174418569Y-81499131D01*
X174567550Y-81621396D01*
X174567552Y-81621397D01*
X174567555Y-81621399D01*
X174737515Y-81712244D01*
X174737521Y-81712247D01*
X174921950Y-81768193D01*
X174975609Y-81773478D01*
X175113749Y-81787084D01*
X175113749Y-81787083D01*
X175113750Y-81787084D01*
X175305550Y-81768193D01*
X175489979Y-81712247D01*
X175616718Y-81644504D01*
X176675350Y-81644504D01*
X176675351Y-81644508D01*
X176684221Y-81689106D01*
X176684222Y-81689108D01*
X176718016Y-81739684D01*
X176768592Y-81773478D01*
X176813193Y-81782350D01*
X178494306Y-81782349D01*
X178538908Y-81773478D01*
X178589484Y-81739684D01*
X178623278Y-81689108D01*
X178632150Y-81644507D01*
X178632149Y-79963394D01*
X178623278Y-79918792D01*
X178589484Y-79868216D01*
X178546816Y-79839706D01*
X178538907Y-79834421D01*
X178503178Y-79827314D01*
X178494307Y-79825550D01*
X178494306Y-79825550D01*
X176813195Y-79825550D01*
X176813191Y-79825551D01*
X176768593Y-79834421D01*
X176768592Y-79834422D01*
X176718016Y-79868216D01*
X176684221Y-79918792D01*
X176675350Y-79963393D01*
X176675350Y-81644504D01*
X175616718Y-81644504D01*
X175659950Y-81621396D01*
X175808931Y-81499131D01*
X175931196Y-81350150D01*
X176022047Y-81180179D01*
X176077993Y-80995750D01*
X176096884Y-80803950D01*
X176096384Y-80798878D01*
X176077993Y-80612151D01*
X176077993Y-80612150D01*
X176022047Y-80427721D01*
X175998826Y-80384277D01*
X175931199Y-80257755D01*
X175931195Y-80257749D01*
X175888816Y-80206110D01*
X175808931Y-80108769D01*
X175659950Y-79986504D01*
X175659944Y-79986500D01*
X175489984Y-79895655D01*
X175489981Y-79895654D01*
X175489979Y-79895653D01*
X175388302Y-79864809D01*
X175305548Y-79839706D01*
X175113750Y-79820816D01*
X174921951Y-79839706D01*
X174775370Y-79884171D01*
X174737521Y-79895653D01*
X174737520Y-79895653D01*
X174737515Y-79895655D01*
X174567555Y-79986500D01*
X174567549Y-79986504D01*
X174418569Y-80108769D01*
X174296304Y-80257749D01*
X174296300Y-80257755D01*
X174205455Y-80427715D01*
X174205453Y-80427720D01*
X174205453Y-80427721D01*
X174203992Y-80432538D01*
X174149506Y-80612151D01*
X174130616Y-80803949D01*
X174130616Y-80803950D01*
X173556884Y-80803950D01*
X173556384Y-80798878D01*
X173537993Y-80612151D01*
X173537993Y-80612150D01*
X173482047Y-80427721D01*
X173458826Y-80384277D01*
X173391199Y-80257755D01*
X173391195Y-80257749D01*
X173348816Y-80206110D01*
X173268931Y-80108769D01*
X173119950Y-79986504D01*
X173119944Y-79986500D01*
X172949984Y-79895655D01*
X172949981Y-79895654D01*
X172949979Y-79895653D01*
X172848302Y-79864809D01*
X172765548Y-79839706D01*
X172573750Y-79820816D01*
X172381951Y-79839706D01*
X172235370Y-79884171D01*
X172197521Y-79895653D01*
X172197520Y-79895653D01*
X172197515Y-79895655D01*
X172027555Y-79986500D01*
X172027549Y-79986504D01*
X171878569Y-80108769D01*
X171756304Y-80257749D01*
X171756300Y-80257755D01*
X171665455Y-80427715D01*
X171665453Y-80427720D01*
X171665453Y-80427721D01*
X171663992Y-80432538D01*
X171609506Y-80612151D01*
X171590616Y-80803949D01*
X171590616Y-80803950D01*
X171016884Y-80803950D01*
X171016384Y-80798878D01*
X170997993Y-80612151D01*
X170997993Y-80612150D01*
X170942047Y-80427721D01*
X170918826Y-80384277D01*
X170851199Y-80257755D01*
X170851195Y-80257749D01*
X170808816Y-80206110D01*
X170728931Y-80108769D01*
X170579950Y-79986504D01*
X170579944Y-79986500D01*
X170409984Y-79895655D01*
X170409981Y-79895654D01*
X170409979Y-79895653D01*
X170308302Y-79864809D01*
X170225548Y-79839706D01*
X170033750Y-79820816D01*
X169841951Y-79839706D01*
X169695370Y-79884171D01*
X169657521Y-79895653D01*
X169657520Y-79895653D01*
X169657515Y-79895655D01*
X169487555Y-79986500D01*
X169487549Y-79986504D01*
X169338569Y-80108769D01*
X169216304Y-80257749D01*
X169216300Y-80257755D01*
X169125455Y-80427715D01*
X169125453Y-80427720D01*
X169125453Y-80427721D01*
X169123992Y-80432538D01*
X169069506Y-80612151D01*
X169050616Y-80803949D01*
X169050616Y-80803950D01*
X168476884Y-80803950D01*
X168476384Y-80798878D01*
X168457993Y-80612151D01*
X168457993Y-80612150D01*
X168402047Y-80427721D01*
X168378826Y-80384277D01*
X168311199Y-80257755D01*
X168311195Y-80257749D01*
X168268816Y-80206110D01*
X168188931Y-80108769D01*
X168039950Y-79986504D01*
X168039944Y-79986500D01*
X167869984Y-79895655D01*
X167869981Y-79895654D01*
X167869979Y-79895653D01*
X167768302Y-79864809D01*
X167685548Y-79839706D01*
X167493750Y-79820816D01*
X167301951Y-79839706D01*
X167155370Y-79884171D01*
X167117521Y-79895653D01*
X167117520Y-79895653D01*
X167117515Y-79895655D01*
X166947555Y-79986500D01*
X166947549Y-79986504D01*
X166798569Y-80108769D01*
X166676304Y-80257749D01*
X166676300Y-80257755D01*
X166585455Y-80427715D01*
X166585453Y-80427720D01*
X166585453Y-80427721D01*
X166583992Y-80432538D01*
X166529506Y-80612151D01*
X166510616Y-80803949D01*
X166510616Y-80803950D01*
X165936884Y-80803950D01*
X165936384Y-80798878D01*
X165917993Y-80612151D01*
X165917993Y-80612150D01*
X165862047Y-80427721D01*
X165838826Y-80384277D01*
X165771199Y-80257755D01*
X165771195Y-80257749D01*
X165728816Y-80206110D01*
X165648931Y-80108769D01*
X165499950Y-79986504D01*
X165499944Y-79986500D01*
X165329984Y-79895655D01*
X165329981Y-79895654D01*
X165329979Y-79895653D01*
X165228302Y-79864809D01*
X165145548Y-79839706D01*
X164953750Y-79820816D01*
X164761951Y-79839706D01*
X164615370Y-79884171D01*
X164577521Y-79895653D01*
X164577520Y-79895653D01*
X164577515Y-79895655D01*
X164407555Y-79986500D01*
X164407549Y-79986504D01*
X164258569Y-80108769D01*
X164136304Y-80257749D01*
X164136300Y-80257755D01*
X164045455Y-80427715D01*
X164045453Y-80427720D01*
X164045453Y-80427721D01*
X164043992Y-80432538D01*
X163989506Y-80612151D01*
X163970616Y-80803949D01*
X163970616Y-80803950D01*
X163396884Y-80803950D01*
X163396384Y-80798878D01*
X163377993Y-80612151D01*
X163377993Y-80612150D01*
X163322047Y-80427721D01*
X163298826Y-80384277D01*
X163231199Y-80257755D01*
X163231195Y-80257749D01*
X163188816Y-80206110D01*
X163108931Y-80108769D01*
X162959950Y-79986504D01*
X162959944Y-79986500D01*
X162789984Y-79895655D01*
X162789981Y-79895654D01*
X162789979Y-79895653D01*
X162688302Y-79864809D01*
X162605548Y-79839706D01*
X162413750Y-79820816D01*
X162221951Y-79839706D01*
X162075370Y-79884171D01*
X162037521Y-79895653D01*
X162037520Y-79895653D01*
X162037515Y-79895655D01*
X161867555Y-79986500D01*
X161867549Y-79986504D01*
X161718569Y-80108769D01*
X161596304Y-80257749D01*
X161596300Y-80257755D01*
X161505455Y-80427715D01*
X161505453Y-80427720D01*
X161505453Y-80427721D01*
X161503992Y-80432538D01*
X161449506Y-80612151D01*
X161430616Y-80803949D01*
X161430616Y-80803950D01*
X160856884Y-80803950D01*
X160856384Y-80798878D01*
X160837993Y-80612151D01*
X160837993Y-80612150D01*
X160782047Y-80427721D01*
X160758826Y-80384277D01*
X160691199Y-80257755D01*
X160691195Y-80257749D01*
X160648816Y-80206110D01*
X160568931Y-80108769D01*
X160419950Y-79986504D01*
X160419944Y-79986500D01*
X160249984Y-79895655D01*
X160249981Y-79895654D01*
X160249979Y-79895653D01*
X160148302Y-79864809D01*
X160065548Y-79839706D01*
X159873750Y-79820816D01*
X159681951Y-79839706D01*
X159535370Y-79884171D01*
X159497521Y-79895653D01*
X159497520Y-79895653D01*
X159497515Y-79895655D01*
X159327555Y-79986500D01*
X159327549Y-79986504D01*
X159178569Y-80108769D01*
X159056304Y-80257749D01*
X159056300Y-80257755D01*
X158965455Y-80427715D01*
X158965453Y-80427720D01*
X158965453Y-80427721D01*
X158963992Y-80432538D01*
X158909506Y-80612151D01*
X158890616Y-80803949D01*
X158890616Y-80803950D01*
X158909506Y-80995748D01*
X158934609Y-81078502D01*
X158965225Y-81179428D01*
X158965455Y-81180184D01*
X159056300Y-81350144D01*
X159056304Y-81350150D01*
X159178569Y-81499131D01*
X159327550Y-81621396D01*
X159327552Y-81621397D01*
X159327555Y-81621399D01*
X159497515Y-81712244D01*
X159497521Y-81712247D01*
X159549493Y-81728012D01*
X159586470Y-81758359D01*
X159593850Y-81787821D01*
X159593850Y-84472123D01*
X159575544Y-84516317D01*
X159445918Y-84645944D01*
X159401724Y-84664250D01*
X159299941Y-84664250D01*
X159173663Y-84701328D01*
X159173654Y-84701332D01*
X159062939Y-84772484D01*
X159062937Y-84772486D01*
X158976751Y-84871948D01*
X158976747Y-84871954D01*
X158922074Y-84991673D01*
X158922073Y-84991676D01*
X158903343Y-85121950D01*
X158922073Y-85252223D01*
X158922074Y-85252226D01*
X158976747Y-85371945D01*
X158976751Y-85371951D01*
X159062937Y-85471413D01*
X159062939Y-85471415D01*
X159090258Y-85488972D01*
X159117540Y-85528265D01*
X159109046Y-85575340D01*
X159069753Y-85602622D01*
X159056468Y-85604050D01*
X158999576Y-85604050D01*
X158955382Y-85585744D01*
X158825910Y-85456272D01*
X158807604Y-85412078D01*
X158808241Y-85403181D01*
X158812157Y-85375953D01*
X158812157Y-85375951D01*
X158793426Y-85245676D01*
X158793425Y-85245673D01*
X158738752Y-85125954D01*
X158738748Y-85125948D01*
X158652562Y-85026486D01*
X158652560Y-85026484D01*
X158541845Y-84955332D01*
X158541836Y-84955328D01*
X158415559Y-84918250D01*
X158415557Y-84918250D01*
X158283943Y-84918250D01*
X158283941Y-84918250D01*
X158157663Y-84955328D01*
X158157654Y-84955332D01*
X158046939Y-85026484D01*
X158046937Y-85026486D01*
X157960751Y-85125948D01*
X157960747Y-85125954D01*
X157906074Y-85245673D01*
X157906073Y-85245676D01*
X157887343Y-85375950D01*
X114179250Y-85375950D01*
X114179250Y-80871718D01*
X127539337Y-80871718D01*
X127568966Y-81140997D01*
X127568967Y-81141004D01*
X127637489Y-81403103D01*
X127743442Y-81652432D01*
X127845323Y-81819369D01*
X127884570Y-81883678D01*
X128057859Y-82091907D01*
X128057873Y-82091921D01*
X128259615Y-82272682D01*
X128259620Y-82272686D01*
X128259625Y-82272690D01*
X128378835Y-82351558D01*
X128485565Y-82422170D01*
X128617770Y-82484145D01*
X128730854Y-82537157D01*
X128990276Y-82615205D01*
X129258296Y-82654650D01*
X129258297Y-82654650D01*
X129461388Y-82654650D01*
X129663926Y-82639826D01*
X129663928Y-82639825D01*
X129663935Y-82639825D01*
X129928361Y-82580922D01*
X130181393Y-82484145D01*
X130417638Y-82351558D01*
X130632060Y-82185987D01*
X130820090Y-81990959D01*
X130977720Y-81770633D01*
X131101590Y-81529703D01*
X131115857Y-81487885D01*
X131189057Y-81273318D01*
X131189057Y-81273317D01*
X131189061Y-81273306D01*
X131238268Y-81006905D01*
X131245685Y-80803953D01*
X131814106Y-80803953D01*
X131833440Y-81012616D01*
X131833442Y-81012627D01*
X131881116Y-81180179D01*
X131890794Y-81214192D01*
X131984206Y-81401790D01*
X132110499Y-81569028D01*
X132265371Y-81710212D01*
X132265370Y-81710212D01*
X132443545Y-81820534D01*
X132443550Y-81820537D01*
X132638966Y-81896242D01*
X132844966Y-81934750D01*
X132844969Y-81934750D01*
X133054531Y-81934750D01*
X133054534Y-81934750D01*
X133260534Y-81896242D01*
X133455950Y-81820537D01*
X133634128Y-81710213D01*
X133789001Y-81569028D01*
X133915294Y-81401790D01*
X134008706Y-81214192D01*
X134066058Y-81012624D01*
X134067622Y-80995748D01*
X134085394Y-80803953D01*
X134354106Y-80803953D01*
X134373440Y-81012616D01*
X134373442Y-81012627D01*
X134421116Y-81180179D01*
X134430794Y-81214192D01*
X134524206Y-81401790D01*
X134650499Y-81569028D01*
X134805371Y-81710212D01*
X134805370Y-81710212D01*
X134983545Y-81820534D01*
X134983550Y-81820537D01*
X135178966Y-81896242D01*
X135384966Y-81934750D01*
X135384969Y-81934750D01*
X135594531Y-81934750D01*
X135594534Y-81934750D01*
X135800534Y-81896242D01*
X135995950Y-81820537D01*
X136174128Y-81710213D01*
X136329001Y-81569028D01*
X136455294Y-81401790D01*
X136548706Y-81214192D01*
X136606058Y-81012624D01*
X136607622Y-80995748D01*
X136625394Y-80803953D01*
X136625394Y-80803950D01*
X137046616Y-80803950D01*
X137065506Y-80995748D01*
X137090609Y-81078502D01*
X137121225Y-81179428D01*
X137121455Y-81180184D01*
X137212300Y-81350144D01*
X137212304Y-81350150D01*
X137334569Y-81499131D01*
X137483550Y-81621396D01*
X137483552Y-81621397D01*
X137483555Y-81621399D01*
X137653515Y-81712244D01*
X137653521Y-81712247D01*
X137837950Y-81768193D01*
X138029750Y-81787084D01*
X138221550Y-81768193D01*
X138405979Y-81712247D01*
X138575950Y-81621396D01*
X138724931Y-81499131D01*
X138847196Y-81350150D01*
X138938047Y-81180179D01*
X138993993Y-80995750D01*
X139012884Y-80803954D01*
X139435411Y-80803954D01*
X139454723Y-81012376D01*
X139454725Y-81012388D01*
X139512010Y-81213721D01*
X139605316Y-81401102D01*
X139670852Y-81487885D01*
X140108627Y-81050110D01*
X140152821Y-81031804D01*
X140197015Y-81050110D01*
X140201685Y-81055335D01*
X140208283Y-81063608D01*
X140263998Y-81133472D01*
X140263999Y-81133473D01*
X140264001Y-81133475D01*
X140315352Y-81168485D01*
X140341555Y-81208505D01*
X140331785Y-81255332D01*
X140324339Y-81264319D01*
X139882668Y-81705991D01*
X139886153Y-81709168D01*
X139886158Y-81709172D01*
X140064133Y-81819369D01*
X140259326Y-81894986D01*
X140465081Y-81933449D01*
X140465089Y-81933450D01*
X140674411Y-81933450D01*
X140674418Y-81933449D01*
X140880173Y-81894986D01*
X141075366Y-81819369D01*
X141253343Y-81709170D01*
X141256830Y-81705991D01*
X140818655Y-81267816D01*
X140800349Y-81223622D01*
X140818655Y-81179428D01*
X140820339Y-81177806D01*
X140822971Y-81175362D01*
X140822974Y-81175362D01*
X140921200Y-81084222D01*
X140933102Y-81063606D01*
X140971049Y-81034486D01*
X141018476Y-81040728D01*
X141031422Y-81050662D01*
X141468646Y-81487886D01*
X141468646Y-81487885D01*
X141534185Y-81401100D01*
X141627489Y-81213721D01*
X141684774Y-81012388D01*
X141684776Y-81012376D01*
X141704089Y-80803954D01*
X141704089Y-80803950D01*
X142126616Y-80803950D01*
X142145506Y-80995748D01*
X142170609Y-81078502D01*
X142201225Y-81179428D01*
X142201455Y-81180184D01*
X142292300Y-81350144D01*
X142292304Y-81350150D01*
X142414569Y-81499131D01*
X142563550Y-81621396D01*
X142563552Y-81621397D01*
X142563555Y-81621399D01*
X142733515Y-81712244D01*
X142733521Y-81712247D01*
X142917950Y-81768193D01*
X143109750Y-81787084D01*
X143301550Y-81768193D01*
X143485979Y-81712247D01*
X143655950Y-81621396D01*
X143804931Y-81499131D01*
X143927196Y-81350150D01*
X144018047Y-81180179D01*
X144073993Y-80995750D01*
X144092884Y-80803950D01*
X144666616Y-80803950D01*
X144685506Y-80995748D01*
X144710609Y-81078502D01*
X144741225Y-81179428D01*
X144741455Y-81180184D01*
X144832300Y-81350144D01*
X144832304Y-81350150D01*
X144954569Y-81499131D01*
X145103550Y-81621396D01*
X145103552Y-81621397D01*
X145103555Y-81621399D01*
X145273515Y-81712244D01*
X145273521Y-81712247D01*
X145457950Y-81768193D01*
X145511609Y-81773478D01*
X145649749Y-81787084D01*
X145649749Y-81787083D01*
X145649750Y-81787084D01*
X145841550Y-81768193D01*
X146025979Y-81712247D01*
X146195950Y-81621396D01*
X146344931Y-81499131D01*
X146467196Y-81350150D01*
X146558047Y-81180179D01*
X146613993Y-80995750D01*
X146632884Y-80803950D01*
X147206616Y-80803950D01*
X147225506Y-80995748D01*
X147250609Y-81078502D01*
X147281225Y-81179428D01*
X147281455Y-81180184D01*
X147372300Y-81350144D01*
X147372304Y-81350150D01*
X147494569Y-81499131D01*
X147643550Y-81621396D01*
X147643552Y-81621397D01*
X147643555Y-81621399D01*
X147813515Y-81712244D01*
X147813521Y-81712247D01*
X147865493Y-81728012D01*
X147902470Y-81758359D01*
X147909850Y-81787821D01*
X147909850Y-82946090D01*
X147891544Y-82990284D01*
X147888279Y-82993325D01*
X147886940Y-82994484D01*
X147886938Y-82994486D01*
X147886936Y-82994488D01*
X147886934Y-82994490D01*
X147800751Y-83093948D01*
X147800747Y-83093954D01*
X147746074Y-83213673D01*
X147746073Y-83213676D01*
X147727343Y-83343950D01*
X147746073Y-83474223D01*
X147746074Y-83474226D01*
X147800747Y-83593945D01*
X147800751Y-83593951D01*
X147886937Y-83693413D01*
X147886939Y-83693415D01*
X147997654Y-83764567D01*
X147997659Y-83764570D01*
X148123940Y-83801649D01*
X148123942Y-83801650D01*
X148123943Y-83801650D01*
X148255558Y-83801650D01*
X148255558Y-83801649D01*
X148381841Y-83764570D01*
X148492562Y-83693414D01*
X148578752Y-83593946D01*
X148633426Y-83474225D01*
X148652157Y-83343950D01*
X148633426Y-83213675D01*
X148578752Y-83093954D01*
X148578748Y-83093948D01*
X148492565Y-82994490D01*
X148492562Y-82994486D01*
X148492555Y-82994481D01*
X148491221Y-82993325D01*
X148490762Y-82992409D01*
X148489635Y-82991108D01*
X148489967Y-82990820D01*
X148469809Y-82950549D01*
X148469650Y-82946090D01*
X148469650Y-81787821D01*
X148487956Y-81743627D01*
X148514005Y-81728012D01*
X148565979Y-81712247D01*
X148735950Y-81621396D01*
X148884931Y-81499131D01*
X149007196Y-81350150D01*
X149098047Y-81180179D01*
X149153993Y-80995750D01*
X149172884Y-80803950D01*
X149746616Y-80803950D01*
X149765506Y-80995748D01*
X149790609Y-81078502D01*
X149821225Y-81179428D01*
X149821455Y-81180184D01*
X149912300Y-81350144D01*
X149912304Y-81350150D01*
X150034569Y-81499131D01*
X150183550Y-81621396D01*
X150183552Y-81621397D01*
X150183555Y-81621399D01*
X150353515Y-81712244D01*
X150353521Y-81712247D01*
X150537950Y-81768193D01*
X150591609Y-81773478D01*
X150729749Y-81787084D01*
X150729749Y-81787083D01*
X150729750Y-81787084D01*
X150921550Y-81768193D01*
X151105979Y-81712247D01*
X151275950Y-81621396D01*
X151424931Y-81499131D01*
X151547196Y-81350150D01*
X151638047Y-81180179D01*
X151693993Y-80995750D01*
X151712884Y-80803950D01*
X152286616Y-80803950D01*
X152305506Y-80995748D01*
X152330609Y-81078502D01*
X152361225Y-81179428D01*
X152361455Y-81180184D01*
X152452300Y-81350144D01*
X152452304Y-81350150D01*
X152574569Y-81499131D01*
X152723550Y-81621396D01*
X152723552Y-81621397D01*
X152723555Y-81621399D01*
X152893515Y-81712244D01*
X152893521Y-81712247D01*
X153077950Y-81768193D01*
X153269750Y-81787084D01*
X153461550Y-81768193D01*
X153645979Y-81712247D01*
X153772718Y-81644504D01*
X154831350Y-81644504D01*
X154831351Y-81644508D01*
X154840221Y-81689106D01*
X154840222Y-81689108D01*
X154874016Y-81739684D01*
X154924592Y-81773478D01*
X154969193Y-81782350D01*
X156650306Y-81782349D01*
X156694908Y-81773478D01*
X156745484Y-81739684D01*
X156779278Y-81689108D01*
X156788150Y-81644507D01*
X156788149Y-79963394D01*
X156779278Y-79918792D01*
X156745484Y-79868216D01*
X156702816Y-79839706D01*
X156694907Y-79834421D01*
X156659178Y-79827314D01*
X156650307Y-79825550D01*
X156650306Y-79825550D01*
X154969195Y-79825550D01*
X154969191Y-79825551D01*
X154924593Y-79834421D01*
X154924592Y-79834422D01*
X154874016Y-79868216D01*
X154840221Y-79918792D01*
X154831350Y-79963393D01*
X154831350Y-81644504D01*
X153772718Y-81644504D01*
X153815950Y-81621396D01*
X153964931Y-81499131D01*
X154087196Y-81350150D01*
X154178047Y-81180179D01*
X154233993Y-80995750D01*
X154252884Y-80803950D01*
X154252384Y-80798878D01*
X154233993Y-80612151D01*
X154233993Y-80612150D01*
X154178047Y-80427721D01*
X154154826Y-80384277D01*
X154087199Y-80257755D01*
X154087195Y-80257749D01*
X154044816Y-80206110D01*
X153964931Y-80108769D01*
X153815950Y-79986504D01*
X153815944Y-79986500D01*
X153645984Y-79895655D01*
X153645981Y-79895654D01*
X153645979Y-79895653D01*
X153544302Y-79864809D01*
X153461548Y-79839706D01*
X153269750Y-79820816D01*
X153077951Y-79839706D01*
X152931370Y-79884171D01*
X152893521Y-79895653D01*
X152893520Y-79895653D01*
X152893515Y-79895655D01*
X152723555Y-79986500D01*
X152723549Y-79986504D01*
X152574569Y-80108769D01*
X152452304Y-80257749D01*
X152452300Y-80257755D01*
X152361455Y-80427715D01*
X152361453Y-80427720D01*
X152361453Y-80427721D01*
X152359992Y-80432538D01*
X152305506Y-80612151D01*
X152286616Y-80803949D01*
X152286616Y-80803950D01*
X151712884Y-80803950D01*
X151712384Y-80798878D01*
X151693993Y-80612151D01*
X151693993Y-80612150D01*
X151638047Y-80427721D01*
X151614826Y-80384277D01*
X151547199Y-80257755D01*
X151547195Y-80257749D01*
X151504816Y-80206110D01*
X151424931Y-80108769D01*
X151275950Y-79986504D01*
X151275944Y-79986500D01*
X151105984Y-79895655D01*
X151105981Y-79895654D01*
X151105979Y-79895653D01*
X151004302Y-79864809D01*
X150921548Y-79839706D01*
X150729750Y-79820816D01*
X150537951Y-79839706D01*
X150391370Y-79884171D01*
X150353521Y-79895653D01*
X150353520Y-79895653D01*
X150353515Y-79895655D01*
X150183555Y-79986500D01*
X150183549Y-79986504D01*
X150034569Y-80108769D01*
X149912304Y-80257749D01*
X149912300Y-80257755D01*
X149821455Y-80427715D01*
X149821453Y-80427720D01*
X149821453Y-80427721D01*
X149819992Y-80432538D01*
X149765506Y-80612151D01*
X149746616Y-80803949D01*
X149746616Y-80803950D01*
X149172884Y-80803950D01*
X149172384Y-80798878D01*
X149153993Y-80612151D01*
X149153993Y-80612150D01*
X149098047Y-80427721D01*
X149074826Y-80384277D01*
X149007199Y-80257755D01*
X149007195Y-80257749D01*
X148964816Y-80206110D01*
X148884931Y-80108769D01*
X148735950Y-79986504D01*
X148735944Y-79986500D01*
X148565984Y-79895655D01*
X148565981Y-79895654D01*
X148565979Y-79895653D01*
X148464302Y-79864809D01*
X148381548Y-79839706D01*
X148189750Y-79820816D01*
X147997951Y-79839706D01*
X147851370Y-79884171D01*
X147813521Y-79895653D01*
X147813520Y-79895653D01*
X147813515Y-79895655D01*
X147643555Y-79986500D01*
X147643549Y-79986504D01*
X147494569Y-80108769D01*
X147372304Y-80257749D01*
X147372300Y-80257755D01*
X147281455Y-80427715D01*
X147281453Y-80427720D01*
X147281453Y-80427721D01*
X147279992Y-80432538D01*
X147225506Y-80612151D01*
X147206616Y-80803949D01*
X147206616Y-80803950D01*
X146632884Y-80803950D01*
X146632384Y-80798878D01*
X146613993Y-80612151D01*
X146613993Y-80612150D01*
X146558047Y-80427721D01*
X146534826Y-80384277D01*
X146467199Y-80257755D01*
X146467195Y-80257749D01*
X146424816Y-80206110D01*
X146344931Y-80108769D01*
X146195950Y-79986504D01*
X146195944Y-79986500D01*
X146025984Y-79895655D01*
X146025981Y-79895654D01*
X146025979Y-79895653D01*
X145924302Y-79864809D01*
X145841548Y-79839706D01*
X145649750Y-79820816D01*
X145457951Y-79839706D01*
X145311370Y-79884171D01*
X145273521Y-79895653D01*
X145273520Y-79895653D01*
X145273515Y-79895655D01*
X145103555Y-79986500D01*
X145103549Y-79986504D01*
X144954569Y-80108769D01*
X144832304Y-80257749D01*
X144832300Y-80257755D01*
X144741455Y-80427715D01*
X144741453Y-80427720D01*
X144741453Y-80427721D01*
X144739992Y-80432538D01*
X144685506Y-80612151D01*
X144666616Y-80803949D01*
X144666616Y-80803950D01*
X144092884Y-80803950D01*
X144092384Y-80798878D01*
X144073993Y-80612151D01*
X144073993Y-80612150D01*
X144018047Y-80427721D01*
X143994826Y-80384277D01*
X143927199Y-80257755D01*
X143927195Y-80257749D01*
X143884816Y-80206110D01*
X143804931Y-80108769D01*
X143655950Y-79986504D01*
X143655944Y-79986500D01*
X143485984Y-79895655D01*
X143485981Y-79895654D01*
X143485979Y-79895653D01*
X143384302Y-79864809D01*
X143301548Y-79839706D01*
X143109750Y-79820816D01*
X142917951Y-79839706D01*
X142771370Y-79884171D01*
X142733521Y-79895653D01*
X142733520Y-79895653D01*
X142733515Y-79895655D01*
X142563555Y-79986500D01*
X142563549Y-79986504D01*
X142414569Y-80108769D01*
X142292304Y-80257749D01*
X142292300Y-80257755D01*
X142201455Y-80427715D01*
X142201453Y-80427720D01*
X142201453Y-80427721D01*
X142199992Y-80432538D01*
X142145506Y-80612151D01*
X142126616Y-80803949D01*
X142126616Y-80803950D01*
X141704089Y-80803950D01*
X141704089Y-80803945D01*
X141684776Y-80595523D01*
X141684774Y-80595511D01*
X141627489Y-80394178D01*
X141534183Y-80206797D01*
X141468646Y-80120013D01*
X141468646Y-80120012D01*
X141030871Y-80557788D01*
X140986677Y-80576094D01*
X140942483Y-80557788D01*
X140937813Y-80552562D01*
X140875504Y-80474430D01*
X140875502Y-80474429D01*
X140875502Y-80474428D01*
X140846785Y-80454849D01*
X140824145Y-80439413D01*
X140797943Y-80399392D01*
X140807713Y-80352565D01*
X140815159Y-80343579D01*
X141256829Y-79901908D01*
X141253345Y-79898731D01*
X141253340Y-79898727D01*
X141075366Y-79788530D01*
X140880173Y-79712913D01*
X140674418Y-79674450D01*
X140465081Y-79674450D01*
X140259326Y-79712913D01*
X140064130Y-79788531D01*
X140064128Y-79788532D01*
X139886162Y-79898725D01*
X139886154Y-79898731D01*
X139882669Y-79901907D01*
X139882669Y-79901908D01*
X140320844Y-80340083D01*
X140339150Y-80384277D01*
X140320844Y-80428471D01*
X140319161Y-80430093D01*
X140218297Y-80523680D01*
X140206397Y-80544293D01*
X140168447Y-80573413D01*
X140121021Y-80567169D01*
X140108077Y-80557237D01*
X139670852Y-80120013D01*
X139605316Y-80206797D01*
X139512010Y-80394178D01*
X139454725Y-80595511D01*
X139454723Y-80595523D01*
X139435411Y-80803945D01*
X139435411Y-80803954D01*
X139012884Y-80803954D01*
X139012884Y-80803950D01*
X139012384Y-80798878D01*
X138993993Y-80612151D01*
X138993993Y-80612150D01*
X138938047Y-80427721D01*
X138914826Y-80384277D01*
X138847199Y-80257755D01*
X138847195Y-80257749D01*
X138804816Y-80206110D01*
X138724931Y-80108769D01*
X138575950Y-79986504D01*
X138575944Y-79986500D01*
X138405984Y-79895655D01*
X138405981Y-79895654D01*
X138405979Y-79895653D01*
X138304302Y-79864809D01*
X138221548Y-79839706D01*
X138029750Y-79820816D01*
X137837951Y-79839706D01*
X137691370Y-79884171D01*
X137653521Y-79895653D01*
X137653520Y-79895653D01*
X137653515Y-79895655D01*
X137483555Y-79986500D01*
X137483549Y-79986504D01*
X137334569Y-80108769D01*
X137212304Y-80257749D01*
X137212300Y-80257755D01*
X137121455Y-80427715D01*
X137121453Y-80427720D01*
X137121453Y-80427721D01*
X137119992Y-80432538D01*
X137065506Y-80612151D01*
X137046616Y-80803949D01*
X137046616Y-80803950D01*
X136625394Y-80803950D01*
X136625394Y-80803946D01*
X136606059Y-80595283D01*
X136606057Y-80595272D01*
X136581894Y-80510350D01*
X136548706Y-80393708D01*
X136455294Y-80206110D01*
X136329001Y-80038872D01*
X136174128Y-79897687D01*
X136174129Y-79897687D01*
X135995954Y-79787365D01*
X135995951Y-79787364D01*
X135995950Y-79787363D01*
X135800534Y-79711658D01*
X135800532Y-79711657D01*
X135800528Y-79711656D01*
X135594538Y-79673150D01*
X135594534Y-79673150D01*
X135384966Y-79673150D01*
X135384961Y-79673150D01*
X135178971Y-79711656D01*
X134983545Y-79787365D01*
X134805370Y-79897687D01*
X134650497Y-80038874D01*
X134650495Y-80038876D01*
X134524206Y-80206110D01*
X134430794Y-80393707D01*
X134373442Y-80595272D01*
X134373440Y-80595283D01*
X134354106Y-80803946D01*
X134354106Y-80803953D01*
X134085394Y-80803953D01*
X134085394Y-80803946D01*
X134066059Y-80595283D01*
X134066057Y-80595272D01*
X134041894Y-80510350D01*
X134008706Y-80393708D01*
X133915294Y-80206110D01*
X133789001Y-80038872D01*
X133634128Y-79897687D01*
X133634129Y-79897687D01*
X133455954Y-79787365D01*
X133455951Y-79787364D01*
X133455950Y-79787363D01*
X133260534Y-79711658D01*
X133260532Y-79711657D01*
X133260528Y-79711656D01*
X133054538Y-79673150D01*
X133054534Y-79673150D01*
X132844966Y-79673150D01*
X132844961Y-79673150D01*
X132638971Y-79711656D01*
X132443545Y-79787365D01*
X132265370Y-79897687D01*
X132110497Y-80038874D01*
X132110495Y-80038876D01*
X131984206Y-80206110D01*
X131890794Y-80393707D01*
X131833442Y-80595272D01*
X131833440Y-80595283D01*
X131814106Y-80803946D01*
X131814106Y-80803953D01*
X131245685Y-80803953D01*
X131248162Y-80736178D01*
X131218533Y-80466896D01*
X131150011Y-80204797D01*
X131044058Y-79955468D01*
X130902931Y-79724224D01*
X130860427Y-79673150D01*
X130729640Y-79515992D01*
X130729626Y-79515978D01*
X130527884Y-79335217D01*
X130527877Y-79335212D01*
X130527875Y-79335210D01*
X130408667Y-79256343D01*
X130301934Y-79185729D01*
X130056649Y-79070744D01*
X130056644Y-79070742D01*
X129797233Y-78992697D01*
X129797219Y-78992694D01*
X129529210Y-78953250D01*
X129529204Y-78953250D01*
X129326118Y-78953250D01*
X129326112Y-78953250D01*
X129123573Y-78968073D01*
X128859136Y-79026978D01*
X128606105Y-79123755D01*
X128369859Y-79256343D01*
X128155441Y-79421912D01*
X128155432Y-79421919D01*
X127967412Y-79616937D01*
X127967405Y-79616946D01*
X127809778Y-79837268D01*
X127685909Y-80078198D01*
X127685906Y-80078204D01*
X127598442Y-80334581D01*
X127598437Y-80334602D01*
X127549233Y-80600986D01*
X127549231Y-80601007D01*
X127539337Y-80871718D01*
X114179250Y-80871718D01*
X114179250Y-79535182D01*
X114179346Y-79532731D01*
X114182465Y-79493079D01*
X114194180Y-79344153D01*
X114195712Y-79334484D01*
X114239002Y-79154149D01*
X114242027Y-79144836D01*
X114312997Y-78973488D01*
X114317444Y-78964760D01*
X114414344Y-78806630D01*
X114420106Y-78798700D01*
X114540557Y-78657668D01*
X114547468Y-78650757D01*
X114688502Y-78530303D01*
X114696430Y-78524544D01*
X114854560Y-78427644D01*
X114863288Y-78423197D01*
X115034636Y-78352227D01*
X115043949Y-78349202D01*
X115224284Y-78305912D01*
X115233953Y-78304380D01*
X115382879Y-78292665D01*
X115422531Y-78289546D01*
X115424982Y-78289450D01*
X115432034Y-78289450D01*
X180439464Y-78289450D01*
X180446802Y-78289450D01*
X180448690Y-78289507D01*
G37*
%TD.AperFunction*%
%TD*%
M02*
