M48
; DRILL file {KiCad 7.0.7} date 2023 October 02, Monday 21:57:24
; FORMAT={-:-/ absolute / inch / decimal}
; #@! TF.CreationDate,2023-10-02T21:57:24-04:00
; #@! TF.GenerationSoftware,Kicad,Pcbnew,7.0.7
; #@! TF.FileFunction,Plated,1,2,PTH
FMAT,2
INCH
; #@! TA.AperFunction,Plated,PTH,ViaDrill
T1C0.0120
; #@! TA.AperFunction,Plated,PTH,ViaDrill
T2C0.0150
; #@! TA.AperFunction,Plated,PTH,ViaDrill
T3C0.0236
; #@! TA.AperFunction,Plated,PTH,ComponentDrill
T4C0.0350
; #@! TA.AperFunction,Plated,PTH,ComponentDrill
T5C0.0360
; #@! TA.AperFunction,Plated,PTH,ComponentDrill
T6C0.0551
%
G90
G05
T1
X4.9342Y-4.3713
X4.9742Y-4.4313
X4.9942Y-4.5113
X5.0242Y-4.4813
X5.0342Y-4.5313
X5.0642Y-4.5713
X5.0742Y-4.5313
X5.1242Y-3.4413
X5.1442Y-4.5413
X5.1742Y-3.4413
X5.2042Y-4.4613
X5.2092Y-3.6363
X5.2242Y-3.4413
X5.2342Y-3.8113
X5.2342Y-4.4313
X5.2342Y-4.4813
X5.3742Y-4.5413
X5.4042Y-3.6513
X5.4442Y-4.4413
X5.4642Y-3.6513
X5.4942Y-4.3813
X5.4942Y-4.5313
X5.4992Y-3.9713
X5.6342Y-4.5513
X5.7342Y-4.1513
X5.7442Y-4.3613
X5.7642Y-3.9713
X5.8342Y-3.2813
X5.8442Y-4.1113
X6.0642Y-4.3113
X6.1142Y-4.6313
X6.1242Y-4.4313
X6.1442Y-4.6613
X6.1542Y-4.1763
X6.1542Y-4.2113
X6.1642Y-4.0713
X6.2342Y-3.3613
X6.2342Y-4.4613
X6.2542Y-4.1813
X6.2642Y-4.0813
X6.2742Y-3.3513
X6.3042Y-4.4113
X6.3442Y-4.5813
X6.3642Y-4.2913
X6.3842Y-3.8513
X6.4042Y-4.9213
X6.4542Y-4.2913
X6.4542Y-4.3313
X6.4642Y-3.4013
X6.4642Y-4.0913
X6.4642Y-4.2013
X6.4942Y-3.6213
X6.4942Y-3.6813
X6.4942Y-4.5813
X6.5042Y-4.1313
X6.5242Y-4.5413
X6.5242Y-4.6613
X6.5442Y-4.7013
X6.5642Y-4.1213
X6.5942Y-4.5513
X6.6142Y-3.7313
X6.6142Y-3.8413
X6.6342Y-4.0813
X6.6442Y-4.1313
X6.8042Y-4.2913
X6.8042Y-4.3313
T2
X4.7942Y-4.4063
X4.7942Y-4.8563
X5.4042Y-4.7313
X5.5042Y-4.8063
X5.8642Y-4.0363
X5.9092Y-3.9863
X5.9592Y-4.1613
X6.2492Y-4.9163
X6.2992Y-4.9163
X6.3542Y-4.9213
T3
X4.5542Y-3.4013
X4.5542Y-3.4513
X4.5542Y-3.5013
X4.5542Y-3.5513
X4.5542Y-3.6013
X4.5542Y-3.6513
X4.5542Y-3.7013
X4.5542Y-3.7513
X4.5542Y-3.8013
X4.9542Y-3.3763
X4.9542Y-3.4263
X4.9542Y-3.4763
X4.9542Y-3.5263
X4.9542Y-3.5763
X4.9542Y-3.6263
X4.9542Y-3.6763
X4.9542Y-3.7263
X4.9542Y-3.7763
T4
X5.2342Y-3.1813
X5.3342Y-3.1813
X5.4342Y-3.1813
X5.5342Y-3.1813
X5.5942Y-5.0813
X5.6342Y-3.1813
X5.6942Y-5.0813
X5.7342Y-3.1813
X5.7942Y-5.0813
X5.8342Y-3.1813
X5.8942Y-5.0813
X5.9342Y-3.1813
X5.9942Y-5.0813
X6.0342Y-3.1813
X6.0942Y-5.0813
X6.1342Y-3.1813
X6.1942Y-5.0813
X6.2942Y-3.1813
X6.2942Y-5.0813
X6.3942Y-3.1813
X6.4942Y-3.1813
X6.4942Y-5.0813
X6.5942Y-3.1813
X6.5942Y-5.0813
X6.6942Y-3.1813
X6.6942Y-5.0813
X6.7942Y-3.1813
X6.7942Y-5.0813
X6.8942Y-3.1813
X6.8942Y-5.0813
X6.9942Y-3.1813
X6.9942Y-3.9813
X6.9942Y-4.0813
X6.9942Y-4.1813
X6.9942Y-5.0813
X7.0942Y-3.9813
X7.0942Y-4.0813
X7.0942Y-4.1813
T5
X4.6192Y-4.3563
X4.7192Y-4.3563
T6
X4.6692Y-4.0063
X4.6692Y-4.1441
X4.6692Y-4.5813
X4.6692Y-4.7191
X5.5087Y-3.4763
X5.6464Y-3.4763
X5.7842Y-3.4763
X5.9387Y-3.4763
X6.0764Y-3.4763
X6.2142Y-3.4763
X6.8992Y-3.3729
X6.8992Y-3.5107
X6.8992Y-3.6485
X6.8992Y-3.7863
X6.8992Y-4.4729
X6.8992Y-4.6107
X6.8992Y-4.7485
X6.8992Y-4.8863
T0
M30
